<svg viewBox="0 0 531 542" fill="none" xmlns="http://www.w3.org/2000/svg">
    <path d="M518.1 286.2H344.3C338.4 286.2 333.6 291 333.6 296.9V340.5H528.8V296.9C528.9 291 524.1 286.2 518.1 286.2Z"
        fill="white" />
    <path
        d="M528.8 187.5C528.8 181.6 524 176.8 518.1 176.8H310.5C278.8 176.8 252.9 202 251.9 233.7L251.7 241.5V399.1H301.8C307.7 399.1 312.5 394.3 312.5 388.4V260.6C313.7 244.7 326.5 232.1 342.5 231.1H528.8V187.5Z"
        fill="white" />
    <path
        d="M423.7 414.6C421.5 412.4 417.8 412.4 415.6 414.6C379.4 450.5 329.5 472.7 274.5 472.7C163.9 472.7 74.2 383 74.2 272.4C74.2 161.8 163.9 72.0998 274.5 72.0998C328.2 72.0998 376.9 93.1998 412.9 127.6C415.2 129.8 418.7 129.7 420.9 127.5L453.6 94.7998C455.9 92.4998 455.8 88.8998 453.6 86.6998C408.1 41.5998 345.9 13.1998 277.1 11.5998C128.3 7.99984 6.30002 131.3 11.3 280.1C16 419.4 130.4 530.8 270.8 530.8C342.8 530.8 408 501.5 455 454.1C457.2 451.8 457.2 448.2 455 446L423.7 414.6Z"
        fill="white" stroke="white" stroke-width="20" stroke-miterlimit="10" />
</svg>