<svg viewBox="0 0 580 580" fill="none" xmlns="http://www.w3.org/2000/svg">
<path fill-rule="evenodd" clip-rule="evenodd" d="M580.093 290L578.345 289.925L573.147 289.412L564.648 288.035L553.082 285.404L538.772 281.185L522.11 275.106L503.544 266.967L483.568 256.659L462.703 244.155L441.476 229.532L420.397 212.952L399.962 194.665L380.603 175.001L362.718 154.358L346.603 133.194L332.501 112.007L320.544 91.3166L310.78 71.6458L303.171 53.5117L297.579 37.397L293.785 23.7369L291.503 12.9122L290.378 5.21858L290.014 0.87373L289.984 0L289.841 2.61779L289.147 8.6591L287.492 17.9506L284.493 30.2338L279.832 45.1722L273.254 62.3578L264.581 81.3214L253.719 101.567L240.678 122.574L225.545 143.812L208.513 164.775L189.845 184.979L169.899 204.001L149.082 221.472L127.864 237.1L106.752 250.679L86.2654 262.088L66.9346 271.302L49.2594 278.393L33.7193 283.513L20.7357 286.899L10.6691 288.854L3.7983 289.752L0.310181 289.99V290.01L3.7983 290.248L10.6691 291.146L20.7357 293.101L33.7193 296.487L49.2594 301.607L66.9346 308.698L86.2654 317.912L106.752 329.321L127.864 342.9L149.082 358.528L169.899 375.999L189.845 395.021L208.513 415.226L225.545 436.188L240.678 457.426L253.719 478.433L264.581 498.679L273.254 517.642L279.832 534.828L284.493 549.766L287.492 562.049L289.147 571.341L289.841 577.382L289.984 580L290.014 579.126L290.378 574.781L291.503 567.088L293.785 556.263L297.579 542.603L303.171 526.488L310.78 508.354L320.544 488.683L332.501 467.993L346.603 446.806L362.718 425.642L380.603 404.999L399.962 385.335L420.397 367.048L441.476 350.468L462.703 335.845L483.568 323.341L503.544 313.033L522.11 304.894L538.772 298.815L553.082 294.596L564.648 291.965L573.147 290.588L578.345 290.075L580.093 290Z" fill="#DCDCDC"/>
<path fill-rule="evenodd" clip-rule="evenodd" d="M541.225 290L539.712 289.935L535.21 289.491L527.849 288.298L517.833 286.019L505.441 282.365L491.011 277.101L474.932 270.053L457.632 261.126L439.563 250.297L421.179 237.634L402.925 223.274L385.227 207.437L368.463 190.408L352.973 172.53L339.017 154.202L326.804 135.854L316.449 117.935L307.994 100.9L301.404 85.195L296.561 71.2393L293.275 59.4093L291.3 50.0348L290.325 43.372L290.01 39.6092L289.984 38.8525L289.86 41.1196L289.259 46.3515L287.825 54.3982L285.229 65.0357L281.192 77.9728L275.495 92.856L267.984 109.279L258.577 126.812L247.283 145.004L234.178 163.397L219.428 181.551L203.261 199.049L185.987 215.522L167.959 230.653L149.584 244.187L131.3 255.947L113.558 265.828L96.8173 273.807L81.5102 279.948L68.052 284.382L56.8079 287.315L48.09 289.008L42.1397 289.785L39.1189 289.991V290.009L42.1397 290.215L48.09 290.992L56.8079 292.685L68.052 295.618L81.5102 300.052L96.8173 306.193L113.558 314.172L131.3 324.053L149.584 335.812L167.959 349.347L185.987 364.478L203.261 380.951L219.428 398.448L234.178 416.603L247.283 434.995L258.577 453.188L267.984 470.721L275.495 487.144L281.192 502.027L285.229 514.964L287.825 525.602L289.259 533.648L289.86 538.88L289.984 541.147L290.01 540.391L290.325 536.628L291.3 529.965L293.275 520.591L296.561 508.761L301.404 494.805L307.994 479.1L316.449 462.065L326.804 444.146L339.017 425.798L352.973 407.47L368.463 389.592L385.227 372.563L402.925 356.725L421.179 342.366L439.563 329.703L457.632 318.874L474.932 309.947L491.011 302.899L505.441 297.634L517.833 293.981L527.849 291.702L535.21 290.509L539.712 290.065L541.225 290Z" fill="#C5C5C5"/>
<path fill-rule="evenodd" clip-rule="evenodd" d="M507.565 290L506.255 289.944L502.356 289.559L495.982 288.526L487.307 286.553L476.575 283.388L464.079 278.829L450.154 272.725L435.172 264.994L419.524 255.616L403.603 244.649L387.794 232.214L372.467 218.499L357.949 203.751L344.534 188.268L332.448 172.396L321.872 156.506L312.904 140.987L305.581 126.234L299.875 112.634L295.68 100.548L292.835 90.3027L291.124 82.1841L290.28 76.4139L290.007 73.1553L289.984 72.5L289.877 74.4633L289.357 78.9943L288.115 85.9629L285.866 95.1753L282.37 106.379L277.436 119.268L270.932 133.491L262.785 148.675L253.004 164.43L241.655 180.359L228.881 196.081L214.88 211.234L199.92 225.5L184.308 238.604L168.394 250.325L152.56 260.509L137.195 269.066L122.697 275.976L109.441 281.295L97.7855 285.135L88.0478 287.675L80.4979 289.141L75.3447 289.814L72.7286 289.992V290.008L75.3447 290.186L80.4979 290.859L88.0478 292.325L97.7855 294.865L109.441 298.705L122.697 304.024L137.195 310.934L152.56 319.491L168.394 329.675L184.308 341.396L199.92 354.5L214.88 368.766L228.881 383.919L241.655 399.641L253.004 415.57L262.785 431.325L270.932 446.509L277.436 460.732L282.37 473.621L285.866 484.825L288.115 494.037L289.357 501.006L289.877 505.537L289.984 507.5L290.007 506.845L290.28 503.586L291.124 497.816L292.835 489.697L295.68 479.452L299.875 467.366L305.581 453.766L312.904 439.013L321.872 423.494L332.448 407.604L344.534 391.732L357.949 376.249L372.467 361.501L387.794 347.786L403.603 335.351L419.524 324.384L435.172 315.006L450.154 307.275L464.079 301.171L476.575 296.612L487.307 293.447L495.982 291.474L502.356 290.441L506.255 290.056L507.565 290Z" fill="#AEAEAE"/>
<path fill-rule="evenodd" clip-rule="evenodd" d="M478.415 290L477.28 289.951L473.904 289.618L468.383 288.724L460.871 287.014L451.577 284.274L440.754 280.326L428.696 275.039L415.72 268.344L402.169 260.223L388.381 250.725L374.69 239.956L361.416 228.078L348.843 215.306L337.226 201.898L326.759 188.152L317.599 174.39L309.833 160.951L303.491 148.175L298.549 136.396L294.917 125.929L292.453 117.057L290.971 110.026L290.24 105.029L290.004 102.207L289.984 101.639L289.891 103.34L289.441 107.264L288.365 113.299L286.418 121.277L283.39 130.98L279.117 142.142L273.484 154.459L266.429 167.609L257.959 181.253L248.13 195.048L237.067 208.664L224.942 221.787L211.986 234.142L198.466 245.49L184.684 255.641L170.971 264.46L157.665 271.871L145.109 277.855L133.629 282.461L123.535 285.787L115.102 287.986L108.564 289.256L104.101 289.839L101.835 289.993V290.007L104.101 290.161L108.564 290.744L115.102 292.014L123.535 294.213L133.629 297.539L145.109 302.145L157.665 308.129L170.971 315.54L184.684 324.359L198.466 334.51L211.986 345.858L224.942 358.213L237.067 371.336L248.13 384.952L257.959 398.747L266.429 412.391L273.484 425.541L279.117 437.858L283.39 449.02L286.418 458.723L288.365 466.701L289.441 472.736L289.891 476.66L289.984 478.36L290.004 477.793L290.24 474.971L290.971 469.974L292.453 462.943L294.917 454.07L298.549 443.604L303.491 431.825L309.833 419.049L317.599 405.61L326.759 391.848L337.226 378.102L348.843 364.694L361.416 351.922L374.69 340.044L388.381 329.275L402.169 319.777L415.72 311.656L428.696 304.96L440.754 299.674L451.577 295.726L460.871 292.985L468.383 291.276L473.904 290.382L477.28 290.049L478.415 290Z" fill="#979797"/>
<path fill-rule="evenodd" clip-rule="evenodd" d="M453.17 290L452.187 289.958L449.263 289.669L444.482 288.895L437.977 287.415L429.928 285.041L420.555 281.622L410.112 277.044L398.875 271.246L387.139 264.212L375.198 255.987L363.342 246.661L351.846 236.374L340.958 225.313L330.897 213.701L321.832 201.797L313.9 189.879L307.174 178.241L301.682 167.176L297.402 156.975L294.256 147.911L292.122 140.227L290.839 134.138L290.206 129.81L290.001 127.366L289.984 126.875L289.904 128.348L289.514 131.746L288.582 136.972L286.896 143.881L284.274 152.284L280.573 161.951L275.695 172.618L269.585 184.006L262.249 195.823L253.737 207.769L244.157 219.561L233.656 230.926L222.436 241.625L210.727 251.453L198.792 260.244L186.916 267.882L175.392 274.3L164.519 279.482L154.577 283.471L145.835 286.351L138.532 288.256L132.87 289.356L129.005 289.86L127.043 289.994V290.006L129.005 290.14L132.87 290.644L138.532 291.744L145.835 293.649L154.577 296.529L164.519 300.518L175.392 305.7L186.916 312.118L198.792 319.756L210.727 328.547L222.436 338.375L233.656 349.074L244.157 360.439L253.737 372.231L262.249 384.177L269.585 395.994L275.695 407.382L280.573 418.049L284.274 427.716L286.896 436.119L288.582 443.028L289.514 448.254L289.904 451.652L289.984 453.125L290.001 452.634L290.206 450.19L290.839 445.862L292.122 439.773L294.256 432.089L297.402 423.025L301.682 412.824L307.174 401.759L313.9 390.121L321.832 378.203L330.897 366.299L340.958 354.687L351.846 343.626L363.342 333.339L375.198 324.013L387.139 315.788L398.875 308.754L410.112 302.956L420.555 298.378L429.928 294.959L437.977 292.585L444.482 291.105L449.263 290.331L452.187 290.042L453.17 290Z" fill="#808080"/>
<path fill-rule="evenodd" clip-rule="evenodd" d="M431.307 290L430.456 289.963L427.923 289.713L423.783 289.043L418.149 287.761L411.178 285.706L403.062 282.744L394.017 278.78L384.286 273.758L374.122 267.667L363.781 260.544L353.513 252.467L343.558 243.558L334.128 233.979L325.415 223.923L317.565 213.614L310.695 203.293L304.871 193.213L300.114 183.631L296.408 174.797L293.683 166.947L291.835 160.293L290.724 155.02L290.176 151.272L289.998 149.155L289.984 148.729L289.914 150.005L289.576 152.948L288.77 157.474L287.309 163.458L285.038 170.735L281.834 179.106L277.609 188.344L272.318 198.207L265.965 208.44L258.593 218.786L250.296 228.998L241.202 238.84L231.485 248.106L221.345 256.617L211.009 264.23L200.724 270.845L190.744 276.403L181.328 280.891L172.717 284.346L165.147 286.84L158.822 288.489L153.918 289.442L150.571 289.879L148.872 289.995V290.005L150.571 290.121L153.918 290.558L158.822 291.51L165.147 293.16L172.717 295.654L181.328 299.109L190.744 303.597L200.724 309.155L211.009 315.769L221.345 323.383L231.485 331.894L241.202 341.16L250.296 351.002L258.593 361.214L265.965 371.56L272.318 381.793L277.609 391.655L281.834 400.893L285.038 409.265L287.309 416.542L288.77 422.526L289.576 427.052L289.914 429.995L289.984 431.27L289.998 430.845L290.176 428.728L290.724 424.98L291.835 419.707L293.683 413.053L296.408 405.203L300.114 396.369L304.871 386.786L310.695 376.707L317.565 366.386L325.415 356.077L334.128 346.02L343.558 336.441L353.513 327.533L363.781 319.456L374.122 312.333L384.286 306.242L394.017 301.22L403.062 297.255L411.178 294.294L418.149 292.239L423.783 290.957L427.923 290.286L430.456 290.036L431.307 290Z" fill="#696969"/>
<path fill-rule="evenodd" clip-rule="evenodd" d="M412.374 290L411.637 289.968L409.444 289.752L405.858 289.171L400.979 288.061L394.942 286.281L387.913 283.717L380.08 280.283L371.652 275.934L362.85 270.659L353.895 264.49L345.002 257.495L336.381 249.78L328.214 241.485L320.669 232.776L313.87 223.848L307.921 214.909L302.877 206.18L298.758 197.882L295.548 190.231L293.188 183.433L291.588 177.67L290.625 173.104L290.151 169.858L289.997 168.025L289.984 167.656L289.924 168.761L289.631 171.309L288.933 175.229L287.668 180.411L285.701 186.713L282.926 193.963L279.267 201.964L274.685 210.505L269.183 219.367L262.799 228.327L255.614 237.17L247.738 245.694L239.323 253.719L230.541 261.09L221.59 267.683L212.683 273.411L204.04 278.225L195.885 282.112L188.429 285.103L181.873 287.263L176.395 288.692L172.148 289.517L169.25 289.895L167.778 289.996V290.004L169.25 290.105L172.148 290.483L176.395 291.308L181.873 292.737L188.429 294.897L195.885 297.888L204.04 301.775L212.683 306.589L221.59 312.317L230.541 318.91L239.323 326.281L247.738 334.306L255.614 342.83L262.799 351.673L269.183 360.633L274.685 369.495L279.267 378.036L282.926 386.037L285.701 393.287L287.668 399.589L288.933 404.771L289.631 408.691L289.924 411.239L289.984 412.344L289.997 411.975L290.151 410.142L290.625 406.896L291.588 402.33L293.188 396.567L295.548 389.769L298.758 382.118L302.877 373.82L307.921 365.091L313.87 356.152L320.669 347.224L328.214 338.515L336.381 330.219L345.002 322.505L353.895 315.51L362.85 309.341L371.652 304.066L380.08 299.717L387.913 296.283L394.942 293.719L400.979 291.939L405.858 290.829L409.444 290.248L411.637 290.032L412.374 290Z" fill="#525252"/>
<path fill-rule="evenodd" clip-rule="evenodd" d="M395.976 290L395.338 289.973L393.439 289.785L390.334 289.282L386.108 288.321L380.88 286.779L374.792 284.558L368.009 281.585L360.711 277.819L353.088 273.25L345.332 267.908L337.631 261.85L330.165 255.169L323.092 247.985L316.558 240.443L310.67 232.711L305.518 224.97L301.149 217.41L297.582 210.223L294.802 203.598L292.759 197.711L291.373 192.72L290.539 188.765L290.128 185.954L289.995 184.367L289.984 184.047L289.932 185.004L289.678 187.211L289.073 190.606L287.978 195.093L286.275 200.551L283.872 206.83L280.703 213.759L276.734 221.155L271.97 228.83L266.441 236.59L260.218 244.248L253.398 251.63L246.11 258.58L238.505 264.963L230.753 270.673L223.039 275.634L215.555 279.802L208.492 283.169L202.034 285.76L196.357 287.63L191.613 288.867L187.935 289.582L185.425 289.909L184.15 289.996V290.004L185.425 290.091L187.935 290.419L191.613 291.133L196.357 292.37L202.034 294.241L208.492 296.832L215.555 300.198L223.039 304.366L230.753 309.327L238.505 315.037L246.11 321.42L253.398 328.37L260.218 335.752L266.441 343.411L271.97 351.17L276.734 358.845L280.703 366.242L283.872 373.17L286.275 379.449L287.978 384.907L289.073 389.395L289.678 392.789L289.932 394.997L289.984 395.953L289.995 395.634L290.128 394.046L290.539 391.235L291.373 387.281L292.759 382.29L294.802 376.402L297.582 369.777L301.149 362.59L305.518 355.031L310.67 347.29L316.558 339.558L323.092 332.016L330.165 324.831L337.631 318.15L345.332 312.092L353.088 306.75L360.711 302.181L368.009 298.415L374.792 295.442L380.88 293.221L386.108 291.679L390.334 290.718L393.439 290.215L395.338 290.027L395.976 290Z" fill="#3A3A3A"/>
<path fill-rule="evenodd" clip-rule="evenodd" d="M381.776 290L381.223 289.976L379.578 289.814L376.889 289.378L373.229 288.546L368.702 287.211L363.43 285.287L357.555 282.712L351.235 279.451L344.633 275.494L337.916 270.868L331.247 265.622L324.781 259.835L318.656 253.614L312.997 247.082L307.898 240.386L303.436 233.682L299.653 227.135L296.563 220.911L294.156 215.174L292.387 210.075L291.186 205.753L290.464 202.328L290.108 199.893L289.993 198.519L289.983 198.242L289.938 199.07L289.719 200.982L289.195 203.922L288.246 207.808L286.771 212.535L284.69 217.973L281.946 223.973L278.509 230.379L274.383 237.025L269.595 243.745L264.205 250.378L258.299 256.771L251.988 262.789L245.401 268.317L238.688 273.262L232.008 277.559L225.526 281.169L219.409 284.084L213.817 286.328L208.9 287.948L204.792 289.019L201.606 289.637L199.433 289.921L198.329 289.997V290.003L199.433 290.079L201.606 290.363L204.792 290.981L208.9 292.052L213.817 293.672L219.409 295.916L225.526 298.831L232.008 302.441L238.688 306.738L245.401 311.683L251.988 317.211L258.299 323.229L264.205 329.622L269.595 336.255L274.383 342.975L278.509 349.621L281.946 356.027L284.69 362.027L286.771 367.465L288.246 372.192L289.195 376.078L289.719 379.018L289.938 380.93L289.983 381.758L289.993 381.481L290.108 380.107L290.464 377.672L291.186 374.247L292.387 369.925L294.156 364.826L296.563 359.089L299.653 352.865L303.436 346.318L307.898 339.614L312.997 332.918L318.656 326.386L324.781 320.165L331.247 314.378L337.916 309.132L344.633 304.506L351.235 300.549L357.555 297.288L363.43 294.713L368.702 292.789L373.229 291.454L376.889 290.622L379.578 290.186L381.223 290.024L381.776 290Z" fill="#232323"/>
<path fill-rule="evenodd" clip-rule="evenodd" d="M369.478 290L368.999 289.98L367.575 289.839L365.246 289.462L362.077 288.741L358.156 287.584L353.59 285.919L348.503 283.689L343.029 280.864L337.312 277.438L331.495 273.431L325.719 268.888L320.119 263.877L314.815 258.488L309.914 252.832L305.498 247.033L301.634 241.227L298.358 235.558L295.682 230.167L293.597 225.198L292.065 220.783L291.025 217.04L290.4 214.074L290.092 211.965L289.992 210.775L289.984 210.535L289.945 211.253L289.755 212.908L289.301 215.454L288.479 218.82L287.202 222.913L285.4 227.622L283.023 232.819L280.047 238.366L276.473 244.123L272.327 249.942L267.659 255.686L262.544 261.223L257.079 266.435L251.375 271.222L245.561 275.505L239.775 279.225L234.162 282.352L228.865 284.876L224.022 286.82L219.763 288.223L216.206 289.15L213.447 289.686L211.564 289.932L210.609 289.997V290.003L211.564 290.068L213.447 290.314L216.206 290.85L219.763 291.777L224.022 293.18L228.865 295.124L234.162 297.648L239.775 300.775L245.561 304.495L251.375 308.778L257.079 313.565L262.544 318.777L267.659 324.314L272.327 330.058L276.473 335.877L280.047 341.634L283.023 347.181L285.4 352.378L287.202 357.087L288.479 361.18L289.301 364.546L289.755 367.092L289.945 368.747L289.984 369.465L289.992 369.225L290.092 368.035L290.4 365.926L291.025 362.96L292.065 359.217L293.597 354.802L295.682 349.833L298.358 344.442L301.634 338.773L305.498 332.967L309.914 327.168L314.815 321.512L320.119 316.123L325.719 311.112L331.495 306.569L337.312 302.562L343.029 299.136L348.503 296.311L353.59 294.081L358.156 292.416L362.077 291.259L365.246 290.538L367.575 290.161L368.999 290.02L369.478 290Z" fill="#0C0C0C"/>
</svg>
