<svg version="1.1" id="Layer_1" xmlns="http://www.w3.org/2000/svg" xmlns:xlink="http://www.w3.org/1999/xlink" x="0px" y="0px"
	 viewBox="0 0 830.4 231.1" style="enable-background:new 0 0 830.4 231.1;" xml:space="preserve">
<style type="text/css">
	.st0{fill:#FFFFFF;}
</style>
<path class="st0" d="M231.1,0H0v231.1h231.1V0z M63.4,63.4h104.3v104.3H63.4V63.4z"/>
<g>
	<path class="st0" d="M429.8,165.1c-13.1,18.7-30.5,27-56.3,27c-39,0-64.1-28.6-64.1-64.6c0-33.5,24.2-64.4,63.7-64.4
		c38.8,0,65.1,27.7,65.1,66.5c0,2.8-0.2,4.2-0.2,6.9h-98.8c3,18.2,16.8,28.4,34.4,28.4c13.1,0,21.9-3.7,30.5-12L429.8,165.1z
		 M407.2,112.3C403,98,389.9,89.2,373.5,89.2c-15.2,0-27,7.6-33,23.1H407.2z"/>
	<path class="st0" d="M451.8,188.9V31.8l30.7-12.9v60.8c11.1-11.1,23.8-16.6,38.5-16.6c31.6,0,57.9,26.3,57.9,64.6
		c0,37.6-27.5,64.4-58.6,64.4c-15.5,0-26.8-5.5-37.8-16.2L451.8,188.9z M483.9,127.3c0,22.2,14.8,36.7,33.7,36.7
		c19.2,0,33.2-15.5,33.2-36.5c0-20.1-12.9-36.2-33.2-36.2C497.9,91.3,483.9,105.8,483.9,127.3z"/>
	<path class="st0" d="M715.1,127.5c0,35.5-27.5,64.6-64.8,64.6c-35.5,0-63.7-28.4-63.7-64.4c0-37.1,30-64.6,63.5-64.6
		C685.8,63.1,715.1,91.3,715.1,127.5z M617.5,127.5c0,20.8,13.2,35.5,33,35.5c18.9,0,33.7-13.8,33.7-35.3
		c0-20.8-13.6-35.5-33.7-35.5C631.3,92.2,617.5,107.2,617.5,127.5z"/>
	<path class="st0" d="M705.8,66.4h35.8l24,33.5l24.2-33.5h35.5l-42,57.9l47.1,64.6h-35.5l-29.3-40.2l-28.8,40.2h-35.3l46.4-64.6
		L705.8,66.4z"/>
</g>
</svg>