<svg width="483" height="693" viewBox="0 0 483 693" fill="none" xmlns="http://www.w3.org/2000/svg">
<path d="M482.75 0H0V482.73H482.75V0ZM132.41 132.39H350.35V350.35H132.41V132.39Z" fill="white"/>
<path d="M111.64 667.99C99.46 685.3 83.43 693 59.49 693C23.37 693 0.0699463 666.49 0.0699463 633.14C0.0699463 602.14 22.5099 573.5 59.0699 573.5C94.9899 573.5 119.35 599.15 119.35 635.06C119.35 637.63 119.14 638.91 119.14 641.48H27.65C30.42 658.36 43.2499 667.77 59.4999 667.77C71.6799 667.77 79.8099 664.35 87.7199 656.65L111.64 667.99ZM90.7 619.03C86.85 605.78 74.67 597.66 59.49 597.66C45.38 597.66 34.48 604.71 28.92 619.03H90.7Z" fill="white"/>
<path d="M132.01 690.01V544.5L160.44 532.53V588.89C170.7 578.63 182.46 573.5 196.14 573.5C225.42 573.5 249.8 597.87 249.8 633.35C249.8 668.2 224.36 692.99 195.5 692.99C181.18 692.99 170.7 687.86 160.44 678.03L132.01 690.01ZM161.74 632.93C161.74 653.45 175.42 666.92 192.95 666.92C210.69 666.92 223.73 652.6 223.73 633.14C223.73 614.55 211.76 599.58 192.95 599.58C174.78 599.58 161.74 613.05 161.74 632.93Z" fill="white"/>
<path d="M375.97 633.14C375.97 666.06 350.53 693 315.9 693C282.98 693 256.9 666.71 256.9 633.36C256.9 598.95 284.69 573.51 315.68 573.51C348.82 573.51 375.97 599.58 375.97 633.14ZM285.55 633.14C285.55 652.38 297.73 666.06 316.11 666.06C333.64 666.06 347.32 653.23 347.32 633.35C347.32 614.11 334.71 600.43 316.11 600.43C298.38 600.44 285.55 614.34 285.55 633.14Z" fill="white"/>
<path d="M367.32 576.49H400.46L422.69 607.49L445.14 576.49H478.06L439.16 630.15L482.77 690.01H449.85L422.7 652.82L395.98 690.01H363.28L406.25 630.15L367.32 576.49Z" fill="white"/>
</svg>
