<svg viewBox="0 0 810 189" fill="none" xmlns="http://www.w3.org/2000/svg">
    <path
        d="M94.14 0C42.15 0 0 42.14 0 94.14C0 146.14 42.15 188.28 94.14 188.28C146.13 188.28 188.28 146.13 188.28 94.14C188.28 42.15 146.13 0 94.14 0ZM152.82 152.82C137.14 168.5 116.3 177.13 94.14 177.13C71.98 177.13 51.13 168.5 35.46 152.82C19.78 137.14 11.15 116.3 11.15 94.14C11.15 71.98 19.78 51.13 35.46 35.46C51.14 19.78 71.98 11.15 94.14 11.15C116.3 11.15 137.15 19.78 152.82 35.46C168.5 51.14 177.13 71.98 177.13 94.14C177.13 116.3 168.5 137.15 152.82 152.82Z"
        fill="white" />
    <path
        d="M94.14 31.3801C59.48 31.3801 31.38 59.4801 31.38 94.1401C31.38 128.8 59.48 156.9 94.14 156.9C128.8 156.9 156.9 128.8 156.9 94.1401C156.9 59.4801 128.8 31.3801 94.14 31.3801ZM94.14 151.33C62.61 151.33 36.95 125.68 36.95 94.1401C36.95 62.6001 62.6 36.9501 94.14 36.9501C125.68 36.9501 151.33 62.6001 151.33 94.1401C151.33 125.68 125.68 151.33 94.14 151.33Z"
        fill="white" />
    <path
        d="M510.27 60.2599C505.36 56.8799 499.55 55.1699 493 55.1699C486.45 55.1699 480.41 56.8599 475.59 60.1899C473.29 61.7799 471.23 63.6999 469.44 65.9199V57.1899H459.28V160.67H470.52V123.49C472.02 125.18 473.68 126.68 475.48 127.97C480.23 131.37 485.99 133.1 492.6 133.1C499.21 133.1 505.26 131.39 510.21 128.01C515.15 124.64 518.97 119.93 521.56 114.02C524.14 108.14 525.45 101.43 525.45 94.0599C525.45 86.6899 524.14 80.0599 521.56 74.1999C518.97 68.3099 515.17 63.6199 510.28 60.2499L510.27 60.2599ZM511.15 108.86C509.5 113.14 506.99 116.54 503.7 118.96C500.42 121.37 496.34 122.6 491.58 122.6C486.82 122.6 482.66 121.4 479.39 119.02C476.1 116.64 473.6 113.28 471.95 109.02C470.28 104.72 469.44 99.6899 469.44 94.0599C469.44 88.4299 470.27 83.3499 471.92 79.0999C473.55 74.8899 476.03 71.5599 479.29 69.1999C482.55 66.8499 486.61 65.6599 491.38 65.6599C496.15 65.6599 500.39 66.8699 503.71 69.2699C507.04 71.6699 509.56 75.0499 511.18 79.2999C512.82 83.5999 513.66 88.5699 513.66 94.0599C513.66 99.5499 512.81 104.53 511.15 108.85V108.86Z"
        fill="white" />
    <path
        d="M590.12 60.48C585.68 57.09 579.87 55.37 572.85 55.37C566.76 55.37 561.31 56.72 556.66 59.39C553.75 61.06 551.21 63.26 549.09 65.94V32.98H538.86V131.08H550.1V91.71C550.1 86.31 550.92 81.63 552.54 77.81C554.14 74.03 556.5 71.09 559.56 69.09C562.62 67.08 566.46 66.07 570.97 66.07C575.73 66.07 579.67 67.23 582.68 69.5C585.7 71.79 587.92 74.93 589.28 78.84C590.66 82.81 591.36 87.7 591.36 93.39V131.08H602.6V90.5C602.6 84.27 601.62 78.5 599.7 73.37C597.76 68.19 594.53 63.86 590.11 60.48H590.12Z"
        fill="white" />
    <path
        d="M307.43 70.0999C305.5 65.3199 302.11 61.5899 297.36 59.0199C292.65 56.4699 286.83 55.1799 280.08 55.1799C272.05 55.1799 265.37 57.0199 260.25 60.6399C255.1 64.2799 251.61 69.4999 249.88 76.1599L249.72 76.7599L260.56 79.9399L260.74 79.3099C262.04 74.7299 264.34 71.2999 267.57 69.1099C270.83 66.9099 274.99 65.7899 279.95 65.7899C284.57 65.7899 288.32 66.5199 291.08 67.9699C293.8 69.3899 295.78 71.5999 296.97 74.5299C297.99 77.0499 298.56 80.2399 298.66 84.0299C297.87 84.1199 297.1 84.2299 296.34 84.3399C288.8 85.3199 282.76 86.1499 278.38 86.7899C273.99 87.4399 269.85 88.2499 266.08 89.1899C260.2 90.6899 255.53 93.2399 252.19 96.7699C248.82 100.33 247.11 105.09 247.11 110.93C247.11 114.97 248.09 118.72 250.02 122.07C251.96 125.44 254.88 128.15 258.72 130.12C262.54 132.09 267.2 133.08 272.56 133.08C277.45 133.08 281.96 132.33 285.96 130.85C289.97 129.37 293.49 127.14 296.41 124.21C297.54 123.08 298.59 121.84 299.55 120.49V131.06H309.64V85.3099C309.64 82.2999 309.49 79.4899 309.2 76.9699C308.9 74.4099 308.31 72.0899 307.44 70.0799L307.43 70.0999ZM298.36 99.1099C298.25 101.06 298 102.94 297.6 104.71C296.95 108.31 295.57 111.55 293.51 114.32C291.46 117.09 288.71 119.3 285.35 120.88C281.98 122.47 278.06 123.27 273.69 123.27C270.13 123.27 267.16 122.67 264.84 121.49C262.55 120.32 260.86 118.79 259.83 116.94C258.79 115.08 258.26 113.05 258.26 110.93C258.26 107.51 259.34 104.88 261.57 102.91C263.84 100.9 266.79 99.3799 270.35 98.3799C273.76 97.4499 277.71 96.6599 282.1 96.0399C286.53 95.4099 292.04 94.7399 298.5 94.0199C298.48 95.9199 298.43 97.6199 298.34 99.0899L298.36 99.1099Z"
        fill="white" />
    <path d="M348.51 115.62L327.52 57.1899H316.13L342.95 131.08H354.08L380.9 57.1899H369.37L348.51 115.62Z"
        fill="white" />
    <path
        d="M434.93 93.6299C431.14 91.7399 425.78 89.9099 419 88.1999C413.18 86.7299 408.75 85.3999 405.84 84.2299C402.99 83.0899 400.98 81.8699 399.86 80.5999C398.77 79.3699 398.24 77.8799 398.24 76.0499C398.24 73.8999 398.91 72.0699 400.3 70.4499C401.7 68.8199 403.67 67.5499 406.18 66.6699C408.49 65.8599 411.16 65.4499 414.11 65.4499C414.4 65.4499 414.69 65.4499 415 65.4599C418.53 65.4999 421.71 66.0899 424.45 67.1899C427.16 68.2899 429.38 69.8499 431.06 71.8499C432.73 73.8399 433.81 76.2099 434.28 78.9099L434.39 79.5499L445.71 77.5099L445.64 76.9099C445.13 72.6399 443.5 68.7999 440.79 65.5199C438.09 62.2499 434.47 59.6799 430.05 57.8699C425.64 56.0799 420.63 55.1699 415.15 55.1699C409.67 55.1699 404.74 56.0599 400.52 57.8099C396.26 59.5699 392.9 62.0999 390.53 65.3199C388.15 68.5499 386.94 72.3199 386.94 76.5299C386.94 80.0999 387.77 83.1399 389.4 85.5599C391.03 87.9799 393.76 90.1299 397.52 91.9599C401.22 93.7599 406.48 95.5899 413.16 97.3799C419.52 99.1099 424.21 100.58 427.11 101.73C429.92 102.85 431.83 104.05 432.78 105.32C433.72 106.57 434.2 108.3 434.2 110.48C434.2 112.93 433.52 115.1 432.17 116.92C430.81 118.76 428.83 120.2 426.27 121.21C423.67 122.23 420.56 122.75 417.03 122.75C413.5 122.75 410.08 122.21 407.17 121.14C404.27 120.08 401.84 118.56 399.95 116.62C398.07 114.69 396.76 112.37 396.08 109.72L395.93 109.15L384.61 111.04L384.74 111.69C385.61 116.13 387.48 120 390.3 123.19C393.11 126.37 396.81 128.84 401.28 130.53C405.73 132.21 410.85 133.06 416.5 133.06C422.47 133.06 427.71 132.15 432.07 130.36C436.47 128.55 439.89 125.9 442.24 122.5C444.59 119.09 445.78 115.01 445.78 110.37C445.78 106.45 444.93 103.14 443.26 100.51C441.59 97.8899 438.79 95.5799 434.94 93.6599L434.93 93.6299Z"
        fill="white" />
    <path
        d="M668.44 60.1799C663.27 56.8599 656.99 55.1699 649.77 55.1699C642.55 55.1699 636.52 56.7799 631.28 59.9699C626.04 63.1599 621.93 67.7599 619.07 73.6499C616.22 79.5199 614.77 86.5199 614.77 94.4699C614.77 102.42 616.23 108.99 619.11 114.79C622 120.61 626.16 125.17 631.49 128.33C636.81 131.49 643.1 133.09 650.17 133.09C654.89 133.09 659.39 132.3 663.54 130.73C667.7 129.16 671.44 126.83 674.65 123.81C677.86 120.79 680.45 117.09 682.36 112.81L682.64 112.19L672.25 108.17L671.99 108.7C669.81 113.14 666.8 116.56 663.02 118.85C659.24 121.15 654.79 122.32 649.77 122.32C644.75 122.32 640.67 121.21 637.21 119.02C633.75 116.84 631.09 113.62 629.29 109.46C627.83 106.09 626.95 102.08 626.66 97.5199H683.81L683.83 96.8899C684.06 88.3699 682.84 80.8799 680.22 74.6399C677.58 68.3599 673.62 63.4899 668.45 60.1599L668.44 60.1799ZM626.9 87.9799C627.32 84.4199 628.12 81.2299 629.28 78.4899C631.08 74.2599 633.75 71.0199 637.23 68.8299C640.72 66.6399 645.02 65.5299 650.03 65.5299C655.04 65.5299 658.9 66.5799 662.19 68.6599C665.47 70.7299 667.98 73.8399 669.67 77.9099C670.85 80.7499 671.66 84.1299 672.09 87.9799H626.89H626.9Z"
        fill="white" />
    <path
        d="M728.36 56.5601C727.79 56.5601 727.2 56.5801 726.61 56.6101C723.98 56.7701 721.37 57.3101 718.83 58.2301C716.27 59.1501 714.02 60.4601 712.17 62.0901C710.6 63.2901 709.13 64.8501 707.8 66.7301C707.72 66.8401 707.64 66.9601 707.56 67.0801V57.1801H697.4V131.08H708.57V94.2001C708.57 90.5701 708.78 87.4101 709.2 84.7901C709.61 82.2001 710.43 79.6401 711.63 77.1701C712.81 74.7401 714.55 72.6301 716.8 70.9001C719.16 68.9701 721.85 67.7701 724.79 67.3401C725.93 67.1701 727.09 67.0901 728.21 67.0901C730.01 67.0901 731.82 67.3101 733.58 67.7301L734.38 67.9201V57.3201L733.89 57.2001C732.18 56.7701 730.32 56.5601 728.36 56.5601Z"
        fill="white" />
    <path
        d="M805.93 74.6599C803.29 68.3799 799.33 63.5099 794.16 60.1799C788.99 56.8599 782.71 55.1699 775.49 55.1699C768.27 55.1699 762.24 56.7799 757 59.9699C751.76 63.1599 747.65 67.7599 744.79 73.6499C741.94 79.5199 740.49 86.5199 740.49 94.4699C740.49 102.42 741.95 108.99 744.83 114.79C747.72 120.61 751.89 125.17 757.21 128.33C762.53 131.49 768.82 133.09 775.89 133.09C780.61 133.09 785.11 132.3 789.26 130.73C793.42 129.16 797.16 126.83 800.37 123.81C803.58 120.79 806.17 117.09 808.08 112.81L808.36 112.19L797.97 108.17L797.71 108.7C795.53 113.14 792.52 116.56 788.74 118.85C784.96 121.15 780.51 122.32 775.5 122.32C770.49 122.32 766.4 121.21 762.94 119.02C759.48 116.84 756.82 113.62 755.02 109.46C753.56 106.09 752.68 102.08 752.39 97.5199H809.54L809.56 96.8899C809.79 88.3699 808.57 80.8799 805.95 74.6399L805.93 74.6599ZM752.62 87.9799C753.04 84.4099 753.84 81.2199 755.01 78.4899C756.81 74.2599 759.48 71.0199 762.96 68.8299C766.45 66.6399 770.75 65.5299 775.76 65.5299C780.77 65.5299 784.63 66.5799 787.92 68.6599C791.2 70.7299 793.71 73.8399 795.4 77.9099C796.58 80.7499 797.39 84.1299 797.82 87.9799H752.62Z"
        fill="white" />
    <path
        d="M222.39 145.11C222.34 147.62 222.86 149.95 219.45 149.95H210.69V160.67H222.08C233.11 160.67 233.11 152.28 233.11 148.26V57.1899H222.39V145.11Z"
        fill="white" />
    <path
        d="M227.75 47.73C231.82 47.73 235.12 44.4303 235.12 40.36C235.12 36.2897 231.82 32.99 227.75 32.99C223.68 32.99 220.38 36.2897 220.38 40.36C220.38 44.4303 223.68 47.73 227.75 47.73Z"
        fill="white" />
</svg>