<svg version="1.1" id="Layer_1" xmlns="http://www.w3.org/2000/svg" xmlns:xlink="http://www.w3.org/1999/xlink" x="0px" y="0px"
	 viewBox="0 0 893.6 177.9" style="enable-background:new 0 0 893.6 177.9;" xml:space="preserve">
<style type="text/css">
	.st0{fill:#FFFFFF;}
</style>
<g id="Layer_1_00000049215161001514824960000002323867249029543094_">
</g>
<g id="Layer_2_00000061455843099935530760000015870649722118948248_">
	<path class="st0" d="M89,0C39.8,0,0,39.8,0,89s39.8,89,89,89s89-39.8,89-89S138.1,0,89,0z M150.5,127.5h-26.8h-18.3V79.8h-0.6
		L86.1,127H74.4L55.8,79.5h-0.6v47.9H36.9V49.9h23.2l19.7,48h0.9l19.7-48h23.7v62.4h32.3L150.5,127.5z"/>
	<g>
		<path class="st0" d="M241.8,38.6h26l27.4,66.9h1.2l27.4-66.9h26v99.5h-20.4V73.3h-0.8l-25.8,64.3h-13.9L263,73.1h-0.8v65h-20.4
			L241.8,38.6L241.8,38.6z"/>
		<path class="st0" d="M401.6,139.6c-7.7,0-14.3-1.6-19.8-4.7c-5.5-3.1-9.8-7.6-12.8-13.3s-4.5-12.6-4.5-20.4
			c0-7.7,1.5-14.4,4.5-20.2s7.2-10.3,12.6-13.6c5.4-3.2,11.8-4.9,19.1-4.9c4.9,0,9.5,0.8,13.8,2.4s8,3.9,11.2,7.1
			c3.2,3.1,5.7,7.1,7.5,11.8c1.8,4.8,2.7,10.3,2.7,16.6v5.7h-63V93.2h43.6c0-3-0.7-5.6-1.9-7.9c-1.3-2.3-3.1-4.1-5.4-5.4
			c-2.3-1.3-4.9-2-8-2c-3.1,0-5.9,0.7-8.3,2.2c-2.4,1.4-4.3,3.4-5.7,5.8s-2.1,5.1-2.1,8v12.2c0,3.7,0.7,6.9,2.1,9.6
			c1.4,2.7,3.3,4.8,5.9,6.2s5.5,2.2,9,2.2c2.3,0,4.4-0.3,6.3-1s3.5-1.6,4.9-2.9s2.4-2.9,3.1-4.8l19.2,1.3c-1,4.6-3,8.6-6,12
			c-3,3.4-6.8,6.1-11.6,8C413.2,138.6,407.8,139.6,401.6,139.6z"/>
		<path class="st0" d="M487.8,63.4V79h-45V63.4H487.8z M453,45.6h20.7v69.6c0,1.9,0.3,3.4,0.9,4.4c0.6,1.1,1.4,1.8,2.5,2.2
			c1,0.4,2.3,0.6,3.7,0.6c1,0,1.9-0.1,2.9-0.3c1-0.2,1.7-0.3,2.2-0.4l3.3,15.4c-1,0.3-2.5,0.7-4.4,1.1c-1.9,0.4-4.2,0.7-6.8,0.8
			c-5,0.2-9.4-0.5-13.1-2s-6.7-3.9-8.7-7.1c-2.1-3.2-3.1-7.3-3.1-12.2L453,45.6L453,45.6z"/>
		<path class="st0" d="M522,139.5c-4.8,0-9-0.8-12.7-2.5c-3.7-1.7-6.7-4.1-8.8-7.4c-2.2-3.3-3.2-7.4-3.2-12.3
			c0-4.1,0.8-7.6,2.3-10.4c1.5-2.8,3.6-5.1,6.2-6.8c2.6-1.7,5.6-3,9-3.9s6.9-1.5,10.6-1.9c4.3-0.4,7.8-0.9,10.5-1.3
			c2.7-0.4,4.6-1,5.8-1.8c1.2-0.8,1.8-2,1.8-3.6v-0.3c0-3.1-1-5.5-2.9-7.1s-4.7-2.5-8.2-2.5c-3.7,0-6.7,0.8-8.9,2.4
			c-2.2,1.6-3.7,3.7-4.4,6.1l-19.2-1.6c1-4.5,2.9-8.5,5.7-11.8s6.5-5.9,11.1-7.7c4.5-1.8,9.8-2.7,15.7-2.7c4.2,0,8.1,0.5,11.9,1.5
			s7.2,2.5,10.2,4.5c3,2,5.3,4.7,7,7.9c1.7,3.2,2.6,7,2.6,11.4v50.3h-19.6v-10.4h-0.6c-1.2,2.3-2.8,4.4-4.8,6.2s-4.4,3.1-7.2,4.1
			C529,139,525.7,139.5,522,139.5z M527.9,125.2c3,0,5.7-0.6,8.1-1.8s4.2-2.9,5.5-4.9c1.3-2.1,2-4.4,2-7.1v-7.9
			c-0.7,0.4-1.5,0.8-2.7,1.1s-2.4,0.6-3.8,0.9c-1.4,0.3-2.8,0.5-4.2,0.7c-1.4,0.2-2.7,0.4-3.8,0.6c-2.4,0.4-4.5,0.9-6.4,1.7
			c-1.8,0.8-3.2,1.8-4.2,3.1c-1,1.3-1.5,2.9-1.5,4.9c0,2.8,1,5,3.1,6.4S524.8,125.2,527.9,125.2z"/>
		<path class="st0" d="M581.4,138.1V38.6h21v82.2h42.7l-6.8,17.4H581.4z"/>
		<path class="st0" d="M689.4,139.6c-7.7,0-14.3-1.6-19.8-4.7c-5.5-3.1-9.8-7.6-12.8-13.3s-4.5-12.6-4.5-20.4
			c0-7.7,1.5-14.4,4.5-20.2s7.2-10.3,12.6-13.6c5.4-3.2,11.8-4.9,19.1-4.9c4.9,0,9.5,0.8,13.8,2.4s8,3.9,11.2,7.1
			c3.2,3.1,5.7,7.1,7.5,11.8c1.8,4.8,2.7,10.3,2.7,16.6v5.7h-63V93.2h43.5c0-3-0.7-5.6-1.9-7.9c-1.3-2.3-3.1-4.1-5.4-5.4s-4.9-2-8-2
			c-3.1,0-5.9,0.7-8.3,2.2c-2.4,1.4-4.3,3.4-5.7,5.8s-2.1,5.1-2.1,8v12.2c0,3.7,0.7,6.9,2.1,9.6c1.4,2.7,3.3,4.8,5.9,6.2
			s5.5,2.2,9,2.2c2.3,0,4.4-0.3,6.3-1c1.9-0.6,3.5-1.6,4.9-2.9s2.4-2.9,3.1-4.8l19.2,1.3c-1,4.6-3,8.6-6,12c-3,3.4-6.8,6.1-11.6,8
			C701,138.6,695.5,139.6,689.4,139.6z"/>
		<path class="st0" d="M758.7,94.9v43.2H738V63.5h19.7v13.2h0.9c1.7-4.3,4.4-7.8,8.3-10.3s8.6-3.8,14.1-3.8c5.2,0,9.7,1.1,13.6,3.4
			c3.9,2.3,6.8,5.5,9,9.7s3.2,9.2,3.2,15v47.5h-20.7V94.2c0-4.6-1.1-8.1-3.5-10.7s-5.6-3.9-9.8-3.9c-2.8,0-5.2,0.6-7.4,1.8
			s-3.8,2.9-5,5.2C759.3,89,758.7,91.7,758.7,94.9z"/>
		<path class="st0" d="M851.1,139.3c-5.7,0-10.8-1.5-15.4-4.4s-8.2-7.3-10.9-13c-2.7-5.7-4-12.7-4-21.1c0-8.6,1.4-15.7,4.1-21.4
			s6.4-9.9,11-12.8s9.6-4.2,15.1-4.2c4.2,0,7.7,0.7,10.5,2.1c2.8,1.4,5.1,3.2,6.8,5.2s3,4.1,4,6.1h0.6V38.6h20.7v99.5h-20.4v-12
			h-0.9c-1,2.1-2.3,4.1-4.1,6.1c-1.8,2-4,3.7-6.8,5S855.2,139.3,851.1,139.3z M857.7,122.8c3.3,0,6.2-0.9,8.5-2.8s4.1-4.4,5.3-7.7
			s1.9-7.2,1.9-11.6s-0.6-8.3-1.8-11.6c-1.2-3.3-3-5.8-5.3-7.6c-2.3-1.8-5.2-2.7-8.5-2.7c-3.4,0-6.3,0.9-8.6,2.8
			c-2.3,1.9-4.1,4.4-5.3,7.7c-1.2,3.3-1.8,7.1-1.8,11.4c0,4.3,0.6,8.2,1.8,11.5s3,5.9,5.3,7.8S854.3,122.8,857.7,122.8z"/>
	</g>
</g>
</svg>