<svg viewBox="0 0 625 264" fill="none" xmlns="http://www.w3.org/2000/svg">
    <g clip-path="url(#clip0_227_691)">
        <g clip-path="url(#clip1_227_691)">
            <path
                d="M0 0V197.269H197.269V0H0ZM38.0003 190.209H7.06016V159.269H38.0003V190.209ZM38.0003 152.209H7.06016V121.269H38.0003V152.209ZM38.0003 114.001H7.06016V83.2683H38.0003V114.001ZM38.0003 76.0005H7.06016V45.0604H38.0003V76.0005ZM38.0003 38.0003H7.06016V7.06016H38.0003V38.0003ZM76.0005 190.209H45.0604V159.269H76.0005V190.209ZM76.0005 114.001H45.0604V83.2683H76.0005V114.001ZM76.0005 38.0003H45.0604V7.06016H76.0005V38.0003ZM114.001 190.209H83.2683V159.269H114.208V190.209H114.001ZM114.001 152.209H83.2683V121.269H114.208V152.209H114.001ZM114.001 76.0005H83.2683V45.0604H114.208V76.0005H114.001ZM114.001 38.0003H83.2683V7.06016H114.208V38.0003H114.001ZM152.209 190.209H121.269V159.269H152.209V190.209ZM152.209 114.001H121.269V83.2683H152.209V114.001ZM152.209 38.0003H121.269V7.06016H152.209V38.0003ZM190.209 190.209H159.269V159.269H190.209V190.209ZM190.209 152.209H159.269V121.269H190.209V152.209ZM190.209 114.001H159.269V83.2683H190.209V114.001ZM190.209 76.0005H159.269V45.0604H190.209V76.0005ZM190.209 38.0003H159.269V7.06016H190.209V38.0003Z"
                fill="white" />
        </g>
        <g clip-path="url(#clip2_227_691)">
            <path
                d="M106.875 262.672H100.645L100.595 239.171L88.9461 258.62H86.0086L74.3599 239.475V262.672H68.0797V227.219H73.4989L87.5786 250.719L101.405 227.219H106.824L106.875 262.672ZM120.904 262.672V235.626H127.235V262.672H120.904ZM124.095 231.169C122.947 231.169 121.985 230.806 121.208 230.08C120.431 229.354 120.043 228.451 120.043 227.371C120.043 226.29 120.431 225.387 121.208 224.661C121.985 223.935 122.947 223.572 124.095 223.572C125.243 223.572 126.205 223.918 126.982 224.611C127.758 225.303 128.147 226.172 128.147 227.219C128.147 228.333 127.767 229.27 127.007 230.03C126.247 230.789 125.277 231.169 124.095 231.169ZM140.606 262.672V225.092H146.936V262.672H140.606ZM160.307 262.672V225.092H166.638V262.672H160.307ZM180.009 262.672V235.626H186.339V262.672H180.009ZM183.199 231.169C182.051 231.169 181.089 230.806 180.312 230.08C179.536 229.354 179.148 228.451 179.148 227.371C179.148 226.29 179.536 225.387 180.312 224.661C181.089 223.935 182.051 223.572 183.199 223.572C184.347 223.572 185.31 223.918 186.086 224.611C186.863 225.303 187.251 226.172 187.251 227.219C187.251 228.333 186.871 229.27 186.111 230.03C185.352 230.789 184.381 231.169 183.199 231.169ZM211.865 263.026C209.13 263.026 206.666 262.435 204.471 261.253C202.276 260.072 200.563 258.426 199.33 256.315C198.098 254.205 197.482 251.816 197.482 249.149C197.482 246.481 198.098 244.101 199.33 242.008C200.563 239.914 202.276 238.277 204.471 237.095C206.666 235.913 209.13 235.322 211.865 235.322C214.634 235.322 217.116 235.913 219.31 237.095C221.505 238.277 223.219 239.914 224.451 242.008C225.683 244.101 226.3 246.481 226.3 249.149C226.3 251.816 225.683 254.205 224.451 256.315C223.219 258.426 221.505 260.072 219.31 261.253C217.116 262.435 214.634 263.026 211.865 263.026ZM211.865 257.607C214.195 257.607 216.12 256.83 217.639 255.277C219.158 253.724 219.918 251.681 219.918 249.149C219.918 246.617 219.158 244.574 217.639 243.021C216.12 241.467 214.195 240.691 211.865 240.691C209.536 240.691 207.619 241.467 206.117 243.021C204.614 244.574 203.863 246.617 203.863 249.149C203.863 251.681 204.614 253.724 206.117 255.277C207.619 256.83 209.536 257.607 211.865 257.607ZM252.788 235.322C256.198 235.322 258.933 236.318 260.992 238.31C263.052 240.303 264.082 243.257 264.082 247.174V262.672H257.751V247.984C257.751 245.62 257.194 243.839 256.08 242.641C254.965 241.442 253.379 240.843 251.319 240.843C248.989 240.843 247.149 241.543 245.798 242.945C244.448 244.346 243.773 246.363 243.773 248.997V262.672H237.442V235.626H243.469V239.121C244.515 237.872 245.832 236.926 247.419 236.285C249.006 235.643 250.796 235.322 252.788 235.322ZM311.436 227.219C314.509 227.219 317.185 227.725 319.464 228.738C321.743 229.751 323.49 231.203 324.706 233.094C325.921 234.985 326.529 237.23 326.529 239.83C326.529 242.396 325.921 244.633 324.706 246.541C323.49 248.448 321.743 249.909 319.464 250.921C317.185 251.934 314.509 252.441 311.436 252.441H303.434V262.672H296.85V227.219H311.436ZM311.133 246.87C314.002 246.87 316.18 246.262 317.666 245.046C319.152 243.831 319.894 242.092 319.894 239.83C319.894 237.568 319.152 235.829 317.666 234.613C316.18 233.398 314.002 232.79 311.133 232.79H303.434V246.87H311.133ZM337.317 262.672V235.626H343.648V262.672H337.317ZM340.507 231.169C339.36 231.169 338.397 230.806 337.621 230.08C336.844 229.354 336.456 228.451 336.456 227.371C336.456 226.29 336.844 225.387 337.621 224.661C338.397 223.935 339.36 223.572 340.507 223.572C341.655 223.572 342.618 223.918 343.394 224.611C344.171 225.303 344.559 226.172 344.559 227.219C344.559 228.333 344.179 229.27 343.42 230.03C342.66 230.789 341.689 231.169 340.507 231.169ZM381.379 262.672H374.238L367.3 253.302L360.31 262.672H353.321L363.856 248.946L353.777 235.626H360.817L367.451 244.489L374.086 235.626H380.923L370.794 248.845L381.379 262.672ZM415.616 249.301C415.616 249.74 415.583 250.364 415.515 251.175H394.294C394.666 253.167 395.636 254.745 397.206 255.91C398.776 257.075 400.726 257.657 403.056 257.657C406.027 257.657 408.475 256.678 410.4 254.72L413.793 258.62C412.578 260.072 411.041 261.169 409.184 261.912C407.327 262.655 405.234 263.026 402.904 263.026C399.933 263.026 397.316 262.435 395.054 261.253C392.792 260.072 391.044 258.426 389.812 256.315C388.579 254.205 387.963 251.816 387.963 249.149C387.963 246.515 388.563 244.143 389.761 242.033C390.96 239.923 392.623 238.277 394.75 237.095C396.877 235.913 399.274 235.322 401.942 235.322C404.575 235.322 406.93 235.905 409.007 237.07C411.083 238.234 412.704 239.872 413.869 241.982C415.034 244.093 415.616 246.532 415.616 249.301ZM401.942 240.387C399.916 240.387 398.202 240.986 396.801 242.185C395.4 243.384 394.547 244.979 394.243 246.971H409.589C409.319 245.013 408.492 243.426 407.108 242.21C405.723 240.995 404.001 240.387 401.942 240.387ZM426.759 262.672V225.092H433.089V262.672H426.759ZM466.111 262.672V227.219H481.609C485.39 227.219 488.75 227.953 491.687 229.422C494.625 230.891 496.904 232.967 498.525 235.652C500.145 238.336 500.956 241.434 500.956 244.945C500.956 248.457 500.145 251.555 498.525 254.239C496.904 256.923 494.625 259 491.687 260.468C488.75 261.937 485.39 262.672 481.609 262.672H466.111ZM472.695 257.1H481.305C483.905 257.1 486.192 256.602 488.168 255.606C490.143 254.61 491.662 253.192 492.726 251.352C493.789 249.512 494.321 247.376 494.321 244.945C494.321 242.514 493.789 240.379 492.726 238.538C491.662 236.698 490.143 235.28 488.168 234.284C486.192 233.288 483.905 232.79 481.305 232.79H472.695V257.1ZM538.89 232.739H519.594V243.527H536.712V249.098H519.594V262.672H513.01V227.219H538.89V232.739ZM550.336 262.672V227.219H556.92V262.672H550.336Z"
                fill="white" />
        </g>
        <g clip-path="url(#clip3_227_691)">
            <path
                d="M230.148 197.269V0H279.504L301.51 141.188H302.139L324.145 0H373.502V197.269H340.807V47.9082H340.178L315.028 197.269H286.106L260.956 47.9082H260.327V197.269H230.148ZM399.28 197.269V0H450.209C467.395 0 480.284 4.13326 488.877 12.3998C497.47 20.6663 501.766 32.7842 501.766 48.7536V68.1987C501.766 84.1681 497.47 96.2861 488.877 104.553C480.284 112.819 467.395 116.952 450.209 116.952H433.861V197.269H399.28ZM433.861 88.7711H450.209C455.868 88.7711 460.112 87.362 462.941 84.5439C465.77 81.7258 467.185 76.9349 467.185 70.1714V46.7809C467.185 40.0174 465.77 35.2266 462.941 32.4085C460.112 29.5904 455.868 28.1813 450.209 28.1813H433.861V88.7711ZM520.628 197.269V0H573.443C590.629 0 603.518 4.13326 612.111 12.3998C620.704 20.6663 625 32.7842 625 48.7536V148.515C625 164.485 620.704 176.603 612.111 184.869C603.518 193.136 590.629 197.269 573.443 197.269H520.628ZM555.21 169.088H572.814C578.473 169.088 582.822 167.585 585.861 164.579C588.9 161.573 590.419 156.688 590.419 149.924V47.3446C590.419 40.5811 588.9 35.6963 585.861 32.6903C582.822 29.6843 578.473 28.1813 572.814 28.1813H555.21V169.088Z"
                fill="white" />
        </g>
    </g>
    <defs>
        <clipPath id="clip0_227_691">
            <rect width="625" height="263.025" fill="white" />
        </clipPath>
        <clipPath id="clip1_227_691">
            <rect width="197.269" height="197.269" fill="white" />
        </clipPath>
        <clipPath id="clip2_227_691">
            <rect width="488.84" height="39.4538" fill="white" transform="translate(68.0796 223.572)" />
        </clipPath>
        <clipPath id="clip3_227_691">
            <rect width="394.853" height="197.269" fill="white" transform="translate(230.147)" />
        </clipPath>
    </defs>
</svg>