<svg viewBox="0 0 532 532" fill="none" xmlns="http://www.w3.org/2000/svg">
    <g clip-path="url(#clip0_209_2439)">
        <path
            d="M97.22 230.77C90.56 227.09 85.36 221.97 81.61 215.43C77.86 208.89 75.99 201.47 75.99 193.16C75.99 184.85 77.86 177.43 81.61 170.89C85.36 164.35 90.56 159.24 97.22 155.55C103.88 151.87 111.4 150.02 119.78 150.02C128.16 150.02 135.66 151.86 142.26 155.55C148.87 159.24 154.04 164.35 157.79 170.89C161.54 177.43 163.41 184.85 163.41 193.16C163.41 201.47 161.54 208.89 157.79 215.43C154.04 221.97 148.86 227.08 142.26 230.77C135.65 234.46 128.16 236.3 119.78 236.3C111.4 236.3 103.88 234.46 97.22 230.77ZM134.35 210.06C138.14 205.86 140.04 200.23 140.04 193.17C140.04 186.11 138.14 180.48 134.35 176.28C130.55 172.08 125.7 169.97 119.78 169.97C113.86 169.97 108.98 172.07 105.14 176.28C101.3 180.49 99.37 186.12 99.37 193.17C99.37 200.22 101.29 205.86 105.14 210.06C108.99 214.26 113.87 216.37 119.78 216.37C125.69 216.37 130.55 214.27 134.35 210.06Z"
            fill="white" />
        <path
            d="M242.81 155.41C248.87 158.99 253.63 164.03 257.08 170.51C260.53 177 262.26 184.55 262.26 193.17C262.26 201.79 260.53 209.34 257.08 215.83C253.63 222.32 248.87 227.35 242.81 230.93C236.75 234.51 230.01 236.3 222.62 236.3C212.46 236.3 204.47 232.93 198.66 226.18V265.26H175.58V151.28H197.62V160.93C203.34 153.67 211.67 150.03 222.62 150.03C230.02 150.03 236.75 151.82 242.81 155.4V155.41ZM233.19 210.06C236.99 205.86 238.89 200.23 238.89 193.17C238.89 186.11 236.99 180.48 233.19 176.28C229.39 172.08 224.54 169.97 218.62 169.97C212.7 169.97 207.84 172.07 204.05 176.28C200.25 180.48 198.35 186.12 198.35 193.17C198.35 200.22 200.25 205.86 204.05 210.06C207.84 214.26 212.7 216.37 218.62 216.37C224.54 216.37 229.39 214.27 233.19 210.06Z"
            fill="white" />
        <path
            d="M352.82 200.02H292.61C293.69 205.21 296.26 209.31 300.3 212.32C304.34 215.33 309.37 216.84 315.39 216.84C319.53 216.84 323.2 216.19 326.41 214.89C329.61 213.59 332.6 211.54 335.36 208.74L347.64 222.75C340.14 231.78 329.2 236.3 314.8 236.3C305.83 236.3 297.89 234.46 290.98 230.77C284.08 227.09 278.75 221.97 275 215.43C271.25 208.89 269.38 201.47 269.38 193.16C269.38 184.85 271.23 177.56 274.93 170.97C278.63 164.38 283.71 159.24 290.17 155.55C296.63 151.87 303.85 150.02 311.84 150.02C319.83 150.02 326.68 151.79 332.99 155.31C339.3 158.84 344.26 163.9 347.86 170.49C351.46 177.08 353.26 184.74 353.26 193.46C353.26 193.77 353.11 195.95 352.82 200V200.02ZM298.83 173.08C295.28 176.19 293.11 180.45 292.32 185.85H331.52C330.73 180.56 328.56 176.33 325.01 173.16C321.46 169.99 317.12 168.41 311.99 168.41C306.86 168.41 302.38 169.97 298.82 173.08H298.83Z"
            fill="white" />
        <path
            d="M437.46 159.38C443.52 165.61 446.56 174.85 446.56 187.1V235.06H423.48V190.84C423.48 184.2 422.1 179.24 419.34 175.97C416.58 172.7 412.58 171.07 407.36 171.07C401.54 171.07 396.91 172.97 393.46 176.75C390.01 180.54 388.28 186.17 388.28 193.64V235.06H365.2V151.29H387.24V161.1C390.3 157.57 394.09 154.85 398.63 152.93C403.17 151.01 408.15 150.05 413.57 150.05C423.43 150.05 431.39 153.16 437.46 159.39V159.38Z"
            fill="white" />
        <path
            d="M162.98 264.31V379.85H140.94V370.2C135.22 377.47 126.94 381.1 116.09 381.1C108.59 381.1 101.82 379.34 95.75 375.81C89.69 372.28 84.93 367.25 81.48 360.71C78.03 354.17 76.3 346.59 76.3 337.98C76.3 329.37 78.02 321.79 81.48 315.25C84.93 308.71 89.69 303.68 95.75 300.15C101.81 296.62 108.59 294.86 116.09 294.86C126.25 294.86 134.19 298.23 139.91 304.98V264.34H162.99L162.98 264.31ZM134.58 354.85C138.43 350.65 140.35 345.02 140.35 337.96C140.35 330.9 138.43 325.27 134.58 321.07C130.73 316.87 125.9 314.76 120.08 314.76C114.26 314.76 109.28 316.86 105.44 321.07C101.59 325.27 99.67 330.91 99.67 337.96C99.67 345.01 101.59 350.65 105.44 354.85C109.29 359.05 114.17 361.16 120.08 361.16C125.99 361.16 130.73 359.06 134.58 354.85Z"
            fill="white" />
        <path
            d="M241.43 304.09C248.04 310.27 251.34 319.58 251.34 332.04V379.84H229.74V369.41C225.4 377.2 217.31 381.09 205.48 381.09C199.36 381.09 194.06 380 189.58 377.82C185.09 375.64 181.67 372.63 179.3 368.79C176.93 364.95 175.75 360.59 175.75 355.71C175.75 347.92 178.54 341.8 184.11 337.34C189.68 332.88 198.28 330.64 209.92 330.64H228.26C228.26 325.35 226.73 321.27 223.67 318.42C220.61 315.57 216.03 314.14 209.91 314.14C205.67 314.14 201.5 314.84 197.41 316.24C193.32 317.64 189.84 319.54 186.98 321.92L178.7 304.95C183.04 301.73 188.24 299.24 194.31 297.48C200.37 295.72 206.61 294.83 213.02 294.83C225.35 294.83 234.81 297.92 241.42 304.09H241.43ZM221.76 361.86C224.82 359.94 226.99 357.11 228.27 353.37V344.81H212.44C202.97 344.81 198.24 348.08 198.24 354.62C198.24 357.73 199.4 360.2 201.72 362.02C204.04 363.84 207.22 364.74 211.26 364.74C215.3 364.74 218.7 363.78 221.76 361.86Z"
            fill="white" />
        <path
            d="M335.61 300.2C341.67 303.78 346.43 308.82 349.88 315.3C353.33 321.79 355.06 329.34 355.06 337.96C355.06 346.58 353.33 354.13 349.88 360.62C346.43 367.11 341.67 372.14 335.61 375.72C329.55 379.3 322.81 381.09 315.42 381.09C305.26 381.09 297.27 377.72 291.46 370.97V410.05H268.38V296.07H290.42V305.72C296.14 298.46 304.47 294.82 315.42 294.82C322.82 294.82 329.55 296.61 335.61 300.19V300.2ZM325.99 354.85C329.79 350.65 331.69 345.02 331.69 337.96C331.69 330.9 329.79 325.27 325.99 321.07C322.19 316.87 317.34 314.76 311.42 314.76C305.5 314.76 300.64 316.86 296.85 321.07C293.05 325.27 291.15 330.91 291.15 337.96C291.15 345.01 293.05 350.65 296.85 354.85C300.64 359.05 305.5 361.16 311.42 361.16C317.34 361.16 322.19 359.06 325.99 354.85Z"
            fill="white" />
        <path
            d="M434.83 300.2C440.89 303.78 445.65 308.82 449.1 315.3C452.55 321.79 454.28 329.34 454.28 337.96C454.28 346.58 452.55 354.13 449.1 360.62C445.65 367.11 440.89 372.14 434.83 375.72C428.77 379.3 422.03 381.09 414.64 381.09C404.48 381.09 396.49 377.72 390.68 370.97V410.05H367.6V296.07H389.64V305.72C395.36 298.46 403.69 294.82 414.64 294.82C422.04 294.82 428.77 296.61 434.83 300.19V300.2ZM425.21 354.85C429.01 350.65 430.91 345.02 430.91 337.96C430.91 330.9 429.01 325.27 425.21 321.07C421.41 316.87 416.56 314.76 410.64 314.76C404.72 314.76 399.86 316.86 396.07 321.07C392.27 325.27 390.37 330.91 390.37 337.96C390.37 345.01 392.27 350.65 396.07 354.85C399.86 359.05 404.72 361.16 410.64 361.16C416.56 361.16 421.41 359.06 425.21 354.85Z"
            fill="white" />
        <path
            d="M474.84 378.52C468.53 376.81 463.5 374.65 459.75 372.06L467.44 354.62C470.99 357.01 475.28 358.96 480.31 360.46C485.34 361.97 490.27 362.72 495.1 362.72C504.86 362.72 509.74 360.18 509.74 355.09C509.74 352.7 508.41 350.99 505.75 349.95C503.09 348.91 498.99 348.03 493.47 347.3C486.96 346.26 481.59 345.07 477.35 343.72C473.11 342.37 469.44 339.98 466.33 336.56C463.22 333.14 461.67 328.26 461.67 321.92C461.67 316.63 463.12 311.93 466.03 307.83C468.94 303.73 473.18 300.54 478.75 298.25C484.32 295.97 490.9 294.82 498.5 294.82C504.12 294.82 509.72 295.47 515.29 296.77C520.86 298.07 525.47 299.86 529.12 302.14L521.43 319.42C514.43 315.27 506.79 313.19 498.5 313.19C493.57 313.19 489.87 313.92 487.41 315.37C484.94 316.82 483.71 318.69 483.71 320.98C483.71 323.58 485.04 325.39 487.7 326.43C490.36 327.47 494.6 328.45 500.42 329.39C506.93 330.53 512.25 331.75 516.4 333.05C520.54 334.35 524.14 336.71 527.2 340.13C530.26 343.56 531.79 348.33 531.79 354.46C531.79 359.65 530.31 364.27 527.35 368.32C524.39 372.37 520.08 375.51 514.41 377.74C508.74 379.97 502.01 381.09 494.22 381.09C487.61 381.09 481.15 380.23 474.84 378.52Z"
            fill="white" />
        <path
            d="M348.36 531.79H183.42C165.58 531.79 148.8 524.84 136.19 512.22L19.56 395.59C6.94 382.97 0 366.2 0 348.36V183.42C0 165.58 6.95 148.8 19.56 136.19L136.19 19.56C148.81 6.95 165.58 0 183.43 0H348.37C366.21 0 382.99 6.95 395.6 19.56L512.23 136.19C524.85 148.81 531.8 165.58 531.8 183.42V261.71H516.8V183.42C516.8 169.58 511.41 156.58 501.63 146.79L385 30.16C375.22 20.38 362.21 14.99 348.37 14.99H183.43C169.59 14.99 156.59 20.38 146.8 30.16L30.17 146.8C20.39 156.58 15 169.59 15 183.43V348.37C15 362.21 20.39 375.21 30.17 385L146.8 501.63C156.58 511.41 169.59 516.8 183.43 516.8H348.37C362.21 516.8 375.21 511.41 385 501.63L474.63 412L485.24 422.61L395.61 512.24C382.99 524.86 366.22 531.81 348.38 531.81L348.36 531.79Z"
            fill="white" />
    </g>
    <defs>
        <clipPath id="clip0_209_2439">
            <rect width="531.79" height="531.79" fill="white" />
        </clipPath>
    </defs>
</svg>