<?xml version="1.0" encoding="UTF-8"?><svg id="Layer_2" xmlns="http://www.w3.org/2000/svg" viewBox="0 0 531.79 531.79"><defs><style>.cls-1{fill:#fff;}.cls-2{fill:#0071bc;}</style></defs><g id="Layer_1-2"><path class="cls-1" d="m97.22,230.77c-6.66-3.68-11.86-8.8-15.61-15.34-3.75-6.54-5.62-13.96-5.62-22.27s1.87-15.73,5.62-22.27c3.75-6.54,8.95-11.65,15.61-15.34,6.66-3.68,14.18-5.53,22.56-5.53s15.88,1.84,22.48,5.53c6.61,3.69,11.78,8.8,15.53,15.34,3.75,6.54,5.62,13.96,5.62,22.27s-1.87,15.73-5.62,22.27c-3.75,6.54-8.93,11.65-15.53,15.34-6.61,3.69-14.1,5.53-22.48,5.53s-15.9-1.84-22.56-5.53Zm37.13-20.71c3.79-4.2,5.69-9.83,5.69-16.89s-1.9-12.69-5.69-16.89c-3.8-4.2-8.65-6.31-14.57-6.31s-10.8,2.1-14.64,6.31-5.77,9.84-5.77,16.89,1.92,12.69,5.77,16.89c3.85,4.2,8.73,6.31,14.64,6.31s10.77-2.1,14.57-6.31Z"/><path class="cls-1" d="m242.81,155.41c6.06,3.58,10.82,8.62,14.27,15.1,3.45,6.49,5.18,14.04,5.18,22.66s-1.73,16.17-5.18,22.66c-3.45,6.49-8.21,11.52-14.27,15.1s-12.8,5.37-20.19,5.37c-10.16,0-18.15-3.37-23.96-10.12v39.08h-23.08v-113.98h22.04v9.65c5.72-7.26,14.05-10.9,25-10.9,7.4,0,14.13,1.79,20.19,5.37Zm-9.62,54.65c3.8-4.2,5.7-9.83,5.7-16.89s-1.9-12.69-5.7-16.89c-3.8-4.2-8.65-6.31-14.57-6.31s-10.78,2.1-14.57,6.31c-3.8,4.2-5.7,9.84-5.7,16.89s1.9,12.69,5.7,16.89c3.79,4.2,8.65,6.31,14.57,6.31s10.77-2.1,14.57-6.31Z"/><path class="cls-1" d="m352.82,200.02h-60.21c1.08,5.19,3.65,9.29,7.69,12.3,4.04,3.01,9.07,4.52,15.09,4.52,4.14,0,7.81-.65,11.02-1.95,3.2-1.3,6.19-3.35,8.95-6.15l12.28,14.01c-7.5,9.03-18.44,13.55-32.84,13.55-8.97,0-16.91-1.84-23.82-5.53-6.9-3.68-12.23-8.8-15.98-15.34-3.75-6.54-5.62-13.96-5.62-22.27s1.85-15.6,5.55-22.19c3.7-6.59,8.78-11.73,15.24-15.42,6.46-3.68,13.68-5.53,21.67-5.53s14.84,1.77,21.15,5.29c6.31,3.53,11.27,8.59,14.87,15.18,3.6,6.59,5.4,14.25,5.4,22.97,0,.31-.15,2.49-.44,6.54Zm-53.99-26.94c-3.55,3.11-5.72,7.37-6.51,12.77h39.2c-.79-5.29-2.96-9.52-6.51-12.69-3.55-3.17-7.89-4.75-13.02-4.75s-9.61,1.56-13.17,4.67Z"/><path class="cls-1" d="m437.46,159.38c6.06,6.23,9.1,15.47,9.1,27.72v47.96h-23.08v-44.22c0-6.64-1.38-11.6-4.14-14.87-2.76-3.27-6.76-4.9-11.98-4.9-5.82,0-10.45,1.9-13.9,5.68-3.45,3.79-5.18,9.42-5.18,16.89v41.42h-23.08v-83.77h22.04v9.81c3.06-3.53,6.85-6.25,11.39-8.17,4.54-1.92,9.52-2.88,14.94-2.88,9.86,0,17.82,3.11,23.89,9.34Z"/><path class="cls-1" d="m162.98,264.31v115.54h-22.04v-9.65c-5.72,7.27-14,10.9-24.85,10.9-7.5,0-14.27-1.76-20.34-5.29-6.06-3.53-10.82-8.56-14.27-15.1-3.45-6.54-5.18-14.12-5.18-22.73s1.72-16.19,5.18-22.73c3.45-6.54,8.21-11.57,14.27-15.1,6.06-3.53,12.84-5.29,20.34-5.29,10.16,0,18.1,3.37,23.82,10.12v-40.64h23.08Zm-28.4,90.54c3.85-4.2,5.77-9.83,5.77-16.89s-1.92-12.69-5.77-16.89c-3.85-4.2-8.68-6.31-14.5-6.31s-10.8,2.1-14.64,6.31c-3.85,4.2-5.77,9.84-5.77,16.89s1.92,12.69,5.77,16.89c3.85,4.2,8.73,6.31,14.64,6.31s10.65-2.1,14.5-6.31Z"/><path class="cls-1" d="m241.43,304.09c6.61,6.18,9.91,15.49,9.91,27.95v47.8h-21.6v-10.43c-4.34,7.79-12.43,11.68-24.26,11.68-6.12,0-11.42-1.09-15.9-3.27-4.49-2.18-7.91-5.19-10.28-9.03-2.37-3.84-3.55-8.2-3.55-13.08,0-7.79,2.79-13.91,8.36-18.37,5.57-4.46,14.17-6.7,25.81-6.7h18.34c0-5.29-1.53-9.37-4.59-12.22-3.06-2.85-7.64-4.28-13.76-4.28-4.24,0-8.41.7-12.5,2.1-4.09,1.4-7.57,3.3-10.43,5.68l-8.28-16.97c4.34-3.22,9.54-5.71,15.61-7.47,6.06-1.76,12.3-2.65,18.71-2.65,12.33,0,21.79,3.09,28.4,9.26Zm-19.67,57.77c3.06-1.92,5.23-4.75,6.51-8.49v-8.56h-15.83c-9.47,0-14.2,3.27-14.2,9.81,0,3.11,1.16,5.58,3.48,7.4,2.32,1.82,5.5,2.72,9.54,2.72s7.44-.96,10.5-2.88Z"/><path class="cls-1" d="m335.61,300.2c6.06,3.58,10.82,8.62,14.27,15.1,3.45,6.49,5.18,14.04,5.18,22.66s-1.73,16.17-5.18,22.66c-3.45,6.49-8.21,11.52-14.27,15.1s-12.8,5.37-20.19,5.37c-10.16,0-18.15-3.37-23.96-10.12v39.08h-23.08v-113.98h22.04v9.65c5.72-7.26,14.05-10.9,25-10.9,7.4,0,14.13,1.79,20.19,5.37Zm-9.62,54.65c3.8-4.2,5.7-9.83,5.7-16.89s-1.9-12.69-5.7-16.89c-3.8-4.2-8.65-6.31-14.57-6.31s-10.78,2.1-14.57,6.31c-3.8,4.2-5.7,9.84-5.7,16.89s1.9,12.69,5.7,16.89c3.79,4.2,8.65,6.31,14.57,6.31s10.77-2.1,14.57-6.31Z"/><path class="cls-1" d="m434.83,300.2c6.06,3.58,10.82,8.62,14.27,15.1,3.45,6.49,5.18,14.04,5.18,22.66s-1.73,16.17-5.18,22.66c-3.45,6.49-8.21,11.52-14.27,15.1s-12.8,5.37-20.19,5.37c-10.16,0-18.15-3.37-23.96-10.12v39.08h-23.08v-113.98h22.04v9.65c5.72-7.26,14.05-10.9,25-10.9,7.4,0,14.13,1.79,20.19,5.37Zm-9.62,54.65c3.8-4.2,5.7-9.83,5.7-16.89s-1.9-12.69-5.7-16.89c-3.8-4.2-8.65-6.31-14.57-6.31s-10.78,2.1-14.57,6.31c-3.8,4.2-5.7,9.84-5.7,16.89s1.9,12.69,5.7,16.89c3.79,4.2,8.65,6.31,14.57,6.31s10.77-2.1,14.57-6.31Z"/><path class="cls-1" d="m474.84,378.52c-6.31-1.71-11.34-3.87-15.09-6.46l7.69-17.44c3.55,2.39,7.84,4.34,12.87,5.84,5.03,1.51,9.96,2.26,14.79,2.26,9.76,0,14.64-2.54,14.64-7.63,0-2.39-1.33-4.1-3.99-5.14-2.66-1.04-6.76-1.92-12.28-2.65-6.51-1.04-11.88-2.23-16.12-3.58-4.24-1.35-7.91-3.74-11.02-7.16s-4.66-8.3-4.66-14.64c0-5.29,1.45-9.99,4.36-14.09,2.91-4.1,7.15-7.29,12.72-9.58,5.57-2.28,12.15-3.43,19.75-3.43,5.62,0,11.22.65,16.79,1.95,5.57,1.3,10.18,3.09,13.83,5.37l-7.69,17.28c-7-4.15-14.64-6.23-22.93-6.23-4.93,0-8.63.73-11.09,2.18-2.47,1.45-3.7,3.32-3.7,5.61,0,2.6,1.33,4.41,3.99,5.45,2.66,1.04,6.9,2.02,12.72,2.96,6.51,1.14,11.83,2.36,15.98,3.66,4.14,1.3,7.74,3.66,10.8,7.08,3.06,3.43,4.59,8.2,4.59,14.33,0,5.19-1.48,9.81-4.44,13.86-2.96,4.05-7.27,7.19-12.94,9.42-5.67,2.23-12.4,3.35-20.19,3.35-6.61,0-13.07-.86-19.38-2.57Z"/><path class="cls-2" d="m348.36,531.79h-164.94c-17.84,0-34.62-6.95-47.23-19.57l-116.63-116.63c-12.62-12.62-19.56-29.39-19.56-47.23v-164.94c0-17.84,6.95-34.62,19.56-47.23L136.19,19.56C148.81,6.95,165.58,0,183.43,0h164.94c17.84,0,34.62,6.95,47.23,19.56l116.63,116.63c12.62,12.62,19.57,29.39,19.57,47.23v78.29h-15v-78.29c0-13.84-5.39-26.84-15.17-36.63l-116.63-116.63c-9.78-9.78-22.79-15.17-36.63-15.17h-164.94c-13.84,0-26.84,5.39-36.63,15.17L30.17,146.8c-9.78,9.78-15.17,22.79-15.17,36.63v164.94c0,13.84,5.39,26.84,15.17,36.63l116.63,116.63c9.78,9.78,22.79,15.17,36.63,15.17h164.94c13.84,0,26.84-5.39,36.63-15.17l89.63-89.63,10.61,10.61-89.63,89.63c-12.62,12.62-29.39,19.57-47.23,19.57Z"/></g></svg>