<svg width="199" height="251" viewBox="0 0 199 251" fill="none" xmlns="http://www.w3.org/2000/svg">
<path d="M115.739 0.44809C139.26 4.37623 149.153 21.8964 152.467 29.7726C153.72 32.7454 153.606 36.1275 152.013 38.9438C148.912 44.4199 146.356 45.0957 146.356 45.0957C128.42 56.2176 122.911 16.7665 103.278 30.7147C81.9908 45.8414 134.067 95.1495 143.671 104.56C162.708 123.206 195.999 156.319 198.79 187.517C201.402 216.692 179.471 243.593 145.045 246.719C224.241 195.58 118.041 112.74 91.7639 74.4735C64.4405 34.6828 85.1568 -4.65516 115.739 0.44809Z" fill="white"/>
<path d="M139.126 50.1457C139.126 50.1457 153.672 51.1145 156.679 35.1256C156.679 35.1256 160.19 53.0519 171.226 57.4161C171.226 57.4161 151.346 58.9075 139.126 50.1457Z" fill="white"/>
<mask id="mask0_29_1182" style="mask-type:luminance" maskUnits="userSpaceOnUse" x="0" y="152" width="166" height="99">
<path d="M0 152.57H165.795V251H0V152.57Z" fill="white"/>
</mask>
<g mask="url(#mask0_29_1182)">
<path d="M164.264 180.54C164.264 180.54 176.215 234.362 126.837 247.811C45.4312 269.988 34.5328 170.42 -0.29248 158.386C-0.29248 158.386 55.5002 132.547 112.962 191.752C112.962 191.752 65.3972 163.033 29.7185 163.582C29.7185 163.582 60.8032 236.972 112.962 237.697C164.742 238.42 164.264 180.54 164.264 180.54Z" fill="white"/>
</g>
<path d="M65.1734 186.678C65.1734 186.678 111.94 231.852 141.483 202.058C173.493 169.774 93.3915 86.8605 50.4656 84.9397C50.4656 84.9397 115.384 116.165 128.764 164.411C140.416 206.416 106.11 209.715 65.1734 186.678Z" fill="white"/>
</svg>
