<svg width="790" height="64" viewBox="0 0 790 64" fill="none" xmlns="http://www.w3.org/2000/svg">
<path d="M563.901 63.6956C530.425 59.6531 523.879 15.4518 554.818 2.36614C565.793 -2.27587 585.846 1.07611 593.149 8.77349L595.894 11.6664L590.569 16.1797L585.244 20.693L580.646 17.6C568.611 9.50254 552.508 17.3059 552.453 31.262C552.392 46.6321 567.231 55.1308 579.564 46.7901C585.683 42.6518 585.425 42.6173 591.055 48.3267L595.795 53.1324L592.907 55.7479C586.067 61.9418 574.843 65.017 563.901 63.6956ZM683.48 63.5455C666.485 61.0907 655.631 48.6118 655.631 31.5271C655.631 -2.56248 706.726 -12.3574 721.433 18.913C732.822 43.1291 711.963 67.6597 683.48 63.5455ZM697.636 48.2144C707.266 43.3898 709.857 28.0892 702.408 20.0408C691.185 7.91509 673.255 15.8584 673.255 32.9562C673.255 45.3337 686.652 53.7177 697.636 48.2144ZM414.838 46.0438V28.3832H438.475H462.111L461.726 35.0059L461.341 41.6287L446.371 41.9841L431.401 42.3395V53.022V63.7045H423.12H414.838V46.0438ZM461.978 62.5094C461.978 61.7887 468.055 47.5712 475.482 30.9149L488.987 0.630779L497.459 0.63664L505.932 0.642508L519.628 31.2274C535.847 67.4456 535.261 63.7063 524.724 63.6968L516.124 63.6893L507.307 41.6212C502.458 29.4836 498.128 19.553 497.686 19.553C497.243 19.553 492.898 29.3452 488.029 41.3134L479.177 63.0738L470.577 63.4469C465.238 63.6784 461.978 63.323 461.978 62.5094ZM616.136 39.1057V14.507H606.581H597.025V7.56888V0.630779H625.054H653.083V7.56888V14.507H643.528H633.972V39.1057V63.7045H625.054H616.136V39.1057ZM733.347 48.5668V33.4291H747.809C768.504 33.4291 773.704 30.8911 771.922 21.6603C770.738 15.5276 767.557 14.507 749.626 14.507H733.347V7.56888V0.630779H747.825C771.706 0.630779 782.769 4.19824 787.605 13.459C792.108 22.0812 788.633 36.6409 780.869 41.6776L777.912 43.5961L784.295 52.9626C792.187 64.5424 792.384 63.7045 781.771 63.7045H772.863L766.932 54.8741C761.298 46.485 760.757 46.0438 756.093 46.0438H751.184V54.8741V63.7045H742.265H733.347V48.5668ZM414.838 7.54042V0.573863L438.09 0.917688L461.341 1.26151L461.726 7.88425L462.111 14.507H438.475H414.838V7.54042Z" fill="white"/>
<path d="M343.937 0.530322C334.639 0.605802 325.367 3.74346 319.149 9.91376C303.002 25.9367 309.572 54.0554 331.242 61.665C366.047 73.8867 394.632 34.2622 368.87 9.50723C362.554 3.43868 353.234 0.454843 343.937 0.530322ZM35.3538 0.534104C26.7826 0.400628 17.9375 2.79015 11.3163 7.73707C-7.22741 21.5918 -2.03273 53.8373 19.9833 61.5357C32.0882 65.7685 46.347 63.847 55.3863 56.7645L60.6417 52.6438L55.222 48.2459L49.7987 43.8443L45.3906 46.8378C32.8692 55.333 17.3407 47.2092 17.3407 32.1658C17.3407 16.8147 32.1481 8.84937 45.0136 17.2794L49.8883 20.4725L55.2295 15.779L60.5708 11.0854L57.749 8.45774C52.2234 3.32165 43.925 0.667588 35.3538 0.534104ZM132.06 1.84978C125.162 1.71248 126.412 2.4877 138.372 22.5717L149.838 41.8264V52.1338V62.4412H158.12H166.403V51.4057L166.407 40.3666L174.491 27.0435C178.938 19.7156 184.152 11.0599 186.077 7.80729L189.574 1.89043H181.419H173.263L166.328 13.8313C157.947 28.2632 159.553 28.2586 151.114 13.8757L144.105 1.93109L135.505 1.91255C134.194 1.90952 133.045 1.86938 132.06 1.84978ZM68.3008 1.89043V8.19903V14.5076H84.123C102.413 14.5076 103.698 14.8312 105.88 19.9699C110.221 30.1927 105.033 33.4297 84.3096 33.4297H68.3008V47.9354V62.4412H76.5198H84.7426L85.1196 54.5582L85.5003 46.6752L90.7221 46.2945C95.8774 45.9208 96.0197 46.026 101.386 54.1812L106.82 62.4412H115.667C122.39 62.4412 124.286 62.0656 123.576 60.8668C123.062 59.9995 120.449 56.0555 117.768 52.1042C111.847 43.3775 111.837 44.4143 117.873 38.7294C123.854 33.095 125.491 26.833 123.199 18.3401C119.658 5.22332 112.477 1.9574 87.0941 1.91999L68.3008 1.89043ZM194.43 1.89043V8.19903V14.5076H210.85C228.433 14.5076 232.214 15.705 232.722 21.4445C233.66 32.0388 231.139 33.4297 210.992 33.4297H194.43V47.9354V62.4412H202.649H210.872L211.249 54.5582L211.63 46.6752L223.096 45.9878C244.017 44.7377 253.699 34.5343 249.328 18.3401C245.788 5.22332 238.606 1.9574 213.224 1.91999L194.43 1.89043ZM251.762 1.89043V8.19903V14.5076H261.317H270.872V38.4744V62.4412H279.155H287.434V38.4743V14.5075H297.627H307.821V8.19895V1.89035H279.789L251.762 1.89043ZM345.236 13.9717C349.233 14.1768 353.34 15.9049 356.941 19.6262C362.704 25.582 362.542 39.1182 356.638 44.9641C348.474 53.0482 333.911 50.7637 329.059 40.6401C322.262 26.458 333.244 13.3565 345.236 13.9717Z" fill="white"/>
</svg>
