<svg width="496" height="150" viewBox="0 0 496 150" fill="none" xmlns="http://www.w3.org/2000/svg">
<g clip-path="url(#clip0_31_1266)">
<path fill-rule="evenodd" clip-rule="evenodd" d="M15.9672 92.3864C19.3644 95.7955 19.3644 101.25 15.9672 104.659L15.6274 105C12.2302 108.409 6.79457 108.409 3.39731 105C5.01871e-05 101.591 5.01871e-05 96.1364 3.39731 92.7273L3.73704 92.3864C7.1343 88.9773 12.5699 88.9773 15.9672 92.3864Z" fill="white"/>
<path fill-rule="evenodd" clip-rule="evenodd" d="M56.7343 94.7727C60.1316 98.1818 60.1316 103.636 56.7343 107.045L32.6138 130.909C29.2165 134.318 23.7809 134.318 20.3836 130.909C16.9864 127.5 16.9864 122.045 20.3836 118.636L44.5042 94.7727C47.9014 91.3636 53.3371 91.3636 56.7343 94.7727Z" fill="white" fill-opacity="0.8"/>
<path fill-rule="evenodd" clip-rule="evenodd" d="M89.3493 136.022C92.0671 131.932 97.5028 130.909 101.24 133.636L101.919 133.977C105.996 136.704 107.015 142.159 104.297 145.909C101.579 150 96.1439 151.022 92.4069 148.295L91.7274 147.954C87.9904 145.227 86.9713 140.113 89.3493 136.022Z" fill="white" fill-opacity="0.6"/>
<path fill-rule="evenodd" clip-rule="evenodd" d="M146.76 91.7042C150.158 95.1133 150.158 100.568 146.76 103.977L134.87 115.909C131.473 119.318 126.037 119.318 122.64 115.909C119.242 112.5 119.242 107.045 122.64 103.636L134.53 91.7042C137.927 88.2951 143.363 88.2951 146.76 91.7042Z" fill="white" fill-opacity="0.8"/>
<path fill-rule="evenodd" clip-rule="evenodd" d="M147.101 48.0682C150.499 51.4773 150.499 56.9318 147.101 60.3409L59.7918 147.614C56.3945 151.023 50.9589 151.023 47.5616 147.614C44.1644 144.205 44.1644 138.75 47.5616 135.341L134.871 48.4091C137.929 44.6591 143.704 44.6591 147.101 48.0682Z" fill="white"/>
<path fill-rule="evenodd" clip-rule="evenodd" d="M130.455 21.4773C133.852 24.8864 133.852 30.3409 130.455 33.75L80.1753 83.8636C76.778 87.2727 71.3424 87.2727 67.9452 83.8636C64.5479 80.4545 64.5479 75 67.9452 71.5909L118.225 21.4773C121.622 18.0682 127.057 18.0682 130.455 21.4773Z" fill="white"/>
<path fill-rule="evenodd" clip-rule="evenodd" d="M103.956 4.43182C107.353 7.84091 107.353 13.2955 103.956 16.7045L39.4082 81.1364C36.011 84.5454 30.5753 84.5454 27.1781 81.1364C23.7808 77.7273 23.7808 72.2727 27.1781 68.8636L91.726 4.43182C95.1233 1.02272 100.559 1.02272 103.956 4.43182Z" fill="white"/>
<path fill-rule="evenodd" clip-rule="evenodd" d="M40.0904 25.2269C43.4877 28.636 43.4877 34.0906 40.0904 37.4997L14.9507 62.7269C11.5534 66.136 6.11781 66.136 2.72055 62.7269C-0.676708 59.3179 -0.676708 53.8633 2.72055 50.4542L27.8603 25.2269C31.2575 21.8178 36.6932 21.8178 40.0904 25.2269Z" fill="white" fill-opacity="0.8"/>
<path fill-rule="evenodd" clip-rule="evenodd" d="M55.7176 0C60.4738 0 64.5505 3.75 64.5505 8.52273V9.54545C64.5505 14.3182 60.8135 18.0682 55.7176 18.0682C50.6217 18.0682 46.8848 14.3182 46.8848 9.54545V8.52273C46.8848 3.75 50.6217 0 55.7176 0Z" fill="white" fill-opacity="0.6"/>
<path d="M189.225 63.4094V56.2503H201.795C205.192 56.2503 207.91 55.5685 210.288 54.2049C212.666 52.8412 214.704 50.7958 216.063 48.4094C217.422 46.0231 218.101 42.9549 218.101 39.5458C218.101 36.1367 217.422 33.4094 216.063 31.0231C214.704 28.6367 212.666 26.5912 210.288 25.2276C207.91 23.864 204.852 23.1822 201.795 23.1822H189.225V15.6822H201.795C205.192 15.6822 208.589 16.364 211.307 17.3867C214.365 18.4094 216.743 20.114 219.121 22.5003C221.499 24.5458 223.197 27.2731 224.217 30.0003C225.575 32.7276 225.915 36.1367 225.915 39.5458C225.915 42.9549 225.236 46.0231 224.217 49.0912C223.197 52.1594 221.159 54.5458 219.121 56.5912C217.082 58.6367 214.365 60.3412 211.307 61.7049C208.249 62.7276 205.192 63.4094 201.795 63.4094H189.225ZM184.129 63.4094V15.6822H191.943V63.4094H184.129Z" fill="white"/>
<path d="M248.34 64.0909C244.942 64.0909 242.225 63.4091 239.507 62.0455C236.789 60.6818 234.751 58.6364 233.392 55.9091C232.033 53.1818 231.014 50.4545 231.014 47.0455C231.014 43.6364 231.693 40.9091 233.392 38.5227C234.751 35.7955 236.789 33.75 239.507 32.3864C241.885 30.6818 244.942 30 248 30C251.057 30 253.775 30.6818 256.153 32.0455C258.531 33.4091 260.23 35.4545 261.589 37.8409C262.948 40.2273 263.627 42.9545 263.627 46.3636C263.627 47.0455 263.627 47.3864 263.627 48.0682C263.627 48.75 263.627 49.0909 263.288 49.7727H236.449V43.6364H259.211L256.493 46.0227C256.493 43.9773 256.153 42.2727 255.474 40.9091C254.794 39.5455 253.775 38.5227 252.416 37.8409C251.058 37.1591 249.699 36.8182 248 36.8182C245.962 36.8182 244.603 37.1591 242.904 38.1818C241.205 39.2045 240.526 40.2273 239.507 41.5909C238.827 42.9545 238.488 44.6591 238.488 46.7045C238.488 48.75 238.827 50.4545 239.847 52.1591C240.526 53.8636 241.885 54.8864 243.244 55.9091C244.603 56.5909 246.301 57.2727 248.34 57.2727C250.038 57.2727 251.397 56.9318 253.096 56.25C254.455 55.5682 255.814 54.8864 256.833 53.5227L261.589 58.2955C259.89 60 258.192 61.7045 255.814 62.3864C253.436 63.4091 251.057 64.0909 248.34 64.0909Z" fill="white"/>
<path d="M270.421 63.4094V15.6822H278.234V63.4094H270.421ZM275.856 42.9549V35.7958H299.977V42.9549H275.856ZM275.856 22.8412V15.6822H301.336V22.8412H275.856Z" fill="white"/>
<path d="M308.132 63.4091V30.6818H315.606V63.4091H308.132ZM311.869 24.5455C310.51 24.5455 309.491 24.2045 308.811 23.1818C308.132 22.1591 307.452 21.1364 307.452 20.1136C307.452 18.75 307.792 17.7273 308.811 17.0455C309.83 16.0227 310.849 15.6818 311.869 15.6818C313.227 15.6818 314.247 16.0227 314.926 17.0455C315.606 18.0682 316.285 19.0909 316.285 20.1136C316.285 21.4773 315.945 22.5 314.926 23.1818C314.247 24.2045 313.227 24.5455 311.869 24.5455Z" fill="white"/>
<path d="M346.521 64.0909C343.123 64.0909 339.726 63.4091 337.008 62.3864C333.951 61.0227 331.573 59.3182 329.534 57.2727C327.496 54.8864 325.797 52.5 324.438 49.4318C323.419 46.3636 322.74 43.2955 322.74 39.8864C322.74 36.4773 323.419 33.4091 324.438 30.3409C325.458 27.2727 327.156 24.8864 329.534 22.5C331.573 20.1136 334.29 18.4091 337.008 17.3864C340.066 16.0227 343.123 15.3409 346.521 15.3409C350.258 15.3409 353.655 16.0227 356.373 17.3864C359.09 18.75 361.808 20.4545 363.847 22.5L358.751 27.2727C357.392 25.5682 355.693 24.5455 353.655 23.5227C351.616 22.5 349.238 22.1591 346.521 22.1591C344.142 22.1591 342.104 22.5 340.066 23.5227C338.027 24.2045 336.329 25.5682 334.97 26.9318C333.611 28.2955 332.592 30.3409 331.573 32.3864C330.893 34.4318 330.553 36.8182 330.553 39.2045C330.553 41.5909 330.893 43.9773 331.573 46.0227C332.252 48.0682 333.271 49.7727 334.97 51.4773C336.329 52.8409 338.027 54.2045 340.066 54.8864C342.104 55.5682 344.142 56.25 346.521 56.25C349.578 56.25 351.956 55.9091 353.995 54.8864C356.033 53.8636 357.732 52.8409 359.09 51.1364L364.526 56.5909C362.488 58.9773 359.77 60.6818 356.712 61.7045C353.655 63.4091 350.258 64.0909 346.521 64.0909Z" fill="white"/>
<path d="M392.723 63.4091V44.3182C392.723 42.2727 392.044 40.2273 390.685 38.8636C389.326 37.5 387.627 36.8182 385.249 36.8182C383.89 36.8182 382.531 37.1591 381.512 37.8409C380.493 38.5227 379.474 39.2045 378.794 40.5682C378.115 41.5909 377.775 42.9545 377.775 44.3182L374.718 42.6136C374.718 40.2273 375.397 37.8409 376.416 36.1364C377.436 34.0909 379.134 32.7273 380.833 31.7046C382.871 30.6818 384.909 30 387.288 30C389.666 30 392.044 30.6818 393.742 31.7046C395.781 32.7273 397.14 34.4318 398.159 36.1364C399.178 38.1818 399.857 40.2273 399.857 42.9546V63.4091H392.723ZM370.301 63.4091V14.3182H377.775V63.4091H370.301Z" fill="white"/>
<path d="M421.601 64.0902C418.544 64.0902 415.826 63.4084 413.448 61.7039C411.07 60.3402 409.371 58.2948 407.673 55.5675C406.314 52.8402 405.634 50.113 405.634 47.0448C405.634 43.9766 406.314 40.9084 407.673 38.5221C409.032 35.7948 411.07 33.7493 413.448 32.3857C415.826 30.6812 418.544 29.9993 421.601 29.9993C423.979 29.9993 426.358 30.6812 428.056 31.7039C430.095 32.7266 431.453 34.0902 432.812 36.1357C433.832 37.8402 434.511 40.2266 434.511 42.613V52.1584C434.511 54.5448 433.832 56.5902 432.812 58.6357C431.793 60.3402 430.095 62.0448 428.396 63.0675C426.018 63.4084 423.979 64.0902 421.601 64.0902ZM422.621 56.9312C425.338 56.9312 427.716 55.9084 429.415 54.2039C431.114 52.4993 432.133 50.113 432.133 47.0448C432.133 44.9993 431.793 43.2948 431.114 41.9312C430.434 40.5675 429.415 39.2039 427.716 38.5221C426.358 37.4993 424.659 37.1584 422.96 37.1584C421.262 37.1584 419.563 37.4993 418.204 38.5221C416.845 39.2039 415.826 40.5675 414.807 41.9312C414.127 43.2948 413.788 44.9993 413.788 47.0448C413.788 49.0902 414.127 50.7948 414.807 52.1584C415.486 53.5221 416.845 54.8857 418.204 55.5675C419.223 56.5902 420.922 56.9312 422.621 56.9312ZM431.453 63.4084V54.5448L432.812 46.7039L431.453 38.863V30.6812H438.927V63.4084H431.453Z" fill="white"/>
<path d="M447.419 63.4091V30.6818H454.893V63.4091H447.419ZM451.156 24.5455C449.797 24.5455 448.778 24.2045 448.099 23.1818C447.419 22.1591 446.74 21.1364 446.74 20.1136C446.74 18.75 447.079 17.7273 448.099 17.0455C449.118 16.0227 450.137 15.6818 451.156 15.6818C452.515 15.6818 453.534 16.0227 454.214 17.0455C454.893 18.0682 455.573 19.0909 455.573 20.1136C455.573 21.4773 455.233 22.5 454.214 23.1818C453.534 24.2045 452.175 24.5455 451.156 24.5455Z" fill="white"/>
<path d="M485.471 63.4084V44.3175C485.471 42.2721 484.792 40.2266 483.433 38.863C482.074 37.4993 480.375 36.8175 477.997 36.8175C476.638 36.8175 475.279 37.1584 474.26 37.8402C473.241 38.5221 472.222 39.2039 471.542 40.5675C470.863 41.5902 470.523 42.9539 470.523 44.3175L467.466 42.613C467.466 40.2266 468.145 37.8402 469.164 36.1357C470.184 34.0902 471.882 32.7266 473.581 31.7039C475.619 30.6812 477.658 29.9993 480.036 29.9993C482.414 29.9993 484.792 30.6812 486.49 32.0448C488.529 33.4084 489.888 34.7721 490.907 36.8175C491.926 38.863 492.605 40.9084 492.605 42.9539V63.4084H485.471ZM463.049 63.4084V30.6812H470.523V63.4084H463.049Z" fill="white"/>
<path d="M190.586 135V125.455H202.477C205.534 125.455 207.912 124.773 209.951 123.75C211.989 122.727 213.688 121.023 215.047 118.636C216.406 116.25 216.745 113.864 216.745 110.795C216.745 107.727 216.066 105 215.047 102.955C214.027 100.909 212.329 99.2045 209.951 97.8409C207.912 96.8182 205.195 96.1364 202.477 96.1364H190.247V86.9318H202.477C206.214 86.9318 209.271 87.6136 212.329 88.6364C215.386 89.6591 218.104 91.3636 220.482 93.75C222.86 95.7955 224.559 98.5227 225.918 101.25C227.277 104.318 227.956 107.386 227.956 110.795C227.956 114.205 227.277 117.614 225.918 120.341C224.559 123.409 222.86 125.795 220.822 127.841C218.444 129.886 215.726 131.591 212.669 132.955C209.611 133.977 206.214 134.659 202.817 134.659H190.586V135ZM183.452 135V86.9318H193.984V135H183.452Z" fill="white"/>
<path d="M249.696 135.682C246.299 135.682 243.241 135 240.523 133.296C237.806 131.591 235.767 129.546 234.069 127.159C232.37 124.432 231.69 121.705 231.69 118.296C231.69 114.887 232.37 112.159 234.069 109.432C235.767 106.705 237.806 104.659 240.523 103.296C243.241 101.591 246.299 100.909 249.696 100.909C253.093 100.909 256.151 101.591 258.869 103.296C261.586 104.659 263.625 106.705 265.323 109.432C267.022 112.159 267.701 114.887 267.701 118.296C267.701 121.705 267.022 124.432 265.323 127.159C263.625 129.887 261.586 131.932 258.869 133.296C256.151 135 253.093 135.682 249.696 135.682ZM249.696 126.137C251.055 126.137 252.414 125.796 253.773 125.114C254.792 124.432 255.811 123.409 256.49 122.387C257.17 121.023 257.51 119.659 257.51 118.296C257.51 116.932 257.17 115.569 256.49 114.205C255.811 113.182 255.132 112.159 253.773 111.478C252.753 110.796 251.395 110.455 250.036 110.455C248.677 110.455 247.318 110.796 246.299 111.478C245.279 112.159 244.26 113.182 243.581 114.205C242.901 115.228 242.562 116.591 242.562 118.296C242.562 119.659 242.901 121.023 243.581 122.387C244.26 123.409 244.94 124.432 246.299 125.114C246.978 125.796 248.337 126.137 249.696 126.137Z" fill="white"/>
<path d="M272.803 135V101.932H283.334V135H272.803ZM293.866 135V115.569C293.866 113.864 293.186 112.5 292.167 111.819C291.148 110.796 289.789 110.455 288.43 110.455C287.411 110.455 286.392 110.796 285.712 111.137C285.033 111.478 284.353 112.159 283.674 112.841C283.334 113.523 282.995 114.546 282.995 115.569L278.918 113.864C278.918 111.137 279.597 109.091 280.616 107.046C281.636 105 283.334 103.637 285.373 102.614C287.411 101.591 289.449 100.909 291.827 100.909C294.205 100.909 296.244 101.591 297.942 102.614C299.641 103.637 301.34 105 302.359 107.046C303.378 109.091 304.058 111.137 304.058 113.864V135H293.866ZM315.268 135V115.569C315.268 113.864 314.589 112.5 313.57 111.819C312.551 110.796 311.192 110.455 309.833 110.455C308.814 110.455 307.795 110.796 307.115 111.137C306.436 111.478 305.756 112.159 305.077 112.841C304.737 113.523 304.397 114.546 304.397 115.569L298.282 114.887C298.282 112.159 298.962 109.773 300.321 107.728C301.679 105.682 303.378 103.978 305.416 102.955C307.455 101.932 309.833 101.25 312.551 101.25C314.929 101.25 317.307 101.932 319.345 102.955C321.384 103.978 322.742 105.682 324.101 107.387C325.121 109.432 325.8 111.819 325.8 114.546V135H315.268Z" fill="white"/>
<path d="M345.84 135.682C342.782 135.682 340.064 135 337.686 133.296C335.308 131.932 333.61 129.887 331.911 127.159C330.552 124.432 329.873 121.705 329.873 118.296C329.873 114.887 330.552 112.159 331.911 109.432C333.27 106.705 335.308 104.659 337.686 103.296C340.064 101.932 342.782 100.909 345.84 100.909C348.218 100.909 349.916 101.25 351.955 102.273C353.653 103.296 355.352 104.319 356.371 106.023C357.39 107.387 358.07 109.091 358.41 111.137V125.455C358.41 127.5 357.73 129.205 356.371 130.569C355.352 131.932 353.993 133.296 351.955 133.978C350.256 135.341 348.218 135.682 345.84 135.682ZM348.218 126.137C350.596 126.137 352.294 125.455 353.653 124.091C355.012 122.728 355.692 120.682 355.692 118.296C355.692 116.591 355.352 115.228 354.673 114.205C353.993 113.182 353.314 112.159 351.955 111.478C350.936 110.796 349.577 110.455 348.218 110.455C346.859 110.455 345.5 110.796 344.481 111.478C343.462 112.159 342.442 113.182 341.763 114.205C341.084 115.228 340.744 116.591 340.744 118.296C340.744 119.659 341.084 121.023 341.763 122.387C342.442 123.409 343.122 124.432 344.481 125.114C345.5 125.796 346.519 126.137 348.218 126.137ZM355.012 135V126.137L356.711 117.955L355.012 109.773V101.591H365.204V134.659H355.012V135Z" fill="white"/>
<path d="M372.679 135V101.932H383.211V135H372.679ZM377.775 97.1591C376.077 97.1591 374.718 96.4773 373.699 95.4545C372.679 94.4318 372 93.0682 372 91.3636C372 89.6591 372.679 88.2955 373.699 87.2727C374.718 86.25 376.077 85.5682 377.775 85.5682C379.474 85.5682 380.833 86.25 381.852 87.2727C382.871 88.2955 383.551 89.6591 383.551 91.3636C383.551 93.0682 382.871 94.4318 381.852 95.4545C380.833 96.8182 379.474 97.1591 377.775 97.1591Z" fill="white"/>
<path d="M412.089 135V115.909C412.089 114.205 411.409 112.841 410.39 111.819C409.371 110.796 408.012 110.114 406.314 110.114C405.294 110.114 404.275 110.455 403.256 110.796C402.237 111.137 401.557 111.819 401.218 112.841C400.878 113.864 400.538 114.546 400.538 115.909L396.461 113.864C396.461 111.137 397.141 109.091 398.16 107.046C399.179 105 400.878 103.637 402.916 102.614C404.955 101.591 407.333 100.909 409.711 100.909C412.089 100.909 414.467 101.591 416.166 102.614C418.204 103.637 419.563 105.341 420.582 107.046C421.601 108.75 422.281 111.137 422.281 113.182V134.319H412.089V135ZM390.346 135V101.932H400.878V135H390.346Z" fill="white"/>
<path d="M441.304 135.682C439.266 135.682 437.567 135.341 435.529 135C433.83 134.659 431.792 133.636 430.433 132.955C428.734 131.932 427.375 130.909 426.356 129.545L432.132 123.409C433.151 124.432 434.51 125.455 435.869 126.136C437.227 126.818 438.926 127.159 440.625 127.159C441.984 127.159 442.663 126.818 443.343 126.477C444.022 126.136 444.362 125.455 444.362 125.114C444.362 124.432 444.022 123.75 443.003 123.409C442.323 123.068 441.304 122.727 439.945 122.386C438.586 122.045 437.567 121.705 436.208 121.364C434.849 121.023 433.49 120.341 432.471 119.659C431.112 118.977 430.093 117.955 429.414 116.591C428.734 115.227 428.395 113.523 428.395 111.477C428.395 109.432 429.074 107.386 430.093 106.023C431.112 104.318 432.811 103.295 434.849 102.273C436.888 101.25 439.266 100.909 441.984 100.909C444.701 100.909 447.419 101.25 449.797 102.273C452.175 103.295 454.214 104.659 455.573 106.705L449.797 112.841C448.778 111.477 447.419 110.795 446.4 110.114C445.041 109.773 444.022 109.432 442.663 109.432C441.644 109.432 440.625 109.773 439.945 110.114C439.266 110.455 438.926 110.795 438.926 111.477C438.926 112.159 439.266 112.841 439.945 113.182C440.625 113.523 441.644 113.864 443.003 114.205C444.362 114.545 445.381 114.886 446.74 115.227C448.099 115.568 449.458 116.25 450.477 116.932C451.496 117.614 452.855 118.636 453.534 120C454.214 121.364 454.553 123.068 454.553 125.114C454.553 128.182 453.195 130.909 450.816 132.955C448.778 134.659 445.381 135.682 441.304 135.682Z" fill="white"/>
</g>
<defs>
<clipPath id="clip0_31_1266">
<rect width="496" height="150" fill="white"/>
</clipPath>
</defs>
</svg>
