<svg viewBox="0 0 1160 1160" fill="none" xmlns="http://www.w3.org/2000/svg">
<g clip-path="url(#clip0_1_118)">
<path fill-rule="evenodd" clip-rule="evenodd" d="M1160.19 580L1156.69 579.85L1146.29 578.824L1129.3 576.07L1106.16 570.807L1077.54 562.369L1044.22 550.212L1007.09 533.934L967.135 513.318L925.407 488.309L882.951 459.065L840.795 425.904L799.923 389.33L761.207 350.002L725.435 308.715L693.206 266.389L665.002 224.015L641.088 182.633L621.56 143.292L606.343 107.023L595.158 74.794L587.569 47.4738L583.007 25.8243L580.756 10.4372L580.029 1.74746L579.968 0L579.682 5.23558L578.295 17.3182L574.984 35.9011L568.987 60.4675L559.664 90.3443L546.508 124.716L529.162 162.643L507.438 203.134L481.355 245.147L451.091 287.624L417.026 329.549L379.69 369.958L339.797 408.001L298.164 442.943L255.729 474.201L213.504 501.358L172.531 524.177L133.869 542.603L98.5189 556.787L67.4386 567.027L41.4715 573.799L21.3384 577.709L7.59666 579.504L0.620422 579.98V580.02L7.59666 580.496L21.3384 582.291L41.4715 586.201L67.4386 592.973L98.5189 603.213L133.869 617.397L172.531 635.823L213.504 658.642L255.729 685.799L298.164 717.057L339.797 751.999L379.69 790.042L417.026 830.451L451.091 872.376L481.355 914.853L507.438 956.866L529.162 997.357L546.508 1035.28L559.664 1069.66L568.987 1099.53L574.984 1124.1L578.295 1142.68L579.682 1154.76L579.968 1160L580.029 1158.25L580.756 1149.56L583.007 1134.18L587.569 1112.53L595.158 1085.21L606.343 1052.98L621.56 1016.71L641.088 977.367L665.002 935.985L693.206 893.611L725.435 851.285L761.207 809.998L799.923 770.67L840.795 734.096L882.951 700.935L925.407 671.691L967.135 646.682L1007.09 626.066L1044.22 609.788L1077.54 597.631L1106.16 589.193L1129.3 583.93L1146.29 581.176L1156.69 580.15L1160.19 580Z" fill="#E4CCEC"/>
<path fill-rule="evenodd" clip-rule="evenodd" d="M1082.45 580L1079.42 579.87L1070.42 578.981L1055.7 576.596L1035.67 572.039L1010.88 564.731L982.022 554.202L949.865 540.105L915.264 522.251L879.126 500.594L842.359 475.267L805.85 446.549L770.454 414.875L736.925 380.816L705.946 345.061L678.034 308.405L653.609 271.708L632.899 235.87L615.987 201.799L602.809 170.39L593.122 142.479L586.551 118.819L582.599 100.07L580.65 86.744L580.02 79.2185L579.967 77.7052L579.72 82.2393L578.519 92.7032L575.651 108.796L570.457 130.072L562.384 155.946L550.99 185.712L535.968 218.558L517.155 253.624L494.566 290.009L468.357 326.795L438.855 363.103L406.522 398.098L371.974 431.045L335.918 461.306L299.168 488.375L262.601 511.894L227.117 531.655L193.635 547.613L163.02 559.897L136.104 568.765L113.616 574.63L96.1801 578.016L84.2794 579.57L78.2378 579.982V580.018L84.2794 580.43L96.1801 581.984L113.616 585.37L136.104 591.235L163.02 600.103L193.635 612.387L227.117 628.345L262.601 648.106L299.168 671.625L335.918 698.694L371.974 728.955L406.522 761.902L438.855 796.897L468.357 833.205L494.566 869.991L517.155 906.376L535.968 941.442L550.99 974.288L562.384 1004.05L570.457 1029.93L575.651 1051.2L578.519 1067.3L579.72 1077.76L579.967 1082.29L580.02 1080.78L580.65 1073.26L582.599 1059.93L586.551 1041.18L593.122 1017.52L602.809 989.61L615.987 958.201L632.899 924.13L653.609 888.292L678.034 851.595L705.946 814.939L736.925 779.184L770.454 745.125L805.85 713.451L842.359 684.733L879.126 659.406L915.264 637.748L949.865 619.895L982.022 605.797L1010.88 595.269L1035.67 587.961L1055.7 583.404L1070.42 581.019L1079.42 580.13L1082.45 580Z" fill="#D2AAE0"/>
<path fill-rule="evenodd" clip-rule="evenodd" d="M1015.13 580L1012.51 579.888L1004.71 579.118L991.964 577.052L974.615 573.105L953.151 566.777L928.157 557.659L900.309 545.45L870.343 529.988L839.047 511.232L807.205 489.299L775.588 464.428L744.934 436.997L715.897 407.501L689.068 376.537L664.896 344.792L643.743 313.011L625.808 281.975L611.162 252.469L599.749 225.268L591.36 201.095L585.669 180.605L582.247 164.368L580.559 152.828L580.014 146.311L579.968 145L579.754 148.927L578.713 157.989L576.23 171.926L571.732 190.351L564.74 212.758L554.873 238.537L541.864 266.982L525.57 297.35L506.008 328.861L483.31 360.718L457.761 392.162L429.759 422.469L399.84 451.001L368.615 477.208L336.789 500.65L305.12 521.018L274.39 538.132L245.394 551.952L218.881 562.59L195.571 570.27L176.096 575.349L160.996 578.281L150.689 579.628L145.457 579.985V580.015L150.689 580.372L160.996 581.719L176.096 584.651L195.571 589.73L218.881 597.41L245.394 608.048L274.39 621.868L305.12 638.982L336.789 659.35L368.615 682.792L399.84 708.999L429.759 737.531L457.761 767.838L483.31 799.282L506.008 831.139L525.57 862.65L541.864 893.018L554.873 921.463L564.74 947.242L571.732 969.649L576.23 988.074L578.713 1002.01L579.754 1011.07L579.968 1015L580.014 1013.69L580.559 1007.17L582.247 995.632L585.669 979.395L591.36 958.905L599.749 934.732L611.162 907.531L625.808 878.025L643.743 846.989L664.896 815.208L689.068 783.463L715.897 752.499L744.934 723.003L775.588 695.572L807.205 670.701L839.047 648.768L870.343 630.012L900.309 614.55L928.157 602.341L953.151 593.223L974.615 586.895L991.964 582.948L1004.71 580.882L1012.51 580.112L1015.13 580Z" fill="#C188D3"/>
<path fill-rule="evenodd" clip-rule="evenodd" d="M956.83 580L954.56 579.903L947.807 579.236L936.766 577.447L921.742 574.029L903.153 568.548L881.509 560.652L857.391 550.079L831.44 536.689L804.337 520.445L776.761 501.45L749.38 479.912L722.833 456.156L697.686 430.612L674.452 403.795L653.518 376.303L635.199 348.781L619.666 321.903L606.983 296.349L597.099 272.793L589.834 251.859L584.905 234.114L581.942 220.052L580.48 210.058L580.007 204.414L579.968 203.279L579.782 206.679L578.881 214.527L576.73 226.597L572.835 242.554L566.78 261.959L558.235 284.284L546.969 308.918L532.858 335.218L515.917 362.507L496.26 390.096L474.134 417.327L449.883 443.574L423.973 468.283L396.931 490.979L369.369 511.281L341.943 528.92L315.33 543.741L290.218 555.71L267.258 564.922L247.07 571.573L230.204 575.972L217.127 578.512L208.202 579.677L203.671 579.987V580.013L208.202 580.322L217.127 581.488L230.204 584.028L247.07 588.426L267.258 595.077L290.218 604.29L315.33 616.258L341.943 631.08L369.369 648.719L396.931 669.021L423.973 691.716L449.883 716.426L474.134 742.673L496.26 769.904L515.917 797.493L532.858 824.782L546.969 851.081L558.235 875.716L566.78 898.041L572.835 917.446L576.73 933.403L578.881 945.472L579.782 953.32L579.968 956.721L580.007 955.586L580.48 949.942L581.942 939.948L584.905 925.886L589.834 908.141L597.099 887.207L606.983 863.65L619.666 838.097L635.199 811.219L653.518 783.696L674.452 756.204L697.686 729.388L722.833 703.844L749.38 680.088L776.761 658.549L804.337 639.555L831.44 623.311L857.391 609.921L881.509 599.348L903.153 591.452L921.742 585.971L936.766 582.553L947.807 580.764L954.56 580.097L956.83 580Z" fill="#AF66C7"/>
<path fill-rule="evenodd" clip-rule="evenodd" d="M906.34 580L904.374 579.916L898.526 579.338L888.965 577.789L875.953 574.829L859.855 570.083L841.11 563.244L820.224 554.088L797.75 542.491L774.278 528.424L750.396 511.974L726.683 493.321L703.693 472.748L681.915 450.626L661.793 427.402L643.664 403.594L627.8 379.758L614.348 356.481L603.364 334.352L594.804 313.951L588.512 295.822L584.244 280.454L581.678 268.276L580.412 259.621L580.002 254.733L579.968 253.75L579.807 256.695L579.027 263.491L577.164 273.944L573.791 287.763L568.547 304.569L561.147 323.902L551.39 345.237L539.17 368.013L524.498 391.645L507.475 415.538L488.313 439.121L467.312 461.851L444.872 483.251L421.454 502.906L397.584 520.488L373.832 535.764L350.785 548.599L329.038 558.964L309.153 566.943L291.67 572.702L277.064 576.512L265.739 578.711L258.009 579.721L254.085 579.989V580.011L258.009 580.279L265.739 581.289L277.064 583.488L291.67 587.298L309.153 593.057L329.038 601.036L350.785 611.401L373.832 624.236L397.584 639.512L421.454 657.094L444.872 676.749L467.312 698.149L488.313 720.879L507.475 744.462L524.498 768.355L539.17 791.987L551.39 814.763L561.147 836.097L568.547 855.431L573.791 872.237L577.164 886.056L579.027 896.508L579.807 903.305L579.968 906.25L580.002 905.267L580.412 900.379L581.678 891.724L584.244 879.546L588.512 864.178L594.804 846.049L603.364 825.648L614.348 803.519L627.8 780.242L643.664 756.406L661.793 732.598L681.915 709.374L703.693 687.252L726.683 666.679L750.396 648.026L774.278 631.576L797.75 617.509L820.224 605.912L841.11 596.756L859.855 589.917L875.953 585.171L888.965 582.211L898.526 580.662L904.374 580.084L906.34 580Z" fill="#9D44BB"/>
<path fill-rule="evenodd" clip-rule="evenodd" d="M862.614 580L860.911 579.927L855.847 579.427L847.566 578.086L836.298 575.522L822.357 571.411L806.123 565.489L788.035 557.559L768.572 547.516L748.244 535.334L727.562 521.088L707.026 504.934L687.116 487.117L668.256 467.959L650.83 447.847L635.13 427.228L621.391 406.586L609.741 386.427L600.228 367.262L592.816 349.595L587.367 333.894L583.67 320.586L581.448 310.039L580.351 302.544L579.997 298.31L579.967 297.459L579.828 300.01L579.152 305.896L577.539 314.948L574.618 326.915L570.077 341.469L563.668 358.213L555.218 376.689L544.635 396.414L531.929 416.88L517.186 437.572L500.592 457.995L482.404 477.68L462.971 496.213L442.69 513.234L422.018 528.461L401.449 541.69L381.489 552.806L362.655 561.782L345.435 568.692L330.294 573.68L317.645 576.979L307.837 578.884L301.143 579.758L297.744 579.99V580.01L301.143 580.242L307.837 581.116L317.645 583.021L330.294 586.32L345.435 591.308L362.655 598.218L381.489 607.194L401.449 618.31L422.018 631.539L442.69 646.766L462.971 663.787L482.404 682.32L500.592 702.005L517.186 722.428L531.929 743.12L544.635 763.586L555.218 783.311L563.668 801.787L570.077 818.531L574.618 833.085L577.539 845.052L579.152 854.104L579.828 859.99L579.967 862.541L579.997 861.69L580.351 857.456L581.448 849.961L583.67 839.414L587.367 826.106L592.816 810.406L600.228 792.738L609.741 773.573L621.391 753.414L635.13 732.772L650.83 712.153L668.256 692.041L687.116 672.883L707.026 655.066L727.562 638.912L748.244 624.666L768.572 612.484L788.035 602.441L806.123 594.511L822.357 588.589L836.298 584.478L847.566 581.914L855.847 580.573L860.911 580.073L862.614 580Z" fill="#803899"/>
<path fill-rule="evenodd" clip-rule="evenodd" d="M824.748 580L823.273 579.937L818.887 579.504L811.716 578.342L801.957 576.122L789.884 572.562L775.825 567.433L760.16 560.566L743.305 551.868L725.701 541.318L707.79 528.981L690.005 514.991L672.762 499.561L656.429 482.969L641.337 465.552L627.741 447.695L615.842 429.819L605.753 412.361L597.515 395.764L591.095 380.463L586.377 366.866L583.175 355.34L581.251 346.207L580.301 339.716L579.994 336.05L579.968 335.312L579.848 337.521L579.263 342.619L577.866 350.458L575.336 360.822L571.403 373.427L565.852 387.927L558.535 403.927L549.37 421.009L538.366 438.734L525.598 456.654L511.227 474.341L495.476 491.389L478.646 507.438L461.083 522.179L443.18 535.366L425.367 546.823L408.081 556.449L391.771 564.223L376.857 570.207L363.745 574.527L352.79 577.384L344.297 579.033L338.499 579.791L335.556 579.991V580.009L338.499 580.209L344.297 580.967L352.79 582.616L363.745 585.473L376.857 589.793L391.771 595.777L408.081 603.551L425.367 613.177L443.18 624.634L461.083 637.821L478.646 652.562L495.476 668.611L511.227 685.659L525.598 703.346L538.366 721.266L549.37 738.991L558.535 756.073L565.852 772.073L571.403 786.573L575.336 799.178L577.866 809.542L579.263 817.381L579.848 822.479L579.968 824.688L579.994 823.95L580.301 820.284L581.251 813.793L583.175 804.659L586.377 793.134L591.095 779.537L597.515 764.236L605.753 747.639L615.842 730.181L627.741 712.305L641.337 694.448L656.429 677.03L672.762 660.439L690.005 645.009L707.79 631.019L725.701 618.682L743.305 608.132L760.16 599.434L775.825 592.567L789.884 587.438L801.957 583.878L811.716 581.658L818.887 580.496L823.273 580.063L824.748 580Z" fill="#642C77"/>
<path fill-rule="evenodd" clip-rule="evenodd" d="M791.953 580L790.676 579.945L786.878 579.57L780.667 578.564L772.216 576.641L761.76 573.559L749.585 569.117L736.018 563.17L721.421 555.637L706.176 546.501L690.664 535.816L675.262 523.7L660.33 510.338L646.184 495.969L633.115 480.885L621.34 465.421L611.035 449.939L602.298 434.82L595.164 420.447L589.604 407.196L585.518 395.421L582.745 385.439L581.078 377.53L580.256 371.908L579.99 368.733L579.968 368.094L579.864 370.007L579.357 374.422L578.147 381.211L575.956 390.187L572.55 401.102L567.743 413.66L561.406 427.517L553.469 442.31L543.939 457.66L532.882 473.179L520.436 488.497L506.795 503.26L492.221 517.16L477.01 529.926L461.506 541.346L446.079 551.268L431.109 559.605L416.984 566.337L404.068 571.519L392.713 575.26L383.226 577.734L375.87 579.163L370.85 579.819L368.301 579.993V580.008L370.85 580.181L375.87 580.837L383.226 582.266L392.713 584.74L404.068 588.481L416.984 593.663L431.109 600.395L446.079 608.732L461.506 618.654L477.01 630.074L492.221 642.841L506.795 656.74L520.436 671.503L532.882 686.821L543.939 702.34L553.469 717.69L561.406 732.483L567.743 746.34L572.55 758.898L575.956 769.814L578.147 778.789L579.357 785.578L579.864 789.993L579.968 791.906L579.99 791.267L580.256 788.092L581.078 782.471L582.745 774.561L585.518 764.579L589.604 752.804L595.164 739.553L602.298 725.18L611.035 710.061L621.34 694.579L633.115 679.115L646.184 664.031L660.33 649.662L675.262 636.3L690.664 624.184L706.176 613.5L721.421 604.363L736.018 596.831L749.585 590.883L761.76 586.442L772.216 583.359L780.667 581.436L786.878 580.43L790.676 580.055L791.953 580Z" fill="#471F55"/>
<path fill-rule="evenodd" clip-rule="evenodd" d="M763.551 580L762.446 579.953L759.156 579.628L753.778 578.757L746.459 577.091L737.403 574.421L726.859 570.575L715.111 565.424L702.469 558.901L689.266 550.989L675.833 541.735L662.494 531.243L649.562 519.671L637.312 507.227L625.994 494.164L615.796 480.771L606.872 467.364L599.306 454.271L593.127 441.823L588.312 430.347L584.773 420.15L582.372 411.505L580.929 404.655L580.216 399.787L579.986 397.037L579.967 396.484L579.877 398.141L579.438 401.964L578.39 407.844L576.492 415.617L573.543 425.07L569.38 435.945L563.892 447.946L557.018 460.757L548.765 474.051L539.189 487.49L528.411 500.756L516.598 513.541L503.976 525.578L490.803 536.634L477.376 546.524L464.016 555.117L451.051 562.337L438.819 568.167L427.634 572.655L417.8 575.895L409.583 578.038L403.213 579.275L398.865 579.843L396.658 579.994V580.006L398.865 580.157L403.213 580.725L409.583 581.962L417.8 584.105L427.634 587.345L438.819 591.833L451.051 597.663L464.016 604.883L477.376 613.476L490.803 623.366L503.976 634.422L516.598 646.459L528.411 659.244L539.189 672.51L548.765 685.949L557.018 699.243L563.892 712.054L569.38 724.055L573.543 734.93L576.492 744.383L578.39 752.156L579.438 758.036L579.877 761.859L579.967 763.516L579.986 762.963L580.216 760.213L580.929 755.345L582.372 748.495L584.773 739.85L588.312 729.653L593.127 718.177L599.306 705.729L606.872 692.636L615.796 679.229L625.994 665.836L637.312 652.773L649.562 640.329L662.494 628.757L675.833 618.265L689.266 609.011L702.469 601.099L715.111 594.576L726.859 589.425L737.403 585.579L746.459 582.909L753.778 581.243L759.156 580.372L762.446 580.047L763.551 580Z" fill="#2B1333"/>
<path fill-rule="evenodd" clip-rule="evenodd" d="M738.957 580L737.999 579.959L735.15 579.678L730.492 578.923L724.154 577.481L716.312 575.169L707.18 571.838L697.006 567.377L686.058 561.728L674.624 554.875L662.99 546.862L651.438 537.775L640.239 527.753L629.63 516.977L619.828 505.664L610.997 494.066L603.268 482.454L596.716 471.115L591.365 460.335L587.195 450.397L584.13 441.566L582.051 434.079L580.801 428.147L580.184 423.931L579.985 421.55L579.968 421.071L579.89 422.505L579.509 425.816L578.602 430.908L576.959 437.64L574.404 445.827L570.799 455.245L566.046 465.638L560.093 476.733L552.946 488.245L544.653 499.884L535.319 511.372L525.088 522.445L514.157 532.87L502.749 542.444L491.121 551.009L479.551 558.451L468.324 564.703L457.73 569.753L448.043 573.639L439.527 576.445L432.411 578.301L426.894 579.372L423.129 579.864L421.217 579.994V580.006L423.129 580.136L426.894 580.628L432.411 581.699L439.527 583.555L448.043 586.361L457.73 590.247L468.324 595.297L479.551 601.549L491.121 608.991L502.749 617.556L514.157 627.13L525.088 637.555L535.319 648.628L544.653 660.116L552.946 671.755L560.093 683.267L566.046 694.362L570.799 704.755L574.404 714.173L576.959 722.36L578.602 729.092L579.509 734.184L579.89 737.495L579.968 738.929L579.985 738.45L580.184 736.069L580.801 731.853L582.051 725.921L584.13 718.434L587.195 709.603L591.365 699.665L596.716 688.885L603.268 677.546L610.997 665.934L619.828 654.336L629.63 643.023L640.239 632.247L651.438 622.225L662.99 613.138L674.624 605.125L686.058 598.272L697.006 592.623L707.18 588.162L716.312 584.831L724.154 582.519L730.492 581.077L735.15 580.322L737.999 580.041L738.957 580Z" fill="#0E0611"/>
</g>
<defs>
<clipPath id="clip0_1_118">
<rect width="1160" height="1160" fill="white"/>
</clipPath>
</defs>
</svg>
