<svg version="1.1" id="Layer_1" xmlns="http://www.w3.org/2000/svg" xmlns:xlink="http://www.w3.org/1999/xlink" x="0px" y="0px"
	 viewBox="0 0 435.9 130.5" style="enable-background:new 0 0 435.9 130.5;" xml:space="preserve">
<style type="text/css">
	.st0{fill:#ED6E1D;}
	.st1{fill:#333333;}
</style>
<path class="st0" d="M130.5,0H0v130.5h130.5V0z M35.8,35.8h58.9v58.9H35.8V35.8z"/>
<g>
	<path class="st1" d="M242.7,88.7c-6.3,9-14.7,13-27.1,13c-18.8,0-30.9-13.8-30.9-31.2c0-16.1,11.7-31,30.7-31
		c18.7,0,31.4,13.3,31.4,32c0,1.3-0.1,2-0.1,3.3H199c1.4,8.8,8.1,13.7,16.6,13.7c6.3,0,10.6-1.8,14.7-5.8L242.7,88.7z M231.8,63.2
		c-2-6.9-8.3-11.1-16.2-11.1c-7.3,0-13,3.7-15.9,11.1H231.8z"/>
	<path class="st1" d="M253.3,100.2V24.4l14.8-6.2v29.3c5.3-5.3,11.5-8,18.6-8c15.2,0,27.9,12.7,27.9,31.2c0,18.1-13.2,31-28.3,31
		c-7.5,0-12.9-2.7-18.2-7.8L253.3,100.2z M268.8,70.5c0,10.7,7.1,17.7,16.2,17.7c9.2,0,16-7.4,16-17.6c0-9.7-6.2-17.5-16-17.5
		C275.6,53.1,268.8,60.1,268.8,70.5z"/>
	<path class="st1" d="M380.3,70.6c0,17.1-13.2,31.2-31.3,31.2c-17.1,0-30.7-13.7-30.7-31c0-17.9,14.5-31.2,30.6-31.2
		C366.1,39.5,380.3,53.1,380.3,70.6z M333.2,70.6c0,10,6.3,17.1,15.9,17.1c9.1,0,16.2-6.7,16.2-17c0-10-6.6-17.1-16.2-17.1
		C339.9,53.6,333.2,60.8,333.2,70.6z"/>
	<path class="st1" d="M375.8,41.1H393l11.6,16.1l11.7-16.1h17.1L413.1,69l22.7,31.2h-17.1l-14.1-19.4l-13.9,19.4h-17L396,69
		L375.8,41.1z"/>
</g>
</svg>
