<svg width="571" height="150" viewBox="0 0 571 150" fill="none" xmlns="http://www.w3.org/2000/svg">
<g clip-path="url(#clip0_31_1308)">
<path d="M356.464 3.48389H330.665V145.855H410.396V120.132H356.464V3.48389Z" fill="white"/>
<path d="M566.756 87.9434C563.762 82.7123 559.542 78.1676 554.495 74.8561C549.715 71.7225 544.325 69.714 538.973 67.7881C533.704 65.894 528.486 63.86 523.248 61.8832L523.166 61.8578C512.513 58.6226 505.083 55.5208 501.085 52.6414C497.277 49.9083 495.421 46.2663 495.421 41.5182C495.421 36.5032 497.239 32.6387 500.989 29.7022C504.784 26.7339 509.951 25.2275 516.358 25.2275C529.802 25.2275 539.132 31.4565 544.885 44.2704L545.469 45.5734L566.248 30.662C561.582 20.7909 555.417 14.1297 546.766 8.49814C538.103 2.86026 527.869 0 516.352 0C503.576 0 492.485 3.80732 483.396 11.3075C474.236 18.8777 469.59 29.2382 469.59 42.1157C469.59 48.618 470.791 54.3894 473.156 59.2518C475.533 64.1524 479.181 68.2966 483.999 71.5763C488.709 74.7862 493.292 77.2333 497.608 78.835L513.841 84.867L513.918 84.8924C525.753 88.4709 534.086 91.7761 538.687 94.719C543.054 97.5157 545.177 101.476 545.177 106.834C545.177 111.97 543.194 116.025 539.107 119.222C534.982 122.451 528.619 124.084 520.197 124.084C502.858 124.084 491.576 116.063 486.071 100.592L464.708 115.929C468.675 125.966 475.139 133.873 484.222 139.797C493.889 146.102 505.788 149.305 519.587 149.305C534.772 149.305 547.256 145.435 556.675 137.801C566.178 130.097 570.996 119.527 570.996 106.382C571.008 99.8039 570.055 93.702 566.756 87.9434Z" fill="white"/>
<path d="M65.0867 102.5C65.0867 114.538 55.2665 124.327 43.1962 124.327C32.9629 124.327 23.9562 116.934 21.7761 106.752L21.6617 106.212L0 121.721L0.127123 121.994C8.03414 138.571 24.9414 149.281 43.1962 149.281C69.4089 149.281 90.7401 128.013 90.7401 101.87V3.48389H65.0867V102.5Z" fill="white"/>
<path d="M107.902 3.48389V145.855H133.631L179.853 112.663L162.1 93.7282L133.631 114.176V41.1058L207.464 119.865H242.728L133.631 3.48389H107.902Z" fill="white"/>
<path d="M241.552 36.6756L259.298 55.6041L287.773 35.1565V108.233L213.941 29.4741H178.67L287.773 145.855H313.503V3.48389H287.773L241.552 36.6756Z" fill="white"/>
<path d="M453.231 3.48389H427.558V145.855H453.231V3.48389Z" fill="white"/>
</g>
<defs>
<clipPath id="clip0_31_1308">
<rect width="570.996" height="149.03" fill="white"/>
</clipPath>
</defs>
</svg>
