<svg width="644" height="119" viewBox="0 0 644 119" fill="none" xmlns="http://www.w3.org/2000/svg">
<path d="M254.645 0.160156H237.402V94.0942H254.645V0.160156Z" fill="white"/>
<path d="M262.617 94.094H279.861V0L262.617 0.160004V94.094Z" fill="white"/>
<path d="M521.749 27.9661C512.062 27.9661 504.253 32.2371 498.321 40.7791V28.8821H481.059V94.0941H498.321V73.0511C498.321 54.4131 506.074 45.0941 521.58 45.0941H525.37L525.771 37.8781L526.322 28.4731C524.833 28.0701 523.29 27.8981 521.749 27.9661Z" fill="white"/>
<path d="M578.4 72.9624C578.237 70.9924 577.744 69.0644 576.941 67.2584C576.878 67.1164 576.843 66.9474 576.781 66.8054C576.126 65.2764 575.254 63.8494 574.191 62.5694C571.264 59.3044 567.073 57.0614 561.45 55.8344L545.914 52.4084C541.987 51.5364 540.027 49.7064 540.033 46.9184C540.031 46.0594 540.218 45.2104 540.579 44.4314C540.94 43.6524 541.467 42.9614 542.124 42.4074C543.521 41.1434 545.781 40.5124 548.922 40.5124C551.971 40.3804 554.979 41.2554 557.481 43.0034C558.545 43.7594 559.438 44.7304 560.102 45.8544C560.766 46.9784 561.186 48.2284 561.334 49.5254L577.804 46.2684C577.25 43.4354 576.138 40.7394 574.535 38.3384C572.931 35.9374 570.867 33.8784 568.461 32.2814C563.36 28.7224 557.022 26.9424 549.447 26.9424C541.344 26.9424 534.875 28.9474 530.041 32.9574C528.371 34.3674 526.941 36.0384 525.805 37.9054C524.421 40.0974 523.512 42.5554 523.136 45.1214C522.94 46.2414 522.827 47.3744 522.798 48.5114C522.746 50.7124 523.142 52.9004 523.962 54.9444C524.782 56.9874 526.008 58.8434 527.567 60.3984C530.752 63.6314 535.308 65.8554 541.234 67.0714L554.581 69.8124C559.38 70.8504 561.776 72.8114 561.77 75.6934C561.762 76.6494 561.505 77.5854 561.025 78.4114C560.544 79.2364 559.856 79.9224 559.03 80.4004C556.781 81.7304 554.191 82.3674 551.582 82.2334C543.39 82.2334 538.903 79.2674 538.12 73.3354L520.734 76.8954C521.003 79.8884 522.003 82.7694 523.644 85.2864C525.285 87.8044 527.518 89.8814 530.147 91.3364C535.622 94.5094 542.216 96.0964 549.927 96.0964C558.647 96.0964 565.596 94.2254 570.775 90.4824C575.873 86.7984 578.436 81.4774 578.525 74.5904C578.56 74.4304 578.462 73.3714 578.4 72.9624Z" fill="white"/>
<path d="M201.312 26.916H201.099C192.293 26.972 183.866 30.509 177.659 36.755C171.451 43.002 167.966 51.45 167.963 60.256C167.963 60.478 168.026 60.692 168.026 60.914C168.026 61.137 167.972 61.279 167.972 61.466C167.972 80.56 182.903 96.034 201.312 96.034C207.053 95.998 212.684 94.461 217.648 91.577C222.611 88.693 226.734 84.56 229.607 79.591L214.801 74.172C213.19 76.216 211.143 77.875 208.809 79.028C206.476 80.18 203.915 80.798 201.312 80.836C194.256 80.836 188.188 76.459 185.198 70.159C190.53 71.013 195.921 71.445 201.321 71.449C203.154 71.449 204.951 71.333 206.758 71.236C210.317 71.031 213.822 70.72 217.275 70.186C222.992 69.297 228.628 67.946 234.127 66.146C234.419 64.456 234.579 62.745 234.608 61.03C234.608 60.781 234.679 60.54 234.679 60.282C234.679 55.901 233.816 51.562 232.139 47.514C230.462 43.465 228.004 39.787 224.906 36.689C221.808 33.59 218.129 31.133 214.081 29.456C210.033 27.779 205.694 26.916 201.312 26.916ZM201.312 56.225C195.975 56.225 190.653 55.649 185.439 54.508C186.557 50.783 188.851 47.521 191.978 45.21C193.001 44.466 194.102 43.837 195.262 43.332C195.894 43.075 196.542 42.858 197.201 42.683C197.682 42.549 198.18 42.514 198.67 42.425C199.551 42.26 200.443 42.165 201.339 42.14C202.235 42.167 203.127 42.262 204.008 42.425C204.471 42.514 204.96 42.549 205.414 42.674C206.093 42.851 206.759 43.074 207.407 43.341C208.569 43.849 209.67 44.484 210.69 45.236C213.789 47.548 216.055 50.801 217.15 54.508C211.948 55.647 206.638 56.222 201.312 56.225Z" fill="white"/>
<path d="M444.978 26.916H444.764C435.958 26.972 427.532 30.509 421.324 36.755C415.116 43.002 411.631 51.45 411.629 60.256C411.629 60.478 411.682 60.692 411.691 60.914C411.7 61.137 411.638 61.279 411.638 61.466C411.629 80.578 426.551 96.096 444.933 96.096C450.676 96.058 456.308 94.519 461.272 91.632C466.235 88.744 470.357 84.608 473.228 79.635L458.458 74.172C456.843 76.22 454.79 77.882 452.45 79.035C450.11 80.188 447.542 80.804 444.933 80.836C437.869 80.836 431.809 76.459 428.819 70.159C434.151 71.014 439.542 71.445 444.942 71.449C446.766 71.449 448.573 71.334 450.379 71.236C453.938 71.031 457.444 70.72 460.896 70.186C466.613 69.296 472.249 67.945 477.748 66.146C478.031 64.454 478.192 62.745 478.229 61.03C478.229 60.781 478.291 60.54 478.291 60.282C478.293 51.442 474.786 42.961 468.54 36.705C462.293 30.448 453.819 26.928 444.978 26.916ZM444.978 56.225C439.637 56.225 434.312 55.65 429.095 54.508C429.158 54.312 429.291 54.17 429.353 53.974C430.503 50.479 432.695 47.421 435.635 45.21C436.663 44.468 437.766 43.839 438.927 43.332C439.559 43.075 440.207 42.858 440.867 42.683C441.339 42.549 441.846 42.514 442.335 42.425C443.216 42.26 444.109 42.164 445.005 42.14C445.9 42.167 446.793 42.262 447.674 42.425C448.145 42.514 448.626 42.549 449.089 42.674C449.767 42.851 450.433 43.074 451.082 43.341C452.243 43.849 453.345 44.484 454.365 45.236C457.283 47.446 459.456 50.495 460.593 53.974C460.656 54.17 460.789 54.312 460.851 54.508C455.637 55.649 450.315 56.225 444.978 56.225Z" fill="white"/>
<path d="M609.747 26.916H609.533C600.727 26.972 592.301 30.509 586.093 36.755C579.885 43.002 576.4 51.45 576.398 60.256C576.398 60.478 576.451 60.692 576.46 60.914C576.469 61.137 576.407 61.279 576.407 61.466C576.407 80.56 591.328 96.034 609.747 96.034C615.482 95.988 621.106 94.447 626.063 91.563C631.02 88.68 635.14 84.553 638.015 79.591L623.209 74.172C621.598 76.216 619.551 77.875 617.217 79.028C614.884 80.18 612.323 80.798 609.72 80.836C602.655 80.836 596.596 76.459 593.606 70.159C598.935 71.013 604.323 71.445 609.72 71.449C611.553 71.449 613.359 71.333 615.166 71.236C618.725 71.031 622.23 70.72 625.683 70.186C631.4 69.296 637.036 67.945 642.535 66.146C642.818 64.454 642.979 62.745 643.016 61.03C643.016 60.781 643.078 60.54 643.078 60.282C643.08 51.439 639.571 42.956 633.32 36.699C627.07 30.442 618.591 26.923 609.747 26.916ZM609.747 56.225C604.409 56.225 599.087 55.649 593.873 54.508C593.936 54.312 594.069 54.17 594.131 53.974C594.863 51.61 596.096 49.433 597.747 47.59C599.398 45.747 601.427 44.283 603.696 43.297C604.332 43.04 604.983 42.823 605.645 42.647C606.117 42.514 606.624 42.478 607.113 42.389C607.994 42.224 608.887 42.129 609.782 42.104C610.678 42.132 611.57 42.227 612.452 42.389C612.923 42.478 613.404 42.514 613.867 42.638C614.545 42.815 615.211 43.038 615.86 43.306C617.021 43.813 618.123 44.449 619.143 45.201C622.061 47.411 624.234 50.459 625.371 53.938C625.434 54.134 625.567 54.276 625.629 54.472C620.414 55.626 615.089 56.214 609.747 56.225Z" fill="white"/>
<path d="M400.097 28.749L382.32 73.051L364.551 28.749H359.951L352.85 45.236L373.182 94.094H391.467L418.649 28.749H400.097Z" fill="white"/>
<path d="M334.494 28.749L331.291 36.169L316.743 69.794L316.076 71.992L308.735 51.749L302.284 36.169L299.214 28.749H280.004L307.018 92.003C304.446 99.121 300.585 101.719 292.39 101.719V118.109C296.962 118.407 301.549 117.802 305.888 116.33C313.148 113.767 318.781 108.419 323.052 99.531C323.158 99.299 323.256 99.032 323.363 98.801L349.745 37.842L353.669 28.758L334.494 28.749Z" fill="white"/>
<path d="M147.249 28.749V96.861C147.26 97.562 147.112 98.255 146.816 98.89C146.52 99.525 146.084 100.085 145.541 100.527C144.279 101.525 142.699 102.033 141.092 101.96C139.248 101.85 137.433 101.456 135.709 100.794C134.892 103.124 134.215 105.501 133.68 107.912L133.511 108.731C133.065 111.06 132.75 113.413 132.568 115.778C136.681 117.291 141.025 118.083 145.407 118.118C151.161 118.118 155.779 116.377 159.261 112.895C162.743 109.413 164.484 104.837 164.484 99.166V28.749H147.249Z" fill="white"/>
<path d="M123.403 61.8934C123.374 58.5534 123.077 55.2204 122.514 51.9274C122.433 51.4474 122.38 50.9584 122.291 50.4864C121.713 47.4634 120.907 44.4894 119.88 41.5884C119.684 41.0284 119.488 40.4854 119.275 39.9424C118.204 37.1024 116.919 34.3484 115.431 31.7034C115.2 31.2934 114.941 30.9114 114.71 30.5104C113.108 27.7804 111.303 25.1754 109.309 22.7164L109.122 22.5204C103.342 15.5514 96.097 9.94038 87.902 6.08838C79.708 2.23638 70.765 0.238378 61.71 0.234378C52.655 0.231378 43.711 2.22337 35.513 6.06937C27.316 9.91437 20.066 15.5194 14.281 22.4854L14.094 22.6804C12.098 25.1374 10.292 27.7434 8.693 30.4754C8.453 30.8754 8.195 31.2584 7.972 31.6674C6.485 34.3144 5.197 37.0684 4.12 39.9074C3.915 40.4494 3.719 40.9924 3.524 41.5534C2.492 44.4524 1.686 47.4274 1.112 50.4504C1.023 50.9224 0.969999 51.4114 0.889999 51.8924C0.321999 55.1844 0.025 58.5174 0 61.8574H0.0439987C0.0569987 65.5114 0.395998 69.1564 1.059 72.7484C6.148 74.4214 11.345 75.8624 16.603 77.1354C16.203 86.6914 14.459 91.7184 9.325 94.3254C12.231 99.0214 15.756 103.304 19.806 107.058C29.149 100.83 31.89 90.6514 32.619 80.2584C34.799 80.5964 37.015 80.8194 39.213 81.0774V118.118H57.497V82.3934C58.912 82.3934 60.3 82.5714 61.724 82.5714C63.148 82.5714 64.536 82.4294 65.95 82.3934V118.127H84.235V81.0854C86.433 80.8274 88.684 80.6054 90.82 80.2674C91.549 90.6594 94.299 100.865 103.641 107.067C107.693 103.307 111.218 99.0194 114.123 94.3164C108.98 91.7094 107.245 86.6824 106.845 77.1264C112.103 75.8544 117.299 74.4574 122.389 72.7394C123.043 69.1694 123.382 65.5494 123.403 61.9204V61.8934ZM95.971 63.0504C92.193 63.7974 88.393 64.4324 84.573 64.9544C76.986 65.9524 69.341 66.4544 61.688 66.4584C54.047 66.4534 46.415 65.9514 38.839 64.9544C35.036 64.4504 31.249 63.8244 27.476 63.0764C23.704 62.3294 19.946 61.4484 16.203 60.4344C16.606 48.6244 21.577 37.4314 30.067 29.2124C38.558 20.9944 49.907 16.3904 61.724 16.3724C73.541 16.3884 84.89 20.9914 93.38 29.2104C101.869 37.4304 106.837 48.6244 107.236 60.4344C103.499 61.3954 99.7 62.2844 95.971 63.0504Z" fill="white"/>
</svg>
