<svg width="300" height="300" viewBox="0 0 300 300" fill="none" xmlns="http://www.w3.org/2000/svg">
<g clip-path="url(#clip0_31_1292)">
<path d="M54.8449 130.185C51.0878 128.109 48.1543 125.22 46.0388 121.531C43.9233 117.842 42.8684 113.656 42.8684 108.968C42.8684 104.28 43.9233 100.094 46.0388 96.4046C48.1543 92.7152 51.0878 89.8325 54.8449 87.7508C58.6021 85.6748 62.8443 84.6312 67.5718 84.6312C72.2992 84.6312 76.5302 85.6692 80.2535 87.7508C83.9824 89.8325 86.8989 92.7152 89.0144 96.4046C91.1299 100.094 92.1849 104.28 92.1849 108.968C92.1849 113.656 91.1299 117.842 89.0144 121.531C86.8989 125.22 83.9767 128.103 80.2535 130.185C76.5245 132.267 72.2992 133.305 67.5718 133.305C62.8443 133.305 58.6021 132.267 54.8449 130.185ZM75.7912 118.502C77.9292 116.132 79.0011 112.956 79.0011 108.973C79.0011 104.991 77.9292 101.815 75.7912 99.4453C73.6475 97.0759 70.9114 95.8856 67.5718 95.8856C64.2321 95.8856 61.4791 97.0703 59.3129 99.4453C57.1466 101.82 56.0578 104.996 56.0578 108.973C56.0578 112.951 57.141 116.132 59.3129 118.502C61.4848 120.871 64.2377 122.061 67.5718 122.061C70.9058 122.061 73.6475 120.877 75.7912 118.502Z" fill="white"/>
<path d="M136.977 87.6718C140.396 89.6914 143.081 92.5346 145.027 96.1902C146.973 99.8514 147.949 104.111 147.949 108.973C147.949 113.836 146.973 118.095 145.027 121.757C143.081 125.418 140.396 128.255 136.977 130.275C133.558 132.295 129.756 133.304 125.587 133.304C119.855 133.304 115.348 131.403 112.07 127.595V149.642H99.0503V85.3419H111.484V90.7858C114.711 86.6902 119.41 84.6368 125.587 84.6368C129.762 84.6368 133.558 85.6466 136.977 87.6662V87.6718ZM131.55 118.502C133.694 116.132 134.766 112.956 134.766 108.973C134.766 104.991 133.694 101.815 131.55 99.4453C129.406 97.0759 126.67 95.8856 123.331 95.8856C119.991 95.8856 117.249 97.0703 115.111 99.4453C112.967 101.815 111.896 104.996 111.896 108.973C111.896 112.951 112.967 116.132 115.111 118.502C117.249 120.871 119.991 122.061 123.331 122.061C126.67 122.061 129.406 120.877 131.55 118.502Z" fill="white"/>
<path d="M199.037 112.838H165.071C165.68 115.766 167.13 118.079 169.409 119.777C171.688 121.475 174.526 122.326 177.922 122.326C180.257 122.326 182.328 121.96 184.139 121.226C185.944 120.493 187.631 119.337 189.188 117.757L196.115 125.661C191.884 130.755 185.712 133.305 177.589 133.305C172.529 133.305 168.049 132.267 164.151 130.185C160.259 128.109 157.252 125.22 155.136 121.531C153.021 117.842 151.966 113.656 151.966 108.968C151.966 104.28 153.01 100.167 155.097 96.4497C157.184 92.7321 160.05 89.8325 163.694 87.7508C167.339 85.6748 171.412 84.6312 175.919 84.6312C180.427 84.6312 184.291 85.6297 187.851 87.6154C191.41 89.6068 194.208 92.4613 196.239 96.179C198.27 99.8966 199.285 104.218 199.285 109.137C199.285 109.312 199.201 110.542 199.037 112.827V112.838ZM168.58 97.6401C166.577 99.3945 165.353 101.798 164.907 104.844H187.021C186.576 101.86 185.351 99.4735 183.349 97.6852C181.346 95.8969 178.898 95.0056 176.004 95.0056C173.11 95.0056 170.582 95.8856 168.574 97.6401H168.58Z" fill="white"/>
<path d="M246.785 89.9114C250.204 93.426 251.919 98.6386 251.919 105.549V132.605H238.899V107.659C238.899 103.913 238.12 101.115 236.563 99.2704C235.006 97.4257 232.75 96.5061 229.805 96.5061C226.522 96.5061 223.91 97.578 221.964 99.7104C220.017 101.848 219.041 105.025 219.041 109.239V132.605H206.021V85.3476H218.455V90.8817C220.181 88.8903 222.319 87.3559 224.88 86.2728C227.441 85.1896 230.251 84.6481 233.308 84.6481C238.871 84.6481 243.361 86.4025 246.785 89.9171V89.9114Z" fill="white"/>
<path d="M91.9422 149.106V214.286H79.5087V208.842C76.2819 212.943 71.6109 214.991 65.49 214.991C61.259 214.991 57.4399 213.998 54.0156 212.007C50.5969 210.015 47.9117 207.178 45.9654 203.488C44.0192 199.799 43.0432 195.523 43.0432 190.665C43.0432 185.808 44.0135 181.532 45.9654 177.843C47.9117 174.153 50.5969 171.316 54.0156 169.324C57.4342 167.333 61.259 166.34 65.49 166.34C71.2216 166.34 75.7008 168.241 78.9277 172.049V149.123H91.9479L91.9422 149.106ZM75.9209 200.182C78.0928 197.813 79.1759 194.637 79.1759 190.654C79.1759 186.671 78.0928 183.495 75.9209 181.126C73.7489 178.757 71.0242 177.566 67.7409 177.566C64.4577 177.566 61.6483 178.751 59.482 181.126C57.3101 183.495 56.227 186.677 56.227 190.654C56.227 194.631 57.3101 197.813 59.482 200.182C61.6539 202.552 64.4069 203.742 67.7409 203.742C71.075 203.742 73.7489 202.557 75.9209 200.182Z" fill="white"/>
<path d="M136.198 171.547C139.927 175.033 141.789 180.285 141.789 187.315V214.28H129.604V208.396C127.155 212.791 122.592 214.985 115.918 214.985C112.465 214.985 109.476 214.37 106.948 213.141C104.415 211.911 102.486 210.213 101.149 208.046C99.8119 205.88 99.1462 203.421 99.1462 200.668C99.1462 196.273 100.72 192.82 103.862 190.304C107.005 187.788 111.856 186.525 118.423 186.525H128.769C128.769 183.541 127.906 181.239 126.179 179.631C124.453 178.023 121.869 177.217 118.417 177.217C116.025 177.217 113.673 177.611 111.365 178.401C109.058 179.191 107.095 180.263 105.481 181.606L100.81 172.032C103.259 170.216 106.192 168.811 109.617 167.818C113.035 166.825 116.555 166.323 120.171 166.323C127.127 166.323 132.464 168.066 136.193 171.547H136.198ZM125.102 204.137C126.828 203.054 128.052 201.457 128.774 199.348V194.519H119.844C114.502 194.519 111.834 196.363 111.834 200.053C111.834 201.807 112.488 203.201 113.797 204.227C115.106 205.254 116.899 205.762 119.179 205.762C121.458 205.762 123.376 205.22 125.102 204.137Z" fill="white"/>
<path d="M189.328 169.353C192.747 171.372 195.432 174.215 197.379 177.871C199.325 181.532 200.301 185.791 200.301 190.654C200.301 195.517 199.325 199.776 197.379 203.437C195.432 207.099 192.747 209.936 189.328 211.956C185.91 213.975 182.108 214.985 177.939 214.985C172.207 214.985 167.7 213.084 164.422 209.276V231.322H151.402V167.023H163.835V172.467C167.062 168.371 171.761 166.318 177.939 166.318C182.113 166.318 185.91 167.327 189.328 169.347V169.353ZM183.902 200.182C186.045 197.813 187.117 194.637 187.117 190.654C187.117 186.671 186.045 183.495 183.902 181.126C181.758 178.757 179.022 177.566 175.682 177.566C172.342 177.566 169.601 178.751 167.463 181.126C165.319 183.495 164.247 186.677 164.247 190.654C164.247 194.631 165.319 197.813 167.463 200.182C169.601 202.552 172.342 203.742 175.682 203.742C179.022 203.742 181.758 202.557 183.902 200.182Z" fill="white"/>
<path d="M245.302 169.353C248.72 171.372 251.406 174.215 253.352 177.871C255.298 181.532 256.274 185.791 256.274 190.654C256.274 195.517 255.298 199.776 253.352 203.437C251.406 207.099 248.72 209.936 245.302 211.956C241.883 213.975 238.081 214.985 233.912 214.985C228.18 214.985 223.673 213.084 220.395 209.276V231.322H207.375V167.023H219.808V172.467C223.035 168.371 227.735 166.318 233.912 166.318C238.086 166.318 241.883 167.327 245.302 169.347V169.353ZM239.875 200.182C242.018 197.813 243.09 194.637 243.09 190.654C243.09 186.671 242.018 183.495 239.875 181.126C237.731 178.757 234.995 177.566 231.655 177.566C228.316 177.566 225.574 178.751 223.436 181.126C221.292 183.495 220.22 186.677 220.22 190.654C220.22 194.631 221.292 197.813 223.436 200.182C225.574 202.552 228.316 203.742 231.655 203.742C234.995 203.742 237.731 202.557 239.875 200.182Z" fill="white"/>
<path d="M267.873 213.535C264.313 212.571 261.475 211.352 259.36 209.891L263.698 200.053C265.701 201.401 268.121 202.501 270.958 203.347C273.796 204.199 276.577 204.622 279.302 204.622C284.808 204.622 287.561 203.189 287.561 200.318C287.561 198.969 286.811 198.005 285.31 197.418C283.809 196.831 281.496 196.335 278.382 195.923C274.71 195.336 271.681 194.665 269.289 193.904C266.897 193.142 264.826 191.794 263.072 189.864C261.317 187.935 260.443 185.182 260.443 181.605C260.443 178.621 261.261 175.97 262.903 173.657C264.544 171.344 266.936 169.544 270.078 168.252C273.221 166.966 276.933 166.318 281.22 166.318C284.39 166.318 287.55 166.684 290.692 167.418C293.834 168.151 296.435 169.161 298.494 170.447L294.156 180.195C290.207 177.854 285.897 176.681 281.22 176.681C278.439 176.681 276.352 177.092 274.964 177.91C273.57 178.728 272.876 179.783 272.876 181.075C272.876 182.542 273.627 183.563 275.127 184.15C276.628 184.736 279.02 185.289 282.303 185.82C285.976 186.463 288.977 187.151 291.318 187.884C293.653 188.618 295.684 189.949 297.411 191.878C299.137 193.813 300 196.504 300 199.962C300 202.89 299.165 205.497 297.495 207.781C295.825 210.066 293.394 211.837 290.195 213.095C286.997 214.353 283.2 214.985 278.806 214.985C275.077 214.985 271.432 214.5 267.873 213.535Z" fill="white"/>
<path d="M196.521 300H103.473C93.4091 300 83.9429 296.079 76.8292 288.96L11.0344 223.165C3.91508 216.046 0 206.585 0 196.521V103.473C0 93.4091 3.92072 83.9429 11.0344 76.8292L76.8292 11.0344C83.9486 3.92072 93.409 0 103.479 0H196.527C206.591 0 216.057 3.92072 223.171 11.0344L288.966 76.8292C296.085 83.9486 300.006 93.4091 300.006 103.473V147.639H291.544V103.473C291.544 95.6656 288.503 88.3319 282.986 82.809L217.191 17.0142C211.674 11.497 204.334 8.45635 196.527 8.45635H103.479C95.6712 8.45635 88.3375 11.497 82.8146 17.0142L17.0199 82.8146C11.5027 88.3319 8.46199 95.6712 8.46199 103.479V196.527C8.46199 204.334 11.5027 211.668 17.0199 217.191L82.8146 282.986C88.3319 288.503 95.6712 291.544 103.479 291.544H196.527C204.334 291.544 211.668 288.503 217.191 282.986L267.754 232.423L273.74 238.408L223.176 288.971C216.057 296.091 206.597 300.011 196.532 300.011L196.521 300Z" fill="white"/>
</g>
<defs>
<clipPath id="clip0_31_1292">
<rect width="300" height="300" fill="white"/>
</clipPath>
</defs>
</svg>
