<svg width="438" height="283" viewBox="0 0 438 283" fill="none" xmlns="http://www.w3.org/2000/svg">
<g clip-path="url(#clip0_31_1304)">
<path d="M247.353 35.1753L212.178 0V35.1753H159.418V123.11L194.587 158.285V70.3505H247.353V123.11L282.528 158.285V70.3505L247.353 35.1753Z" fill="white"/>
<path d="M50.5242 219.025C50.5242 222.79 49.8822 226.18 48.5982 229.197C47.3142 232.226 45.5191 234.819 43.213 236.976C40.9068 239.12 38.2141 240.765 35.1351 241.912C32.056 243.047 28.7214 243.614 25.1312 243.614C21.4787 243.614 18.1254 243.047 15.0712 241.912C12.0296 240.765 9.3868 239.132 7.14295 237.013C4.89909 234.894 3.14764 232.338 1.88858 229.347C0.629531 226.355 0 222.97 0 219.193C0 212.91 0 206.571 0 200.176C0 193.769 0 187.424 0 181.141C2.6303 181.141 5.2606 181.141 7.8909 181.141C10.5337 181.141 13.139 181.141 15.707 181.141C15.707 187.299 15.707 193.495 15.707 199.728C15.707 205.948 15.707 212.137 15.707 218.296C15.707 221.524 16.6045 224.13 18.3996 226.112C20.1947 228.081 22.5009 229.066 25.3182 229.066C28.123 229.066 30.4105 228.081 32.1807 226.112C33.9383 224.13 34.8172 221.524 34.8172 218.296C34.8172 212.137 34.8172 205.948 34.8172 199.728C34.8172 193.495 34.8172 187.299 34.8172 181.141C37.4599 181.141 40.0965 181.141 42.7268 181.141C45.3571 181.141 47.9562 181.141 50.5242 181.141C50.5242 187.362 50.5242 193.675 50.5242 200.083C50.5242 206.478 50.5242 212.792 50.5242 219.025ZM60.4047 242.174C60.4047 234.52 60.4047 226.785 60.4047 218.969C60.4047 211.165 60.4047 203.43 60.4047 195.764C62.8604 195.764 65.3411 195.764 67.8468 195.764C70.3649 195.764 72.8207 195.764 75.2141 195.764C75.2141 196.187 75.2141 196.58 75.2141 196.942C75.2141 197.303 75.2141 197.689 75.2141 198.101C76.8347 196.966 78.6422 196.088 80.6368 195.464C82.6438 194.829 84.8128 194.511 87.1439 194.511C90.5596 194.511 93.5701 195.29 96.1755 196.848C98.7808 198.406 100.813 200.638 102.271 203.542C103.742 206.434 104.478 209.919 104.478 213.995C104.478 218.657 104.478 223.35 104.478 228.075C104.478 232.812 104.478 237.512 104.478 242.174C102.084 242.174 99.6285 242.174 97.1104 242.174C94.6048 242.174 92.1241 242.174 89.6683 242.174C89.6683 237.861 89.6683 233.491 89.6683 229.066C89.6683 224.641 89.6683 220.271 89.6683 215.958C89.6683 213.565 89.1136 211.639 88.0041 210.18C86.8946 208.709 85.1432 207.974 82.7497 207.974C80.3563 207.974 78.5051 208.666 77.1962 210.049C75.8748 211.421 75.2141 213.39 75.2141 215.958C75.2141 220.271 75.2141 224.641 75.2141 229.066C75.2141 233.491 75.2141 237.861 75.2141 242.174C72.8207 242.174 70.3649 242.174 67.8468 242.174C65.3411 242.174 62.8604 242.174 60.4047 242.174ZM113.629 242.174C113.629 231.341 113.629 220.421 113.629 209.414C113.629 198.406 113.629 187.486 113.629 176.653C116.085 176.653 118.565 176.653 121.071 176.653C123.589 176.653 126.045 176.653 128.438 176.653C128.438 187.486 128.438 198.406 128.438 209.414C128.438 220.421 128.438 231.341 128.438 242.174C126.045 242.174 123.589 242.174 121.071 242.174C118.565 242.174 116.085 242.174 113.629 242.174ZM178.701 240.024C174.575 241.756 170.473 242.835 166.397 243.259C162.333 243.67 158.494 243.445 154.879 242.585C151.251 241.713 148.035 240.229 145.23 238.135C142.413 236.041 140.212 233.379 138.629 230.151C137.046 226.922 136.255 223.182 136.255 218.931C136.255 215.403 136.834 212.156 137.994 209.189C139.165 206.222 140.829 203.617 142.986 201.373C145.13 199.129 147.673 197.397 150.615 196.175C153.545 194.953 156.742 194.342 160.208 194.342C163.324 194.342 166.135 194.847 168.641 195.857C171.159 196.879 173.347 198.3 175.204 200.12C177.062 201.953 178.557 204.122 179.692 206.628C180.826 209.146 181.543 211.901 181.842 214.892C182.141 217.884 181.961 221.057 181.3 224.41C176.401 224.41 171.464 224.41 166.49 224.41C161.529 224.41 156.593 224.41 151.681 224.41C152.815 226.679 154.716 228.293 157.384 229.253C160.052 230.213 163.224 230.512 166.902 230.151C170.579 229.789 174.512 228.829 178.701 227.271C178.701 229.365 178.701 231.491 178.701 233.647C178.701 235.804 178.701 237.929 178.701 240.024ZM159.852 207.619C158.12 207.619 156.518 208.098 155.047 209.058C153.588 210.018 152.466 211.483 151.681 213.453C154.374 213.453 157.085 213.453 159.815 213.453C162.533 213.453 165.238 213.453 167.93 213.453C167.207 211.421 166.148 209.937 164.752 209.002C163.343 208.08 161.71 207.619 159.852 207.619ZM220.616 242.174C220.616 241.7 220.616 241.239 220.616 240.79C220.616 240.341 220.616 239.905 220.616 239.481C219.12 240.74 217.431 241.713 215.549 242.398C213.666 243.084 211.647 243.427 209.49 243.427C206.436 243.427 203.563 242.847 200.87 241.688C198.178 240.516 195.797 238.839 193.727 236.658C191.67 234.476 190.056 231.89 188.884 228.898C187.725 225.906 187.145 222.584 187.145 218.931C187.145 215.217 187.725 211.863 188.884 208.871C190.056 205.88 191.67 203.324 193.727 201.205C195.797 199.073 198.178 197.428 200.87 196.268C203.563 195.097 206.405 194.511 209.397 194.511C211.553 194.511 213.585 194.853 215.493 195.539C217.412 196.237 219.12 197.185 220.616 198.381C220.616 197.895 220.616 197.446 220.616 197.035C220.616 196.611 220.616 196.187 220.616 195.764C223.072 195.764 225.553 195.764 228.058 195.764C230.576 195.764 233.032 195.764 235.426 195.764C235.426 203.43 235.426 211.165 235.426 218.969C235.426 226.785 235.426 234.52 235.426 242.174C233.032 242.174 230.576 242.174 228.058 242.174C225.553 242.174 223.072 242.174 220.616 242.174ZM211.454 230.319C214.333 230.319 216.639 229.272 218.372 227.178C220.105 225.083 220.971 222.335 220.971 218.931C220.971 215.516 220.105 212.779 218.372 210.723C216.639 208.653 214.333 207.619 211.454 207.619C208.524 207.619 206.206 208.635 204.498 210.666C202.802 212.698 201.955 215.453 201.955 218.931C201.955 222.397 202.802 225.164 204.498 227.234C206.206 229.29 208.524 230.319 211.454 230.319ZM280.751 227.813C280.751 231.528 279.717 234.564 277.647 236.92C275.591 239.288 272.823 241.008 269.345 242.08C265.88 243.165 262.009 243.632 257.733 243.483C253.457 243.333 249.101 242.629 244.663 241.37C244.663 239.089 244.663 236.751 244.663 234.358C244.663 231.964 244.663 229.633 244.663 227.365C247.181 228.499 249.699 229.384 252.217 230.02C254.723 230.643 256.992 231.017 259.023 231.142C261.068 231.254 262.713 231.086 263.96 230.637C265.219 230.188 265.849 229.428 265.849 228.356C265.849 227.52 265.325 226.86 264.278 226.373C263.231 225.9 261.872 225.47 260.201 225.083C258.519 224.684 256.736 224.204 254.854 223.643C252.971 223.07 251.195 222.26 249.524 221.213C247.842 220.165 246.477 218.763 245.429 217.005C244.382 215.235 243.859 212.941 243.859 210.124C243.859 206.783 244.831 203.929 246.776 201.56C248.72 199.192 251.338 197.397 254.629 196.175C257.92 194.953 261.604 194.342 265.68 194.342C269.744 194.342 273.901 195.028 278.152 196.399C278.152 198.668 278.152 200.999 278.152 203.393C278.152 205.786 278.152 208.123 278.152 210.405C274.799 208.784 271.658 207.706 268.728 207.17C265.799 206.634 263.436 206.559 261.641 206.945C259.846 207.332 258.949 208.155 258.949 209.414C258.949 210.249 259.472 210.891 260.519 211.34C261.566 211.788 262.913 212.194 264.558 212.555C266.204 212.917 267.968 213.396 269.85 213.995C271.732 214.593 273.496 215.416 275.142 216.463C276.787 217.51 278.134 218.944 279.181 220.764C280.228 222.596 280.751 224.946 280.751 227.813ZM288.381 242.174C288.381 231.341 288.381 220.421 288.381 209.414C288.381 198.406 288.381 187.486 288.381 176.653C290.836 176.653 293.317 176.653 295.823 176.653C298.341 176.653 300.797 176.653 303.19 176.653C303.19 180.181 303.19 183.759 303.19 187.386C303.19 191.002 303.19 194.573 303.19 198.101C304.811 196.966 306.618 196.088 308.613 195.464C310.62 194.829 312.789 194.511 315.12 194.511C318.536 194.511 321.546 195.29 324.151 196.848C326.757 198.406 328.789 200.638 330.247 203.542C331.718 206.434 332.454 209.919 332.454 213.995C332.454 218.657 332.454 223.35 332.454 228.075C332.454 232.812 332.454 237.512 332.454 242.174C330.06 242.174 327.604 242.174 325.086 242.174C322.581 242.174 320.1 242.174 317.644 242.174C317.644 237.861 317.644 233.491 317.644 229.066C317.644 224.641 317.644 220.271 317.644 215.958C317.644 213.565 317.089 211.639 315.98 210.18C314.871 208.709 313.119 207.974 310.726 207.974C308.332 207.974 306.481 208.666 305.172 210.049C303.851 211.421 303.19 213.39 303.19 215.958C303.19 220.271 303.19 224.641 303.19 229.066C303.19 233.491 303.19 237.861 303.19 242.174C300.797 242.174 298.341 242.174 295.823 242.174C293.317 242.174 290.836 242.174 288.381 242.174ZM381.635 240.024C377.509 241.756 373.408 242.835 369.331 243.259C365.268 243.67 361.428 243.445 357.813 242.585C354.185 241.713 350.969 240.229 348.164 238.135C345.347 236.041 343.147 233.379 341.564 230.151C339.981 226.922 339.189 223.182 339.189 218.931C339.189 215.403 339.769 212.156 340.928 209.189C342.1 206.222 343.764 203.617 345.921 201.373C348.065 199.129 350.608 197.397 353.55 196.175C356.479 194.953 359.677 194.342 363.142 194.342C366.259 194.342 369.07 194.847 371.575 195.857C374.093 196.879 376.281 198.3 378.139 200.12C379.996 201.953 381.492 204.122 382.626 206.628C383.761 209.146 384.478 211.901 384.777 214.892C385.076 217.884 384.895 221.057 384.234 224.41C379.335 224.41 374.399 224.41 369.425 224.41C364.464 224.41 359.527 224.41 354.616 224.41C355.75 226.679 357.651 228.293 360.319 229.253C362.986 230.213 366.159 230.512 369.836 230.151C373.514 229.789 377.447 228.829 381.635 227.271C381.635 229.365 381.635 231.491 381.635 233.647C381.635 235.804 381.635 237.929 381.635 240.024ZM362.787 207.619C361.054 207.619 359.452 208.098 357.981 209.058C356.523 210.018 355.401 211.483 354.616 213.453C357.308 213.453 360.019 213.453 362.75 213.453C365.467 213.453 368.172 213.453 370.865 213.453C370.142 211.421 369.082 209.937 367.686 209.002C366.277 208.08 364.644 207.619 362.787 207.619ZM423.551 242.174C423.551 241.7 423.551 241.239 423.551 240.79C423.551 240.341 423.551 239.905 423.551 239.481C422.055 240.74 420.366 241.713 418.483 242.398C416.601 243.084 414.581 243.427 412.425 243.427C409.371 243.427 406.497 242.828 403.805 241.632C401.112 240.435 398.731 238.746 396.662 236.564C394.605 234.383 392.99 231.796 391.819 228.804C390.659 225.813 390.08 222.522 390.08 218.931C390.08 215.279 390.659 211.957 391.819 208.965C392.99 205.973 394.605 203.399 396.662 201.242C398.731 199.086 401.112 197.428 403.805 196.268C406.497 195.097 409.339 194.511 412.331 194.511C414.488 194.511 416.52 194.853 418.427 195.539C420.347 196.237 422.055 197.185 423.551 198.381C423.551 194.791 423.551 191.17 423.551 187.517C423.551 183.865 423.551 180.243 423.551 176.653C426.006 176.653 428.487 176.653 430.993 176.653C433.511 176.653 435.967 176.653 438.36 176.653C438.36 187.486 438.36 198.406 438.36 209.414C438.36 220.421 438.36 231.341 438.36 242.174C435.967 242.174 433.511 242.174 430.993 242.174C428.487 242.174 426.006 242.174 423.551 242.174ZM414.388 230.319C417.268 230.319 419.574 229.272 421.307 227.178C423.039 225.083 423.906 222.335 423.906 218.931C423.906 215.516 423.039 212.779 421.307 210.723C419.574 208.653 417.268 207.619 414.388 207.619C411.459 207.619 409.14 208.635 407.432 210.666C405.737 212.698 404.889 215.453 404.889 218.931C404.889 222.397 405.737 225.164 407.432 227.234C409.14 229.29 411.459 230.319 414.388 230.319Z" fill="white"/>
<path d="M64.7305 282.576C64.7305 279.981 64.7305 277.355 64.7305 274.699C64.7305 272.042 64.7305 269.416 64.7305 266.821C65.6572 266.821 66.5917 266.821 67.5339 266.821C68.4761 266.821 69.4106 266.821 70.3374 266.821C71.4804 266.821 72.5307 267.018 73.4884 267.412C74.446 267.806 75.2801 268.358 75.9906 269.068C76.7011 269.779 77.2533 270.609 77.6472 271.559C78.0411 272.509 78.238 273.548 78.238 274.675C78.238 275.803 78.0411 276.846 77.6472 277.803C77.2533 278.761 76.7011 279.599 75.9906 280.317C75.2801 281.035 74.446 281.591 73.4884 281.985C72.5307 282.379 71.4804 282.576 70.3374 282.576C69.4106 282.576 68.4761 282.576 67.5339 282.576C66.5917 282.576 65.6572 282.576 64.7305 282.576ZM70.3374 270.482C70.0902 270.482 69.8354 270.482 69.5728 270.482C69.3102 270.482 69.0476 270.482 68.7851 270.482C68.7851 271.872 68.7851 273.278 68.7851 274.699C68.7851 276.12 68.7851 277.525 68.7851 278.915C69.0476 278.915 69.3102 278.915 69.5728 278.915C69.8354 278.915 70.0902 278.915 70.3374 278.915C71.1097 278.915 71.7816 278.73 72.3531 278.359C72.9246 277.989 73.3648 277.483 73.6737 276.842C73.9826 276.201 74.1371 275.479 74.1371 274.675C74.1371 273.872 73.9826 273.154 73.6737 272.521C73.3648 271.887 72.9246 271.389 72.3531 271.026C71.7816 270.663 71.1097 270.482 70.3374 270.482ZM94.5954 282.02C93.5296 282.468 92.4715 282.746 91.4212 282.854C90.3709 282.962 89.3785 282.904 88.444 282.68C87.5095 282.456 86.6793 282.074 85.9533 281.533C85.2274 280.993 84.6597 280.305 84.2504 279.471C83.8411 278.637 83.6364 277.672 83.6364 276.575C83.6364 275.664 83.787 274.826 84.0882 274.061C84.3894 273.297 84.818 272.625 85.3741 272.046C85.9301 271.466 86.5866 271.019 87.3435 270.702C88.1003 270.385 88.9267 270.227 89.8225 270.227C90.6257 270.227 91.3517 270.358 92.0004 270.621C92.6492 270.883 93.2129 271.25 93.6918 271.721C94.1706 272.192 94.5568 272.752 94.8502 273.401C95.1437 274.05 95.329 274.76 95.4063 275.533C95.4835 276.305 95.4372 277.124 95.2673 277.989C94.0007 277.989 92.7264 277.989 91.4444 277.989C90.1624 277.989 88.8881 277.989 87.6215 277.989C87.915 278.576 88.4054 278.993 89.0927 279.24C89.7801 279.487 90.5987 279.564 91.5486 279.471C92.4986 279.379 93.5141 279.132 94.5954 278.73C94.5954 279.271 94.5954 279.819 94.5954 280.375C94.5954 280.931 94.5954 281.479 94.5954 282.02ZM89.7299 273.656C89.2819 273.656 88.8687 273.78 88.4903 274.027C88.1119 274.274 87.8223 274.652 87.6215 275.162C88.3166 275.162 89.0155 275.162 89.7183 275.162C90.4211 275.162 91.12 275.162 91.8151 275.162C91.6297 274.637 91.3556 274.254 90.9926 274.015C90.6296 273.776 90.2087 273.656 89.7299 273.656ZM100.828 276.575C100.828 275.401 101.067 274.37 101.546 273.482C102.025 272.594 102.689 271.88 103.539 271.339C104.388 270.798 105.377 270.47 106.504 270.354C107.632 270.239 108.837 270.374 110.119 270.76C110.119 271.347 110.119 271.941 110.119 272.544C110.119 273.146 110.119 273.741 110.119 274.328C109.223 273.895 108.366 273.695 107.547 273.725C106.728 273.756 106.056 274.007 105.531 274.478C105.006 274.95 104.743 275.648 104.743 276.575C104.743 277.502 105.006 278.201 105.531 278.672C106.056 279.143 106.728 279.39 107.547 279.413C108.366 279.437 109.223 279.24 110.119 278.823C110.119 279.41 110.119 280.004 110.119 280.607C110.119 281.209 110.119 281.804 110.119 282.391C108.837 282.777 107.632 282.912 106.504 282.796C105.377 282.68 104.388 282.352 103.539 281.811C102.689 281.271 102.025 280.556 101.546 279.668C101.067 278.78 100.828 277.749 100.828 276.575ZM126.754 282.02C125.688 282.468 124.63 282.746 123.58 282.854C122.53 282.962 121.537 282.904 120.603 282.68C119.668 282.456 118.838 282.074 118.112 281.533C117.386 280.993 116.818 280.305 116.409 279.471C116 278.637 115.795 277.672 115.795 276.575C115.795 275.664 115.946 274.826 116.247 274.061C116.548 273.297 116.977 272.625 117.533 272.046C118.089 271.466 118.745 271.019 119.502 270.702C120.259 270.385 121.085 270.227 121.981 270.227C122.784 270.227 123.51 270.358 124.159 270.621C124.808 270.883 125.372 271.25 125.85 271.721C126.329 272.192 126.715 272.752 127.009 273.401C127.302 274.05 127.488 274.76 127.565 275.533C127.642 276.305 127.596 277.124 127.426 277.989C126.159 277.989 124.885 277.989 123.603 277.989C122.321 277.989 121.047 277.989 119.78 277.989C120.074 278.576 120.564 278.993 121.251 279.24C121.939 279.487 122.757 279.564 123.707 279.471C124.657 279.379 125.673 279.132 126.754 278.73C126.754 279.271 126.754 279.819 126.754 280.375C126.754 280.931 126.754 281.479 126.754 282.02ZM121.888 273.656C121.441 273.656 121.027 273.78 120.649 274.027C120.271 274.274 119.981 274.652 119.78 275.162C120.475 275.162 121.174 275.162 121.877 275.162C122.58 275.162 123.279 275.162 123.974 275.162C123.788 274.637 123.514 274.254 123.151 274.015C122.788 273.776 122.367 273.656 121.888 273.656ZM133.635 282.576C133.635 280.599 133.635 278.603 133.635 276.587C133.635 274.571 133.635 272.575 133.635 270.598C134.268 270.598 134.91 270.598 135.558 270.598C136.207 270.598 136.84 270.598 137.458 270.598C137.458 270.706 137.458 270.806 137.458 270.899C137.458 270.992 137.458 271.092 137.458 271.2C137.875 270.907 138.342 270.679 138.86 270.517C139.377 270.354 139.937 270.273 140.54 270.273C141.42 270.273 142.196 270.474 142.868 270.876C143.54 271.277 144.065 271.853 144.444 272.602C144.822 273.351 145.011 274.251 145.011 275.301C145.011 276.506 145.011 277.718 145.011 278.938C145.011 280.159 145.011 281.371 145.011 282.576C144.393 282.576 143.76 282.576 143.111 282.576C142.463 282.576 141.822 282.576 141.188 282.576C141.188 281.464 141.188 280.336 141.188 279.193C141.188 278.05 141.188 276.923 141.188 275.811C141.188 275.193 141.045 274.695 140.76 274.316C140.474 273.938 140.022 273.749 139.404 273.749C138.786 273.749 138.308 273.926 137.968 274.282C137.628 274.637 137.458 275.146 137.458 275.811C137.458 276.923 137.458 278.05 137.458 279.193C137.458 280.336 137.458 281.464 137.458 282.576C136.84 282.576 136.207 282.576 135.558 282.576C134.91 282.576 134.268 282.576 133.635 282.576ZM152.68 282.576C152.68 281.155 152.68 279.726 152.68 278.29C152.68 276.853 152.68 275.432 152.68 274.027C152.371 274.027 152.058 274.027 151.742 274.027C151.425 274.027 151.112 274.027 150.803 274.027C150.803 273.455 150.803 272.884 150.803 272.312C150.803 271.741 150.803 271.169 150.803 270.598C151.112 270.598 151.425 270.598 151.742 270.598C152.058 270.598 152.371 270.598 152.68 270.598C152.68 270.057 152.68 269.52 152.68 268.987C152.68 268.454 152.68 267.925 152.68 267.4C153.313 267.4 153.954 267.4 154.603 267.4C155.252 267.4 155.885 267.4 156.503 267.4C156.503 267.925 156.503 268.454 156.503 268.987C156.503 269.52 156.503 270.057 156.503 270.598C156.858 270.598 157.221 270.598 157.592 270.598C157.963 270.598 158.326 270.598 158.681 270.598C158.681 271.169 158.681 271.741 158.681 272.312C158.681 272.884 158.681 273.455 158.681 274.027C158.326 274.027 157.963 274.027 157.592 274.027C157.221 274.027 156.858 274.027 156.503 274.027C156.503 275.432 156.503 276.853 156.503 278.29C156.503 279.726 156.503 281.155 156.503 282.576C155.885 282.576 155.252 282.576 154.603 282.576C153.954 282.576 153.313 282.576 152.68 282.576ZM164.589 282.576C164.589 280.599 164.589 278.603 164.589 276.587C164.589 274.571 164.589 272.575 164.589 270.598C165.222 270.598 165.863 270.598 166.512 270.598C167.161 270.598 167.794 270.598 168.412 270.598C168.412 270.706 168.412 270.814 168.412 270.922C168.412 271.03 168.412 271.138 168.412 271.246C168.891 270.907 169.431 270.652 170.034 270.482C170.636 270.312 171.293 270.266 172.003 270.343C172.003 270.961 172.003 271.586 172.003 272.219C172.003 272.853 172.003 273.478 172.003 274.096C170.783 273.926 169.879 274.031 169.292 274.409C168.705 274.787 168.412 275.401 168.412 276.251C168.412 277.286 168.412 278.336 168.412 279.402C168.412 280.468 168.412 281.526 168.412 282.576C167.794 282.576 167.161 282.576 166.512 282.576C165.863 282.576 165.222 282.576 164.589 282.576ZM185.673 282.576C185.673 282.452 185.673 282.333 185.673 282.217C185.673 282.101 185.673 281.989 185.673 281.881C185.287 282.205 184.85 282.456 184.364 282.634C183.877 282.812 183.356 282.9 182.8 282.9C182.012 282.9 181.271 282.75 180.576 282.449C179.881 282.147 179.267 281.715 178.734 281.151C178.201 280.587 177.784 279.919 177.483 279.147C177.181 278.375 177.031 277.517 177.031 276.575C177.031 275.618 177.181 274.753 177.483 273.98C177.784 273.208 178.201 272.548 178.734 271.999C179.267 271.451 179.881 271.026 180.576 270.725C181.271 270.424 182.004 270.273 182.777 270.273C183.333 270.273 183.858 270.362 184.352 270.54C184.847 270.717 185.287 270.961 185.673 271.27C185.673 271.146 185.673 271.03 185.673 270.922C185.673 270.814 185.673 270.706 185.673 270.598C186.306 270.598 186.947 270.598 187.596 270.598C188.245 270.598 188.878 270.598 189.496 270.598C189.496 272.575 189.496 274.571 189.496 276.587C189.496 278.603 189.496 280.599 189.496 282.576C188.878 282.576 188.245 282.576 187.596 282.576C186.947 282.576 186.306 282.576 185.673 282.576ZM183.31 279.518C184.051 279.518 184.646 279.247 185.094 278.707C185.542 278.166 185.766 277.456 185.766 276.575C185.766 275.695 185.542 274.988 185.094 274.455C184.646 273.922 184.051 273.656 183.31 273.656C182.553 273.656 181.954 273.919 181.514 274.444C181.074 274.969 180.854 275.679 180.854 276.575C180.854 277.471 181.074 278.185 181.514 278.718C181.954 279.251 182.553 279.518 183.31 279.518ZM196.215 282.576C196.215 279.78 196.215 276.961 196.215 274.119C196.215 271.277 196.215 268.458 196.215 265.663C196.848 265.663 197.489 265.663 198.138 265.663C198.787 265.663 199.42 265.663 200.038 265.663C200.038 268.458 200.038 271.277 200.038 274.119C200.038 276.961 200.038 279.78 200.038 282.576C199.42 282.576 198.787 282.576 198.138 282.576C197.489 282.576 196.848 282.576 196.215 282.576ZM208.796 269.231C208.348 269.231 207.942 269.123 207.579 268.906C207.216 268.69 206.927 268.404 206.71 268.049C206.494 267.694 206.386 267.3 206.386 266.867C206.386 266.435 206.494 266.045 206.71 265.697C206.927 265.35 207.216 265.068 207.579 264.852C207.942 264.635 208.348 264.527 208.796 264.527C209.228 264.527 209.626 264.635 209.989 264.852C210.352 265.068 210.641 265.35 210.858 265.697C211.074 266.045 211.182 266.435 211.182 266.867C211.182 267.3 211.074 267.694 210.858 268.049C210.641 268.404 210.352 268.69 209.989 268.906C209.626 269.123 209.228 269.231 208.796 269.231ZM206.873 282.576C206.873 280.599 206.873 278.603 206.873 276.587C206.873 274.571 206.873 272.575 206.873 270.598C207.506 270.598 208.147 270.598 208.796 270.598C209.444 270.598 210.078 270.598 210.695 270.598C210.695 272.575 210.695 274.571 210.695 276.587C210.695 278.603 210.695 280.599 210.695 282.576C210.078 282.576 209.444 282.576 208.796 282.576C208.147 282.576 207.506 282.576 206.873 282.576ZM217.067 282.576C217.067 282.035 217.067 281.487 217.067 280.931C217.067 280.375 217.067 279.827 217.067 279.286C217.87 278.39 218.673 277.494 219.477 276.598C220.28 275.703 221.083 274.807 221.886 273.911C221.083 273.911 220.28 273.911 219.477 273.911C218.673 273.911 217.87 273.911 217.067 273.911C217.067 273.37 217.067 272.818 217.067 272.254C217.067 271.69 217.067 271.138 217.067 270.598C218.627 270.598 220.21 270.598 221.817 270.598C223.423 270.598 225.006 270.598 226.566 270.598C226.566 271.138 226.566 271.69 226.566 272.254C226.566 272.818 226.566 273.37 226.566 273.911C225.763 274.807 224.96 275.703 224.157 276.598C223.353 277.494 222.55 278.39 221.747 279.286C222.55 279.286 223.353 279.286 224.157 279.286C224.96 279.286 225.763 279.286 226.566 279.286C226.566 279.827 226.566 280.375 226.566 280.931C226.566 281.487 226.566 282.035 226.566 282.576C225.006 282.576 223.423 282.576 221.817 282.576C220.21 282.576 218.627 282.576 217.067 282.576ZM243.132 282.02C242.066 282.468 241.008 282.746 239.958 282.854C238.908 282.962 237.915 282.904 236.981 282.68C236.046 282.456 235.216 282.074 234.49 281.533C233.764 280.993 233.196 280.305 232.787 279.471C232.378 278.637 232.173 277.672 232.173 276.575C232.173 275.664 232.324 274.826 232.625 274.061C232.926 273.297 233.355 272.625 233.911 272.046C234.467 271.466 235.123 271.019 235.88 270.702C236.637 270.385 237.463 270.227 238.359 270.227C239.162 270.227 239.888 270.358 240.537 270.621C241.186 270.883 241.75 271.25 242.229 271.721C242.707 272.192 243.094 272.752 243.387 273.401C243.68 274.05 243.866 274.76 243.943 275.533C244.02 276.305 243.974 277.124 243.804 277.989C242.537 277.989 241.263 277.989 239.981 277.989C238.699 277.989 237.425 277.989 236.158 277.989C236.452 278.576 236.942 278.993 237.629 279.24C238.317 279.487 239.135 279.564 240.085 279.471C241.035 279.379 242.051 279.132 243.132 278.73C243.132 279.271 243.132 279.819 243.132 280.375C243.132 280.931 243.132 281.479 243.132 282.02ZM238.267 273.656C237.819 273.656 237.405 273.78 237.027 274.027C236.649 274.274 236.359 274.652 236.158 275.162C236.853 275.162 237.552 275.162 238.255 275.162C238.958 275.162 239.657 275.162 240.352 275.162C240.166 274.637 239.892 274.254 239.529 274.015C239.166 273.776 238.745 273.656 238.267 273.656ZM262.872 282.576C262.254 282.576 261.621 282.576 260.972 282.576C260.324 282.576 259.683 282.576 259.049 282.576C259.049 279.78 259.049 276.961 259.049 274.119C259.049 271.277 259.049 268.458 259.049 265.663C259.683 265.663 260.324 265.663 260.972 265.663C261.621 265.663 262.254 265.663 262.872 265.663C262.872 266.589 262.872 267.524 262.872 268.466C262.872 269.408 262.872 270.343 262.872 271.27C263.258 270.961 263.698 270.717 264.193 270.54C264.687 270.362 265.212 270.273 265.768 270.273C266.541 270.273 267.274 270.424 267.969 270.725C268.664 271.026 269.278 271.455 269.811 272.011C270.344 272.567 270.761 273.231 271.062 274.003C271.364 274.776 271.514 275.633 271.514 276.575C271.514 277.502 271.364 278.352 271.062 279.124C270.761 279.896 270.344 280.564 269.811 281.128C269.278 281.692 268.664 282.128 267.969 282.437C267.274 282.746 266.533 282.9 265.745 282.9C265.189 282.9 264.668 282.812 264.181 282.634C263.695 282.456 263.258 282.205 262.872 281.881C262.872 281.989 262.872 282.101 262.872 282.217C262.872 282.333 262.872 282.452 262.872 282.576ZM265.235 279.518C265.992 279.518 266.591 279.251 267.031 278.718C267.471 278.185 267.691 277.471 267.691 276.575C267.691 275.679 267.471 274.969 267.031 274.444C266.591 273.919 265.992 273.656 265.235 273.656C264.494 273.656 263.899 273.922 263.451 274.455C263.003 274.988 262.779 275.695 262.779 276.575C262.779 277.456 263.003 278.166 263.451 278.707C263.899 279.247 264.494 279.518 265.235 279.518ZM288.659 270.598C288.659 272.575 288.659 274.571 288.659 276.587C288.659 278.603 288.659 280.599 288.659 282.576C288.041 282.576 287.408 282.576 286.759 282.576C286.111 282.576 285.47 282.576 284.836 282.576C284.836 282.468 284.836 282.368 284.836 282.275C284.836 282.182 284.836 282.082 284.836 281.974C284.419 282.267 283.952 282.495 283.435 282.657C282.917 282.819 282.357 282.9 281.755 282.9C280.874 282.9 280.098 282.7 279.426 282.298C278.755 281.896 278.229 281.317 277.851 280.56C277.473 279.803 277.283 278.908 277.283 277.873C277.283 276.668 277.283 275.455 277.283 274.235C277.283 273.015 277.283 271.802 277.283 270.598C277.917 270.598 278.558 270.598 279.206 270.598C279.855 270.598 280.488 270.598 281.106 270.598C281.106 271.71 281.106 272.837 281.106 273.98C281.106 275.123 281.106 276.251 281.106 277.363C281.106 277.981 281.249 278.479 281.535 278.857C281.821 279.236 282.272 279.425 282.89 279.425C283.508 279.425 283.987 279.247 284.327 278.892C284.666 278.537 284.836 278.027 284.836 277.363C284.836 276.251 284.836 275.123 284.836 273.98C284.836 272.837 284.836 271.71 284.836 270.598C285.47 270.598 286.111 270.598 286.759 270.598C287.408 270.598 288.041 270.598 288.659 270.598ZM304.414 278.869C304.414 279.827 304.148 280.611 303.615 281.221C303.082 281.831 302.368 282.275 301.472 282.553C300.576 282.831 299.576 282.951 298.471 282.912C297.367 282.873 296.243 282.692 295.1 282.368C295.1 281.781 295.1 281.178 295.1 280.56C295.1 279.942 295.1 279.34 295.1 278.753C295.749 279.047 296.398 279.274 297.046 279.437C297.695 279.599 298.282 279.695 298.807 279.726C299.332 279.757 299.757 279.715 300.082 279.599C300.406 279.483 300.568 279.286 300.568 279.008C300.568 278.792 300.433 278.622 300.163 278.498C299.892 278.375 299.541 278.263 299.109 278.162C298.676 278.062 298.217 277.938 297.73 277.792C297.243 277.645 296.784 277.436 296.351 277.166C295.919 276.896 295.568 276.533 295.297 276.077C295.027 275.621 294.892 275.031 294.892 274.305C294.892 273.44 295.143 272.702 295.645 272.092C296.147 271.482 296.823 271.019 297.672 270.702C298.522 270.385 299.472 270.227 300.522 270.227C301.572 270.227 302.646 270.405 303.742 270.76C303.742 271.347 303.742 271.949 303.742 272.567C303.742 273.185 303.742 273.787 303.742 274.374C302.877 273.957 302.066 273.679 301.31 273.54C300.553 273.401 299.943 273.382 299.479 273.482C299.016 273.583 298.784 273.795 298.784 274.119C298.784 274.336 298.919 274.502 299.19 274.617C299.46 274.733 299.807 274.838 300.232 274.93C300.657 275.023 301.113 275.146 301.599 275.301C302.086 275.455 302.541 275.668 302.966 275.938C303.391 276.208 303.738 276.579 304.009 277.05C304.279 277.521 304.414 278.128 304.414 278.869ZM312.361 269.231C311.913 269.231 311.508 269.123 311.145 268.906C310.782 268.69 310.492 268.404 310.276 268.049C310.06 267.694 309.952 267.3 309.952 266.867C309.952 266.435 310.06 266.045 310.276 265.697C310.492 265.35 310.782 265.068 311.145 264.852C311.508 264.635 311.913 264.527 312.361 264.527C312.794 264.527 313.191 264.635 313.554 264.852C313.917 265.068 314.207 265.35 314.423 265.697C314.64 266.045 314.748 266.435 314.748 266.867C314.748 267.3 314.64 267.694 314.423 268.049C314.207 268.404 313.917 268.69 313.554 268.906C313.191 269.123 312.794 269.231 312.361 269.231ZM310.438 282.576C310.438 280.599 310.438 278.603 310.438 276.587C310.438 274.571 310.438 272.575 310.438 270.598C311.071 270.598 311.712 270.598 312.361 270.598C313.01 270.598 313.643 270.598 314.261 270.598C314.261 272.575 314.261 274.571 314.261 276.587C314.261 278.603 314.261 280.599 314.261 282.576C313.643 282.576 313.01 282.576 312.361 282.576C311.712 282.576 311.071 282.576 310.438 282.576ZM320.98 282.576C320.98 280.599 320.98 278.603 320.98 276.587C320.98 274.571 320.98 272.575 320.98 270.598C321.613 270.598 322.254 270.598 322.903 270.598C323.552 270.598 324.185 270.598 324.803 270.598C324.803 270.706 324.803 270.806 324.803 270.899C324.803 270.992 324.803 271.092 324.803 271.2C325.22 270.907 325.687 270.679 326.205 270.517C326.722 270.354 327.282 270.273 327.884 270.273C328.765 270.273 329.541 270.474 330.213 270.876C330.885 271.277 331.41 271.853 331.788 272.602C332.167 273.351 332.356 274.251 332.356 275.301C332.356 276.506 332.356 277.718 332.356 278.938C332.356 280.159 332.356 281.371 332.356 282.576C331.738 282.576 331.105 282.576 330.456 282.576C329.808 282.576 329.167 282.576 328.533 282.576C328.533 281.464 328.533 280.336 328.533 279.193C328.533 278.05 328.533 276.923 328.533 275.811C328.533 275.193 328.39 274.695 328.105 274.316C327.819 273.938 327.367 273.749 326.749 273.749C326.131 273.749 325.653 273.926 325.313 274.282C324.973 274.637 324.803 275.146 324.803 275.811C324.803 276.923 324.803 278.05 324.803 279.193C324.803 280.336 324.803 281.464 324.803 282.576C324.185 282.576 323.552 282.576 322.903 282.576C322.254 282.576 321.613 282.576 320.98 282.576ZM349.084 282.02C348.018 282.468 346.96 282.746 345.91 282.854C344.86 282.962 343.867 282.904 342.933 282.68C341.998 282.456 341.168 282.074 340.442 281.533C339.716 280.993 339.149 280.305 338.739 279.471C338.33 278.637 338.125 277.672 338.125 276.575C338.125 275.664 338.276 274.826 338.577 274.061C338.878 273.297 339.307 272.625 339.863 272.046C340.419 271.466 341.075 271.019 341.832 270.702C342.589 270.385 343.415 270.227 344.311 270.227C345.115 270.227 345.84 270.358 346.489 270.621C347.138 270.883 347.702 271.25 348.181 271.721C348.659 272.192 349.046 272.752 349.339 273.401C349.632 274.05 349.818 274.76 349.895 275.533C349.972 276.305 349.926 277.124 349.756 277.989C348.489 277.989 347.215 277.989 345.933 277.989C344.651 277.989 343.377 277.989 342.11 277.989C342.404 278.576 342.894 278.993 343.582 279.24C344.269 279.487 345.087 279.564 346.037 279.471C346.987 279.379 348.003 279.132 349.084 278.73C349.084 279.271 349.084 279.819 349.084 280.375C349.084 280.931 349.084 281.479 349.084 282.02ZM344.219 273.656C343.771 273.656 343.358 273.78 342.979 274.027C342.601 274.274 342.311 274.652 342.11 275.162C342.805 275.162 343.504 275.162 344.207 275.162C344.91 275.162 345.609 275.162 346.304 275.162C346.119 274.637 345.844 274.254 345.481 274.015C345.118 273.776 344.697 273.656 344.219 273.656ZM365.117 278.869C365.117 279.827 364.851 280.611 364.318 281.221C363.785 281.831 363.071 282.275 362.175 282.553C361.279 282.831 360.279 282.951 359.174 282.912C358.07 282.873 356.946 282.692 355.803 282.368C355.803 281.781 355.803 281.178 355.803 280.56C355.803 279.942 355.803 279.34 355.803 278.753C356.452 279.047 357.101 279.274 357.749 279.437C358.398 279.599 358.985 279.695 359.51 279.726C360.035 279.757 360.46 279.715 360.785 279.599C361.109 279.483 361.271 279.286 361.271 279.008C361.271 278.792 361.136 278.622 360.866 278.498C360.595 278.375 360.244 278.263 359.811 278.162C359.379 278.062 358.919 277.938 358.433 277.792C357.946 277.645 357.487 277.436 357.054 277.166C356.622 276.896 356.27 276.533 356 276.077C355.73 275.621 355.595 275.031 355.595 274.305C355.595 273.44 355.846 272.702 356.348 272.092C356.85 271.482 357.525 271.019 358.375 270.702C359.224 270.385 360.174 270.227 361.225 270.227C362.275 270.227 363.349 270.405 364.445 270.76C364.445 271.347 364.445 271.949 364.445 272.567C364.445 273.185 364.445 273.787 364.445 274.374C363.58 273.957 362.769 273.679 362.012 273.54C361.256 273.401 360.646 273.382 360.182 273.482C359.719 273.583 359.487 273.795 359.487 274.119C359.487 274.336 359.622 274.502 359.893 274.617C360.163 274.733 360.51 274.838 360.935 274.93C361.36 275.023 361.816 275.146 362.302 275.301C362.789 275.455 363.244 275.668 363.669 275.938C364.094 276.208 364.441 276.579 364.712 277.05C364.982 277.521 365.117 278.128 365.117 278.869ZM380.061 278.869C380.061 279.827 379.795 280.611 379.262 281.221C378.729 281.831 378.015 282.275 377.119 282.553C376.223 282.831 375.223 282.951 374.118 282.912C373.014 282.873 371.89 282.692 370.747 282.368C370.747 281.781 370.747 281.178 370.747 280.56C370.747 279.942 370.747 279.34 370.747 278.753C371.396 279.047 372.045 279.274 372.693 279.437C373.342 279.599 373.929 279.695 374.454 279.726C374.979 279.757 375.404 279.715 375.729 279.599C376.053 279.483 376.215 279.286 376.215 279.008C376.215 278.792 376.08 278.622 375.81 278.498C375.539 278.375 375.188 278.263 374.755 278.162C374.323 278.062 373.863 277.938 373.377 277.792C372.89 277.645 372.431 277.436 371.998 277.166C371.566 276.896 371.214 276.533 370.944 276.077C370.674 275.621 370.539 275.031 370.539 274.305C370.539 273.44 370.79 272.702 371.292 272.092C371.794 271.482 372.469 271.019 373.319 270.702C374.169 270.385 375.118 270.227 376.169 270.227C377.219 270.227 378.293 270.405 379.389 270.76C379.389 271.347 379.389 271.949 379.389 272.567C379.389 273.185 379.389 273.787 379.389 274.374C378.524 273.957 377.713 273.679 376.957 273.54C376.2 273.401 375.59 273.382 375.126 273.482C374.663 273.583 374.431 273.795 374.431 274.119C374.431 274.336 374.566 274.502 374.837 274.617C375.107 274.733 375.454 274.838 375.879 274.93C376.304 275.023 376.76 275.146 377.246 275.301C377.733 275.455 378.188 275.668 378.613 275.938C379.038 276.208 379.385 276.579 379.656 277.05C379.926 277.521 380.061 278.128 380.061 278.869Z" fill="white"/>
</g>
<defs>
<clipPath id="clip0_31_1304">
<rect width="438" height="283" fill="white"/>
</clipPath>
</defs>
</svg>
