<svg width="605" height="344" viewBox="0 0 605 344" fill="none" xmlns="http://www.w3.org/2000/svg">
<path d="M537.086 85.8951C537.086 85.8951 495.366 38.1651 425.486 88.9261L412.46 75.1975C412.46 75.1975 488.245 13.9383 545.508 68.6427L553.321 49.0305L566.526 96.1941L519.383 101.501L537.086 85.8846V85.8951Z" fill="white"/>
<path d="M503.116 46.9643C503.116 46.9643 454.568 44.5207 438.438 80.4204L425.475 88.9365L412.449 75.208C412.449 75.208 456.823 38.5636 503.116 46.9748V46.9643Z" fill="#C8C8C8"/>
<path d="M535.01 65.9996C535.01 65.9996 517.369 44.3109 479.855 50.8343C479.855 50.8343 479.047 50.3938 492.461 51.4845C504.994 52.5018 513.059 52.2606 535.01 65.9996Z" fill="white"/>
<path d="M559.971 91.2127C559.971 91.2127 559.74 77.61 553.353 66.0629C550.5 60.9029 560.537 102.33 559.971 91.2127Z" fill="white"/>
<path d="M441.899 258.105C441.899 258.105 483.619 305.835 553.5 255.074L566.526 268.802C566.526 268.802 490.741 330.062 433.477 275.357L425.664 294.97L412.46 247.806L459.602 242.499L441.899 258.115V258.105Z" fill="#C8C8C8"/>
<path d="M475.858 297.035C475.858 297.035 524.406 299.479 540.537 263.579L553.5 255.063L566.525 268.792C566.525 268.792 522.152 305.436 475.858 297.025V297.035Z" fill="white"/>
<path d="M443.976 278C443.976 278 461.616 299.689 499.131 293.166C499.131 293.166 499.939 293.606 486.525 292.515C473.992 291.498 465.927 291.739 443.976 278Z" fill="white"/>
<path d="M419.015 252.787C419.015 252.787 419.246 266.39 425.633 277.937C428.485 283.097 418.449 241.67 419.015 252.787Z" fill="white"/>
<path d="M435.449 131.832C436.896 134.821 437.641 137.055 437.683 138.544C437.725 140.212 437.505 141.816 437.022 143.347C436.403 145.141 435.575 146.106 434.526 146.242C432.334 146.546 430.31 145.455 428.475 142.949C428.212 142.55 427.929 141.921 427.615 141.04C427.216 139.813 426.954 139.047 426.828 138.733C425.999 136.845 424.594 135.723 422.612 135.377C419.413 134.81 416.844 136.604 414.914 140.778C413.162 144.637 412.743 148.371 413.666 151.968C414.673 155.828 418.406 161.449 424.856 168.812C429.681 174.339 433.152 178.838 435.25 182.299C438.889 188.351 440.273 194.843 439.392 201.775C438.511 209.012 435.375 213.909 429.985 216.447C426.692 217.979 423.115 218.597 419.256 218.293C415.438 217.947 412.365 216.804 410.047 214.874C405.968 211.455 403.335 207.501 402.15 203.033C400.22 195.619 399.654 190.511 400.441 187.7C401.584 183.663 403.514 181.628 406.23 181.586C408.244 181.586 409.691 183.117 410.572 186.19C410.876 187.197 411.138 188.539 411.358 190.207C411.663 192.179 411.862 193.343 411.946 193.699C413.477 200.936 416.067 204.953 419.707 205.739C423.87 206.662 426.304 204.879 427.006 200.412C427.625 196.51 427.027 192.934 425.234 189.683C425.097 189.42 420.252 183.673 410.687 172.441C404.237 164.805 400.996 157.065 400.944 149.21C400.86 140.83 403.755 134.055 409.628 128.874C416.036 123.211 423.315 122.466 431.474 126.64C433.362 128.57 434.673 130.301 435.417 131.842L435.449 131.832Z" fill="white"/>
<path d="M454.925 152.629C455.973 164.029 456.917 171.979 457.756 176.447C458.501 174.653 459.906 170.416 461.973 163.746C463.944 157.432 465.486 153.09 466.577 150.72C468.108 147.343 469.408 145.634 470.457 145.592C471.464 145.55 472.324 146.252 473.027 147.7L474.411 151.454C479.54 165.623 482.592 173.846 483.556 176.132C486.231 149.021 488.035 132.419 488.947 126.315C493.111 125.392 495.093 124.952 494.873 124.994C497.683 124.648 499.55 125.172 500.463 126.577C500.725 126.976 500.568 130.615 500.001 137.506C496.362 179.352 493.834 205.876 492.44 217.066C488.664 218.859 485.706 218.671 483.556 216.468C483.21 216.122 482.172 213.29 480.463 207.984C474.054 187.847 470.677 177.454 470.331 176.793C469.062 180.128 467.059 186.84 464.343 196.93C461.847 206.41 459.76 213.028 458.092 216.804C455.46 218.734 452.345 218.912 448.747 217.328C448.223 214.874 447.321 207.396 446.052 194.895C445.391 187.837 444.542 178.471 443.483 166.798C442.213 151.968 441.374 142.299 440.986 137.778C440.368 131.15 440.284 127.427 440.724 126.588C441.689 124.7 443.42 123.934 445.926 124.28C447.29 124.459 449.324 125.13 452.041 126.326C452.743 131.15 453.708 139.928 454.935 152.65L454.925 152.629Z" fill="white"/>
<path d="M537.579 149.399C542.928 186.295 546.022 208.581 546.861 216.259C545.854 217.307 544.229 217.884 541.995 217.968C541.292 218.01 540.264 217.989 538.901 217.905C537.453 217.863 536.447 217.842 535.87 217.842C534.905 216.133 534.066 213.563 533.374 210.144C532.493 205.76 531.727 202.603 531.066 200.663C529.483 200.663 526.829 200.684 523.106 200.726C519.425 200.768 516.792 200.789 515.209 200.789C514.768 202.236 514.286 205.309 513.761 210.008C513.363 213.909 512.618 216.699 511.528 218.367C511.611 218.367 509.535 218.283 505.277 218.104C503.043 218.02 501.375 217.517 500.274 216.594C500.536 213.878 505.015 183.516 513.699 125.529C522.739 123.42 529.378 123.42 533.636 125.529C534.422 128.906 535.744 136.866 537.579 149.42V149.399ZM516.058 188.948H530.143C529.965 186.977 529.504 181.25 528.759 171.78C528.098 164.103 527.49 157.632 526.913 152.367C526.294 147.102 525.141 144.449 523.421 144.407C522.498 144.805 521.774 145.854 521.25 147.563C519.666 159.236 517.936 173.028 516.048 188.948H516.058Z" fill="white"/>
<path d="M561.533 218.042C560.264 218.22 559.32 218.325 558.701 218.367C556.468 218.451 554.905 217.821 554.024 216.458C553.898 216.196 553.825 212.399 553.825 205.079C553.825 179.635 554.202 153.594 554.947 126.966C556.216 125.56 557.883 124.753 559.95 124.532C560.516 124.49 561.533 124.448 562.981 124.406C564.386 124.365 565.529 124.281 566.4 124.144C574.643 123.179 580.684 125.707 584.491 131.716C587.47 136.415 588.99 145.948 589.032 160.338C589.074 176.258 584.795 185.781 576.206 188.896C575.377 189.2 573.552 189.515 570.742 189.819C568.413 190.039 567.008 190.438 566.525 191.004C566.085 191.528 565.644 196.164 565.214 204.89C564.774 212.787 564.386 217.087 564.029 217.79C563.505 217.79 562.666 217.874 561.533 218.052V218.042ZM564.564 170.595C564.826 172.483 565.571 174.234 566.798 175.86C568.162 177.569 569.556 178.408 571.014 178.356C572.462 178.314 573.825 177.412 575.094 175.66C576.237 174.077 576.94 172.388 577.202 170.595V156.185C577.202 147.847 577.045 142.823 576.741 141.114C575.818 135.723 573.405 133.52 569.504 134.538C566.693 135.24 565.047 137.957 564.564 142.697V170.595Z" fill="white"/>
<path d="M46.6707 124.48C46.4504 127.699 46.2616 130.217 46.0833 132.041C44.6465 151.108 43.1048 169.808 41.4582 188.141C40.9758 193.259 39.6124 195.671 37.3575 195.367C36.6548 195.241 35.9836 194.171 35.3333 192.179C34.8614 190.658 34.5573 189.399 34.4209 188.392C34.2531 186.4 33.8336 182.834 33.1833 177.716C32.4492 171.633 31.8199 166.137 31.2955 161.229C30.037 150.112 28.7994 140.211 27.5829 131.517C27.1948 128.874 26.8382 126.546 26.5341 124.553C25.6741 124.595 24.4994 124.595 23.0207 124.553C21.458 124.511 20.3673 124.511 19.759 124.553C17.4202 124.595 15.7212 125.14 14.6829 126.179C14.9451 129.178 15.1758 131.895 15.396 134.328C17.0951 152.87 19.9163 178.429 23.8702 211.004C23.996 211.917 24.1953 213.521 24.4575 215.829C28.9253 217.863 35.7948 218.262 45.0451 217.003C46.9119 216.741 48.6004 216.437 50.1212 216.091C50.5197 213.962 50.8868 211.591 51.2329 208.99C51.4007 207.984 52.009 203.096 53.0577 194.329C55.9629 169.871 57.987 149.567 59.1197 133.405C59.3294 130.584 59.5077 128.004 59.6336 125.654C58.8994 125.182 54.5785 124.784 46.6707 124.48Z" fill="white"/>
<path d="M94.7574 149.441C92.9325 137.013 91.6215 129.136 90.8454 125.791C86.6293 123.704 80.0535 123.704 71.1074 125.791C62.5074 183.211 58.071 213.269 57.8088 215.954C58.8996 216.867 60.5462 217.37 62.7591 217.454C66.8913 217.632 68.9574 217.716 68.9574 217.716C70.0376 216.07 70.7823 213.311 71.1703 209.441C71.6842 204.795 72.1666 201.754 72.5966 200.317C74.1698 200.317 76.7708 200.296 80.4205 200.254C84.1123 200.212 86.7342 200.191 88.3074 200.191C88.9576 202.1 89.7127 205.225 90.5832 209.567C91.2754 212.955 92.104 215.503 93.0584 217.192C93.6247 217.192 94.621 217.213 96.0579 217.255C97.4003 217.349 98.4176 217.37 99.1203 217.328C101.333 217.234 102.938 216.667 103.934 215.629C103.116 208.026 100.054 185.97 94.7574 149.441ZM73.4462 188.592C75.313 172.828 77.033 159.163 78.5957 147.616C79.1201 145.917 79.8332 144.878 80.7457 144.49C82.4342 144.532 83.5879 147.154 84.1962 152.367C84.7625 157.579 85.3708 163.987 86.021 171.591C86.7552 180.967 87.2166 186.641 87.3949 188.592H73.4462Z" fill="white"/>
<path d="M154.58 138.827C154.58 138.009 154.58 137.212 154.569 136.426C154.569 134.748 154.548 133.153 154.527 131.654C154.517 131.234 154.517 130.815 154.517 130.416C154.485 128.99 154.464 127.637 154.433 126.378C154.38 126.336 154.328 126.305 154.265 126.263C154.202 126.221 154.139 126.179 154.076 126.137C153.992 126.074 153.898 126.022 153.804 125.959C153.206 125.602 152.545 125.298 151.832 125.067C151.79 125.067 151.738 125.036 151.696 125.025C150.867 124.763 149.944 124.574 148.958 124.48C146.483 124.27 144.637 124.742 143.421 125.917C143.368 126.578 143.326 127.375 143.274 128.319C143.253 128.885 143.221 129.504 143.2 130.175C142.833 138.513 142.508 154.737 142.183 178.859C141.869 177.957 136.719 164.816 126.745 139.404C126.525 138.88 126.137 137.716 125.57 135.891C124.92 133.888 124.417 132.367 124.071 131.329C122.676 127.5 121.459 125.424 120.421 125.067C119.162 124.679 117.579 124.595 115.67 124.805C113.489 125.067 111.884 125.676 110.846 126.63C110.416 160.558 110.562 187.659 111.297 207.942C111.517 213.154 111.758 215.934 112.02 216.28C113.059 217.496 114.82 217.937 117.296 217.591C117.904 217.538 118.879 217.37 120.222 217.066C121.354 216.804 122.162 216.668 122.634 216.668C122.55 206.075 122.487 188.487 122.445 163.904C123.704 166.2 126 170.826 129.346 177.779C133.038 185.508 135.345 190.249 136.258 191.979C138.817 196.93 140.232 200.108 140.484 201.492C140.841 203.191 141.071 205.75 141.208 209.179C141.334 212.399 141.617 214.895 142.047 216.668C142.403 216.72 143.242 216.867 144.595 217.129C145.938 217.391 147.029 217.538 147.847 217.591C150.542 217.842 152.325 217.349 153.195 216.091C153.709 215.346 153.971 211.833 153.971 205.53C153.971 199.971 154.129 186.421 154.433 164.879C154.538 156.751 154.59 149.567 154.59 143.306C154.59 141.753 154.59 140.264 154.58 138.827Z" fill="white"/>
<path d="M288.949 206.316C288.079 204.963 284.398 204.407 277.874 204.617C270.753 204.879 266.327 204.512 264.586 203.516C264.408 200.6 264.324 186.987 264.324 162.666C264.324 160.925 264.366 157.716 264.46 153.017C264.544 148.371 264.586 144.962 264.586 142.791V142.068C264.586 141.407 264.586 140.767 264.576 140.149C264.555 131.37 264.408 126.84 264.135 126.567C263.045 125.487 261.22 124.899 258.661 124.805C256.72 124.742 255.074 124.994 253.752 125.539C253.228 125.749 252.766 126 252.336 126.305C252.284 127.27 252.242 128.266 252.2 129.294C252.137 130.93 252.074 132.65 252.011 134.443C251.938 136.939 251.875 139.582 251.823 142.393C251.686 149.074 251.623 156.635 251.623 165.078C251.623 185.875 251.644 198.775 251.686 203.778C251.728 209.987 252.515 213.825 254.035 215.304C255.766 216.951 258.891 217.758 263.412 217.716C264.282 217.716 266.254 217.632 269.348 217.454C271.823 217.286 273.753 217.234 275.137 217.328C282.741 217.632 286.936 217.454 287.712 216.804C288.498 216.112 289.065 214.434 289.411 211.791C289.715 209.095 289.558 207.27 288.949 206.316Z" fill="white"/>
<path d="M333.061 206.316C332.191 204.963 328.499 204.407 321.986 204.617C314.865 204.879 310.429 204.512 308.698 203.516C308.52 200.6 308.436 186.987 308.436 162.666C308.436 160.925 308.478 157.716 308.562 153.017C308.646 148.371 308.698 144.962 308.698 142.791C308.698 132.283 308.541 126.871 308.237 126.567C307.156 125.487 305.331 124.899 302.762 124.805C300.067 124.721 297.969 125.224 296.448 126.305C295.966 135.995 295.725 148.916 295.725 165.078C295.725 185.875 295.746 198.775 295.798 203.778C295.84 209.987 296.616 213.825 298.137 215.304C299.878 216.951 303.003 217.758 307.523 217.716C308.394 217.716 310.366 217.632 313.449 217.454C315.924 217.286 317.854 217.234 319.249 217.328C326.852 217.632 331.037 217.454 331.824 216.804C332.6 216.112 333.166 214.434 333.512 211.791C333.816 209.095 333.669 207.27 333.061 206.316Z" fill="white"/>
<path d="M376.25 149.441C374.436 137.013 373.125 129.136 372.349 125.791C368.132 123.704 361.557 123.704 352.611 125.791C344.011 183.211 339.574 213.269 339.312 215.954C340.403 216.867 342.049 217.37 344.262 217.454C348.394 217.632 350.461 217.716 350.461 217.716C351.541 216.07 352.275 213.311 352.673 209.441C353.187 204.795 353.67 201.754 354.1 200.317C355.663 200.317 358.274 200.296 361.924 200.254C365.615 200.212 368.237 200.191 369.811 200.191C370.461 202.1 371.216 205.225 372.086 209.567C372.779 212.955 373.607 215.503 374.562 217.192C375.128 217.192 376.124 217.213 377.561 217.255C378.903 217.349 379.921 217.37 380.623 217.328C382.836 217.234 384.441 216.667 385.437 215.629C384.619 208.026 381.557 185.97 376.25 149.441ZM354.949 188.592C356.816 172.828 358.536 159.163 360.099 147.616C360.623 145.917 361.336 144.878 362.249 144.49C363.937 144.532 365.091 147.154 365.699 152.367C366.266 157.579 366.874 163.987 367.524 171.591C368.258 180.967 368.72 186.641 368.898 188.592H354.949Z" fill="white"/>
<mask id="mask0_31_1549" style="mask-type:luminance" maskUnits="userSpaceOnUse" x="169" y="132" width="71" height="108">
<path d="M205.053 239.553C204.917 239.553 204.781 239.553 204.634 239.553C204.613 239.553 204.508 239.553 204.476 239.553C204.34 239.553 204.193 239.553 204.057 239.553C200.397 239.553 197.439 238.399 195.268 236.134C193.831 234.624 193.181 233.061 193.045 232.694L176.023 164.576C175.562 162.709 174.177 161.461 172.604 161.461C172.3 161.461 171.996 161.503 171.692 161.597C171.639 161.597 171.524 161.618 171.377 161.618C170.569 161.618 170.276 161.356 170.024 160.38C169.804 159.52 169.951 159.059 170.265 158.618C170.601 158.136 171.083 157.79 171.272 157.675C172.94 156.867 173.747 154.853 173.307 152.829L171.104 142.551C173.674 136.07 178.362 132.913 185.41 132.913C193.097 132.913 200.827 136.647 203.008 137.8C203.501 138.052 204.025 138.188 204.55 138.188C205.074 138.188 205.599 138.062 206.092 137.8C208.273 136.657 216.003 132.913 223.69 132.913C230.738 132.913 235.426 136.07 237.995 142.551L235.793 152.829C235.363 154.853 236.16 156.867 237.828 157.675C238.016 157.79 238.499 158.136 238.834 158.618C239.149 159.069 239.296 159.52 239.076 160.38C238.824 161.345 238.53 161.618 237.723 161.618C237.576 161.618 237.471 161.607 237.408 161.597C237.104 161.503 236.789 161.461 236.496 161.461C234.912 161.461 233.538 162.709 233.077 164.576L216.055 232.694C215.919 233.071 215.268 234.624 213.832 236.134C211.661 238.399 208.713 239.553 205.043 239.553H205.053Z" fill="white"/>
</mask>
<g mask="url(#mask0_31_1549)">
<path d="M266.008 124.942H165.367V250.125H266.008V124.942Z" fill="#C8C8C8"/>
<path d="M315.962 177.067L313.896 174.696L297.136 193.847L290.791 186.6L307.551 167.449L305.485 165.079L288.725 184.23L282.38 176.983L299.14 157.832L297.073 155.462L280.314 174.613L273.969 167.366L290.728 148.215L288.662 145.845L271.903 164.995L265.558 157.748L282.317 138.597L280.251 136.227L263.491 155.378L257.146 148.131L273.906 128.98L271.84 126.61L255.08 145.761L248.735 138.514L265.495 119.363L263.429 116.993L246.669 136.143L240.324 128.886L257.083 109.746L255.017 107.375L238.258 126.515L231.913 119.268L248.672 100.118L246.606 97.7475L229.847 116.898L223.501 109.651L240.261 90.5004L238.195 88.1301L221.435 107.281L215.09 100.034L231.85 80.8936L229.784 78.5233L213.024 97.6636L206.679 90.4165L223.439 71.2657L221.372 68.8955L204.613 88.0462L187.853 68.8955L185.787 71.2657L202.547 90.4165L196.202 97.6636L179.442 78.5128L177.376 80.8831L194.136 100.034L187.79 107.281L171.031 88.1406L168.965 90.5109L185.724 109.662L179.379 116.909L162.62 97.7579L160.554 100.128L177.313 119.279L170.968 126.526L154.209 107.386L152.142 109.756L168.902 128.896L162.557 136.143L145.797 116.993L143.731 119.363L160.491 138.514L154.146 145.761L137.386 126.62L135.32 128.991L152.08 148.131L145.734 155.378L128.975 136.238L126.909 138.608L143.668 157.759L137.323 165.006L120.564 145.855L118.498 148.225L135.257 167.376L128.912 174.623L112.152 155.483L110.086 157.853L126.846 176.993L120.501 184.24L103.741 165.09L101.675 167.46L118.435 186.611L112.09 193.858L95.33 174.717L93.2639 177.088L110.023 196.228L93.2639 215.379L95.33 217.749L112.09 198.598L118.435 205.856L101.675 224.996L103.741 227.366L120.501 208.226L126.846 215.473L110.086 234.613L112.152 236.984L128.912 217.843L135.257 225.09L118.508 244.231L120.574 246.601L137.323 227.461L143.668 234.718L126.909 253.858L128.975 256.229L145.734 237.088L152.08 244.335L135.32 263.486L137.386 265.856L154.146 246.706L160.491 253.963L143.731 273.104L145.797 275.474L162.557 256.334L168.902 263.581L152.142 282.721L154.209 285.091L170.958 265.951L177.303 273.198L160.554 292.338L162.62 294.708L179.369 275.568L185.714 282.826L168.954 301.966L171.02 304.336L187.78 285.196L194.125 292.443L177.376 311.583L179.442 313.954L196.191 294.813L202.536 302.071L185.777 321.211L187.843 323.581L204.602 304.441L221.362 323.592L223.428 321.222L206.669 302.071L213.014 294.813L229.773 313.964L231.839 311.594L215.08 292.443L221.425 285.196L238.184 304.347L240.25 301.976L223.491 282.826L229.836 275.579L246.596 294.729L248.662 292.359L231.902 273.208L238.247 265.961L255.007 285.112L257.073 282.742L240.313 263.591L246.659 256.344L263.418 275.495L265.484 273.125L248.725 253.974L255.07 246.727L271.829 265.877L273.895 263.507L257.136 244.356L263.481 237.109L280.24 256.26L282.307 253.89L265.547 234.739L271.892 227.482L288.652 246.632L290.718 244.262L273.958 225.111L280.303 217.864L297.063 237.015L299.129 234.645L282.37 215.494L288.715 208.247L305.474 227.398L307.54 225.027L290.781 205.877L297.126 198.63L313.885 217.78L315.951 215.41L299.192 196.259L315.951 177.109L315.962 177.067ZM286.649 186.6L280.303 193.847L273.958 186.6L280.303 179.353L286.649 186.6ZM206.627 186.6L212.972 179.353L219.317 186.611L212.972 193.858L206.627 186.6ZM210.906 196.217L204.56 203.465L198.215 196.217L204.56 188.97L210.906 196.228V196.217ZM204.56 184.23L198.215 176.983L204.56 169.736L210.906 176.983L204.56 184.23ZM202.494 186.6L196.149 193.847L189.804 186.6L196.149 179.343L202.494 186.59V186.6ZM194.073 196.217L187.728 203.465L181.382 196.217L187.728 188.97L194.073 196.217ZM196.139 198.588L202.484 205.845L196.139 213.092L189.794 205.845L196.139 198.588ZM204.56 208.205L210.906 215.452L204.56 222.699L198.215 215.452L204.56 208.205ZM206.627 205.835L212.972 198.588L219.317 205.835L212.972 213.082L206.627 205.835ZM215.038 196.217L221.383 188.97L227.728 196.217L221.383 203.465L215.038 196.217ZM223.449 186.6L229.794 179.343L236.139 186.59L229.794 193.837L223.449 186.59V186.6ZM221.383 184.23L215.038 176.972L221.383 169.725L227.728 176.972L221.383 184.23ZM212.972 174.613L206.627 167.366L212.972 160.118L219.317 167.366L212.972 174.613ZM204.55 164.995L198.205 157.748L204.55 150.491L210.895 157.748L204.55 164.995ZM202.484 167.366L196.139 174.613L189.794 167.366L196.139 160.118L202.484 167.366ZM194.073 176.983L187.728 184.24L181.382 176.983L187.728 169.736L194.073 176.983ZM185.661 186.6L179.316 193.847L172.971 186.6L179.316 179.353L185.661 186.611V186.6ZM177.24 196.217L170.895 203.465L164.55 196.217L170.895 188.97L177.24 196.217ZM179.306 198.588L185.651 205.845L179.306 213.092L172.961 205.845L179.306 198.588ZM187.728 208.205L194.073 215.452L187.728 222.699L181.382 215.442L187.728 208.195V208.205ZM196.139 217.822L202.484 225.069L196.139 232.327L189.794 225.08L196.139 217.833V217.822ZM204.55 227.44L210.895 234.687L204.55 241.934L198.205 234.687L204.55 227.429V227.44ZM206.616 225.069L212.961 217.822L219.306 225.069L212.961 232.316L206.616 225.069ZM215.027 215.452L221.372 208.205L227.718 215.452L221.372 222.699L215.027 215.452ZM223.439 205.835L229.784 198.588L236.129 205.835L229.784 213.082L223.439 205.835ZM231.86 196.217L238.205 188.97L244.55 196.217L238.205 203.465L231.86 196.217ZM240.271 186.6L246.617 179.343L252.962 186.6L246.617 193.847L240.271 186.6ZM238.205 184.23L231.86 176.983L238.205 169.736L244.55 176.983L238.205 184.24V184.23ZM229.794 174.613L223.449 167.366L229.794 160.118L236.139 167.366L229.794 174.613ZM221.372 164.995L215.027 157.748L221.372 150.501L227.718 157.748L221.372 164.995ZM212.961 155.378L206.616 148.131L212.961 140.884L219.306 148.131L212.961 155.378ZM204.54 145.761L198.194 138.514L204.54 131.256L210.885 138.503L204.54 145.75V145.761ZM202.473 148.131L196.128 155.378L189.783 148.131L196.128 140.884L202.473 148.131ZM194.062 157.748L187.717 164.995L181.372 157.748L187.717 150.501L194.062 157.748ZM185.651 167.366L179.306 174.613L172.961 167.366L179.306 160.118L185.651 167.366ZM177.229 176.983L170.884 184.23L164.539 176.983L170.884 169.736L177.229 176.983ZM168.818 186.6L162.473 193.847L156.128 186.6L162.473 179.353L168.818 186.6ZM160.407 196.217L154.062 203.465L147.717 196.217L154.062 188.97L160.407 196.217ZM162.473 198.588L168.818 205.845L162.473 213.092L156.128 205.835L162.473 198.588ZM170.884 208.205L177.229 215.452L170.884 222.699L164.539 215.452L170.884 208.205ZM179.295 217.822L185.64 225.08L179.295 232.327L172.95 225.069L179.295 217.822ZM187.717 227.44L194.062 234.687L187.717 241.934L181.372 234.687L187.717 227.44ZM196.128 237.057L202.473 244.304L196.128 251.551L189.783 244.304L196.128 237.057ZM204.54 246.674L210.885 253.921L204.54 261.168L198.194 253.911L204.54 246.664V246.674ZM206.606 244.304L212.951 237.057L219.296 244.304L212.951 251.551L206.606 244.304ZM215.017 234.687L221.362 227.44L227.707 234.697L221.362 241.944L215.017 234.697V234.687ZM223.428 225.069L229.773 217.822L236.118 225.069L229.773 232.327L223.428 225.069ZM231.85 215.452L238.195 208.205L244.54 215.452L238.195 222.699L231.85 215.452ZM240.261 205.835L246.606 198.588L252.951 205.845L246.606 213.092L240.261 205.835ZM248.672 196.217L255.017 188.97L261.362 196.217L255.017 203.465L248.672 196.217ZM257.083 186.6L263.429 179.353L269.774 186.611L263.429 193.858L257.083 186.611V186.6ZM255.017 184.23L248.672 176.972L255.017 169.725L261.362 176.972L255.017 184.219V184.23ZM246.606 174.613L240.261 167.366L246.606 160.118L252.951 167.366L246.606 174.613ZM238.195 164.995L231.85 157.748L238.195 150.501L244.54 157.759L238.195 165.006V164.995ZM229.784 155.378L223.439 148.131L229.784 140.884L236.129 148.131L229.784 155.378ZM221.372 145.761L215.027 138.514L221.372 131.266L227.718 138.524L221.372 145.771V145.761ZM212.961 136.143L206.616 128.896L212.961 121.649L219.306 128.896L212.961 136.154V136.143ZM204.54 126.526L198.194 119.279L204.54 112.032L210.885 119.279L204.54 126.526ZM202.473 128.896L196.128 136.154L189.783 128.896L196.128 121.649L202.473 128.896ZM194.062 138.514L187.717 145.761L181.372 138.514L187.717 131.256L194.062 138.514ZM185.651 148.131L179.306 155.378L172.961 148.131L179.306 140.884L185.651 148.131ZM177.24 157.748L170.895 164.995L164.55 157.748L170.895 150.491L177.24 157.738V157.748ZM168.829 167.366L162.483 174.613L156.138 167.366L162.483 160.118L168.829 167.366ZM160.417 176.983L154.072 184.23L147.727 176.983L154.072 169.736L160.417 176.983ZM151.996 186.6L145.651 193.847L139.305 186.6L145.651 179.353L151.996 186.6ZM143.584 196.217L137.239 203.465L130.894 196.217L137.239 188.97L143.584 196.217ZM145.651 198.588L151.996 205.835L145.651 213.082L139.305 205.835L145.651 198.588ZM154.062 208.205L160.407 215.452L154.062 222.699L147.717 215.452L154.062 208.205ZM162.483 217.822L168.829 225.069L162.483 232.316L156.138 225.069L162.483 217.822ZM170.895 227.44L177.24 234.697L170.895 241.944L164.55 234.687L170.895 227.44ZM179.306 237.057L185.651 244.304L179.306 251.551L172.961 244.304L179.306 237.057ZM187.717 246.674L194.062 253.921L187.717 261.168L181.372 253.921L187.717 246.674ZM196.128 256.292L202.473 263.539L196.128 270.786L189.783 263.539L196.128 256.292ZM204.55 265.909L210.895 273.156L204.55 280.403L198.205 273.156L204.55 265.909ZM206.616 263.539L212.961 256.292L219.306 263.539L212.961 270.786L206.616 263.539ZM215.027 253.921L221.372 246.674L227.718 253.921L221.372 261.179L215.027 253.932V253.921ZM223.439 244.304L229.784 237.057L236.129 244.304L229.784 251.551L223.439 244.304ZM231.86 234.687L238.205 227.429L244.55 234.676L238.205 241.923L231.86 234.676V234.687ZM240.271 225.069L246.617 217.822L252.962 225.069L246.617 232.316L240.271 225.069ZM248.683 215.452L255.028 208.205L261.373 215.452L255.028 222.699L248.683 215.452ZM257.094 205.835L263.439 198.577L269.784 205.824L263.439 213.082L257.094 205.835ZM265.516 196.217L271.861 188.97L278.206 196.217L271.861 203.465L265.516 196.217ZM278.206 176.983L271.861 184.23L265.516 176.972L271.861 169.725L278.206 176.972V176.983ZM269.795 167.366L263.45 174.613L257.104 167.366L263.45 160.118L269.795 167.366ZM261.383 157.748L255.038 164.995L248.693 157.748L255.038 150.501L261.383 157.748ZM252.972 148.131L246.627 155.378L240.282 148.131L246.627 140.884L252.972 148.131ZM244.55 138.514L238.205 145.761L231.86 138.514L238.205 131.256L244.55 138.514ZM236.129 128.896L229.784 136.154L223.439 128.896L229.784 121.649L236.129 128.896ZM227.718 119.279L221.372 126.526L215.027 119.279L221.372 112.032L227.718 119.279ZM219.306 109.662L212.961 116.909L206.616 109.662L212.961 102.415L219.306 109.662ZM204.54 92.7972L210.885 100.044L204.54 107.291L198.194 100.044L204.54 92.7972ZM196.118 102.415L202.463 109.662L196.118 116.909L189.773 109.662L196.118 102.415ZM187.707 112.032L194.052 119.279L187.707 126.526L181.361 119.279L187.707 112.032ZM179.295 121.649L185.64 128.896L179.295 136.154L172.95 128.896L179.295 121.649ZM170.884 131.266L177.229 138.524L170.884 145.771L164.539 138.524L170.884 131.277V131.266ZM162.473 140.884L168.818 148.131L162.473 155.378L156.128 148.131L162.473 140.884ZM154.051 150.501L160.396 157.759L154.051 165.006L147.706 157.759L154.051 150.501ZM145.64 160.118L151.985 167.366L145.64 174.613L139.295 167.366L145.64 160.118ZM137.218 169.736L143.563 176.983L137.218 184.23L130.873 176.972L137.218 169.725V169.736ZM128.807 179.353L135.152 186.611L128.807 193.858L122.462 186.611L128.807 179.364V179.353ZM114.04 196.217L120.385 188.97L126.73 196.217L120.385 203.465L114.04 196.217ZM122.462 205.835L128.807 198.577L135.152 205.824L128.807 213.082L122.462 205.835ZM130.873 215.452L137.218 208.205L143.563 215.452L137.218 222.699L130.873 215.452ZM139.284 225.069L145.63 217.822L151.975 225.069L145.63 232.327L139.284 225.069ZM147.706 234.687L154.051 227.429L160.396 234.676L154.051 241.923L147.706 234.676V234.687ZM156.117 244.304L162.462 237.057L168.808 244.315L162.462 251.562L156.117 244.304ZM164.539 253.921L170.884 246.664L177.229 253.911L170.884 261.168L164.539 253.921ZM172.95 263.539L179.295 256.292L185.64 263.539L179.295 270.786L172.95 263.539ZM181.361 273.156L187.707 265.909L194.052 273.156L187.707 280.414L181.361 273.156ZM189.783 282.773L196.128 275.516L202.473 282.763L196.128 290.01L189.783 282.763V282.773ZM204.55 299.638L198.205 292.391L204.55 285.144L210.895 292.391L204.55 299.638ZM212.972 290.02L206.627 282.773L212.972 275.526L219.317 282.784L212.972 290.031V290.02ZM221.383 280.403L215.038 273.145L221.383 265.898L227.728 273.145L221.383 280.393V280.403ZM229.805 270.786L223.46 263.539L229.805 256.292L236.15 263.539L229.805 270.786ZM238.216 261.168L231.871 253.911L238.216 246.664L244.561 253.911L238.216 261.168ZM246.627 251.551L240.282 244.304L246.627 237.057L252.972 244.304L246.627 251.551ZM255.038 241.934L248.693 234.687L255.038 227.44L261.383 234.697L255.038 241.944V241.934ZM263.45 232.316L257.104 225.059L263.45 217.812L269.795 225.059L263.45 232.316ZM271.861 222.699L265.516 215.452L271.861 208.205L278.206 215.452L271.861 222.699ZM280.282 213.082L273.937 205.824L280.282 198.577L286.628 205.824L280.282 213.071V213.082ZM288.694 203.465L282.349 196.217L288.694 188.97L295.039 196.217L288.694 203.465Z" fill="white"/>
<path d="M315.962 175.766L313.896 173.396L297.136 192.547L290.791 185.3L307.551 166.149L305.485 163.779L288.725 182.93L282.38 175.683L299.14 156.532L297.073 154.162L280.314 173.312L273.969 166.055L290.728 146.904L288.662 144.534L271.903 163.684L265.558 156.437L282.317 137.287L280.251 134.916L263.491 154.067L257.146 146.82L273.906 127.669L271.84 125.299L255.08 144.45L248.735 137.203L265.495 118.052L263.429 115.682L246.669 134.833L240.324 127.585L257.083 108.435L255.017 106.064L238.258 125.215L231.913 117.958L248.672 98.8174L246.606 96.4472L229.847 115.587L223.501 108.34L240.261 89.1896L238.195 86.8193L221.435 105.97L215.09 98.7125L231.85 79.5723L229.784 77.202L213.024 96.3423L206.679 89.0952L223.439 69.955L221.372 67.5847L204.613 86.725L187.853 67.5847L185.787 69.955L202.547 89.0952L196.202 96.3423L179.442 77.1915L177.376 79.5618L194.136 98.7125L187.79 105.96L171.031 86.8089L168.965 89.1791L185.724 108.33L179.379 115.577L162.62 96.4262L160.554 98.7964L177.313 117.947L170.968 125.194L154.209 106.043L152.142 108.414L168.902 127.564L162.557 134.812L145.797 115.671L143.731 118.042L160.491 137.182L154.146 144.429L137.386 125.289L135.32 127.659L152.08 146.799L145.734 154.057L128.975 134.906L126.909 137.276L143.668 156.427L137.323 163.674L120.564 144.534L118.498 146.904L135.257 166.044L128.912 173.291L112.152 154.141L110.086 156.511L126.846 175.662L120.501 182.909L103.741 163.768L101.675 166.139L118.435 185.279L112.09 192.526L95.33 173.386L93.2639 175.756L110.023 194.896L93.2639 214.047L95.33 216.417L112.09 197.266L118.435 204.524L101.675 223.664L103.741 226.034L120.501 206.894L126.846 214.141L110.086 233.292L112.152 235.662L128.912 216.512L135.257 223.759L118.508 242.899L120.574 245.269L137.323 226.129L143.668 233.376L126.909 252.516L128.975 254.886L145.734 235.746L152.08 242.993L135.32 262.144L137.386 264.514L154.146 245.363L160.491 252.621L143.731 271.761L145.797 274.132L162.557 254.991L168.902 262.238L152.142 281.379L154.209 283.749L170.958 264.609L177.303 271.856L160.554 290.996L162.62 293.366L179.369 274.226L185.714 281.473L168.954 300.613L171.02 302.983L187.78 283.843L194.125 291.09L177.376 310.231L179.442 312.601L196.191 293.461L202.536 300.718L185.777 319.858L187.843 322.229L204.602 303.088L221.362 322.239L223.428 319.869L206.669 300.718L213.014 293.461L229.773 312.611L231.839 310.241L215.08 291.09L221.425 283.843L238.184 302.994L240.25 300.624L223.491 281.473L229.836 274.226L246.596 293.377L248.662 291.006L231.902 271.856L238.247 264.598L255.007 283.749L257.073 281.379L240.313 262.228L246.659 254.981L263.418 274.132L265.484 271.761L248.725 252.611L255.07 245.363L271.829 264.514L273.895 262.144L257.136 242.993L263.481 235.746L280.24 254.897L282.307 252.527L265.547 233.376L271.892 226.129L288.652 245.28L290.718 242.909L273.958 223.759L280.303 216.501L297.063 235.652L299.129 233.282L282.37 214.131L288.715 206.884L305.474 226.034L307.54 223.664L290.781 204.513L297.126 197.266L313.885 216.417L315.951 214.047L299.192 194.896L315.951 175.745L315.962 175.766ZM286.649 185.3L280.303 192.547L273.958 185.3L280.303 178.053L286.649 185.3ZM206.627 185.3L212.972 178.053L219.317 185.31L212.972 192.557L206.627 185.3ZM210.906 194.917L204.56 202.164L198.215 194.907L204.56 187.66L210.906 194.917ZM204.56 182.93L198.215 175.683L204.56 168.435L210.906 175.683L204.56 182.93ZM202.494 185.3L196.149 192.547L189.804 185.3L196.149 178.053L202.494 185.3ZM194.073 194.917L187.728 202.175L181.382 194.917L187.728 187.67L194.073 194.917ZM196.139 197.287L202.484 204.545L196.139 211.792L189.794 204.545L196.139 197.287ZM204.56 206.905L210.906 214.152L204.56 221.409L198.215 214.162L204.56 206.915V206.905ZM206.627 204.534L212.972 197.287L219.317 204.534L212.972 211.782L206.627 204.534ZM215.038 194.917L221.383 187.67L227.728 194.917L221.383 202.164L215.038 194.917ZM223.449 185.3L229.794 178.053L236.139 185.3L229.794 192.547L223.449 185.3ZM221.383 182.93L215.038 175.672L221.383 168.425L227.728 175.683L221.383 182.93ZM212.972 173.312L206.627 166.065L212.972 158.818L219.317 166.065L212.972 173.312ZM204.55 163.695L198.205 156.448L204.55 149.19L210.895 156.448L204.55 163.695ZM202.484 166.065L196.139 173.312L189.794 166.055L196.139 158.808L202.484 166.055V166.065ZM194.073 175.683L187.728 182.93L181.382 175.683L187.728 168.425L194.073 175.683ZM185.661 185.3L179.316 192.547L172.971 185.3L179.316 178.053L185.661 185.3ZM177.24 194.917L170.895 202.175L164.55 194.917L170.895 187.67L177.24 194.917ZM179.306 197.287L185.651 204.545L179.306 211.792L172.961 204.545L179.306 197.287ZM187.728 206.905L194.073 214.152L187.728 221.409L181.382 214.152L187.728 206.905ZM196.139 216.522L202.484 223.769L196.139 231.016L189.794 223.769L196.139 216.512V216.522ZM204.55 226.139L210.895 233.386L204.55 240.633L198.205 233.386L204.55 226.139ZM206.616 223.769L212.961 216.512L219.306 223.769L212.961 231.016L206.616 223.769ZM215.027 214.152L221.372 206.905L227.718 214.152L221.372 221.409L215.027 214.152ZM223.439 204.534L229.784 197.287L236.129 204.534L229.784 211.782L223.439 204.534ZM231.86 194.917L238.205 187.67L244.55 194.917L238.205 202.164L231.86 194.917ZM240.271 185.3L246.617 178.053L252.962 185.3L246.617 192.547L240.271 185.3ZM238.205 182.93L231.86 175.683L238.205 168.425L244.55 175.672L238.205 182.919V182.93ZM229.794 173.312L223.449 166.055L229.794 158.808L236.139 166.055L229.794 173.312ZM221.372 163.695L215.027 156.448L221.372 149.201L227.718 156.448L221.372 163.695ZM212.961 154.078L206.616 146.82L212.961 139.573L219.306 146.82L212.961 154.067V154.078ZM204.54 144.46L198.194 137.213L204.54 129.966L210.885 137.213L204.54 144.46ZM202.473 146.831L196.128 154.088L189.783 146.841L196.128 139.594L202.473 146.841V146.831ZM194.062 156.448L187.717 163.695L181.372 156.448L187.717 149.201L194.062 156.448ZM185.651 166.065L179.306 173.323L172.961 166.076L179.306 158.829L185.651 166.076V166.065ZM177.229 175.683L170.884 182.93L164.539 175.683L170.884 168.425L177.229 175.672V175.683ZM168.818 185.3L162.473 192.547L156.128 185.3L162.473 178.053L168.818 185.3ZM160.407 194.917L154.062 202.164L147.717 194.917L154.062 187.67L160.407 194.917ZM162.473 197.287L168.818 204.545L162.473 211.792L156.128 204.545L162.473 197.298V197.287ZM170.884 206.905L177.229 214.152L170.884 221.399L164.539 214.152L170.884 206.905ZM179.295 216.522L185.64 223.78L179.295 231.027L172.95 223.769L179.295 216.522ZM187.717 226.139L194.062 233.386L187.717 240.633L181.372 233.386L187.717 226.139ZM196.128 235.757L202.473 243.004L196.128 250.251L189.783 243.004L196.128 235.757ZM204.54 245.374L210.885 252.632L204.54 259.879L198.194 252.632L204.54 245.384V245.374ZM206.606 243.004L212.951 235.757L219.296 243.004L212.951 250.261L206.606 243.004ZM215.017 233.386L221.362 226.139L227.707 233.386L221.362 240.633L215.017 233.386ZM223.428 223.769L229.773 216.512L236.118 223.769L229.773 231.016L223.428 223.769ZM231.85 214.152L238.195 206.905L244.54 214.152L238.195 221.399L231.85 214.141V214.152ZM240.261 204.534L246.606 197.287L252.951 204.545L246.606 211.792L240.261 204.545V204.534ZM248.672 194.917L255.017 187.67L261.362 194.917L255.017 202.175L248.672 194.917ZM257.083 185.3L263.429 178.053L269.774 185.3L263.429 192.547L257.083 185.3ZM255.017 182.93L248.672 175.683L255.017 168.435L261.362 175.693L255.017 182.94V182.93ZM246.606 173.312L240.261 166.065L246.606 158.818L252.951 166.065L246.606 173.312ZM238.195 163.695L231.85 156.448L238.195 149.201L244.54 156.458L238.195 163.705V163.695ZM229.784 154.078L223.439 146.831L229.784 139.583L236.129 146.831L229.784 154.078ZM221.372 144.46L215.027 137.213L221.372 129.966L227.718 137.213L221.372 144.46ZM212.961 134.843L206.616 127.596L212.961 120.349L219.306 127.596L212.961 134.843ZM204.54 125.226L198.194 117.979L204.54 110.732L210.885 117.979L204.54 125.226ZM202.473 127.596L196.128 134.843L189.783 127.596L196.128 120.349L202.473 127.596ZM194.062 137.213L187.717 144.46L181.372 137.213L187.717 129.966L194.062 137.213ZM185.651 146.831L179.306 154.078L172.961 146.831L179.306 139.583L185.651 146.831ZM177.24 156.448L170.895 163.695L164.55 156.448L170.895 149.19L177.24 156.437V156.448ZM168.829 166.065L162.483 173.323L156.138 166.065L162.483 158.818L168.829 166.065ZM160.417 175.683L154.072 182.93L147.727 175.683L154.072 168.425L160.417 175.683ZM151.996 185.3L145.651 192.547L139.305 185.3L145.651 178.053L151.996 185.3ZM143.584 194.917L137.239 202.164L130.894 194.917L137.239 187.67L143.584 194.917ZM145.651 197.287L151.996 204.534L145.651 211.782L139.305 204.534L145.651 197.287ZM154.062 206.905L160.407 214.152L154.062 221.399L147.717 214.141L154.062 206.894V206.905ZM162.483 216.522L168.829 223.769L162.483 231.016L156.138 223.769L162.483 216.522ZM170.895 226.139L177.24 233.397L170.895 240.644L164.55 233.386L170.895 226.139ZM179.306 235.757L185.651 243.004L179.306 250.251L172.961 243.004L179.306 235.757ZM187.717 245.374L194.062 252.621L187.717 259.868L181.372 252.621L187.717 245.374ZM196.128 254.991L202.473 262.238L196.128 269.485L189.783 262.228L196.128 254.981V254.991ZM204.55 264.609L210.895 271.856L204.55 279.103L198.205 271.856L204.55 264.609ZM206.616 262.238L212.961 254.991L219.306 262.238L212.961 269.485L206.616 262.238ZM215.027 252.621L221.372 245.363L227.718 252.611L221.372 259.858L215.027 252.611V252.621ZM223.439 243.004L229.784 235.757L236.129 243.004L229.784 250.261L223.439 243.014V243.004ZM231.86 233.386L238.205 226.139L244.55 233.386L238.205 240.633L231.86 233.386ZM240.271 223.769L246.617 216.522L252.962 223.769L246.617 231.016L240.271 223.769ZM248.683 214.152L255.028 206.905L261.373 214.152L255.028 221.409L248.683 214.162V214.152ZM257.094 204.534L263.439 197.277L269.784 204.524L263.439 211.771L257.094 204.524V204.534ZM265.516 194.917L271.861 187.67L278.206 194.917L271.861 202.164L265.516 194.917ZM278.206 175.683L271.861 182.93L265.516 175.683L271.861 168.435L278.206 175.693V175.683ZM269.795 166.065L263.45 173.312L257.104 166.055L263.45 158.808L269.795 166.055V166.065ZM261.383 156.448L255.038 163.695L248.693 156.448L255.038 149.201L261.383 156.448ZM252.972 146.831L246.627 154.078L240.282 146.82L246.627 139.573L252.972 146.82V146.831ZM244.55 137.213L238.205 144.46L231.86 137.213L238.205 129.966L244.55 137.213ZM236.129 127.596L229.784 134.843L223.439 127.596L229.784 120.338L236.129 127.596ZM227.718 117.979L221.372 125.236L215.027 117.989L221.372 110.742L227.718 117.989V117.979ZM219.306 108.361L212.961 115.608L206.616 108.361L212.961 101.114L219.306 108.361ZM204.54 91.4969L210.885 98.744L204.54 105.991L198.194 98.744L204.54 91.4969ZM196.118 101.114L202.463 108.361L196.118 115.608L189.773 108.361L196.118 101.114ZM187.707 110.732L194.052 117.979L187.707 125.226L181.361 117.979L187.707 110.732ZM179.295 120.349L185.64 127.596L179.295 134.843L172.95 127.596L179.295 120.349ZM170.884 129.966L177.229 137.213L170.884 144.46L164.539 137.213L170.884 129.966ZM162.473 139.583L168.818 146.831L162.473 154.088L156.128 146.831L162.473 139.583ZM154.051 149.201L160.396 156.458L154.051 163.705L147.706 156.458L154.051 149.201ZM145.64 158.818L151.985 166.065L145.64 173.323L139.295 166.065L145.64 158.818ZM137.218 168.435L143.563 175.693L137.218 182.94L130.873 175.693L137.218 168.446V168.435ZM128.807 178.053L135.152 185.3L128.807 192.547L122.462 185.3L128.807 178.053ZM114.04 194.917L120.385 187.67L126.73 194.917L120.385 202.175L114.04 194.917ZM122.462 204.534L128.807 197.277L135.152 204.524L128.807 211.771L122.462 204.524V204.534ZM130.873 214.152L137.218 206.905L143.563 214.152L137.218 221.409L130.873 214.162V214.152ZM139.284 223.769L145.63 216.512L151.975 223.769L145.63 231.016L139.284 223.769ZM147.706 233.386L154.051 226.139L160.396 233.386L154.051 240.633L147.706 233.386ZM156.117 243.004L162.462 235.757L168.808 243.014L162.462 250.272L156.117 243.014V243.004ZM164.539 252.621L170.884 245.363L177.229 252.611L170.884 259.858L164.539 252.611V252.621ZM172.95 262.238L179.295 254.991L185.64 262.238L179.295 269.496L172.95 262.249V262.238ZM181.361 271.856L187.707 264.598L194.052 271.856L187.707 279.103L181.361 271.856ZM189.783 281.473L196.128 274.226L202.473 281.473L196.128 288.72L189.783 281.473ZM204.55 298.337L198.205 291.08L204.55 283.833L210.895 291.08L204.55 298.337ZM212.972 288.72L206.627 281.473L212.972 274.226L219.317 281.473L212.972 288.72ZM221.383 279.103L215.038 271.856L221.383 264.609L227.728 271.866L221.383 279.113V279.103ZM229.805 269.485L223.46 262.228L229.805 254.981L236.15 262.228L229.805 269.485ZM238.216 259.868L231.871 252.621L238.216 245.363L244.561 252.621L238.216 259.868ZM246.627 250.251L240.282 242.993L246.627 235.746L252.972 242.993L246.627 250.24V250.251ZM255.038 240.633L248.693 233.386L255.038 226.139L261.383 233.386L255.038 240.633ZM263.45 231.016L257.104 223.769L263.45 216.512L269.795 223.769L263.45 231.016ZM271.861 221.399L265.516 214.141L271.861 206.894L278.206 214.141L271.861 221.399ZM280.282 211.782L273.937 204.534L280.282 197.287L286.628 204.545L280.282 211.792V211.782ZM288.694 202.164L282.349 194.907L288.694 187.66L295.039 194.907L288.694 202.154V202.164Z" fill="white"/>
<g style="mix-blend-mode:multiply">
<path d="M266.721 150.134C265.882 145.949 263.47 141.733 259.558 139.269C265.788 132.651 269.92 124.355 271.021 114.947C274.178 88.0882 251.514 62.456 220.397 57.6736C189.28 52.9016 161.497 70.8043 158.351 97.6531C156.967 109.473 160.574 121.051 167.717 130.732C158.697 132.903 148.555 139.804 152.971 148.991C159.054 161.639 170.999 152.714 178.341 149.924C186.626 146.778 200.019 150.554 206.438 156.469C210.192 159.93 212.657 166.076 219.117 166.495C226.931 166.998 224.057 160.506 227.56 155.756C237.03 142.887 243.806 156.437 252.783 161.01C263.911 166.673 268.41 158.44 266.732 150.124L266.721 150.134Z" fill="white"/>
</g>
<g style="mix-blend-mode:multiply" opacity="0.3">
<path d="M171.765 132.777H167.811C167.046 132.777 166.322 133.186 165.86 133.889C165.399 134.591 165.252 135.504 165.472 136.343L192.416 241.672C192.72 242.857 193.674 243.675 194.754 243.675C195.835 243.675 196.789 242.857 197.093 241.672L204.466 212.841C186.857 197.654 174.198 167.932 171.755 132.777H171.765Z" fill="white"/>
</g>
</g>
<path d="M205.053 245.762C204.896 245.762 204.728 245.762 204.56 245.762C197.649 245.909 193.433 242.909 191.104 240.361C188.577 237.592 187.696 234.75 187.654 234.634L187.623 234.54L170.947 167.827C170.055 167.775 168.975 167.554 167.905 166.925C166.259 165.96 165.137 164.335 164.549 162.09C163.406 157.685 165.535 154.56 167.486 152.966L165.158 142.111L165.336 141.597C167.58 134.927 171.492 130.438 176.967 128.236C187.213 124.124 199.736 129.358 204.55 131.749C209.364 129.368 221.876 124.124 232.133 128.236C237.607 130.427 241.519 134.927 243.764 141.597L243.942 142.111L241.614 152.966C243.564 154.57 245.693 157.685 244.55 162.09C243.973 164.335 242.841 165.96 241.194 166.925C240.135 167.554 239.044 167.775 238.153 167.827L221.467 234.582V234.624C221.414 234.739 220.533 237.592 218.006 240.35C215.73 242.836 211.65 245.751 205.032 245.751L205.053 245.762ZM191.451 233.512C191.671 234.183 194.492 242.028 204.518 241.797H204.56H204.602C204.749 241.797 204.896 241.797 205.043 241.797C214.713 241.797 217.481 234.078 217.67 233.502L235.227 163.254L237.146 163.81C237.943 163.988 239.946 164.104 240.722 161.073C241.666 157.423 238.803 155.745 238.467 155.567L237.125 154.875L237.461 153.406L239.831 142.321C237.953 137.077 234.87 133.563 230.654 131.875C220.995 127.994 207.979 134.371 205.473 135.682L204.55 136.164L203.627 135.682C201.12 134.371 188.094 127.994 178.435 131.875C174.219 133.563 171.136 137.077 169.258 142.321L171.943 154.885L170.601 155.577C170.286 155.745 167.423 157.423 168.367 161.073C168.671 162.258 169.185 163.076 169.898 163.496C170.842 164.051 171.943 163.81 171.954 163.81L173.883 163.307L191.43 233.502L191.451 233.512Z" fill="white"/>
<path d="M233.486 160.559H174.46C174.051 160.559 173.716 160.223 173.716 159.814C173.716 159.405 174.051 159.07 174.46 159.07H233.486C233.895 159.07 234.23 159.405 234.23 159.814C234.23 160.223 233.895 160.559 233.486 160.559Z" fill="white"/>
<path d="M240.313 165.719H167.591C166.773 165.719 166.112 165.058 166.112 164.24C166.112 163.422 166.773 162.761 167.591 162.761H240.313C241.131 162.761 241.792 163.422 241.792 164.24C241.792 165.058 241.131 165.719 240.313 165.719Z" fill="white"/>
<path d="M237.261 151.917C232.322 151.917 227.099 149.63 222.4 145.435C219.359 147.229 216.118 148.781 212.636 148.781C208.074 148.781 203.732 146.253 198.74 140.632C196.128 142.331 191 145.11 185.368 145.11C179.148 145.11 173.988 141.943 171.566 140.16C169.835 141.272 166.857 142.824 163.606 142.824C160.617 142.824 157.942 141.513 155.855 139.027C151.88 134.287 150.643 128.351 152.551 123.159C154.387 118.125 158.823 114.748 164.717 113.731C164.203 111.077 164.004 107.312 165.483 103.295C166.899 99.3414 169.741 96.3943 173.684 94.7897C175.226 94.1604 176.747 93.8038 178.058 93.615C177.879 92.9753 177.722 92.2726 177.596 91.5385C176.757 86.6407 177.817 82.6029 180.659 79.8446C185.609 75.0516 192.604 74.0448 197.597 74.0448C198.383 74.0448 199.117 74.0658 199.778 74.1077C199.747 71.8633 200.26 69.168 201.886 66.4726C204.151 62.718 209.762 59.8758 210.392 59.5611L213.695 57.925L213.842 62.0258C213.947 64.6792 214.807 69.4616 216.663 70.9929C218.583 72.566 221.425 72.8597 224.424 73.1743C227.466 73.4889 230.612 73.8141 233.528 75.4397C236.957 77.359 239.286 80.6836 240.628 85.5919C241.719 88.7068 241.446 92.0104 240.985 94.3387C241.603 94.6114 242.285 94.9785 242.977 95.4609C245.264 97.0341 248.221 100.212 249.375 106.431L249.396 106.526V106.62C250.109 112.21 248.588 116.437 247.068 119.121C249.48 120.464 252.49 122.866 253.989 126.903C255.835 131.843 254.965 137.769 251.378 144.491L251.221 144.785L251.011 145.026C247.057 149.526 242.296 151.906 237.24 151.906L237.261 151.917Z" fill="white"/>
<path d="M249.28 143.034C240.953 152.525 230.539 149.819 222.694 142.058C214.818 146.935 209.123 149.138 199.117 137.045C199.117 137.045 192.625 142.289 185.357 142.289C182.557 142.289 179.988 141.565 177.848 140.632C174.083 139.006 171.639 136.762 171.639 136.762C171.639 136.762 163.301 143.81 157.649 137.066C150.412 128.424 154.691 116.521 168.063 116.237C168.063 116.237 165.441 110.658 167.769 104.365C170.968 95.4297 181.676 96.2162 181.676 96.2162C181.676 96.2162 177.072 87.0079 182.253 81.9843C189.657 74.8106 202.84 77.2648 202.84 77.2648C202.84 77.2648 200.953 72.9753 203.921 68.067C205.85 64.8682 211.378 62.1414 211.378 62.1414C211.378 62.1414 211.682 70.3638 215.227 73.2794C220.628 77.7053 229.658 74.045 235.08 80.065C236.412 81.5438 237.524 83.6099 238.31 86.536C239.915 90.9618 237.87 96.3211 237.87 96.3211C237.87 96.3211 245.096 96.8979 246.984 107.019C248.064 115.608 242.967 120.37 242.967 120.37C242.967 120.37 259.149 124.491 249.291 143.023L249.28 143.034Z" fill="white"/>
<path d="M249.281 143.034C240.953 152.525 230.539 149.819 222.694 142.058C214.818 146.935 209.123 149.138 199.117 137.045C199.117 137.045 192.625 142.289 185.357 142.289C191.619 139.478 196.128 136.29 198.236 131.036C213.119 138.356 215.887 133.909 228.221 135.577C239.537 135.283 239.065 130.92 235.73 124.764C232.385 118.608 206.983 123.359 190.528 121.607C174.073 119.845 177.827 115.65 177.827 115.65C177.827 115.65 191.975 116.237 199.17 115.944C206.375 115.65 227.707 113.018 233.108 109.787C238.51 106.568 240.051 101.869 236.454 98.6493C232.857 95.4296 226.26 97.7369 209.291 98.0306C192.321 98.3242 188.367 93.6676 188.367 93.6676C188.367 93.6676 199.264 94.2969 209.291 93.4159C219.317 92.535 225.117 91.1086 232.322 86.1269C234.723 84.4698 235.227 81.7535 235.08 80.0754C236.412 81.5542 237.524 83.6203 238.31 86.5464C239.915 90.9723 237.87 96.3315 237.87 96.3315C237.87 96.3315 245.096 96.9084 246.984 107.029C248.064 115.619 242.967 120.38 242.967 120.38C242.967 120.38 259.15 124.502 249.291 143.034H249.281Z" fill="#C8C8C8"/>
<path d="M159.002 156.374C158.026 156.374 157.114 155.913 156.453 155.084C154.88 153.123 155.027 149.568 155.352 145.467C155.373 145.257 155.383 145.037 155.404 144.827C155.142 144.649 154.817 144.429 154.429 144.156C152.552 142.814 151.681 139.762 151.524 133.941C151.429 130.427 151.65 127.187 151.66 127.05L152.468 124.365L153.674 124.974L155.006 135.629L167.151 133.542C167.151 133.721 170.213 132.703 168.42 142.205C167.895 145.215 168.136 149.694 164.508 149.694C164.34 149.694 164.182 149.683 164.036 149.662C163.658 152.095 162.809 155.399 159.956 156.238C159.631 156.332 159.316 156.374 159.002 156.374Z" fill="white"/>
<path d="M167.696 129.515C167.696 129.515 167.675 131.843 167.234 136.437C167.088 137.958 166.899 139.741 166.637 141.765C165.609 149.893 163.427 145.918 162.421 145.824C161.414 145.74 162.2 152.662 159.337 153.501C157.774 153.952 157.544 151.382 157.628 148.76C157.691 146.579 157.984 144.366 157.911 143.862C157.743 142.761 158.246 143.537 155.74 141.754C153.244 139.971 154.125 127.26 154.125 127.26L167.696 129.505V129.515Z" fill="white"/>
<path d="M166.647 141.765C165.619 149.893 163.438 145.918 162.431 145.823C161.424 145.74 162.211 152.662 159.347 153.501C157.785 153.952 157.554 151.382 157.638 148.76C158.299 149.148 158.98 149.305 159.526 148.519C161.047 146.358 161.047 138.44 161.047 138.44C161.047 138.44 162.693 142.761 164.329 141.901C165.976 141.031 166.416 135.063 166.416 135.063C166.416 135.063 166.92 139.741 166.657 141.765H166.647Z" fill="white"/>
<path d="M165.325 132.808C168.283 134.748 169.867 132.703 171.45 127.281C171.094 134.57 167.486 137.464 165.325 132.808Z" fill="white"/>
<path d="M210.014 66.1057C210.014 66.1057 207.686 71.7167 208.724 74.9574C209.763 78.2086 211.315 76.4362 216.747 80.2747C222.18 84.1133 220.628 86.7667 220.628 86.7667C220.628 86.7667 231.242 84.4069 229.175 80.5684C227.109 76.7299 223.481 79.0896 216.485 75.5552C209.49 72.0103 210.014 66.1162 210.014 66.1162V66.1057Z" fill="white"/>
<path d="M197.072 77.6108C197.072 77.6108 185.105 80.5684 183.176 83.033C181.246 85.5081 182.693 88.2455 187.507 89.6194C192.321 90.9933 200.271 90.9933 200.271 90.9933C200.271 90.9933 187.99 88.5181 188.713 84.9523C189.437 81.3864 197.072 77.6003 197.072 77.6003V77.6108Z" fill="white"/>
<path d="M181.236 97.4851C181.236 97.4851 170.202 100.401 169.395 105.508C168.598 110.616 175.792 112.074 181.55 112.074C187.308 112.074 201.55 110.616 201.55 110.616C201.55 110.616 177.24 112.619 174.838 108.067C172.436 103.505 181.236 97.4956 181.236 97.4956V97.4851Z" fill="white"/>
<path d="M173.254 118.303C173.254 118.303 163.333 116.908 159.903 120.254C156.474 123.61 155.005 128.77 155.373 132.546C155.74 136.311 156.841 137.989 156.841 137.989C156.841 137.989 156.233 130.029 159.295 125.425C162.357 120.82 173.254 118.303 173.254 118.303Z" fill="white"/>
<path d="M249.039 135C249.039 135 248.274 140.202 243.208 142.52C238.132 144.838 232.552 144.25 232.552 144.25C232.552 144.25 238.132 148.299 243.963 145.404C249.794 142.509 249.039 135 249.039 135Z" fill="white"/>
<path d="M244.372 110.05C244.372 110.05 242.558 114.423 239.265 116.3C235.971 118.178 231.755 119.038 231.755 119.038C231.755 119.038 237.178 120.254 240.89 118.146C244.603 116.028 244.383 110.05 244.383 110.05H244.372Z" fill="white"/>
<path d="M164.277 130.91C164.277 130.91 165.923 134.171 167.801 132.294C169.668 130.417 170.108 127.533 170.108 127.533C170.108 127.533 167.685 130.794 166.584 130.92C165.483 131.046 164.277 130.92 164.277 130.92V130.91Z" fill="white"/>
<path d="M199.233 137.119C200.995 138.723 203.774 138.146 206.794 136.867C206.794 136.867 204.099 139.122 201.571 139.332C199.054 139.541 198.152 139.122 198.152 139.122L199.222 137.119H199.233Z" fill="white"/>
<path d="M235.908 83.4106C235.908 83.4106 237.125 87.5638 235.237 90.1753C233.349 92.7867 227.413 94.6326 227.413 94.6326C227.413 94.6326 235.237 95.2514 236.999 92.6294C238.751 90.018 235.919 83.4001 235.919 83.4001L235.908 83.4106Z" fill="white"/>
<path d="M218.279 140.139C218.887 140.831 220.554 141.702 223.439 141.523C226.323 141.345 229.06 140.307 229.06 140.307C229.06 140.307 225.117 144.806 222.379 143.946C219.642 143.076 218.279 140.139 218.279 140.139Z" fill="white"/>
<path d="M256.643 76.1214C256.591 76.7612 256.276 76.9919 255.982 77.2541C254.252 78.8273 252.521 80.4214 250.791 82.0051C250.571 82.2043 250.329 82.4141 250.067 82.5504C249.585 82.7917 249.134 82.6763 248.777 82.2778C248.421 81.8687 248.536 81.4073 248.861 81.1031C250.906 79.2153 252.962 77.359 255.049 75.5131C255.395 75.209 255.877 75.2509 256.265 75.5341C256.528 75.7229 256.653 75.9956 256.643 76.1214Z" fill="white"/>
<path d="M156.841 85.3926C157.271 85.3506 157.586 85.5709 157.869 85.8645C159.453 87.4797 161.047 89.0948 162.62 90.7099C163.092 91.1923 163.543 91.7482 162.903 92.3984C162.253 93.0592 161.697 92.5977 161.225 92.1258C159.621 90.5316 158.047 88.906 156.464 87.2909C156.097 86.9133 155.761 86.4728 156.002 85.896C156.149 85.5499 156.443 85.3716 156.841 85.3926Z" fill="white"/>
<path d="M145.021 101.208C147.108 101.701 149.552 102.267 151.985 102.876C152.51 103.012 152.971 103.337 152.793 103.998C152.615 104.669 152.122 104.847 151.471 104.69C149.07 104.134 146.657 103.599 144.256 103.033C143.658 102.897 143.155 102.572 143.312 101.869C143.459 101.166 144.046 101.103 145.021 101.208Z" fill="white"/>
<path d="M262.862 94.4119C262.464 94.2441 262.097 94.349 261.74 94.5273C259.726 95.5551 257.702 96.5724 255.689 97.6107C255.08 97.9253 254.493 98.3029 254.881 99.121C255.28 99.96 255.961 99.6978 256.559 99.3936C258.583 98.3868 260.597 97.359 262.611 96.3207C263.082 96.0795 263.533 95.7753 263.492 95.1461C263.46 94.7685 263.24 94.5063 262.862 94.4014V94.4119Z" fill="white"/>
<path d="M269.029 113.175C266.9 112.986 264.393 112.734 261.897 112.535C261.362 112.493 260.817 112.661 260.775 113.343C260.733 114.035 261.142 114.36 261.803 114.423C264.257 114.664 266.711 114.916 269.176 115.147C269.784 115.199 270.361 115.063 270.445 114.339C270.529 113.615 269.994 113.385 269.029 113.164V113.175Z" fill="white"/>
<path d="M142.557 131.298C141.602 131.298 140.648 131.298 139.693 131.298C139.043 131.298 138.414 131.182 138.435 130.343C138.456 129.63 138.991 129.42 139.609 129.41C141.56 129.389 143.521 129.378 145.472 129.357C146.133 129.357 146.626 129.641 146.605 130.322C146.584 131.004 146.07 131.245 145.42 131.235C144.465 131.224 143.511 131.235 142.557 131.235C142.557 131.256 142.557 131.277 142.557 131.308V131.298Z" fill="white"/>
<path d="M265.851 143.359C263.901 142.96 261.95 142.572 260.01 142.142C259.517 142.037 259.118 141.701 259.255 141.114C259.38 140.579 259.789 140.317 260.324 140.38C262.432 140.642 264.488 141.125 266.544 141.649C267.037 141.775 267.246 142.131 267.089 142.645C266.9 143.264 266.428 143.39 265.851 143.348V143.359Z" fill="white"/>
<path d="M190.182 68.1088C190.192 68.4444 190.014 68.6856 189.752 68.8639C189.437 69.0737 189.018 69.1471 188.787 68.8849C187.497 67.4271 186.249 65.9064 185.515 64.092C185.221 63.3683 185.913 63.0222 186.648 63.2005C187.099 63.3054 190.172 67.6369 190.192 68.1088H190.182Z" fill="white"/>
<path d="M172.573 80.3058C172.006 80.2219 171.639 79.9178 171.66 79.4563C171.702 78.6697 172.405 78.3656 172.982 77.9985C173.433 77.7049 173.926 77.5161 174.429 77.8412C174.775 78.0719 174.985 78.4705 174.723 78.8375C174.177 79.5927 173.338 79.9492 172.583 80.3058H172.573Z" fill="white"/>
<path d="M238.415 72.01C238.415 72.4085 238.163 72.849 237.587 72.7442C236.527 72.5554 236.265 71.6115 236.045 70.7515C235.898 70.1956 236.349 69.902 236.894 69.8705C237.534 69.839 238.405 70.9822 238.415 72.01Z" fill="white"/>
<path d="M146.615 157.706C146.343 158.429 145.902 159.048 145.042 159.164C144.518 159.237 144.214 158.912 144.235 158.398C144.277 157.538 144.832 157.066 145.598 156.888C146.143 156.762 146.458 157.139 146.615 157.716V157.706Z" fill="white"/>
<path d="M253.948 154.539C253.339 154.444 252.983 154.088 253.025 153.5C253.067 152.892 253.486 152.609 254.105 152.661C254.671 152.714 254.975 153.049 254.954 153.595C254.923 154.193 254.545 154.507 253.948 154.539Z" fill="white"/>
<path d="M220.628 55.4394C220.072 55.3765 219.631 55.0723 219.61 54.485C219.589 53.8977 219.998 53.5096 220.575 53.4887C221.11 53.4677 221.477 53.8243 221.53 54.3487C221.593 54.9465 221.215 55.2926 220.628 55.4394Z" fill="white"/>
<path d="M148.073 115.65C147.507 115.556 147.098 115.272 147.14 114.654C147.171 114.129 147.496 113.783 148.063 113.794C148.702 113.794 149.006 114.15 148.986 114.759C148.965 115.325 148.629 115.598 148.073 115.65Z" fill="white"/>
<path d="M246.984 194.151C247.026 194.602 246.816 194.875 246.522 195.085C246.197 195.315 245.82 195.336 245.568 195.064C243.795 193.165 241.981 191.298 240.429 189.211C240.156 188.844 240.366 188.456 240.67 188.173C241.016 187.848 241.415 187.869 241.729 188.173C243.586 189.935 245.253 191.875 246.879 193.847C246.952 193.941 246.963 194.088 246.984 194.151Z" fill="white"/>
<path d="M161.949 194.77C161.12 194.728 160.659 193.91 161.162 193.344C162.798 191.498 164.529 189.725 166.249 187.953C166.595 187.596 167.046 187.659 167.413 188.016C167.769 188.372 167.843 188.876 167.539 189.201C165.861 191.015 164.141 192.788 162.421 194.571C162.284 194.707 162.043 194.738 161.949 194.78V194.77Z" fill="white"/>
<path d="M263.513 129.882C262.946 129.787 262.537 129.504 262.579 128.885C262.611 128.361 262.936 128.015 263.502 128.025C264.142 128.025 264.446 128.382 264.425 128.99C264.404 129.557 264.068 129.829 263.513 129.882Z" fill="white"/>
</svg>
