<svg width="674" height="197" viewBox="0 0 674 197" fill="none" xmlns="http://www.w3.org/2000/svg">
<path d="M363.042 130.973C364.379 131.397 367.228 131.452 371.589 131.148C375.489 130.844 377.804 130.991 378.532 131.609C379.224 132.181 379.297 134.44 378.763 138.377C377.536 139.142 375.167 139.502 371.654 139.465C367.33 139.428 364.711 139.483 363.798 139.64C363.411 141.134 363.282 143.291 363.393 146.122C363.549 149.45 363.586 151.608 363.503 152.604C363.466 153.065 363.448 153.765 363.448 154.724C363.448 155.683 363.429 156.347 363.393 156.734C363.236 158.145 362.572 158.91 361.383 159.03C359.087 159.224 357.501 159.224 356.625 159.03C355.057 158.652 354.062 157.592 353.647 155.877C352.845 152.281 352.494 146.066 352.614 137.234C352.688 131.12 352.633 123.108 352.439 113.196C352.172 101.837 352.042 93.6587 352.042 88.6429C352.042 82.6775 352.079 79.5979 352.153 79.4043C352.799 78.2979 354.182 77.6985 356.284 77.6248C357.316 77.5879 359.207 77.717 361.963 78.0305C364.637 78.2978 366.952 78.3716 368.906 78.261C369.404 78.261 370.474 78.1688 372.115 77.9751C373.526 77.8184 374.641 77.7446 375.443 77.7446C377.887 77.7446 379.519 78.4361 380.321 79.81C381.012 80.9994 381.261 82.2533 381.068 83.5995C380.874 84.9364 380.247 85.9691 379.178 86.6975C378.219 87.389 376.08 87.7855 372.751 87.9053C366.444 88.2096 363.457 88.2096 363.807 87.9053C363.31 88.3294 363.061 95.0971 363.061 108.208V130.982L363.042 130.973Z" fill="white"/>
<path d="M416.722 99.0806C421.388 131.241 424.08 150.668 424.808 157.352C423.923 158.274 422.513 158.772 420.567 158.846C419.959 158.883 419.055 158.865 417.875 158.791C416.612 158.754 415.736 158.735 415.238 158.735C414.399 157.242 413.67 155.01 413.062 152.023C412.297 148.197 411.624 145.449 411.052 143.762C409.678 143.762 407.364 143.78 404.109 143.817C400.9 143.854 398.605 143.872 397.222 143.872C396.834 145.136 396.419 147.809 395.958 151.903C395.617 155.305 394.963 157.74 394.004 159.187C394.077 159.187 392.261 159.113 388.555 158.957C386.609 158.883 385.152 158.44 384.193 157.638C384.424 155.269 388.324 128.807 395.894 78.2521C403.768 76.4173 409.567 76.4173 413.274 78.2521C413.965 81.1933 415.109 88.1362 416.713 99.0714L416.722 99.0806ZM397.968 133.555H410.24C410.084 131.831 409.687 126.843 409.033 118.581C408.461 111.887 407.926 106.245 407.428 101.662C406.894 97.0706 405.879 94.7655 404.386 94.7194C403.583 95.0606 402.947 95.9826 402.496 97.4763C401.122 107.646 399.61 119.669 397.968 133.555Z" fill="white"/>
<path d="M465.138 154.255C465.516 155.407 465.387 156.477 464.732 157.463C464.391 157.998 463.718 158.385 462.722 158.607C459.661 159.372 457.31 159.031 455.669 157.574C454.83 156.845 453.53 153.333 451.769 147.017C451.575 146.288 451.271 144.988 450.847 143.117C450.422 141.356 450.081 140.037 449.814 139.161C448.975 136.257 448.09 134.8 447.177 134.8C444.116 134.726 442.475 134.855 442.244 135.206C441.553 136.275 441.248 138.248 441.322 141.116C441.322 141.651 441.359 142.803 441.442 144.555C441.516 145.855 441.534 146.832 441.497 147.478C441.156 154.587 440.907 158.321 440.75 158.662C440.289 158.662 439.349 158.754 437.938 158.948C436.749 159.104 435.836 159.178 435.181 159.178C433.236 159.178 431.908 158.607 431.226 157.454C430.922 156.956 430.765 153.665 430.765 147.588C430.765 140.931 430.802 131.241 430.876 118.508C430.986 105.738 431.051 96.0658 431.051 89.4825C431.051 84.5866 431.3 81.4886 431.798 80.1886C432.369 78.6949 433.669 77.7175 435.698 77.2657C436.62 77.0721 438.473 76.9615 441.267 76.9246C448.339 76.7678 453.327 77.6161 456.24 79.4509C459.301 81.4056 461.247 85.2228 462.095 90.9209C462.436 93.4841 462.63 98.9148 462.667 107.213C462.704 117.733 461.007 125.091 457.559 129.295C460.463 139.696 462.99 148.013 465.129 154.245L465.138 154.255ZM440.649 118.351C441.34 123.127 443.286 125.487 446.504 125.405C449.639 125.331 451.51 122.961 452.128 118.296C452.239 117.42 452.303 113.096 452.303 105.332C452.303 97.5687 452.165 93.2259 451.898 91.511C451.059 86.4214 448.938 84.1532 445.536 84.688C442.668 85.149 440.981 87.7491 440.483 92.4883C440.446 92.682 440.428 96.9601 440.428 105.341C440.428 112.911 440.501 117.254 440.658 118.36L440.649 118.351Z" fill="white"/>
<path d="M500.064 98.214C502.784 88.3483 504.656 82.0417 505.688 79.2848C506.334 78.4089 507.237 77.8741 508.381 77.6805C511.248 77.1826 513.885 77.6068 516.301 78.9437C516.494 84.9829 516.338 96.4806 515.84 113.418C515.416 129.323 515.416 141.291 515.84 149.322C516.107 154.789 515.858 157.74 515.093 158.155C513.526 158.92 510.197 159.012 505.117 158.44C505.117 154.771 504.997 147.616 504.776 136.985C504.582 127.082 504.49 119.872 504.49 115.364C500.285 129.507 498.063 136.856 497.833 137.391C496.763 139.991 495.555 141.272 494.218 141.236C493.029 141.236 491.959 140.111 491.01 137.852C490.779 137.317 490.383 136.21 489.802 134.523C489.267 133.03 488.788 131.868 488.364 131.029C487.976 130.07 486.99 127.59 485.385 123.57C484.049 120.047 483.053 117.715 482.407 116.571C482.407 121.043 482.426 127.931 482.463 137.225C482.536 148.888 482.573 155.96 482.573 158.45C482.306 158.45 481.578 158.57 480.397 158.791C479.245 158.984 478.314 159.095 477.585 159.132C475.216 159.326 473.648 158.846 472.883 157.703C472.459 157.048 472.173 154.725 472.025 150.705C471.491 137.935 471.435 114.073 471.85 79.1189C472.846 78.243 474.22 77.6805 475.981 77.4592C477.853 77.2656 479.309 77.5699 480.342 78.3813C480.305 78.3444 480.951 79.9856 482.297 83.3141C483.099 85.3056 485.007 91.0037 488.032 100.408C490.558 108.365 492.559 113.732 494.053 116.525C495.694 113.012 497.704 106.909 500.073 98.2324L500.064 98.214Z" fill="white"/>
<path d="M41.9479 77.1641C41.7542 79.9947 41.5883 82.2075 41.4315 83.8118C40.1683 100.574 38.813 117.014 37.3654 133.131C36.9413 137.63 35.7426 139.751 33.7603 139.484C33.1425 139.373 32.5524 138.432 31.9808 136.681C31.5659 135.344 31.2985 134.237 31.1786 133.352C31.0311 131.6 30.6623 128.465 30.0906 123.966C29.4452 118.618 28.892 113.787 28.431 109.472C27.3246 99.6983 26.2366 90.9944 25.167 83.3508C24.8259 81.0273 24.5124 78.9804 24.245 77.2286C23.489 77.2655 22.4563 77.2655 21.1562 77.2286C19.7824 77.1917 18.8235 77.1917 18.2888 77.2286C16.2327 77.2655 14.739 77.7449 13.8262 78.6577C14.0567 81.2947 14.2595 83.6828 14.4531 85.8219C15.9468 102.123 18.4271 124.593 21.9031 153.231C22.0137 154.033 22.1889 155.444 22.4194 157.472C26.3472 159.261 32.3865 159.611 40.5187 158.505C42.1599 158.274 43.6444 158.007 44.9813 157.703C45.3317 155.831 45.6544 153.747 45.9586 151.461C46.1062 150.575 46.6409 146.279 47.563 138.571C50.117 117.069 51.8965 99.2188 52.8923 85.0105C53.0767 82.5302 53.2334 80.2621 53.344 78.1967C52.6986 77.7818 48.8999 77.4314 41.9479 77.1641Z" fill="white"/>
<path d="M84.2228 99.1081C82.6185 88.1822 81.466 81.2578 80.7837 78.3165C77.0772 76.4817 71.2961 76.4817 63.4312 78.3165C55.8707 128.797 51.9705 155.222 51.74 157.583C52.6989 158.385 54.1465 158.828 56.0919 158.901C59.7247 159.058 61.5411 159.132 61.5411 159.132C62.4908 157.684 63.1454 155.259 63.4866 151.857C63.9383 147.772 64.3625 145.099 64.7405 143.835C66.1235 143.835 68.4102 143.817 71.6188 143.78C74.8643 143.743 77.1694 143.725 78.5524 143.725C79.1241 145.403 79.7879 148.151 80.5532 151.968C81.1617 154.946 81.8901 157.186 82.7292 158.671C83.2271 158.671 84.103 158.689 85.3661 158.726C86.5463 158.809 87.4407 158.828 88.0585 158.791C90.0039 158.708 91.4146 158.21 92.2905 157.297C91.5714 150.612 88.879 131.222 84.2228 99.1081ZM65.4873 133.527C67.1285 119.669 68.6407 107.655 70.0145 97.5038C70.4755 96.0102 71.1025 95.0973 71.9046 94.7562C73.3891 94.7931 74.4033 97.0981 74.9381 101.681C75.436 106.263 75.9707 111.897 76.5424 118.581C77.1878 126.824 77.5935 131.812 77.7502 133.527H65.4873Z" fill="white"/>
<path d="M136.815 89.7768C136.815 89.0577 136.815 88.3569 136.806 87.6654C136.806 86.1902 136.787 84.7887 136.769 83.4702C136.759 83.1014 136.759 82.7326 136.759 82.3822C136.732 81.1283 136.713 79.9389 136.686 78.8324C136.64 78.7956 136.593 78.7679 136.538 78.731C136.483 78.6941 136.427 78.6573 136.372 78.6204C136.298 78.5651 136.215 78.519 136.132 78.4636C135.607 78.1501 135.026 77.8828 134.399 77.6799C134.362 77.6799 134.316 77.6523 134.279 77.643C133.551 77.4125 132.739 77.2466 131.873 77.1636C129.697 76.9792 128.074 77.3941 127.004 78.4267C126.958 79.0076 126.921 79.7084 126.875 80.5382C126.857 81.0361 126.829 81.5801 126.811 82.1702C126.488 89.5002 126.202 103.764 125.916 124.97C125.64 124.177 121.113 112.625 112.344 90.284C112.151 89.8229 111.809 88.7995 111.312 87.1952C110.74 85.4341 110.297 84.0972 109.993 83.1844C108.767 79.819 107.697 77.9934 106.784 77.6799C105.678 77.3388 104.286 77.265 102.608 77.4494C100.69 77.6799 99.2792 78.2147 98.3664 79.0537C97.9884 108.881 98.1174 132.706 98.7629 150.538C98.9565 155.121 99.1686 157.564 99.3991 157.868C100.312 158.938 101.861 159.325 104.037 159.021C104.572 158.975 105.429 158.827 106.609 158.56C107.605 158.329 108.315 158.209 108.73 158.209C108.656 148.897 108.601 133.435 108.564 111.822C109.67 113.842 111.69 117.908 114.631 124.021C117.876 130.816 119.905 134.984 120.707 136.505C122.957 140.857 124.201 143.651 124.423 144.868C124.736 146.361 124.939 148.611 125.059 151.626C125.17 154.457 125.419 156.651 125.797 158.209C126.11 158.255 126.848 158.385 128.037 158.615C129.217 158.846 130.176 158.975 130.895 159.021C133.265 159.242 134.832 158.809 135.598 157.702C136.049 157.048 136.28 153.959 136.28 148.417C136.28 143.531 136.418 131.618 136.686 112.68C136.778 105.534 136.824 99.2184 136.824 93.7139C136.824 92.3493 136.824 91.04 136.815 89.7768Z" fill="white"/>
<path d="M254.944 149.109C254.179 147.92 250.943 147.431 245.208 147.616C238.947 147.846 235.056 147.523 233.526 146.647C233.369 144.084 233.295 132.116 233.295 110.735C233.295 109.204 233.332 106.383 233.415 102.252C233.489 98.1676 233.526 95.171 233.526 93.2624V92.6262C233.526 92.0453 233.526 91.4829 233.516 90.9389C233.498 83.2216 233.369 79.2384 233.129 78.9987C232.17 78.049 230.566 77.5327 228.316 77.4497C226.61 77.3944 225.163 77.6157 224.001 78.0951C223.54 78.2795 223.134 78.5008 222.756 78.7682C222.71 79.6165 222.673 80.4924 222.637 81.396C222.581 82.8343 222.526 84.3465 222.471 85.9231C222.406 88.1175 222.351 90.441 222.305 92.912C222.185 98.7853 222.129 105.433 222.129 112.855C222.129 131.139 222.148 142.48 222.185 146.878C222.222 152.336 222.913 155.711 224.25 157.011C225.771 158.459 228.519 159.169 232.493 159.132C233.258 159.132 234.992 159.058 237.712 158.901C239.888 158.754 241.584 158.708 242.801 158.791C249.486 159.058 253.174 158.901 253.856 158.33C254.548 157.721 255.046 156.246 255.35 153.922C255.617 151.553 255.479 149.948 254.944 149.109Z" fill="white"/>
<path d="M293.725 149.109C292.959 147.92 289.714 147.431 283.988 147.616C277.728 147.846 273.827 147.523 272.306 146.648C272.149 144.084 272.076 132.117 272.076 110.735C272.076 109.204 272.112 106.383 272.186 102.252C272.26 98.1676 272.306 95.1711 272.306 93.2625C272.306 84.0238 272.168 79.2662 271.9 78.9988C270.951 78.0491 269.346 77.5328 267.087 77.4498C264.718 77.376 262.874 77.8186 261.537 78.7683C261.113 87.2878 260.901 98.6471 260.901 112.855C260.901 131.139 260.919 142.48 260.965 146.878C261.002 152.336 261.684 155.711 263.021 157.011C264.552 158.459 267.299 159.169 271.273 159.132C272.039 159.132 273.772 159.058 276.483 158.901C278.659 158.754 280.355 158.708 281.582 158.791C288.266 159.058 291.945 158.901 292.637 158.33C293.319 157.721 293.817 156.246 294.121 153.922C294.388 151.553 294.259 149.948 293.725 149.109Z" fill="white"/>
<path d="M331.694 99.1081C330.098 88.1822 328.946 81.2578 328.264 78.3165C324.557 76.4817 318.776 76.4817 310.911 78.3165C303.351 128.797 299.45 155.222 299.22 157.583C300.179 158.385 301.626 158.828 303.572 158.901C307.205 159.058 309.021 159.132 309.021 159.132C309.971 157.684 310.616 155.259 310.967 151.857C311.418 147.772 311.842 145.099 312.22 143.835C313.594 143.835 315.89 143.817 319.099 143.78C322.344 143.743 324.649 143.725 326.032 143.725C326.604 145.403 327.268 148.151 328.033 151.968C328.642 154.946 329.37 157.186 330.209 158.671C330.707 158.671 331.583 158.689 332.846 158.726C334.026 158.809 334.921 158.828 335.538 158.791C337.484 158.708 338.895 158.21 339.771 157.297C339.051 150.612 336.359 131.222 331.694 99.1081ZM312.967 133.527C314.609 119.669 316.121 107.655 317.494 97.5038C317.955 96.0102 318.582 95.0973 319.385 94.7562C320.869 94.7931 321.883 97.0981 322.418 101.681C322.916 106.263 323.451 111.897 324.022 118.581C324.668 126.824 325.073 131.812 325.23 133.527H312.967Z" fill="white"/>
<mask id="mask0_31_2801" style="mask-type:luminance" maskUnits="userSpaceOnUse" x="150" y="83" width="62" height="95">
<path d="M181.192 177.407C181.072 177.407 180.952 177.407 180.823 177.407C180.805 177.407 180.713 177.407 180.685 177.407C180.565 177.407 180.436 177.407 180.316 177.407C177.098 177.407 174.498 176.393 172.59 174.401C171.326 173.073 170.755 171.7 170.635 171.377L155.67 111.492C155.265 109.85 154.048 108.753 152.665 108.753C152.397 108.753 152.13 108.79 151.863 108.873C151.816 108.873 151.715 108.892 151.586 108.892C150.876 108.892 150.618 108.661 150.397 107.804C150.203 107.047 150.332 106.642 150.609 106.255C150.904 105.83 151.328 105.526 151.494 105.425C152.96 104.715 153.67 102.944 153.282 101.165L151.346 92.1291C153.605 86.4311 157.727 83.6558 163.923 83.6558C170.681 83.6558 177.476 86.9382 179.394 87.9524C179.827 88.1737 180.288 88.2935 180.749 88.2935C181.21 88.2935 181.672 88.1829 182.105 87.9524C184.023 86.9474 190.818 83.6558 197.576 83.6558C203.772 83.6558 207.894 86.4311 210.153 92.1291L208.217 101.165C207.839 102.944 208.539 104.715 210.005 105.425C210.171 105.526 210.595 105.83 210.89 106.255C211.167 106.651 211.296 107.047 211.102 107.804C210.881 108.652 210.623 108.892 209.913 108.892C209.784 108.892 209.692 108.882 209.636 108.873C209.369 108.79 209.092 108.753 208.834 108.753C207.442 108.753 206.234 109.85 205.828 111.492L190.864 171.377C190.744 171.709 190.173 173.073 188.909 174.401C187.001 176.393 184.41 177.407 181.183 177.407H181.192Z" fill="white"/>
</mask>
<g mask="url(#mask0_31_2801)">
<path d="M234.78 76.6484H146.303V186.701H234.78V76.6484Z" fill="#C8C8C8"/>
<path d="M278.696 122.473L276.88 120.389L262.146 137.225L256.567 130.854L271.301 114.018L269.485 111.934L254.751 128.77L249.173 122.399L263.907 105.563L262.09 103.479L247.356 120.315L241.778 113.944L256.512 97.108L254.696 95.0243L239.962 111.86L234.384 105.489L249.118 88.6531L247.301 86.5693L232.567 103.405L226.989 97.0343L241.723 80.1981L239.907 78.1144L225.173 94.9505L219.594 88.5793L234.328 71.7432L232.512 69.6594L217.778 86.4956L212.2 80.1152L226.934 63.2883L225.117 61.2045L210.383 78.0314L204.805 71.6602L219.539 54.8241L217.723 52.7403L202.989 69.5764L197.411 63.2053L212.144 46.3691L210.328 44.2854L195.594 61.1215L190.016 54.7503L204.75 37.9234L202.933 35.8397L188.2 52.6666L182.621 46.2954L197.355 29.4593L195.539 27.3755L180.805 44.2116L166.071 27.3755L164.255 29.4593L178.989 46.2954L173.41 52.6666L158.676 35.8304L156.86 37.9142L171.594 54.7503L166.016 61.1215L151.282 44.2946L149.465 46.3784L164.199 63.2145L158.621 69.5857L143.887 52.7495L142.071 54.8333L156.805 71.6694L151.226 78.0406L136.493 61.2137L134.676 63.2975L149.41 80.1244L143.832 86.4956L129.098 69.6594L127.282 71.7432L142.015 88.5793L136.437 94.9505L121.703 78.1236L119.887 80.2074L134.621 97.0343L129.043 103.405L114.309 86.5785L112.492 88.6623L127.226 105.498L121.648 111.87L106.914 95.0335L105.098 97.1173L119.832 113.953L114.253 120.325L99.5194 103.498L97.7031 105.581L112.437 122.408L106.859 128.779L92.1248 111.943L90.3084 114.027L105.042 130.863L99.4641 137.234L84.7302 120.408L82.9138 122.491L97.6477 139.318L82.9138 156.154L84.7302 158.238L99.4641 141.402L105.042 147.782L90.3084 164.609L92.1248 166.693L106.859 149.866L112.437 156.237L97.7031 173.064L99.5194 175.148L114.253 158.321L119.832 164.692L105.107 181.519L106.923 183.603L121.648 166.776L127.226 173.156L112.492 189.983L114.309 192.067L129.043 175.24L134.621 181.611L119.887 198.447L121.703 200.531L136.437 183.695L142.015 190.076L127.282 206.902L129.098 208.986L143.832 192.159L149.41 198.53L134.676 215.357L136.493 217.441L151.217 200.614L156.795 206.985L142.071 223.812L143.887 225.896L158.612 209.069L164.19 215.45L149.456 232.276L151.273 234.36L166.006 217.533L171.585 223.905L156.86 240.731L158.676 242.815L173.401 225.988L178.979 232.369L164.245 249.196L166.062 251.279L180.796 234.452L195.53 251.289L197.346 249.205L182.612 232.369L188.19 225.988L202.924 242.824L204.741 240.741L190.007 223.905L195.585 217.533L210.319 234.369L212.135 232.286L197.401 215.45L202.98 209.078L217.713 225.915L219.53 223.831L204.796 206.995L210.374 200.623L225.108 217.46L226.924 215.376L212.191 198.54L217.769 192.169L232.503 209.005L234.319 206.921L219.585 190.085L225.163 183.714L239.897 200.55L241.714 198.466L226.98 181.63L232.558 175.259L247.292 192.095L249.108 190.011L234.374 173.175L239.953 166.794L254.687 183.631L256.503 181.547L241.769 164.711L247.347 158.34L262.081 175.176L263.898 173.092L249.164 156.256L254.742 149.885L269.476 166.721L271.292 164.637L256.558 147.801L262.137 141.43L276.87 158.266L278.687 156.182L263.953 139.346L278.687 122.51L278.696 122.473ZM252.926 130.854L247.347 137.225L241.769 130.854L247.347 124.483L252.926 130.854ZM182.575 130.854L188.153 124.483L193.732 130.863L188.153 137.234L182.575 130.854ZM186.337 139.309L180.759 145.68L175.181 139.309L180.759 132.938L186.337 139.318V139.309ZM180.759 128.77L175.181 122.399L180.759 116.028L186.337 122.399L180.759 128.77ZM178.942 130.854L173.364 137.225L167.786 130.854L173.364 124.474L178.942 130.845V130.854ZM171.539 139.309L165.96 145.68L160.382 139.309L165.96 132.938L171.539 139.309ZM173.355 141.393L178.933 147.773L173.355 154.144L167.777 147.773L173.355 141.393ZM180.759 149.848L186.337 156.219L180.759 162.59L175.181 156.219L180.759 149.848ZM182.575 147.764L188.153 141.393L193.732 147.764L188.153 154.135L182.575 147.764ZM189.97 139.309L195.548 132.938L201.126 139.309L195.548 145.68L189.97 139.309ZM197.364 130.854L202.943 124.474L208.521 130.845L202.943 137.216L197.364 130.845V130.854ZM195.548 128.77L189.97 122.39L195.548 116.019L201.126 122.39L195.548 128.77ZM188.153 120.315L182.575 113.944L188.153 107.573L193.732 113.944L188.153 120.315ZM180.75 111.86L175.171 105.489L180.75 99.1088L186.328 105.489L180.75 111.86ZM178.933 113.944L173.355 120.315L167.777 113.944L173.355 107.573L178.933 113.944ZM171.539 122.399L165.96 128.779L160.382 122.399L165.96 116.028L171.539 122.399ZM164.144 130.854L158.566 137.225L152.988 130.854L158.566 124.483L164.144 130.863V130.854ZM156.74 139.309L151.162 145.68L145.584 139.309L151.162 132.938L156.74 139.309ZM158.557 141.393L164.135 147.773L158.557 154.144L152.978 147.773L158.557 141.393ZM165.96 149.848L171.539 156.219L165.96 162.59L160.382 156.21L165.96 149.838V149.848ZM173.355 158.303L178.933 164.674L173.355 171.054L167.777 164.683L173.355 158.312V158.303ZM180.75 166.758L186.328 173.129L180.75 179.5L175.171 173.129L180.75 166.748V166.758ZM182.566 164.674L188.144 158.303L193.722 164.674L188.144 171.045L182.566 164.674ZM189.961 156.219L195.539 149.848L201.117 156.219L195.539 162.59L189.961 156.219ZM197.355 147.764L202.933 141.393L208.512 147.764L202.933 154.135L197.355 147.764ZM204.759 139.309L210.337 132.938L215.916 139.309L210.337 145.68L204.759 139.309ZM212.154 130.854L217.732 124.474L223.31 130.854L217.732 137.225L212.154 130.854ZM210.337 128.77L204.759 122.399L210.337 116.028L215.916 122.399L210.337 128.779V128.77ZM202.943 120.315L197.364 113.944L202.943 107.573L208.521 113.944L202.943 120.315ZM195.539 111.86L189.961 105.489L195.539 99.118L201.117 105.489L195.539 111.86ZM188.144 103.405L182.566 97.0343L188.144 90.6631L193.722 97.0343L188.144 103.405ZM180.74 94.9505L175.162 88.5793L180.74 82.1989L186.319 88.5701L180.74 94.9413V94.9505ZM178.924 97.0343L173.346 103.405L167.768 97.0343L173.346 90.6631L178.924 97.0343ZM171.529 105.489L165.951 111.86L160.373 105.489L165.951 99.118L171.529 105.489ZM164.135 113.944L158.557 120.315L152.978 113.944L158.557 107.573L164.135 113.944ZM156.731 122.399L151.153 128.77L145.574 122.399L151.153 116.028L156.731 122.399ZM149.336 130.854L143.758 137.225L138.18 130.854L143.758 124.483L149.336 130.854ZM141.942 139.309L136.363 145.68L130.785 139.309L136.363 132.938L141.942 139.309ZM143.758 141.393L149.336 147.773L143.758 154.144L138.18 147.764L143.758 141.393ZM151.153 149.848L156.731 156.219L151.153 162.59L145.574 156.219L151.153 149.848ZM158.547 158.303L164.126 164.683L158.547 171.054L152.969 164.674L158.547 158.303ZM165.951 166.758L171.529 173.129L165.951 179.5L160.373 173.129L165.951 166.758ZM173.346 175.213L178.924 181.584L173.346 187.955L167.768 181.584L173.346 175.213ZM180.74 183.667L186.319 190.039L180.74 196.41L175.162 190.029L180.74 183.658V183.667ZM182.557 181.584L188.135 175.213L193.713 181.584L188.135 187.955L182.557 181.584ZM189.951 173.129L195.53 166.758L201.108 173.138L195.53 179.509L189.951 173.138V173.129ZM197.346 164.674L202.924 158.303L208.502 164.674L202.924 171.054L197.346 164.674ZM204.75 156.219L210.328 149.848L215.906 156.219L210.328 162.59L204.75 156.219ZM212.144 147.764L217.723 141.393L223.301 147.773L217.723 154.144L212.144 147.764ZM219.539 139.309L225.117 132.938L230.696 139.309L225.117 145.68L219.539 139.309ZM226.934 130.854L232.512 124.483L238.09 130.863L232.512 137.234L226.934 130.863V130.854ZM225.117 128.77L219.539 122.39L225.117 116.019L230.696 122.39L225.117 128.761V128.77ZM217.723 120.315L212.144 113.944L217.723 107.573L223.301 113.944L217.723 120.315ZM210.328 111.86L204.75 105.489L210.328 99.118L215.906 105.498L210.328 111.87V111.86ZM202.933 103.405L197.355 97.0343L202.933 90.6631L208.512 97.0343L202.933 103.405ZM195.539 94.9505L189.961 88.5793L195.539 82.2081L201.117 88.5885L195.539 94.9597V94.9505ZM188.144 86.4956L182.566 80.1244L188.144 73.7532L193.722 80.1244L188.144 86.5048V86.4956ZM180.74 78.0406L175.162 71.6694L180.74 65.2983L186.319 71.6694L180.74 78.0406ZM178.924 80.1244L173.346 86.5048L167.768 80.1244L173.346 73.7532L178.924 80.1244ZM171.529 88.5793L165.951 94.9505L160.373 88.5793L165.951 82.1989L171.529 88.5793ZM164.135 97.0343L158.557 103.405L152.978 97.0343L158.557 90.6631L164.135 97.0343ZM156.74 105.489L151.162 111.86L145.584 105.489L151.162 99.1088L156.74 105.48V105.489ZM149.346 113.944L143.767 120.315L138.189 113.944L143.767 107.573L149.346 113.944ZM141.951 122.399L136.373 128.77L130.794 122.399L136.373 116.028L141.951 122.399ZM134.547 130.854L128.969 137.225L123.391 130.854L128.969 124.483L134.547 130.854ZM127.152 139.309L121.574 145.68L115.996 139.309L121.574 132.938L127.152 139.309ZM128.969 141.393L134.547 147.764L128.969 154.135L123.391 147.764L128.969 141.393ZM136.363 149.848L141.942 156.219L136.363 162.59L130.785 156.219L136.363 149.848ZM143.767 158.303L149.346 164.674L143.767 171.045L138.189 164.674L143.767 158.303ZM151.162 166.758L156.74 173.138L151.162 179.509L145.584 173.129L151.162 166.758ZM158.557 175.213L164.135 181.584L158.557 187.955L152.978 181.584L158.557 175.213ZM165.951 183.667L171.529 190.039L165.951 196.41L160.373 190.039L165.951 183.667ZM173.346 192.122L178.924 198.494L173.346 204.865L167.768 198.494L173.346 192.122ZM180.75 200.577L186.328 206.949L180.75 213.32L175.171 206.949L180.75 200.577ZM182.566 198.494L188.144 192.122L193.722 198.494L188.144 204.865L182.566 198.494ZM189.961 190.039L195.539 183.667L201.117 190.039L195.539 196.419L189.961 190.048V190.039ZM197.355 181.584L202.933 175.213L208.512 181.584L202.933 187.955L197.355 181.584ZM204.759 173.129L210.337 166.748L215.916 173.12L210.337 179.491L204.759 173.12V173.129ZM212.154 164.674L217.732 158.303L223.31 164.674L217.732 171.045L212.154 164.674ZM219.548 156.219L225.127 149.848L230.705 156.219L225.127 162.59L219.548 156.219ZM226.943 147.764L232.521 141.384L238.099 147.755L232.521 154.135L226.943 147.764ZM234.347 139.309L239.925 132.938L245.503 139.309L239.925 145.68L234.347 139.309ZM245.503 122.399L239.925 128.77L234.347 122.39L239.925 116.019L245.503 122.39V122.399ZM238.109 113.944L232.53 120.315L226.952 113.944L232.53 107.573L238.109 113.944ZM230.714 105.489L225.136 111.86L219.558 105.489L225.136 99.118L230.714 105.489ZM223.319 97.0343L217.741 103.405L212.163 97.0343L217.741 90.6631L223.319 97.0343ZM215.916 88.5793L210.337 94.9505L204.759 88.5793L210.337 82.1989L215.916 88.5793ZM208.512 80.1244L202.933 86.5048L197.355 80.1244L202.933 73.7532L208.512 80.1244ZM201.117 71.6694L195.539 78.0406L189.961 71.6694L195.539 65.2983L201.117 71.6694ZM193.722 63.2145L188.144 69.5857L182.566 63.2145L188.144 56.8433L193.722 63.2145ZM180.74 48.3884L186.319 54.7595L180.74 61.1307L175.162 54.7595L180.74 48.3884ZM173.337 56.8433L178.915 63.2145L173.337 69.5857L167.758 63.2145L173.337 56.8433ZM165.942 65.2983L171.52 71.6694L165.942 78.0406L160.364 71.6694L165.942 65.2983ZM158.547 73.7532L164.126 80.1244L158.547 86.5048L152.969 80.1244L158.547 73.7532ZM151.153 82.2081L156.731 88.5885L151.153 94.9597L145.574 88.5885L151.153 82.2174V82.2081ZM143.758 90.6631L149.336 97.0343L143.758 103.405L138.18 97.0343L143.758 90.6631ZM136.354 99.118L141.932 105.498L136.354 111.87L130.776 105.498L136.354 99.118ZM128.96 107.573L134.538 113.944L128.96 120.315L123.381 113.944L128.96 107.573ZM121.556 116.028L127.134 122.399L121.556 128.77L115.978 122.39L121.556 116.019V116.028ZM114.161 124.483L119.739 130.863L114.161 137.234L108.583 130.863L114.161 124.492V124.483ZM101.179 139.309L106.757 132.938L112.336 139.309L106.757 145.68L101.179 139.309ZM108.583 147.764L114.161 141.384L119.739 147.755L114.161 154.135L108.583 147.764ZM115.978 156.219L121.556 149.848L127.134 156.219L121.556 162.59L115.978 156.219ZM123.372 164.674L128.95 158.303L134.529 164.674L128.95 171.054L123.372 164.674ZM130.776 173.129L136.354 166.748L141.932 173.12L136.354 179.491L130.776 173.12V173.129ZM138.171 181.584L143.749 175.213L149.327 181.593L143.749 187.964L138.171 181.584ZM145.574 190.039L151.153 183.658L156.731 190.029L151.153 196.41L145.574 190.039ZM152.969 198.494L158.547 192.122L164.126 198.494L158.547 204.865L152.969 198.494ZM160.364 206.949L165.942 200.577L171.52 206.949L165.942 213.329L160.364 206.949ZM167.768 215.403L173.346 209.023L178.924 215.394L173.346 221.765L167.768 215.394V215.403ZM180.75 230.23L175.171 223.858L180.75 217.487L186.328 223.858L180.75 230.23ZM188.153 221.775L182.575 215.403L188.153 209.032L193.732 215.413L188.153 221.784V221.775ZM195.548 213.32L189.97 206.939L195.548 200.568L201.126 206.939L195.548 213.31V213.32ZM202.952 204.865L197.374 198.494L202.952 192.122L208.53 198.494L202.952 204.865ZM210.347 196.41L204.768 190.029L210.347 183.658L215.925 190.029L210.347 196.41ZM217.741 187.955L212.163 181.584L217.741 175.213L223.319 181.584L217.741 187.955ZM225.136 179.5L219.558 173.129L225.136 166.758L230.714 173.138L225.136 179.509V179.5ZM232.53 171.045L226.952 164.665L232.53 158.293L238.109 164.665L232.53 171.045ZM239.925 162.59L234.347 156.219L239.925 149.848L245.503 156.219L239.925 162.59ZM247.329 154.135L241.751 147.755L247.329 141.384L252.907 147.755L247.329 154.126V154.135ZM254.723 145.68L249.145 139.309L254.723 132.938L260.302 139.309L254.723 145.68Z" fill="white"/>
<path d="M278.696 121.33L276.88 119.246L262.146 136.082L256.567 129.711L271.301 112.875L269.485 110.791L254.751 127.627L249.173 121.256L263.907 104.42L262.09 102.336L247.356 119.172L241.778 112.792L256.512 95.9557L254.696 93.8719L239.962 110.708L234.384 104.337L249.118 87.5007L247.301 85.417L232.567 102.253L226.989 95.8819L241.723 79.0458L239.907 76.962L225.173 93.7982L219.594 87.427L234.328 70.5909L232.512 68.5071L217.778 85.3432L212.2 78.972L226.934 62.1359L225.117 60.0521L210.383 76.8883L204.805 70.5079L219.539 53.681L217.723 51.5972L202.989 68.4241L197.411 62.0529L212.144 45.2168L210.328 43.133L195.594 59.9692L190.016 53.5888L204.75 36.7619L202.933 34.6781L188.2 51.505L182.621 45.1338L197.355 28.3069L195.539 26.2231L180.805 43.0501L166.071 26.2231L164.255 28.3069L178.989 45.1338L173.41 51.505L158.676 34.6689L156.86 36.7526L171.594 53.5888L166.016 59.9599L151.282 43.1238L149.465 45.2076L164.199 62.0437L158.621 68.4149L143.887 51.5788L142.071 53.6625L156.805 70.4987L151.226 76.8698L136.493 60.0337L134.676 62.1175L149.41 78.9536L143.832 85.3248L129.098 68.4979L127.282 70.5816L142.015 87.4085L136.437 93.7797L121.703 76.9528L119.887 79.0366L134.621 95.8635L129.043 102.244L114.309 85.4078L112.492 87.4915L127.226 104.328L121.648 110.699L106.914 93.8719L105.098 95.9557L119.832 112.783L114.253 119.154L99.5194 102.318L97.7031 104.401L112.437 121.238L106.859 127.609L92.1248 110.782L90.3084 112.866L105.042 129.692L99.4641 136.064L84.7302 119.237L82.9138 121.321L97.6477 138.147L82.9138 154.984L84.7302 157.067L99.4641 140.231L105.042 146.612L90.3084 163.438L92.1248 165.522L106.859 148.695L112.437 155.067L97.7031 171.903L99.5194 173.986L114.253 157.15L119.832 163.521L105.107 180.348L106.923 182.432L121.648 165.605L127.226 171.976L112.492 188.803L114.309 190.887L129.043 174.06L134.621 180.431L119.887 197.267L121.703 199.351L136.437 182.515L142.015 188.896L127.282 205.722L129.098 207.806L143.832 190.979L149.41 197.35L134.676 214.177L136.493 216.261L151.217 199.434L156.795 205.805L142.071 222.632L143.887 224.716L158.612 207.889L164.19 214.26L149.456 231.087L151.273 233.171L166.006 216.344L171.585 222.715L156.86 239.542L158.676 241.626L173.401 224.799L178.979 231.179L164.245 248.006L166.062 250.09L180.796 233.263L195.53 250.099L197.346 248.016L182.612 231.179L188.19 224.799L202.924 241.635L204.741 239.551L190.007 222.715L195.585 216.344L210.319 233.18L212.135 231.096L197.401 214.26L202.98 207.889L217.713 224.725L219.53 222.642L204.796 205.805L210.374 199.425L225.108 216.261L226.924 214.177L212.191 197.341L217.769 190.97L232.503 207.806L234.319 205.722L219.585 188.886L225.163 182.515L239.897 199.351L241.714 197.267L226.98 180.431L232.558 174.06L247.292 190.896L249.108 188.813L234.374 171.976L239.953 165.605L254.687 182.441L256.503 180.358L241.769 163.521L247.347 157.141L262.081 173.977L263.898 171.893L249.164 155.057L254.742 148.686L269.476 165.522L271.292 163.438L256.558 146.602L262.137 140.231L276.87 157.067L278.687 154.984L263.953 138.147L278.687 121.311L278.696 121.33ZM252.926 129.711L247.347 136.082L241.769 129.711L247.347 123.34L252.926 129.711ZM182.575 129.711L188.153 123.34L193.732 129.72L188.153 136.091L182.575 129.711ZM186.337 138.166L180.759 144.537L175.181 138.157L180.759 131.785L186.337 138.166ZM180.759 127.627L175.181 121.256L180.759 114.885L186.337 121.256L180.759 127.627ZM178.942 129.711L173.364 136.082L167.786 129.711L173.364 123.34L178.942 129.711ZM171.539 138.166L165.96 144.546L160.382 138.166L165.96 131.795L171.539 138.166ZM173.355 140.25L178.933 146.63L173.355 153.001L167.777 146.63L173.355 140.25ZM180.759 148.705L186.337 155.076L180.759 161.456L175.181 155.085L180.759 148.714V148.705ZM182.575 146.621L188.153 140.25L193.732 146.621L188.153 152.992L182.575 146.621ZM189.97 138.166L195.548 131.795L201.126 138.166L195.548 144.537L189.97 138.166ZM197.364 129.711L202.943 123.34L208.521 129.711L202.943 136.082L197.364 129.711ZM195.548 127.627L189.97 121.247L195.548 114.876L201.126 121.256L195.548 127.627ZM188.153 119.172L182.575 112.801L188.153 106.43L193.732 112.801L188.153 119.172ZM180.75 110.717L175.171 104.346L180.75 97.9657L186.328 104.346L180.75 110.717ZM178.933 112.801L173.355 119.172L167.777 112.792L173.355 106.421L178.933 112.792V112.801ZM171.539 121.256L165.96 127.627L160.382 121.256L165.96 114.876L171.539 121.256ZM164.144 129.711L158.566 136.082L152.988 129.711L158.566 123.34L164.144 129.711ZM156.74 138.166L151.162 144.546L145.584 138.166L151.162 131.795L156.74 138.166ZM158.557 140.25L164.135 146.63L158.557 153.001L152.978 146.63L158.557 140.25ZM165.96 148.705L171.539 155.076L165.96 161.456L160.382 155.076L165.96 148.705ZM173.355 157.16L178.933 163.531L173.355 169.902L167.777 163.531L173.355 157.15V157.16ZM180.75 165.614L186.328 171.986L180.75 178.357L175.171 171.986L180.75 165.614ZM182.566 163.531L188.144 157.15L193.722 163.531L188.144 169.902L182.566 163.531ZM189.961 155.076L195.539 148.705L201.117 155.076L195.539 161.456L189.961 155.076ZM197.355 146.621L202.933 140.25L208.512 146.621L202.933 152.992L197.355 146.621ZM204.759 138.166L210.337 131.795L215.916 138.166L210.337 144.537L204.759 138.166ZM212.154 129.711L217.732 123.34L223.31 129.711L217.732 136.082L212.154 129.711ZM210.337 127.627L204.759 121.256L210.337 114.876L215.916 121.247L210.337 127.618V127.627ZM202.943 119.172L197.364 112.792L202.943 106.421L208.521 112.792L202.943 119.172ZM195.539 110.717L189.961 104.346L195.539 97.9749L201.117 104.346L195.539 110.717ZM188.144 102.262L182.566 95.8819L188.144 89.5108L193.722 95.8819L188.144 102.253V102.262ZM180.74 93.8074L175.162 87.4362L180.74 81.065L186.319 87.4362L180.74 93.8074ZM178.924 95.8911L173.346 102.272L167.768 95.9004L173.346 89.5292L178.924 95.9004V95.8911ZM171.529 104.346L165.951 110.717L160.373 104.346L165.951 97.9749L171.529 104.346ZM164.135 112.801L158.557 119.181L152.978 112.81L158.557 106.439L164.135 112.81V112.801ZM156.731 121.256L151.153 127.627L145.574 121.256L151.153 114.876L156.731 121.247V121.256ZM149.336 129.711L143.758 136.082L138.18 129.711L143.758 123.34L149.336 129.711ZM141.942 138.166L136.363 144.537L130.785 138.166L136.363 131.795L141.942 138.166ZM143.758 140.25L149.336 146.63L143.758 153.001L138.18 146.63L143.758 140.259V140.25ZM151.153 148.705L156.731 155.076L151.153 161.447L145.574 155.076L151.153 148.705ZM158.547 157.16L164.126 163.54L158.547 169.911L152.969 163.531L158.547 157.16ZM165.951 165.614L171.529 171.986L165.951 178.357L160.373 171.986L165.951 165.614ZM173.346 174.069L178.924 180.441L173.346 186.812L167.768 180.441L173.346 174.069ZM180.74 182.524L186.319 188.905L180.74 195.276L175.162 188.905L180.74 182.534V182.524ZM182.557 180.441L188.135 174.069L193.713 180.441L188.135 186.821L182.557 180.441ZM189.951 171.986L195.53 165.614L201.108 171.986L195.53 178.357L189.951 171.986ZM197.346 163.531L202.924 157.15L208.502 163.531L202.924 169.902L197.346 163.531ZM204.75 155.076L210.328 148.705L215.906 155.076L210.328 161.447L204.75 155.067V155.076ZM212.144 146.621L217.723 140.25L223.301 146.63L217.723 153.001L212.144 146.63V146.621ZM219.539 138.166L225.117 131.795L230.696 138.166L225.117 144.546L219.539 138.166ZM226.934 129.711L232.512 123.34L238.09 129.711L232.512 136.082L226.934 129.711ZM225.117 127.627L219.539 121.256L225.117 114.885L230.696 121.265L225.117 127.636V127.627ZM217.723 119.172L212.144 112.801L217.723 106.43L223.301 112.801L217.723 119.172ZM210.328 110.717L204.75 104.346L210.328 97.9749L215.906 104.355L210.328 110.726V110.717ZM202.933 102.262L197.355 95.8911L202.933 89.52L208.512 95.8911L202.933 102.262ZM195.539 93.8074L189.961 87.4362L195.539 81.065L201.117 87.4362L195.539 93.8074ZM188.144 85.3524L182.566 78.9813L188.144 72.6101L193.722 78.9813L188.144 85.3524ZM180.74 76.8975L175.162 70.5263L180.74 64.1551L186.319 70.5263L180.74 76.8975ZM178.924 78.9813L173.346 85.3524L167.768 78.9813L173.346 72.6101L178.924 78.9813ZM171.529 87.4362L165.951 93.8074L160.373 87.4362L165.951 81.065L171.529 87.4362ZM164.135 95.8911L158.557 102.262L152.978 95.8911L158.557 89.52L164.135 95.8911ZM156.74 104.346L151.162 110.717L145.584 104.346L151.162 97.9657L156.74 104.337V104.346ZM149.346 112.801L143.767 119.181L138.189 112.801L143.767 106.43L149.346 112.801ZM141.951 121.256L136.373 127.627L130.794 121.256L136.373 114.876L141.951 121.256ZM134.547 129.711L128.969 136.082L123.391 129.711L128.969 123.34L134.547 129.711ZM127.152 138.166L121.574 144.537L115.996 138.166L121.574 131.795L127.152 138.166ZM128.969 140.25L134.547 146.621L128.969 152.992L123.391 146.621L128.969 140.25ZM136.363 148.705L141.942 155.076L136.363 161.447L130.785 155.067L136.363 148.695V148.705ZM143.767 157.16L149.346 163.531L143.767 169.902L138.189 163.531L143.767 157.16ZM151.162 165.614L156.74 171.995L151.162 178.366L145.584 171.986L151.162 165.614ZM158.557 174.069L164.135 180.441L158.557 186.812L152.978 180.441L158.557 174.069ZM165.951 182.524L171.529 188.896L165.951 195.267L160.373 188.896L165.951 182.524ZM173.346 190.979L178.924 197.35L173.346 203.722L167.768 197.341L173.346 190.97V190.979ZM180.75 199.434L186.328 205.805L180.75 212.177L175.171 205.805L180.75 199.434ZM182.566 197.35L188.144 190.979L193.722 197.35L188.144 203.722L182.566 197.35ZM189.961 188.896L195.539 182.515L201.117 188.886L195.539 195.257L189.961 188.886V188.896ZM197.355 180.441L202.933 174.069L208.512 180.441L202.933 186.821L197.355 180.45V180.441ZM204.759 171.986L210.337 165.614L215.916 171.986L210.337 178.357L204.759 171.986ZM212.154 163.531L217.732 157.16L223.31 163.531L217.732 169.902L212.154 163.531ZM219.548 155.076L225.127 148.705L230.705 155.076L225.127 161.456L219.548 155.085V155.076ZM226.943 146.621L232.521 140.24L238.099 146.612L232.521 152.983L226.943 146.612V146.621ZM234.347 138.166L239.925 131.795L245.503 138.166L239.925 144.537L234.347 138.166ZM245.503 121.256L239.925 127.627L234.347 121.256L239.925 114.885L245.503 121.265V121.256ZM238.109 112.801L232.53 119.172L226.952 112.792L232.53 106.421L238.109 112.792V112.801ZM230.714 104.346L225.136 110.717L219.558 104.346L225.136 97.9749L230.714 104.346ZM223.319 95.8911L217.741 102.262L212.163 95.8819L217.741 89.5108L223.319 95.8819V95.8911ZM215.916 87.4362L210.337 93.8074L204.759 87.4362L210.337 81.065L215.916 87.4362ZM208.512 78.9813L202.933 85.3524L197.355 78.9813L202.933 72.6009L208.512 78.9813ZM201.117 70.5263L195.539 76.9067L189.961 70.5355L195.539 64.1644L201.117 70.5355V70.5263ZM193.722 62.0714L188.144 68.4425L182.566 62.0714L188.144 55.7002L193.722 62.0714ZM180.74 47.2452L186.319 53.6164L180.74 59.9876L175.162 53.6164L180.74 47.2452ZM173.337 55.7002L178.915 62.0714L173.337 68.4425L167.758 62.0714L173.337 55.7002ZM165.942 64.1551L171.52 70.5263L165.942 76.8975L160.364 70.5263L165.942 64.1551ZM158.547 72.6101L164.126 78.9813L158.547 85.3524L152.969 78.9813L158.547 72.6101ZM151.153 81.065L156.731 87.4362L151.153 93.8074L145.574 87.4362L151.153 81.065ZM143.758 89.52L149.336 95.8911L143.758 102.272L138.18 95.8911L143.758 89.52ZM136.354 97.9749L141.932 104.355L136.354 110.726L130.776 104.355L136.354 97.9749ZM128.96 106.43L134.538 112.801L128.96 119.181L123.381 112.801L128.96 106.43ZM121.556 114.885L127.134 121.265L121.556 127.636L115.978 121.265L121.556 114.894V114.885ZM114.161 123.34L119.739 129.711L114.161 136.082L108.583 129.711L114.161 123.34ZM101.179 138.166L106.757 131.795L112.336 138.166L106.757 144.546L101.179 138.166ZM108.583 146.621L114.161 140.24L119.739 146.612L114.161 152.983L108.583 146.612V146.621ZM115.978 155.076L121.556 148.705L127.134 155.076L121.556 161.456L115.978 155.085V155.076ZM123.372 163.531L128.95 157.15L134.529 163.531L128.95 169.902L123.372 163.531ZM130.776 171.986L136.354 165.614L141.932 171.986L136.354 178.357L130.776 171.986ZM138.171 180.441L143.749 174.069L149.327 180.45L143.749 186.83L138.171 180.45V180.441ZM145.574 188.896L151.153 182.515L156.731 188.886L151.153 195.257L145.574 188.886V188.896ZM152.969 197.35L158.547 190.979L164.126 197.35L158.547 203.731L152.969 197.36V197.35ZM160.364 205.805L165.942 199.425L171.52 205.805L165.942 212.177L160.364 205.805ZM167.768 214.26L173.346 207.889L178.924 214.26L173.346 220.632L167.768 214.26ZM180.75 229.086L175.171 222.706L180.75 216.335L186.328 222.706L180.75 229.086ZM188.153 220.632L182.575 214.26L188.153 207.889L193.732 214.26L188.153 220.632ZM195.548 212.177L189.97 205.805L195.548 199.434L201.126 205.815L195.548 212.186V212.177ZM202.952 203.722L197.374 197.341L202.952 190.97L208.53 197.341L202.952 203.722ZM210.347 195.267L204.768 188.896L210.347 182.515L215.925 188.896L210.347 195.267ZM217.741 186.812L212.163 180.431L217.741 174.06L223.319 180.431L217.741 186.803V186.812ZM225.136 178.357L219.558 171.986L225.136 165.614L230.714 171.986L225.136 178.357ZM232.53 169.902L226.952 163.531L232.53 157.15L238.109 163.531L232.53 169.902ZM239.925 161.447L234.347 155.067L239.925 148.695L245.503 155.067L239.925 161.447ZM247.329 152.992L241.751 146.621L247.329 140.25L252.907 146.63L247.329 153.001V152.992ZM254.723 144.537L249.145 138.157L254.723 131.785L260.302 138.157L254.723 144.528V144.537Z" fill="white"/>
<g style="mix-blend-mode:multiply">
<path d="M235.407 98.7954C234.669 95.1166 232.549 91.41 229.11 89.2433C234.586 83.4253 238.219 76.1321 239.187 67.8616C241.963 44.2486 222.038 21.7144 194.681 17.51C167.325 13.3148 142.901 29.0537 140.134 52.6575C138.917 63.0486 142.089 73.2278 148.368 81.738C140.439 83.6466 131.523 89.7135 135.405 97.7904C140.752 108.91 151.254 101.064 157.708 98.611C164.992 95.845 176.766 99.1643 182.409 104.364C185.71 107.407 187.877 112.81 193.556 113.179C200.426 113.622 197.899 107.914 200.979 103.737C209.305 92.4243 215.261 104.337 223.153 108.357C232.936 113.336 236.892 106.098 235.416 98.7862L235.407 98.7954Z" fill="white"/>
</g>
<g style="mix-blend-mode:multiply" opacity="0.3">
<path d="M151.927 83.5361H148.451C147.778 83.5361 147.142 83.8957 146.736 84.5135C146.331 85.1312 146.201 85.9334 146.395 86.671L170.082 179.27C170.349 180.312 171.188 181.031 172.138 181.031C173.088 181.031 173.927 180.312 174.194 179.27L180.676 153.923C165.195 140.572 154.066 114.442 151.918 83.5361H151.927Z" fill="white"/>
</g>
</g>
<path d="M181.192 182.866C181.054 182.866 180.906 182.866 180.759 182.866C174.683 182.995 170.976 180.358 168.929 178.117C166.707 175.683 165.933 173.184 165.896 173.083L165.868 173L151.208 114.35C150.424 114.304 149.474 114.11 148.534 113.557C147.086 112.709 146.1 111.28 145.584 109.307C144.579 105.434 146.45 102.686 148.165 101.285L146.118 91.7421L146.275 91.2903C148.248 85.4262 151.687 81.48 156.5 79.5437C165.508 75.9294 176.517 80.5303 180.749 82.6325C184.982 80.5395 195.981 75.9294 204.999 79.5437C209.812 81.4707 213.251 85.4262 215.224 91.2903L215.381 91.7421L213.334 101.285C215.049 102.696 216.92 105.434 215.915 109.307C215.408 111.28 214.412 112.709 212.965 113.557C212.034 114.11 211.075 114.304 210.291 114.35L195.622 173.037V173.074C195.576 173.175 194.801 175.683 192.579 178.108C190.578 180.293 186.992 182.856 181.174 182.856L181.192 182.866ZM169.233 172.096C169.427 172.686 171.907 179.583 180.722 179.38H180.759H180.796C180.925 179.38 181.054 179.38 181.183 179.38C189.684 179.38 192.118 172.594 192.284 172.087L207.719 110.33L209.406 110.819C210.107 110.975 211.868 111.077 212.55 108.412C213.38 105.204 210.863 103.728 210.568 103.572L209.387 102.963L209.683 101.672L211.766 91.9265C210.116 87.3164 207.405 84.2276 203.699 82.7431C195.207 79.3316 183.764 84.9375 181.561 86.0901L180.749 86.5142L179.938 86.0901C177.734 84.9375 166.283 79.3316 157.791 82.7431C154.085 84.2276 151.374 87.3164 149.723 91.9265L152.084 102.972L150.904 103.581C150.627 103.728 148.11 105.204 148.94 108.412C149.207 109.454 149.659 110.173 150.286 110.542C151.116 111.031 152.084 110.819 152.093 110.819L153.79 110.376L169.215 172.087L169.233 172.096Z" fill="white"/>
<path d="M206.188 107.961H154.297C153.937 107.961 153.642 107.666 153.642 107.306C153.642 106.946 153.937 106.651 154.297 106.651H206.188C206.548 106.651 206.843 106.946 206.843 107.306C206.843 107.666 206.548 107.961 206.188 107.961Z" fill="white"/>
<path d="M212.191 112.497H148.258C147.538 112.497 146.958 111.916 146.958 111.197C146.958 110.477 147.538 109.896 148.258 109.896H212.191C212.91 109.896 213.491 110.477 213.491 111.197C213.491 111.916 212.91 112.497 212.191 112.497Z" fill="white"/>
<path d="M209.508 100.363C205.165 100.363 200.573 98.3531 196.443 94.665C193.769 96.2416 190.92 97.6062 187.858 97.6062C183.848 97.6062 180.031 95.3842 175.642 90.4421C173.346 91.9358 168.837 94.3792 163.886 94.3792C158.418 94.3792 153.882 91.5947 151.752 90.0272C150.231 91.0046 147.612 92.3691 144.754 92.3691C142.126 92.3691 139.775 91.2166 137.94 89.0314C134.446 84.8639 133.358 79.6452 135.036 75.0812C136.649 70.6555 140.55 67.6866 145.731 66.7923C145.28 64.4595 145.104 61.1495 146.404 57.6181C147.649 54.1421 150.148 51.5512 153.615 50.1405C154.97 49.5873 156.307 49.2738 157.459 49.1079C157.303 48.5454 157.164 47.9277 157.054 47.2823C156.316 42.9764 157.247 39.4266 159.746 37.0017C164.098 32.7881 170.248 31.9029 174.637 31.9029C175.328 31.9029 175.974 31.9214 176.555 31.9582C176.527 29.9851 176.979 27.6155 178.408 25.2459C180.399 21.9451 185.332 19.4464 185.885 19.1698L188.79 17.7314L188.919 21.3366C189.011 23.6693 189.767 27.8737 191.399 29.2198C193.086 30.6029 195.585 30.861 198.222 31.1376C200.896 31.4143 203.662 31.7001 206.225 33.1292C209.24 34.8165 211.287 37.7393 212.467 42.0544C213.426 44.7928 213.186 47.6972 212.781 49.7441C213.325 49.9838 213.924 50.3065 214.533 50.7306C216.543 52.1137 219.143 54.9074 220.157 60.375L220.175 60.458V60.5409C220.802 65.4553 219.465 69.1711 218.128 71.5314C220.249 72.7116 222.895 74.8231 224.214 78.3729C225.837 82.7156 225.071 87.925 221.918 93.8352L221.78 94.0933L221.595 94.3054C218.119 98.2609 213.933 100.354 209.489 100.354L209.508 100.363Z" fill="white"/>
<path d="M220.074 92.5536C212.753 100.898 203.597 98.519 196.701 91.6961C189.776 95.9835 184.77 97.9197 175.974 87.2888C175.974 87.2888 170.266 91.8989 163.877 91.8989C161.415 91.8989 159.156 91.2627 157.275 90.4421C153.965 89.013 151.817 87.0399 151.817 87.0399C151.817 87.0399 144.486 93.2359 139.517 87.3073C133.155 79.7098 136.917 69.2448 148.672 68.9959C148.672 68.9959 146.367 64.0907 148.414 58.5586C151.226 50.703 160.64 51.3945 160.64 51.3945C160.64 51.3945 156.593 43.2991 161.147 38.8826C167.657 32.576 179.247 34.7335 179.247 34.7335C179.247 34.7335 177.587 30.9625 180.196 26.6474C181.893 23.8352 186.752 21.438 186.752 21.438C186.752 21.438 187.019 28.6666 190.136 31.2299C194.884 35.1208 202.823 31.9029 207.59 37.1953C208.761 38.4954 209.738 40.3118 210.43 42.8842C211.84 46.7752 210.042 51.4867 210.042 51.4867C210.042 51.4867 216.395 51.9938 218.055 60.8913C219.004 68.4427 214.523 72.6287 214.523 72.6287C214.523 72.6287 228.75 76.2522 220.083 92.5443L220.074 92.5536Z" fill="white"/>
<path d="M220.074 92.5536C212.753 100.898 203.597 98.5191 196.701 91.6961C189.776 95.9835 184.77 97.9198 175.974 87.2888C175.974 87.2888 170.266 91.899 163.877 91.899C169.381 89.4279 173.346 86.625 175.199 82.0057C188.283 88.4414 190.717 84.532 201.56 85.998C211.508 85.7398 211.093 81.9042 208.161 76.492C205.22 71.0797 182.889 75.2564 168.422 73.7167C153.956 72.1677 157.256 68.4796 157.256 68.4796C157.256 68.4796 169.695 68.9959 176.02 68.7378C182.354 68.4796 201.108 66.1653 205.856 63.3255C210.605 60.4949 211.96 56.3642 208.798 53.5336C205.635 50.703 199.835 52.7314 184.917 52.9896C169.999 53.2478 166.523 49.154 166.523 49.154C166.523 49.154 176.103 49.7072 184.917 48.9327C193.732 48.1582 198.83 46.9043 205.165 42.5247C207.276 41.0679 207.719 38.6798 207.59 37.2046C208.761 38.5046 209.738 40.321 210.429 42.8935C211.84 46.7844 210.042 51.4959 210.042 51.4959C210.042 51.4959 216.395 52.0031 218.055 60.9006C219.004 68.4519 214.523 72.6379 214.523 72.6379C214.523 72.6379 228.75 76.2615 220.083 92.5536H220.074Z" fill="#C8C8C8"/>
<path d="M140.706 104.282C139.849 104.282 139.047 103.876 138.466 103.148C137.083 101.423 137.212 98.2978 137.498 94.6927C137.516 94.5083 137.525 94.3147 137.544 94.1303C137.313 93.9735 137.027 93.7799 136.686 93.5402C135.036 92.36 134.27 89.6769 134.132 84.5597C134.049 81.4709 134.243 78.6218 134.252 78.502L134.962 76.1416L136.022 76.6764L137.193 86.0441L147.87 84.2093C147.87 84.366 150.563 83.4717 148.986 91.8252C148.525 94.4714 148.737 98.4084 145.547 98.4084C145.399 98.4084 145.261 98.3992 145.132 98.3808C144.8 100.52 144.053 103.424 141.545 104.162C141.259 104.245 140.983 104.282 140.706 104.282Z" fill="white"/>
<path d="M148.35 80.6684C148.35 80.6684 148.331 82.7153 147.944 86.7537C147.815 88.0907 147.649 89.6581 147.418 91.4376C146.515 98.5833 144.597 95.0888 143.712 95.0058C142.827 94.9321 143.518 101.017 141.001 101.755C139.627 102.152 139.425 99.8925 139.498 97.5875C139.554 95.6697 139.812 93.7242 139.747 93.2816C139.6 92.3135 140.042 92.9958 137.839 91.4284C135.644 89.861 136.419 78.686 136.419 78.686L148.35 80.6592V80.6684Z" fill="white"/>
<path d="M147.428 91.4376C146.524 98.5833 144.606 95.0888 143.721 95.0058C142.836 94.9321 143.528 101.017 141.01 101.755C139.637 102.152 139.434 99.8926 139.508 97.5875C140.088 97.9287 140.688 98.067 141.167 97.3754C142.504 95.4761 142.504 88.5148 142.504 88.5148C142.504 88.5148 143.952 92.3135 145.39 91.5575C146.838 90.7922 147.225 85.5459 147.225 85.5459C147.225 85.5459 147.667 89.6581 147.437 91.4376H147.428Z" fill="white"/>
<path d="M146.266 83.5636C148.866 85.2694 150.258 83.4714 151.65 78.7046C151.337 85.1126 148.165 87.6574 146.266 83.5636Z" fill="white"/>
<path d="M185.553 24.9229C185.553 24.9229 183.506 29.8557 184.419 32.7047C185.332 35.563 186.697 34.0048 191.473 37.3794C196.249 40.754 194.884 43.0867 194.884 43.0867C194.884 43.0867 204.215 41.0121 202.399 37.6375C200.582 34.2629 197.392 36.3375 191.242 33.2303C185.092 30.1138 185.553 24.9321 185.553 24.9321V24.9229Z" fill="white"/>
<path d="M174.176 35.0375C174.176 35.0375 163.655 37.6376 161.959 39.8044C160.262 41.9804 161.535 44.3868 165.767 45.5947C169.999 46.8025 176.988 46.8025 176.988 46.8025C176.988 46.8025 166.191 44.6266 166.827 41.4917C167.463 38.3568 174.176 35.0283 174.176 35.0283V35.0375Z" fill="white"/>
<path d="M160.253 52.5103C160.253 52.5103 150.553 55.0735 149.843 59.5637C149.143 64.054 155.468 65.3356 160.53 65.3356C165.591 65.3356 178.112 64.054 178.112 64.054C178.112 64.054 156.74 65.815 154.629 61.8135C152.517 57.8027 160.253 52.5195 160.253 52.5195V52.5103Z" fill="white"/>
<path d="M153.236 70.8121C153.236 70.8121 144.514 69.5858 141.499 72.5271C138.484 75.4776 137.193 80.0139 137.516 83.3332C137.839 86.6433 138.807 88.1185 138.807 88.1185C138.807 88.1185 138.272 81.1203 140.964 77.0727C143.656 73.025 153.236 70.8121 153.236 70.8121Z" fill="white"/>
<path d="M219.862 85.4912C219.862 85.4912 219.189 90.0644 214.735 92.1021C210.273 94.1398 205.368 93.6234 205.368 93.6234C205.368 93.6234 210.273 97.1825 215.399 94.6377C220.526 92.0929 219.862 85.4912 219.862 85.4912Z" fill="white"/>
<path d="M215.759 63.5562C215.759 63.5562 214.164 67.401 211.269 69.0514C208.374 70.7018 204.667 71.4579 204.667 71.4579C204.667 71.4579 209.434 72.5274 212.698 70.6742C215.962 68.8117 215.768 63.5562 215.768 63.5562H215.759Z" fill="white"/>
<path d="M145.344 81.8952C145.344 81.8952 146.792 84.7627 148.442 83.1123C150.083 81.4618 150.47 78.9263 150.47 78.9263C150.47 78.9263 148.341 81.7938 147.372 81.9044C146.404 82.015 145.344 81.9044 145.344 81.9044V81.8952Z" fill="white"/>
<path d="M176.075 87.3531C177.624 88.7638 180.067 88.2567 182.723 87.1318C182.723 87.1318 180.353 89.1142 178.131 89.2986C175.918 89.483 175.125 89.1142 175.125 89.1142L176.066 87.3531H176.075Z" fill="white"/>
<path d="M208.318 40.1367C208.318 40.1367 209.388 43.7879 207.728 46.0837C206.068 48.3795 200.85 50.0023 200.85 50.0023C200.85 50.0023 207.728 50.5463 209.277 48.2412C210.817 45.9454 208.327 40.1274 208.327 40.1274L208.318 40.1367Z" fill="white"/>
<path d="M192.819 90.0088C193.354 90.6173 194.82 91.3826 197.355 91.2259C199.891 91.0691 202.297 90.1563 202.297 90.1563C202.297 90.1563 198.83 94.1118 196.424 93.3557C194.017 92.5905 192.819 90.0088 192.819 90.0088Z" fill="white"/>
<path d="M226.546 33.7285C226.5 34.291 226.224 34.4938 225.966 34.7243C224.444 36.1073 222.923 37.5088 221.402 38.9011C221.208 39.0763 220.996 39.2607 220.765 39.3805C220.341 39.5926 219.945 39.4912 219.631 39.1408C219.318 38.7812 219.419 38.3755 219.705 38.1081C221.503 36.4485 223.31 34.8165 225.145 33.1937C225.449 32.9264 225.873 32.9632 226.215 33.2122C226.445 33.3782 226.556 33.6179 226.546 33.7285Z" fill="white"/>
<path d="M138.807 41.879C139.185 41.8421 139.462 42.0358 139.71 42.2939C141.103 43.7139 142.504 45.1338 143.887 46.5537C144.302 46.9778 144.699 47.4665 144.136 48.0381C143.565 48.619 143.076 48.2133 142.661 47.7984C141.25 46.3969 139.867 44.9678 138.475 43.5479C138.152 43.216 137.857 42.8287 138.069 42.3216C138.198 42.0173 138.457 41.8606 138.807 41.879Z" fill="white"/>
<path d="M128.416 55.7832C130.251 56.2166 132.399 56.7145 134.538 57.2492C134.999 57.3691 135.405 57.6549 135.248 58.2358C135.091 58.8259 134.658 58.9826 134.086 58.8443C131.975 58.3557 129.854 57.8854 127.743 57.3875C127.217 57.2677 126.775 56.9819 126.913 56.3641C127.042 55.7463 127.558 55.691 128.416 55.7832Z" fill="white"/>
<path d="M232.014 49.8087C231.664 49.6612 231.341 49.7534 231.028 49.9101C229.257 50.8137 227.478 51.7081 225.708 52.6209C225.173 52.8975 224.656 53.2294 224.998 53.9486C225.348 54.6862 225.947 54.4557 226.473 54.1883C228.252 53.3032 230.023 52.3996 231.793 51.4868C232.208 51.2747 232.604 51.0073 232.567 50.4541C232.54 50.1222 232.346 49.8917 232.014 49.7995V49.8087Z" fill="white"/>
<path d="M237.436 66.3031C235.564 66.1371 233.36 65.9158 231.166 65.7406C230.696 65.7038 230.216 65.8513 230.179 66.4506C230.142 67.0591 230.502 67.345 231.083 67.4003C233.24 67.6123 235.398 67.8336 237.565 68.0365C238.1 68.0826 238.607 67.9627 238.68 67.3265C238.754 66.6903 238.284 66.4875 237.436 66.2939V66.3031Z" fill="white"/>
<path d="M126.249 82.236C125.41 82.236 124.571 82.236 123.732 82.236C123.16 82.236 122.607 82.1346 122.625 81.397C122.644 80.77 123.114 80.5856 123.658 80.5764C125.373 80.5579 127.097 80.5487 128.812 80.5303C129.393 80.5303 129.826 80.7792 129.808 81.3785C129.79 81.9779 129.338 82.1899 128.766 82.1807C127.927 82.1715 127.088 82.1807 126.249 82.1807C126.249 82.1991 126.249 82.2176 126.249 82.2452V82.236Z" fill="white"/>
<path d="M234.642 92.839C232.927 92.4886 231.212 92.1475 229.506 91.7695C229.073 91.6773 228.723 91.3822 228.842 90.8659C228.953 90.3957 229.313 90.1652 229.783 90.2205C231.636 90.451 233.443 90.8751 235.25 91.3361C235.684 91.4468 235.868 91.7602 235.73 92.212C235.564 92.756 235.149 92.8667 234.642 92.8298V92.839Z" fill="white"/>
<path d="M168.118 26.6843C168.127 26.9794 167.971 27.1914 167.74 27.3482C167.463 27.5326 167.095 27.5971 166.892 27.3666C165.758 26.085 164.661 24.7481 164.015 23.153C163.757 22.5168 164.365 22.2125 165.011 22.3692C165.407 22.4614 168.109 26.2694 168.127 26.6843H168.118Z" fill="white"/>
<path d="M152.637 37.407C152.139 37.3333 151.817 37.0659 151.835 36.6602C151.872 35.9687 152.49 35.7013 152.997 35.3786C153.393 35.1204 153.827 34.9544 154.269 35.2403C154.573 35.4431 154.758 35.7935 154.527 36.1162C154.048 36.78 153.31 37.0935 152.646 37.407H152.637Z" fill="white"/>
<path d="M210.522 30.1139C210.522 30.4643 210.3 30.8515 209.793 30.7593C208.862 30.5934 208.632 29.7635 208.438 29.0075C208.309 28.5188 208.705 28.2606 209.185 28.233C209.747 28.2053 210.513 29.2103 210.522 30.1139Z" fill="white"/>
<path d="M129.817 105.452C129.578 106.088 129.19 106.632 128.434 106.734C127.973 106.798 127.706 106.512 127.724 106.06C127.761 105.304 128.25 104.889 128.923 104.733C129.402 104.622 129.679 104.954 129.817 105.461V105.452Z" fill="white"/>
<path d="M224.177 102.668C223.642 102.585 223.329 102.271 223.365 101.755C223.402 101.22 223.771 100.971 224.315 101.017C224.813 101.063 225.08 101.358 225.062 101.838C225.034 102.363 224.702 102.64 224.177 102.668Z" fill="white"/>
<path d="M194.884 15.5463C194.395 15.491 194.008 15.2236 193.99 14.7073C193.971 14.1909 194.331 13.8498 194.838 13.8313C195.308 13.8129 195.631 14.1264 195.677 14.5874C195.732 15.1129 195.4 15.4172 194.884 15.5463Z" fill="white"/>
<path d="M131.099 68.4798C130.601 68.3969 130.241 68.1479 130.278 67.6039C130.306 67.1429 130.591 66.8386 131.089 66.8479C131.652 66.8479 131.919 67.1613 131.901 67.6961C131.882 68.194 131.587 68.4337 131.099 68.4798Z" fill="white"/>
<path d="M218.055 137.493C218.092 137.889 217.907 138.129 217.649 138.313C217.363 138.516 217.031 138.535 216.81 138.295C215.252 136.626 213.657 134.985 212.292 133.15C212.052 132.827 212.237 132.486 212.504 132.237C212.809 131.951 213.159 131.97 213.436 132.237C215.067 133.786 216.533 135.492 217.963 137.225C218.027 137.308 218.036 137.438 218.055 137.493Z" fill="white"/>
<path d="M143.297 138.037C142.569 138 142.163 137.281 142.606 136.783C144.044 135.16 145.565 133.602 147.078 132.044C147.382 131.73 147.778 131.786 148.101 132.099C148.414 132.413 148.479 132.855 148.212 133.141C146.736 134.736 145.224 136.294 143.712 137.862C143.592 137.982 143.38 138.009 143.297 138.046V138.037Z" fill="white"/>
<path d="M232.586 80.9911C232.088 80.9081 231.728 80.6591 231.765 80.1151C231.793 79.6541 232.079 79.3499 232.576 79.3591C233.139 79.3591 233.406 79.6726 233.388 80.2073C233.369 80.7052 233.074 80.945 232.586 80.9911Z" fill="white"/>
<rect x="539.586" y="151.887" width="113.612" height="5.31113" transform="rotate(-1 539.586 151.887)" fill="url(#paint0_linear_31_2801)"/>
<rect x="539.493" y="146.577" width="115.69" height="5.31113" transform="rotate(-1 539.493 146.577)" fill="url(#paint1_linear_31_2801)"/>
<rect x="539.401" y="141.267" width="115.228" height="5.31113" transform="rotate(-1 539.401 141.267)" fill="url(#paint2_linear_31_2801)"/>
<rect x="539.308" y="135.956" width="116.152" height="5.31113" transform="rotate(-1 539.308 135.956)" fill="url(#paint3_linear_31_2801)"/>
<rect x="539.215" y="130.646" width="115.69" height="5.31113" transform="rotate(-1 539.215 130.646)" fill="url(#paint4_linear_31_2801)"/>
<rect x="539.123" y="125.335" width="116.152" height="5.31113" transform="rotate(-1 539.123 125.335)" fill="url(#paint5_linear_31_2801)"/>
<rect x="538.568" y="120.033" width="115.69" height="5.31113" transform="rotate(-1 538.568 120.033)" fill="url(#paint6_linear_31_2801)"/>
<rect x="538.937" y="114.715" width="115.228" height="5.31113" transform="rotate(-1 538.937 114.715)" fill="url(#paint7_linear_31_2801)"/>
<rect x="538.383" y="109.413" width="115.69" height="5.31113" transform="rotate(-1 538.383 109.413)" fill="url(#paint8_linear_31_2801)"/>
<rect x="537.828" y="104.11" width="115.459" height="5.31113" transform="rotate(-1 537.828 104.11)" fill="url(#paint9_linear_31_2801)"/>
<rect x="538.659" y="98.7837" width="113.612" height="5.31113" transform="rotate(-1 538.659 98.7837)" fill="url(#paint10_linear_31_2801)"/>
<rect x="540.644" y="93.437" width="109.917" height="5.31113" transform="rotate(-1 540.644 93.437)" fill="url(#paint11_linear_31_2801)"/>
<rect x="540.552" y="88.127" width="108.993" height="5.31113" transform="rotate(-1 540.552 88.127)" fill="url(#paint12_linear_31_2801)"/>
<rect x="541.844" y="82.7925" width="105.992" height="5.31113" transform="rotate(-1 541.844 82.7925)" fill="url(#paint13_linear_31_2801)"/>
<rect x="544.292" y="77.438" width="100.911" height="5.31113" transform="rotate(-1 544.292 77.438)" fill="url(#paint14_linear_31_2801)"/>
<rect x="544.66" y="72.1196" width="99.2949" height="5.31113" transform="rotate(-1 544.66 72.1196)" fill="url(#paint15_linear_31_2801)"/>
<rect x="545.491" y="66.793" width="96.062" height="5.31113" transform="rotate(-1 545.491 66.793)" fill="url(#paint16_linear_31_2801)"/>
<path d="M547.015 61.4546L640.753 59.8184L640.846 65.1287L547.107 66.7649L547.015 61.4546Z" fill="url(#paint17_linear_31_2801)"/>
<path d="M557.507 55.9593L631.656 54.665L636.366 59.8948L551.632 61.3738L557.507 55.9593Z" fill="url(#paint18_linear_31_2801)"/>
<path d="M567.609 50.4712L621.405 49.5321L626.115 54.7619L563.084 55.8621L567.609 50.4712Z" fill="url(#paint19_linear_31_2801)"/>
<path d="M576.751 44.9997L612.538 44.3751L612.631 49.6854L574.535 50.3504L576.751 44.9997Z" fill="url(#paint20_linear_31_2801)"/>
<rect x="584.971" y="39.5444" width="17.7807" height="5.31113" transform="rotate(-1 584.971 39.5444)" fill="url(#paint21_linear_31_2801)"/>
<rect x="539.679" y="157.197" width="115.69" height="5.31113" transform="rotate(-1 539.679 157.197)" fill="url(#paint22_linear_31_2801)"/>
<rect x="539.771" y="162.508" width="116.152" height="5.31113" transform="rotate(-1 539.771 162.508)" fill="url(#paint23_linear_31_2801)"/>
<rect x="614.747" y="78.2866" width="16.6261" height="16.6261" transform="rotate(-1 614.747 78.2866)" fill="#D9D9D9"/>
<rect x="616.857" y="80.0972" width="6.00388" height="6.00388" transform="rotate(-1 616.857 80.0972)" fill="white"/>
<rect x="624.015" y="79.9722" width="6.00388" height="6.00388" transform="rotate(-1 624.015 79.9722)" fill="white"/>
<rect x="624.139" y="87.1299" width="6.00388" height="6.00388" transform="rotate(-1 624.139 87.1299)" fill="white"/>
<rect x="616.982" y="87.2549" width="6.00388" height="6.00388" transform="rotate(-1 616.982 87.2549)" fill="white"/>
<rect x="614.114" y="94.9263" width="18.4735" height="1.84735" transform="rotate(-1 614.114 94.9263)" fill="white"/>
<rect x="557.026" y="79.2939" width="16.6261" height="16.6261" transform="rotate(-1 557.026 79.2939)" fill="#D9D9D9"/>
<rect x="559.136" y="81.1045" width="6.00388" height="6.00388" transform="rotate(-1 559.136 81.1045)" fill="white"/>
<rect x="566.294" y="80.9795" width="6.00388" height="6.00388" transform="rotate(-1 566.294 80.9795)" fill="white"/>
<rect x="566.419" y="88.1372" width="6.00388" height="6.00388" transform="rotate(-1 566.419 88.1372)" fill="white"/>
<rect x="559.261" y="88.2622" width="6.00388" height="6.00388" transform="rotate(-1 559.261 88.2622)" fill="white"/>
<rect x="556.393" y="95.9336" width="18.4735" height="1.84735" transform="rotate(-1 556.393 95.9336)" fill="white"/>
<path d="M581.599 58.0793L592.97 47.9499L604.687 57.6763L604.945 72.4529L581.857 72.8559L581.599 58.0793Z" fill="#D9D9D9"/>
<path d="M584.37 58.0305L592.791 50.9549L593.017 63.8844L584.474 64.0335L584.37 58.0305Z" fill="white"/>
<path d="M593.946 50.9351L602.609 57.7124L602.711 63.5574L594.169 63.7066L593.946 50.9351Z" fill="white"/>
<rect x="594.192" y="65.019" width="8.54398" height="5.84588" transform="rotate(-1 594.192 65.019)" fill="white"/>
<rect x="584.494" y="65.188" width="8.54398" height="6.00388" transform="rotate(-1 584.494 65.188)" fill="white"/>
<rect x="580.933" y="72.8721" width="24.9392" height="1.84735" transform="rotate(-1 580.933 72.8721)" fill="white"/>
<rect x="650.054" y="103.075" width="6.2348" height="62.8098" transform="rotate(-1 650.054 103.075)" fill="white"/>
<rect x="535.536" y="105.074" width="6.2348" height="62.8098" transform="rotate(-1 535.536 105.074)" fill="white"/>
<path d="M538.036 109.419L531.905 115.415L545.749 61.7074L593.538 34.1981L641.535 58.3033L659.319 111.228L652.514 105.111L635.688 60.7149L593.673 41.9327L551.675 63.7981L538.036 109.419Z" fill="white"/>
<rect x="566.343" y="163.198" width="63.5026" height="3.92561" transform="rotate(-1 566.343 163.198)" fill="white"/>
<rect x="566.904" y="102.679" width="3.92561" height="63.2717" transform="rotate(-1 566.904 102.679)" fill="white"/>
<rect x="566.904" y="102.679" width="60.2697" height="3.92561" transform="rotate(-1 566.904 102.679)" fill="white"/>
<rect x="623.239" y="101.695" width="3.92561" height="63.2717" transform="rotate(-1 623.239 101.695)" fill="white"/>
<rect x="568.709" y="106.821" width="3.92561" height="80.7318" transform="rotate(-43 568.709 106.821)" fill="white"/>
<rect width="3.92561" height="80.7318" transform="matrix(-0.754709 -0.656059 -0.656059 0.75471 625.638 105.828)" fill="white"/>
<defs>
<linearGradient id="paint0_linear_31_2801" x1="596.392" y1="151.887" x2="596.392" y2="157.198" gradientUnits="userSpaceOnUse">
<stop offset="0.213542" stop-color="#C8C8C8"/>
<stop offset="1" stop-color="white"/>
</linearGradient>
<linearGradient id="paint1_linear_31_2801" x1="597.338" y1="146.577" x2="597.338" y2="151.888" gradientUnits="userSpaceOnUse">
<stop offset="0.213542" stop-color="#C8C8C8"/>
<stop offset="1" stop-color="white"/>
</linearGradient>
<linearGradient id="paint2_linear_31_2801" x1="597.015" y1="141.267" x2="597.015" y2="146.578" gradientUnits="userSpaceOnUse">
<stop offset="0.213542" stop-color="#C8C8C8"/>
<stop offset="1" stop-color="white"/>
</linearGradient>
<linearGradient id="paint3_linear_31_2801" x1="597.384" y1="135.956" x2="597.384" y2="141.267" gradientUnits="userSpaceOnUse">
<stop offset="0.213542" stop-color="#C8C8C8"/>
<stop offset="1" stop-color="white"/>
</linearGradient>
<linearGradient id="paint4_linear_31_2801" x1="597.06" y1="130.646" x2="597.06" y2="135.957" gradientUnits="userSpaceOnUse">
<stop offset="0.213542" stop-color="#C8C8C8"/>
<stop offset="1" stop-color="white"/>
</linearGradient>
<linearGradient id="paint5_linear_31_2801" x1="597.199" y1="125.335" x2="597.199" y2="130.647" gradientUnits="userSpaceOnUse">
<stop offset="0.213542" stop-color="#C8C8C8"/>
<stop offset="1" stop-color="white"/>
</linearGradient>
<linearGradient id="paint6_linear_31_2801" x1="596.413" y1="120.033" x2="596.413" y2="125.344" gradientUnits="userSpaceOnUse">
<stop offset="0.213542" stop-color="#C8C8C8"/>
<stop offset="1" stop-color="white"/>
</linearGradient>
<linearGradient id="paint7_linear_31_2801" x1="596.551" y1="114.715" x2="596.551" y2="120.026" gradientUnits="userSpaceOnUse">
<stop offset="0.213542" stop-color="#C8C8C8"/>
<stop offset="1" stop-color="white"/>
</linearGradient>
<linearGradient id="paint8_linear_31_2801" x1="596.228" y1="109.413" x2="596.228" y2="114.724" gradientUnits="userSpaceOnUse">
<stop offset="0.213542" stop-color="#C8C8C8"/>
<stop offset="1" stop-color="white"/>
</linearGradient>
<linearGradient id="paint9_linear_31_2801" x1="595.558" y1="104.11" x2="595.558" y2="109.421" gradientUnits="userSpaceOnUse">
<stop offset="0.213542" stop-color="#C8C8C8"/>
<stop offset="1" stop-color="white"/>
</linearGradient>
<linearGradient id="paint10_linear_31_2801" x1="595.465" y1="98.7837" x2="595.465" y2="104.095" gradientUnits="userSpaceOnUse">
<stop offset="0.213542" stop-color="#C8C8C8"/>
<stop offset="1" stop-color="white"/>
</linearGradient>
<linearGradient id="paint11_linear_31_2801" x1="595.603" y1="93.437" x2="595.603" y2="98.7481" gradientUnits="userSpaceOnUse">
<stop offset="0.213542" stop-color="#C8C8C8"/>
<stop offset="1" stop-color="white"/>
</linearGradient>
<linearGradient id="paint12_linear_31_2801" x1="595.048" y1="88.127" x2="595.048" y2="93.4381" gradientUnits="userSpaceOnUse">
<stop offset="0.213542" stop-color="#C8C8C8"/>
<stop offset="1" stop-color="white"/>
</linearGradient>
<linearGradient id="paint13_linear_31_2801" x1="594.84" y1="82.7925" x2="594.84" y2="88.1036" gradientUnits="userSpaceOnUse">
<stop offset="0.213542" stop-color="#C8C8C8"/>
<stop offset="1" stop-color="white"/>
</linearGradient>
<linearGradient id="paint14_linear_31_2801" x1="594.747" y1="77.438" x2="594.747" y2="82.7491" gradientUnits="userSpaceOnUse">
<stop offset="0.213542" stop-color="#C8C8C8"/>
<stop offset="1" stop-color="white"/>
</linearGradient>
<linearGradient id="paint15_linear_31_2801" x1="594.308" y1="72.1196" x2="594.308" y2="77.4308" gradientUnits="userSpaceOnUse">
<stop offset="0.213542" stop-color="#C8C8C8"/>
<stop offset="1" stop-color="white"/>
</linearGradient>
<linearGradient id="paint16_linear_31_2801" x1="593.522" y1="66.793" x2="593.522" y2="72.1041" gradientUnits="userSpaceOnUse">
<stop offset="0.213542" stop-color="#C8C8C8"/>
<stop offset="1" stop-color="white"/>
</linearGradient>
<linearGradient id="paint17_linear_31_2801" x1="590.731" y1="60.6915" x2="590.824" y2="66.0018" gradientUnits="userSpaceOnUse">
<stop offset="0.213542" stop-color="#C8C8C8"/>
<stop offset="1" stop-color="white"/>
</linearGradient>
<linearGradient id="paint18_linear_31_2801" x1="588.934" y1="55.4108" x2="589.027" y2="60.7211" gradientUnits="userSpaceOnUse">
<stop offset="0.213542" stop-color="#C8C8C8"/>
<stop offset="1" stop-color="white"/>
</linearGradient>
<linearGradient id="paint19_linear_31_2801" x1="582.963" y1="50.2032" x2="583.055" y2="55.5135" gradientUnits="userSpaceOnUse">
<stop offset="0.213542" stop-color="#C8C8C8"/>
<stop offset="1" stop-color="white"/>
</linearGradient>
<linearGradient id="paint20_linear_31_2801" x1="576.174" y1="45.0098" x2="576.267" y2="50.3201" gradientUnits="userSpaceOnUse">
<stop offset="0.213542" stop-color="#C8C8C8"/>
<stop offset="1" stop-color="white"/>
</linearGradient>
<linearGradient id="paint21_linear_31_2801" x1="593.861" y1="39.5444" x2="593.861" y2="44.8556" gradientUnits="userSpaceOnUse">
<stop offset="0.213542" stop-color="#C8C8C8"/>
<stop offset="1" stop-color="white"/>
</linearGradient>
<linearGradient id="paint22_linear_31_2801" x1="597.524" y1="157.197" x2="597.524" y2="162.508" gradientUnits="userSpaceOnUse">
<stop offset="0.213542" stop-color="#C8C8C8"/>
<stop offset="1" stop-color="white"/>
</linearGradient>
<linearGradient id="paint23_linear_31_2801" x1="597.847" y1="162.508" x2="597.847" y2="167.819" gradientUnits="userSpaceOnUse">
<stop offset="0.213542" stop-color="#C8C8C8"/>
<stop offset="1" stop-color="white"/>
</linearGradient>
</defs>
</svg>
