<svg viewBox="0 0 577 328" fill="none" xmlns="http://www.w3.org/2000/svg">
<g clip-path="url(#clip0_108_2740)">
<path d="M523.398 77.8951C523.398 77.8951 481.731 30.1651 411.94 80.9261L398.931 67.1976C398.931 67.1976 474.619 5.93829 531.809 60.6427L539.613 41.0305L552.8 88.1942L505.717 93.501L523.398 77.8846V77.8951Z" fill="white"/>
<path d="M489.472 38.9644C489.472 38.9644 440.986 36.5207 424.876 72.4205L411.93 80.9366L398.921 67.2081C398.921 67.2081 443.238 30.5637 489.472 38.9749V38.9644Z" fill="#C8C8C8"/>
<path d="M521.324 57.9998C521.324 57.9998 503.706 36.311 466.24 42.8344C466.24 42.8344 465.433 42.3939 478.83 43.4846C491.347 44.502 499.401 44.2607 521.324 57.9998Z" fill="white"/>
<path d="M546.253 83.2124C546.253 83.2124 546.023 69.6098 539.644 58.0627C536.795 52.9027 546.819 94.3295 546.253 83.2124Z" fill="white"/>
<path d="M428.333 250.105C428.333 250.105 470 297.835 539.791 247.074L552.8 260.802C552.8 260.802 477.112 322.062 419.922 267.357L412.118 286.97L398.931 239.806L446.014 234.499L428.333 250.115V250.105Z" fill="#C8C8C8"/>
<path d="M462.249 289.036C462.249 289.036 510.735 291.479 526.844 255.58L539.791 247.063L552.8 260.792C552.8 260.792 508.483 297.436 462.249 289.025V289.036Z" fill="white"/>
<path d="M430.407 270C430.407 270 448.025 291.689 485.491 285.166C485.491 285.166 486.298 285.606 472.901 284.515C460.384 283.498 452.33 283.739 430.407 270Z" fill="white"/>
<path d="M405.478 244.788C405.478 244.788 405.708 258.39 412.087 269.937C414.936 275.097 404.912 233.67 405.478 244.788Z" fill="white"/>
<path d="M421.891 123.832C423.337 126.821 424.08 129.055 424.122 130.544C424.164 132.212 423.944 133.816 423.462 135.347C422.844 137.141 422.017 138.106 420.969 138.242C418.78 138.546 416.759 137.455 414.926 134.949C414.664 134.55 414.381 133.921 414.067 133.04C413.669 131.813 413.407 131.047 413.281 130.733C412.454 128.845 411.05 127.723 409.07 127.377C405.876 126.81 403.31 128.604 401.382 132.778C399.633 136.637 399.214 140.371 400.136 143.968C401.141 147.828 404.87 153.449 411.312 160.812C416.13 166.339 419.597 170.838 421.692 174.299C425.327 180.351 426.709 186.843 425.829 193.775C424.95 201.012 421.818 205.909 416.434 208.447C413.145 209.979 409.573 210.597 405.719 210.293C401.906 209.947 398.837 208.804 396.522 206.874C392.448 203.455 389.819 199.501 388.635 195.034C386.708 187.619 386.142 182.511 386.928 179.7C388.069 175.663 389.997 173.628 392.709 173.586C394.721 173.586 396.166 175.117 397.046 178.19C397.35 179.197 397.611 180.539 397.831 182.207C398.135 184.179 398.334 185.343 398.418 185.699C399.947 192.936 402.534 196.953 406.169 197.739C410.327 198.662 412.757 196.879 413.459 192.412C414.077 188.51 413.48 184.934 411.689 181.683C411.553 181.42 406.714 175.673 397.161 164.441C390.719 156.805 387.483 149.065 387.43 141.21C387.347 132.83 390.237 126.055 396.103 120.874C402.503 115.211 409.772 114.466 417.921 118.64C419.807 120.57 421.116 122.301 421.86 123.842L421.891 123.832Z" fill="white"/>
<path d="M441.342 144.629C442.389 156.029 443.332 163.979 444.17 168.447C444.914 166.654 446.317 162.416 448.381 155.746C450.35 149.433 451.89 145.091 452.979 142.72C454.508 139.343 455.807 137.634 456.854 137.592C457.86 137.55 458.719 138.253 459.421 139.7L460.803 143.455C465.925 157.624 468.973 165.846 469.937 168.132C472.608 141.021 474.41 124.419 475.321 118.315C479.479 117.392 481.459 116.952 481.239 116.994C484.046 116.648 485.91 117.172 486.822 118.577C487.084 118.976 486.926 122.615 486.361 129.506C482.726 171.352 480.202 197.876 478.809 209.066C475.038 210.86 472.084 210.671 469.937 208.468C469.591 208.122 468.554 205.291 466.847 199.984C460.447 179.847 457.074 169.454 456.729 168.793C455.461 172.128 453.461 178.84 450.748 188.93C448.255 198.411 446.171 205.028 444.505 208.804C441.876 210.734 438.765 210.912 435.173 209.328C434.649 206.874 433.748 199.396 432.481 186.895C431.821 179.837 430.972 170.471 429.914 158.798C428.647 143.968 427.809 134.299 427.422 129.778C426.804 123.15 426.72 119.427 427.16 118.588C428.123 116.7 429.852 115.934 432.355 116.281C433.717 116.459 435.749 117.13 438.461 118.326C439.163 123.15 440.127 131.928 441.352 144.65L441.342 144.629Z" fill="white"/>
<path d="M523.89 141.399C529.232 178.295 532.322 200.582 533.16 208.259C532.155 209.307 530.531 209.884 528.3 209.968C527.598 210.01 526.572 209.989 525.21 209.905C523.765 209.863 522.759 209.842 522.183 209.842C521.219 208.133 520.381 205.563 519.69 202.144C518.81 197.76 518.046 194.604 517.386 192.663C515.804 192.663 513.154 192.684 509.436 192.726C505.759 192.768 503.13 192.789 501.549 192.789C501.109 194.236 500.627 197.309 500.103 202.008C499.705 205.909 498.961 208.699 497.872 210.367C497.956 210.367 495.882 210.283 491.629 210.104C489.398 210.021 487.733 209.517 486.633 208.594C486.895 205.878 491.367 175.516 500.04 117.529C509.069 115.421 515.699 115.421 519.952 117.529C520.738 120.906 522.057 128.866 523.89 141.42V141.399ZM502.397 180.948H516.464C516.286 178.977 515.825 173.25 515.081 163.78C514.422 156.103 513.814 149.632 513.238 144.367C512.62 139.102 511.468 136.449 509.75 136.407C508.828 136.805 508.106 137.854 507.582 139.564C506 151.236 504.272 165.028 502.386 180.948H502.397Z" fill="white"/>
<path d="M547.814 210.042C546.546 210.22 545.604 210.325 544.986 210.367C542.755 210.451 541.194 209.821 540.314 208.458C540.189 208.196 540.115 204.399 540.115 197.079C540.115 171.635 540.492 145.594 541.236 118.965C542.503 117.56 544.169 116.753 546.232 116.532C546.798 116.49 547.814 116.448 549.259 116.406C550.663 116.364 551.805 116.281 552.674 116.144C560.907 115.179 566.94 117.707 570.742 123.716C573.717 128.415 575.236 137.948 575.278 152.338C575.32 168.258 571.046 177.781 562.468 180.896C561.64 181.2 559.818 181.515 557.01 181.819C554.685 182.039 553.282 182.438 552.8 183.004C552.36 183.528 551.92 188.164 551.49 196.89C551.05 204.787 550.663 209.087 550.307 209.79C549.783 209.79 548.945 209.874 547.814 210.052V210.042ZM550.841 162.595C551.103 164.483 551.847 166.234 553.072 167.86C554.434 169.569 555.827 170.408 557.283 170.356C558.728 170.314 560.09 169.412 561.357 167.66C562.499 166.077 563.201 164.388 563.463 162.595V148.184C563.463 139.847 563.305 134.823 563.002 133.114C562.08 127.723 559.671 125.52 555.774 126.538C552.967 127.24 551.323 129.957 550.841 134.697V162.595Z" fill="white"/>
<path d="M33.6109 116.48C33.391 119.7 33.2024 122.217 33.0244 124.041C31.5894 143.108 30.0497 161.808 28.4052 180.141C27.9234 185.259 26.5617 187.671 24.3097 187.367C23.6079 187.241 22.9376 186.171 22.2881 184.179C21.8168 182.658 21.513 181.399 21.3769 180.392C21.2093 178.4 20.7903 174.834 20.1409 169.716C19.4077 163.633 18.7792 158.137 18.2555 153.229C16.9986 142.112 15.7626 132.211 14.5476 123.517C14.16 120.874 13.8039 118.546 13.5002 116.553C12.6413 116.595 11.4681 116.595 9.99124 116.553C8.43056 116.511 7.34123 116.511 6.73372 116.553C4.39793 116.595 2.70109 117.14 1.66412 118.179C1.92598 121.178 2.15642 123.895 2.37638 126.328C4.07323 144.87 6.89083 170.429 10.8397 203.004C10.9654 203.917 11.1644 205.521 11.4262 207.829C15.8883 209.863 22.749 210.262 31.9874 209.003C33.8518 208.741 35.5382 208.437 37.057 208.091C37.455 205.962 37.8216 203.591 38.1673 200.991C38.3349 199.984 38.9424 195.096 39.9898 186.329C42.8912 161.871 44.9128 141.567 46.044 125.405C46.2535 122.584 46.4316 120.004 46.5573 117.654C45.824 117.182 41.5086 116.784 33.6109 116.48Z" fill="white"/>
<path d="M81.6359 141.441C79.8134 129.013 78.5041 121.136 77.729 117.791C73.5183 115.704 66.9509 115.704 58.0162 117.791C49.4273 175.211 44.9966 205.27 44.7347 207.954C45.8241 208.867 47.4686 209.37 49.6786 209.454C53.8055 209.632 55.869 209.716 55.869 209.716C56.9479 208.07 57.6915 205.311 58.0791 201.441C58.5923 196.795 59.0741 193.754 59.5036 192.317C61.0748 192.317 63.6724 192.296 67.3175 192.254C71.0044 192.212 73.623 192.191 75.1942 192.191C75.8436 194.1 76.5978 197.225 77.4671 201.567C78.1584 204.955 78.9859 207.503 79.9391 209.192C80.5047 209.192 81.4998 209.213 82.9347 209.255C84.2755 209.349 85.2915 209.37 85.9933 209.328C88.2034 209.234 89.8059 208.668 90.801 207.629C89.984 200.026 86.9255 177.97 81.6359 141.441ZM60.352 180.592C62.2165 164.829 63.9343 151.163 65.4949 139.616C66.0187 137.917 66.7309 136.879 67.6422 136.49C69.3285 136.532 70.4807 139.154 71.0882 144.367C71.6539 149.579 72.2614 155.987 72.9108 163.591C73.644 172.967 74.1049 178.641 74.2829 180.592H60.352Z" fill="white"/>
<path d="M141.382 130.827C141.382 130.009 141.382 129.212 141.371 128.425C141.371 126.747 141.35 125.153 141.329 123.653C141.319 123.234 141.319 122.814 141.319 122.416C141.287 120.99 141.266 119.637 141.235 118.378C141.183 118.336 141.13 118.305 141.067 118.263C141.005 118.221 140.942 118.179 140.879 118.137C140.795 118.074 140.701 118.021 140.607 117.959C140.009 117.602 139.35 117.298 138.637 117.067C138.595 117.067 138.543 117.036 138.501 117.025C137.674 116.763 136.752 116.574 135.767 116.48C133.295 116.27 131.452 116.742 130.237 117.917C130.185 118.577 130.143 119.374 130.09 120.318C130.069 120.885 130.038 121.503 130.017 122.175C129.65 130.512 129.326 146.737 129.001 170.859C128.687 169.957 123.544 156.816 113.583 131.404C113.363 130.88 112.975 129.715 112.41 127.89C111.76 125.887 111.257 124.367 110.912 123.328C109.519 119.5 108.304 117.424 107.267 117.067C106.01 116.679 104.428 116.595 102.522 116.805C100.343 117.067 98.7405 117.675 97.7036 118.63C97.2741 152.558 97.4207 179.658 98.1539 199.942C98.3739 205.154 98.6148 207.933 98.8767 208.28C99.9136 209.496 101.673 209.937 104.145 209.591C104.753 209.538 105.727 209.37 107.068 209.066C108.199 208.804 109.005 208.668 109.477 208.668C109.393 198.075 109.33 180.487 109.288 155.903C110.545 158.2 112.839 162.825 116.18 169.779C119.867 177.508 122.172 182.249 123.083 183.979C125.639 188.93 127.053 192.107 127.304 193.492C127.66 195.191 127.891 197.75 128.027 201.179C128.153 204.399 128.435 206.895 128.865 208.668C129.221 208.72 130.059 208.867 131.41 209.129C132.751 209.391 133.84 209.538 134.657 209.591C137.349 209.842 139.13 209.349 139.999 208.091C140.512 207.346 140.774 203.833 140.774 197.53C140.774 191.971 140.931 178.421 141.235 156.879C141.34 148.751 141.392 141.567 141.392 135.305C141.392 133.753 141.392 132.264 141.382 130.827Z" fill="white"/>
<path d="M275.579 198.316C274.71 196.963 271.033 196.407 264.518 196.617C257.406 196.879 252.986 196.512 251.247 195.516C251.069 192.6 250.985 178.987 250.985 154.666C250.985 152.925 251.027 149.716 251.122 145.017C251.205 140.371 251.247 136.962 251.247 134.791V134.068C251.247 133.407 251.247 132.767 251.237 132.149C251.216 123.37 251.069 118.84 250.797 118.567C249.708 117.487 247.885 116.899 245.329 116.805C243.392 116.742 241.747 116.994 240.427 117.539C239.904 117.749 239.443 118 239.013 118.305C238.961 119.27 238.919 120.266 238.877 121.294C238.814 122.93 238.751 124.65 238.689 126.443C238.615 128.939 238.552 131.582 238.5 134.393C238.364 141.074 238.301 148.635 238.301 157.078C238.301 177.875 238.322 190.775 238.364 195.778C238.406 201.987 239.191 205.825 240.71 207.304C242.438 208.951 245.56 209.758 250.074 209.716C250.944 209.716 252.913 209.632 256.003 209.454C258.475 209.286 260.402 209.234 261.784 209.328C269.378 209.632 273.568 209.454 274.343 208.804C275.129 208.112 275.694 206.434 276.04 203.791C276.344 201.095 276.187 199.271 275.579 198.316Z" fill="white"/>
<path d="M319.634 198.316C318.765 196.963 315.078 196.407 308.574 196.617C301.461 196.879 297.031 196.512 295.302 195.516C295.124 192.6 295.041 178.987 295.041 154.666C295.041 152.925 295.083 149.716 295.166 145.017C295.25 140.371 295.302 136.962 295.302 134.791C295.302 124.283 295.145 118.871 294.842 118.567C293.763 117.487 291.94 116.899 289.374 116.805C286.682 116.721 284.587 117.224 283.068 118.305C282.587 127.995 282.346 140.916 282.346 157.078C282.346 177.875 282.367 190.775 282.419 195.778C282.461 201.987 283.236 205.825 284.755 207.304C286.494 208.951 289.615 209.758 294.129 209.716C294.999 209.716 296.968 209.632 300.047 209.454C302.519 209.286 304.447 209.234 305.84 209.328C313.434 209.632 317.613 209.454 318.398 208.804C319.174 208.112 319.739 206.434 320.085 203.791C320.389 201.095 320.242 199.27 319.634 198.316Z" fill="white"/>
<path d="M362.768 141.441C360.956 129.013 359.646 121.136 358.871 117.791C354.661 115.704 348.093 115.704 339.159 117.791C330.57 175.211 326.139 205.27 325.877 207.954C326.966 208.867 328.611 209.37 330.821 209.454C334.948 209.632 337.011 209.716 337.011 209.716C338.09 208.07 338.823 205.311 339.221 201.441C339.735 196.795 340.217 193.754 340.646 192.317C342.207 192.317 344.815 192.296 348.46 192.254C352.147 192.212 354.765 192.191 356.337 192.191C356.986 194.1 357.74 197.225 358.61 201.567C359.301 204.955 360.128 207.503 361.081 209.192C361.647 209.192 362.642 209.213 364.077 209.255C365.418 209.349 366.434 209.37 367.136 209.328C369.346 209.234 370.948 208.668 371.943 207.629C371.126 200.026 368.068 177.97 362.768 141.441ZM341.494 180.592C343.359 164.829 345.077 151.163 346.637 139.616C347.161 137.917 347.873 136.879 348.785 136.49C350.471 136.532 351.623 139.154 352.231 144.367C352.796 149.579 353.404 155.987 354.053 163.591C354.786 172.967 355.247 178.641 355.425 180.592H341.494Z" fill="white"/>
<mask id="mask0_108_2740" style="mask-type:luminance" maskUnits="userSpaceOnUse" x="156" y="124" width="70" height="108">
<path d="M191.791 231.553C191.655 231.553 191.518 231.553 191.372 231.553C191.351 231.553 191.246 231.553 191.215 231.553C191.078 231.553 190.932 231.553 190.796 231.553C187.14 231.553 184.186 230.399 182.018 228.134C180.583 226.624 179.934 225.061 179.798 224.694L162.798 156.576C162.337 154.709 160.954 153.461 159.383 153.461C159.079 153.461 158.776 153.503 158.472 153.597C158.419 153.597 158.304 153.618 158.158 153.618C157.351 153.618 157.058 153.356 156.806 152.381C156.586 151.521 156.733 151.059 157.047 150.619C157.382 150.136 157.864 149.79 158.053 149.675C159.718 148.867 160.525 146.853 160.085 144.829L157.885 134.551C160.451 128.07 165.133 124.913 172.172 124.913C179.85 124.913 187.57 128.647 189.748 129.8C190.241 130.052 190.764 130.188 191.288 130.188C191.812 130.188 192.335 130.062 192.828 129.8C195.006 128.657 202.726 124.913 210.404 124.913C217.442 124.913 222.125 128.07 224.691 134.551L222.491 144.829C222.062 146.853 222.858 148.867 224.523 149.675C224.712 149.79 225.193 150.136 225.529 150.619C225.843 151.07 225.99 151.521 225.77 152.381C225.518 153.345 225.225 153.618 224.418 153.618C224.272 153.618 224.167 153.608 224.104 153.597C223.8 153.503 223.486 153.461 223.193 153.461C221.611 153.461 220.239 154.709 219.778 156.576L202.778 224.694C202.642 225.071 201.993 226.624 200.558 228.134C198.39 230.399 195.446 231.553 191.78 231.553H191.791Z" fill="white"/>
</mask>
<g mask="url(#mask0_108_2740)">
<path d="M252.668 116.942H152.156V242.125H252.668V116.942Z" fill="white"/>
<path d="M302.557 169.067L300.494 166.696L283.756 185.847L277.419 178.6L294.157 159.449L292.093 157.079L275.355 176.23L269.018 168.983L285.756 149.832L283.693 147.462L266.955 166.612L260.618 159.365L277.356 140.215L275.292 137.844L258.554 156.995L252.217 149.748L268.955 130.597L266.892 128.227L250.154 147.378L243.817 140.131L260.555 120.98L258.492 118.61L241.754 137.761L235.417 130.513L252.155 111.363L250.091 108.992L233.353 128.143L227.016 120.886L243.754 101.745L241.691 99.3752L224.953 118.515L218.616 111.268L235.354 92.1176L233.29 89.7473L216.552 108.898L210.215 101.651L226.953 82.5003L224.89 80.13L208.152 99.2808L201.815 92.0337L218.553 72.8934L216.489 70.5232L199.751 89.6635L193.414 82.4164L210.152 63.2656L208.089 60.8954L191.351 80.0461L174.613 60.8954L172.549 63.2656L189.287 82.4164L182.95 89.6635L166.212 70.5127L164.149 72.883L180.887 92.0337L174.55 99.2808L157.812 80.1405L155.748 82.5108L172.487 101.661L166.15 108.909L149.412 89.7578L147.348 92.1281L164.086 111.279L157.749 118.526L141.011 99.3856L138.948 101.756L155.686 120.896L149.349 128.143L132.611 108.992L130.547 111.363L147.285 130.513L140.948 137.761L124.21 118.62L122.147 120.991L138.885 140.131L132.548 147.378L115.81 128.238L113.746 130.608L130.484 149.759L124.147 157.006L107.409 137.855L105.346 140.225L122.084 159.376L115.747 166.623L99.0089 147.483L96.9454 149.853L113.683 168.993L107.346 176.24L90.6084 157.09L88.545 159.46L105.283 178.611L98.946 185.858L82.208 166.717L80.1445 169.088L96.8826 188.228L80.1445 207.379L82.208 209.749L98.946 190.598L105.283 197.856L88.545 216.996L90.6084 219.366L107.346 200.226L113.683 207.473L96.9454 226.613L99.0089 228.983L115.747 209.843L122.084 217.09L105.356 236.231L107.42 238.601L124.147 219.461L130.484 226.718L113.746 245.858L115.81 248.229L132.548 229.088L138.885 236.335L122.147 255.486L124.21 257.856L140.948 238.706L147.285 245.963L130.547 265.103L132.611 267.474L149.349 248.333L155.686 255.581L138.948 274.721L141.011 277.091L157.739 257.951L164.076 265.198L147.348 284.338L149.412 286.708L166.139 267.568L172.476 274.826L155.738 293.966L157.801 296.336L174.54 277.196L180.877 284.443L164.149 303.583L166.212 305.953L182.94 286.813L189.277 294.071L172.539 313.211L174.602 315.581L191.34 296.441L208.078 315.592L210.142 313.222L193.404 294.071L199.741 286.813L216.479 305.964L218.542 303.594L201.804 284.443L208.141 277.196L224.879 296.347L226.943 293.976L210.205 274.826L216.542 267.579L233.28 286.729L235.343 284.359L218.605 265.208L224.942 257.961L241.68 277.112L243.744 274.742L227.006 255.591L233.343 248.344L250.081 267.495L252.144 265.124L235.406 245.974L241.743 238.727L258.481 257.877L260.545 255.507L243.806 236.356L250.143 229.109L266.882 248.26L268.945 245.89L252.207 226.739L258.544 219.481L275.282 238.632L277.345 236.262L260.607 217.111L266.944 209.864L283.682 229.015L285.746 226.645L269.008 207.494L275.345 200.247L292.083 219.398L294.146 217.027L277.408 197.877L283.745 190.63L300.483 209.78L302.547 207.41L285.809 188.259L302.547 169.109L302.557 169.067ZM273.281 178.6L266.944 185.847L260.607 178.6L266.944 171.353L273.281 178.6ZM193.362 178.6L199.699 171.353L206.036 178.611L199.699 185.858L193.362 178.6ZM197.635 188.217L191.298 195.464L184.961 188.217L191.298 180.97L197.635 188.228V188.217ZM191.298 176.23L184.961 168.983L191.298 161.736L197.635 168.983L191.298 176.23ZM189.235 178.6L182.898 185.847L176.561 178.6L182.898 171.342L189.235 178.59V178.6ZM180.824 188.217L174.487 195.464L168.15 188.217L174.487 180.97L180.824 188.217ZM182.888 190.588L189.225 197.845L182.888 205.092L176.551 197.845L182.888 190.588ZM191.298 200.205L197.635 207.452L191.298 214.699L184.961 207.452L191.298 200.205ZM193.362 197.835L199.699 190.588L206.036 197.835L199.699 205.082L193.362 197.835ZM201.762 188.217L208.099 180.97L214.436 188.217L208.099 195.464L201.762 188.217ZM210.163 178.6L216.5 171.342L222.837 178.59L216.5 185.837L210.163 178.59V178.6ZM208.099 176.23L201.762 168.972L208.099 161.725L214.436 168.972L208.099 176.23ZM199.699 166.612L193.362 159.365L199.699 152.118L206.036 159.365L199.699 166.612ZM191.288 156.995L184.951 149.748L191.288 142.491L197.625 149.748L191.288 156.995ZM189.225 159.365L182.888 166.612L176.551 159.365L182.888 152.118L189.225 159.365ZM180.824 168.983L174.487 176.24L168.15 168.983L174.487 161.736L180.824 168.983ZM172.424 178.6L166.087 185.847L159.75 178.6L166.087 171.353L172.424 178.611V178.6ZM164.013 188.217L157.676 195.464L151.339 188.217L157.676 180.97L164.013 188.217ZM166.076 190.588L172.413 197.845L166.076 205.092L159.739 197.845L166.076 190.588ZM174.487 200.205L180.824 207.452L174.487 214.699L168.15 207.441L174.487 200.194V200.205ZM182.888 209.822L189.225 217.069L182.888 224.327L176.551 217.08L182.888 209.833V209.822ZM191.288 219.44L197.625 226.687L191.288 233.934L184.951 226.687L191.288 219.429V219.44ZM193.351 217.069L199.688 209.822L206.025 217.069L199.688 224.316L193.351 217.069ZM201.752 207.452L208.089 200.205L214.426 207.452L208.089 214.699L201.752 207.452ZM210.152 197.835L216.489 190.588L222.826 197.835L216.489 205.082L210.152 197.835ZM218.563 188.217L224.9 180.97L231.237 188.217L224.9 195.464L218.563 188.217ZM226.964 178.6L233.301 171.342L239.638 178.6L233.301 185.847L226.964 178.6ZM224.9 176.23L218.563 168.983L224.9 161.736L231.237 168.983L224.9 176.24V176.23ZM216.5 166.612L210.163 159.365L216.5 152.118L222.837 159.365L216.5 166.612ZM208.089 156.995L201.752 149.748L208.089 142.501L214.426 149.748L208.089 156.995ZM199.688 147.378L193.351 140.131L199.688 132.884L206.025 140.131L199.688 147.378ZM191.278 137.761L184.941 130.513L191.278 123.256L197.615 130.503L191.278 137.75V137.761ZM189.214 140.131L182.877 147.378L176.54 140.131L182.877 132.884L189.214 140.131ZM180.814 149.748L174.477 156.995L168.14 149.748L174.477 142.501L180.814 149.748ZM172.413 159.365L166.076 166.612L159.739 159.365L166.076 152.118L172.413 159.365ZM164.002 168.983L157.665 176.23L151.328 168.983L157.665 161.736L164.002 168.983ZM155.602 178.6L149.265 185.847L142.928 178.6L149.265 171.353L155.602 178.6ZM147.201 188.217L140.864 195.464L134.527 188.217L140.864 180.97L147.201 188.217ZM149.265 190.588L155.602 197.845L149.265 205.092L142.928 197.835L149.265 190.588ZM157.665 200.205L164.002 207.452L157.665 214.699L151.328 207.452L157.665 200.205ZM166.066 209.822L172.403 217.08L166.066 224.327L159.729 217.069L166.066 209.822ZM174.477 219.44L180.814 226.687L174.477 233.934L168.14 226.687L174.477 219.44ZM182.877 229.057L189.214 236.304L182.877 243.551L176.54 236.304L182.877 229.057ZM191.278 238.674L197.615 245.921L191.278 253.168L184.941 245.911L191.278 238.664V238.674ZM193.341 236.304L199.678 229.057L206.015 236.304L199.678 243.551L193.341 236.304ZM201.741 226.687L208.078 219.44L214.415 226.697L208.078 233.944L201.741 226.697V226.687ZM210.142 217.069L216.479 209.822L222.816 217.069L216.479 224.327L210.142 217.069ZM218.553 207.452L224.89 200.205L231.227 207.452L224.89 214.699L218.553 207.452ZM226.953 197.835L233.29 190.588L239.627 197.845L233.29 205.092L226.953 197.835ZM235.354 188.217L241.691 180.97L248.028 188.217L241.691 195.464L235.354 188.217ZM243.754 178.6L250.091 171.353L256.428 178.611L250.091 185.858L243.754 178.611V178.6ZM241.691 176.23L235.354 168.972L241.691 161.725L248.028 168.972L241.691 176.219V176.23ZM233.29 166.612L226.953 159.365L233.29 152.118L239.627 159.365L233.29 166.612ZM224.89 156.995L218.553 149.748L224.89 142.501L231.227 149.759L224.89 157.006V156.995ZM216.489 147.378L210.152 140.131L216.489 132.884L222.826 140.131L216.489 147.378ZM208.089 137.761L201.752 130.513L208.089 123.266L214.426 130.524L208.089 137.771V137.761ZM199.688 128.143L193.351 120.896L199.688 113.649L206.025 120.896L199.688 128.154V128.143ZM191.278 118.526L184.941 111.279L191.278 104.032L197.615 111.279L191.278 118.526ZM189.214 120.896L182.877 128.154L176.54 120.896L182.877 113.649L189.214 120.896ZM180.814 130.513L174.477 137.761L168.14 130.513L174.477 123.256L180.814 130.513ZM172.413 140.131L166.076 147.378L159.739 140.131L166.076 132.884L172.413 140.131ZM164.013 149.748L157.676 156.995L151.339 149.748L157.676 142.491L164.013 149.738V149.748ZM155.612 159.365L149.275 166.612L142.938 159.365L149.275 152.118L155.612 159.365ZM147.212 168.983L140.875 176.23L134.538 168.983L140.875 161.736L147.212 168.983ZM138.801 178.6L132.464 185.847L126.127 178.6L132.464 171.353L138.801 178.6ZM130.401 188.217L124.064 195.464L117.727 188.217L124.064 180.97L130.401 188.217ZM132.464 190.588L138.801 197.835L132.464 205.082L126.127 197.835L132.464 190.588ZM140.864 200.205L147.201 207.452L140.864 214.699L134.527 207.452L140.864 200.205ZM149.275 209.822L155.612 217.069L149.275 224.316L142.938 217.069L149.275 209.822ZM157.676 219.44L164.013 226.697L157.676 233.944L151.339 226.687L157.676 219.44ZM166.076 229.057L172.413 236.304L166.076 243.551L159.739 236.304L166.076 229.057ZM174.477 238.674L180.814 245.921L174.477 253.168L168.14 245.921L174.477 238.674ZM182.877 248.291L189.214 255.539L182.877 262.786L176.54 255.539L182.877 248.291ZM191.288 257.909L197.625 265.156L191.288 272.403L184.951 265.156L191.288 257.909ZM193.351 255.539L199.688 248.291L206.025 255.539L199.688 262.786L193.351 255.539ZM201.752 245.921L208.089 238.674L214.426 245.921L208.089 253.179L201.752 245.932V245.921ZM210.152 236.304L216.489 229.057L222.826 236.304L216.489 243.551L210.152 236.304ZM218.563 226.687L224.9 219.429L231.237 226.676L224.9 233.923L218.563 226.676V226.687ZM226.964 217.069L233.301 209.822L239.638 217.069L233.301 224.316L226.964 217.069ZM235.364 207.452L241.701 200.205L248.038 207.452L241.701 214.699L235.364 207.452ZM243.765 197.835L250.102 190.577L256.439 197.824L250.102 205.082L243.765 197.835ZM252.175 188.217L258.512 180.97L264.849 188.217L258.512 195.464L252.175 188.217ZM264.849 168.983L258.512 176.23L252.175 168.972L258.512 161.725L264.849 168.972V168.983ZM256.449 159.365L250.112 166.612L243.775 159.365L250.112 152.118L256.449 159.365ZM248.049 149.748L241.712 156.995L235.375 149.748L241.712 142.501L248.049 149.748ZM239.648 140.131L233.311 147.378L226.974 140.131L233.311 132.884L239.648 140.131ZM231.237 130.513L224.9 137.761L218.563 130.513L224.9 123.256L231.237 130.513ZM222.826 120.896L216.489 128.154L210.152 120.896L216.489 113.649L222.826 120.896ZM214.426 111.279L208.089 118.526L201.752 111.279L208.089 104.032L214.426 111.279ZM206.025 101.661L199.688 108.909L193.351 101.661L199.688 94.4144L206.025 101.661ZM191.278 84.7971L197.615 92.0442L191.278 99.2913L184.941 92.0442L191.278 84.7971ZM182.867 94.4144L189.204 101.661L182.867 108.909L176.53 101.661L182.867 94.4144ZM174.466 104.032L180.803 111.279L174.466 118.526L168.129 111.279L174.466 104.032ZM166.066 113.649L172.403 120.896L166.066 128.154L159.729 120.896L166.066 113.649ZM157.665 123.266L164.002 130.524L157.665 137.771L151.328 130.524L157.665 123.277V123.266ZM149.265 132.884L155.602 140.131L149.265 147.378L142.928 140.131L149.265 132.884ZM140.854 142.501L147.191 149.759L140.854 157.006L134.517 149.759L140.854 142.501ZM132.454 152.118L138.79 159.365L132.454 166.612L126.117 159.365L132.454 152.118ZM124.043 161.736L130.38 168.983L124.043 176.23L117.706 168.972L124.043 161.725V161.736ZM115.642 171.353L121.979 178.611L115.642 185.858L109.305 178.611L115.642 171.363V171.353ZM100.894 188.217L107.231 180.97L113.568 188.217L107.231 195.464L100.894 188.217ZM109.305 197.835L115.642 190.577L121.979 197.824L115.642 205.082L109.305 197.835ZM117.706 207.452L124.043 200.205L130.38 207.452L124.043 214.699L117.706 207.452ZM126.106 217.069L132.443 209.822L138.78 217.069L132.443 224.327L126.106 217.069ZM134.517 226.687L140.854 219.429L147.191 226.676L140.854 233.923L134.517 226.676V226.687ZM142.917 236.304L149.254 229.057L155.591 236.314L149.254 243.561L142.917 236.304ZM151.328 245.921L157.665 238.664L164.002 245.911L157.665 253.168L151.328 245.921ZM159.729 255.539L166.066 248.291L172.403 255.539L166.066 262.786L159.729 255.539ZM168.129 265.156L174.466 257.909L180.803 265.156L174.466 272.413L168.129 265.156ZM176.54 274.773L182.877 267.516L189.214 274.763L182.877 282.01L176.54 274.763V274.773ZM191.288 291.638L184.951 284.391L191.288 277.143L197.625 284.391L191.288 291.638ZM199.699 282.02L193.362 274.773L199.699 267.526L206.036 274.784L199.699 282.031V282.02ZM208.099 272.403L201.762 265.145L208.099 257.898L214.436 265.145L208.099 272.392V272.403ZM216.51 262.786L210.173 255.539L216.51 248.291L222.847 255.539L216.51 262.786ZM224.911 253.168L218.574 245.911L224.911 238.664L231.248 245.911L224.911 253.168ZM233.311 243.551L226.974 236.304L233.311 229.057L239.648 236.304L233.311 243.551ZM241.712 233.934L235.375 226.687L241.712 219.44L248.049 226.697L241.712 233.944V233.934ZM250.112 224.316L243.775 217.059L250.112 209.812L256.449 217.059L250.112 224.316ZM258.512 214.699L252.175 207.452L258.512 200.205L264.849 207.452L258.512 214.699ZM266.923 205.082L260.586 197.824L266.923 190.577L273.26 197.824L266.923 205.071V205.082ZM275.324 195.464L268.987 188.217L275.324 180.97L281.661 188.217L275.324 195.464Z" fill="white"/>
<path d="M302.557 167.766L300.494 165.396L283.756 184.547L277.419 177.3L294.157 158.149L292.093 155.779L275.355 174.929L269.018 167.682L285.756 148.531L283.693 146.161L266.955 165.312L260.618 158.054L277.356 138.904L275.292 136.533L258.554 155.684L252.217 148.437L268.955 129.286L266.892 126.916L250.154 146.067L243.817 138.82L260.555 119.669L258.492 117.299L241.754 136.45L235.417 129.202L252.155 110.052L250.091 107.681L233.353 126.832L227.016 119.585L243.754 100.434L241.691 98.0642L224.953 117.215L218.616 109.957L235.354 90.8171L233.29 88.4469L216.552 107.587L210.215 100.34L226.953 81.1893L224.89 78.8191L208.152 97.9698L201.815 90.7122L218.553 71.572L216.489 69.2017L199.751 88.342L193.414 81.0949L210.152 61.9547L208.089 59.5844L191.351 78.7247L174.613 59.5844L172.549 61.9547L189.287 81.0949L182.95 88.342L166.212 69.1913L164.149 71.5615L180.887 90.7122L174.55 97.9593L157.812 78.8086L155.748 81.1788L172.487 100.33L166.15 107.577L149.412 88.4259L147.348 90.7961L164.086 109.947L157.749 117.194L141.011 98.0432L138.948 100.413L155.686 119.564L149.349 126.811L132.611 107.671L130.547 110.041L147.285 129.181L140.948 136.429L124.21 117.288L122.147 119.659L138.885 138.799L132.548 146.056L115.81 126.906L113.746 129.276L130.484 148.427L124.147 155.674L107.409 136.533L105.346 138.904L122.084 158.044L115.747 165.291L99.0089 146.14L96.9454 148.511L113.683 167.661L107.346 174.908L90.6084 155.768L88.545 158.138L105.283 177.279L98.946 184.526L82.208 165.385L80.1445 167.756L96.8826 186.896L80.1445 206.047L82.208 208.417L98.946 189.266L105.283 196.524L88.545 215.664L90.6084 218.034L107.346 198.894L113.683 206.141L96.9454 225.292L99.0089 227.662L115.747 208.511L122.084 215.758L105.356 234.899L107.42 237.269L124.147 218.129L130.484 225.376L113.746 244.516L115.81 246.886L132.548 227.746L138.885 234.993L122.147 254.144L124.21 256.514L140.948 237.363L147.285 244.621L130.547 263.761L132.611 266.131L149.349 246.991L155.686 254.238L138.948 273.378L141.011 275.749L157.739 256.608L164.076 263.855L147.348 282.996L149.412 285.366L166.139 266.226L172.476 273.473L155.738 292.613L157.801 294.983L174.54 275.843L180.877 283.09L164.149 302.23L166.212 304.601L182.94 285.46L189.277 292.718L172.539 311.858L174.602 314.228L191.34 295.088L208.078 314.239L210.142 311.869L193.404 292.718L199.741 285.46L216.479 304.611L218.542 302.241L201.804 283.09L208.141 275.843L224.879 294.994L226.943 292.623L210.205 273.473L216.542 266.226L233.28 285.376L235.343 283.006L218.605 263.855L224.942 256.598L241.68 275.749L243.744 273.378L227.006 254.228L233.343 246.981L250.081 266.131L252.144 263.761L235.406 244.61L241.743 237.363L258.481 256.514L260.545 254.144L243.806 234.993L250.143 227.746L266.882 246.897L268.945 244.526L252.207 225.376L258.544 218.129L275.282 237.279L277.345 234.909L260.607 215.758L266.944 208.501L283.682 227.651L285.746 225.281L269.008 206.131L275.345 198.883L292.083 218.034L294.146 215.664L277.408 196.513L283.745 189.266L300.483 208.417L302.547 206.047L285.809 186.896L302.547 167.745L302.557 167.766ZM273.281 177.3L266.944 184.547L260.607 177.3L266.944 170.052L273.281 177.3ZM193.362 177.3L199.699 170.052L206.036 177.31L199.699 184.557L193.362 177.3ZM197.635 186.917L191.298 194.164L184.961 186.906L191.298 179.659L197.635 186.917ZM191.298 174.929L184.961 167.682L191.298 160.435L197.635 167.682L191.298 174.929ZM189.235 177.3L182.898 184.547L176.561 177.3L182.898 170.052L189.235 177.3ZM180.824 186.917L174.487 194.174L168.15 186.917L174.487 179.67L180.824 186.917ZM182.888 189.287L189.225 196.545L182.888 203.792L176.551 196.545L182.888 189.287ZM191.298 198.904L197.635 206.151L191.298 213.409L184.961 206.162L191.298 198.915V198.904ZM193.362 196.534L199.699 189.287L206.036 196.534L199.699 203.781L193.362 196.534ZM201.762 186.917L208.099 179.67L214.436 186.917L208.099 194.164L201.762 186.917ZM210.163 177.3L216.5 170.052L222.837 177.3L216.5 184.547L210.163 177.3ZM208.099 174.929L201.762 167.672L208.099 160.425L214.436 167.682L208.099 174.929ZM199.699 165.312L193.362 158.065L199.699 150.818L206.036 158.065L199.699 165.312ZM191.288 155.695L184.951 148.448L191.288 141.19L197.625 148.448L191.288 155.695ZM189.225 158.065L182.888 165.312L176.551 158.054L182.888 150.807L189.225 158.054V158.065ZM180.824 167.682L174.487 174.929L168.15 167.682L174.487 160.425L180.824 167.682ZM172.424 177.3L166.087 184.547L159.75 177.3L166.087 170.052L172.424 177.3ZM164.013 186.917L157.676 194.174L151.339 186.917L157.676 179.67L164.013 186.917ZM166.076 189.287L172.413 196.545L166.076 203.792L159.739 196.545L166.076 189.287ZM174.487 198.904L180.824 206.151L174.487 213.409L168.15 206.151L174.487 198.904ZM182.888 208.522L189.225 215.769L182.888 223.016L176.551 215.769L182.888 208.511V208.522ZM191.288 218.139L197.625 225.386L191.288 232.633L184.951 225.386L191.288 218.139ZM193.351 215.769L199.688 208.511L206.025 215.769L199.688 223.016L193.351 215.769ZM201.752 206.151L208.089 198.904L214.426 206.151L208.089 213.409L201.752 206.151ZM210.152 196.534L216.489 189.287L222.826 196.534L216.489 203.781L210.152 196.534ZM218.563 186.917L224.9 179.67L231.237 186.917L224.9 194.164L218.563 186.917ZM226.964 177.3L233.301 170.052L239.638 177.3L233.301 184.547L226.964 177.3ZM224.9 174.929L218.563 167.682L224.9 160.425L231.237 167.672L224.9 174.919V174.929ZM216.5 165.312L210.163 158.054L216.5 150.807L222.837 158.054L216.5 165.312ZM208.089 155.695L201.752 148.448L208.089 141.201L214.426 148.448L208.089 155.695ZM199.688 146.077L193.351 138.82L199.688 131.573L206.025 138.82L199.688 146.067V146.077ZM191.278 136.46L184.941 129.213L191.278 121.966L197.615 129.213L191.278 136.46ZM189.214 138.83L182.877 146.088L176.54 138.841L182.877 131.594L189.214 138.841V138.83ZM180.814 148.448L174.477 155.695L168.14 148.448L174.477 141.201L180.814 148.448ZM172.413 158.065L166.076 165.322L159.739 158.075L166.076 150.828L172.413 158.075V158.065ZM164.002 167.682L157.665 174.929L151.328 167.682L157.665 160.425L164.002 167.672V167.682ZM155.602 177.3L149.265 184.547L142.928 177.3L149.265 170.052L155.602 177.3ZM147.201 186.917L140.864 194.164L134.527 186.917L140.864 179.67L147.201 186.917ZM149.265 189.287L155.602 196.545L149.265 203.792L142.928 196.545L149.265 189.298V189.287ZM157.665 198.904L164.002 206.151L157.665 213.399L151.328 206.151L157.665 198.904ZM166.066 208.522L172.403 215.779L166.066 223.026L159.729 215.769L166.066 208.522ZM174.477 218.139L180.814 225.386L174.477 232.633L168.14 225.386L174.477 218.139ZM182.877 227.756L189.214 235.003L182.877 242.251L176.54 235.003L182.877 227.756ZM191.278 237.374L197.615 244.631L191.278 251.878L184.941 244.631L191.278 237.384V237.374ZM193.341 235.003L199.678 227.756L206.015 235.003L199.678 242.261L193.341 235.003ZM201.741 225.386L208.078 218.139L214.415 225.386L208.078 232.633L201.741 225.386ZM210.142 215.769L216.479 208.511L222.816 215.769L216.479 223.016L210.142 215.769ZM218.553 206.151L224.89 198.904L231.227 206.151L224.89 213.399L218.553 206.141V206.151ZM226.953 196.534L233.29 189.287L239.627 196.545L233.29 203.792L226.953 196.545V196.534ZM235.354 186.917L241.691 179.67L248.028 186.917L241.691 194.174L235.354 186.917ZM243.754 177.3L250.091 170.052L256.428 177.3L250.091 184.547L243.754 177.3ZM241.691 174.929L235.354 167.682L241.691 160.435L248.028 167.693L241.691 174.94V174.929ZM233.29 165.312L226.953 158.065L233.29 150.818L239.627 158.065L233.29 165.312ZM224.89 155.695L218.553 148.448L224.89 141.201L231.227 148.458L224.89 155.705V155.695ZM216.489 146.077L210.152 138.83L216.489 131.583L222.826 138.83L216.489 146.077ZM208.089 136.46L201.752 129.213L208.089 121.966L214.426 129.213L208.089 136.46ZM199.688 126.843L193.351 119.596L199.688 112.349L206.025 119.596L199.688 126.843ZM191.278 117.225L184.941 109.978L191.278 102.731L197.615 109.978L191.278 117.225ZM189.214 119.596L182.877 126.843L176.54 119.596L182.877 112.349L189.214 119.596ZM180.814 129.213L174.477 136.46L168.14 129.213L174.477 121.966L180.814 129.213ZM172.413 138.83L166.076 146.077L159.739 138.83L166.076 131.583L172.413 138.83ZM164.013 148.448L157.676 155.695L151.339 148.448L157.676 141.19L164.013 148.437V148.448ZM155.612 158.065L149.275 165.322L142.938 158.065L149.275 150.818L155.612 158.065ZM147.212 167.682L140.875 174.929L134.538 167.682L140.875 160.425L147.212 167.682ZM138.801 177.3L132.464 184.547L126.127 177.3L132.464 170.052L138.801 177.3ZM130.401 186.917L124.064 194.164L117.727 186.917L124.064 179.67L130.401 186.917ZM132.464 189.287L138.801 196.534L132.464 203.781L126.127 196.534L132.464 189.287ZM140.864 198.904L147.201 206.151L140.864 213.399L134.527 206.141L140.864 198.894V198.904ZM149.275 208.522L155.612 215.769L149.275 223.016L142.938 215.769L149.275 208.522ZM157.676 218.139L164.013 225.397L157.676 232.644L151.339 225.386L157.676 218.139ZM166.076 227.756L172.413 235.003L166.076 242.251L159.739 235.003L166.076 227.756ZM174.477 237.374L180.814 244.621L174.477 251.868L168.14 244.621L174.477 237.374ZM182.877 246.991L189.214 254.238L182.877 261.485L176.54 254.228L182.877 246.981V246.991ZM191.288 256.608L197.625 263.855L191.288 271.102L184.951 263.855L191.288 256.608ZM193.351 254.238L199.688 246.991L206.025 254.238L199.688 261.485L193.351 254.238ZM201.752 244.621L208.089 237.363L214.426 244.61L208.089 251.857L201.752 244.61V244.621ZM210.152 235.003L216.489 227.756L222.826 235.003L216.489 242.261L210.152 235.014V235.003ZM218.563 225.386L224.9 218.139L231.237 225.386L224.9 232.633L218.563 225.386ZM226.964 215.769L233.301 208.522L239.638 215.769L233.301 223.016L226.964 215.769ZM235.364 206.151L241.701 198.904L248.038 206.151L241.701 213.409L235.364 206.162V206.151ZM243.765 196.534L250.102 189.277L256.439 196.524L250.102 203.771L243.765 196.524V196.534ZM252.175 186.917L258.512 179.67L264.849 186.917L258.512 194.164L252.175 186.917ZM264.849 167.682L258.512 174.929L252.175 167.682L258.512 160.435L264.849 167.693V167.682ZM256.449 158.065L250.112 165.312L243.775 158.054L250.112 150.807L256.449 158.054V158.065ZM248.049 148.448L241.712 155.695L235.375 148.448L241.712 141.201L248.049 148.448ZM239.648 138.83L233.311 146.077L226.974 138.82L233.311 131.573L239.648 138.82V138.83ZM231.237 129.213L224.9 136.46L218.563 129.213L224.9 121.966L231.237 129.213ZM222.826 119.596L216.489 126.843L210.152 119.596L216.489 112.338L222.826 119.596ZM214.426 109.978L208.089 117.236L201.752 109.989L208.089 102.742L214.426 109.989V109.978ZM206.025 100.361L199.688 107.608L193.351 100.361L199.688 93.1139L206.025 100.361ZM191.278 83.4966L197.615 90.7437L191.278 97.9908L184.941 90.7437L191.278 83.4966ZM182.867 93.1139L189.204 100.361L182.867 107.608L176.53 100.361L182.867 93.1139ZM174.466 102.731L180.803 109.978L174.466 117.225L168.129 109.978L174.466 102.731ZM166.066 112.349L172.403 119.596L166.066 126.843L159.729 119.596L166.066 112.349ZM157.665 121.966L164.002 129.213L157.665 136.46L151.328 129.213L157.665 121.966ZM149.265 131.583L155.602 138.83L149.265 146.088L142.928 138.83L149.265 131.583ZM140.854 141.201L147.191 148.458L140.854 155.705L134.517 148.458L140.854 141.201ZM132.454 150.818L138.79 158.065L132.454 165.322L126.117 158.065L132.454 150.818ZM124.043 160.435L130.38 167.693L124.043 174.94L117.706 167.693L124.043 160.446V160.435ZM115.642 170.052L121.979 177.3L115.642 184.547L109.305 177.3L115.642 170.052ZM100.894 186.917L107.231 179.67L113.568 186.917L107.231 194.174L100.894 186.917ZM109.305 196.534L115.642 189.277L121.979 196.524L115.642 203.771L109.305 196.524V196.534ZM117.706 206.151L124.043 198.904L130.38 206.151L124.043 213.409L117.706 206.162V206.151ZM126.106 215.769L132.443 208.511L138.78 215.769L132.443 223.016L126.106 215.769ZM134.517 225.386L140.854 218.139L147.191 225.386L140.854 232.633L134.517 225.386ZM142.917 235.003L149.254 227.756L155.591 235.014L149.254 242.271L142.917 235.014V235.003ZM151.328 244.621L157.665 237.363L164.002 244.61L157.665 251.857L151.328 244.61V244.621ZM159.729 254.238L166.066 246.991L172.403 254.238L166.066 261.496L159.729 254.249V254.238ZM168.129 263.855L174.466 256.598L180.803 263.855L174.466 271.102L168.129 263.855ZM176.54 273.473L182.877 266.226L189.214 273.473L182.877 280.72L176.54 273.473ZM191.288 290.337L184.951 283.08L191.288 275.832L197.625 283.08L191.288 290.337ZM199.699 280.72L193.362 273.473L199.699 266.226L206.036 273.473L199.699 280.72ZM208.099 271.102L201.762 263.855L208.099 256.608L214.436 263.866L208.099 271.113V271.102ZM216.51 261.485L210.173 254.228L216.51 246.981L222.847 254.228L216.51 261.485ZM224.911 251.868L218.574 244.621L224.911 237.363L231.248 244.621L224.911 251.868ZM233.311 242.251L226.974 234.993L233.311 227.746L239.648 234.993L233.311 242.24V242.251ZM241.712 232.633L235.375 225.386L241.712 218.139L248.049 225.386L241.712 232.633ZM250.112 223.016L243.775 215.769L250.112 208.511L256.449 215.769L250.112 223.016ZM258.512 213.399L252.175 206.141L258.512 198.894L264.849 206.141L258.512 213.399ZM266.923 203.781L260.586 196.534L266.923 189.287L273.26 196.545L266.923 203.792V203.781ZM275.324 194.164L268.987 186.906L275.324 179.659L281.661 186.906L275.324 194.153V194.164Z" fill="#C8C8C8"/>
<g style="mix-blend-mode:multiply">
<path d="M253.38 142.134C252.542 137.949 250.133 133.733 246.226 131.269C252.448 124.651 256.575 116.355 257.675 106.947C260.827 80.0881 238.192 54.4559 207.115 49.6734C176.037 44.9015 148.291 62.8042 145.148 89.653C143.766 101.473 147.369 113.051 154.502 122.731C145.494 124.902 135.365 131.803 139.775 140.991C145.85 153.639 157.781 144.714 165.113 141.924C173.387 138.778 186.763 142.553 193.173 148.469C196.923 151.93 199.385 158.075 205.837 158.495C213.64 158.998 210.77 152.506 214.269 147.755C223.727 134.887 230.494 148.437 239.46 153.01C250.573 158.673 255.066 150.44 253.391 142.123L253.38 142.134Z" fill="white"/>
</g>
<g style="mix-blend-mode:multiply" opacity="0.3">
<path d="M158.545 124.777H154.596C153.832 124.777 153.109 125.186 152.648 125.888C152.187 126.591 152.041 127.503 152.261 128.342L179.169 233.671C179.473 234.857 180.426 235.675 181.505 235.675C182.584 235.675 183.537 234.857 183.841 233.671L191.204 204.841C173.618 189.654 160.975 159.932 158.535 124.777H158.545Z" fill="white"/>
</g>
</g>
<path d="M191.791 237.762C191.634 237.762 191.466 237.762 191.298 237.762C184.396 237.909 180.185 234.909 177.86 232.36C175.335 229.592 174.456 226.75 174.414 226.634L174.382 226.54L157.728 159.827C156.838 159.774 155.759 159.554 154.691 158.925C153.046 157.96 151.925 156.334 151.339 154.09C150.197 149.685 152.323 146.56 154.272 144.966L151.946 134.111L152.124 133.597C154.366 126.927 158.273 122.438 163.74 120.235C173.974 116.124 186.48 121.358 191.288 123.749C196.096 121.368 208.592 116.124 218.836 120.235C224.303 122.427 228.21 126.927 230.452 133.597L230.63 134.111L228.304 144.966C230.253 146.57 232.379 149.685 231.237 154.09C230.661 156.334 229.53 157.96 227.885 158.925C226.827 159.554 225.738 159.774 224.848 159.827L208.183 226.582V226.624C208.131 226.739 207.251 229.592 204.727 232.35C202.454 234.836 198.379 237.751 191.77 237.751L191.791 237.762ZM178.205 225.512C178.425 226.183 181.243 234.028 191.257 233.797H191.298H191.34C191.487 233.797 191.634 233.797 191.78 233.797C201.438 233.797 204.203 226.078 204.391 225.501L221.925 155.254L223.842 155.81C224.638 155.988 226.639 156.104 227.414 153.073C228.357 149.423 225.497 147.745 225.162 147.567L223.821 146.874L224.156 145.406L226.524 134.321C224.649 129.077 221.569 125.563 217.359 123.875C207.712 119.994 194.713 126.371 192.21 127.682L191.288 128.164L190.366 127.682C187.863 126.371 174.854 119.994 165.207 123.875C160.996 125.563 157.917 129.077 156.042 134.321L158.723 146.885L157.382 147.577C157.068 147.745 154.209 149.423 155.151 153.073C155.455 154.258 155.968 155.076 156.681 155.495C157.623 156.051 158.723 155.81 158.734 155.81L160.661 155.307L178.185 225.501L178.205 225.512Z" fill="white"/>
<path d="M220.187 152.559H161.237C160.829 152.559 160.493 152.223 160.493 151.814C160.493 151.405 160.829 151.07 161.237 151.07H220.187C220.595 151.07 220.93 151.405 220.93 151.814C220.93 152.223 220.595 152.559 220.187 152.559Z" fill="white"/>
<path d="M227.006 157.719H154.376C153.559 157.719 152.899 157.058 152.899 156.24C152.899 155.422 153.559 154.761 154.376 154.761H227.006C227.823 154.761 228.482 155.422 228.482 156.24C228.482 157.058 227.823 157.719 227.006 157.719Z" fill="white"/>
<path d="M223.958 143.917C219.024 143.917 213.808 141.631 209.115 137.435C206.078 139.229 202.841 140.781 199.364 140.781C194.807 140.781 190.471 138.253 185.485 132.632C182.877 134.331 177.755 137.11 172.13 137.11C165.919 137.11 160.766 133.943 158.346 132.16C156.618 133.272 153.643 134.824 150.396 134.824C147.411 134.824 144.74 133.513 142.655 131.027C138.686 126.287 137.45 120.351 139.356 115.159C141.189 110.125 145.62 106.748 151.506 105.731C150.993 103.077 150.794 99.3122 152.271 95.2954C153.685 91.3415 156.524 88.3944 160.462 86.7898C162.002 86.1605 163.52 85.8039 164.83 85.6151C164.652 84.9754 164.495 84.2727 164.369 83.5386C163.531 78.6408 164.589 74.6029 167.427 71.8447C172.371 67.0517 179.358 66.0449 184.343 66.0449C185.129 66.0449 185.862 66.0659 186.522 66.1078C186.491 63.8634 187.004 61.1681 188.627 58.4727C190.89 54.7181 196.494 51.8759 197.122 51.5612L200.422 49.9251L200.568 54.0259C200.673 56.6793 201.532 61.4617 203.386 62.993C205.303 64.5661 208.141 64.8598 211.137 65.1744C214.174 65.489 217.317 65.8142 220.229 67.4398C223.654 69.3591 225.979 72.6837 227.32 77.592C228.409 80.7069 228.137 84.0105 227.676 86.3388C228.294 86.6115 228.975 86.9786 229.666 87.461C231.949 89.0342 234.903 92.212 236.055 98.4312L236.076 98.5256V98.62C236.789 104.21 235.27 108.437 233.751 111.121C236.16 112.464 239.166 114.866 240.664 118.903C242.508 123.843 241.638 129.769 238.056 136.491L237.899 136.785L237.689 137.026C233.741 141.526 228.985 143.906 223.937 143.906L223.958 143.917Z" fill="white"/>
<path d="M235.961 135.034C227.644 144.525 217.243 141.819 209.409 134.058C201.542 138.935 195.855 141.138 185.862 129.045C185.862 129.045 179.379 134.289 172.12 134.289C169.323 134.289 166.757 133.565 164.62 132.632C160.86 131.006 158.419 128.762 158.419 128.762C158.419 128.762 150.092 135.81 144.447 129.066C137.219 120.424 141.493 108.521 154.848 108.237C154.848 108.237 152.229 102.658 154.554 96.3651C157.749 87.4295 168.443 88.2161 168.443 88.2161C168.443 88.2161 163.845 79.0078 169.019 73.9842C176.414 66.8105 189.581 69.2647 189.581 69.2647C189.581 69.2647 187.695 64.9751 190.66 60.0669C192.587 56.8681 198.107 54.1412 198.107 54.1412C198.107 54.1412 198.411 62.3637 201.951 65.2793C207.345 69.7051 216.364 66.0449 221.779 72.0649C223.109 73.5437 224.219 75.6098 225.005 78.5359C226.608 82.9617 224.565 88.321 224.565 88.321C224.565 88.321 231.782 88.8978 233.667 99.0186C234.746 107.608 229.656 112.37 229.656 112.37C229.656 112.37 245.818 116.491 235.972 135.023L235.961 135.034Z" fill="white"/>
<path d="M235.961 135.034C227.645 144.525 217.243 141.819 209.409 134.058C201.542 138.935 195.855 141.138 185.862 129.045C185.862 129.045 179.379 134.289 172.12 134.289C178.373 131.478 182.877 128.29 184.982 123.036C199.846 130.356 202.611 125.909 214.929 127.577C226.23 127.283 225.759 122.92 222.428 116.764C219.087 110.608 193.718 115.359 177.284 113.607C160.85 111.845 164.599 107.65 164.599 107.65C164.599 107.65 178.729 108.237 185.915 107.944C193.111 107.65 214.415 105.018 219.81 101.787C225.204 98.5676 226.744 93.869 223.151 90.6493C219.558 87.4295 212.97 89.7369 196.022 90.0305C179.075 90.3242 175.126 85.6676 175.126 85.6676C175.126 85.6676 186.009 86.2969 196.022 85.4159C206.036 84.5349 211.828 83.1086 219.024 78.1269C221.423 76.4698 221.926 73.7534 221.779 72.0754C223.109 73.5542 224.219 75.6203 225.005 78.5464C226.608 82.9722 224.565 88.3315 224.565 88.3315C224.565 88.3315 231.782 88.9083 233.667 99.0291C234.746 107.619 229.656 112.38 229.656 112.38C229.656 112.38 245.818 116.502 235.972 135.034H235.961Z" fill="#C8C8C8"/>
<path d="M145.798 148.374C144.824 148.374 143.912 147.913 143.253 147.084C141.681 145.123 141.828 141.568 142.153 137.467C142.174 137.257 142.184 137.037 142.205 136.827C141.943 136.649 141.619 136.429 141.231 136.156C139.356 134.813 138.487 131.761 138.33 125.941C138.235 122.427 138.455 119.187 138.466 119.05L139.272 116.365L140.477 116.974L141.807 127.629L153.936 125.542C153.936 125.721 156.995 124.703 155.204 134.205C154.68 137.215 154.921 141.693 151.297 141.693C151.129 141.693 150.972 141.683 150.826 141.662C150.448 144.095 149.6 147.399 146.751 148.238C146.426 148.332 146.112 148.374 145.798 148.374Z" fill="white"/>
<path d="M154.481 121.515C154.481 121.515 154.46 123.843 154.02 128.437C153.874 129.958 153.685 131.741 153.423 133.765C152.397 141.893 150.218 137.918 149.212 137.823C148.207 137.74 148.992 144.661 146.133 145.501C144.572 145.951 144.342 143.382 144.426 140.76C144.488 138.579 144.782 136.366 144.708 135.862C144.541 134.761 145.044 135.537 142.54 133.754C140.047 131.971 140.927 119.26 140.927 119.26L154.481 121.504V121.515Z" fill="white"/>
<path d="M153.434 133.765C152.407 141.893 150.228 137.918 149.223 137.823C148.217 137.74 149.003 144.661 146.143 145.501C144.583 145.951 144.352 143.382 144.436 140.76C145.096 141.148 145.777 141.305 146.322 140.519C147.84 138.358 147.84 130.44 147.84 130.44C147.84 130.44 149.485 134.761 151.119 133.901C152.763 133.031 153.203 127.063 153.203 127.063C153.203 127.063 153.706 131.741 153.444 133.765H153.434Z" fill="white"/>
<path d="M152.114 124.808C155.068 126.748 156.649 124.703 158.231 119.281C157.875 126.57 154.272 129.465 152.114 124.808Z" fill="white"/>
<path d="M196.745 58.1056C196.745 58.1056 194.42 63.7166 195.457 66.9573C196.494 70.2086 198.044 68.4361 203.47 72.2747C208.895 76.1132 207.345 78.7666 207.345 78.7666C207.345 78.7666 217.945 76.4069 215.882 72.5683C213.818 68.7298 210.194 71.0895 203.208 67.5551C196.221 64.0103 196.745 58.1161 196.745 58.1161V58.1056Z" fill="white"/>
<path d="M183.82 69.6108C183.82 69.6108 171.868 72.5683 169.941 75.0329C168.014 77.5081 169.459 80.2454 174.267 81.6193C179.075 82.9932 187.014 82.9932 187.014 82.9932C187.014 82.9932 174.749 80.5181 175.472 76.9522C176.194 73.3864 183.82 69.6003 183.82 69.6003V69.6108Z" fill="white"/>
<path d="M168.003 89.4851C168.003 89.4851 156.984 92.4008 156.178 97.5083C155.382 102.616 162.567 104.074 168.318 104.074C174.068 104.074 188.292 102.616 188.292 102.616C188.292 102.616 164.013 104.619 161.614 100.067C159.215 95.5051 168.003 89.4956 168.003 89.4956V89.4851Z" fill="white"/>
<path d="M160.032 110.303C160.032 110.303 150.124 108.909 146.699 112.254C143.273 115.61 141.807 120.77 142.174 124.546C142.54 128.311 143.64 129.989 143.64 129.989C143.64 129.989 143.033 122.029 146.091 117.425C149.15 112.821 160.032 110.303 160.032 110.303Z" fill="white"/>
<path d="M235.72 127C235.72 127 234.956 132.202 229.896 134.52C224.827 136.838 219.255 136.25 219.255 136.25C219.255 136.25 224.827 140.299 230.651 137.404C236.474 134.509 235.72 127 235.72 127Z" fill="white"/>
<path d="M231.059 102.05C231.059 102.05 229.247 106.423 225.958 108.3C222.669 110.178 218.458 111.038 218.458 111.038C218.458 111.038 223.874 112.254 227.582 110.146C231.29 108.028 231.07 102.05 231.07 102.05H231.059Z" fill="white"/>
<path d="M151.066 122.91C151.066 122.91 152.711 126.171 154.586 124.294C156.45 122.417 156.89 119.533 156.89 119.533C156.89 119.533 154.471 122.794 153.371 122.92C152.271 123.046 151.066 122.92 151.066 122.92V122.91Z" fill="white"/>
<path d="M185.977 129.119C187.737 130.723 190.513 130.146 193.529 128.867C193.529 128.867 190.838 131.122 188.313 131.331C185.799 131.541 184.899 131.122 184.899 131.122L185.967 129.119H185.977Z" fill="white"/>
<path d="M222.606 75.4105C222.606 75.4105 223.821 79.5637 221.936 82.1751C220.051 84.7866 214.122 86.6325 214.122 86.6325C214.122 86.6325 221.936 87.2512 223.696 84.6293C225.445 82.0178 222.617 75.4 222.617 75.4L222.606 75.4105Z" fill="white"/>
<path d="M204.999 132.139C205.606 132.831 207.272 133.702 210.152 133.523C213.033 133.345 215.767 132.307 215.767 132.307C215.767 132.307 211.828 136.806 209.094 135.946C206.361 135.076 204.999 132.139 204.999 132.139Z" fill="white"/>
<path d="M243.314 68.1214C243.262 68.7612 242.948 68.9919 242.654 69.2541C240.926 70.8273 239.198 72.4214 237.469 74.0051C237.25 74.2044 237.009 74.4141 236.747 74.5504C236.265 74.7917 235.815 74.6763 235.458 74.2778C235.102 73.8687 235.217 73.4073 235.542 73.1031C237.585 71.2153 239.638 69.359 241.722 67.5131C242.068 67.209 242.55 67.2509 242.937 67.5341C243.199 67.7229 243.325 67.9956 243.314 68.1214Z" fill="white"/>
<path d="M143.64 77.3927C144.07 77.3507 144.384 77.571 144.667 77.8646C146.248 79.4797 147.84 81.0949 149.411 82.71C149.883 83.1924 150.333 83.7483 149.694 84.3985C149.045 85.0592 148.49 84.5978 148.018 84.1258C146.416 82.5317 144.845 80.9061 143.263 79.291C142.896 78.9134 142.561 78.4729 142.802 77.8961C142.949 77.55 143.242 77.3717 143.64 77.3927Z" fill="white"/>
<path d="M131.835 93.2082C133.92 93.7011 136.36 94.2674 138.79 94.8757C139.314 95.0121 139.775 95.3372 139.597 95.9979C139.419 96.6691 138.927 96.8474 138.277 96.6901C135.879 96.1342 133.469 95.5994 131.071 95.033C130.474 94.8967 129.971 94.5716 130.128 93.8689C130.275 93.1662 130.861 93.1033 131.835 93.2082Z" fill="white"/>
<path d="M249.525 86.412C249.127 86.2442 248.761 86.3491 248.405 86.5274C246.394 87.5552 244.372 88.5725 242.361 89.6108C241.753 89.9255 241.167 90.303 241.554 91.1211C241.952 91.9601 242.633 91.6979 243.23 91.3938C245.252 90.3869 247.263 89.3591 249.274 88.3208C249.745 88.0796 250.196 87.7755 250.154 87.1462C250.122 86.7686 249.903 86.5064 249.525 86.4016V86.412Z" fill="white"/>
<path d="M255.684 105.175C253.558 104.986 251.055 104.734 248.562 104.535C248.028 104.493 247.483 104.661 247.441 105.343C247.399 106.035 247.808 106.36 248.468 106.423C250.919 106.664 253.37 106.916 255.831 107.147C256.439 107.199 257.015 107.063 257.098 106.339C257.182 105.615 256.648 105.385 255.684 105.164V105.175Z" fill="white"/>
<path d="M129.374 123.298C128.421 123.298 127.468 123.298 126.515 123.298C125.865 123.298 125.237 123.182 125.258 122.343C125.279 121.63 125.813 121.42 126.431 121.41C128.379 121.389 130.338 121.378 132.286 121.357C132.946 121.357 133.438 121.641 133.417 122.322C133.396 123.004 132.883 123.245 132.234 123.235C131.28 123.224 130.327 123.235 129.374 123.235C129.374 123.256 129.374 123.277 129.374 123.308V123.298Z" fill="white"/>
<path d="M252.511 135.359C250.562 134.96 248.614 134.572 246.676 134.142C246.184 134.037 245.786 133.702 245.922 133.114C246.048 132.579 246.456 132.317 246.991 132.38C249.096 132.642 251.149 133.125 253.202 133.649C253.694 133.775 253.904 134.132 253.747 134.645C253.558 135.264 253.087 135.39 252.511 135.348V135.359Z" fill="white"/>
<path d="M176.938 60.1087C176.949 60.4443 176.771 60.6855 176.509 60.8638C176.194 61.0736 175.775 61.147 175.545 60.8848C174.257 59.427 173.01 57.9063 172.277 56.0919C171.984 55.3682 172.675 55.0221 173.408 55.2004C173.859 55.3053 176.928 59.6368 176.949 60.1087H176.938Z" fill="white"/>
<path d="M159.352 72.3059C158.786 72.222 158.419 71.9178 158.44 71.4564C158.482 70.6698 159.184 70.3656 159.76 69.9986C160.211 69.7049 160.703 69.5161 161.206 69.8412C161.551 70.072 161.761 70.4705 161.499 70.8376C160.954 71.5927 160.116 71.9493 159.362 72.3059H159.352Z" fill="white"/>
<path d="M225.11 64.01C225.11 64.4086 224.858 64.849 224.282 64.7442C223.224 64.5554 222.962 63.6115 222.743 62.7515C222.596 62.1956 223.046 61.902 223.591 61.8705C224.23 61.8391 225.099 62.9822 225.11 64.01Z" fill="white"/>
<path d="M133.428 149.706C133.155 150.43 132.715 151.048 131.856 151.164C131.333 151.237 131.029 150.912 131.05 150.398C131.092 149.538 131.647 149.066 132.412 148.888C132.956 148.762 133.27 149.14 133.428 149.716V149.706Z" fill="white"/>
<path d="M240.622 146.539C240.015 146.444 239.659 146.088 239.701 145.5C239.742 144.892 240.161 144.609 240.779 144.661C241.345 144.714 241.649 145.049 241.628 145.595C241.596 146.193 241.219 146.507 240.622 146.539Z" fill="white"/>
<path d="M207.345 47.4394C206.79 47.3765 206.35 47.0723 206.329 46.485C206.308 45.8977 206.717 45.5097 207.293 45.4887C207.827 45.4677 208.194 45.8243 208.246 46.3487C208.309 46.9465 207.932 47.2926 207.345 47.4394Z" fill="white"/>
<path d="M134.884 107.65C134.318 107.556 133.909 107.272 133.951 106.654C133.983 106.129 134.307 105.783 134.873 105.794C135.512 105.794 135.816 106.15 135.795 106.759C135.774 107.325 135.439 107.598 134.884 107.65Z" fill="white"/>
<path d="M233.667 186.151C233.709 186.602 233.5 186.875 233.206 187.085C232.882 187.315 232.505 187.336 232.253 187.064C230.483 185.165 228.671 183.298 227.121 181.211C226.848 180.844 227.058 180.456 227.362 180.173C227.707 179.848 228.105 179.869 228.42 180.173C230.274 181.935 231.939 183.875 233.563 185.847C233.636 185.941 233.646 186.088 233.667 186.151Z" fill="white"/>
<path d="M148.741 186.77C147.914 186.728 147.453 185.91 147.956 185.344C149.59 183.498 151.318 181.725 153.036 179.953C153.381 179.596 153.832 179.659 154.198 180.016C154.554 180.372 154.628 180.876 154.324 181.201C152.648 183.015 150.93 184.788 149.212 186.571C149.076 186.707 148.835 186.738 148.741 186.78V186.77Z" fill="white"/>
<path d="M250.175 121.882C249.609 121.787 249.201 121.504 249.243 120.885C249.274 120.361 249.599 120.015 250.164 120.025C250.803 120.025 251.107 120.382 251.086 120.99C251.065 121.557 250.73 121.829 250.175 121.882Z" fill="white"/>
</g>
<defs>
<clipPath id="clip0_108_2740">
<rect width="576.646" height="328" fill="white"/>
</clipPath>
</defs>
</svg>
