<svg width="690" height="229" viewBox="0 0 690 229" fill="none" xmlns="http://www.w3.org/2000/svg">
<path fill-rule="evenodd" clip-rule="evenodd" d="M597.391 65.7734L572.854 69.6964C572.854 69.6964 565.395 73.7213 571.55 77.3386L576.257 77.0533L582.33 125.576L537.965 197.362C537.965 197.362 532.768 205.636 540.309 209.345C547.859 213.064 552.719 211.23 558.364 210.241C564.02 209.253 657.275 197.566 657.275 197.566C657.275 197.566 671.713 197.036 672.467 188.283C672.855 183.84 666.731 178.103 666.731 178.103L604.503 123.283L598.532 72.9979C598.532 72.9979 603.331 73.3545 603.015 68.6979C602.689 64.0514 597.38 65.7429 597.38 65.7429L597.391 65.7734Z" fill="#C8C8C8"/>
<mask id="mask0_31_1432" style="mask-type:luminance" maskUnits="userSpaceOnUse" x="536" y="65" width="137" height="147">
<path d="M597.391 65.7734L572.854 69.6964C572.854 69.6964 565.395 73.7213 571.55 77.3386L576.257 77.0533L582.33 125.576L537.965 197.362C537.965 197.362 532.768 205.636 540.309 209.345C547.859 213.064 552.719 211.23 558.364 210.241C564.02 209.253 657.275 197.566 657.275 197.566C657.275 197.566 671.713 197.036 672.467 188.283C672.855 183.84 666.731 178.103 666.731 178.103L604.503 123.283L598.532 72.9979C598.532 72.9979 603.331 73.3545 603.015 68.6979C602.689 64.0514 597.38 65.7429 597.38 65.7429L597.391 65.7734Z" fill="white"/>
</mask>
<g mask="url(#mask0_31_1432)">
<path fill-rule="evenodd" clip-rule="evenodd" d="M574.963 81.9749C576.094 95.8022 578.458 109.884 580.384 123.64C580.944 127.685 584.694 130.508 588.729 129.947C592.775 129.387 595.597 125.637 595.037 121.602C593.152 108.121 590.818 94.3247 589.707 80.7725C589.371 76.7069 585.795 73.6704 581.729 74.0066C577.663 74.3429 574.627 77.9194 574.963 81.9851V81.9749Z" fill="white"/>
<path fill-rule="evenodd" clip-rule="evenodd" d="M574.209 137.335C567.545 149.634 559.658 161.107 551.649 172.56C549.306 175.902 550.121 180.518 553.473 182.862C556.816 185.206 561.431 184.39 563.775 181.038C572.11 169.126 580.282 157.174 587.211 144.376C589.157 140.789 587.822 136.296 584.226 134.349C580.639 132.403 576.145 133.738 574.199 137.325L574.209 137.335Z" fill="white"/>
</g>
<path fill-rule="evenodd" clip-rule="evenodd" d="M633.247 200.663C629.681 201.356 583.451 207.338 569.95 209.111C562.95 210.038 555.715 212.055 548.664 212.229C547.125 212.269 544.843 212.361 542.947 211.882C540.604 211.301 538.729 209.987 537.659 207.918C536.986 206.614 536.732 205.086 536.905 203.445C537.129 201.489 538.138 199.257 538.719 197.841C540.991 192.206 544.506 187.04 547.217 181.589C548.684 178.644 550.111 175.74 551.853 172.958C554.105 169.351 556.153 165.703 559.536 162.931C564.111 159.182 568.625 160.129 573.985 161.016C578.285 161.719 582.626 162.208 586.977 161.739C588.902 161.535 590.808 161.179 592.693 160.751C595.189 160.078 597.676 159.416 600.162 158.713C604.9 157.358 609.608 155.024 614.59 154.668C619.145 154.342 623.425 155.799 627.918 156.166C629.233 156.267 630.547 156.298 631.862 156.318C634.175 155.585 636.437 154.678 638.872 154.016C641.348 153.343 647.859 162.982 649.49 164.287C653.341 167.364 660.26 172.041 664.163 175.057C666.995 177.248 672.763 185.552 672.681 186.286C672.61 186.867 672.457 187.386 672.233 187.855C672.539 190.627 671.285 192.817 668.717 194.234C666.445 195.497 662.247 195.823 660.851 195.986C651.497 197.077 642.51 198.88 633.268 200.663H633.247Z" fill="#A2A2A2"/>
<path fill-rule="evenodd" clip-rule="evenodd" d="M570.113 164.684C568.839 164.164 567.545 163.706 566.261 163.471C565.63 163.359 565.212 162.758 565.324 162.126C565.436 161.495 566.037 161.077 566.669 161.189C567.678 161.372 568.697 161.678 569.705 162.055C569.766 162.024 569.838 161.994 569.919 161.974C570.062 161.933 570.296 161.892 570.602 161.974C570.765 162.014 571.061 162.147 571.213 162.177C571.703 162.289 572.212 162.381 572.711 162.473C574.291 162.748 575.88 162.789 577.48 162.768C582.422 162.728 587.16 161.963 591.908 160.679C598.46 158.906 605.461 156.013 612.288 155.656C614.407 155.544 616.506 155.788 618.615 156.094C621.285 155.829 624.036 155.717 626.573 156.064C627.083 156.135 627.358 156.369 627.501 156.624L627.878 156.604C628.408 156.583 628.927 156.542 629.457 156.542C629.814 156.542 630.537 156.41 630.914 156.42C631.271 156.43 631.536 156.532 631.699 156.624L631.74 156.655C632.371 156.553 633.013 156.441 633.635 156.318C635.275 155.992 637.364 155.197 639.056 155.442C639.616 155.524 639.83 155.839 639.932 156.013C640.146 156.379 640.207 156.807 639.891 157.276C639.82 157.378 639.677 157.551 639.433 157.684C639.321 157.745 638.974 157.898 638.913 157.928C638.628 158.122 638.373 158.336 638.128 158.58C637.089 159.599 636.009 160.537 634.837 161.393C631.526 163.838 627.98 166.029 624.016 167.242C617.708 169.157 611.758 167.883 605.328 168.332C604.075 168.413 602.811 168.587 601.558 168.801C601.436 168.953 601.252 169.096 600.987 169.198C598.124 170.329 594.395 170.472 591.154 170.502C590.268 170.563 589.381 170.584 588.495 170.553C587.822 170.523 587.14 170.451 586.457 170.329C584.368 170.39 582.33 170.084 580.445 169.249C580.333 169.198 579.212 168.556 578.876 168.138C578.825 168.077 578.784 168.016 578.754 167.955C577.449 167.578 576.166 167.17 574.912 166.701C574.199 166.437 573.465 166.131 572.732 165.815C572.385 165.723 572.039 165.632 571.713 165.509C571.101 165.295 570.551 165.02 570.093 164.674L570.113 164.684ZM634.919 158.407L634.654 158.478L634.725 158.509L634.776 158.529L634.847 158.468L634.919 158.407ZM615.436 160.374C615.304 160.445 615.171 160.516 615.039 160.588C615.314 160.516 615.589 160.445 615.864 160.374H615.548H615.436ZM608.13 160.893L607.926 160.924L607.947 160.944L608.11 160.893H608.12H608.13ZM595.088 162.187C594.772 162.289 594.446 162.381 594.13 162.473C594.456 162.401 594.782 162.32 595.108 162.238L595.088 162.187Z" fill="#A2A2A2"/>
<path fill-rule="evenodd" clip-rule="evenodd" d="M559.067 194.397C558.66 194.213 558.313 193.938 558.069 193.52C557.356 192.328 557.936 190.79 559.18 189.913C560.392 189.057 562.022 188.966 562.99 190.015C563.969 191.095 563.785 192.41 562.96 193.419C562.257 194.285 561.065 194.835 560.097 194.733C559.669 194.682 559.332 194.56 559.067 194.376V194.397Z" fill="#A2A2A2"/>
<path fill-rule="evenodd" clip-rule="evenodd" d="M587.659 193.795C588.362 193.683 589.188 193.795 589.769 194.234C590.849 195.059 590.9 196.496 590.197 197.708C589.565 198.809 588.342 199.563 587.313 199.44C585.846 199.267 585.071 198.371 584.837 197.372C584.49 195.935 585.357 194.152 587.272 193.795C587.405 193.775 587.537 193.775 587.659 193.795Z" fill="#A2A2A2"/>
<path fill-rule="evenodd" clip-rule="evenodd" d="M624.515 174.792V174.772C624.821 174.201 625.524 173.987 626.084 174.282C626.93 174.242 627.847 174.517 628.459 174.965C628.948 175.332 629.264 175.811 629.355 176.331C629.457 176.86 629.355 177.472 628.866 178.114C628.285 178.858 627.593 179.122 626.94 179.133C626.39 179.133 625.85 178.939 625.392 178.582C625.259 178.572 625.116 178.542 624.984 178.501C624.393 178.328 623.894 177.9 623.649 177.38C623.354 176.748 623.323 175.862 624.271 174.986C624.342 174.914 624.424 174.853 624.505 174.792H624.515Z" fill="#A2A2A2"/>
<path fill-rule="evenodd" clip-rule="evenodd" d="M645.322 187.203C645.251 186.245 645.709 185.012 646.443 184.248C647.054 183.606 647.829 183.3 648.573 183.412C649.082 183.484 649.622 183.749 650.101 184.36C650.896 185.369 650.916 187.346 650.152 188.67C649.551 189.72 648.542 190.352 647.299 190.127C646.463 189.985 645.954 189.577 645.638 189.068C645.312 188.558 645.21 187.896 645.322 187.203Z" fill="#A2A2A2"/>
<path fill-rule="evenodd" clip-rule="evenodd" d="M638.944 184.676C633.431 185.858 625.035 186.663 618.218 187.315C602.709 188.793 587.262 191.095 571.743 192.624C565.283 193.256 558.395 194.01 552.424 196.689C550.518 197.545 547.604 198.636 546.707 200.735C544.985 204.719 549.907 205.83 552.78 205.84C560.667 205.84 568.849 203.71 576.726 202.976C597.329 201.081 618.096 198.666 638.495 195.171C644.548 194.132 654.941 194.896 659.363 189.852C663.001 185.705 654.88 182.75 652.129 182.373C647.717 181.762 643.193 183.769 638.933 184.686L638.944 184.676Z" fill="white"/>
<path fill-rule="evenodd" clip-rule="evenodd" d="M615.936 162.259C616.109 162.218 616.272 162.187 616.455 162.157C617.087 162.055 617.515 161.464 617.413 160.832C617.311 160.2 616.72 159.772 616.088 159.874C615.864 159.915 615.64 159.956 615.416 160.007C614.794 160.149 614.407 160.771 614.55 161.403C614.692 162.024 615.314 162.412 615.946 162.269L615.936 162.259Z" fill="white"/>
<path fill-rule="evenodd" clip-rule="evenodd" d="M625.391 163.573C625.891 163.39 626.4 163.237 626.91 163.104C627.531 162.941 627.898 162.31 627.735 161.688C627.572 161.066 626.94 160.7 626.319 160.863C625.748 161.016 625.167 161.189 624.607 161.393C624.006 161.606 623.69 162.279 623.914 162.88C624.128 163.481 624.8 163.797 625.402 163.573H625.391Z" fill="white"/>
<path fill-rule="evenodd" clip-rule="evenodd" d="M597.696 164.511C597.89 164.48 598.083 164.46 598.277 164.409C598.899 164.276 599.306 163.655 599.164 163.033C599.031 162.401 598.409 162.004 597.788 162.147C597.625 162.177 597.452 162.198 597.289 162.228C596.657 162.34 596.239 162.941 596.351 163.573C596.463 164.205 597.064 164.623 597.696 164.511Z" fill="white"/>
<path fill-rule="evenodd" clip-rule="evenodd" d="M575.432 77.2268C577.949 93.1939 579.284 109.212 580.537 125.311C580.588 125.974 581.169 126.473 581.841 126.422C582.514 126.371 583.003 125.79 582.952 125.118C581.688 108.957 580.354 92.8678 577.827 76.8396C577.725 76.1773 577.103 75.7289 576.441 75.8308C575.778 75.9327 575.33 76.5543 575.432 77.2064V77.2268Z" fill="white"/>
<path fill-rule="evenodd" clip-rule="evenodd" d="M601.823 70.8481C601.823 70.8481 601.853 70.6749 601.864 70.6036C601.884 70.3692 601.884 70.1348 601.894 69.9311C601.935 69.177 601.864 68.5147 601.466 68.0867C601.232 67.832 600.875 67.6792 600.427 67.6078C597.941 67.2206 595.536 67.7912 593.08 68.0154C587.802 68.4943 582.605 69.5744 577.358 70.2367C576.206 70.3794 574.576 70.5832 573.129 71.0213C572.304 71.2659 571.529 71.5818 571.02 72.0403C570.541 72.4683 570.388 73.3548 570.429 74.1699C570.47 74.9036 570.633 75.6678 571.213 75.9327C571.692 76.1467 572.304 76.1671 572.946 76.1263C574.128 76.055 575.371 75.7289 576.247 75.4844C576.889 75.301 577.562 75.678 577.735 76.3199C577.908 76.9619 577.541 77.6344 576.899 77.8076C575.89 78.0929 574.454 78.4597 573.088 78.5413C572.029 78.6126 571.02 78.5005 570.225 78.1439C568.89 77.5529 568.095 75.9939 568.004 74.3024C567.922 72.7026 568.462 71.0621 569.4 70.2367C570.154 69.5744 571.234 69.0649 572.426 68.7083C574.005 68.2294 575.799 68.0052 577.052 67.8422C582.33 67.1799 587.558 66.0896 592.866 65.6107C595.526 65.3661 598.124 64.7955 600.814 65.2133C601.904 65.3865 602.699 65.8247 603.26 66.436C604.054 67.3021 604.411 68.5555 604.33 70.0635C604.309 70.4303 604.319 70.8787 604.228 71.2863C604.126 71.755 603.922 72.1728 603.596 72.4988C602.149 73.9356 600.335 74.0986 598.42 74.3432C597.757 74.4349 597.146 73.9661 597.064 73.3038C596.973 72.6415 597.441 72.0301 598.104 71.9486C599.459 71.7652 600.814 71.8161 601.843 70.8277L601.823 70.8481Z" fill="white"/>
<path fill-rule="evenodd" clip-rule="evenodd" d="M574.739 78.2253C577.836 77.7769 580.893 77.0025 584.001 76.6051C584.664 76.5236 585.132 75.9122 585.041 75.2499C584.959 74.5876 584.348 74.1189 583.685 74.2004C580.567 74.5978 577.49 75.3722 574.382 75.8307C573.72 75.9224 573.261 76.544 573.363 77.2063C573.465 77.8686 574.077 78.3271 574.739 78.2253Z" fill="white"/>
<path fill-rule="evenodd" clip-rule="evenodd" d="M588.281 76.3096C588.882 76.279 589.514 76.2281 590.105 76.116C590.757 75.9937 591.195 75.3721 591.083 74.7098C590.961 74.0577 590.339 73.6195 589.677 73.7316C589.178 73.8233 588.648 73.8539 588.138 73.8845C587.476 73.9252 586.966 74.4958 587.007 75.1582C587.048 75.8205 587.619 76.33 588.281 76.2892V76.3096Z" fill="white"/>
<path fill-rule="evenodd" clip-rule="evenodd" d="M598.501 71.8872C597.136 71.9585 595.587 72.3661 594.252 72.6718C593.6 72.8247 593.192 73.4666 593.345 74.1187C593.498 74.7709 594.14 75.1784 594.792 75.0256C595.994 74.7505 597.39 74.3633 598.623 74.3021C599.296 74.2716 599.805 73.701 599.765 73.0386C599.734 72.3763 599.163 71.8566 598.501 71.8974V71.8872Z" fill="white"/>
<path fill-rule="evenodd" clip-rule="evenodd" d="M597.309 73.4361C598.256 89.4338 601.171 106.022 604.075 121.816C604.197 122.468 604.829 122.907 605.481 122.784C606.133 122.662 606.571 122.03 606.449 121.378C603.565 105.686 600.661 89.1994 599.724 73.2935C599.683 72.6312 599.112 72.1217 598.45 72.1624C597.788 72.2032 597.278 72.7738 597.319 73.4361H597.309Z" fill="white"/>
<path fill-rule="evenodd" clip-rule="evenodd" d="M580.608 125.484C579.681 128.388 577.867 131.048 576.267 133.616C572.762 139.251 569.186 144.814 565.527 150.347C557.6 162.35 550.416 174.853 542.234 186.683C541.429 187.855 540.808 189.159 540.054 190.372C538.403 193.001 536.202 196.812 535.366 200.47C534.439 204.535 535.142 208.417 539.513 210.71C541.185 211.586 542.968 212.106 544.802 212.503C545.454 212.646 546.096 212.239 546.239 211.586C546.381 210.934 545.974 210.292 545.322 210.15C543.701 209.793 542.122 209.345 540.645 208.57C537.435 206.889 537.058 203.985 537.73 200.999C538.505 197.606 540.583 194.091 542.112 191.645C542.846 190.474 543.447 189.19 544.231 188.048C552.434 176.198 559.618 163.675 567.555 151.661C571.223 146.108 574.81 140.524 578.336 134.869C580.037 132.128 581.933 129.285 582.931 126.198C583.135 125.566 582.789 124.883 582.147 124.679C581.515 124.476 580.832 124.822 580.628 125.464L580.608 125.484Z" fill="white"/>
<path fill-rule="evenodd" clip-rule="evenodd" d="M545.281 212.555C546.728 213.013 548.49 212.993 550.314 212.738C552.77 212.392 555.348 211.627 557.294 211.322C566.149 209.946 575.065 209.162 583.92 207.735C600.997 204.984 636.661 201.601 653.739 198.972C654.391 198.87 654.849 198.249 654.747 197.596C654.646 196.934 654.024 196.486 653.372 196.588C636.284 199.227 600.61 202.61 583.532 205.361C574.678 206.787 565.772 207.572 556.917 208.948C554.991 209.253 552.424 210.018 549.978 210.354C548.541 210.558 547.156 210.619 546.014 210.262C545.372 210.058 544.7 210.415 544.496 211.047C544.292 211.689 544.649 212.361 545.281 212.565V212.555Z" fill="white"/>
<path fill-rule="evenodd" clip-rule="evenodd" d="M670.796 185.399C672.641 187.682 671.53 190.504 670.001 192.053C668.962 193.113 667.026 193.877 664.275 194.59C659.771 195.772 653.209 196.679 644.772 197.79C644.11 197.882 643.641 198.483 643.733 199.145C643.814 199.807 644.426 200.276 645.088 200.184C653.647 199.053 660.301 198.126 664.886 196.924C668.198 196.058 670.48 195.008 671.723 193.734C673.975 191.442 675.392 187.244 672.671 183.871C672.253 183.351 671.489 183.27 670.969 183.687C670.45 184.105 670.368 184.869 670.786 185.389L670.796 185.399Z" fill="white"/>
<path fill-rule="evenodd" clip-rule="evenodd" d="M604.411 123.294C619.308 138.395 635.795 152.12 651.528 166.345C657.183 171.46 663.857 176.025 668.575 182.067C668.982 182.597 669.747 182.689 670.266 182.281C670.786 181.874 670.888 181.11 670.48 180.59C665.681 174.435 658.905 169.769 653.148 164.562C637.446 150.357 620.989 136.673 606.123 121.602C605.654 121.124 604.89 121.123 604.411 121.592C603.932 122.061 603.932 122.825 604.401 123.304L604.411 123.294Z" fill="white"/>
<path fill-rule="evenodd" clip-rule="evenodd" d="M592.112 84.4713C594.486 83.9822 596.901 83.7275 599.296 83.3301C599.958 83.218 600.396 82.5964 600.284 81.9341C600.172 81.2718 599.551 80.8336 598.899 80.9457C596.484 81.3533 594.038 81.608 591.633 82.1073C590.981 82.2398 590.553 82.8817 590.696 83.5339C590.828 84.186 591.47 84.614 592.122 84.4713H592.112Z" fill="white"/>
<path fill-rule="evenodd" clip-rule="evenodd" d="M593.59 96.271C595.841 95.5068 598.44 95.2113 600.804 95.0075C601.466 94.9463 601.965 94.3655 601.904 93.7032C601.853 93.0409 601.262 92.5416 600.6 92.6027C598.042 92.8167 595.25 93.1632 592.815 93.9783C592.183 94.1923 591.847 94.875 592.051 95.5068C592.265 96.1385 592.948 96.4748 593.579 96.271H593.59Z" fill="white"/>
<path fill-rule="evenodd" clip-rule="evenodd" d="M596.045 108.957C598.053 108.101 600.356 108.172 602.475 107.775C603.127 107.653 603.565 107.011 603.443 106.359C603.321 105.707 602.689 105.268 602.027 105.401C599.744 105.839 597.268 105.808 595.098 106.736C594.486 107.001 594.201 107.714 594.466 108.325C594.731 108.937 595.444 109.222 596.056 108.957H596.045Z" fill="white"/>
<path fill-rule="evenodd" clip-rule="evenodd" d="M597.543 119.738C599.856 119.401 602.251 119.004 604.523 118.464C605.175 118.311 605.572 117.659 605.42 117.007C605.267 116.355 604.615 115.957 603.962 116.11C601.762 116.63 599.428 117.017 597.186 117.343C596.524 117.435 596.066 118.046 596.167 118.708C596.259 119.371 596.881 119.829 597.533 119.738H597.543Z" fill="white"/>
<path fill-rule="evenodd" clip-rule="evenodd" d="M560.086 160.781C559.801 161.066 559.679 161.484 559.77 161.882C559.852 162.279 560.137 162.605 560.514 162.758C560.514 162.758 570.102 166.467 573.852 168.24C576.94 169.697 580.19 170.726 583.441 171.725C586.712 172.733 589.942 172.509 593.141 171.867C596.147 171.266 599.122 170.298 602.118 169.748C606.663 168.923 611.34 169.789 615.915 169.524C622.202 169.157 628.387 167.618 633.757 164.276C635.204 163.379 637.588 161.953 639.514 160.363C640.94 159.181 642.112 157.897 642.612 156.685C642.764 156.328 642.795 155.666 642.214 155.024C641.827 154.606 641.042 154.056 640.105 153.74C639.127 153.404 637.986 153.333 636.987 153.76C635.357 154.453 633.512 154.331 631.76 154.494C625.656 155.085 619.746 153.302 613.683 153.546C610.474 153.679 607.447 154.484 604.452 155.584C595.026 159.049 585.957 161.882 575.788 160.914C572.232 160.577 568.778 159.813 565.201 159.65C564.386 159.609 563.265 159.558 562.267 159.742C561.401 159.895 560.636 160.241 560.086 160.791V160.781ZM565.375 162.075C568.503 163.318 572.691 165.02 574.892 166.059C577.867 167.465 581.016 168.454 584.154 169.422C587.027 170.298 589.86 170.064 592.683 169.503C595.699 168.902 598.694 167.924 601.69 167.374C606.326 166.528 611.105 167.384 615.782 167.109C621.672 166.773 627.46 165.346 632.493 162.228C633.869 161.372 636.151 160.017 637.985 158.509C638.821 157.816 639.575 157.113 640.044 156.389C639.83 156.257 639.565 156.104 639.331 156.023C638.892 155.87 638.383 155.778 637.935 155.972C636.08 156.756 633.991 156.695 631.994 156.889C625.85 157.48 619.889 155.696 613.775 155.941C610.82 156.063 608.038 156.817 605.277 157.826C595.505 161.413 586.09 164.297 575.544 163.298C572.12 162.972 568.788 162.238 565.354 162.055L565.375 162.075Z" fill="white"/>
<path fill-rule="evenodd" clip-rule="evenodd" d="M561.615 177.115C568.136 182.027 578 183.402 585.886 182.903C588.352 182.75 590.879 182.628 593.253 181.853C593.885 181.65 594.242 180.967 594.028 180.335C593.824 179.703 593.141 179.347 592.51 179.561C590.329 180.264 588.006 180.345 585.733 180.488C578.377 180.957 569.155 179.765 563.072 175.189C562.542 174.792 561.778 174.894 561.38 175.424C560.983 175.954 561.085 176.718 561.615 177.115Z" fill="white"/>
<path fill-rule="evenodd" clip-rule="evenodd" d="M600.58 179.561C601.323 179.194 602.169 179.031 602.964 178.807C603.606 178.623 603.983 177.951 603.8 177.309C603.616 176.667 602.954 176.29 602.312 176.473C601.374 176.738 600.386 176.952 599.51 177.39C598.909 177.686 598.674 178.409 598.97 179.01C599.265 179.612 599.989 179.846 600.59 179.55L600.58 179.561Z" fill="white"/>
<path fill-rule="evenodd" clip-rule="evenodd" d="M559.658 187.906C562.318 186.887 565.466 188.711 565.64 191.686C565.69 192.583 565.364 193.479 564.804 194.264C564.091 195.263 563 196.098 562.104 196.546C560.871 197.168 559.312 197.178 558.048 196.618C556.693 196.027 555.664 194.835 555.582 193.184C555.47 191.156 557.009 188.955 558.721 187.987C559.027 187.814 559.363 187.794 559.668 187.885L559.658 187.906ZM559.281 190.555C558.537 191.187 557.936 192.144 557.987 193.072C558.018 193.734 558.466 194.182 559.006 194.417C559.628 194.692 560.402 194.712 561.003 194.407C561.604 194.101 562.348 193.551 562.827 192.878C563.062 192.552 563.245 192.206 563.214 191.839C563.133 190.351 561.38 189.546 560.127 190.371C559.872 190.545 559.567 190.606 559.281 190.555Z" fill="white"/>
<path fill-rule="evenodd" clip-rule="evenodd" d="M585.703 192.715C588.057 191.177 591.276 192.44 591.847 195.528C592.132 197.087 591.215 198.595 590.186 199.644C589.585 200.256 588.841 200.755 588.006 200.989C584.786 201.886 582.646 199.104 582.585 196.526C582.544 194.651 583.522 192.98 585.682 192.715H585.713H585.703ZM585.356 195.395C585.091 195.66 584.989 196.057 585 196.465C585.03 197.647 585.876 199.063 587.353 198.656C587.781 198.534 588.148 198.258 588.454 197.943C588.974 197.413 589.605 196.74 589.463 195.956C589.198 194.539 587.578 194.02 586.63 195.059C586.294 195.426 585.784 195.538 585.346 195.385L585.356 195.395Z" fill="white"/>
<path fill-rule="evenodd" clip-rule="evenodd" d="M624.097 173.121C626.583 172.204 628.937 173.6 629.579 175.434C630.048 176.779 629.742 178.46 627.786 179.724C626.777 180.376 625.799 180.478 624.953 180.264C623.751 179.958 622.752 178.97 622.263 177.777C621.743 176.534 621.815 175.138 622.508 174.201C622.864 173.722 623.374 173.325 624.097 173.121ZM625.676 175.25C625.513 175.342 625.33 175.393 625.136 175.393C625.035 175.393 624.933 175.403 624.841 175.424C624.8 175.444 624.759 175.454 624.729 175.475C624.668 175.505 624.607 175.525 624.535 175.546C624.505 175.566 624.474 175.597 624.454 175.638C624.219 175.953 624.321 176.432 624.495 176.86C624.698 177.339 625.045 177.798 625.544 177.92C625.829 177.991 626.135 177.92 626.471 177.696C627.174 177.237 627.47 176.718 627.297 176.229C627.093 175.638 626.441 175.24 625.676 175.25Z" fill="white"/>
<path fill-rule="evenodd" clip-rule="evenodd" d="M645.098 183.29C645.19 183.076 645.342 182.893 645.556 182.75C646.769 181.965 647.88 181.843 648.797 182.077C650.172 182.424 651.212 183.636 651.619 185.175C652.241 187.549 651.334 190.576 648.216 191.411C645.577 192.124 643.885 190.199 643.59 187.784C643.386 186.133 643.906 184.35 645.108 183.29H645.098ZM647.91 184.39C647.747 184.584 647.533 184.737 647.268 184.798C646.147 185.083 645.842 186.398 645.974 187.488C646.086 188.415 646.565 189.353 647.574 189.078C649.194 188.639 649.591 187.03 649.265 185.786C649.092 185.144 648.756 184.564 648.185 184.421C648.094 184.401 648.002 184.39 647.9 184.39H647.91Z" fill="white"/>
<path fill-rule="evenodd" clip-rule="evenodd" d="M603.759 141.808C603.698 143.418 603.83 145.038 603.698 146.648C603.647 147.31 604.136 147.891 604.808 147.952C605.471 148.003 606.062 147.514 606.113 146.842C606.245 145.201 606.113 143.54 606.184 141.9C606.204 141.227 605.685 140.667 605.022 140.646C604.35 140.626 603.789 141.146 603.769 141.808H603.759Z" fill="white"/>
<path fill-rule="evenodd" clip-rule="evenodd" d="M602.475 145.589C604.238 145.517 605.98 145.324 607.733 145.1C608.395 145.018 608.864 144.407 608.772 143.744C608.691 143.082 608.079 142.613 607.417 142.705C605.746 142.919 604.065 143.113 602.373 143.174C601.711 143.204 601.191 143.765 601.212 144.427C601.242 145.089 601.802 145.609 602.465 145.589H602.475Z" fill="white"/>
<path fill-rule="evenodd" clip-rule="evenodd" d="M586.732 132.067C586.579 133.769 586.671 135.542 586.722 137.253C586.742 137.916 587.303 138.446 587.965 138.425C588.627 138.405 589.157 137.844 589.137 137.182C589.086 135.572 588.994 133.901 589.137 132.291C589.198 131.629 588.709 131.038 588.046 130.977C587.384 130.915 586.793 131.405 586.732 132.077V132.067Z" fill="white"/>
<path fill-rule="evenodd" clip-rule="evenodd" d="M586.06 135.786C587.292 135.695 588.515 135.379 589.748 135.287C590.411 135.246 590.92 134.665 590.869 134.003C590.818 133.341 590.247 132.831 589.575 132.882C588.342 132.964 587.119 133.29 585.886 133.381C585.224 133.432 584.715 134.003 584.765 134.676C584.816 135.338 585.397 135.847 586.06 135.796V135.786Z" fill="white"/>
<path fill-rule="evenodd" clip-rule="evenodd" d="M581.76 166.569C585.265 167.71 589.229 168.464 592.927 167.934C593.59 167.842 594.048 167.231 593.946 166.569C593.855 165.906 593.233 165.448 592.581 165.54C589.239 166.029 585.672 165.305 582.503 164.266C581.872 164.062 581.189 164.409 580.975 165.04C580.771 165.672 581.118 166.355 581.749 166.569H581.76Z" fill="white"/>
<path fill-rule="evenodd" clip-rule="evenodd" d="M602.577 165.611C603.229 165.489 603.881 165.407 604.533 165.295C605.185 165.173 605.623 164.551 605.511 163.889C605.399 163.227 604.767 162.799 604.105 162.911C603.443 163.033 602.77 163.104 602.108 163.237C601.456 163.359 601.018 164.001 601.15 164.653C601.272 165.305 601.914 165.733 602.566 165.611H602.577Z" fill="white"/>
<path d="M414.549 163.533C420.876 163.319 424.463 163.869 425.309 165.173C425.9 166.1 426.043 167.873 425.747 170.492C425.411 173.07 424.861 174.69 424.096 175.363C423.332 175.994 419.266 176.168 411.879 175.872C410.524 175.791 408.649 175.831 406.244 175.994C403.248 176.168 401.323 176.249 400.487 176.249C396.095 176.29 393.059 175.516 391.378 173.906C389.9 172.469 389.136 168.739 389.095 162.697C389.054 157.847 389.034 145.314 389.034 125.097C389.034 109.395 389.268 96.8418 389.727 87.4368C391.204 86.3873 393.252 85.8982 395.871 85.9797C398.357 86.0612 400.13 86.6318 401.19 87.6915C401.486 87.987 401.638 93.2449 401.638 103.455C401.638 105.564 401.598 108.876 401.516 113.39C401.435 117.944 401.394 121.073 401.394 122.754C401.394 146.384 401.475 159.62 401.649 162.442C403.34 163.41 407.64 163.767 414.559 163.522L414.549 163.533Z" fill="white"/>
<path d="M467.28 109.915C472.426 145.405 475.401 166.844 476.206 174.222C475.238 175.23 473.679 175.781 471.519 175.872C470.846 175.913 469.848 175.893 468.543 175.811C467.147 175.77 466.179 175.75 465.629 175.75C464.702 174.099 463.897 171.633 463.224 168.342C462.379 164.124 461.645 161.087 461.013 159.222C459.495 159.222 456.937 159.243 453.351 159.284C449.805 159.324 447.278 159.345 445.759 159.345C445.331 160.741 444.873 163.696 444.363 168.21C443.986 171.97 443.263 174.649 442.213 176.249C442.295 176.249 440.298 176.168 436.202 175.995C434.052 175.913 432.442 175.424 431.392 174.537C431.647 171.919 435.947 142.715 444.302 86.9375C452.994 84.9098 459.383 84.9098 463.479 86.9375C464.243 90.188 465.507 97.8506 467.28 109.915ZM446.585 147.953H460.127C459.954 146.058 459.515 140.545 458.802 131.435C458.17 124.048 457.579 117.822 457.029 112.758C456.438 107.694 455.317 105.146 453.677 105.095C452.79 105.472 452.097 106.491 451.588 108.132C450.07 119.361 448.399 132.628 446.585 147.943V147.953Z" fill="white"/>
<path d="M516.842 147.015C518.91 161.831 517.158 170.686 511.584 173.6C508.843 175.037 503.015 175.883 494.119 176.127C489.096 176.249 486.253 175.811 485.57 174.802C484.388 173.111 483.797 169.677 483.797 164.48C483.797 160.517 483.736 154.821 483.603 147.392C483.481 139.373 483.389 133.993 483.349 131.252C483.349 128.338 483.267 123.131 483.094 115.621C482.972 108.917 482.9 103.536 482.9 99.481C482.941 92.3483 483.023 88.6393 483.155 88.3438C483.868 86.744 485.601 85.8168 488.342 85.562C489.228 85.4805 490.451 85.4601 492.01 85.5009C493.864 85.5009 495.107 85.4805 495.749 85.4398C503.932 85.0627 509.505 87.6305 512.46 93.1635C515.752 99.2365 516.995 108.142 516.19 119.87C515.558 129.235 513.296 135.185 509.414 137.723C513.714 139.414 516.19 142.512 516.821 147.026L516.842 147.015ZM494.374 124.486C494.669 126.595 495.383 128.287 496.524 129.55C497.533 130.692 498.694 131.283 500.009 131.323C501.272 131.364 502.352 130.834 503.239 129.744C504.207 128.521 504.737 126.83 504.818 124.68C505.114 112.819 505.032 105.309 504.563 102.14C504.309 100.368 503.575 99.0632 502.352 98.2175C501.13 97.331 499.713 97.0966 498.113 97.5246C495.923 98.0748 494.588 100.082 494.129 103.536C493.956 104.932 493.956 108.366 494.129 113.848C494.343 121.277 494.425 124.823 494.384 124.486H494.374ZM494.69 153.73C494.73 158.244 494.985 161.179 495.454 162.534C496.126 164.521 497.716 165.489 500.202 165.448C502.689 165.367 504.298 164.164 505.012 161.841C505.43 160.445 505.664 157.582 505.705 153.231C505.745 148.89 505.552 146.139 505.134 145.008C504.716 143.745 503.779 142.878 502.352 142.41C501.13 141.992 499.927 141.921 498.745 142.216C496.931 142.634 495.79 143.571 495.332 144.998C494.863 146.302 494.659 149.216 494.7 153.73H494.69Z" fill="white"/>
<path d="M556.398 93.0208C557.794 95.8942 558.507 98.0442 558.548 99.481C558.589 101.081 558.375 102.63 557.916 104.097C557.325 105.829 556.52 106.756 555.511 106.879C553.402 107.174 551.456 106.114 549.683 103.71C549.428 103.333 549.153 102.721 548.858 101.876C548.481 100.694 548.226 99.9599 548.093 99.6644C547.288 97.8506 545.943 96.7705 544.038 96.4343C540.961 95.884 538.485 97.6163 536.63 101.631C534.939 105.34 534.541 108.927 535.428 112.391C536.396 116.1 539.982 121.511 546.188 128.593C550.824 133.912 554.166 138.232 556.184 141.564C559.689 147.392 561.014 153.628 560.168 160.303C559.322 167.262 556.306 171.97 551.12 174.415C547.951 175.893 544.517 176.484 540.798 176.188C537.129 175.852 534.174 174.751 531.933 172.897C528.01 169.606 525.473 165.805 524.341 161.505C522.487 154.372 521.937 149.461 522.691 146.761C523.791 142.878 525.646 140.922 528.264 140.871C530.2 140.871 531.596 142.349 532.442 145.304C532.738 146.272 532.992 147.566 533.206 149.165C533.502 151.061 533.695 152.181 533.777 152.518C535.254 159.477 537.741 163.339 541.246 164.103C545.25 164.99 547.594 163.278 548.277 158.978C548.868 155.228 548.297 151.784 546.565 148.666C546.443 148.411 541.776 142.889 532.575 132.077C526.369 124.731 523.251 117.292 523.21 109.732C523.129 101.672 525.911 95.1504 531.566 90.1677C537.731 84.7264 544.731 84.003 552.577 88.0177C554.391 89.8722 555.654 91.5433 556.378 93.0208H556.398Z" fill="white"/>
<path d="M46.358 85.2966C46.144 88.4248 45.9606 90.8703 45.7874 92.6433C44.3914 111.168 42.8936 129.336 41.2938 147.147C40.8251 152.12 39.5004 154.464 37.3097 154.168C36.627 154.046 35.9748 153.006 35.3431 151.07C34.8845 149.593 34.589 148.37 34.4566 147.392C34.2935 145.456 33.886 141.991 33.2542 137.019C32.5409 131.109 31.9296 125.77 31.4201 121.001C30.1973 110.2 28.995 100.581 27.813 92.1338C27.436 89.5661 27.0895 87.304 26.794 85.368C25.9585 85.4087 24.8172 85.4087 23.3805 85.368C21.8623 85.3272 20.8025 85.3272 20.2115 85.368C17.9393 85.4087 16.2886 85.9386 15.2798 86.9473C15.5345 89.8616 15.7587 92.5007 15.9727 94.8647C17.6234 112.88 20.3644 137.712 24.2059 169.361C24.3281 170.247 24.5217 171.806 24.7765 174.048C29.1172 176.025 35.7914 176.412 44.7786 175.189C46.5924 174.934 48.2329 174.639 49.7104 174.303C50.0976 172.234 50.4542 169.931 50.7905 167.404C50.9535 166.426 51.5445 161.678 52.5635 153.159C55.386 129.397 57.3526 109.67 58.4531 93.968C58.6568 91.227 58.8301 88.7203 58.9523 86.4379C58.2391 85.9793 54.041 85.5921 46.358 85.2966Z" fill="white"/>
<path d="M93.0776 109.548C91.3046 97.4735 90.0309 89.8211 89.2769 86.5706C85.1807 84.5429 78.7918 84.5429 70.1001 86.5706C61.7446 142.359 57.4344 171.562 57.1797 174.17C58.2394 175.057 59.8392 175.546 61.9892 175.628C66.0039 175.801 68.0112 175.882 68.0112 175.882C69.0607 174.283 69.7842 171.603 70.1612 167.843C70.6605 163.329 71.1292 160.374 71.547 158.978C73.0754 158.978 75.6025 158.957 79.1484 158.917C82.7352 158.876 85.2826 158.856 86.811 158.856C87.4428 160.71 88.1764 163.747 89.0221 167.965C89.6947 171.256 90.4996 173.732 91.4269 175.373C91.9771 175.373 92.9451 175.393 94.3411 175.434C95.6454 175.526 96.6338 175.546 97.3165 175.505C99.4665 175.414 101.025 174.863 101.993 173.855C101.199 166.467 98.2233 145.038 93.0776 109.548ZM72.3724 147.586C74.1861 132.271 75.8572 118.994 77.3754 107.775C77.8849 106.124 78.5778 105.116 79.4643 104.739C81.1048 104.779 82.2257 107.327 82.8167 112.391C83.3669 117.455 83.9579 123.681 84.5897 131.069C85.3029 140.178 85.7513 145.691 85.9245 147.586H72.3724Z" fill="white"/>
<path d="M151.199 99.2363C151.199 98.4415 151.199 97.6671 151.189 96.9029C151.189 95.2726 151.168 93.7237 151.148 92.2666C151.138 91.859 151.138 91.4515 151.138 91.0643C151.107 89.6785 151.087 88.364 151.056 87.1413C151.005 87.1005 150.954 87.0699 150.893 87.0292C150.832 86.9884 150.771 86.9477 150.71 86.9069C150.628 86.8458 150.536 86.7948 150.445 86.7337C149.864 86.3872 149.222 86.0917 148.529 85.8676C148.488 85.8676 148.437 85.837 148.397 85.8268C147.592 85.5721 146.695 85.3887 145.737 85.297C143.332 85.0932 141.539 85.5517 140.357 86.6929C140.306 87.3349 140.265 88.1093 140.214 89.0263C140.194 89.5766 140.163 90.1778 140.143 90.8299C139.786 98.9306 139.471 114.694 139.155 138.13C138.849 137.254 133.846 124.486 124.156 99.7967C123.942 99.2873 123.565 98.1562 123.014 96.3832C122.383 94.437 121.893 92.9595 121.557 91.9508C120.202 88.2316 119.02 86.214 118.011 85.8676C116.788 85.4906 115.25 85.409 113.395 85.6128C111.276 85.8676 109.717 86.4586 108.708 87.3858C108.29 120.349 108.433 146.679 109.146 166.386C109.36 171.45 109.595 174.15 109.849 174.486C110.858 175.668 112.57 176.096 114.975 175.76C115.566 175.709 116.513 175.546 117.818 175.251C118.918 174.996 119.703 174.863 120.161 174.863C120.08 164.572 120.019 147.484 119.978 123.6C121.201 125.831 123.432 130.325 126.683 137.08C130.269 144.59 132.511 149.196 133.398 150.877C135.884 155.687 137.259 158.774 137.504 160.119C137.85 161.77 138.075 164.256 138.207 167.588C138.329 170.716 138.604 173.141 139.022 174.863C139.369 174.914 140.184 175.057 141.498 175.312C142.802 175.566 143.862 175.709 144.657 175.76C147.276 176.005 149.008 175.526 149.854 174.303C150.353 173.58 150.608 170.166 150.608 164.042C150.608 158.642 150.761 145.477 151.056 124.547C151.158 116.65 151.209 109.67 151.209 103.587C151.209 102.079 151.209 100.632 151.199 99.2363Z" fill="white"/>
<path d="M281.748 164.806C280.902 163.492 277.325 162.952 270.987 163.155C264.069 163.41 259.769 163.054 258.077 162.086C257.904 159.253 257.822 146.027 257.822 122.397C257.822 120.706 257.863 117.588 257.955 113.023C258.036 108.509 258.077 105.197 258.077 103.088V102.385C258.077 101.743 258.077 101.121 258.067 100.52C258.047 91.9914 257.904 87.5895 257.639 87.3246C256.579 86.275 254.806 85.7044 252.32 85.6127C250.435 85.5516 248.835 85.7961 247.551 86.326C247.042 86.5298 246.594 86.7743 246.176 87.0698C246.125 88.0073 246.084 88.9753 246.043 89.9738C245.982 91.5634 245.921 93.2345 245.86 94.9769C245.789 97.4021 245.727 99.9698 245.677 102.701C245.544 109.191 245.483 116.538 245.483 124.741C245.483 144.947 245.503 157.48 245.544 162.34C245.585 168.373 246.349 172.102 247.827 173.539C249.508 175.138 252.544 175.923 256.936 175.882C257.782 175.882 259.697 175.801 262.703 175.627C265.108 175.464 266.983 175.414 268.328 175.505C275.715 175.801 279.791 175.627 280.545 174.996C281.309 174.323 281.86 172.693 282.196 170.125C282.491 167.506 282.339 165.733 281.748 164.806Z" fill="white"/>
<path d="M324.605 164.806C323.759 163.492 320.173 162.952 313.845 163.155C306.926 163.41 302.616 163.054 300.935 162.086C300.761 159.253 300.68 146.027 300.68 122.397C300.68 120.706 300.721 117.588 300.802 113.023C300.884 108.509 300.935 105.197 300.935 103.088C300.935 92.8779 300.782 87.6201 300.486 87.3246C299.437 86.2751 297.664 85.7044 295.167 85.6127C292.549 85.5312 290.511 86.0203 289.033 87.0699C288.564 96.485 288.33 109.039 288.33 124.741C288.33 144.947 288.35 157.48 288.401 162.34C288.442 168.373 289.196 172.102 290.674 173.539C292.365 175.138 295.402 175.923 299.793 175.882C300.639 175.882 302.555 175.801 305.55 175.628C307.955 175.464 309.83 175.414 311.185 175.505C318.573 175.801 322.638 175.628 323.403 174.996C324.157 174.323 324.707 172.693 325.043 170.125C325.339 167.506 325.196 165.733 324.605 164.806Z" fill="white"/>
<path d="M366.566 109.548C364.803 97.4735 363.529 89.8211 362.775 86.5706C358.679 84.5429 352.29 84.5429 343.599 86.5706C335.243 142.359 330.933 171.562 330.678 174.17C331.738 175.057 333.338 175.546 335.488 175.628C339.502 175.801 341.51 175.882 341.51 175.882C342.559 174.283 343.273 171.603 343.66 167.843C344.159 163.329 344.628 160.374 345.046 158.978C346.564 158.978 349.101 158.957 352.647 158.917C356.234 158.876 358.781 158.856 360.31 158.856C360.941 160.71 361.675 163.747 362.521 167.965C363.193 171.256 363.998 173.732 364.925 175.373C365.476 175.373 366.444 175.393 367.84 175.434C369.144 175.526 370.132 175.546 370.815 175.505C372.965 175.414 374.524 174.863 375.492 173.855C374.697 166.467 371.722 145.038 366.566 109.548ZM345.871 147.586C347.685 132.271 349.356 118.994 350.874 107.775C351.383 106.124 352.076 105.116 352.963 104.739C354.603 104.779 355.724 107.327 356.315 112.391C356.865 117.455 357.456 123.681 358.088 131.069C358.801 140.178 359.25 145.691 359.423 147.586H345.871Z" fill="white"/>
<mask id="mask1_31_1432" style="mask-type:luminance" maskUnits="userSpaceOnUse" x="166" y="92" width="68" height="105">
<path d="M200.242 196.079C200.109 196.079 199.977 196.079 199.834 196.079C199.814 196.079 199.712 196.079 199.681 196.079C199.549 196.079 199.406 196.079 199.274 196.079C195.718 196.079 192.844 194.958 190.735 192.757C189.339 191.29 188.707 189.772 188.575 189.415L172.037 123.234C171.589 121.42 170.244 120.207 168.715 120.207C168.42 120.207 168.124 120.248 167.829 120.34C167.778 120.34 167.666 120.36 167.523 120.36C166.738 120.36 166.453 120.106 166.208 119.158C165.995 118.322 166.137 117.874 166.443 117.446C166.769 116.977 167.238 116.641 167.421 116.529C169.041 115.744 169.826 113.788 169.398 111.821L167.258 101.836C169.754 95.5385 174.309 92.4714 181.157 92.4714C188.626 92.4714 196.135 96.0989 198.255 97.2198C198.734 97.4643 199.243 97.5968 199.753 97.5968C200.262 97.5968 200.772 97.4745 201.25 97.2198C203.37 96.1091 210.88 92.4714 218.349 92.4714C225.196 92.4714 229.751 95.5385 232.247 101.836L230.107 111.821C229.69 113.788 230.464 115.744 232.084 116.529C232.268 116.641 232.736 116.977 233.062 117.446C233.368 117.884 233.511 118.322 233.297 119.158C233.052 120.095 232.767 120.36 231.982 120.36C231.84 120.36 231.738 120.35 231.677 120.34C231.381 120.248 231.075 120.207 230.79 120.207C229.251 120.207 227.917 121.42 227.468 123.234L210.931 189.415C210.798 189.782 210.166 191.29 208.77 192.757C206.661 194.958 203.798 196.079 200.232 196.079H200.242Z" fill="white"/>
</mask>
<g mask="url(#mask1_31_1432)">
<path d="M259.464 84.7275H161.684V206.35H259.464V84.7275Z" fill="#C8C8C8"/>
<path d="M307.996 135.37L305.989 133.067L289.706 151.673L283.541 144.632L299.824 126.026L297.817 123.723L281.534 142.329L275.369 135.288L291.652 116.682L289.645 114.379L273.362 132.985L267.197 125.944L283.48 107.338L281.473 105.035L265.19 123.642L259.025 116.601L275.308 97.9944L273.301 95.6915L257.018 114.298L250.853 107.257L267.136 88.6505L265.129 86.3477L248.846 104.954L242.681 97.9129L258.964 79.3067L256.957 77.0038L240.674 95.61L234.509 88.5588L250.792 69.9628L248.785 67.66L232.502 86.256L226.337 79.215L242.62 60.6088L240.613 58.306L224.33 76.9121L218.165 69.8711L234.448 51.265L232.441 48.9621L216.158 67.5683L209.993 60.5273L226.276 41.9313L224.269 39.6285L207.986 58.2244L201.821 51.1834L218.104 32.5773L216.097 30.2744L199.814 48.8806L183.531 30.2744L181.523 32.5773L197.806 51.1834L191.642 58.2244L175.359 39.6183L173.351 41.9211L189.634 60.5273L183.47 67.5683L167.187 48.9723L165.179 51.2751L181.462 69.8813L175.298 76.9223L159.015 58.3161L157.007 60.619L173.29 79.2252L167.125 86.2662L150.843 67.6702L148.835 69.973L165.118 88.569L158.953 95.61L142.67 77.0038L140.663 79.3067L156.946 97.9129L150.781 104.954L134.498 86.3579L132.491 88.6607L148.774 107.257L142.609 114.298L126.326 95.7017L124.319 98.0046L140.602 116.611L134.437 123.652L118.154 105.046L116.147 107.348L132.43 125.955L126.265 132.996L109.982 114.4L107.975 116.702L124.258 135.298L118.093 142.339L101.81 123.733L99.8029 126.036L116.086 144.642L109.921 151.683L93.6382 133.087L91.6309 135.39L107.914 153.986L91.6309 172.592L93.6382 174.895L109.921 156.289L116.086 163.34L99.8029 181.936L101.81 184.239L118.093 165.643L124.258 172.684L107.975 191.28L109.982 193.583L126.265 174.987L132.43 182.028L116.157 200.624L118.165 202.927L134.437 184.331L140.602 191.382L124.319 209.978L126.326 212.281L142.609 193.685L148.774 200.726L132.491 219.332L134.498 221.635L150.781 203.029L156.946 210.08L140.663 228.676L142.67 230.979L158.953 212.383L165.118 219.424L148.835 238.02L150.843 240.323L167.115 221.727L173.28 228.768L157.007 247.364L159.015 249.666L175.287 231.07L181.452 238.122L165.169 256.718L167.176 259.02L183.459 240.424L189.624 247.465L173.351 266.061L175.359 268.364L191.631 249.768L197.796 256.819L181.513 275.415L183.521 277.718L199.803 259.122L216.086 277.728L218.094 275.426L201.811 256.819L207.976 249.768L224.258 268.374L226.266 266.072L209.983 247.465L216.148 240.424L232.431 259.031L234.438 256.728L218.155 238.122L224.32 231.081L240.603 249.687L242.61 247.384L226.327 228.778L232.492 221.737L248.775 240.343L250.782 238.04L234.499 219.434L240.664 212.393L256.947 230.999L258.954 228.696L242.671 210.09L248.836 203.049L265.119 221.655L267.126 219.352L250.843 200.746L257.008 193.705L273.291 212.311L275.298 210.008L259.015 191.402L265.18 184.351L281.463 202.957L283.47 200.654L267.187 182.048L273.352 175.007L289.635 193.613L291.642 191.311L275.359 172.704L281.524 165.663L297.807 184.27L299.814 181.967L283.531 163.361L289.696 156.32L305.979 174.926L307.986 172.623L291.703 154.017L307.986 135.411L307.996 135.37ZM279.517 144.632L273.352 151.673L267.187 144.632L273.352 137.591L279.517 144.632ZM201.77 144.632L207.935 137.591L214.099 144.642L207.935 151.683L201.77 144.632ZM205.927 153.976L199.763 161.017L193.598 153.976L199.763 146.935L205.927 153.986V153.976ZM199.763 142.329L193.598 135.288L199.763 128.247L205.927 135.288L199.763 142.329ZM197.755 144.632L191.591 151.673L185.426 144.632L191.591 137.581L197.755 144.622V144.632ZM189.573 153.976L183.408 161.017L177.244 153.976L183.408 146.935L189.573 153.976ZM191.58 156.279L197.745 163.33L191.58 170.371L185.416 163.33L191.58 156.279ZM199.763 165.623L205.927 172.664L199.763 179.705L193.598 172.664L199.763 165.623ZM201.77 163.32L207.935 156.279L214.099 163.32L207.935 170.361L201.77 163.32ZM209.942 153.976L216.107 146.935L222.272 153.976L216.107 161.017L209.942 153.976ZM218.114 144.632L224.279 137.581L230.444 144.622L224.279 151.663L218.114 144.622V144.632ZM216.107 142.329L209.942 135.278L216.107 128.237L222.272 135.278L216.107 142.329ZM207.935 132.985L201.77 125.944L207.935 118.903L214.099 125.944L207.935 132.985ZM199.753 123.642L193.588 116.601L199.753 109.549L205.917 116.601L199.753 123.642ZM197.745 125.944L191.58 132.985L185.416 125.944L191.58 118.903L197.745 125.944ZM189.573 135.288L183.408 142.339L177.244 135.288L183.408 128.247L189.573 135.288ZM181.401 144.632L175.236 151.673L169.072 144.632L175.236 137.591L181.401 144.642V144.632ZM173.219 153.976L167.054 161.017L160.889 153.976L167.054 146.935L173.219 153.976ZM175.226 156.279L181.391 163.33L175.226 170.371L169.062 163.33L175.226 156.279ZM183.408 165.623L189.573 172.664L183.408 179.705L177.244 172.653L183.408 165.612V165.623ZM191.58 174.967L197.745 182.008L191.58 189.059L185.416 182.018L191.58 174.977V174.967ZM199.753 184.31L205.917 191.351L199.753 198.392L193.588 191.351L199.753 184.3V184.31ZM201.76 182.008L207.925 174.967L214.089 182.008L207.925 189.049L201.76 182.008ZM209.932 172.664L216.097 165.623L222.261 172.664L216.097 179.705L209.932 172.664ZM218.104 163.32L224.269 156.279L230.433 163.32L224.269 170.361L218.104 163.32ZM226.286 153.976L232.451 146.935L238.616 153.976L232.451 161.017L226.286 153.976ZM234.458 144.632L240.623 137.581L246.788 144.632L240.623 151.673L234.458 144.632ZM232.451 142.329L226.286 135.288L232.451 128.247L238.616 135.288L232.451 142.339V142.329ZM224.279 132.985L218.114 125.944L224.279 118.903L230.444 125.944L224.279 132.985ZM216.097 123.642L209.932 116.601L216.097 109.56L222.261 116.601L216.097 123.642ZM207.925 114.298L201.76 107.257L207.925 100.216L214.089 107.257L207.925 114.298ZM199.742 104.954L193.578 97.9129L199.742 90.8617L205.907 97.9027L199.742 104.944V104.954ZM197.735 107.257L191.57 114.298L185.406 107.257L191.57 100.216L197.735 107.257ZM189.563 116.601L183.398 123.642L177.234 116.601L183.398 109.56L189.563 116.601ZM181.391 125.944L175.226 132.985L169.062 125.944L175.226 118.903L181.391 125.944ZM173.209 135.288L167.044 142.329L160.879 135.288L167.044 128.247L173.209 135.288ZM165.037 144.632L158.872 151.673L152.707 144.632L158.872 137.591L165.037 144.632ZM156.865 153.976L150.7 161.017L144.535 153.976L150.7 146.935L156.865 153.976ZM158.872 156.279L165.037 163.33L158.872 170.371L152.707 163.32L158.872 156.279ZM167.044 165.623L173.209 172.664L167.044 179.705L160.879 172.664L167.044 165.623ZM175.216 174.967L181.381 182.018L175.216 189.059L169.051 182.008L175.216 174.967ZM183.398 184.31L189.563 191.351L183.398 198.392L177.234 191.351L183.398 184.31ZM191.57 193.654L197.735 200.695L191.57 207.736L185.406 200.695L191.57 193.654ZM199.742 202.998L205.907 210.039L199.742 217.08L193.578 210.029L199.742 202.988V202.998ZM201.75 200.695L207.914 193.654L214.079 200.695L207.914 207.736L201.75 200.695ZM209.922 191.351L216.086 184.31L222.251 191.362L216.086 198.403L209.922 191.362V191.351ZM218.094 182.008L224.258 174.967L230.423 182.008L224.258 189.059L218.094 182.008ZM226.276 172.664L232.441 165.623L238.605 172.664L232.441 179.705L226.276 172.664ZM234.448 163.32L240.613 156.279L246.777 163.33L240.613 170.371L234.448 163.32ZM242.62 153.976L248.785 146.935L254.95 153.976L248.785 161.017L242.62 153.976ZM250.792 144.632L256.957 137.591L263.122 144.642L256.957 151.683L250.792 144.642V144.632ZM248.785 142.329L242.62 135.278L248.785 128.237L254.95 135.278L248.785 142.319V142.329ZM240.613 132.985L234.448 125.944L240.613 118.903L246.777 125.944L240.613 132.985ZM232.441 123.642L226.276 116.601L232.441 109.56L238.605 116.611L232.441 123.652V123.642ZM224.269 114.298L218.104 107.257L224.269 100.216L230.433 107.257L224.269 114.298ZM216.097 104.954L209.932 97.9129L216.097 90.8719L222.261 97.9231L216.097 104.964V104.954ZM207.925 95.61L201.76 88.569L207.925 81.528L214.089 88.569L207.925 95.6202V95.61ZM199.742 86.2662L193.578 79.2252L199.742 72.1842L205.907 79.2252L199.742 86.2662ZM197.735 88.569L191.57 95.6202L185.406 88.569L191.57 81.528L197.735 88.569ZM189.563 97.9129L183.398 104.954L177.234 97.9129L183.398 90.8617L189.563 97.9129ZM181.391 107.257L175.226 114.298L169.062 107.257L175.226 100.216L181.391 107.257ZM173.219 116.601L167.054 123.642L160.889 116.601L167.054 109.549L173.219 116.59V116.601ZM165.047 125.944L158.882 132.985L152.717 125.944L158.882 118.903L165.047 125.944ZM156.875 135.288L150.71 142.329L144.545 135.288L150.71 128.247L156.875 135.288ZM148.693 144.632L142.528 151.673L136.363 144.632L142.528 137.591L148.693 144.632ZM140.52 153.976L134.356 161.017L128.191 153.976L134.356 146.935L140.52 153.976ZM142.528 156.279L148.693 163.32L142.528 170.361L136.363 163.32L142.528 156.279ZM150.7 165.623L156.865 172.664L150.7 179.705L144.535 172.664L150.7 165.623ZM158.882 174.967L165.047 182.008L158.882 189.049L152.717 182.008L158.882 174.967ZM167.054 184.31L173.219 191.362L167.054 198.403L160.889 191.351L167.054 184.31ZM175.226 193.654L181.391 200.695L175.226 207.736L169.062 200.695L175.226 193.654ZM183.398 202.998L189.563 210.039L183.398 217.08L177.234 210.039L183.398 202.998ZM191.57 212.342L197.735 219.383L191.57 226.424L185.406 219.383L191.57 212.342ZM199.753 221.686L205.917 228.727L199.753 235.768L193.588 228.727L199.753 221.686ZM201.76 219.383L207.925 212.342L214.089 219.383L207.925 226.424L201.76 219.383ZM209.932 210.039L216.097 202.998L222.261 210.039L216.097 217.09L209.932 210.049V210.039ZM218.104 200.695L224.269 193.654L230.433 200.695L224.269 207.736L218.104 200.695ZM226.286 191.351L232.451 184.3L238.616 191.341L232.451 198.382L226.286 191.341V191.351ZM234.458 182.008L240.623 174.967L246.788 182.008L240.623 189.049L234.458 182.008ZM242.63 172.664L248.795 165.623L254.96 172.664L248.795 179.705L242.63 172.664ZM250.802 163.32L256.967 156.269L263.132 163.31L256.967 170.361L250.802 163.32ZM258.985 153.976L265.149 146.935L271.314 153.976L265.149 161.017L258.985 153.976ZM271.314 135.288L265.149 142.329L258.985 135.278L265.149 128.237L271.314 135.278V135.288ZM263.142 125.944L256.977 132.985L250.813 125.944L256.977 118.903L263.142 125.944ZM254.97 116.601L248.805 123.642L242.641 116.601L248.805 109.56L254.97 116.601ZM246.798 107.257L240.633 114.298L234.468 107.257L240.633 100.216L246.798 107.257ZM238.616 97.9129L232.451 104.954L226.286 97.9129L232.451 90.8617L238.616 97.9129ZM230.433 88.569L224.269 95.6202L218.104 88.569L224.269 81.528L230.433 88.569ZM222.261 79.2252L216.097 86.2662L209.932 79.2252L216.097 72.1842L222.261 79.2252ZM214.089 69.8813L207.925 76.9223L201.76 69.8813L207.925 62.8403L214.089 69.8813ZM199.742 53.4965L205.907 60.5375L199.742 67.5785L193.578 60.5375L199.742 53.4965ZM191.56 62.8403L197.725 69.8813L191.56 76.9223L185.395 69.8813L191.56 62.8403ZM183.388 72.1842L189.553 79.2252L183.388 86.2662L177.223 79.2252L183.388 72.1842ZM175.216 81.528L181.381 88.569L175.216 95.6202L169.051 88.569L175.216 81.528ZM167.044 90.8719L173.209 97.9231L167.044 104.964L160.879 97.9231L167.044 90.8821V90.8719ZM158.872 100.216L165.037 107.257L158.872 114.298L152.707 107.257L158.872 100.216ZM150.69 109.56L156.854 116.611L150.69 123.652L144.525 116.611L150.69 109.56ZM142.518 118.903L148.682 125.944L142.518 132.985L136.353 125.944L142.518 118.903ZM134.335 128.247L140.5 135.288L134.335 142.329L128.171 135.278L134.335 128.237V128.247ZM126.163 137.591L132.328 144.642L126.163 151.683L119.999 144.642L126.163 137.601V137.591ZM111.816 153.976L117.981 146.935L124.146 153.976L117.981 161.017L111.816 153.976ZM119.999 163.32L126.163 156.269L132.328 163.31L126.163 170.361L119.999 163.32ZM128.171 172.664L134.335 165.623L140.5 172.664L134.335 179.705L128.171 172.664ZM136.343 182.008L142.507 174.967L148.672 182.008L142.507 189.059L136.343 182.008ZM144.525 191.351L150.69 184.3L156.854 191.341L150.69 198.382L144.525 191.341V191.351ZM152.697 200.695L158.862 193.654L165.026 200.705L158.862 207.746L152.697 200.695ZM160.879 210.039L167.044 202.988L173.209 210.029L167.044 217.08L160.879 210.039ZM169.051 219.383L175.216 212.342L181.381 219.383L175.216 226.424L169.051 219.383ZM177.223 228.727L183.388 221.686L189.553 228.727L183.388 235.778L177.223 228.727ZM185.406 238.071L191.57 231.019L197.735 238.06L191.57 245.101L185.406 238.06V238.071ZM199.753 254.455L193.588 247.414L199.753 240.373L205.917 247.414L199.753 254.455ZM207.935 245.112L201.77 238.071L207.935 231.03L214.099 238.081L207.935 245.122V245.112ZM216.107 235.768L209.942 228.717L216.107 221.676L222.272 228.717L216.107 235.758V235.768ZM224.289 226.424L218.124 219.383L224.289 212.342L230.454 219.383L224.289 226.424ZM232.461 217.08L226.296 210.029L232.461 202.988L238.626 210.029L232.461 217.08ZM240.633 207.736L234.468 200.695L240.633 193.654L246.798 200.695L240.633 207.736ZM248.805 198.392L242.641 191.351L248.805 184.31L254.97 191.362L248.805 198.403V198.392ZM256.977 189.049L250.813 181.997L256.977 174.956L263.142 181.997L256.977 189.049ZM265.149 179.705L258.985 172.664L265.149 165.623L271.314 172.664L265.149 179.705ZM273.332 170.361L267.167 163.31L273.332 156.269L279.496 163.31L273.332 170.351V170.361ZM281.504 161.017L275.339 153.976L281.504 146.935L287.668 153.976L281.504 161.017Z" fill="white"/>
<path d="M307.996 134.106L305.989 131.803L289.706 150.41L283.541 143.369L299.824 124.762L297.817 122.46L281.534 141.066L275.369 134.025L291.652 115.419L289.645 113.116L273.362 131.722L267.197 124.671L283.48 106.065L281.473 103.762L265.19 122.368L259.025 115.327L275.308 96.7207L273.301 94.4179L257.018 113.024L250.853 105.983L267.136 87.3769L265.129 85.074L248.846 103.68L242.681 96.6392L258.964 78.033L256.957 75.7302L240.674 94.3363L234.509 87.2953L250.792 68.6892L248.785 66.3863L232.502 84.9925L226.337 77.9413L242.62 59.3453L240.613 57.0425L224.33 75.6385L218.165 68.5975L234.448 49.9913L232.441 47.6884L216.158 66.2946L209.993 59.2434L226.276 40.6474L224.269 38.3446L207.986 56.9406L201.821 49.8996L218.104 31.3036L216.097 29.0007L199.814 47.5967L183.531 29.0007L181.523 31.3036L197.806 49.8996L191.642 56.9406L175.359 38.3344L173.351 40.6372L189.634 59.2434L183.47 66.2844L167.187 47.6782L165.179 49.9811L181.462 68.5873L175.298 75.6283L159.015 57.0221L157.007 59.3249L173.29 77.9311L167.125 84.9721L150.843 66.3659L148.835 68.6688L165.118 87.275L158.953 94.316L142.67 75.72L140.663 78.0228L156.946 96.6188L150.781 103.66L134.498 85.0638L132.491 87.3667L148.774 105.963L142.609 113.014L126.326 94.4077L124.319 96.7105L140.602 115.317L134.437 122.358L118.154 103.762L116.147 106.065L132.43 124.661L126.265 131.702L109.982 113.095L107.975 115.398L124.258 134.004L118.093 141.045L101.81 122.449L99.8029 124.752L116.086 143.348L109.921 150.389L93.6382 131.793L91.6309 134.096L107.914 152.692L91.6309 171.298L93.6382 173.601L109.921 154.995L116.086 162.046L99.8029 180.642L101.81 182.945L118.093 164.349L124.258 171.39L107.975 189.996L109.982 192.299L126.265 173.693L132.43 180.734L116.157 199.33L118.165 201.633L134.437 183.037L140.602 190.078L124.319 208.674L126.326 210.977L142.609 192.381L148.774 199.422L132.491 218.028L134.498 220.331L150.781 201.724L156.946 208.776L140.663 227.372L142.67 229.674L158.953 211.078L165.118 218.119L148.835 236.715L150.843 239.018L167.115 220.422L173.28 227.463L157.007 246.059L159.015 248.362L175.287 229.766L181.452 236.807L165.169 255.403L167.176 257.706L183.459 239.11L189.624 246.151L173.351 264.747L175.359 267.05L191.631 248.454L197.796 255.505L181.513 274.101L183.521 276.404L199.803 257.808L216.086 276.414L218.094 274.111L201.811 255.505L207.976 248.454L224.258 267.06L226.266 264.757L209.983 246.151L216.148 239.11L232.431 257.716L234.438 255.413L218.155 236.807L224.32 229.766L240.603 248.372L242.61 246.069L226.327 227.463L232.492 220.412L248.775 239.018L250.782 236.715L234.499 218.109L240.664 211.068L256.947 229.674L258.954 227.372L242.671 208.765L248.836 201.724L265.119 220.331L267.126 218.028L250.843 199.422L257.008 192.381L273.291 210.987L275.298 208.684L259.015 190.078L265.18 183.037L281.463 201.643L283.47 199.34L267.187 180.734L273.352 173.683L289.635 192.289L291.642 189.986L275.359 171.38L281.524 164.339L297.807 182.945L299.814 180.642L283.531 162.036L289.696 154.995L305.979 173.601L307.986 171.298L291.703 152.692L307.986 134.086L307.996 134.106ZM279.517 143.369L273.352 150.41L267.187 143.369L273.352 136.328L279.517 143.369ZM201.77 143.369L207.935 136.328L214.099 143.379L207.935 150.42L201.77 143.369ZM205.927 152.712L199.763 159.753L193.598 152.702L199.763 145.661L205.927 152.712ZM199.763 141.066L193.598 134.025L199.763 126.984L205.927 134.025L199.763 141.066ZM197.755 143.369L191.591 150.41L185.426 143.369L191.591 136.328L197.755 143.369ZM189.573 152.712L183.408 159.764L177.244 152.712L183.408 145.671L189.573 152.712ZM191.58 155.015L197.745 162.067L191.58 169.108L185.416 162.067L191.58 155.015ZM199.763 164.359L205.927 171.4L199.763 178.451L193.598 171.41L199.763 164.369V164.359ZM201.77 162.056L207.935 155.015L214.099 162.056L207.935 169.097L201.77 162.056ZM209.942 152.712L216.107 145.671L222.272 152.712L216.107 159.753L209.942 152.712ZM218.114 143.369L224.279 136.328L230.444 143.369L224.279 150.41L218.114 143.369ZM216.107 141.066L209.942 134.015L216.107 126.974L222.272 134.025L216.107 141.066ZM207.935 131.722L201.77 124.681L207.935 117.64L214.099 124.681L207.935 131.722ZM199.753 122.378L193.588 115.337L199.753 108.286L205.917 115.337L199.753 122.378ZM197.745 124.681L191.58 131.722L185.416 124.671L191.58 117.63L197.745 124.671V124.681ZM189.573 134.025L183.408 141.066L177.244 134.025L183.408 126.974L189.573 134.025ZM181.401 143.369L175.236 150.41L169.072 143.369L175.236 136.328L181.401 143.369ZM173.219 152.712L167.054 159.764L160.889 152.712L167.054 145.671L173.219 152.712ZM175.226 155.015L181.391 162.067L175.226 169.108L169.062 162.067L175.226 155.015ZM183.408 164.359L189.573 171.4L183.408 178.451L177.244 171.4L183.408 164.359ZM191.58 173.703L197.745 180.744L191.58 187.785L185.416 180.744L191.58 173.693V173.703ZM199.753 183.047L205.917 190.088L199.753 197.129L193.588 190.088L199.753 183.047ZM201.76 180.744L207.925 173.693L214.089 180.744L207.925 187.785L201.76 180.744ZM209.932 171.4L216.097 164.359L222.261 171.4L216.097 178.451L209.932 171.4ZM218.104 162.056L224.269 155.015L230.433 162.056L224.269 169.097L218.104 162.056ZM226.286 152.712L232.451 145.671L238.616 152.712L232.451 159.753L226.286 152.712ZM234.458 143.369L240.623 136.328L246.788 143.369L240.623 150.41L234.458 143.369ZM232.451 141.066L226.286 134.025L232.451 126.974L238.616 134.015L232.451 141.056V141.066ZM224.279 131.722L218.114 124.671L224.279 117.63L230.444 124.671L224.279 131.722ZM216.097 122.378L209.932 115.337L216.097 108.296L222.261 115.337L216.097 122.378ZM207.925 113.034L201.76 105.983L207.925 98.942L214.089 105.983L207.925 113.024V113.034ZM199.742 103.69L193.578 96.6494L199.742 89.6084L205.907 96.6494L199.742 103.69ZM197.735 105.993L191.57 113.044L185.406 106.003L191.57 98.9624L197.735 106.003V105.993ZM189.563 115.337L183.398 122.378L177.234 115.337L183.398 108.296L189.563 115.337ZM181.391 124.681L175.226 131.732L169.062 124.691L175.226 117.65L181.391 124.691V124.681ZM173.209 134.025L167.044 141.066L160.879 134.025L167.044 126.974L173.209 134.015V134.025ZM165.037 143.369L158.872 150.41L152.707 143.369L158.872 136.328L165.037 143.369ZM156.865 152.712L150.7 159.753L144.535 152.712L150.7 145.671L156.865 152.712ZM158.872 155.015L165.037 162.067L158.872 169.108L152.707 162.067L158.872 155.026V155.015ZM167.044 164.359L173.209 171.4L167.044 178.441L160.879 171.4L167.044 164.359ZM175.216 173.703L181.381 180.754L175.216 187.795L169.051 180.744L175.216 173.703ZM183.398 183.047L189.563 190.088L183.398 197.129L177.234 190.088L183.398 183.047ZM191.57 192.391L197.735 199.432L191.57 206.473L185.406 199.432L191.57 192.391ZM199.742 201.735L205.907 208.786L199.742 215.827L193.578 208.786L199.742 201.745V201.735ZM201.75 199.432L207.914 192.391L214.079 199.432L207.914 206.483L201.75 199.432ZM209.922 190.088L216.086 183.047L222.251 190.088L216.086 197.129L209.922 190.088ZM218.094 180.744L224.258 173.693L230.423 180.744L224.258 187.785L218.094 180.744ZM226.276 171.4L232.441 164.359L238.605 171.4L232.441 178.441L226.276 171.39V171.4ZM234.448 162.056L240.613 155.015L246.777 162.067L240.613 169.108L234.448 162.067V162.056ZM242.62 152.712L248.785 145.671L254.95 152.712L248.785 159.764L242.62 152.712ZM250.792 143.369L256.957 136.328L263.122 143.369L256.957 150.41L250.792 143.369ZM248.785 141.066L242.62 134.025L248.785 126.984L254.95 134.035L248.785 141.076V141.066ZM240.613 131.722L234.448 124.681L240.613 117.64L246.777 124.681L240.613 131.722ZM232.441 122.378L226.276 115.337L232.441 108.296L238.605 115.347L232.441 122.388V122.378ZM224.269 113.034L218.104 105.993L224.269 98.9522L230.433 105.993L224.269 113.034ZM216.097 103.69L209.932 96.6494L216.097 89.6084L222.261 96.6494L216.097 103.69ZM207.925 94.3465L201.76 87.3055L207.925 80.2645L214.089 87.3055L207.925 94.3465ZM199.742 85.0027L193.578 77.9617L199.742 70.9207L205.907 77.9617L199.742 85.0027ZM197.735 87.3055L191.57 94.3465L185.406 87.3055L191.57 80.2645L197.735 87.3055ZM189.563 96.6494L183.398 103.69L177.234 96.6494L183.398 89.6084L189.563 96.6494ZM181.391 105.993L175.226 113.034L169.062 105.993L175.226 98.9522L181.391 105.993ZM173.219 115.337L167.054 122.378L160.889 115.337L167.054 108.286L173.219 115.327V115.337ZM165.047 124.681L158.882 131.732L152.717 124.681L158.882 117.64L165.047 124.681ZM156.875 134.025L150.71 141.066L144.545 134.025L150.71 126.974L156.875 134.025ZM148.693 143.369L142.528 150.41L136.363 143.369L142.528 136.328L148.693 143.369ZM140.52 152.712L134.356 159.753L128.191 152.712L134.356 145.671L140.52 152.712ZM142.528 155.015L148.693 162.056L142.528 169.097L136.363 162.056L142.528 155.015ZM150.7 164.359L156.865 171.4L150.7 178.441L144.535 171.39L150.7 164.349V164.359ZM158.882 173.703L165.047 180.744L158.882 187.785L152.717 180.744L158.882 173.703ZM167.054 183.047L173.219 190.098L167.054 197.139L160.889 190.088L167.054 183.047ZM175.226 192.391L181.391 199.432L175.226 206.473L169.062 199.432L175.226 192.391ZM183.398 201.735L189.563 208.776L183.398 215.817L177.234 208.776L183.398 201.735ZM191.57 211.078L197.735 218.119L191.57 225.16L185.406 218.109L191.57 211.068V211.078ZM199.753 220.422L205.917 227.463L199.753 234.504L193.588 227.463L199.753 220.422ZM201.76 218.119L207.925 211.078L214.089 218.119L207.925 225.16L201.76 218.119ZM209.932 208.776L216.097 201.724L222.261 208.765L216.097 215.806L209.932 208.765V208.776ZM218.104 199.432L224.269 192.391L230.433 199.432L224.269 206.483L218.104 199.442V199.432ZM226.286 190.088L232.451 183.047L238.616 190.088L232.451 197.129L226.286 190.088ZM234.458 180.744L240.623 173.703L246.788 180.744L240.623 187.785L234.458 180.744ZM242.63 171.4L248.795 164.359L254.96 171.4L248.795 178.451L242.63 171.41V171.4ZM250.802 162.056L256.967 155.005L263.132 162.046L256.967 169.087L250.802 162.046V162.056ZM258.985 152.712L265.149 145.671L271.314 152.712L265.149 159.753L258.985 152.712ZM271.314 134.025L265.149 141.066L258.985 134.025L265.149 126.984L271.314 134.035V134.025ZM263.142 124.681L256.977 131.722L250.813 124.671L256.977 117.63L263.142 124.671V124.681ZM254.97 115.337L248.805 122.378L242.641 115.337L248.805 108.296L254.97 115.337ZM246.798 105.993L240.633 113.034L234.468 105.983L240.633 98.942L246.798 105.983V105.993ZM238.616 96.6494L232.451 103.69L226.286 96.6494L232.451 89.6084L238.616 96.6494ZM230.433 87.3055L224.269 94.3465L218.104 87.3055L224.269 80.2543L230.433 87.3055ZM222.261 77.9617L216.097 85.0129L209.932 77.9719L216.097 70.9309L222.261 77.9719V77.9617ZM214.089 68.6178L207.925 75.6588L201.76 68.6178L207.925 61.5768L214.089 68.6178ZM199.742 52.233L205.907 59.274L199.742 66.315L193.578 59.274L199.742 52.233ZM191.56 61.5768L197.725 68.6178L191.56 75.6588L185.395 68.6178L191.56 61.5768ZM183.388 70.9207L189.553 77.9617L183.388 85.0027L177.223 77.9617L183.388 70.9207ZM175.216 80.2645L181.381 87.3055L175.216 94.3465L169.051 87.3055L175.216 80.2645ZM167.044 89.6084L173.209 96.6494L167.044 103.69L160.879 96.6494L167.044 89.6084ZM158.872 98.9522L165.037 105.993L158.872 113.044L152.707 105.993L158.872 98.9522ZM150.69 108.296L156.854 115.347L150.69 122.388L144.525 115.347L150.69 108.296ZM142.518 117.64L148.682 124.681L142.518 131.732L136.353 124.681L142.518 117.64ZM134.335 126.984L140.5 134.035L134.335 141.076L128.171 134.035L134.335 126.994V126.984ZM126.163 136.328L132.328 143.369L126.163 150.41L119.999 143.369L126.163 136.328ZM111.816 152.712L117.981 145.671L124.146 152.712L117.981 159.764L111.816 152.712ZM119.999 162.056L126.163 155.005L132.328 162.046L126.163 169.087L119.999 162.046V162.056ZM128.171 171.4L134.335 164.359L140.5 171.4L134.335 178.451L128.171 171.41V171.4ZM136.343 180.744L142.507 173.693L148.672 180.744L142.507 187.785L136.343 180.744ZM144.525 190.088L150.69 183.047L156.854 190.088L150.69 197.129L144.525 190.088ZM152.697 199.432L158.862 192.391L165.026 199.442L158.862 206.493L152.697 199.442V199.432ZM160.879 208.776L167.044 201.724L173.209 208.765L167.044 215.806L160.879 208.765V208.776ZM169.051 218.119L175.216 211.078L181.381 218.119L175.216 225.171L169.051 218.13V218.119ZM177.223 227.463L183.388 220.412L189.553 227.463L183.388 234.504L177.223 227.463ZM185.406 236.807L191.57 229.766L197.735 236.807L191.57 243.848L185.406 236.807ZM199.753 253.192L193.588 246.141L199.753 239.1L205.917 246.141L199.753 253.192ZM207.935 243.848L201.77 236.807L207.935 229.766L214.099 236.807L207.935 243.848ZM216.107 234.504L209.942 227.463L216.107 220.422L222.272 227.473L216.107 234.514V234.504ZM224.289 225.16L218.124 218.109L224.289 211.068L230.454 218.109L224.289 225.16ZM232.461 215.817L226.296 208.776L232.461 201.724L238.626 208.776L232.461 215.817ZM240.633 206.473L234.468 199.422L240.633 192.381L246.798 199.422L240.633 206.463V206.473ZM248.805 197.129L242.641 190.088L248.805 183.047L254.97 190.088L248.805 197.129ZM256.977 187.785L250.813 180.744L256.977 173.693L263.142 180.744L256.977 187.785ZM265.149 178.441L258.985 171.39L265.149 164.349L271.314 171.39L265.149 178.441ZM273.332 169.097L267.167 162.056L273.332 155.015L279.496 162.067L273.332 169.108V169.097ZM281.504 159.753L275.339 152.702L281.504 145.661L287.668 152.702L281.504 159.743V159.753Z" fill="white"/>
<g style="mix-blend-mode:multiply">
<path d="M260.156 109.203C259.341 105.137 256.998 101.041 253.197 98.6464C259.249 92.2167 263.264 84.1568 264.334 75.0167C267.401 48.9212 245.381 24.0179 215.149 19.3714C184.916 14.7352 157.924 32.1288 154.867 58.2141C153.522 69.6978 157.028 80.9471 163.967 90.3521C155.204 92.4613 145.35 99.166 149.64 108.092C155.55 120.381 167.156 111.709 174.289 108.999C182.338 105.942 195.351 109.61 201.587 115.357C205.234 118.72 207.629 124.691 213.906 125.099C221.497 125.588 218.705 119.28 222.108 114.664C231.31 102.162 237.892 115.327 246.614 119.769C257.426 125.272 261.797 117.273 260.167 109.193L260.156 109.203Z" fill="white"/>
</g>
<g style="mix-blend-mode:multiply" opacity="0.3">
<path d="M167.9 92.3391H164.058C163.315 92.3391 162.612 92.7365 162.163 93.4192C161.715 94.1019 161.572 94.9884 161.786 95.8036L187.963 198.138C188.259 199.289 189.186 200.084 190.236 200.084C191.285 200.084 192.212 199.289 192.508 198.138L199.671 170.126C182.563 155.372 170.264 126.495 167.89 92.3391H167.9Z" fill="white"/>
</g>
</g>
<path d="M200.242 202.111C200.089 202.111 199.926 202.111 199.763 202.111C193.048 202.254 188.951 199.34 186.689 196.864C184.234 194.174 183.378 191.412 183.337 191.3L183.306 191.209L167.105 126.393C166.239 126.342 165.189 126.128 164.15 125.516C162.55 124.579 161.46 123 160.889 120.819C159.779 116.539 161.847 113.503 163.742 111.954L161.48 101.408L161.654 100.909C163.834 94.4279 167.635 90.0668 172.954 87.927C182.909 83.9327 195.075 89.0173 199.752 91.3405C204.429 89.0275 216.586 83.9327 226.551 87.927C231.87 90.0566 235.671 94.4279 237.851 100.909L238.024 101.408L235.762 111.954C237.658 113.513 239.726 116.539 238.615 120.819C238.055 123 236.955 124.579 235.355 125.516C234.326 126.128 233.266 126.342 232.4 126.393L216.188 191.249V191.29C216.137 191.402 215.281 194.174 212.826 196.854C210.615 199.269 206.651 202.101 200.221 202.101L200.242 202.111ZM187.026 190.21C187.24 190.862 189.981 198.484 199.722 198.26H199.763H199.803C199.946 198.26 200.089 198.26 200.231 198.26C209.626 198.26 212.316 190.76 212.5 190.2L229.557 121.95L231.422 122.49C232.196 122.663 234.142 122.775 234.896 119.831C235.813 116.285 233.032 114.654 232.706 114.481L231.401 113.809L231.727 112.382L234.03 101.612C232.206 96.5168 229.21 93.1033 225.114 91.4628C215.73 87.6926 203.084 93.8879 200.649 95.1616L199.752 95.6303L198.856 95.1616C196.42 93.8879 183.765 87.6926 174.38 91.4628C170.284 93.1033 167.288 96.5168 165.464 101.612L168.073 113.819L166.769 114.491C166.463 114.654 163.681 116.285 164.598 119.831C164.894 120.982 165.393 121.777 166.086 122.184C167.003 122.724 168.073 122.49 168.083 122.49L169.958 122.001L187.005 190.2L187.026 190.21Z" fill="white"/>
<path d="M227.866 119.331H170.519C170.121 119.331 169.795 119.005 169.795 118.608C169.795 118.21 170.121 117.884 170.519 117.884H227.866C228.263 117.884 228.589 118.21 228.589 118.608C228.589 119.005 228.263 119.331 227.866 119.331Z" fill="white"/>
<path d="M234.499 124.344H163.844C163.05 124.344 162.408 123.702 162.408 122.908C162.408 122.113 163.05 121.471 163.844 121.471H234.499C235.294 121.471 235.936 122.113 235.936 122.908C235.936 123.702 235.294 124.344 234.499 124.344Z" fill="white"/>
<path d="M231.534 110.935C226.735 110.935 221.66 108.714 217.095 104.638C214.14 106.38 210.992 107.888 207.609 107.888C203.176 107.888 198.958 105.433 194.108 99.971C191.57 101.622 186.588 104.322 181.116 104.322C175.073 104.322 170.06 101.245 167.706 99.5125C166.025 100.593 163.131 102.101 159.973 102.101C157.068 102.101 154.47 100.827 152.442 98.412C148.581 93.8063 147.378 88.039 149.233 82.9952C151.016 78.1042 155.326 74.8231 161.053 73.8347C160.553 71.2568 160.36 67.5987 161.796 63.6961C163.172 59.8546 165.933 56.9914 169.765 55.4324C171.263 54.821 172.74 54.4745 174.014 54.2911C173.841 53.6696 173.688 52.9869 173.565 52.2736C172.75 47.515 173.779 43.5921 176.541 40.9122C181.35 36.2556 188.147 35.2774 192.997 35.2774C193.761 35.2774 194.474 35.2977 195.116 35.3385C195.086 33.1579 195.585 30.5392 197.164 27.9205C199.365 24.2726 204.817 21.5112 205.428 21.2055L208.638 19.616L208.781 23.6001C208.883 26.1781 209.718 30.8245 211.522 32.3122C213.386 33.8406 216.148 34.1259 219.062 34.4316C222.017 34.7373 225.074 35.0532 227.906 36.6326C231.238 38.4973 233.501 41.7274 234.805 46.4961C235.865 49.5224 235.6 52.7321 235.151 54.9942C235.752 55.2591 236.415 55.6158 237.087 56.0845C239.309 57.6129 242.182 60.7004 243.303 66.7428L243.323 66.8345V66.9262C244.016 72.3573 242.539 76.4637 241.061 79.0722C243.405 80.3765 246.329 82.7099 247.786 86.6329C249.58 91.4322 248.734 97.1893 245.249 103.721L245.096 104.006L244.892 104.24C241.051 108.612 236.425 110.925 231.514 110.925L231.534 110.935Z" fill="white"/>
<path d="M243.211 102.304C235.121 111.526 225.002 108.897 217.381 101.357C209.728 106.095 204.195 108.235 194.474 96.4862C194.474 96.4862 188.167 101.581 181.106 101.581C178.385 101.581 175.889 100.878 173.81 99.971C170.152 98.3916 167.778 96.211 167.778 96.211C167.778 96.211 159.677 103.058 154.185 96.5066C147.154 88.1103 151.311 76.5452 164.303 76.27C164.303 76.27 161.756 70.8492 164.018 64.7354C167.126 56.0539 177.529 56.8181 177.529 56.8181C177.529 56.8181 173.056 47.8717 178.09 42.9909C185.283 36.0212 198.092 38.4055 198.092 38.4055C198.092 38.4055 196.258 34.238 199.141 29.4693C201.016 26.3615 206.386 23.7122 206.386 23.7122C206.386 23.7122 206.682 31.7008 210.126 34.5335C215.373 38.8335 224.146 35.2773 229.414 41.1262C230.709 42.5629 231.789 44.5702 232.553 47.4131C234.112 51.7131 232.125 56.92 232.125 56.92C232.125 56.92 239.146 57.4804 240.98 67.3134C242.029 75.6587 237.077 80.2847 237.077 80.2847C237.077 80.2847 252.8 84.2892 243.221 102.294L243.211 102.304Z" fill="white"/>
<path d="M243.211 102.305C235.121 111.526 225.002 108.897 217.381 101.357C209.728 106.095 204.195 108.235 194.474 96.4863C194.474 96.4863 188.167 101.581 181.106 101.581C187.189 98.8503 191.57 95.7527 193.619 90.6477C208.078 97.76 210.768 93.4396 222.751 95.0598C233.745 94.7745 233.287 90.5356 230.046 84.5543C226.796 78.573 202.117 83.1889 186.129 81.4872C170.142 79.7754 173.79 75.6995 173.79 75.6995C173.79 75.6995 187.535 76.2702 194.525 75.9849C201.526 75.6995 222.251 73.142 227.499 70.0036C232.747 66.8754 234.244 62.3104 230.749 59.1822C227.254 56.054 220.845 58.2957 204.358 58.581C187.872 58.8664 184.03 54.3422 184.03 54.3422C184.03 54.3422 194.617 54.9536 204.358 54.0976C214.1 53.2417 219.734 51.8559 226.735 47.0159C229.068 45.4059 229.557 42.7668 229.415 41.1365C230.709 42.5732 231.789 44.5806 232.553 47.4234C234.112 51.7235 232.125 56.9303 232.125 56.9303C232.125 56.9303 239.146 57.4908 240.98 67.3237C242.029 75.669 237.077 80.295 237.077 80.295C237.077 80.295 252.8 84.2996 243.221 102.305H243.211Z" fill="#C8C8C8"/>
<path d="M155.499 115.266C154.552 115.266 153.665 114.817 153.023 114.012C151.495 112.107 151.637 108.653 151.953 104.668C151.974 104.465 151.984 104.251 152.004 104.047C151.749 103.874 151.434 103.66 151.056 103.395C149.233 102.09 148.387 99.1253 148.234 93.4701C148.142 90.0566 148.356 86.908 148.366 86.7755L149.151 84.167L150.323 84.758L151.617 95.1106L163.416 93.0829C163.416 93.2561 166.392 92.2677 164.649 101.499C164.14 104.424 164.374 108.775 160.849 108.775C160.686 108.775 160.533 108.765 160.39 108.744C160.023 111.108 159.198 114.318 156.426 115.133C156.111 115.225 155.805 115.266 155.499 115.266Z" fill="white"/>
<path d="M163.946 89.1703C163.946 89.1703 163.926 91.4323 163.498 95.8954C163.355 97.3729 163.172 99.1051 162.917 101.072C161.919 108.969 159.799 105.107 158.821 105.015C157.843 104.934 158.607 111.659 155.825 112.474C154.307 112.912 154.083 110.416 154.164 107.868C154.226 105.749 154.511 103.599 154.439 103.11C154.276 102.04 154.766 102.794 152.33 101.062C149.905 99.3293 150.761 86.9795 150.761 86.9795L163.946 89.1601V89.1703Z" fill="white"/>
<path d="M162.927 101.071C161.929 108.968 159.809 105.107 158.831 105.015C157.853 104.933 158.617 111.658 155.835 112.474C154.317 112.912 154.093 110.415 154.174 107.868C154.816 108.245 155.479 108.398 156.009 107.634C157.486 105.534 157.486 97.8414 157.486 97.8414C157.486 97.8414 159.086 102.039 160.675 101.204C162.275 100.358 162.703 94.5603 162.703 94.5603C162.703 94.5603 163.192 99.1049 162.937 101.071H162.927Z" fill="white"/>
<path d="M161.644 92.3694C164.517 94.2545 166.056 92.2675 167.594 86.9995C167.248 94.0813 163.743 96.8936 161.644 92.3694Z" fill="white"/>
<path d="M205.061 27.564C205.061 27.564 202.799 33.0154 203.808 36.164C204.817 39.3227 206.325 37.6007 211.603 41.3301C216.881 45.0595 215.373 47.6374 215.373 47.6374C215.373 47.6374 225.685 45.3448 223.678 41.6154C221.67 37.886 218.145 40.1787 211.348 36.7448C204.552 33.3007 205.061 27.5742 205.061 27.5742V27.564Z" fill="white"/>
<path d="M192.487 38.7419C192.487 38.7419 180.861 41.6153 178.986 44.0099C177.111 46.4146 178.517 49.0741 183.194 50.409C187.871 51.7438 195.595 51.7438 195.595 51.7438C195.595 51.7438 183.663 49.339 184.366 45.8746C185.069 42.4101 192.487 38.7317 192.487 38.7317V38.7419Z" fill="white"/>
<path d="M177.101 58.051C177.101 58.051 166.382 60.8837 165.597 65.8461C164.823 70.8084 171.813 72.2247 177.407 72.2247C183.001 72.2247 196.838 70.8084 196.838 70.8084C196.838 70.8084 173.219 72.7546 170.885 68.3323C168.552 63.8999 177.101 58.0612 177.101 58.0612V58.051Z" fill="white"/>
<path d="M169.347 78.2773C169.347 78.2773 159.707 76.922 156.375 80.1725C153.043 83.4332 151.617 88.4465 151.974 92.1147C152.33 95.7728 153.4 97.4031 153.4 97.4031C153.4 97.4031 152.809 89.6692 155.784 85.196C158.76 80.7228 169.347 78.2773 169.347 78.2773Z" fill="white"/>
<path d="M242.977 94.4993C242.977 94.4993 242.233 99.5533 237.311 101.805C232.38 104.057 226.959 103.486 226.959 103.486C226.959 103.486 232.38 107.42 238.045 104.607C243.71 101.795 242.977 94.4993 242.977 94.4993Z" fill="white"/>
<path d="M238.442 70.2581C238.442 70.2581 236.68 74.5071 233.48 76.331C230.281 78.155 226.184 78.9905 226.184 78.9905C226.184 78.9905 231.452 80.1725 235.059 78.1244C238.667 76.0661 238.453 70.2581 238.453 70.2581H238.442Z" fill="white"/>
<path d="M160.625 90.5254C160.625 90.5254 162.224 93.6944 164.048 91.8705C165.862 90.0465 166.29 87.2444 166.29 87.2444C166.29 87.2444 163.936 90.4133 162.866 90.5356C161.796 90.6579 160.625 90.5356 160.625 90.5356V90.5254Z" fill="white"/>
<path d="M194.586 96.5575C196.298 98.1166 198.998 97.5561 201.933 96.313C201.933 96.313 199.314 98.5038 196.859 98.7075C194.413 98.9113 193.537 98.5037 193.537 98.5037L194.576 96.5575H194.586Z" fill="white"/>
<path d="M230.219 44.3766C230.219 44.3766 231.401 48.4117 229.567 50.9489C227.733 53.4861 221.966 55.2795 221.966 55.2795C221.966 55.2795 229.567 55.8807 231.279 53.3333C232.981 50.7961 230.23 44.3665 230.23 44.3665L230.219 44.3766Z" fill="white"/>
<path d="M213.091 99.4919C213.682 100.164 215.302 101.01 218.104 100.837C220.906 100.664 223.565 99.655 223.565 99.655C223.565 99.655 219.734 104.026 217.075 103.191C214.415 102.345 213.091 99.4919 213.091 99.4919Z" fill="white"/>
<path d="M250.364 37.2949C250.313 37.9165 250.008 38.1406 249.722 38.3954C248.041 39.9238 246.36 41.4726 244.679 43.0113C244.465 43.2049 244.23 43.4087 243.975 43.5411C243.507 43.7755 243.069 43.6634 242.722 43.2762C242.376 42.8788 242.488 42.4305 242.804 42.135C244.791 40.3008 246.788 38.4973 248.815 36.7039C249.152 36.4084 249.62 36.4492 249.997 36.7243C250.252 36.9077 250.374 37.1726 250.364 37.2949Z" fill="white"/>
<path d="M153.4 46.3024C153.818 46.2616 154.124 46.4756 154.399 46.7609C155.937 48.3301 157.486 49.8993 159.015 51.4685C159.473 51.9372 159.911 52.4772 159.29 53.109C158.658 53.7509 158.118 53.3026 157.66 52.8441C156.101 51.2952 154.572 49.7159 153.033 48.1467C152.677 47.7798 152.351 47.3519 152.585 46.7915C152.728 46.4552 153.013 46.282 153.4 46.3024Z" fill="white"/>
<path d="M141.917 61.6683C143.944 62.1472 146.319 62.6974 148.683 63.2884C149.192 63.4209 149.64 63.7368 149.467 64.3787C149.294 65.0308 148.815 65.2041 148.183 65.0512C145.85 64.5112 143.506 63.9915 141.173 63.4413C140.592 63.3088 140.103 62.9929 140.256 62.3102C140.398 61.6275 140.969 61.5664 141.917 61.6683Z" fill="white"/>
<path d="M256.407 55.0653C256.019 54.9023 255.663 55.0041 255.316 55.1774C253.36 56.176 251.393 57.1643 249.437 58.1731C248.846 58.4788 248.275 58.8456 248.652 59.6404C249.04 60.4556 249.702 60.2008 250.283 59.9053C252.249 58.9271 254.206 57.9286 256.162 56.9198C256.621 56.6854 257.059 56.3899 257.018 55.7786C256.987 55.4117 256.773 55.157 256.407 55.0551V55.0653Z" fill="white"/>
<path d="M262.398 73.2946C260.33 73.1112 257.894 72.8667 255.469 72.6731C254.95 72.6323 254.42 72.7954 254.379 73.4577C254.338 74.1302 254.736 74.4461 255.378 74.5072C257.762 74.7416 260.146 74.9861 262.541 75.2103C263.132 75.2612 263.692 75.1288 263.774 74.4257C263.855 73.7226 263.336 73.4984 262.398 73.2845V73.2946Z" fill="white"/>
<path d="M139.522 90.9022C138.595 90.9022 137.668 90.9022 136.74 90.9022C136.109 90.9022 135.497 90.7901 135.518 89.9749C135.538 89.282 136.058 89.0782 136.659 89.068C138.554 89.0477 140.46 89.0375 142.355 89.0171C142.997 89.0171 143.476 89.2922 143.455 89.9545C143.435 90.6169 142.936 90.8512 142.304 90.841C141.377 90.8308 140.449 90.841 139.522 90.841C139.522 90.8614 139.522 90.8818 139.522 90.9124V90.9022Z" fill="white"/>
<path d="M259.311 102.62C257.416 102.233 255.52 101.856 253.635 101.438C253.156 101.336 252.769 101.01 252.902 100.439C253.024 99.9198 253.421 99.6651 253.941 99.7262C255.989 99.9809 257.986 100.45 259.983 100.959C260.462 101.081 260.666 101.428 260.513 101.927C260.33 102.528 259.871 102.651 259.311 102.61V102.62Z" fill="white"/>
<path d="M185.793 29.5099C185.803 29.836 185.63 30.0703 185.375 30.2436C185.069 30.4474 184.662 30.5187 184.438 30.2639C183.184 28.8476 181.972 27.3701 181.259 25.6073C180.973 24.9042 181.646 24.568 182.359 24.7412C182.797 24.8431 185.783 29.0514 185.803 29.5099H185.793Z" fill="white"/>
<path d="M168.685 41.3603C168.134 41.2788 167.778 40.9833 167.798 40.5349C167.839 39.7707 168.522 39.4752 169.082 39.1186C169.52 38.8333 169.999 38.6499 170.488 38.9657C170.824 39.1899 171.028 39.5771 170.774 39.9338C170.244 40.6674 169.429 41.0138 168.695 41.3603H168.685Z" fill="white"/>
<path d="M232.655 33.3002C232.655 33.6874 232.41 34.1154 231.85 34.0135C230.821 33.8301 230.566 32.913 230.352 32.0775C230.209 31.5374 230.647 31.2521 231.177 31.2216C231.799 31.191 232.645 32.3017 232.655 33.3002Z" fill="white"/>
<path d="M143.465 116.56C143.2 117.263 142.773 117.864 141.937 117.976C141.427 118.047 141.132 117.731 141.152 117.232C141.193 116.397 141.733 115.938 142.477 115.765C143.007 115.642 143.313 116.009 143.465 116.57V116.56Z" fill="white"/>
<path d="M247.746 113.482C247.155 113.391 246.808 113.044 246.849 112.473C246.89 111.882 247.297 111.607 247.898 111.658C248.449 111.709 248.744 112.035 248.724 112.565C248.693 113.146 248.326 113.452 247.746 113.482Z" fill="white"/>
<path d="M215.373 17.2008C214.833 17.1397 214.405 16.8442 214.385 16.2736C214.364 15.7029 214.762 15.3259 215.322 15.3055C215.842 15.2852 216.199 15.6316 216.249 16.1411C216.311 16.7219 215.944 17.0582 215.373 17.2008Z" fill="white"/>
<path d="M144.882 75.6995C144.331 75.6078 143.934 75.3327 143.975 74.7315C144.005 74.222 144.321 73.8858 144.871 73.896C145.493 73.896 145.789 74.2424 145.768 74.8334C145.748 75.3837 145.422 75.6486 144.882 75.6995Z" fill="white"/>
<path d="M240.98 151.968C241.02 152.406 240.817 152.671 240.531 152.875C240.216 153.099 239.849 153.12 239.604 152.855C237.882 151.01 236.119 149.197 234.611 147.169C234.346 146.812 234.55 146.435 234.846 146.16C235.182 145.844 235.569 145.865 235.875 146.16C237.678 147.872 239.298 149.757 240.878 151.673C240.949 151.765 240.959 151.907 240.98 151.968Z" fill="white"/>
<path d="M158.363 152.57C157.558 152.529 157.109 151.734 157.598 151.184C159.188 149.39 160.869 147.668 162.54 145.946C162.877 145.6 163.315 145.661 163.671 146.008C164.018 146.354 164.089 146.843 163.794 147.159C162.163 148.922 160.492 150.644 158.821 152.376C158.689 152.508 158.454 152.539 158.363 152.58V152.57Z" fill="white"/>
<path d="M257.038 89.5264C256.488 89.4347 256.091 89.1596 256.132 88.5584C256.162 88.0489 256.478 87.7127 257.028 87.7229C257.65 87.7229 257.945 88.0693 257.925 88.6603C257.905 89.2106 257.578 89.4755 257.038 89.5264Z" fill="white"/>
</svg>
