<svg viewBox="0 0 273 278" fill="none" xmlns="http://www.w3.org/2000/svg">
    <g clip-path="url(#clip0_380_5312)">
        <path
            d="M266.2 147.177H177.214C174.194 147.177 171.736 149.635 171.736 152.656V174.979H271.678V152.656C271.73 149.635 269.272 147.177 266.2 147.177Z"
            fill="white" />
        <path
            d="M271.678 96.6432C271.678 93.6224 269.221 91.1648 266.2 91.1648H159.909C143.678 91.1648 130.418 104.067 129.906 120.298L129.803 124.291V204.982H155.454C158.475 204.982 160.933 202.525 160.933 199.504V134.07C161.547 125.93 168.101 119.478 176.293 118.966H271.678V96.6432Z"
            fill="white" />
        <path
            d="M217.867 212.918C216.741 211.792 214.846 211.792 213.72 212.918C195.186 231.299 169.637 242.666 141.477 242.666C84.8496 242.666 38.9232 196.739 38.9232 140.112C38.9232 83.4847 84.8496 37.5583 141.477 37.5583C168.971 37.5583 193.906 48.3615 212.338 65.9743C213.515 67.1007 215.307 67.0495 216.434 65.9231L233.176 49.1807C234.354 48.0031 234.302 46.1599 233.176 45.0335C209.88 21.9423 178.034 7.40154 142.808 6.58234C66.6224 4.73914 4.15841 67.8687 6.71841 144.054C9.12481 215.376 67.6976 272.413 139.582 272.413C176.446 272.413 209.829 257.411 233.893 233.142C235.019 231.965 235.019 230.122 233.893 228.995L217.867 212.918Z"
            fill="white" stroke="white" stroke-width="10.24" stroke-miterlimit="10" />
    </g>
    <defs>
        <clipPath id="clip0_380_5312">
            <rect width="271.462" height="277.146" fill="white" transform="translate(0.932861 0.643311)" />
        </clipPath>
    </defs>
</svg>