<svg viewBox="0 0 615 191" fill="none" xmlns="http://www.w3.org/2000/svg">
    <path d="M191 0H0V191H191V0ZM52.388 52.3823H138.616V138.622H52.388V52.3823Z" fill="#FC6D06" />
    <path
        d="M333.563 127.095C324.356 140.18 312.239 146 294.143 146C266.84 146 249.227 125.961 249.227 100.752C249.227 77.319 266.19 55.67 293.826 55.67C320.977 55.67 339.391 75.0588 339.391 102.203C339.391 104.146 339.232 105.113 339.232 107.056H270.075C272.169 119.816 281.867 126.929 294.151 126.929C303.357 126.929 309.503 124.344 315.482 118.523L333.563 127.095ZM317.735 90.0861C314.824 80.0705 305.618 73.9325 294.143 73.9325C283.477 73.9325 275.238 79.2616 271.035 90.0861H317.735Z"
        fill="white" />
    <path
        d="M348.961 143.74V33.7489L370.451 24.7008V67.3033C378.207 59.5478 387.096 55.67 397.437 55.67C419.57 55.67 437.998 74.0913 437.998 100.911C437.998 127.254 418.768 145.992 396.953 145.992C386.129 145.992 378.207 142.115 370.451 134.684L348.961 143.74ZM371.434 100.593C371.434 116.104 381.775 126.286 395.025 126.286C408.435 126.286 418.292 115.462 418.292 100.752C418.292 86.6997 409.244 75.3839 395.025 75.3839C381.291 75.3839 371.434 85.5658 371.434 100.593Z"
        fill="white" />
    <path
        d="M533.37 100.752C533.37 125.636 514.14 146 487.963 146C463.079 146 443.365 126.127 443.365 100.918C443.365 74.9077 464.372 55.6776 487.797 55.6776C512.848 55.6776 533.37 75.3839 533.37 100.752ZM465.022 100.752C465.022 115.295 474.229 125.636 488.122 125.636C501.373 125.636 511.714 115.938 511.714 100.911C511.714 86.3671 502.182 76.0264 488.122 76.0264C474.72 76.034 465.022 86.541 465.022 100.752Z"
        fill="white" />
    <path
        d="M526.832 57.9302H551.882L568.686 81.3631L585.656 57.9302H610.54L581.136 98.4918L614.1 143.74H589.216L568.694 115.628L548.496 143.74H523.778L556.259 98.4918L526.832 57.9302Z"
        fill="white" />
</svg>