<svg viewBox="0 0 572 115" fill="none" xmlns="http://www.w3.org/2000/svg">
    <g clip-path="url(#clip0_380_5222)">
        <path
            d="M56.96 0.800049C25.472 0.800049 0 26.272 0 57.76C0 89.248 25.472 114.72 56.96 114.72C88.448 114.72 113.92 89.248 113.92 57.76C113.92 26.272 88.384 0.800049 56.96 0.800049ZM96.32 82.4H79.168H67.456V51.8721H67.072L55.104 82.08H47.616L35.712 51.68H35.328V82.336H23.616V32.736H38.464L51.072 63.456H51.648L64.256 32.736H79.424V72.6721H100.096L96.32 82.4Z"
            fill="#1A10F9" />
        <path
            d="M154.752 25.5042H171.392L188.928 68.3202H189.696L207.232 25.5042H223.872V89.1842H210.816V47.7122H210.304L193.792 88.8642H184.896L168.32 47.5842H167.808V89.1842H154.752V25.5042Z"
            fill="white" />
        <path
            d="M257.024 90.1441C252.096 90.1441 247.872 89.12 244.352 87.136C240.832 85.152 238.08 82.272 236.16 78.624C234.24 74.976 233.28 70.56 233.28 65.568C233.28 60.64 234.24 56.352 236.16 52.64C238.08 48.928 240.768 46.048 244.224 43.936C247.68 41.888 251.776 40.8 256.448 40.8C259.584 40.8 262.528 41.312 265.28 42.336C268.032 43.36 270.4 44.832 272.448 46.88C274.496 48.864 276.096 51.4241 277.248 54.4321C278.4 57.5041 278.976 61.024 278.976 65.056V68.704H238.656V60.448H266.56C266.56 58.528 266.112 56.864 265.344 55.3921C264.512 53.9201 263.36 52.768 261.888 51.936C260.416 51.104 258.752 50.656 256.768 50.656C254.784 50.656 252.992 51.104 251.456 52.064C249.92 52.96 248.704 54.24 247.808 55.776C246.912 57.312 246.464 59.04 246.464 60.896V68.704C246.464 71.072 246.912 73.12 247.808 74.848C248.704 76.576 249.92 77.92 251.584 78.816C253.248 79.712 255.104 80.224 257.344 80.224C258.816 80.224 260.16 80.032 261.376 79.584C262.592 79.136 263.616 78.56 264.512 77.728C265.408 76.896 266.048 75.872 266.496 74.656L278.784 75.488C278.144 78.432 276.864 80.992 274.944 83.168C273.024 85.344 270.592 87.072 267.52 88.288C264.448 89.504 260.992 90.1441 257.024 90.1441Z"
            fill="white" />
        <path
            d="M312.192 41.3761V51.3601H283.392V41.3761H312.192ZM289.92 29.9841H303.168V74.5281C303.168 75.7441 303.36 76.7041 303.744 77.3441C304.128 78.0481 304.64 78.4961 305.344 78.7521C305.984 79.0081 306.816 79.1361 307.712 79.1361C308.352 79.1361 308.928 79.0721 309.568 78.9441C310.208 78.8161 310.656 78.7521 310.976 78.6881L313.088 88.5441C312.448 88.7361 311.488 88.9921 310.272 89.2481C309.056 89.5041 307.584 89.6961 305.92 89.7601C302.72 89.8881 299.904 89.4401 297.536 88.4801C295.168 87.5201 293.248 85.9841 291.968 83.9361C290.624 81.8881 289.984 79.2641 289.984 76.1281L289.92 29.9841Z"
            fill="white" />
        <path
            d="M334.08 90.0801C331.008 90.0801 328.32 89.5681 325.952 88.4801C323.584 87.3921 321.664 85.8561 320.32 83.7441C318.912 81.6321 318.272 79.0081 318.272 75.8721C318.272 73.2481 318.784 71.0081 319.744 69.2161C320.704 67.4241 322.048 65.9521 323.712 64.8641C325.376 63.7761 327.296 62.9441 329.472 62.3681C331.648 61.7921 333.888 61.4081 336.256 61.1521C339.008 60.8961 341.248 60.5761 342.976 60.3201C344.704 60.0641 345.92 59.6801 346.688 59.1681C347.456 58.6561 347.84 57.8881 347.84 56.8641V56.6721C347.84 54.6881 347.2 53.1521 345.984 52.1281C344.768 51.1041 342.976 50.5281 340.736 50.5281C338.368 50.5281 336.448 51.0401 335.04 52.0641C333.632 53.0881 332.672 54.4321 332.224 55.9681L319.936 54.9441C320.576 52.0641 321.792 49.5041 323.584 47.3921C325.376 45.2801 327.744 43.6161 330.688 42.4641C333.568 41.3121 336.96 40.7361 340.736 40.7361C343.424 40.7361 345.92 41.0561 348.352 41.6961C350.784 42.3361 352.96 43.2961 354.88 44.5761C356.8 45.8561 358.272 47.5841 359.36 49.6321C360.448 51.6801 361.024 54.1121 361.024 56.9281V89.1201H348.48V82.4641H348.096C347.328 83.9361 346.304 85.2801 345.024 86.4321C343.744 87.5841 342.208 88.4161 340.416 89.0561C338.56 89.7601 336.448 90.0801 334.08 90.0801ZM337.856 80.9281C339.776 80.9281 341.504 80.5441 343.04 79.7761C344.576 79.0081 345.728 77.9201 346.56 76.6401C347.392 75.2961 347.84 73.8241 347.84 72.0961V67.0401C347.392 67.2961 346.88 67.5521 346.112 67.7441C345.344 67.9361 344.576 68.1281 343.68 68.3201C342.784 68.5121 341.888 68.6401 340.992 68.7681C340.096 68.8961 339.264 69.0241 338.56 69.1521C337.024 69.4081 335.68 69.7281 334.464 70.2401C333.312 70.7521 332.416 71.3921 331.776 72.2241C331.136 73.0561 330.816 74.0801 330.816 75.3601C330.816 77.1521 331.456 78.5601 332.8 79.4561C334.144 80.3521 335.872 80.9281 337.856 80.9281Z"
            fill="white" />
        <path d="M372.096 89.1842V25.5042H385.536V78.1122H412.864L408.512 89.2481H372.096V89.1842Z" fill="white" />
        <path
            d="M441.216 90.1441C436.288 90.1441 432.064 89.12 428.544 87.136C425.024 85.152 422.272 82.272 420.352 78.624C418.432 74.976 417.472 70.56 417.472 65.568C417.472 60.64 418.432 56.352 420.352 52.64C422.272 48.928 424.96 46.048 428.416 43.936C431.872 41.888 435.968 40.8 440.64 40.8C443.776 40.8 446.72 41.312 449.472 42.336C452.224 43.36 454.592 44.832 456.64 46.88C458.688 48.864 460.288 51.4241 461.44 54.4321C462.592 57.5041 463.168 61.024 463.168 65.056V68.704H422.848V60.448H450.688C450.688 58.528 450.24 56.864 449.472 55.3921C448.64 53.9201 447.488 52.768 446.016 51.936C444.544 51.104 442.88 50.656 440.896 50.656C438.912 50.656 437.12 51.104 435.584 52.064C434.048 52.96 432.832 54.24 431.936 55.776C431.04 57.312 430.592 59.04 430.592 60.896V68.704C430.592 71.072 431.04 73.12 431.936 74.848C432.832 76.576 434.048 77.92 435.712 78.816C437.376 79.712 439.232 80.224 441.472 80.224C442.944 80.224 444.288 80.032 445.504 79.584C446.72 79.2 447.744 78.56 448.64 77.728C449.536 76.896 450.176 75.872 450.624 74.656L462.912 75.488C462.272 78.432 460.992 80.992 459.072 83.168C457.152 85.344 454.72 87.072 451.648 88.288C448.64 89.504 445.12 90.1441 441.216 90.1441Z"
            fill="white" />
        <path
            d="M485.568 61.5363V89.1843H472.32V41.4403H484.928V49.8883H485.504C486.592 47.1363 488.32 44.8963 490.816 43.2963C493.312 41.6963 496.32 40.8643 499.84 40.8643C503.168 40.8643 506.048 41.5683 508.544 43.0403C511.04 44.5123 512.896 46.5603 514.304 49.2483C515.712 51.9363 516.352 55.1363 516.352 58.8483V89.2483H503.104V61.0883C503.104 58.1443 502.4 55.9043 500.864 54.2403C499.328 52.5763 497.28 51.7443 494.592 51.7443C492.8 51.7443 491.264 52.1283 489.856 52.8963C488.448 53.6643 487.424 54.7523 486.656 56.2243C485.952 57.7603 485.568 59.4883 485.568 61.5363Z"
            fill="white" />
        <path
            d="M544.704 89.9522C541.056 89.9522 537.792 88.9922 534.848 87.1362C531.904 85.2802 529.6 82.4642 527.872 78.8162C526.144 75.1682 525.312 70.6882 525.312 65.3122C525.312 59.8082 526.208 55.2642 527.936 51.6162C529.664 47.9682 532.032 45.2802 534.976 43.4242C537.92 41.5682 541.12 40.7362 544.64 40.7362C547.328 40.7362 549.568 41.1842 551.36 42.0802C553.152 42.9762 554.624 44.1282 555.712 45.4082C556.8 46.6882 557.632 48.0322 558.272 49.3122H558.656V25.5042H571.904V89.1842H558.848V81.5042H558.272C557.632 82.8482 556.8 84.1282 555.648 85.4082C554.496 86.6882 553.088 87.7762 551.296 88.6082C549.504 89.4402 547.328 89.9522 544.704 89.9522ZM548.928 79.3922C551.04 79.3922 552.896 78.8162 554.368 77.6002C555.84 76.3842 556.992 74.7842 557.76 72.6722C558.528 70.5602 558.976 68.0642 558.976 65.2482C558.976 62.4322 558.592 59.9362 557.824 57.8242C557.056 55.7122 555.904 54.1122 554.432 52.9602C552.96 51.8082 551.104 51.2322 548.992 51.2322C546.816 51.2322 544.96 51.8082 543.488 53.0242C542.016 54.2402 540.864 55.8402 540.096 57.9522C539.328 60.0642 538.944 62.4962 538.944 65.2482C538.944 68.0002 539.328 70.4962 540.096 72.6082C540.864 74.7202 542.016 76.3842 543.488 77.6002C544.96 78.8162 546.752 79.3922 548.928 79.3922Z"
            fill="white" />
    </g>
    <defs>
        <clipPath id="clip0_380_5222">
            <rect width="571.904" height="113.856" fill="white" transform="translate(0 0.800049)" />
        </clipPath>
    </defs>
</svg>