<svg viewBox="0 0 500 211" fill="none" xmlns="http://www.w3.org/2000/svg">
    <g clip-path="url(#clip0_380_5297)">
        <g clip-path="url(#clip1_380_5297)">
            <path
                d="M0 -0.000488281V157.815H157.815V-0.000488281H0ZM30.4002 152.167H5.64813V127.415H30.4002V152.167ZM30.4002 121.766H5.64813V97.0144H30.4002V121.766ZM30.4002 91.2001H5.64813V66.6142H30.4002V91.2001ZM30.4002 60.7999H5.64813V36.0478H30.4002V60.7999ZM30.4002 30.3997H5.64813V5.64764H30.4002V30.3997ZM60.8004 152.167H36.0483V127.415H60.8004V152.167ZM60.8004 91.2001H36.0483V66.6142H60.8004V91.2001ZM60.8004 30.3997H36.0483V5.64764H60.8004V30.3997ZM91.2006 152.167H66.6146V127.415H91.3667V152.167H91.2006ZM91.2006 121.766H66.6146V97.0144H91.3667V121.766H91.2006ZM91.2006 60.7999H66.6146V36.0478H91.3667V60.7999H91.2006ZM91.2006 30.3997H66.6146V5.64764H91.3667V30.3997H91.2006ZM121.767 152.167H97.0149V127.415H121.767V152.167ZM121.767 91.2001H97.0149V66.6142H121.767V91.2001ZM121.767 30.3997H97.0149V5.64764H121.767V30.3997ZM152.167 152.167H127.415V127.415H152.167V152.167ZM152.167 121.766H127.415V97.0144H152.167V121.766ZM152.167 91.2001H127.415V66.6142H152.167V91.2001ZM152.167 60.7999H127.415V36.0478H152.167V60.7999ZM152.167 30.3997H127.415V5.64764H152.167V30.3997Z"
                fill="#C5C5C5" />
        </g>
        <g clip-path="url(#clip2_380_5297)">
            <path
                d="M85.5 210.137H80.5164L80.4758 191.337L71.1569 206.895H68.8069L59.4879 191.58V210.137H54.4638V181.775H58.7991L70.0629 200.575L81.1241 181.775H85.4595L85.5 210.137ZM96.7233 210.137V188.501H101.788V210.137H96.7233ZM99.2758 184.935C98.3574 184.935 97.5876 184.645 96.9664 184.064C96.3451 183.483 96.0345 182.761 96.0345 181.896C96.0345 181.032 96.3451 180.309 96.9664 179.729C97.5876 179.148 98.3574 178.857 99.2758 178.857C100.194 178.857 100.964 179.134 101.585 179.688C102.207 180.242 102.517 180.937 102.517 181.775C102.517 182.666 102.213 183.416 101.606 184.023C100.998 184.631 100.221 184.935 99.2758 184.935ZM112.484 210.137V180.073H117.549V210.137H112.484ZM128.246 210.137V180.073H133.31V210.137H128.246ZM144.007 210.137V188.501H149.072V210.137H144.007ZM146.559 184.935C145.641 184.935 144.871 184.645 144.25 184.064C143.629 183.483 143.318 182.761 143.318 181.896C143.318 181.032 143.629 180.309 144.25 179.729C144.871 179.148 145.641 178.857 146.559 178.857C147.478 178.857 148.248 179.134 148.869 179.688C149.49 180.242 149.801 180.937 149.801 181.775C149.801 182.666 149.497 183.416 148.889 184.023C148.281 184.631 147.505 184.935 146.559 184.935ZM169.492 210.42C167.304 210.42 165.332 209.948 163.577 209.002C161.821 208.057 160.45 206.74 159.464 205.052C158.478 203.364 157.985 201.453 157.985 199.319C157.985 197.185 158.478 195.28 159.464 193.606C160.45 191.931 161.821 190.621 163.577 189.676C165.332 188.73 167.304 188.257 169.492 188.257C171.707 188.257 173.692 188.73 175.448 189.676C177.204 190.621 178.575 191.931 179.561 193.606C180.547 195.28 181.04 197.185 181.04 199.319C181.04 201.453 180.547 203.364 179.561 205.052C178.575 206.74 177.204 208.057 175.448 209.002C173.692 209.948 171.707 210.42 169.492 210.42ZM169.492 206.085C171.356 206.085 172.896 205.464 174.111 204.221C175.327 202.979 175.934 201.345 175.934 199.319C175.934 197.293 175.327 195.659 174.111 194.416C172.896 193.174 171.356 192.552 169.492 192.552C167.628 192.552 166.096 193.174 164.893 194.416C163.691 195.659 163.09 197.293 163.09 199.319C163.09 201.345 163.691 202.979 164.893 204.221C166.096 205.464 167.628 206.085 169.492 206.085ZM202.23 188.257C204.958 188.257 207.146 189.054 208.794 190.648C210.442 192.242 211.265 194.605 211.265 197.739V210.137H206.201V198.387C206.201 196.496 205.755 195.071 204.864 194.112C203.972 193.153 202.703 192.674 201.055 192.674C199.191 192.674 197.719 193.234 196.639 194.355C195.558 195.476 195.018 197.09 195.018 199.197V210.137H189.953V188.501H194.775V191.296C195.612 190.297 196.666 189.54 197.935 189.027C199.205 188.514 200.636 188.257 202.23 188.257ZM249.149 181.775C251.607 181.775 253.748 182.18 255.571 182.99C257.394 183.801 258.792 184.962 259.765 186.475C260.737 187.987 261.223 189.784 261.223 191.863C261.223 193.916 260.737 195.706 259.765 197.232C258.792 198.758 257.394 199.926 255.571 200.737C253.748 201.547 251.607 201.952 249.149 201.952H242.747V210.137H237.48V181.775H249.149ZM248.906 197.495C251.202 197.495 252.944 197.009 254.133 196.037C255.321 195.064 255.915 193.673 255.915 191.863C255.915 190.054 255.321 188.663 254.133 187.69C252.944 186.718 251.202 186.232 248.906 186.232H242.747V197.495H248.906ZM269.853 210.137V188.501H274.918V210.137H269.853ZM272.406 184.935C271.488 184.935 270.718 184.645 270.096 184.064C269.475 183.483 269.165 182.761 269.165 181.896C269.165 181.032 269.475 180.309 270.096 179.729C270.718 179.148 271.488 178.857 272.406 178.857C273.324 178.857 274.094 179.134 274.715 179.688C275.337 180.242 275.647 180.937 275.647 181.775C275.647 182.666 275.343 183.416 274.736 184.023C274.128 184.631 273.351 184.935 272.406 184.935ZM305.103 210.137H299.39L293.84 202.641L288.248 210.137H282.657L291.084 199.157L283.021 188.501H288.653L293.961 195.591L299.269 188.501H304.739L296.635 199.076L305.103 210.137ZM332.493 199.44C332.493 199.791 332.466 200.291 332.412 200.939H315.435C315.732 202.533 316.509 203.796 317.765 204.728C319.021 205.66 320.581 206.126 322.445 206.126C324.822 206.126 326.78 205.342 328.32 203.776L331.034 206.895C330.062 208.057 328.833 208.935 327.347 209.529C325.862 210.123 324.187 210.42 322.323 210.42C319.946 210.42 317.853 209.948 316.043 209.002C314.233 208.057 312.835 206.74 311.849 205.052C310.864 203.364 310.371 201.453 310.371 199.319C310.371 197.212 310.85 195.314 311.809 193.626C312.768 191.938 314.098 190.621 315.8 189.676C317.502 188.73 319.419 188.257 321.553 188.257C323.66 188.257 325.544 188.723 327.206 189.655C328.867 190.587 330.163 191.897 331.095 193.585C332.027 195.274 332.493 197.225 332.493 199.44ZM321.553 192.309C319.933 192.309 318.562 192.789 317.441 193.748C316.32 194.706 315.638 195.983 315.395 197.576H327.671C327.455 196.01 326.794 194.74 325.686 193.768C324.579 192.795 323.201 192.309 321.553 192.309ZM341.407 210.137V180.073H346.471V210.137H341.407ZM372.889 210.137V181.775H385.287C388.312 181.775 391 182.362 393.35 183.537C395.7 184.712 397.523 186.373 398.82 188.521C400.116 190.668 400.765 193.147 400.765 195.956C400.765 198.765 400.116 201.243 398.82 203.391C397.523 205.538 395.7 207.199 393.35 208.374C391 209.549 388.312 210.137 385.287 210.137H372.889ZM378.156 205.68H385.044C387.124 205.68 388.954 205.281 390.534 204.485C392.114 203.688 393.33 202.553 394.181 201.081C395.031 199.609 395.457 197.901 395.457 195.956C395.457 194.011 395.031 192.302 394.181 190.83C393.33 189.358 392.114 188.224 390.534 187.427C388.954 186.63 387.124 186.232 385.044 186.232H378.156V205.68ZM431.112 186.191H415.675V194.821H429.37V199.278H415.675V210.137H410.408V181.775H431.112V186.191ZM440.269 210.137V181.775H445.536V210.137H440.269Z"
                fill="#C5C5C5" />
        </g>
        <g clip-path="url(#clip3_380_5297)">
            <path
                d="M184.118 157.815V-0.000488281H223.604L241.208 112.95H241.711L259.316 -0.000488281H298.802V157.815H272.646V38.3261H272.143L252.023 157.815H228.885L208.765 38.3261H208.262V157.815H184.118ZM319.424 157.815V-0.000488281H360.167C373.916 -0.000488281 384.227 3.30612 391.102 9.91933C397.976 16.5325 401.413 26.2269 401.413 39.0024V54.5585C401.413 67.334 397.976 77.0284 391.102 83.6416C384.227 90.2548 373.916 93.5614 360.167 93.5614H347.089V157.815H319.424ZM347.089 71.0164H360.167C364.694 71.0164 368.089 69.8891 370.353 67.6346C372.616 65.3801 373.748 61.5475 373.748 56.1367V37.4243C373.748 32.0135 372.616 28.1808 370.353 25.9263C368.089 23.6718 364.694 22.5445 360.167 22.5445H347.089V71.0164ZM416.503 157.815V-0.000488281H458.755C472.503 -0.000488281 482.815 3.30612 489.689 9.91933C496.563 16.5325 500 26.2269 500 39.0024V118.812C500 131.587 496.563 141.282 489.689 147.895C482.815 154.508 472.503 157.815 458.755 157.815H416.503ZM444.168 135.27H458.252C462.779 135.27 466.258 134.067 468.689 131.663C471.12 129.258 472.336 125.35 472.336 119.939V37.8752C472.336 32.4644 471.12 28.5566 468.689 26.1518C466.258 23.7469 462.779 22.5445 458.252 22.5445H444.168V135.27Z"
                fill="#FF4081" />
        </g>
    </g>
    <defs>
        <clipPath id="clip0_380_5297">
            <rect width="500" height="210.42" fill="white" />
        </clipPath>
        <clipPath id="clip1_380_5297">
            <rect width="157.815" height="157.815" fill="white" />
        </clipPath>
        <clipPath id="clip2_380_5297">
            <rect width="391.072" height="31.563" fill="white" transform="translate(54.4637 178.857)" />
        </clipPath>
        <clipPath id="clip3_380_5297">
            <rect width="315.882" height="157.815" fill="white" transform="translate(184.118)" />
        </clipPath>
    </defs>
</svg>