<svg viewBox="0 0 307 307" fill="none" xmlns="http://www.w3.org/2000/svg">
    <g clip-path="url(#clip0_380_5233)">
        <path
            d="M55.9987 133.324C52.1626 131.204 49.1674 128.255 47.0074 124.488C44.8474 120.721 43.7702 116.447 43.7702 111.66C43.7702 106.874 44.8474 102.6 47.0074 98.8326C49.1674 95.0656 52.1626 92.1222 55.9987 89.9968C59.8349 87.8771 64.1664 86.8115 68.9933 86.8115C73.8202 86.8115 78.1402 87.8714 81.9418 89.9968C85.7491 92.1222 88.727 95.0656 90.887 98.8326C93.047 102.6 94.1242 106.874 94.1242 111.66C94.1242 116.447 93.047 120.721 90.887 124.488C88.727 128.255 85.7434 131.198 81.9418 133.324C78.1344 135.449 73.8202 136.509 68.9933 136.509C64.1664 136.509 59.8349 135.449 55.9987 133.324ZM77.3856 121.395C79.5686 118.975 80.663 115.732 80.663 111.666C80.663 107.599 79.5686 104.356 77.3856 101.937C75.1968 99.5181 72.4032 98.3027 68.9933 98.3027C65.5834 98.3027 62.7725 99.5123 60.5606 101.937C58.3488 104.362 57.2371 107.605 57.2371 111.666C57.2371 115.727 58.343 118.975 60.5606 121.395C62.7782 123.814 65.5891 125.029 68.9933 125.029C72.3974 125.029 75.1968 123.82 77.3856 121.395Z"
            fill="white" />
        <path
            d="M139.859 89.9163C143.349 91.9783 146.091 94.8814 148.078 98.6139C150.065 102.352 151.062 106.701 151.062 111.666C151.062 116.631 150.065 120.98 148.078 124.718C146.091 128.456 143.349 131.354 139.859 133.416C136.368 135.478 132.486 136.509 128.229 136.509C122.377 136.509 117.775 134.568 114.428 130.68V153.19H101.134V87.5374H113.829V93.0958C117.124 88.914 121.922 86.8174 128.229 86.8174C132.492 86.8174 136.368 87.8484 139.859 89.9105V89.9163ZM134.317 121.395C136.506 118.975 137.601 115.733 137.601 111.666C137.601 107.599 136.506 104.357 134.317 101.937C132.129 99.5182 129.335 98.3028 125.925 98.3028C122.515 98.3028 119.716 99.5124 117.533 101.937C115.344 104.357 114.25 107.605 114.25 111.666C114.25 115.727 115.344 118.975 117.533 121.395C119.716 123.814 122.515 125.029 125.925 125.029C129.335 125.029 132.129 123.82 134.317 121.395Z"
            fill="white" />
        <path
            d="M203.224 115.612H168.543C169.165 118.601 170.646 120.963 172.973 122.696C175.3 124.43 178.197 125.3 181.665 125.3C184.049 125.3 186.163 124.925 188.012 124.177C189.855 123.428 191.578 122.247 193.167 120.634L200.241 128.704C195.921 133.905 189.619 136.509 181.325 136.509C176.158 136.509 171.585 135.449 167.605 133.324C163.63 131.204 160.56 128.255 158.4 124.488C156.24 120.721 155.163 116.447 155.163 111.66C155.163 106.874 156.228 102.675 158.36 98.8787C160.491 95.0829 163.417 92.1222 167.138 89.9968C170.859 87.8771 175.018 86.8115 179.62 86.8115C184.222 86.8115 188.168 87.831 191.802 89.8586C195.437 91.8918 198.294 94.8064 200.367 98.6022C202.441 102.398 203.478 106.81 203.478 111.833C203.478 112.012 203.391 113.267 203.224 115.6V115.612ZM172.126 100.094C170.081 101.885 168.831 104.339 168.376 107.45H190.956C190.5 104.403 189.251 101.966 187.206 100.14C185.161 98.3142 182.661 97.4042 179.706 97.4042C176.751 97.4042 174.171 98.3027 172.12 100.094H172.126Z"
            fill="white" />
        <path
            d="M251.977 92.2027C255.468 95.7912 257.219 101.113 257.219 108.169V135.794H243.925V110.324C243.925 106.499 243.13 103.642 241.54 101.759C239.95 99.875 237.646 98.9361 234.639 98.9361C231.287 98.9361 228.62 100.031 226.633 102.208C224.646 104.391 223.649 107.634 223.649 111.936V135.794H210.355V87.5428H223.05V93.1934C224.813 91.1601 226.996 89.5934 229.611 88.4875C232.226 87.3816 235.094 86.8286 238.216 86.8286C243.896 86.8286 248.481 88.62 251.977 92.2085V92.2027Z"
            fill="white" />
        <path
            d="M93.8765 152.643V219.194H81.1814V213.635C77.8867 217.823 73.1174 219.914 66.8678 219.914C62.5478 219.914 58.6483 218.9 55.152 216.867C51.6614 214.833 48.9197 211.936 46.9325 208.169C44.9453 204.402 43.9488 200.036 43.9488 195.077C43.9488 190.117 44.9395 185.751 46.9325 181.984C48.9197 178.217 51.6614 175.32 55.152 173.286C58.6426 171.253 62.5478 170.239 66.8678 170.239C72.72 170.239 77.2934 172.181 80.5882 176.069V152.66H93.8822L93.8765 152.643ZM77.5181 204.794C79.7357 202.374 80.8416 199.132 80.8416 195.065C80.8416 190.998 79.7357 187.756 77.5181 185.336C75.3005 182.917 72.5184 181.702 69.1661 181.702C65.8138 181.702 62.9453 182.911 60.7334 185.336C58.5158 187.756 57.4099 191.004 57.4099 195.065C57.4099 199.126 58.5158 202.374 60.7334 204.794C62.951 207.213 65.7619 208.428 69.1661 208.428C72.5702 208.428 75.3005 207.219 77.5181 204.794Z"
            fill="white" />
        <path
            d="M139.064 175.556C142.871 179.116 144.772 184.478 144.772 191.655V219.188H132.33V213.18C129.83 217.667 125.171 219.908 118.356 219.908C114.831 219.908 111.779 219.28 109.198 218.024C106.612 216.769 104.642 215.035 103.277 212.823C101.912 210.611 101.232 208.1 101.232 205.289C101.232 200.802 102.839 197.277 106.047 194.708C109.256 192.139 114.209 190.849 120.914 190.849H131.478C131.478 187.802 130.596 185.452 128.834 183.81C127.071 182.168 124.433 181.345 120.908 181.345C118.466 181.345 116.064 181.748 113.708 182.554C111.352 183.361 109.348 184.455 107.7 185.826L102.931 176.051C105.431 174.197 108.426 172.762 111.923 171.749C115.413 170.735 119.007 170.222 122.7 170.222C129.802 170.222 135.251 172.002 139.058 175.556H139.064ZM127.734 208.831C129.496 207.726 130.746 206.095 131.484 203.941V199.011H122.365C116.911 199.011 114.186 200.894 114.186 204.661C114.186 206.453 114.854 207.875 116.191 208.924C117.527 209.972 119.359 210.49 121.686 210.49C124.013 210.49 125.971 209.937 127.734 208.831Z"
            fill="white" />
        <path
            d="M193.311 173.315C196.802 175.377 199.544 178.28 201.531 182.013C203.518 185.751 204.515 190.1 204.515 195.065C204.515 200.03 203.518 204.379 201.531 208.117C199.544 211.855 196.802 214.753 193.311 216.815C189.821 218.877 185.939 219.908 181.682 219.908C175.83 219.908 171.228 217.967 167.881 214.079V236.589H154.587V170.936H167.282V176.495C170.577 172.313 175.375 170.216 181.682 170.216C185.944 170.216 189.821 171.247 193.311 173.309V173.315ZM187.77 204.794C189.959 202.374 191.053 199.131 191.053 195.065C191.053 190.998 189.959 187.756 187.77 185.336C185.581 182.917 182.788 181.702 179.378 181.702C175.968 181.702 173.169 182.911 170.986 185.336C168.797 187.756 167.702 191.004 167.702 195.065C167.702 199.126 168.797 202.374 170.986 204.794C173.169 207.213 175.968 208.428 179.378 208.428C182.788 208.428 185.581 207.219 187.77 204.794Z"
            fill="white" />
        <path
            d="M250.462 173.315C253.953 175.377 256.694 178.28 258.682 182.013C260.669 185.751 261.665 190.1 261.665 195.065C261.665 200.03 260.669 204.379 258.682 208.117C256.694 211.855 253.953 214.753 250.462 216.815C246.972 218.877 243.089 219.908 238.833 219.908C232.98 219.908 228.378 217.967 225.032 214.079V236.589H211.738V170.936H224.433V176.495C227.727 172.313 232.525 170.216 238.833 170.216C243.095 170.216 246.972 171.247 250.462 173.309V173.315ZM244.921 204.794C247.11 202.374 248.204 199.131 248.204 195.065C248.204 190.998 247.11 187.756 244.921 185.336C242.732 182.917 239.939 181.702 236.529 181.702C233.119 181.702 230.319 182.911 228.136 185.336C225.948 187.756 224.853 191.004 224.853 195.065C224.853 199.126 225.948 202.374 228.136 204.794C230.319 207.213 233.119 208.428 236.529 208.428C239.939 208.428 242.732 207.219 244.921 204.794Z"
            fill="white" />
        <path
            d="M273.508 218.427C269.873 217.443 266.976 216.198 264.816 214.707L269.245 204.661C271.29 206.038 273.761 207.161 276.659 208.025C279.556 208.895 282.396 209.327 285.178 209.327C290.799 209.327 293.61 207.864 293.61 204.932C293.61 203.555 292.844 202.57 291.312 201.971C289.78 201.372 287.418 200.865 284.239 200.445C280.489 199.846 277.396 199.16 274.954 198.383C272.511 197.605 270.397 196.228 268.606 194.259C266.815 192.289 265.922 189.478 265.922 185.826C265.922 182.779 266.757 180.072 268.433 177.71C270.109 175.348 272.552 173.511 275.76 172.192C278.968 170.879 282.758 170.216 287.136 170.216C290.373 170.216 293.599 170.591 296.807 171.339C300.015 172.088 302.671 173.119 304.773 174.433L300.344 184.386C296.312 181.996 291.911 180.797 287.136 180.797C284.296 180.797 282.165 181.218 280.748 182.053C279.325 182.888 278.617 183.965 278.617 185.284C278.617 186.782 279.383 187.825 280.915 188.424C282.447 189.023 284.89 189.587 288.242 190.129C291.992 190.785 295.056 191.488 297.446 192.237C299.831 192.986 301.905 194.345 303.667 196.315C305.43 198.291 306.311 201.038 306.311 204.569C306.311 207.558 305.459 210.22 303.754 212.552C302.049 214.885 299.566 216.694 296.3 217.978C293.034 219.263 289.158 219.908 284.671 219.908C280.863 219.908 277.142 219.412 273.508 218.427Z"
            fill="white" />
        <path
            d="M200.655 306.711H105.65C95.3741 306.711 85.7088 302.708 78.4454 295.439L11.2666 228.26C3.99744 220.991 0 211.331 0 201.055V106.05C0 95.774 4.0032 86.1087 11.2666 78.8454L78.4454 11.6665C85.7146 4.4031 95.3741 0.399902 105.656 0.399902H200.661C210.937 0.399902 220.602 4.4031 227.866 11.6665L295.044 78.8454C302.314 86.1145 306.317 95.774 306.317 106.05V151.145H297.677V106.05C297.677 98.078 294.572 90.59 288.939 84.9509L221.76 17.7721C216.127 12.1388 208.633 9.03414 200.661 9.03414H105.656C97.6838 9.03414 90.1958 12.1388 84.5568 17.7721L17.3779 84.9567C11.7446 90.59 8.64 98.0837 8.64 106.056V201.061C8.64 209.033 11.7446 216.521 17.3779 222.16L84.5568 289.339C90.1901 294.972 97.6838 298.077 105.656 298.077H200.661C208.633 298.077 216.121 294.972 221.76 289.339L273.387 237.712L279.498 243.823L227.871 295.45C220.602 302.719 210.943 306.722 200.667 306.722L200.655 306.711Z"
            fill="#0071BC" />
    </g>
    <defs>
        <clipPath id="clip0_380_5233">
            <rect width="306.311" height="306.311" fill="white" transform="translate(0 0.399902)" />
        </clipPath>
    </defs>
</svg>