<svg viewBox="0 0 500 500" fill="none" xmlns="http://www.w3.org/2000/svg">
    <rect width="500" height="500" fill="#120B8F" />
    <path
        d="M397.073 259.202H295.697C292.255 259.202 289.455 262.002 289.455 265.443V290.875H403.314V265.443C403.372 262.002 400.572 259.202 397.073 259.202Z"
        fill="white" />
    <path
        d="M403.314 201.631C403.314 198.19 400.514 195.39 397.073 195.39H275.981C257.491 195.39 242.384 210.089 241.8 228.579L241.684 233.129V325.056H270.907C274.348 325.056 277.148 322.256 277.148 318.815V244.27C277.848 234.996 285.314 227.646 294.647 227.063H403.314V201.631Z"
        fill="white" />
    <path
        d="M342.01 334.097C340.727 332.814 338.569 332.814 337.285 334.097C316.17 355.037 287.064 367.986 254.983 367.986C190.471 367.986 138.15 315.665 138.15 251.153C138.15 186.641 190.471 134.32 254.983 134.32C286.306 134.32 314.712 146.627 335.71 166.692C337.052 167.976 339.093 167.917 340.377 166.634L359.45 147.561C360.792 146.219 360.734 144.119 359.45 142.836C332.911 116.529 296.63 99.964 256.499 99.0307C169.706 96.9308 98.5443 168.851 101.461 255.644C104.202 336.897 170.931 401.875 252.825 401.875C294.822 401.875 332.852 384.785 360.267 357.137C361.55 355.795 361.55 353.696 360.267 352.412L342.01 334.097Z"
        fill="white" stroke="white" stroke-width="11.6658" stroke-miterlimit="10" />
</svg>