<svg viewBox="0 0 180 180" fill="none" xmlns="http://www.w3.org/2000/svg">
    <rect width="180" height="180" fill="#0C0821" />
    <path
        d="M124.566 45.7457L123.876 43.6657C123.79 43.4191 123.616 43.2957 123.356 43.2957H122.896C122.663 43.2957 122.5 43.189 122.406 42.9757C122.046 42.1357 121.43 41.579 120.556 41.3057C120.236 41.2124 120 41.019 119.846 40.7257C119.356 39.8157 119.036 39.4057 118.006 39.0057C115.9 38.199 114.09 36.9524 112.576 35.2657C112.463 35.139 112.326 35.1057 112.166 35.1657L111.746 35.3157C111.526 35.389 111.38 35.319 111.306 35.1057C111.24 34.9257 111.113 34.819 110.926 34.7857C110.66 34.739 110.483 34.8424 110.396 35.0957L109.936 36.4857L109.946 31.9957C109.946 31.6041 109.818 31.2233 109.581 30.9111C109.345 30.5989 109.013 30.3723 108.636 30.2657C69.1564 19.1957 31.8164 45.1157 28.8264 86.1557C28.5798 85.889 28.4531 85.509 28.4464 85.0157C28.4464 84.6757 28.2897 84.4524 27.9764 84.3457C26.8264 83.9357 25.8764 83.9657 24.8564 83.2357C23.9231 82.569 22.9264 82.0024 21.8664 81.5357C20.4864 80.929 19.1497 80.239 17.8564 79.4657C17.6897 79.3657 17.5197 79.3624 17.3464 79.4557L17.0564 79.6057C16.8298 79.7324 16.6098 79.7157 16.3964 79.5557L15.5464 78.9057C22.0164 33.5057 66.0364 5.26571 109.866 16.4457C114.336 17.5857 119.026 19.6157 123.486 21.4057C123.79 21.5259 124.05 21.7351 124.234 22.006C124.418 22.277 124.516 22.5974 124.516 22.9257L124.566 45.7457Z"
        fill="#6167F5" />
    <path
        d="M164.876 79.1756L163.866 78.0856C163.706 77.9056 163.6 77.7023 163.546 77.4756C163.493 77.2823 163.473 77.0523 163.486 76.7856C163.491 76.6891 163.472 76.5929 163.431 76.5053C163.391 76.4176 163.329 76.3411 163.253 76.2822C163.176 76.2233 163.087 76.1837 162.992 76.1669C162.896 76.1501 162.799 76.1565 162.706 76.1856C161.346 76.6189 160.313 76.4289 159.606 75.6156C159.373 75.3423 159.096 75.1189 158.776 74.9456C155.73 73.3189 152.65 72.2623 149.536 71.7756C147.01 64.0356 143.04 56.8423 137.626 50.1956C137.286 49.7823 137.096 49.1056 137.056 48.1656C136.823 42.5856 136.74 36.8956 136.806 31.0956C136.806 31.0431 136.817 30.9912 136.841 30.944C136.864 30.8968 136.899 30.8556 136.941 30.8236C136.984 30.7917 137.034 30.7698 137.087 30.7597C137.14 30.7497 137.194 30.7517 137.246 30.7656C137.44 30.8189 137.646 30.9356 137.866 31.1156C153.153 43.5556 162.156 59.5756 164.876 79.1756Z"
        fill="#8357F8" />
    <path
        d="M124.566 45.7457V88.6157C124.566 88.9923 124.417 89.3535 124.151 89.6198C123.884 89.8861 123.523 90.0357 123.146 90.0357L111.066 89.9757C110.904 89.9757 110.743 89.9435 110.593 89.8811C110.444 89.8186 110.307 89.7272 110.193 89.6119C110.079 89.4966 109.988 89.3598 109.927 89.2094C109.866 89.0591 109.835 88.898 109.836 88.7357L109.936 36.4857L110.396 35.0957C110.483 34.8423 110.66 34.739 110.926 34.7857C111.113 34.819 111.24 34.9257 111.306 35.1057C111.38 35.319 111.526 35.389 111.746 35.3157L112.166 35.1657C112.326 35.1057 112.463 35.139 112.576 35.2657C114.09 36.9523 115.9 38.199 118.006 39.0057C119.036 39.4057 119.356 39.8157 119.846 40.7257C120 41.019 120.236 41.2123 120.556 41.3057C121.43 41.579 122.046 42.1357 122.406 42.9757C122.5 43.189 122.663 43.2957 122.896 43.2957H123.356C123.616 43.2957 123.79 43.419 123.876 43.6657L124.566 45.7457Z"
        fill="#8357F8" />
    <path
        d="M96.7364 59.9956H83.9764C83.4683 59.9956 83.0564 60.4075 83.0564 60.9156V117.976C83.0564 118.484 83.4683 118.896 83.9764 118.896H96.7364C97.2445 118.896 97.6564 118.484 97.6564 117.976V60.9156C97.6564 60.4075 97.2445 59.9956 96.7364 59.9956Z"
        fill="#9D4EF7" />
    <path
        d="M164.876 79.1756C167.75 102.962 161.596 123.312 146.416 140.226C123.826 165.396 86.9164 172.306 56.4464 157.446C56.3449 157.398 56.2589 157.322 56.1987 157.226C56.1385 157.131 56.1065 157.019 56.1064 156.906L56.1264 90.2956C56.1264 89.9314 56.2693 89.5819 56.5241 89.3233C56.7789 89.0648 57.1248 88.9183 57.4864 88.9156L69.6264 88.7856C69.7783 88.7843 69.9289 88.8133 70.0696 88.871C70.2102 88.9288 70.3382 89.014 70.446 89.1218C70.5539 89.2297 70.6395 89.358 70.6979 89.4994C70.7563 89.6408 70.7864 89.7925 70.7864 89.9456V147.436C70.7858 147.617 70.8442 147.794 70.9526 147.939C71.061 148.083 71.2134 148.187 71.3864 148.236C81.8064 151.286 93.0164 152.246 103.646 149.846C117.54 146.699 128.956 139.646 137.896 128.686C151.076 112.532 154.956 93.5623 149.536 71.7756C152.65 72.2623 155.73 73.319 158.776 74.9456C159.096 75.119 159.373 75.3423 159.606 75.6156C160.313 76.429 161.346 76.619 162.706 76.1856C162.799 76.1565 162.896 76.1501 162.991 76.167C163.087 76.1838 163.176 76.2233 163.253 76.2822C163.329 76.3411 163.391 76.4177 163.431 76.5053C163.472 76.593 163.491 76.6891 163.486 76.7856C163.473 77.0523 163.493 77.2823 163.546 77.4756C163.6 77.7023 163.706 77.9056 163.866 78.0856L164.876 79.1756Z"
        fill="#C74FF4" />
    <path
        d="M15.5464 78.9056L16.3964 79.5556C16.6098 79.7156 16.8297 79.7323 17.0564 79.6056L17.3464 79.4556C17.5197 79.3623 17.6897 79.3656 17.8564 79.4656C19.1497 80.239 20.4864 80.929 21.8664 81.5356C22.9264 82.0023 23.9231 82.569 24.8564 83.2356C25.8764 83.9656 26.8264 83.9356 27.9764 84.3456C28.2897 84.4523 28.4464 84.6756 28.4464 85.0156C28.4531 85.509 28.5798 85.889 28.8264 86.1556C28.4164 101.926 32.4364 116.156 42.7864 128.246C43.3997 128.959 43.7264 130.186 43.7664 131.926C43.8797 137.332 43.8997 142.362 43.8264 147.016C43.7997 148.569 43.2031 148.832 42.0364 147.806C21.4497 129.519 12.6197 106.552 15.5464 78.9056Z"
        fill="#B64DF4" />
</svg>