<svg viewBox="0 0 425 425" fill="none" xmlns="http://www.w3.org/2000/svg">
    <g clip-path="url(#clip0_234_415)">
        <path
            d="M212.5 425C329.861 425 425 329.861 425 212.5C425 95.1395 329.861 0 212.5 0C95.1395 0 0 95.1395 0 212.5C0 329.861 95.1395 425 212.5 425Z"
            fill="#FF00AF" />
        <path
            d="M167 323L209.5 398L295.5 323H263L280 247.5H327L320 278L395 215.5L347 158L341 186H294L310 114.5H245L229 186H168.5L184.5 114.5H213.5L162 32L84 114.5H119C117.5 122.5 115.5 130 114 138L73 323.5H138L154.5 248H215L198 323.5L167 323Z"
            fill="white" />
    </g>
    <defs>
        <clipPath id="clip0_234_415">
            <rect width="425" height="425" fill="white" />
        </clipPath>
    </defs>
</svg>