<svg viewBox="0 0 425 425" fill="none" xmlns="http://www.w3.org/2000/svg">
    <path
        d="M212.5 425C329.861 425 425 329.861 425 212.5C425 95.1395 329.861 0 212.5 0C95.1395 0 0 95.1395 0 212.5C0 329.861 95.1395 425 212.5 425Z"
        fill="#FF00AF" />
    <path
        d="M216.675 131.98C216.904 131.98 217.132 131.977 217.366 131.977C221.006 131.971 224.365 132.289 227.875 133.31C228.285 133.427 228.695 133.544 229.105 133.661C229.565 133.791 229.565 133.791 230.034 133.927C230.034 134.13 230.034 134.334 230.034 134.543C230.209 134.621 230.385 134.698 230.564 134.778C234.13 136.721 237.686 140.731 238.88 144.614C239.028 145.138 239.173 145.666 239.315 146.193C239.669 147.452 240.076 148.691 240.487 149.934C240.65 150.437 240.817 150.94 240.983 151.446C241.066 151.699 241.15 151.952 241.236 152.211C241.634 153.426 242.023 154.644 242.414 155.86C243.096 157.988 243.796 160.107 244.518 162.223C244.928 163.503 245.246 164.795 245.554 166.103C245.742 166.84 245.968 167.531 246.227 168.24C246.742 169.718 246.995 171.235 247.269 172.771C247.488 173.999 247.741 175.205 248.059 176.414C248.447 177.916 248.765 179.424 249.061 180.945C249.656 183.992 250.31 187.027 250.97 190.062C251.078 190.565 251.186 191.068 251.297 191.57C251.775 193.773 252.253 195.978 252.738 198.177C253.734 202.736 254.631 207.304 255.47 211.893C255.933 214.416 256.448 216.918 257.056 219.41C257.457 221.048 257.778 222.695 258.08 224.354C258.317 225.674 258.586 226.982 258.873 228.29C259.267 230.1 259.6 231.917 259.915 233.743C260.162 235.174 260.433 236.599 260.723 238.024C261.102 239.887 261.442 241.756 261.766 243.628C262.012 245.044 262.284 246.45 262.574 247.857C262.916 249.541 263.206 251.225 263.465 252.925C263.774 254.908 264.104 256.885 264.461 258.859C265.689 265.752 266.519 272.655 267.163 279.626C267.182 279.839 267.203 280.052 267.222 280.271C267.882 287.42 268.409 294.539 268.588 301.716C268.607 302.327 268.607 302.327 268.622 302.947C268.65 304.144 268.668 305.34 268.684 306.537C268.693 306.901 268.702 307.262 268.715 307.638C268.73 310.167 268.483 312.687 266.818 314.708C265.985 315.402 265.177 315.787 264.184 316.222C263.996 316.302 263.807 316.385 263.613 316.469C263.006 316.734 262.395 316.996 261.784 317.255C261.574 317.345 261.368 317.434 261.152 317.527C258.043 318.856 254.928 320.068 251.664 320.966C251.017 321.148 250.372 321.339 249.73 321.533C223.313 329.275 192.309 326.03 167.711 314.097C167.113 313.745 167.113 313.745 166.804 313.128C166.773 312.687 166.761 312.246 166.761 311.802C166.758 311.524 166.755 311.247 166.755 310.96C166.755 310.504 166.755 310.504 166.752 310.038C166.752 309.72 166.752 309.402 166.749 309.075C166.712 296.417 167.335 283.938 168.464 271.335C168.485 271.082 168.51 270.826 168.531 270.564C169.37 261.218 170.246 251.86 171.607 242.573C171.736 241.651 171.869 240.729 171.998 239.804C172.029 239.585 172.063 239.366 172.094 239.137C172.371 237.17 172.618 235.199 172.859 233.225C173.146 230.862 173.479 228.512 173.861 226.162C174.102 224.693 174.315 223.225 174.506 221.748C175.638 213.112 177.174 204.525 178.716 195.953C178.836 195.299 178.953 194.645 179.071 193.988C180.36 186.817 181.671 179.649 183.191 172.521C183.265 172.17 183.339 171.821 183.417 171.46C183.842 169.489 184.308 167.534 184.805 165.581C185.039 164.622 185.23 163.66 185.406 162.688C187.25 153.333 189.971 145.561 196.723 138.553C196.904 138.362 197.086 138.168 197.275 137.967C202.262 133.122 210.053 132.005 216.675 131.98ZM211.836 132.384C211.836 132.486 211.836 132.588 211.836 132.693C212.854 132.693 213.872 132.693 214.92 132.693C214.92 132.591 214.92 132.489 214.92 132.384C213.902 132.384 212.885 132.384 211.836 132.384ZM218.93 132.384C218.93 132.486 218.93 132.588 218.93 132.693C219.948 132.693 220.966 132.693 222.014 132.693C222.014 132.591 222.014 132.489 222.014 132.384C220.996 132.384 219.979 132.384 218.93 132.384ZM209.985 132.693C211.219 133.001 211.219 133.001 211.219 133.001L209.985 132.693ZM222.631 132.693C223.865 133.001 223.865 133.001 223.865 133.001L222.631 132.693ZM187.469 154.9C187.778 155.517 187.778 155.517 187.778 155.517L187.469 154.9ZM185.927 161.377C186.236 161.994 186.236 161.994 186.236 161.994L185.927 161.377ZM185.619 162.611C185.927 163.228 185.927 163.228 185.927 163.228L185.619 162.611ZM184.077 169.705C184.385 170.631 184.385 170.631 184.385 170.631L184.077 169.705ZM183.768 170.939C184.077 171.864 184.077 171.864 184.077 171.864L183.768 170.939ZM182.226 178.65C182.534 179.575 182.534 179.575 182.534 179.575L182.226 178.65ZM181.918 179.884C182.226 180.809 182.226 180.809 182.226 180.809L181.918 179.884ZM180.375 188.211C180.684 189.137 180.684 189.137 180.684 189.137L180.375 188.211ZM178.525 198.39C178.833 199.315 178.833 199.315 178.833 199.315L178.525 198.39ZM176.983 207.335C177.291 208.568 177.291 208.568 177.291 208.568L176.983 207.335ZM176.674 209.185C176.983 210.419 176.983 210.419 176.983 210.419L176.674 209.185ZM175.132 219.055C175.44 220.289 175.44 220.289 175.44 220.289L175.132 219.055ZM174.824 220.906C175.132 222.14 175.132 222.14 175.132 222.14L174.824 220.906ZM173.281 231.701C173.281 232.21 173.281 232.719 173.281 233.243C173.383 233.243 173.485 233.243 173.59 233.243C173.59 232.734 173.59 232.225 173.59 231.701C173.488 231.701 173.386 231.701 173.281 231.701ZM172.973 233.86C173.281 235.094 173.281 235.094 173.281 235.094L172.973 233.86ZM171.431 245.581C171.431 246.191 171.431 246.802 171.431 247.431C171.532 247.431 171.634 247.431 171.739 247.431C171.739 246.821 171.739 246.21 171.739 245.581C171.637 245.581 171.536 245.581 171.431 245.581ZM171.122 248.357C171.122 248.866 171.122 249.374 171.122 249.899C171.224 249.899 171.326 249.899 171.431 249.899C171.431 249.39 171.431 248.881 171.431 248.357C171.329 248.357 171.227 248.357 171.122 248.357ZM169.889 259.46C170.197 260.077 170.197 260.077 170.197 260.077L169.889 259.46ZM169.58 262.236C169.58 262.949 169.58 263.661 169.58 264.395C169.682 264.395 169.784 264.395 169.889 264.395C169.889 263.683 169.889 262.97 169.889 262.236C169.787 262.236 169.685 262.236 169.58 262.236ZM169.272 266.554C169.58 267.171 169.58 267.171 169.58 267.171L169.272 266.554ZM168.038 279.509C168.038 280.527 168.038 281.544 168.038 282.593C168.14 282.593 168.241 282.593 168.346 282.593C168.346 281.575 168.346 280.557 168.346 279.509C168.245 279.509 168.143 279.509 168.038 279.509ZM167.729 283.518C167.729 284.638 167.729 285.758 167.729 286.911C167.831 286.911 167.933 286.911 168.038 286.911C168.038 285.792 168.038 284.672 168.038 283.518C167.936 283.518 167.834 283.518 167.729 283.518ZM167.421 291.538C167.729 292.155 167.729 292.155 167.729 292.155L167.421 291.538ZM167.113 297.09C167.421 298.015 167.421 298.015 167.421 298.015L167.113 297.09Z"
        fill="#FDFDFD" />
    <path
        d="M162.988 122.766C163.275 122.769 163.562 122.772 163.858 122.775C164.737 122.787 165.616 122.803 166.498 122.824C166.751 122.827 167.004 122.834 167.266 122.837C175.452 123 183.354 124.879 189.939 129.918C190.168 130.091 190.399 130.264 190.636 130.443C190.812 130.575 190.991 130.708 191.173 130.844C191.025 132.164 190.245 132.725 189.323 133.62C185.553 137.339 182.629 141.96 180.686 146.882C180.609 147.071 180.535 147.262 180.458 147.456C179.483 149.942 178.715 152.453 178.114 155.053C178.046 155.331 177.981 155.605 177.913 155.892C177.102 159.377 176.347 162.872 175.597 166.373C175.483 166.891 175.483 166.891 175.369 167.424C174.376 172.051 173.401 176.677 172.547 181.332C172.325 182.532 172.093 183.731 171.862 184.931C170.884 190.033 169.94 195.144 169.04 200.261C168.997 200.51 168.953 200.76 168.907 201.016C168.392 203.946 167.914 206.876 167.479 209.822C167.168 211.926 166.841 214.029 166.504 216.13C166.452 216.46 166.4 216.793 166.347 217.135C166.131 218.498 165.912 219.862 165.696 221.222C165.147 224.652 164.611 228.075 164.228 231.527C164.031 233.282 163.759 235.015 163.451 236.752C162.809 240.49 162.254 244.237 161.708 247.991C161.554 249.018 161.394 250.045 161.233 251.072C161.008 252.525 160.823 253.972 160.675 255.431C160.502 257.087 160.305 258.737 160.07 260.384C159.324 265.624 158.766 270.868 158.266 276.136C158.214 276.663 158.214 276.663 158.164 277.197C158.069 278.218 157.97 279.236 157.877 280.254C157.847 280.553 157.819 280.855 157.791 281.163C157.708 282.052 157.631 282.94 157.554 283.828C157.523 284.146 157.495 284.464 157.464 284.794C157.257 287.221 157.199 289.63 157.202 292.067C157.202 292.452 157.202 292.838 157.202 293.236C157.202 294.047 157.202 294.855 157.202 295.663C157.205 296.49 157.205 297.316 157.202 298.14C157.202 299.343 157.202 300.543 157.202 301.742C157.202 302.294 157.202 302.294 157.202 302.856C157.205 304.568 157.261 306.199 157.554 307.886C157.572 308.445 157.578 309.003 157.572 309.561C157.569 309.83 157.566 310.095 157.563 310.372C157.557 310.669 157.557 310.669 157.554 310.971C155.558 311.896 153.485 312.494 151.385 313.13C151.052 313.232 150.719 313.33 150.379 313.435C136.817 317.519 121.167 319.94 108.012 313.219C103.719 310.891 97.905 306.89 95.8662 302.335C95.7644 302.131 95.6596 301.927 95.5578 301.718C95.0458 298.889 95.1969 295.941 95.2494 293.081C95.2524 292.733 95.2524 292.733 95.2555 292.375C95.2956 289.223 95.7398 286.425 96.6805 283.418C97.1462 281.898 97.4578 280.349 97.7816 278.795C98.1703 276.966 98.6206 275.155 99.0647 273.342C99.9191 269.831 100.736 266.318 101.529 262.796C102.71 257.574 103.938 252.362 105.193 247.158C105.582 245.551 105.968 243.947 106.353 242.344C106.504 241.702 106.658 241.061 106.813 240.419C106.89 240.101 106.967 239.784 107.044 239.457C107.278 238.476 107.516 237.495 107.75 236.517C107.908 235.863 108.065 235.209 108.222 234.556C108.299 234.235 108.376 233.914 108.454 233.584C108.814 232.079 109.175 230.574 109.533 229.068C110.341 225.654 111.177 222.246 112.034 218.844C112.201 218.171 112.365 217.502 112.528 216.833C113.102 214.476 113.74 212.151 114.437 209.831C114.909 208.252 115.316 206.664 115.705 205.06C115.955 204.088 116.275 203.147 116.606 202.197C116.88 201.349 117.09 200.492 117.303 199.625C117.623 198.293 118.009 197.013 118.456 195.72C118.731 194.872 118.94 194.015 119.153 193.148C119.474 191.819 119.847 190.532 120.297 189.243C120.538 188.528 120.754 187.812 120.967 187.09C121.445 185.48 121.969 183.886 122.506 182.294C122.697 181.723 122.888 181.153 123.08 180.582C123.172 180.305 123.268 180.027 123.363 179.743C123.592 179.059 123.817 178.371 124.042 177.683C125.825 172.248 127.894 166.909 130.217 161.681C130.747 160.488 131.25 159.288 131.744 158.082C132.576 156.077 133.52 154.14 134.495 152.203C134.76 151.679 134.76 151.679 135.028 151.142C137.863 145.541 141.095 140.393 144.84 135.356C145.157 134.927 145.475 134.496 145.787 134.064C146.65 132.889 147.545 131.852 148.609 130.844C148.846 130.6 149.087 130.356 149.334 130.107C151.403 128.062 153.667 126.387 156.126 124.848C156.335 124.718 156.545 124.586 156.758 124.45C158.917 123.127 160.459 122.729 162.988 122.766ZM170.199 123.441C170.199 123.543 170.199 123.645 170.199 123.75C170.912 123.75 171.624 123.75 172.359 123.75C172.359 123.648 172.359 123.546 172.359 123.441C171.643 123.441 170.93 123.441 170.199 123.441ZM173.284 123.75C174.518 124.058 174.518 124.058 174.518 124.058L173.284 123.75ZM126.401 171.557C126.71 172.174 126.71 172.174 126.71 172.174L126.401 171.557ZM124.859 175.876C125.168 176.492 125.168 176.492 125.168 176.492L124.859 175.876ZM124.551 176.801C124.859 177.418 124.859 177.418 124.859 177.418L124.551 176.801ZM121.158 186.979C121.466 187.596 121.466 187.596 121.466 187.596L121.158 186.979ZM119.616 192.223C119.924 192.84 119.924 192.84 119.924 192.84L119.616 192.223ZM119.307 193.148C119.616 193.765 119.616 193.765 119.616 193.765L119.307 193.148ZM117.765 198.7C118.074 199.317 118.074 199.317 118.074 199.317L117.765 198.7ZM117.457 199.625C117.765 200.242 117.765 200.242 117.765 200.242L117.457 199.625ZM115.915 205.177C116.223 205.794 116.223 205.794 116.223 205.794L115.915 205.177ZM115.606 206.102C115.915 206.719 115.915 206.719 115.915 206.719L115.606 206.102ZM114.064 211.963C114.372 212.888 114.372 212.888 114.372 212.888L114.064 211.963ZM113.756 213.196C114.064 213.813 114.064 213.813 114.064 213.813L113.756 213.196ZM112.213 219.057C112.522 219.982 112.522 219.982 112.522 219.982L112.213 219.057ZM111.905 220.29C112.213 220.907 112.213 220.907 112.213 220.907L111.905 220.29ZM110.363 226.459C110.671 227.384 110.671 227.384 110.671 227.384L110.363 226.459ZM108.821 232.936C109.129 233.553 109.129 233.553 109.129 233.553L108.821 232.936ZM108.512 234.17C108.821 234.787 108.821 234.787 108.821 234.787L108.512 234.17ZM106.97 240.647C107.278 241.573 107.278 241.573 107.278 241.573L106.97 240.647ZM106.662 241.881C106.97 242.806 106.97 242.806 106.97 242.806L106.662 241.881ZM105.119 248.358C105.428 249.283 105.428 249.283 105.428 249.283L105.119 248.358ZM104.811 249.592C105.119 250.517 105.119 250.517 105.119 250.517L104.811 249.592ZM103.269 256.377C103.577 256.994 103.577 256.994 103.577 256.994L103.269 256.377ZM102.96 257.611C103.269 258.228 103.269 258.228 103.269 258.228L102.96 257.611ZM101.418 264.088C101.727 265.014 101.727 265.014 101.727 265.014L101.418 264.088ZM99.8759 270.874C100.184 271.491 100.184 271.491 100.184 271.491L99.8759 270.874ZM99.5675 272.108C99.8759 272.725 99.8759 272.725 99.8759 272.725L99.5675 272.108ZM98.0253 278.585C98.3337 279.51 98.3337 279.51 98.3337 279.51L98.0253 278.585ZM97.7169 279.819C98.0253 280.744 98.0253 280.744 98.0253 280.744L97.7169 279.819ZM96.1747 286.296C96.4831 287.221 96.4831 287.221 96.4831 287.221L96.1747 286.296ZM95.8662 287.53C95.8662 288.242 95.8662 288.955 95.8662 289.689C95.9649 289.689 96.0698 289.689 96.1747 289.689C96.1747 288.976 96.1747 288.264 96.1747 287.53C96.0729 287.53 95.968 287.53 95.8662 287.53ZM95.5578 293.081C95.8662 294.315 95.8662 294.315 95.8662 294.315L95.5578 293.081ZM95.5578 297.4C95.8662 298.633 95.8662 298.633 95.8662 298.633L95.5578 297.4ZM95.8662 300.792C96.1747 301.718 96.1747 301.718 96.1747 301.718L95.8662 300.792Z"
        fill="#FDFDFD" />
    <path
        d="M270.749 128.684C270.749 128.888 270.749 129.091 270.749 129.301C270.974 129.381 271.2 129.461 271.431 129.544C274.339 130.809 276.782 133.616 279.077 135.778C279.382 136.065 279.382 136.065 279.694 136.355C281.282 137.888 282.639 139.606 284.012 141.33C284.194 141.552 284.373 141.774 284.561 142.002C292.611 152.042 298.092 164.207 302.518 176.183C302.605 176.415 302.691 176.646 302.777 176.883C306.192 186.167 309.156 195.639 311.771 205.176C311.845 205.448 311.919 205.719 311.996 205.997C312.447 207.631 312.891 209.266 313.335 210.901C313.551 211.697 313.767 212.492 313.983 213.291C314.322 214.534 314.658 215.78 314.998 217.026C315.133 217.523 315.266 218.016 315.402 218.513C316.574 222.828 317.675 227.159 318.693 231.514C319.266 233.966 319.88 236.409 320.497 238.848C322.095 245.199 323.631 251.553 325.022 257.95C325.747 261.296 326.512 264.63 327.32 267.955C327.511 268.751 327.699 269.547 327.884 270.343C328.439 272.708 329.004 275.068 329.639 277.415C330.429 280.339 331.079 283.272 331.635 286.249C331.814 287.18 331.996 288.109 332.178 289.037C334.349 300.03 334.349 300.03 333.67 302.642C332.831 303.891 331.841 304.61 330.586 305.418C330.302 305.625 330.022 305.831 329.732 306.044C327.301 307.775 324.658 309.122 321.95 310.353C321.672 310.48 321.398 310.606 321.114 310.736C318.862 311.716 316.632 312.37 314.239 312.898C313.736 313.015 313.736 313.015 313.224 313.135C309.122 314.067 305.072 314.113 300.887 314.113C300.02 314.113 299.153 314.119 298.286 314.122C293.043 314.141 288.077 313.607 282.951 312.494C282.362 312.367 282.362 312.367 281.757 312.241C278.935 311.642 278.935 311.642 277.843 311.278C277.846 311.093 277.846 310.911 277.849 310.72C278.013 298.629 278.013 298.629 277.032 286.594C276.89 285.453 276.792 284.315 276.696 283.171C276.406 279.735 275.9 276.339 275.379 272.931C275.089 271.046 274.833 269.158 274.586 267.268C274.275 264.927 273.883 262.613 273.426 260.294C273.22 259.177 273.066 258.064 272.927 256.935C272.618 254.48 272.146 252.065 271.675 249.637C271.415 248.308 271.172 246.976 270.94 245.64C270.521 243.219 270.074 240.801 269.62 238.386C269.54 237.945 269.457 237.503 269.374 237.062C268.846 234.2 268.846 234.2 268.242 231.356C268.026 230.388 267.853 229.444 267.723 228.463C267.002 223.639 265.947 218.852 264.824 214.109C264.402 212.301 264.047 210.484 263.711 208.662C263.279 206.336 262.804 204.023 262.326 201.706C262.28 201.481 262.233 201.256 262.184 201.025C261.259 196.543 260.302 192.068 259.337 187.595C257.431 178.771 257.431 178.771 256.623 174.653C256.419 173.614 256.203 172.584 255.944 171.557C255.654 170.298 255.377 169.04 255.096 167.778C255.013 167.405 254.93 167.032 254.843 166.646C254.325 164.302 253.825 161.955 253.341 159.605C252.727 156.616 252.067 153.636 251.395 150.66C251.349 150.45 251.299 150.237 251.25 150.022C250.593 146.872 250.593 146.872 249.621 143.816C249.267 142.891 249.004 142.005 248.85 141.021C248.647 141.021 248.443 141.021 248.233 141.021C247.308 139.248 247.308 139.248 247.308 138.554C247.104 138.554 246.901 138.554 246.691 138.554C246.324 138.122 246.324 138.122 245.902 137.511C244.113 135.05 242.012 132.894 239.767 130.846C239.289 130.226 239.289 130.226 239.276 129.594C240.553 127.191 244.878 125.8 247.308 124.983C254.658 123.709 264.423 124.461 270.749 128.684ZM258.72 125.291C259.954 125.6 259.954 125.6 259.954 125.6L258.72 125.291ZM251.935 151.2C252.243 151.817 252.243 151.817 252.243 151.817L251.935 151.2ZM252.243 152.434C252.551 153.359 252.551 153.359 252.551 153.359L252.243 152.434ZM253.785 159.836C254.094 160.453 254.094 160.453 254.094 160.453L253.785 159.836ZM254.094 161.07C254.402 161.995 254.402 161.995 254.402 161.995L254.094 161.07ZM255.636 168.164C255.944 169.089 255.944 169.089 255.944 169.089L255.636 168.164ZM255.944 169.706C256.253 170.323 256.253 170.323 256.253 170.323L255.944 169.706ZM257.486 176.8C257.795 177.725 257.795 177.725 257.795 177.725L257.486 176.8ZM259.337 185.436C259.646 186.362 259.646 186.362 259.646 186.362L259.337 185.436ZM260.879 192.839C261.188 193.764 261.188 193.764 261.188 193.764L260.879 192.839ZM261.188 194.073C261.496 194.998 261.496 194.998 261.496 194.998L261.188 194.073ZM262.73 201.783C263.038 202.4 263.038 202.4 263.038 202.4L262.73 201.783ZM263.038 203.017C263.347 203.942 263.347 203.942 263.347 203.942L263.038 203.017ZM264.581 210.728C264.889 211.653 264.889 211.653 264.889 211.653L264.581 210.728ZM264.889 211.962C265.197 212.887 265.197 212.887 265.197 212.887L264.889 211.962ZM266.431 219.673C266.74 220.598 266.74 220.598 266.74 220.598L266.431 219.673ZM266.74 221.215C267.048 222.14 267.048 222.14 267.048 222.14L266.74 221.215ZM268.282 228.926C268.59 230.16 268.59 230.16 268.59 230.16L268.282 228.926ZM269.824 237.254C270.132 237.871 270.132 237.871 270.132 237.871L269.824 237.254ZM270.132 238.487C270.441 239.721 270.441 239.721 270.441 239.721L270.132 238.487ZM271.675 247.124C271.983 248.049 271.983 248.049 271.983 248.049L271.675 247.124ZM271.983 248.666C272.291 249.9 272.291 249.9 272.291 249.9L271.983 248.666ZM273.525 257.919C273.834 259.153 273.834 259.153 273.834 259.153L273.525 257.919ZM273.834 259.461C274.142 260.695 274.142 260.695 274.142 260.695L273.834 259.461ZM275.376 269.331C275.376 269.84 275.376 270.349 275.376 270.873C275.478 270.873 275.579 270.873 275.684 270.873C275.684 270.364 275.684 269.855 275.684 269.331C275.582 269.331 275.481 269.331 275.376 269.331ZM275.684 271.49C275.993 272.724 275.993 272.724 275.993 272.724L275.684 271.49ZM277.226 283.519C277.226 284.232 277.226 284.944 277.226 285.678C277.328 285.678 277.43 285.678 277.535 285.678C277.535 284.966 277.535 284.253 277.535 283.519C277.433 283.519 277.331 283.519 277.226 283.519ZM277.535 287.529C277.843 288.146 277.843 288.146 277.843 288.146L277.535 287.529ZM278.152 294.314C278.46 294.931 278.46 294.931 278.46 294.931L278.152 294.314Z"
        fill="#FDFDFD" />
    <path
        d="M151.075 114.496C151.075 114.699 151.075 114.903 151.075 115.113C151.381 115.215 151.686 115.316 152 115.421C151.64 116.507 151.424 116.596 150.477 117.176C148.833 118.228 147.337 119.422 145.832 120.665C145.634 120.825 145.437 120.982 145.233 121.146C143.83 122.299 142.67 123.589 141.514 124.983C141.369 125.152 141.227 125.325 141.076 125.501C137.732 129.48 134.901 133.65 132.264 138.122C131.764 138.967 131.255 139.8 130.737 140.636C128.584 144.238 126.73 148.017 124.917 151.798C124.778 152.082 124.642 152.366 124.5 152.659C123.523 154.716 122.631 156.801 121.774 158.911C121.632 159.262 121.487 159.614 121.342 159.975C118.825 166.193 116.413 172.42 114.322 178.796C113.841 180.261 113.344 181.72 112.814 183.166C112.265 184.656 111.774 186.155 111.305 187.672C110.762 189.415 110.204 191.152 109.609 192.876C108.486 196.216 107.592 199.621 106.66 203.017C106.392 203.995 106.121 204.97 105.852 205.947C105.76 206.277 105.76 206.277 105.667 206.617C105.3 207.937 104.918 209.254 104.526 210.568C103.792 213.02 103.138 215.487 102.53 217.976C102.225 219.232 101.91 220.481 101.596 221.733C101.411 222.473 101.226 223.211 101.044 223.948C100.562 225.866 100.081 227.782 99.5971 229.697C99.5015 230.076 99.4058 230.453 99.3071 230.844C99.1282 231.557 98.9463 232.269 98.7643 232.982C98.2245 235.119 97.768 237.263 97.3455 239.428C96.9569 241.381 96.4973 243.318 96.0439 245.258C95.0106 249.715 94.0236 254.175 93.2032 258.678C92.6634 261.626 92.0527 264.55 91.3988 267.474C91.2384 268.199 91.0781 268.921 90.9177 269.646C90.418 271.894 89.8967 274.127 89.2706 276.345C89.0146 277.276 88.811 278.217 88.6167 279.164C88.3299 280.552 88.0153 281.931 87.6729 283.306C86.6705 287.68 86.5255 292.026 86.5749 296.492C86.578 297.004 86.578 297.516 86.581 298.025C86.5872 299.256 86.5996 300.486 86.6119 301.717C81.2574 301.112 81.2574 301.112 78.9781 300.425C78.7529 300.36 78.5247 300.295 78.2934 300.227C77.5685 300.011 76.8468 299.786 76.125 299.558C75.8721 299.478 75.6192 299.397 75.357 299.314C69.2716 297.359 62.89 294.737 58.4732 289.95C57.9088 289.318 57.9088 289.318 57.002 288.763C57.002 288.559 57.002 288.355 57.002 288.146C56.7984 288.146 56.5948 288.146 56.3851 288.146C55.8638 287.572 55.8638 287.572 55.2871 286.816C55.0958 286.57 54.9046 286.323 54.7072 286.067C53.1403 283.794 53.9361 280.182 54.1489 277.563C54.1767 277.233 54.2014 276.906 54.2291 276.567C54.5561 272.761 55.0897 268.983 55.6171 265.198C55.8453 263.52 56.0458 261.836 56.2494 260.155C56.5362 257.82 56.8693 255.504 57.2734 253.188C57.5818 251.408 57.8347 249.625 58.0815 247.836C58.393 245.591 58.7755 243.382 59.2412 241.165C59.4818 239.962 59.6823 238.756 59.8735 237.544C61.3232 228.599 63.3835 219.744 65.521 210.944C65.7862 209.855 66.0453 208.77 66.2921 207.681C66.8103 205.42 67.3716 203.193 68.0964 200.988C68.3648 200.099 68.5899 199.22 68.8089 198.323C69.398 195.942 70.092 193.594 70.7922 191.247C71.0173 190.485 71.2394 189.727 71.4615 188.968C72.1277 186.722 72.7878 184.502 73.7162 182.349C73.9876 181.683 74.1911 181.016 74.3916 180.329C75.977 174.872 78.1977 169.601 80.4031 164.37C80.6375 163.806 80.8719 163.241 81.1001 162.677C82.1241 160.169 83.2684 157.729 84.4312 155.287C84.7674 154.58 85.0975 153.874 85.4244 153.168C85.5879 152.819 85.5879 152.819 85.7544 152.461C85.958 152.02 86.1647 151.579 86.3682 151.138C87.0036 149.778 87.7068 148.486 88.4625 147.19C88.7339 146.684 89.0023 146.175 89.2706 145.666C91.8676 140.901 94.8502 136.123 98.3109 131.935C99.2115 130.828 100.072 129.689 100.926 128.545C101.741 127.475 102.614 126.534 103.576 125.6C103.869 125.297 104.162 124.995 104.452 124.69C106.777 122.293 109.223 120.19 111.904 118.197C112.16 118.003 112.416 117.805 112.678 117.605C116.256 114.959 120.312 113.034 124.55 111.72C124.923 111.603 125.296 111.486 125.678 111.365C134.241 108.79 143.444 109.832 151.075 114.496ZM76.4335 174.949C76.7419 175.566 76.7419 175.566 76.7419 175.566L76.4335 174.949ZM74.5829 180.193C74.8913 180.81 74.8913 180.81 74.8913 180.81L74.5829 180.193ZM70.8816 191.913C71.1901 192.53 71.1901 192.53 71.1901 192.53L70.8816 191.913ZM69.3394 197.157C69.6479 197.774 69.6479 197.774 69.6479 197.774L69.3394 197.157ZM69.031 198.082C69.3394 199.008 69.3394 199.008 69.3394 199.008L69.031 198.082ZM67.4888 203.943C67.7973 204.559 67.7973 204.559 67.7973 204.559L67.4888 203.943ZM67.1804 204.868C67.4888 205.793 67.4888 205.793 67.4888 205.793L67.1804 204.868ZM65.6382 211.345C65.9466 211.962 65.9466 211.962 65.9466 211.962L65.6382 211.345ZM65.3298 212.579C65.6382 213.196 65.6382 213.196 65.6382 213.196L65.3298 212.579ZM63.7876 219.364C64.096 219.981 64.096 219.981 64.096 219.981L63.7876 219.364ZM63.4791 220.598C63.7876 221.523 63.7876 221.523 63.7876 221.523L63.4791 220.598ZM61.937 228.001C62.2454 228.926 62.2454 228.926 62.2454 228.926L61.937 228.001ZM60.0863 237.562C60.3948 238.487 60.3948 238.487 60.3948 238.487L60.0863 237.562ZM58.5442 246.507C58.8526 247.741 58.8526 247.741 58.8526 247.741L58.5442 246.507ZM58.2357 248.049C58.2357 248.558 58.2357 249.067 58.2357 249.591C58.3375 249.591 58.4393 249.591 58.5442 249.591C58.5442 249.082 58.5442 248.573 58.5442 248.049C58.4424 248.049 58.3406 248.049 58.2357 248.049ZM56.6935 258.536C56.6935 259.045 56.6935 259.554 56.6935 260.078C56.7953 260.078 56.8971 260.078 57.002 260.078C57.002 259.569 57.002 259.06 57.002 258.536C56.9002 258.536 56.7984 258.536 56.6935 258.536ZM56.3851 260.695C56.3851 261.204 56.3851 261.713 56.3851 262.237C56.4869 262.237 56.5887 262.237 56.6935 262.237C56.6935 261.728 56.6935 261.219 56.6935 260.695C56.5917 260.695 56.49 260.695 56.3851 260.695ZM54.8429 273.341C54.8429 274.053 54.8429 274.766 54.8429 275.5C54.9447 275.5 55.0465 275.5 55.1513 275.5C55.1513 274.787 55.1513 274.075 55.1513 273.341C55.0496 273.341 54.9478 273.341 54.8429 273.341ZM54.5345 276.117C54.5345 276.727 54.5345 277.338 54.5345 277.967C54.6363 277.967 54.738 277.967 54.8429 277.967C54.8429 277.357 54.8429 276.746 54.8429 276.117C54.7411 276.117 54.6393 276.117 54.5345 276.117Z"
        fill="#FDFDFD" />
    <path
        d="M308.272 120.666C310.89 122.896 312.466 125.619 314.135 128.577C314.548 129.305 314.968 130.027 315.387 130.749C317.056 133.605 318.684 136.479 320.282 139.376C320.763 140.248 321.251 141.118 321.747 141.985C321.923 142.296 321.923 142.296 322.105 142.614C322.423 143.169 322.74 143.728 323.061 144.283C323.949 145.89 324.754 147.543 325.572 149.187C326.167 150.387 326.772 151.583 327.376 152.777C330.701 159.344 333.918 165.938 336.904 172.665C337.32 173.6 337.74 174.534 338.162 175.466C341.768 183.408 345.124 191.443 348.288 199.57C348.911 201.165 349.54 202.756 350.188 204.342C351.644 207.923 352.989 211.507 354.179 215.183C354.543 216.303 354.941 217.401 355.376 218.496C357.402 223.634 359.096 228.921 360.811 234.171C360.916 234.488 361.02 234.809 361.131 235.139C362.584 239.593 363.978 244.056 365.237 248.568C365.49 249.463 365.755 250.357 366.02 251.249C367.8 257.223 369.351 263.241 370.681 269.332C370.748 269.631 370.813 269.931 370.881 270.236C372.001 275.35 372.951 280.421 370.243 285.223C368.864 287.367 367.313 289.171 365.305 290.729C365.021 290.948 365.021 290.948 364.731 291.173C360.218 294.599 354.966 296.817 349.63 298.634C349.223 298.773 349.223 298.773 348.806 298.914C347.421 299.371 346.252 299.673 344.772 299.559C344.248 298.612 343.992 297.739 343.779 296.681C343.683 296.206 343.683 296.206 343.584 295.719C343.52 295.389 343.452 295.059 343.384 294.72C343.254 294.069 343.122 293.418 342.989 292.767C342.927 292.456 342.863 292.141 342.798 291.82C342.397 289.868 341.968 287.987 341.314 286.105C341.049 285.3 340.827 284.492 340.608 283.675C340.204 282.16 339.732 280.683 339.22 279.202C339.054 278.706 338.887 278.212 338.72 277.716C338.646 277.5 338.572 277.281 338.495 277.056C338.301 276.439 338.144 275.822 337.986 275.193C337.854 274.662 337.718 274.132 337.585 273.604C336.811 270.544 336.046 267.491 335.411 264.397C335.213 263.478 334.985 262.571 334.748 261.658C334.069 258.993 333.508 256.267 333.218 253.528C333.073 252.504 332.903 252.014 332.434 251.135C332.271 250.416 332.126 249.697 331.993 248.975C331.716 247.523 331.42 246.088 331.047 244.657C330.716 243.365 330.433 242.073 330.18 240.762C329.406 236.795 328.483 232.847 327.499 228.927C327.398 228.501 327.299 228.076 327.197 227.65C326.63 225.247 326.062 222.845 325.455 220.451C325.374 220.121 325.291 219.794 325.205 219.455C325.041 218.817 324.878 218.178 324.714 217.54C324.323 215.991 323.986 214.477 323.798 212.888C323.696 212.888 323.595 212.888 323.49 212.888C323.41 212.5 323.326 212.114 323.243 211.716C323.132 211.207 323.024 210.698 322.913 210.19C322.858 209.934 322.805 209.681 322.75 209.418C322.697 209.172 322.642 208.925 322.586 208.669C322.54 208.444 322.49 208.219 322.441 207.984C322.278 207.327 322.278 207.327 321.954 206.741C321.581 205.979 321.405 205.248 321.214 204.422C320.726 202.395 320.125 200.415 319.502 198.429C318.842 196.313 318.185 194.203 317.593 192.069C316.942 189.746 316.164 187.467 315.39 185.185C314.746 183.278 314.12 181.375 313.574 179.438C313.24 178.427 312.809 177.467 312.386 176.493C312.115 175.768 311.843 175.04 311.578 174.312C310.795 172.202 309.962 170.114 309.11 168.029C308.996 167.749 308.879 167.468 308.762 167.178C308.123 165.627 307.463 164.094 306.748 162.579C306.526 161.996 306.526 161.996 306.526 161.071C306.322 160.969 306.119 160.867 305.909 160.763C305.514 160.041 305.147 159.322 304.792 158.582C304.573 158.135 304.354 157.687 304.135 157.237C304.021 157.006 303.907 156.774 303.793 156.534C303.445 155.831 303.09 155.131 302.732 154.433C302.618 154.211 302.504 153.989 302.387 153.761C302.168 153.332 301.949 152.904 301.727 152.478C301.27 151.58 300.974 150.988 300.974 149.967C300.77 149.967 300.567 149.967 300.357 149.967C299.842 149.054 299.33 148.141 298.815 147.228C298.67 146.969 298.522 146.71 298.371 146.442C298.232 146.192 298.093 145.945 297.948 145.689C297.819 145.461 297.689 145.23 297.556 144.995C297.273 144.415 297.273 144.415 297.273 143.799C297.069 143.799 296.866 143.799 296.656 143.799C296.196 143.098 295.768 142.398 295.345 141.676C292.68 137.278 289.426 133.309 285.861 129.61C285.583 129.308 285.302 129.006 285.025 128.701C280.065 123.426 273.646 119.796 267.046 116.965C267.354 116.039 267.354 116.039 268.236 115.53C268.622 115.348 269.011 115.169 269.399 114.997C269.606 114.904 269.813 114.809 270.025 114.713C282.699 109.099 297.43 112.292 308.272 120.666ZM288.636 112.646C289.87 112.955 289.87 112.955 289.87 112.955L288.636 112.646ZM318.555 193.765C318.863 194.382 318.863 194.382 318.863 194.382L318.555 193.765ZM320.097 199.009C320.405 199.626 320.405 199.626 320.405 199.626L320.097 199.009ZM320.405 199.934C320.714 200.551 320.714 200.551 320.714 200.551L320.405 199.934ZM321.948 205.486C322.256 206.103 322.256 206.103 322.256 206.103L321.948 205.486ZM324.107 213.505C324.415 214.122 324.415 214.122 324.415 214.122L324.107 213.505ZM325.649 219.674C325.957 220.291 325.957 220.291 325.957 220.291L325.649 219.674ZM325.957 220.908C326.266 221.525 326.266 221.525 326.266 221.525L325.957 220.908ZM327.499 227.076C327.808 227.693 327.808 227.693 327.808 227.693L327.499 227.076ZM329.042 233.862C329.35 234.479 329.35 234.479 329.35 234.479L329.042 233.862ZM329.35 235.096C329.659 236.021 329.659 236.021 329.659 236.021L329.35 235.096ZM330.892 241.881C331.201 242.807 331.201 242.807 331.201 242.807L330.892 241.881ZM331.201 243.424C331.509 244.04 331.509 244.04 331.509 244.04L331.201 243.424ZM332.743 250.209C333.051 251.135 333.051 251.135 333.051 251.135L332.743 250.209ZM334.594 258.845C334.902 259.771 334.902 259.771 334.902 259.771L334.594 258.845ZM334.902 260.079C335.21 261.004 335.21 261.004 335.21 261.004L334.902 260.079ZM336.444 266.865C336.753 267.79 336.753 267.79 336.753 267.79L336.444 266.865ZM343.538 293.082C343.847 294.007 343.847 294.007 343.847 294.007L343.538 293.082ZM343.847 294.316C344.155 295.241 344.155 295.241 344.155 295.241L343.847 294.316Z"
        fill="#FDFDFD" />
    <path
        d="M223.558 103.701C223.558 104.934 223.558 104.934 222.926 105.656C222.636 105.921 222.349 106.184 222.053 106.458C218.253 110.088 213.79 115.551 212.522 120.72C212.214 121.827 211.958 122.552 211.221 123.441C209.863 123.891 208.59 124.051 207.174 124.187C205.474 124.354 203.948 124.847 202.344 125.408C200.296 126.105 200.296 126.105 199.192 125.908C198.451 125.331 198.451 125.331 197.668 124.539C195.015 121.975 191.909 120.171 188.588 118.595C186.404 117.519 186.404 117.519 185.62 116.346C185.525 115.572 185.46 114.829 185.429 114.052C185.417 113.827 185.404 113.598 185.395 113.364C185.361 112.611 185.337 111.856 185.312 111.103C185.303 110.829 185.29 110.554 185.281 110.273C185.25 109.438 185.232 108.605 185.216 107.769C185.207 107.504 185.198 107.241 185.189 106.97C185.17 105.138 185.17 105.138 185.818 104.206C196.678 96.6713 212.349 97.6213 223.558 103.701ZM185.62 106.168C185.62 107.797 185.62 109.425 185.62 111.103C185.722 111.103 185.824 111.103 185.929 111.103C185.929 109.475 185.929 107.846 185.929 106.168C185.827 106.168 185.725 106.168 185.62 106.168Z"
        fill="#FDFDFD" />
    <path
        d="M258.412 105.243C258.618 105.348 258.828 105.449 259.041 105.557C262.622 107.386 262.622 107.386 263.038 108.636C262.723 108.821 262.723 108.821 262.406 109.009C260.546 110.147 258.914 111.365 257.326 112.858C257.073 113.092 256.82 113.33 256.561 113.571C256.407 113.731 256.252 113.891 256.092 114.055C254.63 115.474 253.467 115.705 251.472 115.788C250.92 115.828 250.367 115.871 249.815 115.915C249.547 115.933 249.276 115.955 248.998 115.973C242.228 116.538 236.034 119.909 231.269 124.674C229.397 124.554 227.571 124.215 225.723 123.897C224.391 123.684 223.052 123.555 221.708 123.441C221.362 122.41 221.353 121.997 221.812 120.988C226.235 114.092 231.772 108.552 239.31 105.2C239.859 104.956 240.402 104.697 240.942 104.438C246.324 102.223 253.254 102.618 258.412 105.243Z"
        fill="#FDFDFD" />
    <path
        d="M163.374 102.023C163.737 102.017 164.098 102.011 164.475 102.005C167.821 102.008 170.825 102.798 173.783 104.355C174.079 104.509 174.375 104.664 174.681 104.821C175.44 105.243 175.44 105.243 176.365 105.86C176.525 106.702 176.525 106.702 176.578 107.766C176.599 108.109 176.618 108.451 176.639 108.803C176.71 110.802 176.683 112.803 176.673 114.805C174.946 114.771 173.219 114.712 171.492 114.629C170.906 114.605 170.32 114.586 169.733 114.577C164.348 114.472 164.348 114.472 162.223 112.455C161.588 111.773 160.999 111.064 160.419 110.333C159.459 109.222 158.173 108.473 156.933 107.711C156.659 107.538 156.384 107.369 156.104 107.193C154.959 106.496 153.821 105.826 152.615 105.243C152.615 104.938 152.615 104.633 152.615 104.318C153.059 104.127 153.504 103.942 153.948 103.757C154.194 103.655 154.441 103.55 154.694 103.445C157.633 102.394 160.249 102.005 163.374 102.023Z"
        fill="#FDFDFD" />
    <path
        d="M160.636 101.85C162.468 101.85 164.3 101.85 166.188 101.85C166.188 101.952 166.188 102.053 166.188 102.158C164.355 102.158 162.523 102.158 160.636 102.158C160.636 102.057 160.636 101.955 160.636 101.85Z"
        fill="#FDFDFD" />
    <path
        d="M247.924 103.084C248.535 103.084 249.145 103.084 249.774 103.084C249.774 103.185 249.774 103.287 249.774 103.392C249.164 103.392 248.553 103.392 247.924 103.392C247.924 103.29 247.924 103.189 247.924 103.084Z"
        fill="#FDFDFD" />
</svg>