<svg viewBox="0 0 209 209" fill="none" xmlns="http://www.w3.org/2000/svg">
    <rect width="209" height="209" fill="white" />
    <ellipse cx="104.5" cy="191" rx="88.5" ry="11" fill="#D9D9D9" />
    <mask id="mask0_198_1204" style="mask-type:luminance" maskUnits="userSpaceOnUse" x="72" y="81" width="67"
        height="103">
        <path
            d="M105.521 183.411C105.391 183.411 105.261 183.411 105.121 183.411C105.101 183.411 105.001 183.411 104.971 183.411C104.841 183.411 104.701 183.411 104.571 183.411C101.081 183.411 98.2605 182.311 96.1905 180.151C94.8205 178.711 94.2005 177.221 94.0705 176.871L77.8405 111.921C77.4005 110.141 76.0805 108.951 74.5805 108.951C74.2905 108.951 74.0005 108.991 73.7105 109.081C73.6605 109.081 73.5505 109.101 73.4105 109.101C72.6405 109.101 72.3605 108.851 72.1205 107.921C71.9105 107.101 72.0505 106.661 72.3505 106.241C72.6705 105.781 73.1305 105.451 73.3105 105.341C74.9005 104.571 75.6705 102.651 75.2505 100.721L73.1505 90.921C75.6005 84.741 80.0705 81.731 86.7905 81.731C94.1205 81.731 101.491 85.291 103.571 86.391C104.041 86.631 104.541 86.761 105.041 86.761C105.541 86.761 106.041 86.641 106.511 86.391C108.591 85.301 115.961 81.731 123.291 81.731C130.011 81.731 134.481 84.741 136.931 90.921L134.831 100.721C134.421 102.651 135.181 104.571 136.771 105.341C136.951 105.451 137.411 105.781 137.731 106.241C138.031 106.671 138.171 107.101 137.961 107.921C137.721 108.841 137.441 109.101 136.671 109.101C136.531 109.101 136.431 109.091 136.371 109.081C136.081 108.991 135.781 108.951 135.501 108.951C133.991 108.951 132.681 110.141 132.241 111.921L116.011 176.871C115.881 177.231 115.261 178.711 113.891 180.151C111.821 182.311 109.011 183.411 105.511 183.411H105.521Z"
            fill="white" />
    </mask>
    <g mask="url(#mask0_198_1204)">
        <path d="M163.641 74.131H67.6805V193.491H163.641V74.131Z" fill="#ECB55C" />
        <path
            d="M211.271 123.831L209.301 121.571L193.321 139.831L187.271 132.921L203.251 114.661L201.281 112.401L185.301 130.661L179.251 123.751L195.231 105.491L193.261 103.231L177.281 121.491L171.231 114.581L187.211 96.321L185.241 94.061L169.261 112.321L163.211 105.411L179.191 87.151L177.221 84.891L161.241 103.151L155.191 96.241L171.171 77.981L169.201 75.721L153.221 93.981L147.171 87.071L163.151 68.811L161.181 66.551L145.201 84.811L139.151 77.891L155.131 59.641L153.161 57.381L137.181 75.631L131.131 68.721L147.111 50.461L145.141 48.201L129.161 66.461L123.111 59.551L139.091 41.291L137.121 39.031L121.141 57.291L115.091 50.381L131.071 32.131L129.101 29.871L113.121 48.121L107.071 41.211L123.051 22.951L121.081 20.691L105.101 38.951L89.1205 20.691L87.1505 22.951L103.131 41.211L97.0805 48.121L81.1005 29.861L79.1305 32.121L95.1105 50.381L89.0605 57.291L73.0805 39.041L71.1105 41.301L87.0905 59.561L81.0405 66.471L65.0605 48.211L63.0905 50.471L79.0705 68.731L73.0205 75.641L57.0405 57.391L55.0705 59.651L71.0505 77.901L65.0005 84.811L49.0205 66.551L47.0505 68.811L63.0305 87.071L56.9805 93.981L41.0005 75.731L39.0305 77.991L55.0105 96.241L48.9605 103.151L32.9805 84.901L31.0105 87.161L46.9905 105.421L40.9405 112.331L24.9605 94.071L22.9905 96.331L38.9705 114.591L32.9205 121.501L16.9405 103.251L14.9705 105.511L30.9505 123.761L24.9005 130.671L8.92054 112.411L6.95054 114.671L22.9305 132.931L16.8805 139.841L0.900543 121.591L-1.06946 123.851L14.9105 142.101L-1.06946 160.361L0.900543 162.621L16.8805 144.361L22.9305 151.281L6.95054 169.531L8.92054 171.791L24.9005 153.541L30.9505 160.451L14.9705 178.701L16.9405 180.961L32.9205 162.711L38.9705 169.621L23.0005 187.871L24.9705 190.131L40.9405 171.881L46.9905 178.801L31.0105 197.051L32.9805 199.311L48.9605 181.061L55.0105 187.971L39.0305 206.231L41.0005 208.491L56.9805 190.231L63.0305 197.151L47.0505 215.401L49.0205 217.661L65.0005 199.411L71.0505 206.321L55.0705 224.571L57.0405 226.831L73.0105 208.581L79.0605 215.491L63.0905 233.741L65.0605 236.001L81.0305 217.751L87.0805 224.671L71.1005 242.921L73.0705 245.181L89.0505 226.931L95.1005 233.841L79.1305 252.091L81.1005 254.351L97.0705 236.101L103.121 243.021L87.1405 261.271L89.1105 263.531L105.091 245.281L121.071 263.541L123.041 261.281L107.061 243.021L113.111 236.101L129.091 254.361L131.061 252.101L115.081 233.841L121.131 226.931L137.111 245.191L139.081 242.931L123.101 224.671L129.151 217.761L145.131 236.021L147.101 233.761L131.121 215.501L137.171 208.591L153.151 226.851L155.121 224.591L139.141 206.331L145.191 199.421L161.171 217.681L163.141 215.421L147.161 197.161L153.211 190.251L169.191 208.511L171.161 206.251L155.181 187.991L161.231 181.081L177.211 199.341L179.181 197.081L163.201 178.821L169.251 171.901L185.231 190.161L187.201 187.901L171.221 169.641L177.271 162.731L193.251 180.991L195.221 178.731L179.241 160.471L185.291 153.561L201.271 171.821L203.241 169.561L187.261 151.301L193.311 144.391L209.291 162.651L211.261 160.391L195.281 142.131L211.261 123.871L211.271 123.831ZM183.321 132.921L177.271 139.831L171.221 132.921L177.271 126.011L183.321 132.921ZM107.021 132.921L113.071 126.011L119.121 132.931L113.071 139.841L107.021 132.921ZM111.101 142.091L105.051 149.001L99.0005 142.091L105.051 135.181L111.101 142.101V142.091ZM105.051 130.661L99.0005 123.751L105.051 116.841L111.101 123.751L105.051 130.661ZM103.081 132.921L97.0305 139.831L90.9805 132.921L97.0305 126.001L103.081 132.911V132.921ZM95.0505 142.091L89.0005 149.001L82.9505 142.091L89.0005 135.181L95.0505 142.091ZM97.0205 144.351L103.071 151.271L97.0205 158.181L90.9705 151.271L97.0205 144.351ZM105.051 153.521L111.101 160.431L105.051 167.341L99.0005 160.431L105.051 153.521ZM107.021 151.261L113.071 144.351L119.121 151.261L113.071 158.171L107.021 151.261ZM115.041 142.091L121.091 135.181L127.141 142.091L121.091 149.001L115.041 142.091ZM123.061 132.921L129.111 126.001L135.161 132.911L129.111 139.821L123.061 132.911V132.921ZM121.091 130.661L115.041 123.741L121.091 116.831L127.141 123.741L121.091 130.661ZM113.071 121.491L107.021 114.581L113.071 107.671L119.121 114.581L113.071 121.491ZM105.041 112.321L98.9905 105.411L105.041 98.491L111.091 105.411L105.041 112.321ZM103.071 114.581L97.0205 121.491L90.9705 114.581L97.0205 107.671L103.071 114.581ZM95.0505 123.751L89.0005 130.671L82.9505 123.751L89.0005 116.841L95.0505 123.751ZM87.0305 132.921L80.9805 139.831L74.9305 132.921L80.9805 126.011L87.0305 132.931V132.921ZM79.0005 142.091L72.9505 149.001L66.9005 142.091L72.9505 135.181L79.0005 142.091ZM80.9705 144.351L87.0205 151.271L80.9705 158.181L74.9205 151.271L80.9705 144.351ZM89.0005 153.521L95.0505 160.431L89.0005 167.341L82.9505 160.421L89.0005 153.511V153.521ZM97.0205 162.691L103.071 169.601L97.0205 176.521L90.9705 169.611L97.0205 162.701V162.691ZM105.041 171.861L111.091 178.771L105.041 185.681L98.9905 178.771L105.041 171.851V171.861ZM107.011 169.601L113.061 162.691L119.111 169.601L113.061 176.511L107.011 169.601ZM115.031 160.431L121.081 153.521L127.131 160.431L121.081 167.341L115.031 160.431ZM123.051 151.261L129.101 144.351L135.151 151.261L129.101 158.171L123.051 151.261ZM131.081 142.091L137.131 135.181L143.181 142.091L137.131 149.001L131.081 142.091ZM139.101 132.921L145.151 126.001L151.201 132.921L145.151 139.831L139.101 132.921ZM137.131 130.661L131.081 123.751L137.131 116.841L143.181 123.751L137.131 130.671V130.661ZM129.111 121.491L123.061 114.581L129.111 107.671L135.161 114.581L129.111 121.491ZM121.081 112.321L115.031 105.411L121.081 98.501L127.131 105.411L121.081 112.321ZM113.061 103.151L107.011 96.241L113.061 89.331L119.111 96.241L113.061 103.151ZM105.031 93.981L98.9805 87.071L105.031 80.151L111.081 87.061L105.031 93.971V93.981ZM103.061 96.241L97.0105 103.151L90.9605 96.241L97.0105 89.331L103.061 96.241ZM95.0405 105.411L88.9905 112.321L82.9405 105.411L88.9905 98.501L95.0405 105.411ZM87.0205 114.581L80.9705 121.491L74.9205 114.581L80.9705 107.671L87.0205 114.581ZM78.9905 123.751L72.9405 130.661L66.8905 123.751L72.9405 116.841L78.9905 123.751ZM70.9705 132.921L64.9205 139.831L58.8705 132.921L64.9205 126.011L70.9705 132.921ZM62.9505 142.091L56.9005 149.001L50.8505 142.091L56.9005 135.181L62.9505 142.091ZM64.9205 144.351L70.9705 151.271L64.9205 158.181L58.8705 151.261L64.9205 144.351ZM72.9405 153.521L78.9905 160.431L72.9405 167.341L66.8905 160.431L72.9405 153.521ZM80.9605 162.691L87.0105 169.611L80.9605 176.521L74.9105 169.601L80.9605 162.691ZM88.9905 171.861L95.0405 178.771L88.9905 185.681L82.9405 178.771L88.9905 171.861ZM97.0105 181.031L103.061 187.941L97.0105 194.851L90.9605 187.941L97.0105 181.031ZM105.031 190.201L111.081 197.111L105.031 204.021L98.9805 197.101L105.031 190.191V190.201ZM107.001 187.941L113.051 181.031L119.101 187.941L113.051 194.851L107.001 187.941ZM115.021 178.771L121.071 171.861L127.121 178.781L121.071 185.691L115.021 178.781V178.771ZM123.041 169.601L129.091 162.691L135.141 169.601L129.091 176.521L123.041 169.601ZM131.071 160.431L137.121 153.521L143.171 160.431L137.121 167.341L131.071 160.431ZM139.091 151.261L145.141 144.351L151.191 151.271L145.141 158.181L139.091 151.261ZM147.111 142.091L153.161 135.181L159.211 142.091L153.161 149.001L147.111 142.091ZM155.131 132.921L161.181 126.011L167.231 132.931L161.181 139.841L155.131 132.931V132.921ZM153.161 130.661L147.111 123.741L153.161 116.831L159.211 123.741L153.161 130.651V130.661ZM145.141 121.491L139.091 114.581L145.141 107.671L151.191 114.581L145.141 121.491ZM137.121 112.321L131.071 105.411L137.121 98.501L143.171 105.421L137.121 112.331V112.321ZM129.101 103.151L123.051 96.241L129.101 89.331L135.151 96.241L129.101 103.151ZM121.081 93.981L115.031 87.071L121.081 80.161L127.131 87.081L121.081 93.991V93.981ZM113.061 84.811L107.011 77.901L113.061 70.991L119.111 77.901L113.061 84.821V84.811ZM105.031 75.641L98.9805 68.731L105.031 61.821L111.081 68.731L105.031 75.641ZM103.061 77.901L97.0105 84.821L90.9605 77.901L97.0105 70.991L103.061 77.901ZM95.0405 87.071L88.9905 93.981L82.9405 87.071L88.9905 80.151L95.0405 87.071ZM87.0205 96.241L80.9705 103.151L74.9205 96.241L80.9705 89.331L87.0205 96.241ZM79.0005 105.411L72.9505 112.321L66.9005 105.411L72.9505 98.491L79.0005 105.401V105.411ZM70.9805 114.581L64.9305 121.491L58.8805 114.581L64.9305 107.671L70.9805 114.581ZM62.9605 123.751L56.9105 130.661L50.8605 123.751L56.9105 116.841L62.9605 123.751ZM54.9305 132.921L48.8805 139.831L42.8305 132.921L48.8805 126.011L54.9305 132.921ZM46.9105 142.091L40.8605 149.001L34.8105 142.091L40.8605 135.181L46.9105 142.091ZM48.8805 144.351L54.9305 151.261L48.8805 158.171L42.8305 151.261L48.8805 144.351ZM56.9005 153.521L62.9505 160.431L56.9005 167.341L50.8505 160.431L56.9005 153.521ZM64.9305 162.691L70.9805 169.601L64.9305 176.511L58.8805 169.601L64.9305 162.691ZM72.9505 171.861L79.0005 178.781L72.9505 185.691L66.9005 178.771L72.9505 171.861ZM80.9705 181.031L87.0205 187.941L80.9705 194.851L74.9205 187.941L80.9705 181.031ZM88.9905 190.201L95.0405 197.111L88.9905 204.021L82.9405 197.111L88.9905 190.201ZM97.0105 199.371L103.061 206.281L97.0105 213.191L90.9605 206.281L97.0105 199.371ZM105.041 208.541L111.091 215.451L105.041 222.361L98.9905 215.451L105.041 208.541ZM107.011 206.281L113.061 199.371L119.111 206.281L113.061 213.191L107.011 206.281ZM115.031 197.111L121.081 190.201L127.131 197.111L121.081 204.031L115.031 197.121V197.111ZM123.051 187.941L129.101 181.031L135.151 187.941L129.101 194.851L123.051 187.941ZM131.081 178.771L137.131 171.851L143.181 178.761L137.131 185.671L131.081 178.761V178.771ZM139.101 169.601L145.151 162.691L151.201 169.601L145.151 176.511L139.101 169.601ZM147.121 160.431L153.171 153.521L159.221 160.431L153.171 167.341L147.121 160.431ZM155.141 151.261L161.191 144.341L167.241 151.251L161.191 158.171L155.141 151.261ZM163.171 142.091L169.221 135.181L175.271 142.091L169.221 149.001L163.171 142.091ZM175.271 123.751L169.221 130.661L163.171 123.741L169.221 116.831L175.271 123.741V123.751ZM167.251 114.581L161.201 121.491L155.151 114.581L161.201 107.671L167.251 114.581ZM159.231 105.411L153.181 112.321L147.131 105.411L153.181 98.501L159.231 105.411ZM151.211 96.241L145.161 103.151L139.111 96.241L145.161 89.331L151.211 96.241ZM143.181 87.071L137.131 93.981L131.081 87.071L137.131 80.151L143.181 87.071ZM135.151 77.901L129.101 84.821L123.051 77.901L129.101 70.991L135.151 77.901ZM127.131 68.731L121.081 75.641L115.031 68.731L121.081 61.821L127.131 68.731ZM119.111 59.561L113.061 66.471L107.011 59.561L113.061 52.651L119.111 59.561ZM105.031 43.481L111.081 50.391L105.031 57.301L98.9805 50.391L105.031 43.481ZM97.0005 52.651L103.051 59.561L97.0005 66.471L90.9505 59.561L97.0005 52.651ZM88.9805 61.821L95.0305 68.731L88.9805 75.641L82.9305 68.731L88.9805 61.821ZM80.9605 70.991L87.0105 77.901L80.9605 84.821L74.9105 77.901L80.9605 70.991ZM72.9405 80.161L78.9905 87.081L72.9405 93.991L66.8905 87.081L72.9405 80.171V80.161ZM64.9205 89.331L70.9705 96.241L64.9205 103.151L58.8705 96.241L64.9205 89.331ZM56.8905 98.501L62.9405 105.421L56.8905 112.331L50.8405 105.421L56.8905 98.501ZM48.8705 107.671L54.9205 114.581L48.8705 121.491L42.8205 114.581L48.8705 107.671ZM40.8405 116.841L46.8905 123.751L40.8405 130.661L34.7905 123.741L40.8405 116.831V116.841ZM32.8205 126.011L38.8705 132.931L32.8205 139.841L26.7705 132.931L32.8205 126.021V126.011ZM18.7405 142.091L24.7905 135.181L30.8405 142.091L24.7905 149.001L18.7405 142.091ZM26.7705 151.261L32.8205 144.341L38.8705 151.251L32.8205 158.171L26.7705 151.261ZM34.7905 160.431L40.8405 153.521L46.8905 160.431L40.8405 167.341L34.7905 160.431ZM42.8105 169.601L48.8605 162.691L54.9105 169.601L48.8605 176.521L42.8105 169.601ZM50.8405 178.771L56.8905 171.851L62.9405 178.761L56.8905 185.671L50.8405 178.761V178.771ZM58.8605 187.941L64.9105 181.031L70.9605 187.951L64.9105 194.861L58.8605 187.941ZM66.8905 197.111L72.9405 190.191L78.9905 197.101L72.9405 204.021L66.8905 197.111ZM74.9105 206.281L80.9605 199.371L87.0105 206.281L80.9605 213.191L74.9105 206.281ZM82.9305 215.451L88.9805 208.541L95.0305 215.451L88.9805 222.371L82.9305 215.451ZM90.9605 224.621L97.0105 217.701L103.061 224.611L97.0105 231.521L90.9605 224.611V224.621ZM105.041 240.701L98.9905 233.791L105.041 226.881L111.091 233.791L105.041 240.701ZM113.071 231.531L107.021 224.621L113.071 217.711L119.121 224.631L113.071 231.541V231.531ZM121.091 222.361L115.041 215.441L121.091 208.531L127.141 215.441L121.091 222.351V222.361ZM129.121 213.191L123.071 206.281L129.121 199.371L135.171 206.281L129.121 213.191ZM137.141 204.021L131.091 197.101L137.141 190.191L143.191 197.101L137.141 204.021ZM145.161 194.851L139.111 187.941L145.161 181.031L151.211 187.941L145.161 194.851ZM153.181 185.681L147.131 178.771L153.181 171.861L159.231 178.781L153.181 185.691V185.681ZM161.201 176.511L155.151 169.591L161.201 162.681L167.251 169.591L161.201 176.511ZM169.221 167.341L163.171 160.431L169.221 153.521L175.271 160.431L169.221 167.341ZM177.251 158.171L171.201 151.251L177.251 144.341L183.301 151.251L177.251 158.161V158.171ZM185.271 149.001L179.221 142.091L185.271 135.181L191.321 142.091L185.271 149.001Z"
            fill="#DA741D" />
        <path
            d="M211.271 122.591L209.301 120.331L193.321 138.591L187.271 131.681L203.251 113.421L201.281 111.161L185.301 129.421L179.251 122.511L195.231 104.251L193.261 101.991L177.281 120.251L171.231 113.331L187.211 95.071L185.241 92.811L169.261 111.071L163.211 104.161L179.191 85.901L177.221 83.641L161.241 101.901L155.191 94.991L171.171 76.731L169.201 74.471L153.221 92.731L147.171 85.821L163.151 67.561L161.181 65.301L145.201 83.561L139.151 76.651L155.131 58.391L153.161 56.131L137.181 74.391L131.131 67.471L147.111 49.221L145.141 46.961L129.161 65.211L123.111 58.301L139.091 40.041L137.121 37.781L121.141 56.041L115.091 49.121L131.071 30.871L129.101 28.611L113.121 46.861L107.071 39.951L123.051 21.701L121.081 19.441L105.101 37.691L89.1205 19.441L87.1505 21.701L103.131 39.951L97.0805 46.861L81.1005 28.601L79.1305 30.861L95.1105 49.121L89.0605 56.031L73.0805 37.771L71.1105 40.031L87.0905 58.291L81.0405 65.201L65.0605 46.941L63.0905 49.201L79.0705 67.461L73.0205 74.371L57.0405 56.111L55.0705 58.371L71.0505 76.631L65.0005 83.541L49.0205 65.291L47.0505 67.551L63.0305 85.801L56.9805 92.711L41.0005 74.461L39.0305 76.721L55.0105 94.971L48.9605 101.891L32.9805 83.631L31.0105 85.891L46.9905 104.151L40.9405 111.061L24.9605 92.811L22.9905 95.071L38.9705 113.321L32.9205 120.231L16.9405 101.971L14.9705 104.231L30.9505 122.491L24.9005 129.401L8.92054 111.151L6.95054 113.411L22.9305 131.661L16.8805 138.571L0.900543 120.321L-1.06946 122.581L14.9105 140.831L-1.06946 159.091L0.900543 161.351L16.8805 143.091L22.9305 150.011L6.95054 168.261L8.92054 170.521L24.9005 152.271L30.9505 159.181L14.9705 177.441L16.9405 179.701L32.9205 161.441L38.9705 168.351L23.0005 186.601L24.9705 188.861L40.9405 170.611L46.9905 177.521L31.0105 195.771L32.9805 198.031L48.9605 179.781L55.0105 186.691L39.0305 204.951L41.0005 207.211L56.9805 188.951L63.0305 195.871L47.0505 214.121L49.0205 216.381L65.0005 198.131L71.0505 205.041L55.0705 223.291L57.0405 225.551L73.0105 207.301L79.0605 214.211L63.0905 232.461L65.0605 234.721L81.0305 216.471L87.0805 223.381L71.1005 241.631L73.0705 243.891L89.0505 225.641L95.1005 232.551L79.1305 250.801L81.1005 253.061L97.0705 234.811L103.121 241.731L87.1405 259.981L89.1105 262.241L105.091 243.991L121.071 262.251L123.041 259.991L107.061 241.731L113.111 234.811L129.091 253.071L131.061 250.811L115.081 232.551L121.131 225.641L137.111 243.901L139.081 241.641L123.101 223.381L129.151 216.471L145.131 234.731L147.101 232.471L131.121 214.211L137.171 207.291L153.151 225.551L155.121 223.291L139.141 205.031L145.191 198.121L161.171 216.381L163.141 214.121L147.161 195.861L153.211 188.951L169.191 207.211L171.161 204.951L155.181 186.691L161.231 179.781L177.211 198.041L179.181 195.781L163.201 177.521L169.251 170.611L185.231 188.871L187.201 186.611L171.221 168.351L177.271 161.431L193.251 179.691L195.221 177.431L179.241 159.171L185.291 152.261L201.271 170.521L203.241 168.261L187.261 150.001L193.311 143.091L209.291 161.351L211.261 159.091L195.281 140.831L211.261 122.571L211.271 122.591ZM183.321 131.681L177.271 138.591L171.221 131.681L177.271 124.771L183.321 131.681ZM107.021 131.681L113.071 124.771L119.121 131.691L113.071 138.601L107.021 131.681ZM111.101 140.851L105.051 147.761L99.0005 140.841L105.051 133.931L111.101 140.851ZM105.051 129.421L99.0005 122.511L105.051 115.601L111.101 122.511L105.051 129.421ZM103.081 131.681L97.0305 138.591L90.9805 131.681L97.0305 124.771L103.081 131.681ZM95.0505 140.851L89.0005 147.771L82.9505 140.851L89.0005 133.941L95.0505 140.851ZM97.0205 143.111L103.071 150.031L97.0205 156.941L90.9705 150.031L97.0205 143.111ZM105.051 152.281L111.101 159.191L105.051 166.111L99.0005 159.201L105.051 152.291V152.281ZM107.021 150.021L113.071 143.111L119.121 150.021L113.071 156.931L107.021 150.021ZM115.041 140.851L121.091 133.941L127.141 140.851L121.091 147.761L115.041 140.851ZM123.061 131.681L129.111 124.771L135.161 131.681L129.111 138.591L123.061 131.681ZM121.091 129.421L115.041 122.501L121.091 115.591L127.141 122.511L121.091 129.421ZM113.071 120.251L107.021 113.341L113.071 106.431L119.121 113.341L113.071 120.251ZM105.041 111.081L98.9905 104.171L105.041 97.251L111.091 104.171L105.041 111.081ZM103.071 113.341L97.0205 120.251L90.9705 113.331L97.0205 106.421L103.071 113.331V113.341ZM95.0505 122.511L89.0005 129.421L82.9505 122.511L89.0005 115.591L95.0505 122.511ZM87.0305 131.681L80.9805 138.591L74.9305 131.681L80.9805 124.771L87.0305 131.681ZM79.0005 140.851L72.9505 147.771L66.9005 140.851L72.9505 133.941L79.0005 140.851ZM80.9705 143.111L87.0205 150.031L80.9705 156.941L74.9205 150.031L80.9705 143.111ZM89.0005 152.281L95.0505 159.191L89.0005 166.111L82.9505 159.191L89.0005 152.281ZM97.0205 161.451L103.071 168.361L97.0205 175.271L90.9705 168.361L97.0205 161.441V161.451ZM105.041 170.621L111.091 177.531L105.041 184.441L98.9905 177.531L105.041 170.621ZM107.011 168.361L113.061 161.441L119.111 168.361L113.061 175.271L107.011 168.361ZM115.031 159.191L121.081 152.281L127.131 159.191L121.081 166.111L115.031 159.191ZM123.051 150.021L129.101 143.111L135.151 150.021L129.101 156.931L123.051 150.021ZM131.081 140.851L137.131 133.941L143.181 140.851L137.131 147.761L131.081 140.851ZM139.101 131.681L145.151 124.771L151.201 131.681L145.151 138.591L139.101 131.681ZM137.131 129.421L131.081 122.511L137.131 115.591L143.181 122.501L137.131 129.411V129.421ZM129.111 120.251L123.061 113.331L129.111 106.421L135.161 113.331L129.111 120.251ZM121.081 111.081L115.031 104.171L121.081 97.261L127.131 104.171L121.081 111.081ZM113.061 101.911L107.011 94.991L113.061 88.081L119.111 94.991L113.061 101.901V101.911ZM105.031 92.741L98.9805 85.831L105.031 78.921L111.081 85.831L105.031 92.741ZM103.061 95.001L97.0105 101.921L90.9605 95.011L97.0105 88.101L103.061 95.011V95.001ZM95.0405 104.171L88.9905 111.081L82.9405 104.171L88.9905 97.261L95.0405 104.171ZM87.0205 113.341L80.9705 120.261L74.9205 113.351L80.9705 106.441L87.0205 113.351V113.341ZM78.9905 122.511L72.9405 129.421L66.8905 122.511L72.9405 115.591L78.9905 122.501V122.511ZM70.9705 131.681L64.9205 138.591L58.8705 131.681L64.9205 124.771L70.9705 131.681ZM62.9505 140.851L56.9005 147.761L50.8505 140.851L56.9005 133.941L62.9505 140.851ZM64.9205 143.111L70.9705 150.031L64.9205 156.941L58.8705 150.031L64.9205 143.121V143.111ZM72.9405 152.281L78.9905 159.191L72.9405 166.101L66.8905 159.191L72.9405 152.281ZM80.9605 161.451L87.0105 168.371L80.9605 175.281L74.9105 168.361L80.9605 161.451ZM88.9905 170.621L95.0405 177.531L88.9905 184.441L82.9405 177.531L88.9905 170.621ZM97.0105 179.791L103.061 186.701L97.0105 193.611L90.9605 186.701L97.0105 179.791ZM105.031 188.961L111.081 195.881L105.031 202.791L98.9805 195.881L105.031 188.971V188.961ZM107.001 186.701L113.051 179.791L119.101 186.701L113.051 193.621L107.001 186.701ZM115.021 177.531L121.071 170.621L127.121 177.531L121.071 184.441L115.021 177.531ZM123.041 168.361L129.091 161.441L135.141 168.361L129.091 175.271L123.041 168.361ZM131.071 159.191L137.121 152.281L143.171 159.191L137.121 166.101L131.071 159.181V159.191ZM139.091 150.021L145.141 143.111L151.191 150.031L145.141 156.941L139.091 150.031V150.021ZM147.111 140.851L153.161 133.941L159.211 140.851L153.161 147.771L147.111 140.851ZM155.131 131.681L161.181 124.771L167.231 131.681L161.181 138.591L155.131 131.681ZM153.161 129.421L147.111 122.511L153.161 115.601L159.211 122.521L153.161 129.431V129.421ZM145.141 120.251L139.091 113.341L145.141 106.431L151.191 113.341L145.141 120.251ZM137.121 111.081L131.071 104.171L137.121 97.261L143.171 104.181L137.121 111.091V111.081ZM129.101 101.911L123.051 95.001L129.101 88.091L135.151 95.001L129.101 101.911ZM121.081 92.741L115.031 85.831L121.081 78.921L127.131 85.831L121.081 92.741ZM113.061 83.571L107.011 76.661L113.061 69.751L119.111 76.661L113.061 83.571ZM105.031 74.401L98.9805 67.491L105.031 60.581L111.081 67.491L105.031 74.401ZM103.061 76.661L97.0105 83.571L90.9605 76.661L97.0105 69.751L103.061 76.661ZM95.0405 85.831L88.9905 92.741L82.9405 85.831L88.9905 78.921L95.0405 85.831ZM87.0205 95.001L80.9705 101.911L74.9205 95.001L80.9705 88.091L87.0205 95.001ZM79.0005 104.171L72.9505 111.081L66.9005 104.171L72.9505 97.251L79.0005 104.161V104.171ZM70.9805 113.341L64.9305 120.261L58.8805 113.341L64.9305 106.431L70.9805 113.341ZM62.9605 122.511L56.9105 129.421L50.8605 122.511L56.9105 115.591L62.9605 122.511ZM54.9305 131.681L48.8805 138.591L42.8305 131.681L48.8805 124.771L54.9305 131.681ZM46.9105 140.851L40.8605 147.761L34.8105 140.851L40.8605 133.941L46.9105 140.851ZM48.8805 143.111L54.9305 150.021L48.8805 156.931L42.8305 150.021L48.8805 143.111ZM56.9005 152.281L62.9505 159.191L56.9005 166.101L50.8505 159.181L56.9005 152.271V152.281ZM64.9305 161.451L70.9805 168.361L64.9305 175.271L58.8805 168.361L64.9305 161.451ZM72.9505 170.621L79.0005 177.541L72.9505 184.451L66.9005 177.531L72.9505 170.621ZM80.9705 179.791L87.0205 186.701L80.9705 193.611L74.9205 186.701L80.9705 179.791ZM88.9905 188.961L95.0405 195.871L88.9905 202.781L82.9405 195.871L88.9905 188.961ZM97.0105 198.131L103.061 205.041L97.0105 211.951L90.9605 205.031L97.0105 198.121V198.131ZM105.041 207.301L111.091 214.211L105.041 221.121L98.9905 214.211L105.041 207.301ZM107.011 205.041L113.061 198.131L119.111 205.041L113.061 211.951L107.011 205.041ZM115.031 195.871L121.081 188.951L127.131 195.861L121.081 202.771L115.031 195.861V195.871ZM123.051 186.701L129.101 179.791L135.151 186.701L129.101 193.621L123.051 186.711V186.701ZM131.081 177.531L137.131 170.621L143.181 177.531L137.131 184.441L131.081 177.531ZM139.101 168.361L145.151 161.451L151.201 168.361L145.151 175.271L139.101 168.361ZM147.121 159.191L153.171 152.281L159.221 159.191L153.171 166.111L147.121 159.201V159.191ZM155.141 150.021L161.191 143.101L167.241 150.011L161.191 156.921L155.141 150.011V150.021ZM163.171 140.851L169.221 133.941L175.271 140.851L169.221 147.761L163.171 140.851ZM175.271 122.511L169.221 129.421L163.171 122.511L169.221 115.601L175.271 122.521V122.511ZM167.251 113.341L161.201 120.251L155.151 113.331L161.201 106.421L167.251 113.331V113.341ZM159.231 104.171L153.181 111.081L147.131 104.171L153.181 97.261L159.231 104.171ZM151.211 95.001L145.161 101.911L139.111 94.991L145.161 88.081L151.211 94.991V95.001ZM143.181 85.831L137.131 92.741L131.081 85.831L137.131 78.921L143.181 85.831ZM135.151 76.661L129.101 83.571L123.051 76.661L129.101 69.741L135.151 76.661ZM127.131 67.491L121.081 74.411L115.031 67.501L121.081 60.591L127.131 67.501V67.491ZM119.111 58.321L113.061 65.231L107.011 58.321L113.061 51.411L119.111 58.321ZM105.031 42.241L111.081 49.151L105.031 56.061L98.9805 49.151L105.031 42.241ZM97.0005 51.411L103.051 58.321L97.0005 65.231L90.9505 58.321L97.0005 51.411ZM88.9805 60.581L95.0305 67.491L88.9805 74.401L82.9305 67.491L88.9805 60.581ZM80.9605 69.751L87.0105 76.661L80.9605 83.571L74.9105 76.661L80.9605 69.751ZM72.9405 78.921L78.9905 85.831L72.9405 92.741L66.8905 85.831L72.9405 78.921ZM64.9205 88.091L70.9705 95.001L64.9205 101.921L58.8705 95.001L64.9205 88.091ZM56.8905 97.261L62.9405 104.181L56.8905 111.091L50.8405 104.181L56.8905 97.261ZM48.8705 106.431L54.9205 113.341L48.8705 120.261L42.8205 113.341L48.8705 106.431ZM40.8405 115.601L46.8905 122.521L40.8405 129.431L34.7905 122.521L40.8405 115.611V115.601ZM32.8205 124.771L38.8705 131.681L32.8205 138.591L26.7705 131.681L32.8205 124.771ZM18.7405 140.851L24.7905 133.941L30.8405 140.851L24.7905 147.771L18.7405 140.851ZM26.7705 150.021L32.8205 143.101L38.8705 150.011L32.8205 156.921L26.7705 150.011V150.021ZM34.7905 159.191L40.8405 152.281L46.8905 159.191L40.8405 166.111L34.7905 159.201V159.191ZM42.8105 168.361L48.8605 161.441L54.9105 168.361L48.8605 175.271L42.8105 168.361ZM50.8405 177.531L56.8905 170.621L62.9405 177.531L56.8905 184.441L50.8405 177.531ZM58.8605 186.701L64.9105 179.791L70.9605 186.711L64.9105 193.631L58.8605 186.711V186.701ZM66.8905 195.871L72.9405 188.951L78.9905 195.861L72.9405 202.771L66.8905 195.861V195.871ZM74.9105 205.041L80.9605 198.131L87.0105 205.041L80.9605 211.961L74.9105 205.051V205.041ZM82.9305 214.211L88.9805 207.291L95.0305 214.211L88.9805 221.121L82.9305 214.211ZM90.9605 223.381L97.0105 216.471L103.061 223.381L97.0105 230.291L90.9605 223.381ZM105.041 239.461L98.9905 232.541L105.041 225.631L111.091 232.541L105.041 239.461ZM113.071 230.291L107.021 223.381L113.071 216.471L119.121 223.381L113.071 230.291ZM121.091 221.121L115.041 214.211L121.091 207.301L127.141 214.221L121.091 221.131V221.121ZM129.121 211.951L123.071 205.031L129.121 198.121L135.171 205.031L129.121 211.951ZM137.141 202.781L131.091 195.871L137.141 188.951L143.191 195.871L137.141 202.781ZM145.161 193.611L139.111 186.691L145.161 179.781L151.211 186.691L145.161 193.601V193.611ZM153.181 184.441L147.131 177.531L153.181 170.621L159.231 177.531L153.181 184.441ZM161.201 175.271L155.151 168.361L161.201 161.441L167.251 168.361L161.201 175.271ZM169.221 166.101L163.171 159.181L169.221 152.271L175.271 159.181L169.221 166.101ZM177.251 156.931L171.201 150.021L177.251 143.111L183.301 150.031L177.251 156.941V156.931ZM185.271 147.761L179.221 140.841L185.271 133.931L191.321 140.841L185.271 147.751V147.761Z"
            fill="#F6D184" />
        <g style="mix-blend-mode:multiply">
            <path
                d="M164.321 98.151C163.521 94.161 161.221 90.141 157.491 87.791C163.431 81.481 167.371 73.571 168.421 64.601C171.431 38.991 149.821 14.551 120.151 9.99098C90.4806 5.44098 63.9906 22.511 60.9906 48.111C59.6706 59.381 63.1106 70.421 69.9206 79.651C61.3206 81.721 51.6506 88.301 55.8606 97.061C61.6606 109.121 73.0506 100.611 80.0506 97.951C87.9506 94.951 100.721 98.551 106.841 104.191C110.421 107.491 112.771 113.351 118.931 113.751C126.381 114.231 123.641 108.041 126.981 103.511C136.011 91.241 142.471 104.161 151.031 108.521C161.641 113.921 165.931 106.071 164.331 98.141L164.321 98.151Z"
                fill="#ECB55C" />
        </g>
        <g style="mix-blend-mode:multiply" opacity="0.3">
            <path
                d="M73.7805 81.601H70.0105C69.2805 81.601 68.5905 81.9909 68.1505 82.6609C67.7105 83.3309 67.5705 84.201 67.7805 85.001L93.4705 185.431C93.7605 186.561 94.6705 187.341 95.7005 187.341C96.7305 187.341 97.6405 186.561 97.9305 185.431L104.961 157.941C88.1705 143.461 76.1005 115.121 73.7705 81.601H73.7805Z"
                fill="#E1892B" />
        </g>
    </g>
    <path
        d="M105.521 189.331C105.371 189.331 105.211 189.331 105.051 189.331C98.4605 189.471 94.4405 186.611 92.2205 184.181C89.8105 181.541 88.9705 178.831 88.9305 178.721L88.9005 178.631L73.0005 115.021C72.1505 114.971 71.1205 114.761 70.1005 114.161C68.5305 113.241 67.4605 111.691 66.9005 109.551C65.8105 105.351 67.8405 102.371 69.7005 100.851L67.4805 90.501L67.6505 90.011C69.7905 83.651 73.5205 79.371 78.7405 77.271C88.5105 73.351 100.45 78.341 105.04 80.621C109.63 78.351 121.56 73.351 131.34 77.271C136.56 79.361 140.29 83.651 142.43 90.011L142.601 90.501L140.381 100.851C142.241 102.381 144.27 105.351 143.18 109.551C142.63 111.691 141.55 113.241 139.98 114.161C138.97 114.761 137.93 114.971 137.08 115.021L121.17 178.671V178.711C121.12 178.821 120.28 181.541 117.87 184.171C115.7 186.541 111.81 189.321 105.5 189.321L105.521 189.331ZM92.5505 177.651C92.7605 178.291 95.4505 185.771 105.01 185.551H105.051H105.09C105.23 185.551 105.37 185.551 105.51 185.551C114.73 185.551 117.371 178.191 117.551 177.641L134.29 110.661L136.12 111.191C136.88 111.361 138.79 111.471 139.53 108.581C140.43 105.101 137.701 103.501 137.381 103.331L136.101 102.671L136.42 101.271L138.68 90.701C136.89 85.701 133.95 82.351 129.93 80.741C120.72 77.041 108.31 83.121 105.92 84.371L105.04 84.831L104.161 84.371C101.771 83.121 89.3505 77.041 80.1405 80.741C76.1205 82.351 73.1805 85.701 71.3905 90.701L73.9505 102.681L72.6705 103.341C72.3705 103.501 69.6405 105.101 70.5405 108.581C70.8305 109.711 71.3205 110.491 72.0005 110.891C72.9005 111.421 73.9505 111.191 73.9605 111.191L75.8005 110.711L92.5305 177.641L92.5505 177.651Z"
        fill="#2B121D" />
    <path
        d="M132.631 108.091H76.3505C75.9605 108.091 75.6405 107.771 75.6405 107.381C75.6405 106.991 75.9605 106.671 76.3505 106.671H132.631C133.021 106.671 133.34 106.991 133.34 107.381C133.34 107.771 133.021 108.091 132.631 108.091Z"
        fill="#2B121D" />
    <path
        d="M139.141 113.011H69.8005C69.0205 113.011 68.3905 112.381 68.3905 111.601C68.3905 110.821 69.0205 110.191 69.8005 110.191H139.141C139.921 110.191 140.551 110.821 140.551 111.601C140.551 112.381 139.921 113.011 139.141 113.011Z"
        fill="#2B121D" />
    <path
        d="M136.23 99.851C131.52 99.851 126.54 97.671 122.06 93.671C119.16 95.381 116.07 96.861 112.75 96.861C108.4 96.861 104.26 94.451 99.5005 89.091C97.0105 90.711 92.1205 93.361 86.7505 93.361C80.8205 93.361 75.9005 90.341 73.5905 88.641C71.9405 89.701 69.1005 91.181 66.0005 91.181C63.1505 91.181 60.6005 89.931 58.6105 87.561C54.8205 83.041 53.6405 77.381 55.4605 72.431C57.2105 67.631 61.4405 64.411 67.0605 63.441C66.5705 60.911 66.3805 57.321 67.7905 53.491C69.1405 49.721 71.8505 46.911 75.6105 45.381C77.0805 44.781 78.5305 44.441 79.7805 44.261C79.6105 43.651 79.4605 42.981 79.3405 42.281C78.5405 37.611 79.5505 33.761 82.2605 31.131C86.9805 26.561 93.6505 25.601 98.4105 25.601C99.1605 25.601 99.8605 25.621 100.49 25.661C100.46 23.521 100.95 20.951 102.5 18.381C104.66 14.801 110.01 12.091 110.61 11.791L113.76 10.231L113.9 14.141C114 16.671 114.82 21.231 116.59 22.691C118.42 24.191 121.13 24.471 123.99 24.771C126.89 25.071 129.89 25.381 132.67 26.931C135.94 28.761 138.16 31.931 139.44 36.611C140.48 39.581 140.22 42.731 139.78 44.951C140.37 45.211 141.02 45.561 141.68 46.021C143.86 47.521 146.68 50.551 147.78 56.481L147.8 56.571V56.661C148.48 61.991 147.03 66.021 145.58 68.581C147.88 69.861 150.75 72.151 152.18 76.001C153.94 80.711 153.11 86.361 149.69 92.771L149.54 93.051L149.34 93.281C145.57 97.571 141.03 99.841 136.21 99.841L136.23 99.851Z"
        fill="#2B121D" />
    <path
        d="M147.691 91.381C139.751 100.431 129.82 97.851 122.34 90.451C114.83 95.101 109.401 97.201 99.8605 85.671C99.8605 85.671 93.6705 90.671 86.7405 90.671C84.0705 90.671 81.6205 89.981 79.5805 89.091C75.9905 87.541 73.6605 85.401 73.6605 85.401C73.6605 85.401 65.7105 92.121 60.3205 85.691C53.4205 77.451 57.5005 66.101 70.2505 65.831C70.2505 65.831 67.7505 60.511 69.9705 54.511C73.0205 45.991 83.2305 46.741 83.2305 46.741C83.2305 46.741 78.8405 37.961 83.7805 33.171C90.8405 26.331 103.411 28.671 103.411 28.671C103.411 28.671 101.611 24.581 104.441 19.901C106.281 16.851 111.551 14.251 111.551 14.251C111.551 14.251 111.841 22.091 115.221 24.871C120.371 29.091 128.98 25.601 134.15 31.341C135.42 32.751 136.48 34.721 137.23 37.511C138.76 41.731 136.811 46.841 136.811 46.841C136.811 46.841 143.701 47.391 145.501 57.041C146.531 65.231 141.671 69.771 141.671 69.771C141.671 69.771 157.101 73.701 147.701 91.371L147.691 91.381Z"
        fill="#FEF1A3" />
    <path
        d="M147.69 91.381C139.75 100.431 129.82 97.851 122.34 90.451C114.83 95.101 109.4 97.201 99.8605 85.671C99.8605 85.671 93.6705 90.671 86.7405 90.671C92.7105 87.991 97.0105 84.951 99.0205 79.941C113.21 86.921 115.85 82.681 127.61 84.271C138.4 83.991 137.951 79.831 134.771 73.961C131.581 68.091 107.36 72.621 91.6705 70.951C75.9805 69.271 79.5605 65.271 79.5605 65.271C79.5605 65.271 93.0505 65.831 99.9105 65.551C106.78 65.271 127.121 62.761 132.271 59.681C137.421 56.611 138.89 52.131 135.46 49.061C132.03 45.991 125.74 48.191 109.56 48.471C93.3805 48.751 89.6105 44.311 89.6105 44.311C89.6105 44.311 100 44.911 109.56 44.071C119.12 43.231 124.651 41.871 131.521 37.121C133.811 35.541 134.29 32.951 134.15 31.351C135.42 32.761 136.48 34.731 137.23 37.521C138.76 41.741 136.81 46.851 136.81 46.851C136.81 46.851 143.7 47.401 145.5 57.051C146.53 65.241 141.67 69.781 141.67 69.781C141.67 69.781 157.1 73.711 147.7 91.381H147.69Z"
        fill="#FECC5C" />
    <path
        d="M61.6105 104.101C60.6805 104.101 59.8105 103.661 59.1805 102.871C57.6805 101.001 57.8205 97.6109 58.1305 93.7009C58.1505 93.5009 58.1605 93.2909 58.1805 93.0909C57.9305 92.9209 57.6205 92.7109 57.2505 92.4509C55.4605 91.1709 54.6305 88.2609 54.4805 82.7109C54.3905 79.3609 54.6005 76.2709 54.6105 76.1409L55.3805 73.5809L56.5305 74.1609L57.8005 84.3209L69.3805 82.3309C69.3805 82.5009 72.3005 81.5309 70.5905 90.5909C70.0905 93.4609 70.3205 97.7309 66.8605 97.7309C66.7005 97.7309 66.5505 97.7209 66.4105 97.7009C66.0505 100.021 65.2405 103.171 62.5205 103.971C62.2105 104.061 61.9105 104.101 61.6105 104.101Z"
        fill="#2B121D" />
    <path
        d="M69.9005 78.4909C69.9005 78.4909 69.8805 80.7109 69.4605 85.0909C69.3205 86.5409 69.1405 88.2409 68.8905 90.1709C67.9105 97.9209 65.8305 94.1309 64.8705 94.0409C63.9105 93.9609 64.6605 100.561 61.9305 101.361C60.4405 101.791 60.2205 99.3409 60.3005 96.8409C60.3605 94.7609 60.6405 92.6509 60.5705 92.1709C60.4105 91.1209 60.8905 91.8609 58.5005 90.1609C56.1205 88.4609 56.9605 76.3409 56.9605 76.3409L69.9005 78.4809V78.4909Z"
        fill="#FEF1A3" />
    <path
        d="M68.9005 90.1709C67.9205 97.9209 65.8405 94.1309 64.8805 94.0409C63.9205 93.9609 64.6705 100.561 61.9405 101.361C60.4505 101.791 60.2305 99.3409 60.3105 96.8409C60.9405 97.2109 61.5905 97.3609 62.1105 96.6109C63.5605 94.5509 63.5605 87.0009 63.5605 87.0009C63.5605 87.0009 65.1305 91.1209 66.6905 90.3009C68.2605 89.4709 68.6805 83.7809 68.6805 83.7809C68.6805 83.7809 69.1605 88.2409 68.9105 90.1709H68.9005Z"
        fill="#FECC5C" />
    <path d="M67.6405 81.631C70.4605 83.481 71.9705 81.531 73.4805 76.361C73.1405 83.311 69.7005 86.071 67.6405 81.631Z"
        fill="#2B121D" />
    <path
        d="M110.251 18.0309C110.251 18.0309 108.031 23.3809 109.021 26.4709C110.011 29.5709 111.491 27.8809 116.671 31.5409C121.851 35.2009 120.371 37.7309 120.371 37.7309C120.371 37.7309 130.491 35.4809 128.521 31.8209C126.551 28.1609 123.091 30.4109 116.421 27.0409C109.751 23.6609 110.251 18.0409 110.251 18.0409V18.0309Z"
        fill="#FC952A" />
    <path
        d="M97.9105 29.001C97.9105 29.001 86.5005 31.821 84.6605 34.171C82.8205 36.531 84.2005 39.141 88.7905 40.451C93.3805 41.761 100.96 41.761 100.96 41.761C100.96 41.761 89.2505 39.401 89.9405 36.001C90.6305 32.601 97.9105 28.991 97.9105 28.991V29.001Z"
        fill="white" />
    <path
        d="M82.8105 47.9509C82.8105 47.9509 72.2905 50.7309 71.5205 55.6009C70.7605 60.4709 77.6205 61.8609 83.1105 61.8609C88.6005 61.8609 102.181 60.4709 102.181 60.4709C102.181 60.4709 79.0005 62.3809 76.7105 58.0409C74.4205 53.6909 82.8105 47.9609 82.8105 47.9609V47.9509Z"
        fill="white" />
    <path
        d="M75.2005 67.801C75.2005 67.801 65.7405 66.471 62.4705 69.661C59.2005 72.861 57.8005 77.781 58.1505 81.381C58.5005 84.971 59.5505 86.571 59.5505 86.571C59.5505 86.571 58.9705 78.981 61.8905 74.591C64.8105 70.201 75.2005 67.801 75.2005 67.801Z"
        fill="white" />
    <path
        d="M147.46 83.7209C147.46 83.7209 146.73 88.6809 141.9 90.8909C137.06 93.1009 131.74 92.5409 131.74 92.5409C131.74 92.5409 137.06 96.4009 142.62 93.6409C148.18 90.8809 147.46 83.7209 147.46 83.7209Z"
        fill="#FC952A" />
    <path
        d="M143.01 59.931C143.01 59.931 141.28 64.101 138.14 65.891C135 67.681 130.98 68.501 130.98 68.501C130.98 68.501 136.15 69.661 139.69 67.651C143.23 65.631 143.02 59.931 143.02 59.931H143.01Z"
        fill="#FC952A" />
    <path
        d="M66.6405 79.821C66.6405 79.821 68.2105 82.931 70.0005 81.141C71.7805 79.351 72.2005 76.601 72.2005 76.601C72.2005 76.601 69.8905 79.711 68.8405 79.831C67.7905 79.951 66.6405 79.831 66.6405 79.831V79.821Z"
        fill="#FECC5C" />
    <path
        d="M99.9705 85.741C101.65 87.271 104.3 86.721 107.18 85.501C107.18 85.501 104.61 87.651 102.2 87.851C99.8005 88.051 98.9405 87.651 98.9405 87.651L99.9605 85.741H99.9705Z"
        fill="#2B121D" />
    <path
        d="M134.941 34.5309C134.941 34.5309 136.101 38.4909 134.301 40.9809C132.501 43.4709 126.841 45.2309 126.841 45.2309C126.841 45.2309 134.301 45.8209 135.981 43.3209C137.651 40.8309 134.951 34.5209 134.951 34.5209L134.941 34.5309Z"
        fill="#FC952A" />
    <path
        d="M118.13 88.621C118.71 89.281 120.3 90.111 123.05 89.941C125.8 89.771 128.41 88.781 128.41 88.781C128.41 88.781 124.65 93.071 122.04 92.251C119.43 91.421 118.13 88.621 118.13 88.621Z"
        fill="#2B121D" />
    <path
        d="M154.71 27.5809C154.66 28.1909 154.36 28.4109 154.08 28.6609C152.43 30.1609 150.78 31.6809 149.13 33.1909C148.92 33.3809 148.69 33.5809 148.44 33.7109C147.98 33.9409 147.55 33.8309 147.21 33.4509C146.87 33.0609 146.98 32.6209 147.29 32.3309C149.24 30.5309 151.2 28.7609 153.19 27.0009C153.52 26.7109 153.98 26.7509 154.35 27.0209C154.6 27.2009 154.72 27.4609 154.71 27.5809Z"
        fill="#99836E" />
    <path
        d="M59.5505 36.4209C59.9605 36.3809 60.2605 36.5909 60.5305 36.8709C62.0405 38.4109 63.5605 39.9509 65.0605 41.4909C65.5105 41.9509 65.9405 42.4809 65.3305 43.1009C64.7105 43.7309 64.1805 43.2909 63.7305 42.8409C62.2005 41.3209 60.7005 39.7709 59.1905 38.2309C58.8405 37.8709 58.5205 37.4509 58.7505 36.9009C58.8905 36.5709 59.1705 36.4009 59.5505 36.4209Z"
        fill="#9D856F" />
    <path
        d="M48.2805 51.5008C50.2705 51.9708 52.6005 52.5108 54.9205 53.0908C55.4205 53.2208 55.8605 53.5308 55.6905 54.1608C55.5205 54.8008 55.0505 54.9708 54.4305 54.8208C52.1405 54.2908 49.8405 53.7808 47.5505 53.2408C46.9805 53.1108 46.5005 52.8008 46.6505 52.1308C46.7905 51.4608 47.3505 51.4008 48.2805 51.5008Z"
        fill="#9F8570" />
    <path
        d="M160.64 45.0208C160.26 44.8608 159.91 44.9608 159.57 45.1308C157.65 46.1108 155.721 47.0808 153.801 48.0708C153.221 48.3708 152.66 48.7308 153.03 49.5108C153.41 50.3108 154.061 50.0608 154.631 49.7708C156.561 48.8108 158.48 47.8308 160.4 46.8408C160.85 46.6108 161.281 46.3208 161.241 45.7208C161.211 45.3608 161 45.1108 160.64 45.0108V45.0208Z"
        fill="#9D856F" />
    <path
        d="M166.521 62.9109C164.491 62.7309 162.101 62.4909 159.721 62.3009C159.211 62.2609 158.691 62.4209 158.651 63.0709C158.611 63.7309 159.001 64.0409 159.631 64.1009C161.971 64.3309 164.311 64.5709 166.661 64.7909C167.241 64.8409 167.791 64.7109 167.871 64.0209C167.951 63.3309 167.441 63.1109 166.521 62.9009V62.9109Z"
        fill="#9F8570" />
    <path
        d="M45.9305 80.1908C45.0205 80.1908 44.1105 80.1908 43.2005 80.1908C42.5805 80.1908 41.9805 80.0808 42.0005 79.2808C42.0205 78.6008 42.5305 78.4008 43.1205 78.3908C44.9805 78.3708 46.8505 78.3608 48.7105 78.3408C49.3405 78.3408 49.8105 78.6108 49.7905 79.2608C49.7705 79.9108 49.2805 80.1408 48.6605 80.1308C47.7505 80.1208 46.8405 80.1308 45.9305 80.1308C45.9305 80.1508 45.9305 80.1708 45.9305 80.2008V80.1908Z"
        fill="#9A8068" />
    <path
        d="M163.49 91.6908C161.63 91.3108 159.77 90.9408 157.92 90.5308C157.45 90.4308 157.07 90.1108 157.2 89.5508C157.32 89.0408 157.71 88.7908 158.22 88.8508C160.23 89.1008 162.19 89.5608 164.15 90.0608C164.62 90.1808 164.82 90.5208 164.67 91.0108C164.49 91.6008 164.04 91.7208 163.49 91.6808V91.6908Z"
        fill="#9D836F" />
    <path
        d="M91.3405 19.9409C91.3505 20.2609 91.1805 20.4909 90.9305 20.6609C90.6305 20.8609 90.2305 20.9309 90.0105 20.6809C88.7805 19.2909 87.5905 17.8409 86.8905 16.1109C86.6105 15.4209 87.2705 15.0909 87.9705 15.2609C88.4005 15.3609 91.3305 19.4909 91.3505 19.9409H91.3405Z"
        fill="#9B836C" />
    <path
        d="M74.5505 31.5707C74.0105 31.4907 73.6605 31.2007 73.6805 30.7607C73.7205 30.0107 74.3905 29.7207 74.9405 29.3707C75.3705 29.0907 75.8405 28.9107 76.3205 29.2207C76.6505 29.4407 76.8505 29.8207 76.6005 30.1707C76.0805 30.8907 75.2805 31.2307 74.5605 31.5707H74.5505Z"
        fill="#9C836D" />
    <path
        d="M137.33 23.6607C137.33 24.0407 137.09 24.4607 136.54 24.3607C135.53 24.1807 135.28 23.2807 135.07 22.4607C134.93 21.9307 135.36 21.6507 135.88 21.6207C136.49 21.5907 137.32 22.6807 137.33 23.6607Z"
        fill="#987F68" />
    <path
        d="M49.8005 105.371C49.5405 106.061 49.1205 106.651 48.3005 106.761C47.8005 106.831 47.5105 106.521 47.5305 106.031C47.5705 105.211 48.1005 104.761 48.8305 104.591C49.3505 104.471 49.6505 104.831 49.8005 105.381V105.371Z"
        fill="#98816C" />
    <path
        d="M152.141 102.351C151.561 102.261 151.221 101.921 151.261 101.361C151.301 100.781 151.701 100.511 152.291 100.561C152.831 100.611 153.121 100.931 153.101 101.451C153.071 102.021 152.711 102.321 152.141 102.351Z"
        fill="#998471" />
    <path
        d="M120.371 7.86084C119.841 7.80084 119.421 7.51084 119.401 6.95084C119.381 6.39084 119.771 6.02084 120.321 6.00084C120.831 5.98084 121.181 6.32084 121.231 6.82084C121.291 7.39084 120.931 7.72084 120.371 7.86084Z"
        fill="#9F8D78" />
    <path
        d="M51.1905 65.271C50.6505 65.181 50.2605 64.911 50.3005 64.321C50.3305 63.821 50.6405 63.491 51.1805 63.501C51.7905 63.501 52.0805 63.841 52.0605 64.421C52.0405 64.961 51.7205 65.221 51.1905 65.271Z"
        fill="#9E8774" />
    <path
        d="M145.501 140.121C145.541 140.551 145.341 140.811 145.061 141.011C144.751 141.231 144.39 141.251 144.15 140.991C142.46 139.181 140.731 137.401 139.251 135.411C138.991 135.061 139.191 134.691 139.481 134.421C139.811 134.111 140.191 134.131 140.491 134.421C142.261 136.101 143.85 137.951 145.4 139.831C145.47 139.921 145.481 140.061 145.501 140.121Z"
        fill="#9C846F" />
    <path
        d="M64.4205 140.711C63.6305 140.671 63.1905 139.891 63.6705 139.351C65.2305 137.591 66.8805 135.901 68.5205 134.211C68.8505 133.871 69.2805 133.931 69.6305 134.271C69.9705 134.611 70.0405 135.091 69.7505 135.401C68.1505 137.131 66.5105 138.821 64.8705 140.521C64.7405 140.651 64.5105 140.681 64.4205 140.721V140.711Z"
        fill="#9B836D" />
    <path
        d="M161.26 78.8408C160.72 78.7508 160.33 78.4808 160.37 77.8908C160.4 77.3908 160.711 77.0608 161.251 77.0708C161.861 77.0708 162.151 77.4108 162.131 77.9908C162.111 78.5308 161.79 78.7908 161.26 78.8408Z"
        fill="#9E8774" />
</svg>