<svg viewBox="0 0 698 174" fill="none" xmlns="http://www.w3.org/2000/svg">
    <path
        d="M207.466 110.322V65.8516H242.733C244.421 65.8516 245.945 66.2634 247.304 67.0869C248.704 67.9104 249.815 69.0222 250.639 70.4222C251.504 71.781 251.936 73.3046 251.936 74.9928V101.181C251.936 102.828 251.504 104.352 250.639 105.752C249.815 107.152 248.704 108.263 247.304 109.087C245.945 109.91 244.421 110.322 242.733 110.322H207.466ZM216.977 100.687H242.239V75.4869H216.977V100.687ZM257.646 110.322V65.8516H267.529L282.599 83.8251L297.608 65.8516H307.552V110.322H297.917V80.4898L282.599 98.7722L267.22 80.5516V110.322H257.646ZM324.089 110.322C322.4 110.322 320.856 109.91 319.456 109.087C318.098 108.263 317.006 107.172 316.183 105.813C315.359 104.413 314.948 102.869 314.948 101.181V74.9928C314.948 73.3046 315.359 71.781 316.183 70.4222C317.006 69.0222 318.098 67.9104 319.456 67.0869C320.856 66.2634 322.4 65.8516 324.089 65.8516H359.294V75.4869H326.559C325.9 75.4869 325.386 75.6516 325.015 75.981C324.686 76.3104 324.521 76.8251 324.521 77.5251V98.6486C324.521 99.3075 324.686 99.8222 325.015 100.193C325.386 100.522 325.9 100.687 326.559 100.687H359.294V110.322H324.089ZM394.657 110.322C393.01 110.322 391.486 109.91 390.086 109.087C388.686 108.263 387.574 107.152 386.751 105.752C385.927 104.352 385.516 102.828 385.516 101.181V65.8516H395.089V100.687H420.289V65.8516H429.986V101.181C429.986 102.828 429.554 104.352 428.689 105.752C427.865 107.152 426.754 108.263 425.354 109.087C423.995 109.91 422.492 110.322 420.845 110.322H394.657ZM436.664 110.322V74.4987H464.026C465.673 74.4987 467.176 74.9104 468.535 75.734C469.894 76.5575 470.964 77.6487 471.747 79.0075C472.57 80.3663 472.982 81.8487 472.982 83.4545V110.322H463.532V83.9487H446.114V110.322H436.664ZM479.547 110.322V74.4987H488.997V110.322H479.547ZM479.547 72.2751V62.7634H488.997V72.2751H479.547ZM512.052 110.322L492.349 74.4987H503.22L516.129 98.278L529.038 74.4987H539.908L520.144 110.322H512.052ZM550.085 110.322C548.479 110.322 546.997 109.91 545.638 109.087C544.279 108.263 543.188 107.172 542.364 105.813C541.541 104.455 541.129 102.972 541.129 101.366V83.4545C541.129 81.8487 541.541 80.3663 542.364 79.0075C543.188 77.6487 544.279 76.5575 545.638 75.734C546.997 74.9104 548.479 74.4987 550.085 74.4987H568.491C570.138 74.4987 571.641 74.9104 573 75.734C574.358 76.5575 575.429 77.6487 576.211 79.0075C577.035 80.3663 577.447 81.8487 577.447 83.4545V97.1663H550.579V100.872H577.447V110.322H550.085ZM550.579 88.8898H567.997V83.9487H550.579V88.8898ZM583.533 110.322V83.4545C583.533 81.8487 583.945 80.3663 584.769 79.0075C585.592 77.6487 586.683 76.5575 588.042 75.734C589.401 74.9104 590.904 74.4987 592.551 74.4987H612.316V83.9487H592.983V110.322H583.533ZM625.959 110.322C624.353 110.322 622.871 109.91 621.512 109.087C620.153 108.263 619.062 107.172 618.239 105.813C617.415 104.455 617.003 102.972 617.003 101.366V99.5751H626.453V100.872H643.871V97.1663H625.959C624.353 97.1663 622.871 96.7545 621.512 95.931C620.153 95.1075 619.062 94.0163 618.239 92.6575C617.415 91.2986 617.003 89.8163 617.003 88.2104V83.4545C617.003 81.8487 617.415 80.3663 618.239 79.0075C619.062 77.6487 620.153 76.5575 621.512 75.734C622.871 74.9104 624.353 74.4987 625.959 74.4987H644.365C646.012 74.4987 647.515 74.9104 648.874 75.734C650.233 76.5575 651.324 77.6487 652.147 79.0075C652.971 80.3663 653.383 81.8487 653.383 83.4545V85.2457H643.871V83.9487H626.453V87.6545H644.365C646.012 87.6545 647.515 88.0663 648.874 88.8898C650.233 89.7134 651.324 90.8045 652.147 92.1634C652.971 93.5222 653.383 95.0045 653.383 96.6104V101.366C653.383 102.972 652.971 104.455 652.147 105.813C651.324 107.172 650.233 108.263 648.874 109.087C647.515 109.91 646.012 110.322 644.365 110.322H625.959ZM667.22 110.322C665.615 110.322 664.132 109.91 662.773 109.087C661.415 108.263 660.323 107.172 659.5 105.813C658.676 104.455 658.265 102.972 658.265 101.366V83.4545C658.265 81.8487 658.676 80.3663 659.5 79.0075C660.323 77.6487 661.415 76.5575 662.773 75.734C664.132 74.9104 665.615 74.4987 667.22 74.4987H685.626C687.273 74.4987 688.776 74.9104 690.135 75.734C691.494 76.5575 692.565 77.6487 693.347 79.0075C694.17 80.3663 694.582 81.8487 694.582 83.4545V97.1663H667.715V100.872H694.582V110.322H667.22ZM667.715 88.8898H685.132V83.9487H667.715V88.8898Z"
        fill="black" />
    <g clip-path="url(#clip0_380_5271)">
        <g filter="url(#filter0_d_380_5271)">
            <path fill-rule="evenodd" clip-rule="evenodd"
                d="M173.928 86.9502L173.404 86.9278L171.846 86.7738L169.297 86.361L165.83 85.572L161.539 84.307L156.543 82.4845L150.977 80.0442L144.987 76.9536L138.732 73.2045L132.367 68.8203L126.047 63.849L119.92 58.366L114.116 52.4702L108.753 46.2808L103.921 39.9355L99.6931 33.583L96.1081 27.3793L93.1806 21.4814L90.8993 16.0443L89.2225 11.2127L88.085 7.11699L87.401 3.87143L87.0636 1.56468L86.9545 0.261969L86.9453 0L86.9025 0.784887L86.6946 2.59624L86.1982 5.38208L85.2991 9.06493L83.9016 13.5439L81.9292 18.6966L79.3289 24.3825L76.0721 30.4526L72.1619 36.7511L67.6249 43.1188L62.518 49.404L56.9209 55.4619L50.9404 61.1651L44.6991 66.4035L38.3374 71.0893L32.0073 75.1606L25.8648 78.5814L20.0689 81.3438L14.7694 83.4702L10.11 85.0053L6.21717 86.0205L3.19893 86.6067L1.13885 86.8758L0.0930176 86.9471V86.9532L1.13885 87.0246L3.19893 87.2937L6.21717 87.8798L10.11 88.8951L14.7694 90.4302L20.0689 92.5565L25.8648 95.3189L32.0073 98.7398L38.3374 102.811L44.6991 107.497L50.9404 112.735L56.9209 118.438L62.518 124.496L67.6249 130.782L72.1619 137.149L76.0721 143.448L79.3289 149.518L81.9292 155.204L83.9016 160.356L85.2991 164.835L86.1982 168.518L86.6946 171.304L86.9025 173.115L86.9453 173.9L86.9545 173.638L87.0636 172.336L87.401 170.029L88.085 166.783L89.2225 162.688L90.8993 157.856L93.1806 152.419L96.1081 146.521L99.6931 140.317L103.921 133.965L108.753 127.62L114.116 121.43L119.92 115.534L126.047 110.051L132.367 105.08L138.732 100.696L144.987 96.9468L150.977 93.8562L156.543 91.4159L161.539 89.5933L165.83 88.3283L169.297 87.5394L171.846 87.1265L173.404 86.9726L173.928 86.9502Z"
                fill="#E4CCEC" />
        </g>
        <path fill-rule="evenodd" clip-rule="evenodd"
            d="M162.275 86.9501L161.821 86.9307L160.471 86.7974L158.264 86.4399L155.261 85.7566L151.545 84.6611L147.219 83.0827L142.398 80.9693L137.211 78.2928L131.793 75.046L126.281 71.2492L120.808 66.9439L115.502 62.1955L110.476 57.0896L105.831 51.7294L101.647 46.2342L97.9852 40.7327L94.8805 35.3602L92.3452 30.2525L90.3696 25.5438L88.9174 21.3595L87.9322 17.8125L87.3399 15.0018L87.0477 13.0041L86.9533 11.8759L86.9453 11.649L86.9082 12.3288L86.7282 13.8975L86.2982 16.3101L85.5196 19.4995L84.3094 23.3784L82.6012 27.8408L80.3493 32.7649L77.5288 38.0218L74.1425 43.4764L70.2133 48.991L65.7906 54.4342L60.9434 59.6805L55.7642 64.6196L50.359 69.1561L44.8496 73.2142L39.3676 76.74L34.048 79.7026L29.0286 82.0949L24.4391 83.9363L20.404 85.2658L17.0327 86.145L14.4188 86.6526L12.6347 86.8857L11.729 86.9475V86.9528L12.6347 87.0145L14.4188 87.2476L17.0327 87.7552L20.404 88.6344L24.4391 89.9639L29.0286 91.8053L34.048 94.1976L39.3676 97.1602L44.8496 100.686L50.359 104.744L55.7642 109.281L60.9434 114.22L65.7906 119.466L70.2133 124.909L74.1425 130.424L77.5288 135.878L80.3493 141.135L82.6012 146.059L84.3094 150.522L85.5196 154.401L86.2982 157.59L86.7282 160.003L86.9082 161.571L86.9453 162.251L86.9533 162.024L87.0477 160.896L87.3399 158.898L87.9322 156.088L88.9174 152.541L90.3696 148.356L92.3452 143.648L94.8805 138.54L97.9852 133.167L101.647 127.666L105.831 122.171L110.476 116.811L115.502 111.705L120.808 106.956L126.281 102.651L131.793 98.8542L137.211 95.6074L142.398 92.9309L147.219 90.8175L151.545 89.2391L155.261 88.1436L158.264 87.4603L160.471 87.1028L161.821 86.9695L162.275 86.9501Z"
            fill="#D2AAE0" />
        <path fill-rule="evenodd" clip-rule="evenodd"
            d="M152.182 86.9502L151.79 86.9334L150.621 86.8179L148.709 86.5083L146.109 85.9166L142.891 84.9678L139.144 83.6009L134.969 81.7707L130.477 79.4527L125.785 76.6409L121.012 73.3528L116.272 69.6243L111.676 65.5121L107.323 61.0902L103.301 56.4481L99.6774 51.6891L96.5062 46.9248L93.8175 42.272L91.6218 37.8486L89.9109 33.7708L88.6533 30.1471L87.8001 27.0753L87.2871 24.6411L87.0341 22.9111L86.9523 21.934L86.9454 21.7375L86.9133 22.3262L86.7573 23.6847L86.385 25.7741L85.7107 28.5362L84.6626 31.8955L83.1833 35.76L81.233 40.0244L78.7905 44.577L75.8578 49.3008L72.4551 54.0767L68.6249 58.7906L64.427 63.334L59.9417 67.6114L55.2607 71.5401L50.4894 75.0546L45.7419 78.108L41.135 80.6736L36.7881 82.7454L32.8134 84.3402L29.3189 85.4915L26.3993 86.2529L24.1356 86.6925L22.5905 86.8944L21.8062 86.9479V86.9525L22.5905 87.006L24.1356 87.2078L26.3993 87.6474L29.3189 88.4088L32.8134 89.5602L36.7881 91.1549L41.135 93.2267L45.7419 95.7924L50.4894 98.8458L55.2607 102.36L59.9417 106.289L64.427 110.566L68.6249 115.11L72.4551 119.824L75.8578 124.6L78.7905 129.323L81.233 133.876L83.1833 138.14L84.6626 142.005L85.7107 145.364L86.385 148.126L86.7573 150.216L86.9133 151.574L86.9454 152.163L86.9523 151.966L87.0341 150.989L87.2871 149.259L87.8001 146.825L88.6533 143.753L89.9109 140.13L91.6218 136.052L93.8175 131.628L96.5062 126.976L99.6774 122.211L103.301 117.452L107.323 112.81L111.676 108.388L116.272 104.276L121.012 100.548L125.785 97.2595L130.477 94.4476L134.969 92.1297L139.144 90.2994L142.891 88.9325L146.109 87.9838L148.709 87.3921L150.621 87.0824L151.79 86.967L152.182 86.9502Z"
            fill="#C188D3" />
        <path fill-rule="evenodd" clip-rule="evenodd"
            d="M143.442 86.9502L143.102 86.9356L142.09 86.8356L140.434 86.5675L138.182 86.055L135.395 85.2334L132.151 84.0496L128.535 82.4646L124.645 80.4572L120.581 78.0221L116.447 75.1745L112.343 71.9455L108.363 68.3842L104.593 64.5548L101.11 60.5346L97.9715 56.4132L95.2252 52.2871L92.8967 48.2577L90.9952 44.427L89.5135 40.8955L88.4244 37.7572L87.6855 35.097L87.2413 32.9889L87.0221 31.4907L86.9513 30.6445L86.9453 30.4744L86.9175 30.9842L86.7824 32.1607L86.46 33.9701L85.8761 36.3622L84.9684 39.2714L83.6872 42.6182L81.9983 46.3112L79.8829 50.2539L77.3432 54.3449L74.3963 58.4809L71.0793 62.5632L67.4438 66.498L63.5594 70.2023L59.5055 73.6047L55.3735 76.6482L51.262 79.2926L47.2724 81.5145L43.5078 83.3087L40.0657 84.6898L37.0393 85.6869L34.5108 86.3463L32.5504 86.727L31.2124 86.9018L30.5331 86.9482V86.9521L31.2124 86.9985L32.5504 87.1733L34.5108 87.554L37.0393 88.2134L40.0657 89.2105L43.5078 90.5916L47.2724 92.3858L51.262 94.6077L55.3735 97.2521L59.5055 100.296L63.5594 103.698L67.4438 107.402L71.0793 111.337L74.3963 115.419L77.3432 119.555L79.8829 123.646L81.9983 127.589L83.6872 131.282L84.9684 134.629L85.8761 137.538L86.46 139.93L86.7824 141.74L86.9175 142.916L86.9453 143.426L86.9513 143.256L87.0221 142.41L87.2413 140.911L87.6855 138.803L88.4244 136.143L89.5135 133.005L90.9952 129.473L92.8967 125.643L95.2252 121.613L97.9715 117.487L101.11 113.366L104.593 109.346L108.363 105.516L112.343 101.955L116.447 98.7259L120.581 95.8783L124.645 93.4431L128.535 91.4357L132.151 89.8507L135.395 88.6669L138.182 87.8453L140.434 87.3328L142.09 87.0647L143.102 86.9647L143.442 86.9502Z"
            fill="#AF66C7" />
        <path fill-rule="evenodd" clip-rule="evenodd"
            d="M135.873 86.9501L135.578 86.9375L134.702 86.8509L133.268 86.6187L131.318 86.1749L128.904 85.4634L126.094 84.4382L122.963 83.0655L119.594 81.327L116.075 79.2182L112.495 76.7521L108.94 73.9557L105.493 70.8715L102.229 67.5551L99.2122 64.0736L96.4944 60.5043L94.116 56.9311L92.0994 53.4415L90.4527 50.124L89.1695 47.0656L88.2263 44.3478L87.5864 42.044L87.2017 40.2183L87.0119 38.9208L86.9505 38.188L86.9454 38.0406L86.9213 38.4821L86.8043 39.501L86.5251 41.0681L86.0194 43.1397L85.2333 45.6591L84.1238 48.5575L82.6611 51.7558L80.8292 55.1702L78.6297 58.7131L76.0776 62.295L73.205 65.8304L70.0566 69.238L66.6926 72.446L63.1818 75.3926L59.6034 78.0284L56.0427 80.3185L52.5876 82.2427L49.3274 83.7966L46.3464 84.9926L43.7255 85.8561L41.5358 86.4272L39.838 86.7569L38.6792 86.9083L38.0909 86.9484V86.9518L38.6792 86.992L39.838 87.1433L41.5358 87.473L43.7255 88.0441L46.3464 88.9076L49.3274 90.1037L52.5876 91.6575L56.0427 93.5818L59.6034 95.8718L63.1818 98.5076L66.6926 101.454L70.0566 104.662L73.205 108.07L76.0776 111.605L78.6297 115.187L80.8292 118.73L82.6611 122.144L84.1238 125.343L85.2333 128.241L86.0194 130.761L86.5251 132.832L86.8043 134.399L86.9213 135.418L86.9454 135.86L86.9505 135.712L87.0119 134.979L87.2017 133.682L87.5864 131.856L88.2263 129.552L89.1695 126.835L90.4527 123.776L92.0994 120.459L94.116 116.969L96.4944 113.396L99.2122 109.827L102.229 106.345L105.493 103.029L108.94 99.9445L112.495 97.1482L116.075 94.6821L119.594 92.5732L122.963 90.8347L126.094 89.4621L128.904 88.4369L131.318 87.7253L133.268 87.2815L134.702 87.0493L135.578 86.9627L135.873 86.9501Z"
            fill="#9D44BB" />
        <path fill-rule="evenodd" clip-rule="evenodd"
            d="M129.318 86.9502L129.063 86.9393L128.304 86.8643L127.062 86.6632L125.373 86.2789L123.283 85.6627L120.849 84.7748L118.138 83.586L115.22 82.0805L112.172 80.2541L109.072 78.1185L105.993 75.6967L103.008 73.0258L100.181 70.1537L97.5686 67.1386L95.2149 64.0475L93.1552 60.953L91.4088 57.9309L89.9827 55.0578L88.8714 52.4092L88.0546 50.0555L87.5004 48.0603L87.1672 46.4793L87.0029 45.3556L86.9497 44.721L86.9453 44.5934L86.9244 44.9757L86.8231 45.8581L86.5813 47.2152L86.1433 49.0093L85.4626 51.1911L84.5017 53.7012L83.235 56.471L81.6485 59.428L79.7437 62.4963L77.5335 65.5983L75.0458 68.66L72.3192 71.6111L69.4059 74.3893L66.3655 76.9411L63.2664 79.2238L60.1828 81.207L57.1906 82.8735L54.3671 84.2192L51.7855 85.255L49.5158 86.0028L47.6194 86.4974L46.1491 86.7829L45.1456 86.914L44.6361 86.9487V86.9517L45.1456 86.9865L46.1491 87.1176L47.6194 87.4031L49.5158 87.8977L51.7855 88.6455L54.3671 89.6813L57.1906 91.027L60.1828 92.6934L63.2664 94.6767L66.3655 96.9593L69.4059 99.5111L72.3192 102.289L75.0458 105.24L77.5335 108.302L79.7437 111.404L81.6485 114.472L83.235 117.429L84.5017 120.199L85.4626 122.709L86.1433 124.891L86.5813 126.685L86.8231 128.042L86.9244 128.925L86.9453 129.307L86.9497 129.179L87.0029 128.545L87.1672 127.421L87.5004 125.84L88.0546 123.845L88.8714 121.491L89.9827 118.843L91.4088 115.97L93.1552 112.947L95.2149 109.853L97.5686 106.762L100.181 103.747L103.008 100.875L105.993 98.2037L109.072 95.782L112.172 93.6463L115.22 91.82L118.138 90.3144L120.849 89.1256L123.283 88.2378L125.373 87.6216L127.062 87.2372L128.304 87.0361L129.063 86.9611L129.318 86.9502Z"
            fill="#803899" />
        <path fill-rule="evenodd" clip-rule="evenodd"
            d="M123.641 86.9502L123.42 86.9407L122.763 86.8758L121.688 86.7016L120.225 86.3688L118.415 85.8351L116.307 85.0662L113.959 84.0367L111.432 82.7329L108.793 81.1512L106.108 79.3016L103.441 77.2044L100.856 74.8912L98.4079 72.4039L96.1455 69.7928L94.1071 67.1158L92.3234 64.4359L90.8109 61.8187L89.5759 59.3305L88.6135 57.0368L87.9061 54.9984L87.4262 53.2705L87.1376 51.9013L86.9953 50.9282L86.9493 50.3786L86.9454 50.2681L86.9273 50.5992L86.8396 51.3634L86.6302 52.5386L86.2509 54.0923L85.6613 55.9819L84.8292 58.1557L83.7322 60.5544L82.3582 63.1153L80.7086 65.7724L78.7946 68.4588L76.6401 71.1104L74.2788 73.6661L71.7558 76.0721L69.1227 78.282L66.4389 80.2589L63.7684 81.9764L61.177 83.4196L58.7319 84.585L56.4962 85.482L54.5305 86.1297L52.8882 86.558L51.6149 86.8052L50.7458 86.9188L50.3046 86.9489V86.9515L50.7458 86.9816L51.6149 87.0951L52.8882 87.3424L54.5305 87.7707L56.4962 88.4183L58.7319 89.3153L61.177 90.4807L63.7684 91.9239L66.4389 93.6415L69.1227 95.6183L71.7558 97.8282L74.2788 100.234L76.6401 102.79L78.7946 105.442L80.7086 108.128L82.3582 110.785L83.7322 113.346L84.8292 115.745L85.6613 117.918L86.2509 119.808L86.6302 121.362L86.8396 122.537L86.9273 123.301L86.9454 123.632L86.9493 123.522L86.9953 122.972L87.1376 121.999L87.4262 120.63L87.9061 118.902L88.6135 116.864L89.5759 114.57L90.8109 112.082L92.3234 109.464L94.1071 106.785L96.1455 104.108L98.4079 101.496L100.856 99.0091L103.441 96.696L106.108 94.5987L108.793 92.7491L111.432 91.1675L113.959 89.8636L116.307 88.8341L118.415 88.0652L120.225 87.5316L121.688 87.1987L122.763 87.0246L123.42 86.9596L123.641 86.9502Z"
            fill="#642C77" />
        <path fill-rule="evenodd" clip-rule="evenodd"
            d="M118.725 86.9501L118.534 86.9419L117.964 86.8857L117.033 86.7349L115.766 86.4466L114.199 85.9844L112.373 85.3186L110.34 84.427L108.151 83.2978L105.866 81.9281L103.54 80.3263L101.231 78.51L98.9927 76.5068L96.8722 74.3527L94.9129 72.0914L93.1476 69.7731L91.6028 67.4522L90.2931 65.1856L89.2235 63.0308L88.39 61.0444L87.7774 59.2791L87.3617 57.7827L87.1119 56.5969L86.9886 55.7542L86.9487 55.2782L86.9454 55.1825L86.9297 55.4693L86.8538 56.131L86.6724 57.1489L86.3439 58.4944L85.8333 60.1308L85.1127 62.0134L84.1627 64.0907L82.9728 66.3085L81.5442 68.6097L79.8866 70.9362L78.0208 73.2325L75.9758 75.4458L73.7908 77.5294L71.5105 79.4433L69.1863 81.1553L66.8735 82.6427L64.6293 83.8926L62.5118 84.9018L60.5756 85.6787L58.8733 86.2396L57.451 86.6105L56.3483 86.8246L55.5956 86.9229L55.2135 86.949V86.9512L55.5956 86.9773L56.3483 87.0756L57.451 87.2898L58.8733 87.6607L60.5756 88.2216L62.5118 88.9984L64.6293 90.0077L66.8735 91.2575L69.1863 92.745L71.5105 94.457L73.7908 96.3708L75.9758 98.4545L78.0208 100.668L79.8866 102.964L81.5442 105.291L82.9728 107.592L84.1627 109.81L85.1127 111.887L85.8333 113.769L86.3439 115.406L86.6724 116.751L86.8538 117.769L86.9297 118.431L86.9454 118.718L86.9487 118.622L86.9886 118.146L87.1119 117.303L87.3617 116.118L87.7774 114.621L88.39 112.856L89.2235 110.869L90.2931 108.715L91.6028 106.448L93.1476 104.127L94.9129 101.809L96.8722 99.5475L98.9927 97.3935L101.231 95.3902L103.54 93.574L105.866 91.9722L108.151 90.6024L110.34 89.4733L112.373 88.5817L114.199 87.9158L115.766 87.4536L117.033 87.1654L117.964 87.0146L118.534 86.9583L118.725 86.9501Z"
            fill="#471F55" />
        <path fill-rule="evenodd" clip-rule="evenodd"
            d="M114.467 86.9502L114.301 86.9431L113.808 86.8944L113.002 86.7638L111.905 86.5141L110.547 86.1139L108.966 85.5372L107.205 84.7651L105.31 83.7872L103.331 82.6009L101.317 81.2138L99.3172 79.6408L97.3785 77.906L95.5421 76.0405L93.8453 74.0821L92.3165 72.0744L90.9787 70.0645L89.8444 68.1016L88.9181 66.2355L88.1963 64.5151L87.6657 62.9864L87.3058 61.6905L87.0894 60.6635L86.9826 59.9337L86.9481 59.5215L86.9452 59.4386L86.9317 59.6869L86.8659 60.2601L86.7088 61.1415L86.4243 62.3068L85.9822 63.724L85.3581 65.3543L84.5353 67.1534L83.5049 69.074L82.2677 71.0669L80.8321 73.0817L79.2163 75.0703L77.4453 76.9871L75.553 78.7916L73.5782 80.4491L71.5654 81.9317L69.5625 83.2199L67.619 84.3023L65.7851 85.1763L64.1083 85.8491L62.634 86.3348L61.4023 86.656L60.4473 86.8415L59.7955 86.9266L59.4646 86.9492V86.9511L59.7955 86.9737L60.4473 87.0589L61.4023 87.2443L62.634 87.5656L64.1083 88.0513L65.7851 88.7241L67.619 89.5981L69.5625 90.6805L71.5654 91.9686L73.5782 93.4513L75.553 95.1087L77.4453 96.9132L79.2163 98.83L80.8321 100.819L82.2677 102.833L83.5049 104.826L84.5353 106.747L85.3581 108.546L85.9822 110.176L86.4243 111.594L86.7088 112.759L86.8659 113.64L86.9317 114.213L86.9452 114.462L86.9481 114.379L86.9826 113.967L87.0894 113.237L87.3058 112.21L87.6657 110.914L88.1963 109.385L88.9181 107.665L89.8444 105.799L90.9787 103.836L92.3165 101.826L93.8453 99.8182L95.5421 97.8599L97.3785 95.9944L99.3172 94.2595L101.317 92.6866L103.331 91.2994L105.31 90.1132L107.205 89.1353L108.966 88.3632L110.547 87.7865L111.905 87.3862L113.002 87.1366L113.808 87.006L114.301 86.9573L114.467 86.9502Z"
            fill="#2B1333" />
        <path fill-rule="evenodd" clip-rule="evenodd"
            d="M110.78 86.9501L110.636 86.944L110.209 86.9018L109.511 86.7887L108.561 86.5725L107.385 86.2259L106.016 85.7264L104.491 85.0578L102.85 84.2109L101.136 83.1836L99.3916 81.9822L97.6599 80.62L95.9809 79.1176L94.3905 77.5021L92.921 75.8061L91.5971 74.0673L90.4385 72.3267L89.4561 70.6268L88.654 69.0106L88.0288 67.5208L87.5694 66.1968L87.2577 65.0746L87.0702 64.1852L86.9778 63.5531L86.9479 63.1962L86.9454 63.1244L86.9337 63.3395L86.8767 63.8358L86.7407 64.5992L86.4943 65.6083L86.1114 66.8356L85.5709 68.2476L84.8584 69.8056L83.966 71.4689L82.8945 73.1948L81.6513 74.9396L80.2519 76.6619L78.7182 78.3218L77.0795 79.8846L75.3692 81.32L73.626 82.604L71.8915 83.7196L70.2084 84.657L68.6202 85.4139L67.168 85.9965L65.8913 86.4172L64.8246 86.6954L63.9976 86.856L63.4331 86.9297L63.1465 86.9493V86.951L63.4331 86.9705L63.9976 87.0442L64.8246 87.2048L65.8913 87.483L67.168 87.9037L68.6202 88.4863L70.2084 89.2433L71.8915 90.1807L73.626 91.2962L75.3692 92.5802L77.0795 94.0156L78.7182 95.5784L80.2519 97.2384L81.6513 98.9606L82.8945 100.705L83.966 102.431L84.8584 104.095L85.5709 105.653L86.1114 107.065L86.4943 108.292L86.7407 109.301L86.8767 110.064L86.9337 110.561L86.9454 110.776L86.9479 110.704L86.9778 110.347L87.0702 109.715L87.2577 108.826L87.5694 107.703L88.0288 106.379L88.654 104.89L89.4561 103.273L90.4385 101.574L91.5971 99.8329L92.921 98.0942L94.3905 96.3982L95.9809 94.7826L97.6599 93.2802L99.3916 91.918L101.136 90.7167L102.85 89.6893L104.491 88.8425L106.016 88.1738L107.385 87.6744L108.561 87.3277L109.511 87.1116L110.209 86.9984L110.636 86.9563L110.78 86.9501Z"
            fill="#0E0611" />
    </g>
    <defs>
        <filter id="filter0_d_380_5271" x="-0.506639" y="-0.599656" width="175.034" height="175.1"
            filterUnits="userSpaceOnUse" color-interpolation-filters="sRGB">
            <feFlood flood-opacity="0" result="BackgroundImageFix" />
            <feColorMatrix in="SourceAlpha" type="matrix" values="0 0 0 0 0 0 0 0 0 0 0 0 0 0 0 0 0 0 127 0"
                result="hardAlpha" />
            <feOffset />
            <feGaussianBlur stdDeviation="0.299828" />
            <feComposite in2="hardAlpha" operator="out" />
            <feColorMatrix type="matrix" values="0 0 0 0 0 0 0 0 0 0 0 0 0 0 0 0 0 0 1 0" />
            <feBlend mode="normal" in2="BackgroundImageFix" result="effect1_dropShadow_380_5271" />
            <feBlend mode="normal" in="SourceGraphic" in2="effect1_dropShadow_380_5271" result="shape" />
        </filter>
        <clipPath id="clip0_380_5271">
            <rect width="173.9" height="173.9" fill="white" />
        </clipPath>
    </defs>
</svg>