<svg viewBox="0 0 648 151" fill="none" xmlns="http://www.w3.org/2000/svg">
    <path
        d="M75.312 -0.00012207C33.72 -0.00012207 0 33.7119 0 75.3119C0 116.912 33.72 150.624 75.312 150.624C116.904 150.624 150.624 116.904 150.624 75.3119C150.624 33.7199 116.904 -0.00012207 75.312 -0.00012207ZM122.256 122.256C109.712 134.8 93.04 141.704 75.312 141.704C57.584 141.704 40.904 134.8 28.368 122.256C15.824 109.712 8.92 93.0399 8.92 75.3119C8.92 57.5839 15.824 40.9039 28.368 28.3679C40.912 15.8239 57.584 8.91988 75.312 8.91988C93.04 8.91988 109.72 15.8239 122.256 28.3679C134.8 40.9119 141.704 57.5839 141.704 75.3119C141.704 93.0399 134.8 109.72 122.256 122.256Z"
        fill="black" />
    <path
        d="M75.312 25.104C47.584 25.104 25.104 47.584 25.104 75.312C25.104 103.04 47.584 125.52 75.312 125.52C103.04 125.52 125.52 103.04 125.52 75.312C125.52 47.584 103.04 25.104 75.312 25.104ZM75.312 121.064C50.088 121.064 29.56 100.544 29.56 75.312C29.56 50.08 50.08 29.56 75.312 29.56C100.544 29.56 121.064 50.08 121.064 75.312C121.064 100.544 100.544 121.064 75.312 121.064Z"
        fill="black" />
    <path
        d="M408.216 48.2078C404.288 45.5038 399.64 44.1358 394.4 44.1358C389.16 44.1358 384.328 45.4878 380.472 48.1518C378.632 49.4238 376.984 50.9598 375.552 52.7358V45.7518H367.424V128.536H376.416V98.7918C377.616 100.144 378.944 101.344 380.384 102.376C384.184 105.096 388.792 106.48 394.08 106.48C399.368 106.48 404.208 105.112 408.168 102.408C412.12 99.7118 415.176 95.9438 417.248 91.2158C419.312 86.5118 420.36 81.1438 420.36 75.2478C420.36 69.3518 419.312 64.0478 417.248 59.3598C415.176 54.6478 412.136 50.8958 408.224 48.1998L408.216 48.2078ZM408.92 87.0878C407.6 90.5118 405.592 93.2318 402.96 95.1678C400.336 97.0958 397.072 98.0798 393.264 98.0798C389.456 98.0798 386.128 97.1198 383.512 95.2158C380.88 93.3118 378.88 90.6238 377.56 87.2158C376.224 83.7758 375.552 79.7518 375.552 75.2478C375.552 70.7438 376.216 66.6798 377.536 63.2798C378.84 59.9118 380.824 57.2478 383.432 55.3598C386.04 53.4798 389.288 52.5278 393.104 52.5278C396.92 52.5278 400.312 53.4958 402.968 55.4158C405.632 57.3358 407.648 60.0398 408.944 63.4398C410.256 66.8798 410.928 70.8558 410.928 75.2478C410.928 79.6398 410.248 83.6238 408.92 87.0798V87.0878Z"
        fill="black" />
    <path
        d="M472.096 48.3838C468.544 45.6718 463.896 44.2958 458.28 44.2958C453.408 44.2958 449.048 45.3759 445.328 47.5119C443 48.8479 440.968 50.6079 439.272 52.7519V26.3839H431.088V104.864H440.08V73.3679C440.08 69.0479 440.736 65.3038 442.032 62.2478C443.312 59.2239 445.2 56.8718 447.648 55.2718C450.096 53.6638 453.168 52.8559 456.776 52.8559C460.584 52.8559 463.736 53.7839 466.144 55.5999C468.56 57.4319 470.336 59.9438 471.424 63.0718C472.528 66.2478 473.088 70.1599 473.088 74.7118V104.864H482.08V72.3999C482.08 67.4159 481.296 62.7998 479.76 58.6958C478.208 54.5518 475.624 51.0878 472.088 48.3838H472.096Z"
        fill="black" />
    <path
        d="M245.944 56.0798C244.4 52.2558 241.688 49.2718 237.888 47.2158C234.12 45.1758 229.464 44.1438 224.064 44.1438C217.64 44.1438 212.296 45.6158 208.2 48.5118C204.08 51.4238 201.288 55.5998 199.904 60.9278L199.776 61.4078L208.448 63.9518L208.592 63.4478C209.632 59.7838 211.472 57.0398 214.056 55.2878C216.664 53.5278 219.992 52.6318 223.96 52.6318C227.656 52.6318 230.656 53.2158 232.864 54.3758C235.04 55.5118 236.624 57.2798 237.576 59.6238C238.392 61.6398 238.848 64.1918 238.928 67.2238C238.296 67.2958 237.68 67.3838 237.072 67.4718C231.04 68.2558 226.208 68.9198 222.704 69.4318C219.192 69.9518 215.88 70.5998 212.864 71.3518C208.16 72.5518 204.424 74.5918 201.752 77.4158C199.056 80.2638 197.688 84.0718 197.688 88.7438C197.688 91.9758 198.472 94.9758 200.016 97.6558C201.568 100.352 203.904 102.52 206.976 104.096C210.032 105.672 213.76 106.464 218.048 106.464C221.96 106.464 225.568 105.864 228.768 104.68C231.976 103.496 234.792 101.712 237.128 99.3678C238.032 98.4638 238.872 97.4718 239.64 96.3918V104.848H247.712V68.2478C247.712 65.8398 247.592 63.5918 247.36 61.5758C247.12 59.5278 246.648 57.6718 245.952 56.0638L245.944 56.0798ZM238.688 79.2878C238.6 80.8478 238.4 82.3518 238.08 83.7678C237.56 86.6478 236.456 89.2398 234.808 91.4558C233.168 93.6718 230.968 95.4398 228.28 96.7038C225.584 97.9758 222.448 98.6158 218.952 98.6158C216.104 98.6158 213.728 98.1358 211.872 97.1918C210.04 96.2558 208.688 95.0318 207.864 93.5518C207.032 92.0638 206.608 90.4398 206.608 88.7438C206.608 86.0078 207.472 83.9038 209.256 82.3278C211.072 80.7198 213.432 79.5038 216.28 78.7038C219.008 77.9598 222.168 77.3278 225.68 76.8318C229.224 76.3278 233.632 75.7918 238.8 75.2158C238.784 76.7358 238.744 78.0958 238.672 79.2718L238.688 79.2878Z"
        fill="black" />
    <path d="M278.808 92.4958L262.016 45.7518H252.904L274.36 104.864H283.264L304.72 45.7518H295.496L278.808 92.4958Z"
        fill="black" />
    <path
        d="M347.944 74.9038C344.912 73.3918 340.624 71.9278 335.2 70.5598C330.544 69.3838 327 68.3198 324.672 67.3838C322.392 66.4718 320.784 65.4958 319.888 64.4798C319.016 63.4958 318.592 62.3038 318.592 60.8398C318.592 59.1198 319.128 57.6558 320.24 56.3598C321.36 55.0558 322.936 54.0398 324.944 53.3358C326.792 52.6878 328.928 52.3598 331.288 52.3598C331.52 52.3598 331.752 52.3598 332 52.3678C334.824 52.3998 337.368 52.8718 339.56 53.7518C341.728 54.6318 343.504 55.8798 344.848 57.4798C346.184 59.0718 347.048 60.9678 347.424 63.1278L347.512 63.6398L356.568 62.0078L356.512 61.5278C356.104 58.1118 354.8 55.0398 352.632 52.4158C350.472 49.7998 347.576 47.7438 344.04 46.2958C340.512 44.8638 336.504 44.1358 332.12 44.1358C327.736 44.1358 323.792 44.8478 320.416 46.2478C317.008 47.6558 314.32 49.6798 312.424 52.2558C310.52 54.8398 309.552 57.8558 309.552 61.2238C309.552 64.0798 310.216 66.5118 311.52 68.4478C312.824 70.3838 315.008 72.1038 318.016 73.5678C320.976 75.0078 325.184 76.4718 330.528 77.9038C335.616 79.2878 339.368 80.4638 341.688 81.3838C343.936 82.2798 345.464 83.2398 346.224 84.2558C346.976 85.2558 347.36 86.6398 347.36 88.3838C347.36 90.3438 346.816 92.0798 345.736 93.5358C344.648 95.0078 343.064 96.1598 341.016 96.9678C338.936 97.7838 336.448 98.1998 333.624 98.1998C330.8 98.1998 328.064 97.7678 325.736 96.9118C323.416 96.0638 321.472 94.8478 319.96 93.2958C318.456 91.7518 317.408 89.8958 316.864 87.7758L316.744 87.3198L307.688 88.8318L307.792 89.3518C308.488 92.9038 309.984 95.9998 312.24 98.5518C314.488 101.096 317.448 103.072 321.024 104.424C324.584 105.768 328.68 106.448 333.2 106.448C337.976 106.448 342.168 105.72 345.656 104.288C349.176 102.84 351.912 100.72 353.792 97.9998C355.672 95.2718 356.624 92.0078 356.624 88.2958C356.624 85.1598 355.944 82.5118 354.608 80.4078C353.272 78.3118 351.032 76.4638 347.952 74.9278L347.944 74.9038Z"
        fill="black" />
    <path
        d="M534.752 48.1438C530.616 45.4878 525.592 44.1358 519.816 44.1358C514.04 44.1358 509.216 45.4238 505.024 47.9758C500.832 50.5278 497.544 54.2078 495.256 58.9198C492.976 63.6158 491.816 69.2158 491.816 75.5758C491.816 81.9358 492.984 87.1918 495.288 91.8318C497.6 96.4878 500.928 100.136 505.192 102.664C509.448 105.192 514.48 106.472 520.136 106.472C523.912 106.472 527.512 105.84 530.832 104.584C534.16 103.328 537.152 101.464 539.72 99.0478C542.288 96.6318 544.36 93.6718 545.888 90.2478L546.112 89.7518L537.8 86.5358L537.592 86.9598C535.848 90.5118 533.44 93.2478 530.416 95.0798C527.392 96.9198 523.832 97.8558 519.816 97.8558C515.8 97.8558 512.536 96.9678 509.768 95.2158C507 93.4718 504.872 90.8958 503.432 87.5678C502.264 84.8718 501.56 81.6638 501.328 78.0158H547.048L547.064 77.5118C547.248 70.6958 546.272 64.7038 544.176 59.7118C542.064 54.6878 538.896 50.7918 534.76 48.1278L534.752 48.1438ZM501.52 70.3838C501.856 67.5358 502.496 64.9838 503.424 62.7918C504.864 59.4078 507 56.8158 509.784 55.0638C512.576 53.3118 516.016 52.4238 520.024 52.4238C524.032 52.4238 527.12 53.2638 529.752 54.9278C532.376 56.5838 534.384 59.0718 535.736 62.3278C536.68 64.5998 537.328 67.3038 537.672 70.3838H501.512H501.52Z"
        fill="black" />
    <path
        d="M582.688 45.2479C582.232 45.2479 581.76 45.2639 581.288 45.2879C579.184 45.4159 577.096 45.8479 575.064 46.5839C573.016 47.3199 571.216 48.3679 569.736 49.6719C568.48 50.6319 567.304 51.8799 566.24 53.3839C566.176 53.4719 566.112 53.5679 566.048 53.6639V45.7439H557.92V104.864H566.856V75.3599C566.856 72.4559 567.024 69.9279 567.36 67.8319C567.688 65.7599 568.344 63.7119 569.304 61.7359C570.248 59.7919 571.64 58.1039 573.44 56.7199C575.328 55.1759 577.48 54.2159 579.832 53.8719C580.744 53.7359 581.672 53.6719 582.568 53.6719C584.008 53.6719 585.456 53.8479 586.864 54.1839L587.504 54.3359V45.8559L587.112 45.7599C585.744 45.4159 584.256 45.2479 582.688 45.2479Z"
        fill="black" />
    <path
        d="M644.744 59.7278C642.632 54.7038 639.464 50.8078 635.328 48.1438C631.192 45.4878 626.168 44.1358 620.392 44.1358C614.616 44.1358 609.792 45.4238 605.6 47.9758C601.408 50.5278 598.12 54.2078 595.832 58.9198C593.552 63.6158 592.392 69.2158 592.392 75.5758C592.392 81.9358 593.56 87.1918 595.864 91.8318C598.176 96.4878 601.512 100.136 605.768 102.664C610.024 105.192 615.056 106.472 620.712 106.472C624.488 106.472 628.088 105.84 631.408 104.584C634.736 103.328 637.728 101.464 640.296 99.0478C642.864 96.6318 644.936 93.6718 646.464 90.2478L646.688 89.7518L638.376 86.5358L638.168 86.9598C636.424 90.5118 634.016 93.2478 630.992 95.0798C627.968 96.9198 624.408 97.8558 620.4 97.8558C616.392 97.8558 613.12 96.9678 610.352 95.2158C607.584 93.4718 605.456 90.8958 604.016 87.5678C602.848 84.8718 602.144 81.6638 601.912 78.0158H647.632L647.648 77.5118C647.832 70.6958 646.856 64.7038 644.76 59.7118L644.744 59.7278ZM602.096 70.3838C602.432 67.5278 603.072 64.9758 604.008 62.7918C605.448 59.4078 607.584 56.8158 610.368 55.0638C613.16 53.3118 616.6 52.4238 620.608 52.4238C624.616 52.4238 627.704 53.2638 630.336 54.9278C632.96 56.5838 634.968 59.0718 636.32 62.3278C637.264 64.5998 637.912 67.3038 638.256 70.3838H602.096Z"
        fill="black" />
    <path
        d="M177.912 116.088C177.872 118.096 178.288 119.96 175.56 119.96H168.552V128.536H177.664C186.488 128.536 186.488 121.824 186.488 118.608V45.7518H177.912V116.088Z"
        fill="black" />
    <path
        d="M182.2 38.1838C185.456 38.1838 188.096 35.5441 188.096 32.2878C188.096 29.0316 185.456 26.3918 182.2 26.3918C178.944 26.3918 176.304 29.0316 176.304 32.2878C176.304 35.5441 178.944 38.1838 182.2 38.1838Z"
        fill="black" />
</svg>