<svg viewBox="0 0 699 174" fill="none" xmlns="http://www.w3.org/2000/svg">
    <path
        d="M207.184 110.3V65.804H242.472C244.161 65.804 245.686 66.216 247.045 67.04C248.446 67.864 249.559 68.9764 250.383 70.3772C251.248 71.7368 251.68 73.2612 251.68 74.9504V101.154C251.68 102.802 251.248 104.326 250.383 105.727C249.559 107.128 248.446 108.24 247.045 109.064C245.686 109.888 244.161 110.3 242.472 110.3H207.184ZM216.702 100.659H241.978V75.4448H216.702V100.659ZM257.394 110.3V65.804H267.282L282.361 83.7878L297.379 65.804H307.328V110.3H297.688V80.4506L282.361 98.7434L266.973 80.5124V110.3H257.394ZM323.874 110.3C322.185 110.3 320.64 109.888 319.239 109.064C317.88 108.24 316.788 107.148 315.964 105.789C315.14 104.388 314.728 102.843 314.728 101.154V74.9504C314.728 73.2612 315.14 71.7368 315.964 70.3772C316.788 68.9764 317.88 67.864 319.239 67.04C320.64 66.216 322.185 65.804 323.874 65.804H359.1V75.4448H326.346C325.687 75.4448 325.172 75.6096 324.801 75.9392C324.472 76.2688 324.307 76.7838 324.307 77.4842V98.6198C324.307 99.279 324.472 99.794 324.801 100.165C325.172 100.494 325.687 100.659 326.346 100.659H359.1V110.3H323.874ZM394.483 110.3C392.835 110.3 391.31 109.888 389.91 109.064C388.509 108.24 387.396 107.128 386.572 105.727C385.748 104.326 385.336 102.802 385.336 101.154V65.804H394.915V100.659H420.13V65.804H429.832V101.154C429.832 102.802 429.4 104.326 428.535 105.727C427.711 107.128 426.598 108.24 425.197 109.064C423.838 109.888 422.334 110.3 420.686 110.3H394.483ZM436.515 110.3V74.456H463.892C465.54 74.456 467.044 74.868 468.403 75.692C469.763 76.516 470.834 77.6078 471.617 78.9674C472.441 80.327 472.853 81.8102 472.853 83.417V110.3H463.398V83.9114H445.97V110.3H436.515ZM479.422 110.3V74.456H488.877V110.3H479.422ZM479.422 72.2312V62.714H488.877V72.2312H479.422ZM511.946 110.3L492.232 74.456H503.108L516.025 98.249L528.941 74.456H539.818L520.042 110.3H511.946ZM550 110.3C548.393 110.3 546.91 109.888 545.55 109.064C544.191 108.24 543.099 107.148 542.275 105.789C541.451 104.429 541.039 102.946 541.039 101.339V83.417C541.039 81.8102 541.451 80.327 542.275 78.9674C543.099 77.6078 544.191 76.516 545.55 75.692C546.91 74.868 548.393 74.456 550 74.456H568.417C570.065 74.456 571.568 74.868 572.928 75.692C574.288 76.516 575.359 77.6078 576.142 78.9674C576.966 80.327 577.378 81.8102 577.378 83.417V97.1366H550.494V100.845H577.378V110.3H550ZM550.494 88.8554H567.922V83.9114H550.494V88.8554ZM583.468 110.3V83.417C583.468 81.8102 583.88 80.327 584.704 78.9674C585.528 77.6078 586.619 76.516 587.979 75.692C589.339 74.868 590.842 74.456 592.49 74.456H612.266V83.9114H592.923V110.3H583.468ZM625.918 110.3C624.311 110.3 622.828 109.888 621.468 109.064C620.109 108.24 619.017 107.148 618.193 105.789C617.369 104.429 616.957 102.946 616.957 101.339V99.5468H626.412V100.845H643.84V97.1366H625.918C624.311 97.1366 622.828 96.7246 621.468 95.9006C620.109 95.0766 619.017 93.9848 618.193 92.6252C617.369 91.2656 616.957 89.7824 616.957 88.1756V83.417C616.957 81.8102 617.369 80.327 618.193 78.9674C619.017 77.6078 620.109 76.516 621.468 75.692C622.828 74.868 624.311 74.456 625.918 74.456H644.334C645.982 74.456 647.486 74.868 648.846 75.692C650.205 76.516 651.297 77.6078 652.121 78.9674C652.945 80.327 653.357 81.8102 653.357 83.417V85.2092H643.84V83.9114H626.412V87.6194H644.334C645.982 87.6194 647.486 88.0314 648.846 88.8554C650.205 89.6794 651.297 90.7712 652.121 92.1308C652.945 93.4904 653.357 94.9736 653.357 96.5804V101.339C653.357 102.946 652.945 104.429 652.121 105.789C651.297 107.148 650.205 108.24 648.846 109.064C647.486 109.888 645.982 110.3 644.334 110.3H625.918ZM667.203 110.3C665.596 110.3 664.113 109.888 662.753 109.064C661.394 108.24 660.302 107.148 659.478 105.789C658.654 104.429 658.242 102.946 658.242 101.339V83.417C658.242 81.8102 658.654 80.327 659.478 78.9674C660.302 77.6078 661.394 76.516 662.753 75.692C664.113 74.868 665.596 74.456 667.203 74.456H685.619C687.267 74.456 688.771 74.868 690.131 75.692C691.49 76.516 692.561 77.6078 693.344 78.9674C694.168 80.327 694.58 81.8102 694.58 83.417V97.1366H667.697V100.845H694.58V110.3H667.203ZM667.697 88.8554H685.125V83.9114H667.697V88.8554Z"
        fill="white" />
    <g clip-path="url(#clip0_373_4926)">
        <path fill-rule="evenodd" clip-rule="evenodd"
            d="M174.028 87L173.504 86.9776L171.944 86.8236L169.394 86.4105L165.925 85.6211L161.632 84.3553L156.633 82.5317L151.063 80.0901L145.07 76.9977L138.811 73.2464L132.443 68.8597L126.119 63.8856L119.988 58.3995L114.181 52.5003L108.815 46.3073L103.981 39.9583L99.7502 33.6022L96.1632 27.395L93.234 21.4937L90.9514 16.0535L89.2736 11.2191L88.1354 7.12107L87.451 3.87365L87.1134 1.56557L87.0043 0.262119L86.9951 0L86.9523 0.785337L86.7442 2.59773L86.2475 5.38517L85.348 9.07013L83.9496 13.5516L81.9761 18.7073L79.3743 24.3964L76.1157 30.47L72.2033 36.7721L67.6636 43.1435L62.5538 49.4323L56.9534 55.4937L50.9696 61.2002L44.7246 66.4415L38.3593 71.1301L32.0256 75.2036L25.8796 78.6265L20.0803 81.3904L14.7778 83.518L10.1158 85.054L6.22068 86.0698L3.20071 86.6563L1.13945 86.9255L0.0930176 86.9969V87.0031L1.13945 87.0745L3.20071 87.3437L6.22068 87.9302L10.1158 88.946L14.7778 90.482L20.0803 92.6095L25.8796 95.3735L32.0256 98.7964L38.3593 102.87L44.7246 107.558L50.9696 112.8L56.9534 118.506L62.5538 124.568L67.6636 130.856L72.2033 137.228L76.1157 143.53L79.3743 149.604L81.9761 155.293L83.9496 160.448L85.348 164.93L86.2475 168.615L86.7442 171.402L86.9523 173.215L86.9951 174L87.0043 173.738L87.1134 172.434L87.451 170.126L88.1354 166.879L89.2736 162.781L90.9514 157.946L93.234 152.506L96.1632 146.605L99.7502 140.398L103.981 134.042L108.815 127.693L114.181 121.5L119.988 115.601L126.119 110.114L132.443 105.14L138.811 100.754L145.07 97.0023L151.063 93.9099L156.633 91.4683L161.632 89.6446L165.925 88.3789L169.394 87.5895L171.944 87.1764L173.504 87.0224L174.028 87Z"
            fill="#DCDCDC" />
        <path fill-rule="evenodd" clip-rule="evenodd"
            d="M162.368 87L161.914 86.9805L160.563 86.8472L158.355 86.4894L155.35 85.8058L151.632 84.7096L147.303 83.1304L142.48 81.0158L137.29 78.3377L131.869 75.089L126.354 71.2901L120.878 66.9823L115.568 62.2312L110.539 57.1223L105.892 51.7591L101.705 46.2607L98.0414 40.7561L94.9349 35.3805L92.3981 30.2699L90.4214 25.5585L88.9684 21.3718L87.9826 17.8228L87.39 15.0104L87.0976 13.0116L87.0031 11.8828L86.9951 11.6558L86.958 12.3359L86.7778 13.9055L86.3477 16.3195L85.5686 19.5107L84.3577 23.3918L82.6485 27.8568L80.3953 32.7837L77.5732 38.0436L74.185 43.5013L70.2535 49.0192L65.8283 54.4654L60.9783 59.7147L55.7961 64.6567L50.3878 69.1958L44.8753 73.2562L39.3902 76.784L34.0675 79.7483L29.0453 82.142L24.4531 83.9845L20.4157 85.3147L17.0424 86.1944L14.4271 86.7023L12.642 86.9355L11.7357 86.9973V87.0026L12.642 87.0645L14.4271 87.2976L17.0424 87.8055L20.4157 88.6853L24.4531 90.0155L29.0453 91.858L34.0675 94.2517L39.3902 97.2159L44.8753 100.744L50.3878 104.804L55.7961 109.343L60.9783 114.285L65.8283 119.535L70.2535 124.981L74.185 130.499L77.5732 135.956L80.3953 141.216L82.6485 146.143L84.3577 150.608L85.5686 154.489L86.3477 157.681L86.7778 160.094L86.958 161.664L86.9951 162.344L87.0031 162.117L87.0976 160.988L87.39 158.99L87.9826 156.177L88.9684 152.628L90.4214 148.441L92.3981 143.73L94.9349 138.619L98.0414 133.244L101.705 127.739L105.892 122.241L110.539 116.878L115.568 111.769L120.878 107.018L126.354 102.71L131.869 98.9109L137.29 95.6623L142.48 92.9842L147.303 90.8696L151.632 89.2903L155.35 88.1942L158.355 87.5105L160.563 87.1528L161.914 87.0194L162.368 87Z"
            fill="#C5C5C5" />
        <path fill-rule="evenodd" clip-rule="evenodd"
            d="M152.27 87L151.876 86.9832L150.707 86.8677L148.795 86.5579L146.192 85.9658L142.973 85.0165L139.224 83.6488L135.046 81.8175L130.552 79.4983L125.857 76.6848L121.081 73.3948L116.338 69.6642L111.74 65.5496L107.385 61.1252L103.36 56.4805L99.7345 51.7188L96.5615 46.9517L93.8712 42.2962L91.6743 37.8703L89.9624 33.7901L88.704 30.1643L87.8504 27.0908L87.3371 24.6552L87.0839 22.9242L87.0021 21.9466L86.9952 21.75L86.963 22.339L86.807 23.6983L86.4345 25.7889L85.7598 28.5526L84.7111 31.9137L83.2309 35.7805L81.2796 40.0473L78.8356 44.6025L75.9013 49.3291L72.4965 54.1077L68.6642 58.8243L64.4639 63.3703L59.976 67.6501L55.2923 71.5811L50.5183 75.0976L45.7681 78.1527L41.1585 80.7199L36.8091 82.7928L32.8322 84.3885L29.3357 85.5405L26.4144 86.3024L24.1494 86.7422L22.6034 86.9442L21.8186 86.9977V87.0023L22.6034 87.0558L24.1494 87.2578L26.4144 87.6976L29.3357 88.4595L32.8322 89.6115L36.8091 91.2072L41.1585 93.2801L45.7681 95.8473L50.5183 98.9024L55.2923 102.419L59.976 106.35L64.4639 110.63L68.6642 115.176L72.4965 119.892L75.9013 124.671L78.8356 129.397L81.2796 133.953L83.2309 138.22L84.7111 142.086L85.7598 145.447L86.4345 148.211L86.807 150.302L86.963 151.661L86.9952 152.25L87.0021 152.053L87.0839 151.076L87.3371 149.345L87.8504 146.909L88.704 143.836L89.9624 140.21L91.6743 136.13L93.8712 131.704L96.5615 127.048L99.7345 122.281L103.36 117.52L107.385 112.875L111.74 108.45L116.338 104.336L121.081 100.605L125.857 97.3152L130.552 94.5018L135.046 92.1825L139.224 90.3512L142.973 88.9835L146.192 88.0342L148.795 87.4421L150.707 87.1323L151.876 87.0168L152.27 87Z"
            fill="#AEAEAE" />
        <path fill-rule="evenodd" clip-rule="evenodd"
            d="M143.525 87L143.184 86.9854L142.171 86.8854L140.515 86.6171L138.261 86.1043L135.473 85.2822L132.226 84.0978L128.609 82.5118L124.716 80.5033L120.651 78.0668L116.514 75.2175L112.407 71.9867L108.425 68.4234L104.653 64.5917L101.168 60.5693L98.0278 56.4455L95.2799 52.3171L92.95 48.2854L91.0475 44.4524L89.5649 40.9189L88.4751 37.7788L87.7358 35.1171L87.2913 33.0078L87.0721 31.5087L87.0012 30.6621L86.9952 30.4918L86.9674 31.0019L86.8323 32.1791L86.5096 33.9896L85.9254 36.383L85.0171 39.2939L83.7353 42.6426L82.0453 46.3378L79.9288 50.2827L77.3876 54.376L74.439 58.5144L71.1201 62.5991L67.4826 66.5361L63.596 70.2425L59.5397 73.6469L55.4053 76.6922L51.2915 79.338L47.2995 81.5612L43.5328 83.3565L40.0887 84.7384L37.0606 85.736L34.5307 86.3958L32.5692 86.7767L31.2303 86.9516L30.5507 86.998V87.002L31.2303 87.0483L32.5692 87.2232L34.5307 87.6041L37.0606 88.2639L40.0887 89.2616L43.5328 90.6435L47.2995 92.4387L51.2915 94.6619L55.4053 97.3078L59.5397 100.353L63.596 103.757L67.4826 107.464L71.1201 111.401L74.439 115.486L77.3876 119.624L79.9288 123.717L82.0453 127.662L83.7353 131.357L85.0171 134.706L85.9254 137.617L86.5096 140.01L86.8323 141.821L86.9674 142.998L86.9952 143.508L87.0012 143.338L87.0721 142.491L87.2913 140.992L87.7358 138.883L88.4751 136.221L89.5649 133.081L91.0475 129.548L92.95 125.715L95.2799 121.683L98.0278 117.554L101.168 113.431L104.653 109.408L108.425 105.577L112.407 102.013L116.514 98.7824L120.651 95.9332L124.716 93.4967L128.609 91.4881L132.226 89.9022L135.473 88.7177L138.261 87.8956L140.515 87.3829L142.171 87.1146L143.184 87.0146L143.525 87Z"
            fill="#979797" />
        <path fill-rule="evenodd" clip-rule="evenodd"
            d="M135.951 87L135.656 86.9874L134.779 86.9008L133.345 86.6684L131.393 86.2244L128.978 85.5124L126.167 84.4866L123.034 83.1132L119.662 81.3737L116.142 79.2636L112.559 76.7961L109.002 73.9982L105.554 70.9122L102.287 67.5939L99.269 64.1104L96.5497 60.5391L94.17 56.9637L92.1522 53.4722L90.5046 50.1527L89.2206 47.0926L88.2769 44.3732L87.6366 42.0681L87.2517 40.2414L87.0618 38.9431L87.0004 38.2099L86.9952 38.0625L86.9711 38.5043L86.8541 39.5237L86.5747 41.0917L86.0687 43.1644L85.2821 45.6853L84.172 48.5854L82.7085 51.7855L80.8755 55.2019L78.6748 58.7468L76.1212 62.3307L73.247 65.8682L70.0968 69.2777L66.7309 72.4876L63.2181 75.4359L59.6376 78.0732L56.0749 80.3645L52.6177 82.2899L49.3557 83.8446L46.373 85.0414L43.7506 85.9054L41.5596 86.4768L39.8609 86.8067L38.7014 86.9581L38.1128 86.9983V87.0017L38.7014 87.0419L39.8609 87.1933L41.5596 87.5232L43.7506 88.0946L46.373 88.9586L49.3557 90.1554L52.6177 91.7101L56.0749 93.6355L59.6376 95.9268L63.2181 98.5641L66.7309 101.512L70.0968 104.722L73.247 108.132L76.1212 111.669L78.6748 115.253L80.8755 118.798L82.7085 122.215L84.172 125.415L85.2821 128.315L86.0687 130.836L86.5747 132.908L86.8541 134.476L86.9711 135.496L86.9952 135.938L87.0004 135.79L87.0618 135.057L87.2517 133.759L87.6366 131.932L88.2769 129.627L89.2206 126.907L90.5046 123.847L92.1522 120.528L94.17 117.036L96.5497 113.461L99.269 109.89L102.287 106.406L105.554 103.088L109.002 100.002L112.559 97.2039L116.142 94.7364L119.662 92.6263L123.034 90.8868L126.167 89.5134L128.978 88.4876L131.393 87.7756L133.345 87.3316L134.779 87.0993L135.656 87.0126L135.951 87Z"
            fill="#808080" />
        <path fill-rule="evenodd" clip-rule="evenodd"
            d="M129.392 87L129.137 86.9891L128.377 86.9141L127.135 86.7128L125.445 86.3283L123.353 85.7117L120.918 84.8233L118.205 83.6339L115.286 82.1275L112.237 80.3001L109.134 78.1632L106.054 75.7401L103.067 73.0676L100.238 70.1938L97.6245 67.177L95.2694 64.0842L93.2085 60.9879L91.4612 57.9641L90.0342 55.0893L88.9223 52.4392L88.105 50.0842L87.5505 48.0878L87.2171 46.5059L87.0527 45.3815L86.9995 44.7466L86.995 44.6189L86.9742 45.0015L86.8728 45.8844L86.6309 47.2422L86.1926 49.0373L85.5115 51.2204L84.5501 53.732L83.2826 56.5034L81.6952 59.4621L79.7893 62.532L77.5779 65.6358L75.0887 68.6993L72.3606 71.6521L69.4456 74.4319L66.4034 76.9852L63.3026 79.2692L60.2172 81.2535L57.2233 82.9209L54.3982 84.2674L51.8152 85.3038L49.5441 86.052L47.6466 86.5469L46.1755 86.8326L45.1714 86.9637L44.6616 86.9985V87.0015L45.1714 87.0363L46.1755 87.1674L47.6466 87.4531L49.5441 87.948L51.8152 88.6962L54.3982 89.7326L57.2233 91.0791L60.2172 92.7465L63.3026 94.7309L66.4034 97.0149L69.4456 99.5681L72.3606 102.348L75.0887 105.301L77.5779 108.364L79.7893 111.468L81.6952 114.538L83.2826 117.497L84.5501 120.268L85.5115 122.78L86.1926 124.963L86.6309 126.758L86.8728 128.116L86.9742 128.999L86.995 129.381L86.9995 129.253L87.0527 128.618L87.2171 127.494L87.5505 125.912L88.105 123.916L88.9223 121.561L90.0342 118.911L91.4612 116.036L93.2085 113.012L95.2694 109.916L97.6245 106.823L100.238 103.806L103.067 100.932L106.054 98.2599L109.134 95.8368L112.237 93.6999L115.286 91.8725L118.205 90.3661L120.918 89.1767L123.353 88.2883L125.445 87.6717L127.135 87.2872L128.377 87.086L129.137 87.0109L129.392 87Z"
            fill="#696969" />
        <path fill-rule="evenodd" clip-rule="evenodd"
            d="M123.712 87L123.491 86.9905L122.833 86.9256L121.757 86.7513L120.294 86.4183L118.482 85.8843L116.374 85.115L114.024 84.0849L111.496 82.7803L108.855 81.1977L106.168 79.3471L103.501 77.2486L100.914 74.9342L98.4642 72.4454L96.2006 69.8328L94.161 67.1543L92.3762 64.4728L90.863 61.8541L89.6272 59.3645L88.6642 57.0694L87.9564 55.0299L87.4762 53.3011L87.1875 51.9311L87.0451 50.9574L86.9991 50.4075L86.9952 50.2969L86.9771 50.6282L86.8893 51.3928L86.6798 52.5687L86.3003 54.1233L85.7104 56.014L84.8778 58.189L83.7802 60.5891L82.4054 63.1514L80.7549 65.8101L78.8397 68.4981L76.684 71.1511L74.3214 73.7083L71.7969 76.1157L69.1623 78.3269L66.477 80.3049L63.8049 82.0234L61.2121 83.4674L58.7655 84.6335L56.5285 85.531L54.5617 86.179L52.9185 86.6076L51.6444 86.855L50.7748 86.9686L50.3334 86.9987V87.0013L50.7748 87.0314L51.6444 87.145L52.9185 87.3924L54.5617 87.821L56.5285 88.469L58.7655 89.3665L61.2121 90.5326L63.8049 91.9766L66.477 93.6951L69.1623 95.6731L71.7969 97.8843L74.3214 100.292L76.684 102.849L78.8397 105.502L80.7549 108.19L82.4054 110.849L83.7802 113.411L84.8778 115.811L85.7104 117.986L86.3003 119.877L86.6798 121.431L86.8893 122.607L86.9771 123.372L86.9952 123.703L86.9991 123.593L87.0451 123.043L87.1875 122.069L87.4762 120.699L87.9564 118.97L88.6642 116.931L89.6272 114.635L90.863 112.146L92.3762 109.527L94.161 106.846L96.2006 104.167L98.4642 101.555L100.914 99.0658L103.501 96.7514L106.168 94.6529L108.855 92.8023L111.496 91.2197L114.024 89.9151L116.374 88.885L118.482 88.1157L120.294 87.5817L121.757 87.2487L122.833 87.0744L123.491 87.0095L123.712 87Z"
            fill="#525252" />
        <path fill-rule="evenodd" clip-rule="evenodd"
            d="M118.793 87.0001L118.601 86.9919L118.032 86.9356L117.1 86.7847L115.832 86.4963L114.264 86.0338L112.438 85.3676L110.403 84.4755L108.213 83.3457L105.926 81.9751L103.6 80.3724L101.289 78.5551L99.0494 76.5507L96.9277 74.3954L94.9673 72.1328L93.201 69.8132L91.6553 67.4909L90.3448 65.2231L89.2746 63.0671L88.4406 61.0795L87.8276 59.3132L87.4118 57.8159L87.1618 56.6295L87.0384 55.7862L86.9985 55.31L86.9952 55.2142L86.9795 55.5012L86.9035 56.1633L86.7221 57.1817L86.3934 58.528L85.8825 60.1654L85.1615 62.049L84.2109 64.1276L83.0203 66.3466L81.5909 68.6491L79.9323 70.9769L78.0654 73.2746L76.0193 75.4891L73.8331 77.574L71.5515 79.4889L69.2259 81.2019L66.9118 82.6902L64.6664 83.9408L62.5476 84.9506L60.6103 85.7279L58.907 86.2891L57.4839 86.6602L56.3805 86.8745L55.6274 86.9729L55.2451 86.999V87.0012L55.6274 87.0273L56.3805 87.1256L57.4839 87.3399L58.907 87.7111L60.6103 88.2722L62.5476 89.0495L64.6664 90.0594L66.9118 91.3099L69.2259 92.7982L71.5515 94.5112L73.8331 96.4262L76.0193 98.511L78.0654 100.726L79.9323 103.023L81.5909 105.351L83.0203 107.654L84.2109 109.873L85.1615 111.951L85.8825 113.835L86.3934 115.472L86.7221 116.818L86.9035 117.837L86.9795 118.499L86.9952 118.786L86.9985 118.69L87.0384 118.214L87.1618 117.371L87.4118 116.184L87.8276 114.687L88.4406 112.921L89.2746 110.933L90.3448 108.777L91.6553 106.509L93.201 104.187L94.9673 101.867L96.9277 99.6047L99.0494 97.4494L101.289 95.445L103.6 93.6277L105.926 92.025L108.213 90.6545L110.403 89.5246L112.438 88.6326L114.264 87.9663L115.832 87.5039L117.1 87.2155L118.032 87.0645L118.601 87.0083L118.793 87.0001Z"
            fill="#3A3A3A" />
        <path fill-rule="evenodd" clip-rule="evenodd"
            d="M114.533 87L114.367 86.9929L113.873 86.9442L113.067 86.8135L111.969 86.5637L110.61 86.1632L109.029 85.5862L107.267 84.8137L105.37 83.8352L103.39 82.6483L101.375 81.2603L99.3741 79.6865L97.4343 77.9506L95.5968 76.0841L93.899 74.1246L92.3694 72.1157L91.0308 70.1046L89.8958 68.1406L88.969 66.2734L88.2468 64.5521L87.716 63.0224L87.3558 61.7258L87.1393 60.6983L87.0325 59.968L86.9979 59.5556L86.995 59.4727L86.9815 59.7211L86.9156 60.2946L86.7585 61.1766L86.4738 62.3425L86.0314 63.7605L85.407 65.3918L84.5837 67.1918L83.5527 69.1136L82.3148 71.1076L80.8784 73.1235L79.2616 75.1134L77.4896 77.0312L75.5963 78.8368L73.6204 80.4952L71.6064 81.9787L69.6023 83.2676L67.6577 84.3506L65.8228 85.2251L64.145 85.8983L62.6699 86.3843L61.4375 86.7057L60.4819 86.8912L59.8298 86.9764L59.4987 86.999V87.001L59.8298 87.0236L60.4819 87.1088L61.4375 87.2943L62.6699 87.6157L64.145 88.1017L65.8228 88.7749L67.6577 89.6494L69.6023 90.7324L71.6064 92.0213L73.6204 93.5048L75.5963 95.1632L77.4896 96.9688L79.2616 98.8866L80.8784 100.876L82.3148 102.892L83.5527 104.886L84.5837 106.808L85.407 108.608L86.0314 110.24L86.4738 111.658L86.7585 112.823L86.9156 113.705L86.9815 114.279L86.995 114.527L86.9979 114.444L87.0325 114.032L87.1393 113.302L87.3558 112.274L87.716 110.978L88.2468 109.448L88.969 107.727L89.8958 105.859L91.0308 103.895L92.3694 101.884L93.899 99.8754L95.5968 97.9159L97.4343 96.0494L99.3741 94.3135L101.375 92.7397L103.39 91.3517L105.37 90.1648L107.267 89.1864L109.029 88.4138L110.61 87.8368L111.969 87.4363L113.067 87.1865L113.873 87.0558L114.367 87.0071L114.533 87Z"
            fill="#232323" />
        <path fill-rule="evenodd" clip-rule="evenodd"
            d="M110.843 87L110.7 86.9939L110.273 86.9517L109.574 86.8385L108.623 86.6222L107.447 86.2753L106.077 85.7757L104.551 85.1066L102.909 84.2592L101.194 83.2313L99.4485 82.0293L97.7158 80.6663L96.0359 79.163L94.4445 77.5465L92.9742 75.8496L91.6495 74.1099L90.4903 72.3682L89.5074 70.6673L88.7047 69.0503L88.0792 67.5596L87.6195 66.2349L87.3076 65.1119L87.1201 64.2221L87.0276 63.5896L86.9977 63.2325L86.9952 63.1606L86.9834 63.3758L86.9264 63.8725L86.7903 64.6363L86.5438 65.646L86.1607 66.874L85.6199 68.2867L84.9069 69.8457L84.014 71.5099L82.942 73.2368L81.698 74.9827L80.2979 76.7059L78.7633 78.3668L77.1236 79.9305L75.4124 81.3667L73.6682 82.6514L71.9327 83.7676L70.2485 84.7055L68.6595 85.4629L67.2065 86.0459L65.929 86.4668L64.8617 86.7451L64.0342 86.9058L63.4694 86.9796L63.1826 86.9992V87.0009L63.4694 87.0204L64.0342 87.0942L64.8617 87.2549L65.929 87.5333L67.2065 87.9541L68.6595 88.5371L70.2485 89.2945L71.9327 90.2324L73.6682 91.3486L75.4124 92.6334L77.1236 94.0696L78.7633 95.6332L80.2979 97.2942L81.698 99.0174L82.942 100.763L84.014 102.49L84.9069 104.154L85.6199 105.713L86.1607 107.126L86.5438 108.354L86.7903 109.364L86.9264 110.128L86.9834 110.624L86.9952 110.839L86.9977 110.768L87.0276 110.41L87.1201 109.778L87.3076 108.888L87.6195 107.765L88.0792 106.44L88.7047 104.95L89.5074 103.333L90.4903 101.632L91.6495 99.8902L92.9742 98.1505L94.4445 96.4535L96.0359 94.837L97.7158 93.3337L99.4485 91.9707L101.194 90.7687L102.909 89.7408L104.551 88.8935L106.077 88.2244L107.447 87.7247L108.623 87.3779L109.574 87.1616L110.273 87.0484L110.7 87.0062L110.843 87Z"
            fill="#0C0C0C" />
    </g>
    <defs>
        <clipPath id="clip0_373_4926">
            <rect width="174" height="174" fill="white" />
        </clipPath>
    </defs>
</svg>