<svg viewBox="0 0 744 131" fill="none" xmlns="http://www.w3.org/2000/svg">
    <path d="M314.093 0.186646H295.028V104.027H314.093V0.186646Z" fill="white" />
    <path d="M322.896 104.018H341.942V0L322.896 0.177902V104.018Z" fill="white" />
    <path d="M314.093 0.186646H295.028V104.027H314.093V0.186646Z" fill="white" />
    <path d="M322.896 104.018H341.942V0L322.896 0.177902V104.018Z" fill="white" />
    <path
        d="M609.373 30.9155C598.667 30.9155 590.06 35.6455 583.515 45.0715V31.9295H564.433V104.025H583.515V80.7635C583.515 60.1515 592.087 49.8555 609.231 49.8555H610.903H613.428L613.872 41.8875L614.442 31.5195C613.268 31.1285 611.578 30.9155 609.373 30.9155Z"
        fill="white" />
    <path
        d="M609.373 30.9155C598.667 30.9155 590.06 35.6455 583.515 45.0715V31.9295H564.433V104.025H583.515V80.7635C583.515 60.1515 592.087 49.8555 609.231 49.8555H610.903H613.428L613.872 41.8875L614.442 31.5195C613.268 31.1285 611.578 30.9155 609.373 30.9155Z"
        fill="white" />
    <path
        d="M672.015 80.6126C671.819 78.3546 671.268 76.2556 670.397 74.2996C670.326 74.1396 670.29 73.9616 670.219 73.8016C669.454 72.1656 668.636 70.5466 667.356 69.1246C664.119 65.5146 659.442 63.0246 653.271 61.6726L636.074 57.9206C631.735 56.9606 629.565 54.9326 629.565 51.8566C629.565 49.9356 630.33 48.2816 631.877 46.8766C633.424 45.4896 635.914 44.7786 639.382 44.7786C643.241 44.7786 646.389 45.7026 648.843 47.5346C651.297 49.3666 652.72 51.7676 653.111 54.7546L671.321 51.1446C670.059 44.7786 666.627 39.6386 660.989 35.6726C655.352 31.7246 648.363 29.7506 639.969 29.7506C631.023 29.7506 623.856 31.9736 618.521 36.4026C616.565 38.0386 615.089 39.8876 613.844 41.8796C612.333 44.2806 611.319 46.9306 610.874 49.8466C610.696 51.0556 610.501 52.2826 610.501 53.5986C610.501 58.7916 612.261 63.1846 615.765 66.7416C619.286 70.3156 624.319 72.7696 630.863 74.1216L645.588 77.1446C650.888 78.3006 653.538 80.4706 653.538 83.6536C653.538 85.7696 652.524 87.5126 650.514 88.8466C648.487 90.1986 645.748 90.8736 642.28 90.8736C633.229 90.8736 628.267 87.6016 627.413 81.0576L608.189 84.9516C609.06 92.0836 612.528 97.4006 618.592 100.922C624.657 104.443 631.966 106.186 640.555 106.186C650.176 106.186 657.859 104.105 663.603 99.9796C669.241 95.9066 672.068 90.0206 672.157 82.4086C672.157 82.2846 672.051 81.1106 672.015 80.6126Z"
        fill="white" />
    <path
        d="M255.128 29.7506C255.039 29.7506 254.968 29.7686 254.879 29.7686C234.641 29.9106 218.244 46.3436 218.244 66.6166C218.244 66.8656 218.298 67.0966 218.315 67.3456C218.315 67.5596 218.262 67.7546 218.262 67.9506C218.262 89.0596 234.765 106.168 255.11 106.168C268.359 106.168 279.901 98.8586 286.392 87.9756L270.031 81.9816C266.35 86.4276 261.103 89.3446 255.11 89.3446C247.303 89.3446 240.599 84.5076 237.309 77.5356C243.106 78.4606 249.064 78.9586 255.128 78.9586C257.155 78.9586 259.147 78.8166 261.139 78.7096C265.069 78.4966 268.946 78.1406 272.769 77.5536C279.154 76.5576 285.396 75.0646 291.407 73.0906C291.727 71.2586 291.887 69.3556 291.94 67.4346C291.94 67.1506 292.012 66.8836 292.012 66.5986C291.994 46.2726 275.49 29.7506 255.128 29.7506ZM255.128 62.1526C249.259 62.1526 243.373 61.5306 237.575 60.2676C238.874 55.9996 241.47 52.4436 244.813 49.9886C245.987 49.2246 247.125 48.4066 248.441 47.9086C249.135 47.6416 249.846 47.3746 250.593 47.1966C251.127 47.0546 251.678 47.0186 252.211 46.9126C253.172 46.7696 254.132 46.6096 255.128 46.6096C256.142 46.6096 257.12 46.7696 258.08 46.9306C258.596 47.0186 259.129 47.0726 259.645 47.2146C260.41 47.4106 261.121 47.6766 261.85 47.9436C263.166 48.4416 264.304 49.2596 265.478 50.0426C268.804 52.4786 271.4 56.0356 272.681 60.3036C266.865 61.5126 260.997 62.1526 255.128 62.1526Z"
        fill="white" />
    <path
        d="M524.494 29.7506C524.405 29.7506 524.334 29.7686 524.245 29.7686C504.007 29.9106 487.611 46.3436 487.611 66.6166C487.611 66.8656 487.664 67.0966 487.682 67.3456C487.682 67.5596 487.628 67.7546 487.628 67.9506C487.628 89.0596 504.132 106.168 524.476 106.168C537.725 106.168 549.267 98.8586 555.758 87.9756L539.397 81.9816C535.716 86.4276 530.469 89.3446 524.476 89.3446C516.669 89.3446 509.965 84.5076 506.675 77.5356C512.472 78.4606 518.43 78.9586 524.494 78.9586C526.521 78.9586 528.513 78.8166 530.505 78.7096C534.435 78.4966 538.312 78.1406 542.136 77.5536C548.52 76.5576 554.762 75.0646 560.773 73.0906C561.093 71.2586 561.253 69.3556 561.307 67.4346C561.307 67.1506 561.378 66.8836 561.378 66.5986C561.36 46.2726 544.857 29.7506 524.494 29.7506ZM524.494 62.1526C518.625 62.1526 512.739 61.5306 506.942 60.2676C507.013 60.0546 507.155 59.8946 507.226 59.6816C508.578 55.6976 510.996 52.3186 514.162 49.9886C515.335 49.2246 516.474 48.4066 517.79 47.9086C518.483 47.6416 519.195 47.3746 519.941 47.1966C520.475 47.0546 521.026 47.0186 521.56 46.9126C522.52 46.7696 523.48 46.6096 524.476 46.6096C525.49 46.6096 526.468 46.7696 527.428 46.9306C527.944 47.0186 528.478 47.0726 528.993 47.2146C529.758 47.4106 530.487 47.6766 531.199 47.9436C532.515 48.4416 533.653 49.2596 534.827 50.0426C537.992 52.3546 540.393 55.7336 541.744 59.6986C541.816 59.9126 541.958 60.0726 542.029 60.2856C536.231 61.5126 530.363 62.1526 524.494 62.1526Z"
        fill="white" />
    <path
        d="M706.631 29.7506C706.542 29.7506 706.471 29.7686 706.382 29.7686C686.144 29.9106 669.748 46.3436 669.748 66.6166C669.748 66.8656 669.801 67.0966 669.819 67.3456C669.819 67.5596 669.765 67.7546 669.765 67.9506C669.765 89.0596 686.269 106.168 706.613 106.168C719.862 106.168 731.404 98.8586 737.895 87.9756L721.534 81.9816C717.853 86.4276 712.607 89.3446 706.613 89.3446C698.806 89.3446 692.102 84.5076 688.812 77.5356C694.627 78.4606 700.567 78.9586 706.631 78.9586C708.659 78.9586 710.65 78.8166 712.642 78.7096C716.572 78.4966 720.449 78.1406 724.273 77.5536C730.657 76.5576 736.899 75.0646 742.91 73.0906C743.23 71.2586 743.39 69.3556 743.444 67.4346C743.444 67.1506 743.515 66.8836 743.515 66.5986C743.515 46.2726 726.994 29.7506 706.631 29.7506ZM706.631 62.1526C700.763 62.1526 694.876 61.5306 689.079 60.2676C689.15 60.0546 689.292 59.8946 689.363 59.6816C690.715 55.6976 693.133 52.3186 696.299 49.9886C697.473 49.2246 698.611 48.4066 699.927 47.9086C700.638 47.6416 701.332 47.3746 702.079 47.1966C702.612 47.0546 703.163 47.0186 703.697 46.9126C704.657 46.7696 705.618 46.6096 706.613 46.6096C707.627 46.6096 708.605 46.7696 709.566 46.9306C710.081 47.0186 710.615 47.0726 711.13 47.2146C711.895 47.4106 712.607 47.6766 713.336 47.9436C714.652 48.4416 715.79 49.2596 716.964 50.0426C720.129 52.3546 722.53 55.7336 723.881 59.6986C723.953 59.9126 724.095 60.0726 724.166 60.2856C718.386 61.5126 712.518 62.1526 706.631 62.1526Z"
        fill="white" />
    <path
        d="M474.871 31.7766L455.22 80.7536L435.586 31.7766H430.5L422.658 50.0046L445.119 104.015H465.339L495.376 31.7766H474.871Z"
        fill="white" />
    <path
        d="M402.367 31.7766L398.828 39.9746L382.752 77.1436L382.005 79.5796L373.895 57.2076L366.764 39.9926L363.367 31.7946H342.133L372.028 101.721C369.183 109.617 364.914 112.462 355.862 112.462V130.566C361.464 130.851 366.373 130.139 370.783 128.592C378.804 125.764 385.046 119.842 389.758 110.026C389.883 109.777 389.99 109.474 390.096 109.225L419.262 41.8426L423.601 31.7946H402.367V31.7766Z"
        fill="white" />
    <path
        d="M195.362 31.7766V89.1646V107.074C195.362 108.71 194.722 110.061 193.477 111.111C192.214 112.16 190.596 112.693 188.551 112.693C187.039 112.693 185.012 112.231 182.593 111.413C181.704 113.992 180.939 116.624 180.352 119.327L180.174 120.234C179.677 122.777 179.339 125.373 179.125 128.023C183.856 129.712 188.586 130.619 193.317 130.619C199.683 130.619 204.769 128.699 208.629 124.84C212.488 120.981 214.408 115.93 214.408 109.67V73.6926V31.7766H195.362Z"
        fill="white" />
    <path
        d="M136.366 68.4186C136.366 64.6666 135.975 61.0026 135.406 57.4106C135.317 56.8766 135.264 56.3436 135.157 55.8096C134.517 52.4136 133.61 49.1236 132.49 45.9396C132.276 45.3176 132.063 44.7306 131.832 44.1256C130.622 40.9786 129.217 37.9196 127.581 35.0206C127.332 34.5756 127.048 34.1496 126.781 33.7046C124.985 30.6996 123.029 27.7826 120.806 25.0976C120.734 25.0266 120.663 24.9546 120.61 24.8836C108.09 9.83881 89.2568 0.271118 68.1828 0.271118C47.1098 0.271118 28.2758 9.83882 15.7743 24.8666C15.7031 24.9376 15.632 25.0086 15.5786 25.0796C13.3557 27.7646 11.3994 30.6816 9.6033 33.6866C9.3365 34.1316 9.052 34.5586 8.803 35.0026C7.1669 37.9196 5.762 40.9606 4.5527 44.1086C4.3215 44.7126 4.10811 45.2996 3.89471 45.9226C2.77431 49.1236 1.8673 52.4136 1.2271 55.7926C1.1204 56.3256 1.0671 56.8596 0.978104 57.3926C0.391304 61.0026 0 64.6666 0 68.4186C0 68.4366 0 68.4366 0 68.4546V68.4716C0 72.5626 0.426807 76.5456 1.12041 80.4406C6.75791 82.2896 12.4843 83.8906 18.2996 85.2956C17.855 95.8586 15.9343 101.408 10.2613 104.289C13.4979 109.5 17.3748 114.212 21.8563 118.374C32.1708 111.509 35.2118 100.234 36.0118 88.7456C38.4128 89.1186 40.8668 89.3676 43.3038 89.6526V130.591H63.5058V91.0926C65.0708 91.1286 66.6008 91.2886 68.1828 91.2886C69.7658 91.2886 71.2948 91.1286 72.8598 91.0926V130.591H93.0628V89.6346C95.4988 89.3506 97.9358 89.1016 100.354 88.7276C101.154 100.216 104.196 111.491 114.51 118.356C118.974 114.212 122.868 109.482 126.105 104.271C120.432 101.39 118.511 95.8236 118.067 85.2776C123.882 83.8726 129.626 82.2726 135.246 80.4226C135.94 76.5276 136.366 72.5446 136.366 68.4546V68.4366C136.366 68.4366 136.366 68.4366 136.366 68.4186ZM106.045 69.6986C101.866 70.5176 97.6868 71.2106 93.4898 71.7616C85.0958 72.8646 76.6478 73.4336 68.2008 73.4336C59.7538 73.4336 51.3058 72.8826 42.9128 71.7616C38.7158 71.2106 34.5188 70.5176 30.3568 69.6986C26.1958 68.8636 22.0342 67.9026 17.8905 66.8006C18.3173 53.3026 24.0971 41.1206 33.1668 32.3176C42.2368 23.5146 54.5958 18.0905 68.2008 18.0905C81.8058 18.0905 94.1648 23.5146 103.235 32.3176C112.305 41.1206 118.085 53.2846 118.511 66.8006C114.368 67.9026 110.206 68.8806 106.045 69.6986Z"
        fill="white" />
</svg>