<svg viewBox="0 0 577 328" fill="none" xmlns="http://www.w3.org/2000/svg">
    <path
        d="M533.296 223.2H533.536L533.766 223.17C534.706 223.11 535.846 222.98 537.466 222.76L537.696 222.72C537.896 222.69 538.076 222.66 538.236 222.64H547.076L551.216 214.35C552.806 211.17 553.236 208.28 553.916 196.1C553.946 195.49 553.976 194.92 553.996 194.38C554.176 194.33 554.346 194.27 554.516 194.2C564.656 190.53 576.716 180.37 576.646 152.82C576.586 135.59 574.536 124.71 569.976 117.53C566.246 111.66 561.046 107.46 554.836 105.17L559.376 104.66L530.086 0L513.536 41.51C503.396 35.36 492.416 31.44 480.696 29.75C475.966 28.99 471.106 28.58 466.196 28.58C422.526 28.58 385.456 58.71 383.746 60.12L371.216 70.24L371.336 70.37L402.516 103.23C402.336 103.23 402.166 103.22 401.986 103.22C394.276 103.22 386.906 106.13 380.696 111.62C377.336 114.58 374.586 117.95 372.466 121.66C371.346 120.23 370.326 117.87 369.496 114.26C368.056 111.32 365.676 108.9 362.686 107.42C358.596 105.39 353.766 104.36 348.306 104.36C343.986 104.36 339.236 104.98 333.796 106.25C327.816 107.65 323.286 112.55 322.376 118.64C317.856 148.79 314.956 168.31 313.076 181.02C312.076 180.98 311.176 180.98 310.446 180.98H310.136C310.106 175.33 310.086 167.33 310.086 156.02C310.086 154.93 310.106 152.51 310.206 147.1C310.296 142.62 310.336 139.24 310.336 137.07C310.336 131.87 310.296 128.01 310.226 125.26C310.086 120.43 309.946 115.43 305.516 111C301.706 107.19 296.556 105.15 290.166 104.93C289.816 104.92 289.466 104.91 289.126 104.91C283.646 104.91 278.876 106.34 274.946 109.14C274.506 109.46 274.086 109.8 273.686 110.15C274.116 104.94 271.936 98.96 266.396 95.51C266.986 93.64 267.236 91.64 267.086 89.59C266.736 84.54 263.956 80.05 259.816 77.4C260.236 76.09 260.446 74.85 260.536 73.78C261.016 68.28 258.476 62.9 253.866 59.66C251.116 57.74 247.916 56.72 244.606 56.72C242.786 56.72 241.006 57.04 239.326 57.64C236.366 54 231.986 51.66 227.116 51.56C227.106 51.14 227.086 50.72 227.046 50.3C226.256 42.1 219.466 35.92 211.256 35.92C211.016 35.92 210.726 35.93 210.486 35.94C206.146 36.14 202.266 38.09 199.526 41.07C199.006 41.25 198.506 41.46 198.006 41.71L194.856 43.26C193.276 44.04 190.426 45.6 187.506 47.91C186.106 46.93 184.426 46.09 182.386 45.6C181.106 45.29 179.796 45.13 178.486 45.13C173.186 45.13 168.276 47.72 165.356 52.04C163.846 54.28 162.976 56.84 162.766 59.47C161.216 59.85 159.506 60.52 157.756 61.64C155.386 63.09 153.706 64.76 152.506 66.47C151.846 66.38 151.186 66.33 150.526 66.33H150.196C143.866 66.4 138.226 70.2 135.786 76.06C134.996 77.95 134.596 79.92 134.556 81.87C128.726 83.32 124.146 87.87 122.856 93.94C121.796 98.95 123.206 103.86 126.296 107.48C126.266 107.76 126.226 108.04 126.206 108.32C126.186 108.61 126.196 108.89 126.196 109.17C124.646 107.83 122.806 106.69 120.576 105.94C120.476 105.91 120.366 105.88 120.266 105.85C118.056 105.16 115.656 104.81 113.116 104.81C111.986 104.81 110.806 104.88 109.596 105.02C109.566 105.02 109.526 105.03 109.496 105.03C104.796 105.6 100.816 107.17 97.6256 109.71C96.6156 108.81 95.5056 108.02 94.2756 107.41C90.1856 105.39 85.3556 104.36 79.8956 104.36C75.5756 104.36 70.8256 104.98 65.3856 106.25C64.7556 106.4 64.1356 106.59 63.5356 106.82C60.1456 105.39 55.7456 105 46.0756 104.62C45.8856 104.62 45.6856 104.61 45.4956 104.61C41.8456 104.61 38.4856 105.92 35.8656 108.12C33.2556 105.95 29.9056 104.68 26.3156 104.68C26.0656 104.68 25.8156 104.68 25.5656 104.69C25.3556 104.69 25.1156 104.71 24.8456 104.71C24.4156 104.71 23.9256 104.7 23.3756 104.68C22.4656 104.66 21.6856 104.65 21.0556 104.65C20.3456 104.65 19.7456 104.66 19.1956 104.69C11.6456 104.92 6.98563 108.03 4.39563 110.62C1.25563 113.76 -0.324375 118.11 0.055625 122.53C0.305625 125.4 0.535625 128 0.745625 130.36C2.36562 148.13 5.10562 172.87 8.86562 203.92C8.87562 204.02 8.89562 204.11 8.90562 204.21C9.01562 205 9.18563 206.4 9.41562 208.4C10.0056 213.63 13.2956 218.16 18.0856 220.35C22.7456 222.48 28.2256 223.51 34.8456 223.51C38.2156 223.51 41.9556 223.23 46.0256 222.68C48.2256 222.37 50.1956 222.02 52.0456 221.6C54.5056 222.57 57.2356 223.13 60.2256 223.25C63.4356 223.38 65.3156 223.46 65.8556 223.48C66.1556 223.5 66.4456 223.51 66.7456 223.51C71.3356 223.51 75.6256 221.41 78.4456 217.9C81.2656 221.11 85.3556 223.01 89.7256 223.01C90.1556 223.01 90.8756 223.03 91.8956 223.06C92.9656 223.12 93.8956 223.16 94.7356 223.16C95.3056 223.16 95.8056 223.14 96.2556 223.12C98.8956 223 101.176 222.52 103.136 221.84C105.636 222.92 108.416 223.49 111.366 223.49C112.376 223.49 113.426 223.43 114.486 223.3C115.736 223.17 117.146 222.92 118.996 222.51C119.056 222.49 119.126 222.48 119.186 222.46C122.106 222.22 124.886 221.12 127.186 219.32C129.236 220.93 131.716 222.01 134.406 222.37C134.736 222.43 135.276 222.53 136.016 222.67C137.846 223.03 139.426 223.25 140.836 223.34C141.646 223.41 142.446 223.45 143.216 223.45C152.446 223.45 157.276 218.54 159.366 215.55C160.226 214.31 160.866 213.04 161.356 211.66L165.236 227.17C165.276 227.32 165.426 227.85 165.446 227.93C165.866 229.35 167.606 234.37 172.036 239.21C172.056 239.23 172.076 239.25 172.096 239.27C174.596 243.17 178.556 245.92 183.086 246.88C186.906 248.42 191.086 249.24 195.466 249.24H196.406C205.596 249.24 213.926 245.68 219.836 239.21C224.246 234.39 225.986 229.38 226.426 227.95C226.496 227.71 226.566 227.46 226.626 227.22L230.026 213.6C230.796 214.8 231.696 215.93 232.766 216.97C232.806 217.01 232.846 217.05 232.886 217.08C237.436 221.41 243.636 223.51 251.846 223.51H252.166C252.946 223.51 254.406 223.48 258.666 223.23C258.726 223.23 258.796 223.23 258.856 223.22C260.386 223.12 261.336 223.09 261.856 223.09C262.066 223.09 262.256 223.1 262.416 223.11C262.526 223.11 262.636 223.12 262.746 223.12C265.276 223.23 267.406 223.27 269.276 223.27C273.586 223.27 277.776 223.09 281.536 221.32C285.026 222.77 289.116 223.51 293.896 223.51H294.216C295.006 223.51 296.456 223.48 300.726 223.23C300.786 223.23 300.846 223.23 300.916 223.22C302.446 223.12 303.386 223.09 303.916 223.09C304.116 223.09 304.306 223.1 304.476 223.11C304.586 223.11 304.686 223.12 304.796 223.12C307.326 223.23 309.466 223.27 311.336 223.27C314.946 223.27 318.476 223.14 321.736 222.06C323.856 222.74 326.156 223.15 328.636 223.25C331.846 223.38 333.726 223.46 334.266 223.48C334.556 223.5 334.856 223.51 335.156 223.51C339.746 223.51 344.036 221.41 346.856 217.9C349.676 221.11 353.766 223.01 358.136 223.01C358.566 223.01 359.286 223.03 360.306 223.06C361.376 223.12 362.306 223.16 363.146 223.16C363.716 223.16 364.216 223.14 364.666 223.12C369.666 222.9 373.376 221.4 376.046 219.63L376.866 212.02C378.226 213.56 379.736 215.03 381.396 216.42C384.086 218.65 387.176 220.33 390.616 221.48L374.076 223.34L403.366 328L419.926 286.49C430.116 292.67 441.146 296.6 452.936 298.28C457.606 299.02 462.406 299.42 467.266 299.42C510.306 299.42 546.926 270.15 549.596 267.97H549.606L562.236 257.76L562.116 257.63L548.516 243.29L530.266 223.12C529.806 223.08 529.356 223.02 528.906 222.95L529.596 222.39L530.266 223.12C530.946 223.19 531.636 223.22 532.346 223.22C532.656 223.22 532.976 223.21 533.296 223.2Z"
        fill="#151515" />
    <path
        d="M512.106 81.8996C512.106 81.8996 472.326 36.3896 405.696 84.7896L393.276 71.6996C393.276 71.6996 465.536 13.2896 520.136 65.4496L527.586 46.7496L540.176 91.7196L495.226 96.7796L512.106 81.8896V81.8996Z"
        fill="white" />
    <path
        d="M479.716 44.7798C479.716 44.7798 433.426 42.4498 418.046 76.6798L405.686 84.7998L393.266 71.7098C393.266 71.7098 435.576 36.7698 479.716 44.7898V44.7798Z"
        fill="#C8C8C8" />
    <path
        d="M510.126 62.9298C510.126 62.9298 493.306 42.2498 457.536 48.4698C457.536 48.4698 456.766 48.0498 469.556 49.0898C481.506 50.0598 489.196 49.8298 510.126 62.9298Z"
        fill="white" />
    <path
        d="M533.926 86.9699C533.926 86.9699 533.706 73.9999 527.616 62.9899C524.896 58.0699 534.466 97.5699 533.926 86.9699Z"
        fill="white" />
    <path
        d="M421.346 246.1C421.346 246.1 461.126 291.61 527.756 243.21L540.176 256.3C540.176 256.3 467.916 314.71 413.316 262.55L405.866 281.25L393.276 236.28L438.226 231.22L421.346 246.11V246.1Z"
        fill="#C8C8C8" />
    <path
        d="M453.726 283.22C453.726 283.22 500.016 285.55 515.396 251.32L527.756 243.2L540.176 256.29C540.176 256.29 497.866 291.23 453.726 283.21V283.22Z"
        fill="white" />
    <path
        d="M423.326 265.07C423.326 265.07 440.146 285.75 475.916 279.53C475.916 279.53 476.686 279.95 463.896 278.91C451.946 277.94 444.256 278.17 423.326 265.07Z"
        fill="white" />
    <path d="M399.526 241.03C399.526 241.03 399.746 254 405.836 265.01C408.556 269.93 398.986 230.43 399.526 241.03Z"
        fill="white" />
    <path
        d="M415.196 125.7C416.576 128.55 417.286 130.68 417.326 132.1C417.366 133.69 417.156 135.22 416.696 136.68C416.106 138.39 415.316 139.31 414.316 139.44C412.226 139.73 410.296 138.69 408.546 136.3C408.296 135.92 408.026 135.32 407.726 134.48C407.346 133.31 407.096 132.58 406.976 132.28C406.186 130.48 404.846 129.41 402.956 129.08C399.906 128.54 397.456 130.25 395.616 134.23C393.946 137.91 393.546 141.47 394.426 144.9C395.386 148.58 398.946 153.94 405.096 160.96C409.696 166.23 413.006 170.52 415.006 173.82C418.476 179.59 419.796 185.78 418.956 192.39C418.116 199.29 415.126 203.96 409.986 206.38C406.846 207.84 403.436 208.43 399.756 208.14C396.116 207.81 393.186 206.72 390.976 204.88C387.086 201.62 384.576 197.85 383.446 193.59C381.606 186.52 381.066 181.65 381.816 178.97C382.906 175.12 384.746 173.18 387.336 173.14C389.256 173.14 390.636 174.6 391.476 177.53C391.766 178.49 392.016 179.77 392.226 181.36C392.516 183.24 392.706 184.35 392.786 184.69C394.246 191.59 396.716 195.42 400.186 196.17C404.156 197.05 406.476 195.35 407.146 191.09C407.736 187.37 407.166 183.96 405.456 180.86C405.326 180.61 400.706 175.13 391.586 164.42C385.436 157.14 382.346 149.76 382.296 142.27C382.216 134.28 384.976 127.82 390.576 122.88C396.686 117.48 403.626 116.77 411.406 120.75C413.206 122.59 414.456 124.24 415.166 125.71L415.196 125.7Z"
        fill="white" />
    <path
        d="M433.766 145.53C434.766 156.4 435.666 163.98 436.466 168.24C437.176 166.53 438.516 162.49 440.486 156.13C442.366 150.11 443.836 145.97 444.876 143.71C446.336 140.49 447.576 138.86 448.576 138.82C449.536 138.78 450.356 139.45 451.026 140.83L452.346 144.41C457.236 157.92 460.146 165.76 461.066 167.94C463.616 142.09 465.336 126.26 466.206 120.44C470.176 119.56 472.066 119.14 471.856 119.18C474.536 118.85 476.316 119.35 477.186 120.69C477.436 121.07 477.286 124.54 476.746 131.11C473.276 171.01 470.866 196.3 469.536 206.97C465.936 208.68 463.116 208.5 461.066 206.4C460.736 206.07 459.746 203.37 458.116 198.31C452.006 179.11 448.786 169.2 448.456 168.57C447.246 171.75 445.336 178.15 442.746 187.77C440.366 196.81 438.376 203.12 436.786 206.72C434.276 208.56 431.306 208.73 427.876 207.22C427.376 204.88 426.516 197.75 425.306 185.83C424.676 179.1 423.866 170.17 422.856 159.04C421.646 144.9 420.846 135.68 420.476 131.37C419.886 125.05 419.806 121.5 420.226 120.7C421.146 118.9 422.796 118.17 425.186 118.5C426.486 118.67 428.426 119.31 431.016 120.45C431.686 125.05 432.606 133.42 433.776 145.55L433.766 145.53Z"
        fill="white" />
    <path
        d="M512.576 142.45C517.676 177.63 520.626 198.88 521.426 206.2C520.466 207.2 518.916 207.75 516.786 207.83C516.116 207.87 515.136 207.85 513.836 207.77C512.456 207.73 511.496 207.71 510.946 207.71C510.026 206.08 509.226 203.63 508.566 200.37C507.726 196.19 506.996 193.18 506.366 191.33C504.856 191.33 502.326 191.35 498.776 191.39C495.266 191.43 492.756 191.45 491.246 191.45C490.826 192.83 490.366 195.76 489.866 200.24C489.486 203.96 488.776 206.62 487.736 208.21C487.816 208.21 485.836 208.13 481.776 207.96C479.646 207.88 478.056 207.4 477.006 206.52C477.256 203.93 481.526 174.98 489.806 119.69C498.426 117.68 504.756 117.68 508.816 119.69C509.566 122.91 510.826 130.5 512.576 142.47V142.45ZM492.056 180.16H505.486C505.316 178.28 504.876 172.82 504.166 163.79C503.536 156.47 502.956 150.3 502.406 145.28C501.816 140.26 500.716 137.73 499.076 137.69C498.196 138.07 497.506 139.07 497.006 140.7C495.496 151.83 493.846 164.98 492.046 180.16H492.056Z"
        fill="white" />
    <path
        d="M535.416 207.9C534.206 208.07 533.306 208.17 532.716 208.21C530.586 208.29 529.096 207.69 528.256 206.39C528.136 206.14 528.066 202.52 528.066 195.54C528.066 171.28 528.426 146.45 529.136 121.06C530.346 119.72 531.936 118.95 533.906 118.74C534.446 118.7 535.416 118.66 536.796 118.62C538.136 118.58 539.226 118.5 540.056 118.37C547.916 117.45 553.676 119.86 557.306 125.59C560.146 130.07 561.596 139.16 561.636 152.88C561.676 168.06 557.596 177.14 549.406 180.11C548.616 180.4 546.876 180.7 544.196 180.99C541.976 181.2 540.636 181.58 540.176 182.12C539.756 182.62 539.336 187.04 538.926 195.36C538.506 202.89 538.136 206.99 537.796 207.66C537.296 207.66 536.496 207.74 535.416 207.91V207.9ZM538.306 162.66C538.556 164.46 539.266 166.13 540.436 167.68C541.736 169.31 543.066 170.11 544.456 170.06C545.836 170.02 547.136 169.16 548.346 167.49C549.436 165.98 550.106 164.37 550.356 162.66V148.92C550.356 140.97 550.206 136.18 549.916 134.55C549.036 129.41 546.736 127.31 543.016 128.28C540.336 128.95 538.766 131.54 538.306 136.06V162.66Z"
        fill="white" />
    <path
        d="M44.5 118.69C44.29 121.76 44.11 124.16 43.94 125.9C42.57 144.08 41.1 161.91 39.53 179.39C39.07 184.27 37.77 186.57 35.62 186.28C34.95 186.16 34.31 185.14 33.69 183.24C33.24 181.79 32.95 180.59 32.82 179.63C32.66 177.73 32.26 174.33 31.64 169.45C30.94 163.65 30.34 158.41 29.84 153.73C28.64 143.13 27.46 133.69 26.3 125.4C25.93 122.88 25.59 120.66 25.3 118.76C24.48 118.8 23.36 118.8 21.95 118.76C20.46 118.72 19.42 118.72 18.84 118.76C16.61 118.8 14.99 119.32 14 120.31C14.25 123.17 14.47 125.76 14.68 128.08C16.3 145.76 18.99 170.13 22.76 201.19C22.88 202.06 23.07 203.59 23.32 205.79C27.58 207.73 34.13 208.11 42.95 206.91C44.73 206.66 46.34 206.37 47.79 206.04C48.17 204.01 48.52 201.75 48.85 199.27C49.01 198.31 49.59 193.65 50.59 185.29C53.36 161.97 55.29 142.61 56.37 127.2C56.57 124.51 56.74 122.05 56.86 119.81C56.16 119.36 52.04 118.98 44.5 118.69Z"
        fill="white" />
    <path
        d="M90.3501 142.49C88.6101 130.64 87.3601 123.13 86.6201 119.94C82.6001 117.95 76.3301 117.95 67.8001 119.94C59.6001 174.69 55.3701 203.35 55.1201 205.91C56.1601 206.78 57.7301 207.26 59.8401 207.34C63.7801 207.51 65.7501 207.59 65.7501 207.59C66.7801 206.02 67.4901 203.39 67.8601 199.7C68.3501 195.27 68.8101 192.37 69.2201 191C70.7201 191 73.2001 190.98 76.6801 190.94C80.2001 190.9 82.7001 190.88 84.2001 190.88C84.8201 192.7 85.5401 195.68 86.3701 199.82C87.0301 203.05 87.8201 205.48 88.7301 207.09C89.2701 207.09 90.2201 207.11 91.5901 207.15C92.8701 207.24 93.8401 207.26 94.5101 207.22C96.6201 207.13 98.1501 206.59 99.1001 205.6C98.3201 198.35 95.4001 177.32 90.3501 142.49ZM70.0301 179.82C71.8101 164.79 73.4501 151.76 74.9401 140.75C75.4401 139.13 76.1201 138.14 76.9901 137.77C78.6001 137.81 79.7001 140.31 80.2801 145.28C80.8201 150.25 81.4001 156.36 82.0201 163.61C82.7201 172.55 83.1601 177.96 83.3301 179.82H70.0301Z"
        fill="white" />
    <path
        d="M147.39 132.37C147.39 131.59 147.39 130.83 147.38 130.08C147.38 128.48 147.36 126.96 147.34 125.53C147.33 125.13 147.33 124.73 147.33 124.35C147.3 122.99 147.28 121.7 147.25 120.5C147.2 120.46 147.15 120.43 147.09 120.39C147.03 120.35 146.97 120.31 146.91 120.27C146.83 120.21 146.74 120.16 146.65 120.1C146.08 119.76 145.45 119.47 144.77 119.25C144.73 119.25 144.68 119.22 144.64 119.21C143.85 118.96 142.97 118.78 142.03 118.69C139.67 118.49 137.91 118.94 136.75 120.06C136.7 120.69 136.66 121.45 136.61 122.35C136.59 122.89 136.56 123.48 136.54 124.12C136.19 132.07 135.88 147.54 135.57 170.54C135.27 169.68 130.36 157.15 120.85 132.92C120.64 132.42 120.27 131.31 119.73 129.57C119.11 127.66 118.63 126.21 118.3 125.22C116.97 121.57 115.81 119.59 114.82 119.25C113.62 118.88 112.11 118.8 110.29 119C108.21 119.25 106.68 119.83 105.69 120.74C105.28 153.09 105.42 178.93 106.12 198.27C106.33 203.24 106.56 205.89 106.81 206.22C107.8 207.38 109.48 207.8 111.84 207.47C112.42 207.42 113.35 207.26 114.63 206.97C115.71 206.72 116.48 206.59 116.93 206.59C116.85 196.49 116.79 179.72 116.75 156.28C117.95 158.47 120.14 162.88 123.33 169.51C126.85 176.88 129.05 181.4 129.92 183.05C132.36 187.77 133.71 190.8 133.95 192.12C134.29 193.74 134.51 196.18 134.64 199.45C134.76 202.52 135.03 204.9 135.44 206.59C135.78 206.64 136.58 206.78 137.87 207.03C139.15 207.28 140.19 207.42 140.97 207.47C143.54 207.71 145.24 207.24 146.07 206.04C146.56 205.33 146.81 201.98 146.81 195.97C146.81 190.67 146.96 177.75 147.25 157.21C147.35 149.46 147.4 142.61 147.4 136.64C147.4 135.16 147.4 133.74 147.39 132.37Z"
        fill="white" />
    <path
        d="M275.51 196.72C274.68 195.43 271.17 194.9 264.95 195.1C258.16 195.35 253.94 195 252.28 194.05C252.11 191.27 252.03 178.29 252.03 155.1C252.03 153.44 252.07 150.38 252.16 145.9C252.24 141.47 252.28 138.22 252.28 136.15V135.46C252.28 134.83 252.28 134.22 252.27 133.63C252.25 125.26 252.11 120.94 251.85 120.68C250.81 119.65 249.07 119.09 246.63 119C244.78 118.94 243.21 119.18 241.95 119.7C241.45 119.9 241.01 120.14 240.6 120.43C240.55 121.35 240.51 122.3 240.47 123.28C240.41 124.84 240.35 126.48 240.29 128.19C240.22 130.57 240.16 133.09 240.11 135.77C239.98 142.14 239.92 149.35 239.92 157.4C239.92 177.23 239.94 189.53 239.98 194.3C240.02 200.22 240.77 203.88 242.22 205.29C243.87 206.86 246.85 207.63 251.16 207.59C251.99 207.59 253.87 207.51 256.82 207.34C259.18 207.18 261.02 207.13 262.34 207.22C269.59 207.51 273.59 207.34 274.33 206.72C275.08 206.06 275.62 204.46 275.95 201.94C276.24 199.37 276.09 197.63 275.51 196.72Z"
        fill="white" />
    <path
        d="M317.57 196.72C316.74 195.43 313.22 194.9 307.01 195.1C300.22 195.35 295.99 195 294.34 194.05C294.17 191.27 294.09 178.29 294.09 155.1C294.09 153.44 294.13 150.38 294.21 145.9C294.29 141.47 294.34 138.22 294.34 136.15C294.34 126.13 294.19 120.97 293.9 120.68C292.87 119.65 291.13 119.09 288.68 119C286.11 118.92 284.11 119.4 282.66 120.43C282.2 129.67 281.97 141.99 281.97 157.4C281.97 177.23 281.99 189.53 282.04 194.3C282.08 200.22 282.82 203.88 284.27 205.29C285.93 206.86 288.91 207.63 293.22 207.59C294.05 207.59 295.93 207.51 298.87 207.34C301.23 207.18 303.07 207.13 304.4 207.22C311.65 207.51 315.64 207.34 316.39 206.72C317.13 206.06 317.67 204.46 318 201.94C318.29 199.37 318.15 197.63 317.57 196.72Z"
        fill="white" />
    <path
        d="M358.75 142.49C357.02 130.64 355.77 123.13 355.03 119.94C351.01 117.95 344.74 117.95 336.21 119.94C328.01 174.69 323.78 203.35 323.53 205.91C324.57 206.78 326.14 207.26 328.25 207.34C332.19 207.51 334.16 207.59 334.16 207.59C335.19 206.02 335.89 203.39 336.27 199.7C336.76 195.27 337.22 192.37 337.63 191C339.12 191 341.61 190.98 345.09 190.94C348.61 190.9 351.11 190.88 352.61 190.88C353.23 192.7 353.95 195.68 354.78 199.82C355.44 203.05 356.23 205.48 357.14 207.09C357.68 207.09 358.63 207.11 360 207.15C361.28 207.24 362.25 207.26 362.92 207.22C365.03 207.13 366.56 206.59 367.51 205.6C366.73 198.35 363.81 177.32 358.75 142.49ZM338.44 179.82C340.22 164.79 341.86 151.76 343.35 140.75C343.85 139.13 344.53 138.14 345.4 137.77C347.01 137.81 348.11 140.31 348.69 145.28C349.23 150.25 349.81 156.36 350.43 163.61C351.13 172.55 351.57 177.96 351.74 179.82H338.44Z"
        fill="white" />
    <mask id="mask0_108_2270" style="mask-type:luminance" maskUnits="userSpaceOnUse" x="162" y="126" width="67"
        height="103">
        <path
            d="M195.516 228.411C195.386 228.411 195.256 228.411 195.116 228.411C195.096 228.411 194.996 228.411 194.966 228.411C194.836 228.411 194.696 228.411 194.566 228.411C191.076 228.411 188.256 227.311 186.186 225.151C184.816 223.711 184.196 222.221 184.066 221.871L167.836 156.921C167.396 155.141 166.076 153.951 164.576 153.951C164.286 153.951 163.996 153.991 163.706 154.081C163.656 154.081 163.546 154.101 163.406 154.101C162.636 154.101 162.356 153.851 162.116 152.921C161.906 152.101 162.046 151.661 162.346 151.241C162.666 150.781 163.126 150.451 163.306 150.341C164.896 149.571 165.666 147.651 165.246 145.721L163.146 135.921C165.596 129.741 170.066 126.731 176.786 126.731C184.116 126.731 191.486 130.291 193.566 131.391C194.036 131.631 194.536 131.761 195.036 131.761C195.536 131.761 196.036 131.641 196.506 131.391C198.586 130.301 205.956 126.731 213.286 126.731C220.006 126.731 224.476 129.741 226.926 135.921L224.826 145.721C224.416 147.651 225.176 149.571 226.766 150.341C226.946 150.451 227.406 150.781 227.726 151.241C228.026 151.671 228.166 152.101 227.956 152.921C227.716 153.841 227.436 154.101 226.666 154.101C226.526 154.101 226.426 154.091 226.366 154.081C226.076 153.991 225.776 153.951 225.496 153.951C223.986 153.951 222.676 155.141 222.236 156.921L206.006 221.871C205.876 222.231 205.256 223.711 203.886 225.151C201.816 227.311 199.006 228.411 195.506 228.411H195.516Z"
            fill="white" />
    </mask>
    <g mask="url(#mask0_108_2270)">
        <path d="M253.636 119.131H157.676V238.491H253.636V119.131Z" fill="white" />
        <path
            d="M301.266 168.831L299.296 166.571L283.316 184.831L277.266 177.921L293.246 159.661L291.276 157.401L275.296 175.661L269.246 168.751L285.226 150.491L283.256 148.231L267.276 166.491L261.226 159.581L277.206 141.321L275.236 139.061L259.256 157.321L253.206 150.411L269.186 132.151L267.216 129.891L251.236 148.151L245.186 141.241L261.166 122.981L259.196 120.721L243.216 138.981L237.166 132.071L253.146 113.811L251.176 111.551L235.196 129.811L229.146 122.891L245.126 104.641L243.156 102.381L227.176 120.631L221.126 113.721L237.106 95.4609L235.136 93.2009L219.156 111.461L213.106 104.551L229.086 86.2909L227.116 84.0309L211.136 102.291L205.086 95.3809L221.066 77.1309L219.096 74.8709L203.116 93.1209L197.066 86.2109L213.046 67.9509L211.076 65.6909L195.096 83.9509L179.116 65.6909L177.146 67.9509L193.126 86.2109L187.076 93.1209L171.096 74.8609L169.126 77.1209L185.106 95.3809L179.056 102.291L163.076 84.0409L161.106 86.3009L177.086 104.561L171.036 111.471L155.056 93.2109L153.086 95.4709L169.066 113.731L163.016 120.641L147.036 102.391L145.066 104.651L161.046 122.901L154.996 129.811L139.016 111.551L137.046 113.811L153.026 132.071L146.976 138.981L130.996 120.731L129.026 122.991L145.006 141.241L138.956 148.151L122.976 129.901L121.006 132.161L136.986 150.421L130.936 157.331L114.956 139.071L112.986 141.331L128.966 159.591L122.916 166.501L106.936 148.251L104.966 150.511L120.946 168.761L114.896 175.671L98.9161 157.411L96.9461 159.671L112.926 177.931L106.876 184.841L90.8961 166.591L88.9261 168.851L104.906 187.101L88.9261 205.361L90.8961 207.621L106.876 189.361L112.926 196.281L96.9461 214.531L98.9161 216.791L114.896 198.541L120.946 205.451L104.966 223.701L106.936 225.961L122.916 207.711L128.966 214.621L112.996 232.871L114.966 235.131L130.936 216.881L136.986 223.801L121.006 242.051L122.976 244.311L138.956 226.061L145.006 232.971L129.026 251.231L130.996 253.491L146.976 235.231L153.026 242.151L137.046 260.401L139.016 262.661L154.996 244.411L161.046 251.321L145.066 269.571L147.036 271.831L163.006 253.581L169.056 260.491L153.086 278.741L155.056 281.001L171.026 262.751L177.076 269.671L161.096 287.921L163.066 290.181L179.046 271.931L185.096 278.841L169.126 297.091L171.096 299.351L187.066 281.101L193.116 288.021L177.136 306.271L179.106 308.531L195.086 290.281L211.066 308.541L213.036 306.281L197.056 288.021L203.106 281.101L219.086 299.361L221.056 297.101L205.076 278.841L211.126 271.931L227.106 290.191L229.076 287.931L213.096 269.671L219.146 262.761L235.126 281.021L237.096 278.761L221.116 260.501L227.166 253.591L243.146 271.851L245.116 269.591L229.136 251.331L235.186 244.421L251.166 262.681L253.136 260.421L237.156 242.161L243.206 235.251L259.186 253.511L261.156 251.251L245.176 232.991L251.226 226.081L267.206 244.341L269.176 242.081L253.196 223.821L259.246 216.901L275.226 235.161L277.196 232.901L261.216 214.641L267.266 207.731L283.246 225.991L285.216 223.731L269.236 205.471L275.286 198.561L291.266 216.821L293.236 214.561L277.256 196.301L283.306 189.391L299.286 207.651L301.256 205.391L285.276 187.131L301.256 168.871L301.266 168.831ZM273.316 177.921L267.266 184.831L261.216 177.921L267.266 171.011L273.316 177.921ZM197.016 177.921L203.066 171.011L209.116 177.931L203.066 184.841L197.016 177.921ZM201.096 187.091L195.046 194.001L188.996 187.091L195.046 180.181L201.096 187.101V187.091ZM195.046 175.661L188.996 168.751L195.046 161.841L201.096 168.751L195.046 175.661ZM193.076 177.921L187.026 184.831L180.976 177.921L187.026 171.001L193.076 177.911V177.921ZM185.046 187.091L178.996 194.001L172.946 187.091L178.996 180.181L185.046 187.091ZM187.016 189.351L193.066 196.271L187.016 203.181L180.966 196.271L187.016 189.351ZM195.046 198.521L201.096 205.431L195.046 212.341L188.996 205.431L195.046 198.521ZM197.016 196.261L203.066 189.351L209.116 196.261L203.066 203.171L197.016 196.261ZM205.036 187.091L211.086 180.181L217.136 187.091L211.086 194.001L205.036 187.091ZM213.056 177.921L219.106 171.001L225.156 177.911L219.106 184.821L213.056 177.911V177.921ZM211.086 175.661L205.036 168.741L211.086 161.831L217.136 168.741L211.086 175.661ZM203.066 166.491L197.016 159.581L203.066 152.671L209.116 159.581L203.066 166.491ZM195.036 157.321L188.986 150.411L195.036 143.491L201.086 150.411L195.036 157.321ZM193.066 159.581L187.016 166.491L180.966 159.581L187.016 152.671L193.066 159.581ZM185.046 168.751L178.996 175.671L172.946 168.751L178.996 161.841L185.046 168.751ZM177.026 177.921L170.976 184.831L164.926 177.921L170.976 171.011L177.026 177.931V177.921ZM168.996 187.091L162.946 194.001L156.896 187.091L162.946 180.181L168.996 187.091ZM170.966 189.351L177.016 196.271L170.966 203.181L164.916 196.271L170.966 189.351ZM178.996 198.521L185.046 205.431L178.996 212.341L172.946 205.421L178.996 198.511V198.521ZM187.016 207.691L193.066 214.601L187.016 221.521L180.966 214.611L187.016 207.701V207.691ZM195.036 216.861L201.086 223.771L195.036 230.681L188.986 223.771L195.036 216.851V216.861ZM197.006 214.601L203.056 207.691L209.106 214.601L203.056 221.511L197.006 214.601ZM205.026 205.431L211.076 198.521L217.126 205.431L211.076 212.341L205.026 205.431ZM213.046 196.261L219.096 189.351L225.146 196.261L219.096 203.171L213.046 196.261ZM221.076 187.091L227.126 180.181L233.176 187.091L227.126 194.001L221.076 187.091ZM229.096 177.921L235.146 171.001L241.196 177.921L235.146 184.831L229.096 177.921ZM227.126 175.661L221.076 168.751L227.126 161.841L233.176 168.751L227.126 175.671V175.661ZM219.106 166.491L213.056 159.581L219.106 152.671L225.156 159.581L219.106 166.491ZM211.076 157.321L205.026 150.411L211.076 143.501L217.126 150.411L211.076 157.321ZM203.056 148.151L197.006 141.241L203.056 134.331L209.106 141.241L203.056 148.151ZM195.026 138.981L188.976 132.071L195.026 125.151L201.076 132.061L195.026 138.971V138.981ZM193.056 141.241L187.006 148.151L180.956 141.241L187.006 134.331L193.056 141.241ZM185.036 150.411L178.986 157.321L172.936 150.411L178.986 143.501L185.036 150.411ZM177.016 159.581L170.966 166.491L164.916 159.581L170.966 152.671L177.016 159.581ZM168.986 168.751L162.936 175.661L156.886 168.751L162.936 161.841L168.986 168.751ZM160.966 177.921L154.916 184.831L148.866 177.921L154.916 171.011L160.966 177.921ZM152.946 187.091L146.896 194.001L140.846 187.091L146.896 180.181L152.946 187.091ZM154.916 189.351L160.966 196.271L154.916 203.181L148.866 196.261L154.916 189.351ZM162.936 198.521L168.986 205.431L162.936 212.341L156.886 205.431L162.936 198.521ZM170.956 207.691L177.006 214.611L170.956 221.521L164.906 214.601L170.956 207.691ZM178.986 216.861L185.036 223.771L178.986 230.681L172.936 223.771L178.986 216.861ZM187.006 226.031L193.056 232.941L187.006 239.851L180.956 232.941L187.006 226.031ZM195.026 235.201L201.076 242.111L195.026 249.021L188.976 242.101L195.026 235.191V235.201ZM196.996 232.941L203.046 226.031L209.096 232.941L203.046 239.851L196.996 232.941ZM205.016 223.771L211.066 216.861L217.116 223.781L211.066 230.691L205.016 223.781V223.771ZM213.036 214.601L219.086 207.691L225.136 214.601L219.086 221.521L213.036 214.601ZM221.066 205.431L227.116 198.521L233.166 205.431L227.116 212.341L221.066 205.431ZM229.086 196.261L235.136 189.351L241.186 196.271L235.136 203.181L229.086 196.261ZM237.106 187.091L243.156 180.181L249.206 187.091L243.156 194.001L237.106 187.091ZM245.126 177.921L251.176 171.011L257.226 177.931L251.176 184.841L245.126 177.931V177.921ZM243.156 175.661L237.106 168.741L243.156 161.831L249.206 168.741L243.156 175.651V175.661ZM235.136 166.491L229.086 159.581L235.136 152.671L241.186 159.581L235.136 166.491ZM227.116 157.321L221.066 150.411L227.116 143.501L233.166 150.421L227.116 157.331V157.321ZM219.096 148.151L213.046 141.241L219.096 134.331L225.146 141.241L219.096 148.151ZM211.076 138.981L205.026 132.071L211.076 125.161L217.126 132.081L211.076 138.991V138.981ZM203.056 129.811L197.006 122.901L203.056 115.991L209.106 122.901L203.056 129.821V129.811ZM195.026 120.641L188.976 113.731L195.026 106.821L201.076 113.731L195.026 120.641ZM193.056 122.901L187.006 129.821L180.956 122.901L187.006 115.991L193.056 122.901ZM185.036 132.071L178.986 138.981L172.936 132.071L178.986 125.151L185.036 132.071ZM177.016 141.241L170.966 148.151L164.916 141.241L170.966 134.331L177.016 141.241ZM168.996 150.411L162.946 157.321L156.896 150.411L162.946 143.491L168.996 150.401V150.411ZM160.976 159.581L154.926 166.491L148.876 159.581L154.926 152.671L160.976 159.581ZM152.956 168.751L146.906 175.661L140.856 168.751L146.906 161.841L152.956 168.751ZM144.926 177.921L138.876 184.831L132.826 177.921L138.876 171.011L144.926 177.921ZM136.906 187.091L130.856 194.001L124.806 187.091L130.856 180.181L136.906 187.091ZM138.876 189.351L144.926 196.261L138.876 203.171L132.826 196.261L138.876 189.351ZM146.896 198.521L152.946 205.431L146.896 212.341L140.846 205.431L146.896 198.521ZM154.926 207.691L160.976 214.601L154.926 221.511L148.876 214.601L154.926 207.691ZM162.946 216.861L168.996 223.781L162.946 230.691L156.896 223.771L162.946 216.861ZM170.966 226.031L177.016 232.941L170.966 239.851L164.916 232.941L170.966 226.031ZM178.986 235.201L185.036 242.111L178.986 249.021L172.936 242.111L178.986 235.201ZM187.006 244.371L193.056 251.281L187.006 258.191L180.956 251.281L187.006 244.371ZM195.036 253.541L201.086 260.451L195.036 267.361L188.986 260.451L195.036 253.541ZM197.006 251.281L203.056 244.371L209.106 251.281L203.056 258.191L197.006 251.281ZM205.026 242.111L211.076 235.201L217.126 242.111L211.076 249.031L205.026 242.121V242.111ZM213.046 232.941L219.096 226.031L225.146 232.941L219.096 239.851L213.046 232.941ZM221.076 223.771L227.126 216.851L233.176 223.761L227.126 230.671L221.076 223.761V223.771ZM229.096 214.601L235.146 207.691L241.196 214.601L235.146 221.511L229.096 214.601ZM237.116 205.431L243.166 198.521L249.216 205.431L243.166 212.341L237.116 205.431ZM245.136 196.261L251.186 189.341L257.236 196.251L251.186 203.171L245.136 196.261ZM253.166 187.091L259.216 180.181L265.266 187.091L259.216 194.001L253.166 187.091ZM265.266 168.751L259.216 175.661L253.166 168.741L259.216 161.831L265.266 168.741V168.751ZM257.246 159.581L251.196 166.491L245.146 159.581L251.196 152.671L257.246 159.581ZM249.226 150.411L243.176 157.321L237.126 150.411L243.176 143.501L249.226 150.411ZM241.206 141.241L235.156 148.151L229.106 141.241L235.156 134.331L241.206 141.241ZM233.176 132.071L227.126 138.981L221.076 132.071L227.126 125.151L233.176 132.071ZM225.146 122.901L219.096 129.821L213.046 122.901L219.096 115.991L225.146 122.901ZM217.126 113.731L211.076 120.641L205.026 113.731L211.076 106.821L217.126 113.731ZM209.106 104.561L203.056 111.471L197.006 104.561L203.056 97.6509L209.106 104.561ZM195.026 88.4809L201.076 95.3909L195.026 102.301L188.976 95.3909L195.026 88.4809ZM186.996 97.6509L193.046 104.561L186.996 111.471L180.946 104.561L186.996 97.6509ZM178.976 106.821L185.026 113.731L178.976 120.641L172.926 113.731L178.976 106.821ZM170.956 115.991L177.006 122.901L170.956 129.821L164.906 122.901L170.956 115.991ZM162.936 125.161L168.986 132.081L162.936 138.991L156.886 132.081L162.936 125.171V125.161ZM154.916 134.331L160.966 141.241L154.916 148.151L148.866 141.241L154.916 134.331ZM146.886 143.501L152.936 150.421L146.886 157.331L140.836 150.421L146.886 143.501ZM138.866 152.671L144.916 159.581L138.866 166.491L132.816 159.581L138.866 152.671ZM130.836 161.841L136.886 168.751L130.836 175.661L124.786 168.741L130.836 161.831V161.841ZM122.816 171.011L128.866 177.931L122.816 184.841L116.766 177.931L122.816 171.021V171.011ZM108.736 187.091L114.786 180.181L120.836 187.091L114.786 194.001L108.736 187.091ZM116.766 196.261L122.816 189.341L128.866 196.251L122.816 203.171L116.766 196.261ZM124.786 205.431L130.836 198.521L136.886 205.431L130.836 212.341L124.786 205.431ZM132.806 214.601L138.856 207.691L144.906 214.601L138.856 221.521L132.806 214.601ZM140.836 223.771L146.886 216.851L152.936 223.761L146.886 230.671L140.836 223.761V223.771ZM148.856 232.941L154.906 226.031L160.956 232.951L154.906 239.861L148.856 232.941ZM156.886 242.111L162.936 235.191L168.986 242.101L162.936 249.021L156.886 242.111ZM164.906 251.281L170.956 244.371L177.006 251.281L170.956 258.191L164.906 251.281ZM172.926 260.451L178.976 253.541L185.026 260.451L178.976 267.371L172.926 260.451ZM180.956 269.621L187.006 262.701L193.056 269.611L187.006 276.521L180.956 269.611V269.621ZM195.036 285.701L188.986 278.791L195.036 271.881L201.086 278.791L195.036 285.701ZM203.066 276.531L197.016 269.621L203.066 262.711L209.116 269.631L203.066 276.541V276.531ZM211.086 267.361L205.036 260.441L211.086 253.531L217.136 260.441L211.086 267.351V267.361ZM219.116 258.191L213.066 251.281L219.116 244.371L225.166 251.281L219.116 258.191ZM227.136 249.021L221.086 242.101L227.136 235.191L233.186 242.101L227.136 249.021ZM235.156 239.851L229.106 232.941L235.156 226.031L241.206 232.941L235.156 239.851ZM243.176 230.681L237.126 223.771L243.176 216.861L249.226 223.781L243.176 230.691V230.681ZM251.196 221.511L245.146 214.591L251.196 207.681L257.246 214.591L251.196 221.511ZM259.216 212.341L253.166 205.431L259.216 198.521L265.266 205.431L259.216 212.341ZM267.246 203.171L261.196 196.251L267.246 189.341L273.296 196.251L267.246 203.161V203.171ZM275.266 194.001L269.216 187.091L275.266 180.181L281.316 187.091L275.266 194.001Z"
            fill="white" />
        <path
            d="M301.266 167.591L299.296 165.331L283.316 183.591L277.266 176.681L293.246 158.421L291.276 156.161L275.296 174.421L269.246 167.511L285.226 149.251L283.256 146.991L267.276 165.251L261.226 158.331L277.206 140.071L275.236 137.811L259.256 156.071L253.206 149.161L269.186 130.901L267.216 128.641L251.236 146.901L245.186 139.991L261.166 121.731L259.196 119.471L243.216 137.731L237.166 130.821L253.146 112.561L251.176 110.301L235.196 128.561L229.146 121.651L245.126 103.391L243.156 101.131L227.176 119.391L221.126 112.471L237.106 94.2209L235.136 91.9609L219.156 110.211L213.106 103.301L229.086 85.0409L227.116 82.7809L211.136 101.041L205.086 94.1209L221.066 75.8709L219.096 73.6109L203.116 91.8609L197.066 84.9509L213.046 66.7009L211.076 64.4409L195.096 82.6909L179.116 64.4409L177.146 66.7009L193.126 84.9509L187.076 91.8609L171.096 73.6009L169.126 75.8609L185.106 94.1209L179.056 101.031L163.076 82.7709L161.106 85.0309L177.086 103.291L171.036 110.201L155.056 91.9409L153.086 94.2009L169.066 112.461L163.016 119.371L147.036 101.111L145.066 103.371L161.046 121.631L154.996 128.541L139.016 110.291L137.046 112.551L153.026 130.801L146.976 137.711L130.996 119.461L129.026 121.721L145.006 139.971L138.956 146.891L122.976 128.631L121.006 130.891L136.986 149.151L130.936 156.061L114.956 137.811L112.986 140.071L128.966 158.321L122.916 165.231L106.936 146.971L104.966 149.231L120.946 167.491L114.896 174.401L98.9161 156.151L96.9461 158.411L112.926 176.661L106.876 183.571L90.8961 165.321L88.9261 167.581L104.906 185.831L88.9261 204.091L90.8961 206.351L106.876 188.091L112.926 195.011L96.9461 213.261L98.9161 215.521L114.896 197.271L120.946 204.181L104.966 222.441L106.936 224.701L122.916 206.441L128.966 213.351L112.996 231.601L114.966 233.861L130.936 215.611L136.986 222.521L121.006 240.771L122.976 243.031L138.956 224.781L145.006 231.691L129.026 249.951L130.996 252.211L146.976 233.951L153.026 240.871L137.046 259.121L139.016 261.381L154.996 243.131L161.046 250.041L145.066 268.291L147.036 270.551L163.006 252.301L169.056 259.211L153.086 277.461L155.056 279.721L171.026 261.471L177.076 268.381L161.096 286.631L163.066 288.891L179.046 270.641L185.096 277.551L169.126 295.801L171.096 298.061L187.066 279.811L193.116 286.731L177.136 304.981L179.106 307.241L195.086 288.991L211.066 307.251L213.036 304.991L197.056 286.731L203.106 279.811L219.086 298.071L221.056 295.811L205.076 277.551L211.126 270.641L227.106 288.901L229.076 286.641L213.096 268.381L219.146 261.471L235.126 279.731L237.096 277.471L221.116 259.211L227.166 252.291L243.146 270.551L245.116 268.291L229.136 250.031L235.186 243.121L251.166 261.381L253.136 259.121L237.156 240.861L243.206 233.951L259.186 252.211L261.156 249.951L245.176 231.691L251.226 224.781L267.206 243.041L269.176 240.781L253.196 222.521L259.246 215.611L275.226 233.871L277.196 231.611L261.216 213.351L267.266 206.431L283.246 224.691L285.216 222.431L269.236 204.171L275.286 197.261L291.266 215.521L293.236 213.261L277.256 195.001L283.306 188.091L299.286 206.351L301.256 204.091L285.276 185.831L301.256 167.571L301.266 167.591ZM273.316 176.681L267.266 183.591L261.216 176.681L267.266 169.771L273.316 176.681ZM197.016 176.681L203.066 169.771L209.116 176.691L203.066 183.601L197.016 176.681ZM201.096 185.851L195.046 192.761L188.996 185.841L195.046 178.931L201.096 185.851ZM195.046 174.421L188.996 167.511L195.046 160.601L201.096 167.511L195.046 174.421ZM193.076 176.681L187.026 183.591L180.976 176.681L187.026 169.771L193.076 176.681ZM185.046 185.851L178.996 192.771L172.946 185.851L178.996 178.941L185.046 185.851ZM187.016 188.111L193.066 195.031L187.016 201.941L180.966 195.031L187.016 188.111ZM195.046 197.281L201.096 204.191L195.046 211.111L188.996 204.201L195.046 197.291V197.281ZM197.016 195.021L203.066 188.111L209.116 195.021L203.066 201.931L197.016 195.021ZM205.036 185.851L211.086 178.941L217.136 185.851L211.086 192.761L205.036 185.851ZM213.056 176.681L219.106 169.771L225.156 176.681L219.106 183.591L213.056 176.681ZM211.086 174.421L205.036 167.501L211.086 160.591L217.136 167.511L211.086 174.421ZM203.066 165.251L197.016 158.341L203.066 151.431L209.116 158.341L203.066 165.251ZM195.036 156.081L188.986 149.171L195.036 142.251L201.086 149.171L195.036 156.081ZM193.066 158.341L187.016 165.251L180.966 158.331L187.016 151.421L193.066 158.331V158.341ZM185.046 167.511L178.996 174.421L172.946 167.511L178.996 160.591L185.046 167.511ZM177.026 176.681L170.976 183.591L164.926 176.681L170.976 169.771L177.026 176.681ZM168.996 185.851L162.946 192.771L156.896 185.851L162.946 178.941L168.996 185.851ZM170.966 188.111L177.016 195.031L170.966 201.941L164.916 195.031L170.966 188.111ZM178.996 197.281L185.046 204.191L178.996 211.111L172.946 204.191L178.996 197.281ZM187.016 206.451L193.066 213.361L187.016 220.271L180.966 213.361L187.016 206.441V206.451ZM195.036 215.621L201.086 222.531L195.036 229.441L188.986 222.531L195.036 215.621ZM197.006 213.361L203.056 206.441L209.106 213.361L203.056 220.271L197.006 213.361ZM205.026 204.191L211.076 197.281L217.126 204.191L211.076 211.111L205.026 204.191ZM213.046 195.021L219.096 188.111L225.146 195.021L219.096 201.931L213.046 195.021ZM221.076 185.851L227.126 178.941L233.176 185.851L227.126 192.761L221.076 185.851ZM229.096 176.681L235.146 169.771L241.196 176.681L235.146 183.591L229.096 176.681ZM227.126 174.421L221.076 167.511L227.126 160.591L233.176 167.501L227.126 174.411V174.421ZM219.106 165.251L213.056 158.331L219.106 151.421L225.156 158.331L219.106 165.251ZM211.076 156.081L205.026 149.171L211.076 142.261L217.126 149.171L211.076 156.081ZM203.056 146.911L197.006 139.991L203.056 133.081L209.106 139.991L203.056 146.901V146.911ZM195.026 137.741L188.976 130.831L195.026 123.921L201.076 130.831L195.026 137.741ZM193.056 140.001L187.006 146.921L180.956 140.011L187.006 133.101L193.056 140.011V140.001ZM185.036 149.171L178.986 156.081L172.936 149.171L178.986 142.261L185.036 149.171ZM177.016 158.341L170.966 165.261L164.916 158.351L170.966 151.441L177.016 158.351V158.341ZM168.986 167.511L162.936 174.421L156.886 167.511L162.936 160.591L168.986 167.501V167.511ZM160.966 176.681L154.916 183.591L148.866 176.681L154.916 169.771L160.966 176.681ZM152.946 185.851L146.896 192.761L140.846 185.851L146.896 178.941L152.946 185.851ZM154.916 188.111L160.966 195.031L154.916 201.941L148.866 195.031L154.916 188.121V188.111ZM162.936 197.281L168.986 204.191L162.936 211.101L156.886 204.191L162.936 197.281ZM170.956 206.451L177.006 213.371L170.956 220.281L164.906 213.361L170.956 206.451ZM178.986 215.621L185.036 222.531L178.986 229.441L172.936 222.531L178.986 215.621ZM187.006 224.791L193.056 231.701L187.006 238.611L180.956 231.701L187.006 224.791ZM195.026 233.961L201.076 240.881L195.026 247.791L188.976 240.881L195.026 233.971V233.961ZM196.996 231.701L203.046 224.791L209.096 231.701L203.046 238.621L196.996 231.701ZM205.016 222.531L211.066 215.621L217.116 222.531L211.066 229.441L205.016 222.531ZM213.036 213.361L219.086 206.441L225.136 213.361L219.086 220.271L213.036 213.361ZM221.066 204.191L227.116 197.281L233.166 204.191L227.116 211.101L221.066 204.181V204.191ZM229.086 195.021L235.136 188.111L241.186 195.031L235.136 201.941L229.086 195.031V195.021ZM237.106 185.851L243.156 178.941L249.206 185.851L243.156 192.771L237.106 185.851ZM245.126 176.681L251.176 169.771L257.226 176.681L251.176 183.591L245.126 176.681ZM243.156 174.421L237.106 167.511L243.156 160.601L249.206 167.521L243.156 174.431V174.421ZM235.136 165.251L229.086 158.341L235.136 151.431L241.186 158.341L235.136 165.251ZM227.116 156.081L221.066 149.171L227.116 142.261L233.166 149.181L227.116 156.091V156.081ZM219.096 146.911L213.046 140.001L219.096 133.091L225.146 140.001L219.096 146.911ZM211.076 137.741L205.026 130.831L211.076 123.921L217.126 130.831L211.076 137.741ZM203.056 128.571L197.006 121.661L203.056 114.751L209.106 121.661L203.056 128.571ZM195.026 119.401L188.976 112.491L195.026 105.581L201.076 112.491L195.026 119.401ZM193.056 121.661L187.006 128.571L180.956 121.661L187.006 114.751L193.056 121.661ZM185.036 130.831L178.986 137.741L172.936 130.831L178.986 123.921L185.036 130.831ZM177.016 140.001L170.966 146.911L164.916 140.001L170.966 133.091L177.016 140.001ZM168.996 149.171L162.946 156.081L156.896 149.171L162.946 142.251L168.996 149.161V149.171ZM160.976 158.341L154.926 165.261L148.876 158.341L154.926 151.431L160.976 158.341ZM152.956 167.511L146.906 174.421L140.856 167.511L146.906 160.591L152.956 167.511ZM144.926 176.681L138.876 183.591L132.826 176.681L138.876 169.771L144.926 176.681ZM136.906 185.851L130.856 192.761L124.806 185.851L130.856 178.941L136.906 185.851ZM138.876 188.111L144.926 195.021L138.876 201.931L132.826 195.021L138.876 188.111ZM146.896 197.281L152.946 204.191L146.896 211.101L140.846 204.181L146.896 197.271V197.281ZM154.926 206.451L160.976 213.361L154.926 220.271L148.876 213.361L154.926 206.451ZM162.946 215.621L168.996 222.541L162.946 229.451L156.896 222.531L162.946 215.621ZM170.966 224.791L177.016 231.701L170.966 238.611L164.916 231.701L170.966 224.791ZM178.986 233.961L185.036 240.871L178.986 247.781L172.936 240.871L178.986 233.961ZM187.006 243.131L193.056 250.041L187.006 256.951L180.956 250.031L187.006 243.121V243.131ZM195.036 252.301L201.086 259.211L195.036 266.121L188.986 259.211L195.036 252.301ZM197.006 250.041L203.056 243.131L209.106 250.041L203.056 256.951L197.006 250.041ZM205.026 240.871L211.076 233.951L217.126 240.861L211.076 247.771L205.026 240.861V240.871ZM213.046 231.701L219.096 224.791L225.146 231.701L219.096 238.621L213.046 231.711V231.701ZM221.076 222.531L227.126 215.621L233.176 222.531L227.126 229.441L221.076 222.531ZM229.096 213.361L235.146 206.451L241.196 213.361L235.146 220.271L229.096 213.361ZM237.116 204.191L243.166 197.281L249.216 204.191L243.166 211.111L237.116 204.201V204.191ZM245.136 195.021L251.186 188.101L257.236 195.011L251.186 201.921L245.136 195.011V195.021ZM253.166 185.851L259.216 178.941L265.266 185.851L259.216 192.761L253.166 185.851ZM265.266 167.511L259.216 174.421L253.166 167.511L259.216 160.601L265.266 167.521V167.511ZM257.246 158.341L251.196 165.251L245.146 158.331L251.196 151.421L257.246 158.331V158.341ZM249.226 149.171L243.176 156.081L237.126 149.171L243.176 142.261L249.226 149.171ZM241.206 140.001L235.156 146.911L229.106 139.991L235.156 133.081L241.206 139.991V140.001ZM233.176 130.831L227.126 137.741L221.076 130.831L227.126 123.921L233.176 130.831ZM225.146 121.661L219.096 128.571L213.046 121.661L219.096 114.741L225.146 121.661ZM217.126 112.491L211.076 119.411L205.026 112.501L211.076 105.591L217.126 112.501V112.491ZM209.106 103.321L203.056 110.231L197.006 103.321L203.056 96.4109L209.106 103.321ZM195.026 87.2409L201.076 94.1509L195.026 101.061L188.976 94.1509L195.026 87.2409ZM186.996 96.4109L193.046 103.321L186.996 110.231L180.946 103.321L186.996 96.4109ZM178.976 105.581L185.026 112.491L178.976 119.401L172.926 112.491L178.976 105.581ZM170.956 114.751L177.006 121.661L170.956 128.571L164.906 121.661L170.956 114.751ZM162.936 123.921L168.986 130.831L162.936 137.741L156.886 130.831L162.936 123.921ZM154.916 133.091L160.966 140.001L154.916 146.921L148.866 140.001L154.916 133.091ZM146.886 142.261L152.936 149.181L146.886 156.091L140.836 149.181L146.886 142.261ZM138.866 151.431L144.916 158.341L138.866 165.261L132.816 158.341L138.866 151.431ZM130.836 160.601L136.886 167.521L130.836 174.431L124.786 167.521L130.836 160.611V160.601ZM122.816 169.771L128.866 176.681L122.816 183.591L116.766 176.681L122.816 169.771ZM108.736 185.851L114.786 178.941L120.836 185.851L114.786 192.771L108.736 185.851ZM116.766 195.021L122.816 188.101L128.866 195.011L122.816 201.921L116.766 195.011V195.021ZM124.786 204.191L130.836 197.281L136.886 204.191L130.836 211.111L124.786 204.201V204.191ZM132.806 213.361L138.856 206.441L144.906 213.361L138.856 220.271L132.806 213.361ZM140.836 222.531L146.886 215.621L152.936 222.531L146.886 229.441L140.836 222.531ZM148.856 231.701L154.906 224.791L160.956 231.711L154.906 238.631L148.856 231.711V231.701ZM156.886 240.871L162.936 233.951L168.986 240.861L162.936 247.771L156.886 240.861V240.871ZM164.906 250.041L170.956 243.131L177.006 250.041L170.956 256.961L164.906 250.051V250.041ZM172.926 259.211L178.976 252.291L185.026 259.211L178.976 266.121L172.926 259.211ZM180.956 268.381L187.006 261.471L193.056 268.381L187.006 275.291L180.956 268.381ZM195.036 284.461L188.986 277.541L195.036 270.631L201.086 277.541L195.036 284.461ZM203.066 275.291L197.016 268.381L203.066 261.471L209.116 268.381L203.066 275.291ZM211.086 266.121L205.036 259.211L211.086 252.301L217.136 259.221L211.086 266.131V266.121ZM219.116 256.951L213.066 250.031L219.116 243.121L225.166 250.031L219.116 256.951ZM227.136 247.781L221.086 240.871L227.136 233.951L233.186 240.871L227.136 247.781ZM235.156 238.611L229.106 231.691L235.156 224.781L241.206 231.691L235.156 238.601V238.611ZM243.176 229.441L237.126 222.531L243.176 215.621L249.226 222.531L243.176 229.441ZM251.196 220.271L245.146 213.361L251.196 206.441L257.246 213.361L251.196 220.271ZM259.216 211.101L253.166 204.181L259.216 197.271L265.266 204.181L259.216 211.101ZM267.246 201.931L261.196 195.021L267.246 188.111L273.296 195.031L267.246 201.941V201.931ZM275.266 192.761L269.216 185.841L275.266 178.931L281.316 185.841L275.266 192.751V192.761Z"
            fill="#C8C8C8" />
        <g style="mix-blend-mode:multiply">
            <path
                d="M254.316 143.151C253.516 139.161 251.216 135.141 247.486 132.791C253.426 126.481 257.366 118.571 258.416 109.601C261.426 83.991 239.816 59.551 210.146 54.991C180.476 50.441 153.986 67.511 150.986 93.111C149.666 104.381 153.106 115.421 159.916 124.651C151.316 126.721 141.646 133.301 145.856 142.061C151.656 154.121 163.046 145.611 170.046 142.951C177.946 139.951 190.716 143.551 196.836 149.191C200.416 152.491 202.766 158.351 208.926 158.751C216.376 159.231 213.636 153.041 216.976 148.511C226.006 136.241 232.466 149.161 241.026 153.521C251.636 158.921 255.926 151.071 254.326 143.141L254.316 143.151Z"
                fill="white" />
        </g>
        <g style="mix-blend-mode:multiply" opacity="0.3">
            <path
                d="M163.776 126.601H160.006C159.276 126.601 158.586 126.991 158.146 127.661C157.706 128.331 157.566 129.201 157.776 130.001L183.466 230.431C183.756 231.561 184.666 232.341 185.696 232.341C186.726 232.341 187.636 231.561 187.926 230.431L194.956 202.941C178.166 188.461 166.096 160.121 163.766 126.601H163.776Z"
                fill="white" />
        </g>
    </g>
    <path
        d="M195.516 234.331C195.366 234.331 195.206 234.331 195.046 234.331C188.456 234.471 184.436 231.611 182.216 229.181C179.806 226.541 178.966 223.831 178.926 223.721L178.896 223.631L162.996 160.021C162.146 159.971 161.116 159.761 160.096 159.161C158.526 158.241 157.456 156.691 156.896 154.551C155.806 150.351 157.836 147.371 159.696 145.851L157.476 135.501L157.646 135.011C159.786 128.651 163.516 124.371 168.736 122.271C178.506 118.351 190.446 123.341 195.036 125.621C199.626 123.351 211.556 118.351 221.336 122.271C226.556 124.361 230.286 128.651 232.426 135.011L232.596 135.501L230.376 145.851C232.236 147.381 234.266 150.351 233.176 154.551C232.626 156.691 231.546 158.241 229.976 159.161C228.966 159.761 227.926 159.971 227.076 160.021L211.166 223.671V223.711C211.116 223.821 210.276 226.541 207.866 229.171C205.696 231.541 201.806 234.321 195.496 234.321L195.516 234.331ZM182.546 222.651C182.756 223.291 185.446 230.771 195.006 230.551H195.046H195.086C195.226 230.551 195.366 230.551 195.506 230.551C204.726 230.551 207.366 223.191 207.546 222.641L224.286 155.661L226.116 156.191C226.876 156.361 228.786 156.471 229.526 153.581C230.426 150.101 227.696 148.501 227.376 148.331L226.096 147.671L226.416 146.271L228.676 135.701C226.886 130.701 223.946 127.351 219.926 125.741C210.716 122.041 198.306 128.121 195.916 129.371L195.036 129.831L194.156 129.371C191.766 128.121 179.346 122.041 170.136 125.741C166.116 127.351 163.176 130.701 161.386 135.701L163.946 147.681L162.666 148.341C162.366 148.501 159.636 150.101 160.536 153.581C160.826 154.711 161.316 155.491 161.996 155.891C162.896 156.421 163.946 156.191 163.956 156.191L165.796 155.711L182.526 222.641L182.546 222.651Z"
        fill="white" />
    <path
        d="M222.626 153.091H166.346C165.956 153.091 165.636 152.771 165.636 152.381C165.636 151.991 165.956 151.671 166.346 151.671H222.626C223.016 151.671 223.336 151.991 223.336 152.381C223.336 152.771 223.016 153.091 222.626 153.091Z"
        fill="white" />
    <path
        d="M229.136 158.011H159.796C159.016 158.011 158.386 157.381 158.386 156.601C158.386 155.821 159.016 155.191 159.796 155.191H229.136C229.916 155.191 230.546 155.821 230.546 156.601C230.546 157.381 229.916 158.011 229.136 158.011Z"
        fill="white" />
    <path
        d="M226.226 144.851C221.516 144.851 216.536 142.671 212.056 138.671C209.156 140.381 206.066 141.861 202.746 141.861C198.396 141.861 194.256 139.451 189.496 134.091C187.006 135.711 182.116 138.361 176.746 138.361C170.816 138.361 165.896 135.341 163.586 133.641C161.936 134.701 159.096 136.181 155.996 136.181C153.146 136.181 150.596 134.931 148.606 132.561C144.816 128.041 143.636 122.381 145.456 117.431C147.206 112.631 151.436 109.411 157.056 108.441C156.566 105.911 156.376 102.321 157.786 98.491C159.136 94.721 161.846 91.911 165.606 90.381C167.076 89.781 168.526 89.441 169.776 89.261C169.606 88.651 169.456 87.981 169.336 87.281C168.536 82.611 169.546 78.761 172.256 76.131C176.976 71.561 183.646 70.601 188.406 70.601C189.156 70.601 189.856 70.621 190.486 70.661C190.456 68.521 190.946 65.951 192.496 63.381C194.656 59.801 200.006 57.091 200.606 56.791L203.756 55.231L203.896 59.141C203.996 61.671 204.816 66.231 206.586 67.691C208.416 69.191 211.126 69.471 213.986 69.771C216.886 70.071 219.886 70.381 222.666 71.931C225.936 73.761 228.156 76.931 229.436 81.611C230.476 84.581 230.216 87.731 229.776 89.951C230.366 90.211 231.016 90.561 231.676 91.021C233.856 92.521 236.676 95.551 237.776 101.481L237.796 101.571V101.661C238.476 106.991 237.026 111.021 235.576 113.581C237.876 114.861 240.746 117.151 242.176 121.001C243.936 125.711 243.106 131.361 239.686 137.771L239.536 138.051L239.336 138.281C235.566 142.571 231.026 144.841 226.206 144.841L226.226 144.851Z"
        fill="white" />
    <path
        d="M237.686 136.381C229.746 145.431 219.816 142.851 212.336 135.451C204.826 140.101 199.396 142.201 189.856 130.671C189.856 130.671 183.666 135.671 176.736 135.671C174.066 135.671 171.616 134.981 169.576 134.091C165.986 132.541 163.656 130.401 163.656 130.401C163.656 130.401 155.706 137.121 150.316 130.691C143.416 122.451 147.496 111.101 160.246 110.831C160.246 110.831 157.746 105.511 159.966 99.511C163.016 90.991 173.226 91.741 173.226 91.741C173.226 91.741 168.836 82.961 173.776 78.171C180.836 71.331 193.406 73.671 193.406 73.671C193.406 73.671 191.606 69.581 194.436 64.901C196.276 61.851 201.546 59.251 201.546 59.251C201.546 59.251 201.836 67.091 205.216 69.871C210.366 74.091 218.976 70.601 224.146 76.341C225.416 77.751 226.476 79.721 227.226 82.511C228.756 86.731 226.806 91.841 226.806 91.841C226.806 91.841 233.696 92.391 235.496 102.041C236.526 110.231 231.666 114.771 231.666 114.771C231.666 114.771 247.096 118.701 237.696 136.371L237.686 136.381Z"
        fill="white" />
    <path
        d="M237.686 136.381C229.746 145.431 219.816 142.851 212.336 135.451C204.826 140.101 199.396 142.201 189.856 130.671C189.856 130.671 183.666 135.671 176.736 135.671C182.706 132.991 187.006 129.951 189.016 124.941C203.206 131.921 205.846 127.681 217.606 129.271C228.396 128.991 227.946 124.831 224.766 118.961C221.576 113.091 197.356 117.621 181.666 115.951C165.976 114.271 169.556 110.271 169.556 110.271C169.556 110.271 183.046 110.831 189.906 110.551C196.776 110.271 217.116 107.761 222.266 104.681C227.416 101.611 228.886 97.1311 225.456 94.0611C222.026 90.9911 215.736 93.1911 199.556 93.4711C183.376 93.7511 179.606 89.3111 179.606 89.3111C179.606 89.3111 189.996 89.9111 199.556 89.0711C209.116 88.2311 214.646 86.8711 221.516 82.1211C223.806 80.5411 224.286 77.9511 224.146 76.3511C225.416 77.7611 226.476 79.7311 227.226 82.5211C228.756 86.7411 226.806 91.8511 226.806 91.8511C226.806 91.8511 233.696 92.4011 235.496 102.051C236.526 110.241 231.666 114.781 231.666 114.781C231.666 114.781 247.096 118.711 237.696 136.381H237.686Z"
        fill="#C8C8C8" />
    <path
        d="M151.606 149.101C150.676 149.101 149.806 148.661 149.176 147.871C147.676 146.001 147.816 142.611 148.126 138.701C148.146 138.501 148.156 138.291 148.176 138.091C147.926 137.921 147.616 137.711 147.246 137.451C145.456 136.171 144.626 133.261 144.476 127.711C144.386 124.361 144.596 121.271 144.606 121.141L145.376 118.581L146.526 119.161L147.796 129.321L159.376 127.331C159.376 127.501 162.296 126.531 160.586 135.591C160.086 138.461 160.316 142.731 156.856 142.731C156.696 142.731 156.546 142.721 156.406 142.701C156.046 145.021 155.236 148.171 152.516 148.971C152.206 149.061 151.906 149.101 151.606 149.101Z"
        fill="white" />
    <path
        d="M159.896 123.491C159.896 123.491 159.876 125.711 159.456 130.091C159.316 131.541 159.136 133.241 158.886 135.171C157.906 142.921 155.826 139.131 154.866 139.041C153.906 138.961 154.656 145.561 151.926 146.361C150.436 146.791 150.216 144.341 150.296 141.841C150.356 139.761 150.636 137.651 150.566 137.171C150.406 136.121 150.886 136.861 148.496 135.161C146.116 133.461 146.956 121.341 146.956 121.341L159.896 123.481V123.491Z"
        fill="white" />
    <path
        d="M158.896 135.171C157.916 142.921 155.836 139.131 154.876 139.041C153.916 138.961 154.666 145.561 151.936 146.361C150.446 146.791 150.226 144.341 150.306 141.841C150.936 142.211 151.586 142.361 152.106 141.611C153.556 139.551 153.556 132.001 153.556 132.001C153.556 132.001 155.126 136.121 156.686 135.301C158.256 134.471 158.676 128.781 158.676 128.781C158.676 128.781 159.156 133.241 158.906 135.171H158.896Z"
        fill="white" />
    <path
        d="M157.636 126.631C160.456 128.481 161.966 126.531 163.476 121.361C163.136 128.311 159.696 131.071 157.636 126.631Z"
        fill="white" />
    <path
        d="M200.246 63.0308C200.246 63.0308 198.026 68.3808 199.016 71.4708C200.006 74.5708 201.486 72.8808 206.666 76.5408C211.846 80.2008 210.366 82.7308 210.366 82.7308C210.366 82.7308 220.486 80.4808 218.516 76.8208C216.546 73.1608 213.086 75.4108 206.416 72.0408C199.746 68.6608 200.246 63.0408 200.246 63.0408V63.0308Z"
        fill="white" />
    <path
        d="M187.906 74.0007C187.906 74.0007 176.496 76.8207 174.656 79.1707C172.816 81.5307 174.196 84.1407 178.786 85.4507C183.376 86.7607 190.956 86.7607 190.956 86.7607C190.956 86.7607 179.246 84.4007 179.936 81.0007C180.626 77.6007 187.906 73.9907 187.906 73.9907V74.0007Z"
        fill="white" />
    <path
        d="M172.806 92.9512C172.806 92.9512 162.286 95.7312 161.516 100.601C160.756 105.471 167.616 106.861 173.106 106.861C178.596 106.861 192.176 105.471 192.176 105.471C192.176 105.471 168.996 107.381 166.706 103.041C164.416 98.6912 172.806 92.9612 172.806 92.9612V92.9512Z"
        fill="white" />
    <path
        d="M165.196 112.801C165.196 112.801 155.736 111.471 152.466 114.661C149.196 117.861 147.796 122.781 148.146 126.381C148.496 129.971 149.546 131.571 149.546 131.571C149.546 131.571 148.966 123.981 151.886 119.591C154.806 115.201 165.196 112.801 165.196 112.801Z"
        fill="white" />
    <path
        d="M237.456 128.721C237.456 128.721 236.726 133.681 231.896 135.891C227.056 138.101 221.736 137.541 221.736 137.541C221.736 137.541 227.056 141.401 232.616 138.641C238.176 135.881 237.456 128.721 237.456 128.721Z"
        fill="white" />
    <path
        d="M233.006 104.931C233.006 104.931 231.276 109.101 228.136 110.891C224.996 112.681 220.976 113.501 220.976 113.501C220.976 113.501 226.146 114.661 229.686 112.651C233.226 110.631 233.016 104.931 233.016 104.931H233.006Z"
        fill="white" />
    <path
        d="M156.636 124.821C156.636 124.821 158.206 127.931 159.996 126.141C161.776 124.351 162.196 121.601 162.196 121.601C162.196 121.601 159.886 124.711 158.836 124.831C157.786 124.951 156.636 124.831 156.636 124.831V124.821Z"
        fill="white" />
    <path
        d="M189.966 130.741C191.646 132.271 194.296 131.721 197.176 130.501C197.176 130.501 194.606 132.651 192.196 132.851C189.796 133.051 188.936 132.651 188.936 132.651L189.956 130.741H189.966Z"
        fill="white" />
    <path
        d="M224.936 79.531C224.936 79.531 226.096 83.491 224.296 85.981C222.496 88.471 216.836 90.231 216.836 90.231C216.836 90.231 224.296 90.821 225.976 88.321C227.646 85.831 224.946 79.521 224.946 79.521L224.936 79.531Z"
        fill="white" />
    <path
        d="M208.126 133.621C208.706 134.281 210.296 135.111 213.046 134.941C215.796 134.771 218.406 133.781 218.406 133.781C218.406 133.781 214.646 138.071 212.036 137.251C209.426 136.421 208.126 133.621 208.126 133.621Z"
        fill="white" />
    <path
        d="M244.706 72.5809C244.656 73.1909 244.356 73.4109 244.076 73.6609C242.426 75.1609 240.776 76.6809 239.126 78.1909C238.916 78.3809 238.686 78.5809 238.436 78.7109C237.976 78.9409 237.546 78.8309 237.206 78.4509C236.866 78.0609 236.976 77.6209 237.286 77.3309C239.236 75.5309 241.196 73.7609 243.186 72.0009C243.516 71.7109 243.976 71.7509 244.346 72.0209C244.596 72.2009 244.716 72.4609 244.706 72.5809Z"
        fill="white" />
    <path
        d="M149.546 81.4209C149.956 81.3809 150.256 81.5909 150.526 81.8709C152.036 83.4109 153.556 84.9509 155.056 86.4909C155.506 86.9509 155.936 87.4809 155.326 88.1009C154.706 88.7309 154.176 88.2909 153.726 87.8409C152.196 86.3209 150.696 84.7709 149.186 83.2309C148.836 82.8709 148.516 82.4509 148.746 81.9009C148.886 81.5709 149.166 81.4009 149.546 81.4209Z"
        fill="white" />
    <path
        d="M138.276 96.501C140.266 96.971 142.596 97.511 144.916 98.091C145.416 98.221 145.856 98.531 145.686 99.161C145.516 99.801 145.046 99.971 144.426 99.821C142.136 99.291 139.836 98.781 137.546 98.241C136.976 98.111 136.496 97.801 136.646 97.131C136.786 96.461 137.346 96.401 138.276 96.501Z"
        fill="white" />
    <path
        d="M250.636 90.021C250.256 89.861 249.906 89.961 249.566 90.131C247.646 91.111 245.716 92.081 243.796 93.071C243.216 93.371 242.656 93.731 243.026 94.511C243.406 95.311 244.056 95.061 244.626 94.771C246.556 93.811 248.476 92.831 250.396 91.841C250.846 91.611 251.276 91.321 251.236 90.721C251.206 90.361 250.996 90.111 250.636 90.011V90.021Z"
        fill="white" />
    <path
        d="M256.516 107.911C254.486 107.731 252.096 107.491 249.716 107.301C249.206 107.261 248.686 107.421 248.646 108.071C248.606 108.731 248.996 109.041 249.626 109.101C251.966 109.331 254.306 109.571 256.656 109.791C257.236 109.841 257.786 109.711 257.866 109.021C257.946 108.331 257.436 108.111 256.516 107.901V107.911Z"
        fill="white" />
    <path
        d="M135.926 125.191C135.016 125.191 134.106 125.191 133.196 125.191C132.576 125.191 131.976 125.081 131.996 124.281C132.016 123.601 132.526 123.401 133.116 123.391C134.976 123.371 136.846 123.361 138.706 123.341C139.336 123.341 139.806 123.611 139.786 124.261C139.766 124.911 139.276 125.141 138.656 125.131C137.746 125.121 136.836 125.131 135.926 125.131C135.926 125.151 135.926 125.171 135.926 125.201V125.191Z"
        fill="white" />
    <path
        d="M253.486 136.691C251.626 136.311 249.766 135.941 247.916 135.531C247.446 135.431 247.066 135.111 247.196 134.551C247.316 134.041 247.706 133.791 248.216 133.851C250.226 134.101 252.186 134.561 254.146 135.061C254.616 135.181 254.816 135.521 254.666 136.011C254.486 136.601 254.036 136.721 253.486 136.681V136.691Z"
        fill="white" />
    <path
        d="M181.336 64.9409C181.346 65.2609 181.176 65.4909 180.926 65.6609C180.626 65.8609 180.226 65.9309 180.006 65.6809C178.776 64.2909 177.586 62.8409 176.886 61.1109C176.606 60.4209 177.266 60.0909 177.966 60.2609C178.396 60.3609 181.326 64.4909 181.346 64.9409H181.336Z"
        fill="white" />
    <path
        d="M164.546 76.5707C164.006 76.4907 163.656 76.2007 163.676 75.7607C163.716 75.0107 164.386 74.7207 164.936 74.3707C165.366 74.0907 165.836 73.9107 166.316 74.2207C166.646 74.4407 166.846 74.8207 166.596 75.1707C166.076 75.8907 165.276 76.2307 164.556 76.5707H164.546Z"
        fill="white" />
    <path
        d="M227.326 68.6607C227.326 69.0407 227.086 69.4607 226.536 69.3607C225.526 69.1807 225.276 68.2807 225.066 67.4607C224.926 66.9307 225.356 66.6507 225.876 66.6207C226.486 66.5907 227.316 67.6807 227.326 68.6607Z"
        fill="white" />
    <path
        d="M139.796 150.37C139.536 151.06 139.116 151.65 138.296 151.76C137.796 151.83 137.506 151.52 137.526 151.03C137.566 150.21 138.096 149.76 138.826 149.59C139.346 149.47 139.646 149.83 139.796 150.38V150.37Z"
        fill="white" />
    <path
        d="M242.136 147.351C241.556 147.261 241.216 146.921 241.256 146.361C241.296 145.781 241.696 145.511 242.286 145.561C242.826 145.611 243.116 145.931 243.096 146.451C243.066 147.021 242.706 147.321 242.136 147.351Z"
        fill="white" />
    <path
        d="M210.366 52.8608C209.836 52.8008 209.416 52.5108 209.396 51.9508C209.376 51.3908 209.766 51.0208 210.316 51.0008C210.826 50.9808 211.176 51.3208 211.226 51.8208C211.286 52.3908 210.926 52.7208 210.366 52.8608Z"
        fill="white" />
    <path
        d="M141.186 110.271C140.646 110.181 140.256 109.911 140.296 109.321C140.326 108.821 140.636 108.491 141.176 108.501C141.786 108.501 142.076 108.841 142.056 109.421C142.036 109.961 141.716 110.221 141.186 110.271Z"
        fill="white" />
    <path
        d="M235.496 185.121C235.536 185.551 235.336 185.811 235.056 186.011C234.746 186.231 234.386 186.251 234.146 185.991C232.456 184.181 230.726 182.401 229.246 180.411C228.986 180.061 229.186 179.691 229.476 179.421C229.806 179.111 230.186 179.131 230.486 179.421C232.256 181.101 233.846 182.951 235.396 184.831C235.466 184.921 235.476 185.061 235.496 185.121Z"
        fill="white" />
    <path
        d="M154.416 185.711C153.626 185.671 153.186 184.891 153.666 184.351C155.226 182.591 156.876 180.901 158.516 179.211C158.846 178.871 159.276 178.931 159.626 179.271C159.966 179.611 160.036 180.091 159.746 180.401C158.146 182.131 156.506 183.821 154.866 185.521C154.736 185.651 154.506 185.681 154.416 185.721V185.711Z"
        fill="white" />
    <path
        d="M251.256 123.841C250.716 123.751 250.326 123.481 250.366 122.891C250.396 122.391 250.706 122.061 251.246 122.071C251.856 122.071 252.146 122.411 252.126 122.991C252.106 123.531 251.786 123.791 251.256 123.841Z"
        fill="white" />
</svg>